<?xml version="1.0" encoding="UTF-8" standalone="no"?>
<!-- Created with Inkscape (http://www.inkscape.org/) -->

<svg
   xmlns:dc="http://purl.org/dc/elements/1.1/"
   xmlns:cc="http://creativecommons.org/ns#"
   xmlns:rdf="http://www.w3.org/1999/02/22-rdf-syntax-ns#"
   xmlns:svg="http://www.w3.org/2000/svg"
   xmlns="http://www.w3.org/2000/svg"
   xmlns:sodipodi="http://sodipodi.sourceforge.net/DTD/sodipodi-0.dtd"
   xmlns:inkscape="http://www.inkscape.org/namespaces/inkscape"
   width="457.20001mm"
   height="304.79999mm"
   viewBox="0 0 1620 1080"
   id="svg2"
   version="1.1"
   inkscape:version="0.91 r13725"
   sodipodi:docname="Cartel-logo-E2O.svg">
  <defs
     id="defs4" />
  <sodipodi:namedview
     id="base"
     pagecolor="#ffffff"
     bordercolor="#666666"
     borderopacity="1.0"
     inkscape:pageopacity="0.0"
     inkscape:pageshadow="2"
     inkscape:zoom="0.82005988"
     inkscape:cx="417.97419"
     inkscape:cy="536.01791"
     inkscape:document-units="px"
     inkscape:current-layer="layer2"
     showgrid="false"
     inkscape:window-width="1855"
     inkscape:window-height="1056"
     inkscape:window-x="69"
     inkscape:window-y="1048"
     inkscape:window-maximized="1"
     showguides="true"
     inkscape:guide-bbox="true"
     inkscape:snap-global="false" />
  <metadata
     id="metadata7">
    <rdf:RDF>
      <cc:Work
         rdf:about="">
        <dc:format>image/svg+xml</dc:format>
        <dc:type
           rdf:resource="http://purl.org/dc/dcmitype/StillImage" />
        <dc:title></dc:title>
      </cc:Work>
    </rdf:RDF>
  </metadata>
  <g
     inkscape:groupmode="layer"
     id="layer2"
     inkscape:label="Layer 2"
     style="display:inline">
    <path
       inkscape:connector-curvature="0"
       id="path3570"
       style="font-style:normal;font-variant:normal;font-weight:bold;font-stretch:normal;font-size:medium;line-height:125%;font-family:sans-serif;-inkscape-font-specification:'sans-serif Bold';letter-spacing:0px;word-spacing:0px;fill:none;fill-opacity:1;stroke:#ff0000;stroke-width:0.99999994px;stroke-linecap:butt;stroke-linejoin:miter;stroke-opacity:1"
       d="m 124.07154,532.36055 28.47452,0 0,10.30587 -17.92333,0 0,9.84553 16.85452,0 0,10.30587 -16.85452,0 0,12.11208 18.52625,0 0,10.30587 -29.07744,0 0,-52.87522 z" />
    <path
       inkscape:connector-curvature="0"
       id="path3572"
       style="font-style:normal;font-variant:normal;font-weight:bold;font-stretch:normal;font-size:medium;line-height:125%;font-family:sans-serif;-inkscape-font-specification:'sans-serif Bold';letter-spacing:0px;word-spacing:0px;fill:none;fill-opacity:1;stroke:#ff0000;stroke-width:0.99999994px;stroke-linecap:butt;stroke-linejoin:miter;stroke-opacity:1"
       d="m 185.98103,546.81005 0,9.63298 q -3.15167,-1.69992 -6.08406,-2.54986 -2.9324,-0.85001 -5.53595,-0.85001 -2.79539,0 -4.16566,0.92081 -1.3429,0.8854 -1.3429,2.76244 0,1.5228 1.01401,2.33733 1.04143,0.81458 3.69978,1.20416 l 1.72655,0.31918 q 7.53656,1.23955 10.14011,4.07276 2.60354,2.83321 2.60354,8.88926 0,6.3394 -3.61754,9.52677 -3.61755,3.18739 -10.79785,3.18739 -3.04205,0 -6.30332,-0.6375 -3.23387,-0.60208 -6.65957,-1.84162 l 0,-9.63299 q 2.93239,1.84163 6.00183,2.76241 3.09685,0.92084 6.27591,0.92084 2.87762,0 4.33009,-1.02707 1.45251,-1.027 1.45251,-3.04575 0,-1.69989 -1.01401,-2.51448 -0.98659,-0.84994 -3.97382,-1.31038 l -1.72655,-0.28355 q -6.54998,-1.06248 -9.18091,-3.93113 -2.63097,-2.86861 -2.63097,-8.71221 0,-6.30393 3.34351,-9.34961 3.34351,-3.04576 10.24973,-3.04576 2.71316,0 5.7004,0.53124 2.9872,0.53122 6.49514,1.66451 z" />
    <path
       inkscape:connector-curvature="0"
       id="path3574"
       style="font-style:normal;font-variant:normal;font-weight:bold;font-stretch:normal;font-size:medium;line-height:125%;font-family:sans-serif;-inkscape-font-specification:'sans-serif Bold';letter-spacing:0px;word-spacing:0px;fill:none;fill-opacity:1;stroke:#ff0000;stroke-width:0.99999994px;stroke-linecap:butt;stroke-linejoin:miter;stroke-opacity:1"
       d="m 220.23819,546.81005 0,10.34132 q -2.00063,-1.77075 -4.02867,-2.62073 -2.00059,-0.85001 -4.16567,-0.85001 -4.11085,0 -6.41291,3.11659 -2.2747,3.0811 -2.2747,8.64134 0,5.56023 2.2747,8.67678 2.30206,3.08117 6.41291,3.08117 2.30209,0 4.35752,-0.88545 2.08284,-0.88536 3.83682,-2.62071 l 0,10.37675 q -2.30209,1.09783 -4.6864,1.62907 -2.35689,0.56667 -4.74117,0.56667 -8.30395,0 -12.99032,-5.48936 -4.68637,-5.52484 -4.68637,-15.33492 0,-9.81005 4.68637,-15.29945 4.68637,-5.52481 12.99032,-5.52481 2.41169,0 4.74117,0.56664 2.35689,0.53127 4.6864,1.62911 z" />
    <path
       inkscape:connector-curvature="0"
       id="path3576"
       style="font-style:normal;font-variant:normal;font-weight:bold;font-stretch:normal;font-size:medium;line-height:125%;font-family:sans-serif;-inkscape-font-specification:'sans-serif Bold';letter-spacing:0px;word-spacing:0px;fill:none;fill-opacity:1;stroke:#ff0000;stroke-width:0.99999994px;stroke-linecap:butt;stroke-linejoin:miter;stroke-opacity:1"
       d="m 228.43248,569.79463 0,-24.22416 9.86608,0 0,3.96656 q 0,3.22285 -0.0292,8.11013 -0.0291,4.85193 -0.0291,6.48105 0,4.78106 0.19154,6.90596 0.19189,2.08949 0.65778,3.04576 0.60292,1.23954 1.56208,1.91242 0.98662,0.67292 2.24732,0.67292 3.06943,0 4.82336,-3.04575 1.754,-3.04572 1.754,-8.46424 l 0,-19.58481 9.81124,0 0,39.6653 -9.81124,0 0,-5.73729 q -2.21986,3.47071 -4.71381,5.13524 -2.46652,1.62912 -5.45372,1.62912 -5.31671,0 -8.1121,-4.21443 -2.76797,-4.21446 -2.76797,-12.25378 z" />
    <path
       inkscape:connector-curvature="0"
       id="path3578"
       style="font-style:normal;font-variant:normal;font-weight:bold;font-stretch:normal;font-size:medium;line-height:125%;font-family:sans-serif;-inkscape-font-specification:'sans-serif Bold';letter-spacing:0px;word-spacing:0px;fill:none;fill-opacity:1;stroke:#ff0000;stroke-width:0.99999994px;stroke-linecap:butt;stroke-linejoin:miter;stroke-opacity:1"
       d="m 299.41327,565.29691 0,3.61236 -22.93858,0 q 0.35631,4.46236 2.49394,6.69355 2.13762,2.23113 5.97446,2.23113 3.0968,0 6.33069,-1.16868 3.26128,-1.20416 6.68699,-3.61241 l 0,9.77469 q -3.48055,1.69992 -6.96106,2.5499 -3.48051,0.88539 -6.96107,0.88539 -8.33133,0 -12.96285,-5.45398 -4.60417,-5.48939 -4.60417,-15.3703 0,-9.70386 4.52194,-15.26406 4.54936,-5.5602 12.49701,-5.5602 7.23509,0 11.56522,5.63107 4.35748,5.63103 4.35748,15.05154 z m -10.0853,-4.21446 q 0,-3.61238 -1.64435,-5.80816 -1.61696,-2.23113 -4.24786,-2.23113 -2.8502,0 -4.63157,2.08953 -1.78138,2.0541 -2.21988,5.94976 l 12.74366,0 z" />
    <path
       inkscape:connector-curvature="0"
       id="path3580"
       style="font-style:normal;font-variant:normal;font-weight:bold;font-stretch:normal;font-size:medium;line-height:125%;font-family:sans-serif;-inkscape-font-specification:'sans-serif Bold';letter-spacing:0px;word-spacing:0px;fill:none;fill-opacity:1;stroke:#ff0000;stroke-width:0.99999994px;stroke-linecap:butt;stroke-linejoin:miter;stroke-opacity:1"
       d="m 306.8128,530.12942 9.81126,0 0,55.10635 -9.81126,0 0,-55.10635 z" />
    <path
       inkscape:connector-curvature="0"
       id="path3582"
       style="font-style:normal;font-variant:normal;font-weight:bold;font-stretch:normal;font-size:medium;line-height:125%;font-family:sans-serif;-inkscape-font-specification:'sans-serif Bold';letter-spacing:0px;word-spacing:0px;fill:none;fill-opacity:1;stroke:#ff0000;stroke-width:0.99999994px;stroke-linecap:butt;stroke-linejoin:miter;stroke-opacity:1"
       d="m 339.86411,567.38637 q -3.06941,0 -4.63162,1.34587 -1.53467,1.34579 -1.53467,3.96656 0,2.40816 1.23324,3.78938 1.26072,1.34577 3.48057,1.34577 2.76795,0 4.65895,-2.54993 1.89098,-2.58522 1.89098,-6.44559 l 0,-1.45206 -5.09745,0 z m 14.99093,-4.78102 0,22.63042 -9.89348,0 0,-5.87892 q -1.97321,3.61234 -4.43972,5.27687 -2.46654,1.62912 -6.00186,1.62912 -4.76856,0 -7.75584,-3.57697 -2.95981,-3.61241 -2.95981,-9.3497 0,-6.97686 3.69981,-10.23509 3.72716,-3.25814 11.67478,-3.25814 l 5.78264,0 0,-0.99165 q 0,-3.0103 -1.83621,-4.39149 -1.83613,-1.41664 -5.72779,-1.41664 -3.15162,0 -5.86479,0.81456 -2.71316,0.81455 -5.04267,2.44361 l 0,-9.66834 q 3.15163,-0.99162 6.33075,-1.48744 3.17908,-0.53125 6.35807,-0.53125 8.30401,0 11.97635,4.24986 3.69977,4.21442 3.69977,13.74119 z" />
    <path
       inkscape:connector-curvature="0"
       id="path3584"
       style="font-style:normal;font-variant:normal;font-weight:bold;font-stretch:normal;font-size:medium;line-height:125%;font-family:sans-serif;-inkscape-font-specification:'sans-serif Bold';letter-spacing:0px;word-spacing:0px;fill:none;fill-opacity:1;stroke:#ff0000;stroke-width:0.99999994px;stroke-linecap:butt;stroke-linejoin:miter;stroke-opacity:1"
       d="m 388.0159,546.81005 0,9.63298 q -3.15166,-1.69992 -6.084,-2.54986 -2.93249,-0.85001 -5.53601,-0.85001 -2.79539,0 -4.16563,0.92081 -1.34285,0.8854 -1.34285,2.76244 0,1.5228 1.01393,2.33733 1.04146,0.81458 3.69979,1.20416 l 1.7266,0.31918 q 7.53651,1.23955 10.14012,4.07276 2.60355,2.83321 2.60355,8.88926 0,6.3394 -3.61759,9.52677 -3.61755,3.18739 -10.79785,3.18739 -3.04204,0 -6.30332,-0.6375 -3.2339,-0.60208 -6.6596,-1.84162 l 0,-9.63299 q 2.9324,1.84163 6.00187,2.76241 3.09685,0.92084 6.2759,0.92084 2.87759,0 4.33013,-1.02707 1.4525,-1.027 1.4525,-3.04575 0,-1.69989 -1.01407,-2.51448 -0.98659,-0.84994 -3.97379,-1.31038 l -1.72655,-0.28355 q -6.54997,-1.06248 -9.18094,-3.93113 -2.63091,-2.86861 -2.63091,-8.71221 0,-6.30393 3.34348,-9.34961 3.34351,-3.04576 10.2497,-3.04576 2.71319,0 5.70037,0.53124 2.98724,0.53122 6.49517,1.66451 z" />
    <path
       inkscape:connector-curvature="0"
       id="path4395"
       style="font-style:normal;font-variant:normal;font-weight:bold;font-stretch:normal;font-size:medium;line-height:125%;font-family:sans-serif;-inkscape-font-specification:'sans-serif Bold';letter-spacing:0px;word-spacing:0px;fill:none;fill-opacity:1;stroke:#ff0000;stroke-width:0.99999988px;stroke-linecap:butt;stroke-linejoin:miter;stroke-opacity:1"
       d="m 149.82774,611.21834 q -6.71084,0 -10.40941,6.28453 -3.69859,6.28446 -3.69859,17.69329 0,11.36048 3.69859,17.64501 3.69857,6.28451 10.40941,6.28451 6.74899,0 10.44758,-6.28451 3.69858,-6.28453 3.69858,-17.64501 0,-11.40883 -3.69858,-17.69329 -3.69859,-6.28453 -10.44758,-6.28453 z m 0,-13.4875 q 13.72675,0 21.50521,9.95849 7.77849,9.95852 7.77849,27.50683 0,17.49994 -7.77849,27.45853 -7.77846,9.95852 -21.50521,9.95852 -13.68859,0 -21.50519,-9.95852 -7.77846,-9.95859 -7.77846,-27.45853 0,-17.54831 7.77846,-27.50683 7.8166,-9.95849 21.50519,-9.95849 z" />
    <path
       inkscape:connector-curvature="0"
       id="path4397"
       style="font-style:normal;font-variant:normal;font-weight:bold;font-stretch:normal;font-size:medium;line-height:125%;font-family:sans-serif;-inkscape-font-specification:'sans-serif Bold';letter-spacing:0px;word-spacing:0px;fill:none;fill-opacity:1;stroke:#ff0000;stroke-width:0.99999988px;stroke-linecap:butt;stroke-linejoin:miter;stroke-opacity:1"
       d="m 203.20945,663.37981 0,28.42533 -13.65044,0 0,-74.73739 13.65044,0 0,7.92821 q 2.82162,-4.73761 6.25328,-6.96133 3.4317,-2.27208 7.89287,-2.27208 7.89287,0 12.96413,7.97646 5.07125,7.9282 5.07125,20.44888 0,12.52066 -5.07125,20.49718 -5.07126,7.92814 -12.96413,7.92814 -4.46117,0 -7.89287,-2.22374 -3.43166,-2.27212 -6.25328,-7.00966 z m 9.0749,-35.04824 q -4.38494,0 -6.74899,4.10908 -2.32591,4.06077 -2.32591,11.74724 0,7.68642 2.32591,11.79554 2.36405,4.06077 6.74899,4.06077 4.3849,0 6.67269,-4.06077 2.32594,-4.0608 2.32594,-11.79554 0,-7.73479 -2.32594,-11.79563 -2.28779,-4.06069 -6.67269,-4.06069 z" />
    <path
       inkscape:connector-curvature="0"
       id="path4399"
       style="font-style:normal;font-variant:normal;font-weight:bold;font-stretch:normal;font-size:medium;line-height:125%;font-family:sans-serif;-inkscape-font-specification:'sans-serif Bold';letter-spacing:0px;word-spacing:0px;fill:none;fill-opacity:1;stroke:#ff0000;stroke-width:0.99999988px;stroke-linecap:butt;stroke-linejoin:miter;stroke-opacity:1"
       d="m 265.85667,628.13817 q -4.53743,0 -6.93957,4.1575 -2.36409,4.10909 -2.36409,11.89222 0,7.78309 2.36409,11.94062 2.40214,4.10904 6.93957,4.10904 4.46123,0 6.82525,-4.10904 2.36405,-4.15753 2.36405,-11.94062 0,-7.78313 -2.36405,-11.89222 -2.36402,-4.1575 -6.82525,-4.1575 z m 0,-12.37562 q 11.01954,0 17.19656,7.54139 6.21514,7.54142 6.21514,20.88395 0,13.34247 -6.21514,20.88393 -6.17702,7.54139 -17.19656,7.54139 -11.0576,0 -17.31091,-7.54139 -6.21514,-7.54146 -6.21514,-20.88393 0,-13.34253 6.21514,-20.88395 6.25331,-7.54139 17.31091,-7.54139 z" />
    <path
       inkscape:connector-curvature="0"
       id="path4401"
       style="font-style:normal;font-variant:normal;font-weight:bold;font-stretch:normal;font-size:medium;line-height:125%;font-family:sans-serif;-inkscape-font-specification:'sans-serif Bold';letter-spacing:0px;word-spacing:0px;fill:none;fill-opacity:1;stroke:#ff0000;stroke-width:0.99999988px;stroke-linecap:butt;stroke-linejoin:miter;stroke-opacity:1"
       d="m 330.94423,631.81223 q -1.79208,-1.06356 -3.58416,-1.54698 -1.754,-0.53179 -3.54611,-0.53179 -5.26191,0 -8.12167,4.30247 -2.82152,4.25417 -2.82152,12.23068 l 0,24.94467 -13.65051,0 0,-54.14353 13.65051,0 0,8.89503 q 2.63091,-5.31768 6.02449,-7.73472 3.43164,-2.46551 8.19786,-2.46551 0.68636,0 1.48709,0.0969 0.80071,0.0483 2.32588,0.2897 l 0.0376,15.66296 z" />
    <path
       inkscape:connector-curvature="0"
       id="path4403"
       style="font-style:normal;font-variant:normal;font-weight:bold;font-stretch:normal;font-size:medium;line-height:125%;font-family:sans-serif;-inkscape-font-specification:'sans-serif Bold';letter-spacing:0px;word-spacing:0px;fill:none;fill-opacity:1;stroke:#ff0000;stroke-width:0.99999988px;stroke-linecap:butt;stroke-linejoin:miter;stroke-opacity:1"
       d="m 352.71634,601.69488 0,15.37287 14.06986,0 0,12.37568 -14.06986,0 0,22.96264 q 0,3.77075 1.182,5.12429 1.18207,1.30523 4.68993,1.30523 l 7.01593,0 0,12.37569 -11.70586,0 q -8.08345,0 -11.47703,-4.25412 -3.35544,-4.30247 -3.35544,-14.55109 l 0,-22.96264 -6.7871,0 0,-12.37568 6.7871,0 0,-15.37287 13.65047,0 z" />
    <path
       inkscape:connector-curvature="0"
       id="path4405"
       style="font-style:normal;font-variant:normal;font-weight:bold;font-stretch:normal;font-size:medium;line-height:125%;font-family:sans-serif;-inkscape-font-specification:'sans-serif Bold';letter-spacing:0px;word-spacing:0px;fill:none;fill-opacity:1;stroke:#ff0000;stroke-width:0.99999988px;stroke-linecap:butt;stroke-linejoin:miter;stroke-opacity:1"
       d="m 374.71722,650.13402 0,-33.06627 13.72678,0 0,5.4144 q 0,4.39912 -0.0373,11.07037 -0.0373,6.62291 -0.0373,8.84669 0,6.52621 0.26676,9.42679 0.26675,2.85213 0.91512,4.15743 0.83888,1.69198 2.17341,2.61046 1.3727,0.91854 3.12663,0.91854 4.27056,0 6.71088,-4.15743 2.44032,-4.15756 2.44032,-11.55386 l 0,-26.73339 13.65025,0 0,54.14353 -13.65025,0 0,-7.83147 q -3.08856,4.73754 -6.55837,7.00966 -3.43167,2.22374 -7.58779,2.22374 -7.39716,0 -11.28645,-5.75277 -3.85114,-5.75275 -3.85114,-16.72642 z" />
    <path
       inkscape:connector-curvature="0"
       id="path4407"
       style="font-style:normal;font-variant:normal;font-weight:bold;font-stretch:normal;font-size:medium;line-height:125%;font-family:sans-serif;-inkscape-font-specification:'sans-serif Bold';letter-spacing:0px;word-spacing:0px;fill:none;fill-opacity:1;stroke:#ff0000;stroke-width:0.99999988px;stroke-linecap:butt;stroke-linejoin:miter;stroke-opacity:1"
       d="m 473.77847,638.24174 0,32.96954 -13.72674,0 0,-5.36602 0,-19.86871 q 0,-7.00969 -0.26578,-9.66853 -0.23013,-2.65884 -0.83882,-3.91576 -0.80057,-1.69191 -2.17353,-2.61045 -1.37265,-0.96686 -3.12646,-0.96686 -4.27058,0 -6.71087,4.20581 -2.44028,4.15743 -2.44028,11.55384 l 0,26.63668 -13.65058,0 0,-54.14353 13.65058,0 0,7.92821 q 3.08851,-4.73761 6.55821,-6.96133 3.46968,-2.27208 7.66411,-2.27208 7.39735,0 11.21029,5.75275 3.85084,5.75271 3.85084,16.72644 z" />
    <path
       inkscape:connector-curvature="0"
       id="path4409"
       style="font-style:normal;font-variant:normal;font-weight:bold;font-stretch:normal;font-size:medium;line-height:125%;font-family:sans-serif;-inkscape-font-specification:'sans-serif Bold';letter-spacing:0px;word-spacing:0px;fill:none;fill-opacity:1;stroke:#ff0000;stroke-width:0.99999988px;stroke-linecap:butt;stroke-linejoin:miter;stroke-opacity:1"
       d="m 486.51374,617.06775 13.65058,0 0,54.14353 -13.65058,0 0,-54.14353 z m 0,-21.0773 13.65058,0 0,14.11598 -13.65058,0 0,-14.11598 z" />
    <path
       inkscape:connector-curvature="0"
       id="path4411"
       style="font-style:normal;font-variant:normal;font-weight:bold;font-stretch:normal;font-size:medium;line-height:125%;font-family:sans-serif;-inkscape-font-specification:'sans-serif Bold';letter-spacing:0px;word-spacing:0px;fill:none;fill-opacity:1;stroke:#ff0000;stroke-width:0.99999988px;stroke-linecap:butt;stroke-linejoin:miter;stroke-opacity:1"
       d="m 542.41187,624.99596 0,-29.00551 13.72673,0 0,75.22083 -13.72673,0 0,-7.83147 q -2.82145,4.78589 -6.21497,7.00966 -3.39353,2.22374 -7.85469,2.22374 -7.89294,0 -12.9641,-7.92814 -5.07148,-7.97652 -5.07148,-20.49718 0,-12.52068 5.07148,-20.44888 5.07116,-7.97646 12.9641,-7.97646 4.42292,0 7.81644,2.27208 3.43177,2.22372 6.25322,6.96133 z m -8.99851,35.04824 q 4.38501,0 6.67263,-4.06077 2.32588,-4.0608 2.32588,-11.79554 0,-7.73479 -2.32588,-11.79563 -2.28762,-4.06069 -6.67263,-4.06069 -4.34675,0 -6.67262,4.06069 -2.28796,4.06084 -2.28796,11.79563 0,7.73474 2.28796,11.79554 2.32587,4.06077 6.67262,4.06077 z" />
    <path
       inkscape:connector-curvature="0"
       id="path4413"
       style="font-style:normal;font-variant:normal;font-weight:bold;font-stretch:normal;font-size:medium;line-height:125%;font-family:sans-serif;-inkscape-font-specification:'sans-serif Bold';letter-spacing:0px;word-spacing:0px;fill:none;fill-opacity:1;stroke:#ff0000;stroke-width:0.99999988px;stroke-linecap:butt;stroke-linejoin:miter;stroke-opacity:1"
       d="m 588.47267,646.84672 q -4.27059,0 -6.44379,1.83699 -2.1353,1.83702 -2.1353,5.41435 0,3.28723 1.71588,5.17266 1.75381,1.83697 4.84234,1.83697 3.85117,0 6.48204,-3.48062 2.63119,-3.52901 2.63119,-8.79838 l 0,-1.98197 -7.09236,0 z m 20.85703,-6.52625 0,30.89081 -13.76467,0 0,-8.02486 q -2.7456,4.93093 -6.17705,7.20305 -3.43177,2.22374 -8.35059,2.22374 -6.63438,0 -10.79055,-4.88258 -4.11825,-4.93093 -4.11825,-12.76241 0,-9.52346 5.14765,-13.97094 5.18557,-4.44748 16.2432,-4.44748 l 8.04559,0 0,-1.35364 q 0,-4.10909 -2.5547,-5.99446 -2.5547,-1.93369 -7.9691,-1.93369 -4.385,0 -8.16,1.1119 -3.77469,1.11187 -7.01588,3.33565 l 0,-13.19754 q 4.385,-1.35354 8.80793,-2.03035 4.42324,-0.72512 8.84616,-0.72512 11.55353,0 16.66294,5.80106 5.14732,5.75275 5.14732,18.75686 z" />
    <path
       inkscape:connector-curvature="0"
       id="path4415"
       style="font-style:normal;font-variant:normal;font-weight:bold;font-stretch:normal;font-size:medium;line-height:125%;font-family:sans-serif;-inkscape-font-specification:'sans-serif Bold';letter-spacing:0px;word-spacing:0px;fill:none;fill-opacity:1;stroke:#ff0000;stroke-width:0.99999988px;stroke-linecap:butt;stroke-linejoin:miter;stroke-opacity:1"
       d="m 651.15816,624.99596 0,-29.00551 13.72675,0 0,75.22083 -13.72675,0 0,-7.83147 q -2.82145,4.78589 -6.21529,7.00966 -3.39352,2.22374 -7.85469,2.22374 -7.89261,0 -12.9641,-7.92814 -5.07115,-7.97652 -5.07115,-20.49718 0,-12.52068 5.07115,-20.44888 5.07149,-7.97646 12.9641,-7.97646 4.42325,0 7.81676,2.27208 3.43177,2.22372 6.25322,6.96133 z m -8.99849,35.04824 q 4.38499,0 6.67262,-4.06077 2.32587,-4.0608 2.32587,-11.79554 0,-7.73479 -2.32587,-11.79563 -2.28763,-4.06069 -6.67262,-4.06069 -4.34676,0 -6.67296,4.06069 -2.28763,4.06084 -2.28763,11.79563 0,7.73474 2.28763,11.79554 2.3262,4.06077 6.67296,4.06077 z" />
    <path
       inkscape:connector-curvature="0"
       id="path4193"
       style="font-style:normal;font-variant:normal;font-weight:bold;font-stretch:normal;font-size:medium;line-height:125%;font-family:sans-serif;-inkscape-font-specification:'sans-serif Bold';letter-spacing:0px;word-spacing:0px;fill:none;fill-opacity:1;stroke:#ff0000;stroke-width:1px;stroke-linecap:butt;stroke-linejoin:miter;stroke-opacity:1"
       d="m 420.26291,567.6012 0,-11.89085 7.18237,0 0,30.83695 -7.18237,0 0,-3.21053 q -1.47638,1.96199 -3.25202,2.87362 -1.77564,0.91163 -4.10991,0.91163 -4.12987,0 -6.78335,-3.25016 -2.65349,-3.26999 -2.65349,-8.40288 0,-5.13288 2.65349,-8.38305 2.65348,-3.26998 6.78335,-3.26998 2.31432,0 4.08996,0.93145 1.79559,0.91163 3.27197,2.8538 z m -4.70844,14.36812 q 2.29436,0 3.49143,-1.66472 1.21701,-1.66473 1.21701,-4.83562 0,-3.17089 -1.21701,-4.83561 -1.19707,-1.66472 -3.49143,-1.66472 -2.27442,0 -3.49143,1.66472 -1.19707,1.66472 -1.19707,4.83561 0,3.17089 1.19707,4.83562 1.21701,1.66472 3.49143,1.66472 z" />
    <path
       inkscape:connector-curvature="0"
       id="path4195"
       style="font-style:normal;font-variant:normal;font-weight:bold;font-stretch:normal;font-size:medium;line-height:125%;font-family:sans-serif;-inkscape-font-specification:'sans-serif Bold';letter-spacing:0px;word-spacing:0px;fill:none;fill-opacity:1;stroke:#ff0000;stroke-width:1px;stroke-linecap:butt;stroke-linejoin:miter;stroke-opacity:1"
       d="m 456.65358,575.38971 0,2.02145 -16.69901,0 q 0.25937,2.49708 1.81554,3.74562 1.55619,1.24854 4.34933,1.24854 2.25447,0 4.60869,-0.654 2.37417,-0.67382 4.86805,-2.02145 l 0,5.4698 q -2.53378,0.95126 -5.06756,1.4269 -2.53378,0.49545 -5.06756,0.49545 -6.06512,0 -9.43684,-3.05199 -3.35178,-3.0718 -3.35178,-8.60105 0,-5.43016 3.29193,-8.5416 3.31187,-3.11143 9.09767,-3.11143 5.26707,0 8.41933,3.15107 3.17221,3.15108 3.17221,8.42269 z m -7.34197,-2.35835 q 0,-2.02145 -1.19707,-3.25016 -1.1771,-1.24854 -3.0924,-1.24854 -2.07491,0 -3.37173,1.16926 -1.29681,1.14945 -1.61603,3.32944 l 9.27723,0 z" />
    <path
       inkscape:connector-curvature="0"
       id="path4197"
       style="font-style:normal;font-variant:normal;font-weight:bold;font-stretch:normal;font-size:medium;line-height:125%;font-family:sans-serif;-inkscape-font-specification:'sans-serif Bold';letter-spacing:0px;word-spacing:0px;fill:none;fill-opacity:1;stroke:#ff0000;stroke-width:1px;stroke-linecap:butt;stroke-linejoin:miter;stroke-opacity:1"
       d="m 493.70265,565.04466 0,5.39053 q -2.29438,-0.95127 -4.42913,-1.42691 -2.13477,-0.47562 -4.03011,-0.47562 -2.03501,0 -3.03256,0.51526 -0.9776,0.49545 -0.9776,1.54581 0,0.85218 0.73819,1.308 0.75814,0.45581 2.69339,0.67381 l 1.25691,0.17836 q 5.48653,0.69364 7.38189,2.27908 1.89534,1.58545 1.89534,4.97435 0,3.54744 -2.63354,5.33107 -2.63354,1.78362 -7.8607,1.78362 -2.21457,0 -4.58873,-0.35672 -2.35423,-0.33691 -4.84811,-1.03054 l 0,-5.39052 q 2.13476,1.03054 4.36928,1.5458 2.25446,0.51528 4.56879,0.51528 2.09485,0 3.15226,-0.57473 1.0574,-0.57473 1.0574,-1.70435 0,-0.95128 -0.73819,-1.40709 -0.71824,-0.47563 -2.89289,-0.73327 l -1.25692,-0.15855 q -4.7683,-0.59453 -6.68359,-2.1998 -1.9153,-1.60527 -1.9153,-4.87526 0,-3.52761 2.43402,-5.23197 2.43402,-1.70435 7.46169,-1.70435 1.97515,0 4.14981,0.29726 2.17467,0.29728 4.7284,0.93145 z" />
    <path
       inkscape:connector-curvature="0"
       id="path4199"
       style="font-style:normal;font-variant:normal;font-weight:bold;font-stretch:normal;font-size:medium;line-height:125%;font-family:sans-serif;-inkscape-font-specification:'sans-serif Bold';letter-spacing:0px;word-spacing:0px;fill:none;fill-opacity:1;stroke:#ff0000;stroke-width:1px;stroke-linecap:butt;stroke-linejoin:miter;stroke-opacity:1"
       d="m 522.891,575.38971 0,2.02145 -16.699,0 q 0.25935,2.49708 1.81554,3.74562 1.55618,1.24854 4.34932,1.24854 2.25446,0 4.60869,-0.654 2.37417,-0.67382 4.86804,-2.02145 l 0,5.4698 q -2.53377,0.95126 -5.06756,1.4269 -2.53377,0.49545 -5.06756,0.49545 -6.06511,0 -9.43683,-3.05199 -3.35177,-3.0718 -3.35177,-8.60105 0,-5.43016 3.29192,-8.5416 3.31186,-3.11143 9.09766,-3.11143 5.26708,0 8.41934,3.15107 3.17221,3.15108 3.17221,8.42269 z m -7.34198,-2.35835 q 0,-2.02145 -1.19705,-3.25016 -1.17712,-1.24854 -3.09241,-1.24854 -2.07492,0 -3.37173,1.16926 -1.29682,1.14945 -1.61604,3.32944 l 9.27723,0 z" />
    <path
       inkscape:connector-curvature="0"
       id="path4201"
       style="font-style:normal;font-variant:normal;font-weight:bold;font-stretch:normal;font-size:medium;line-height:125%;font-family:sans-serif;-inkscape-font-specification:'sans-serif Bold';letter-spacing:0px;word-spacing:0px;fill:none;fill-opacity:1;stroke:#ff0000;stroke-width:1px;stroke-linecap:butt;stroke-linejoin:miter;stroke-opacity:1"
       d="m 543.48046,582.78186 q -1.47637,1.94217 -3.25201,2.85381 -1.77564,0.91163 -4.10991,0.91163 -4.08996,0 -6.76341,-3.19072 -2.67343,-3.21053 -2.67343,-8.16505 0,-4.97434 2.67343,-8.14524 2.67345,-3.19071 6.76341,-3.19071 2.33427,0 4.10991,0.91163 1.77564,0.91163 3.25201,2.87362 l 0,-3.28979 7.18238,0 0,19.95682 q 0,5.35088 -3.41163,8.16505 -3.39167,2.83399 -9.8558,2.83399 -2.09486,0 -4.05007,-0.31709 -1.95519,-0.31709 -3.93035,-0.97109 l 0,-5.52925 q 1.87539,1.07018 3.67099,1.58545 1.7956,0.53508 3.61114,0.53508 3.51137,0 5.14736,-1.52599 1.63598,-1.52599 1.63598,-4.77615 l 0,-1.526 z m -4.70844,-13.81321 q -2.21456,0 -3.45153,1.62508 -1.23696,1.62508 -1.23696,4.5978 0,3.05199 1.19706,4.63743 1.19706,1.56563 3.49143,1.56563 2.23452,0 3.47149,-1.62508 1.23695,-1.62509 1.23695,-4.57798 0,-2.97272 -1.23695,-4.5978 -1.23697,-1.62508 -3.47149,-1.62508 z" />
    <path
       inkscape:connector-curvature="0"
       id="path4203"
       style="font-style:normal;font-variant:normal;font-weight:bold;font-stretch:normal;font-size:medium;line-height:125%;font-family:sans-serif;-inkscape-font-specification:'sans-serif Bold';letter-spacing:0px;word-spacing:0px;fill:none;fill-opacity:1;stroke:#ff0000;stroke-width:1px;stroke-linecap:butt;stroke-linejoin:miter;stroke-opacity:1"
       d="m 557.32648,577.90661 0,-13.55557 7.18237,0 0,2.21962 q 0,1.80345 -0.02,4.53834 -0.02,2.71508 -0.02,3.62672 0,2.67544 0.13966,3.86453 0.13966,1.16926 0.47883,1.70435 0.43892,0.69363 1.1372,1.07018 0.71824,0.37654 1.63599,0.37654 2.23452,0 3.51138,-1.70436 1.27687,-1.70435 1.27687,-4.73652 l 0,-10.9594 7.14247,0 0,22.19626 -7.14247,0 0,-3.21053 q -1.61604,1.94217 -3.43158,2.87362 -1.79559,0.91163 -3.97026,0.91163 -3.8705,0 -5.9055,-2.35835 -2.01505,-2.35835 -2.01505,-6.85706 z" />
    <path
       inkscape:connector-curvature="0"
       id="path4205"
       style="font-style:normal;font-variant:normal;font-weight:bold;font-stretch:normal;font-size:medium;line-height:125%;font-family:sans-serif;-inkscape-font-specification:'sans-serif Bold';letter-spacing:0px;word-spacing:0px;fill:none;fill-opacity:1;stroke:#ff0000;stroke-width:1px;stroke-linecap:butt;stroke-linejoin:miter;stroke-opacity:1"
       d="m 609.15925,573.03136 0,13.51594 -7.18237,0 0,-2.19981 0,-8.14523 q 0,-2.87363 -0.13966,-3.96362 -0.1197,-1.09 -0.43892,-1.60527 -0.41898,-0.69364 -1.13721,-1.07017 -0.71824,-0.39637 -1.63598,-0.39637 -2.23452,0 -3.51139,1.72417 -1.27686,1.70436 -1.27686,4.73653 l 0,10.91977 -7.14247,0 0,-22.19626 7.14247,0 0,3.25016 q 1.61603,-1.94217 3.43158,-2.8538 1.81554,-0.93145 4.01015,-0.93145 3.8705,0 5.86561,2.35835 2.01505,2.35836 2.01505,6.85706 z" />
    <path
       inkscape:connector-curvature="0"
       id="path4207"
       style="font-style:normal;font-variant:normal;font-weight:bold;font-stretch:normal;font-size:medium;line-height:125%;font-family:sans-serif;-inkscape-font-specification:'sans-serif Bold';letter-spacing:0px;word-spacing:0px;fill:none;fill-opacity:1;stroke:#ff0000;stroke-width:1px;stroke-linecap:butt;stroke-linejoin:miter;stroke-opacity:1"
       d="m 631.02557,567.6012 0,-11.89085 7.18238,0 0,30.83695 -7.18238,0 0,-3.21053 q -1.47637,1.96199 -3.25201,2.87362 -1.77565,0.91163 -4.10992,0.91163 -4.12986,0 -6.78334,-3.25016 -2.65349,-3.26999 -2.65349,-8.40288 0,-5.13288 2.65349,-8.38305 2.65348,-3.26998 6.78334,-3.26998 2.31433,0 4.08996,0.93145 1.7956,0.91163 3.27197,2.8538 z m -4.70844,14.36812 q 2.29437,0 3.49143,-1.66472 1.21701,-1.66473 1.21701,-4.83562 0,-3.17089 -1.21701,-4.83561 -1.19706,-1.66472 -3.49143,-1.66472 -2.27441,0 -3.49143,1.66472 -1.19706,1.66472 -1.19706,4.83561 0,3.17089 1.19706,4.83562 1.21702,1.66472 3.49143,1.66472 z" />
    <path
       inkscape:connector-curvature="0"
       id="path4209"
       style="font-style:normal;font-variant:normal;font-weight:bold;font-stretch:normal;font-size:medium;line-height:125%;font-family:sans-serif;-inkscape-font-specification:'sans-serif Bold';letter-spacing:0px;word-spacing:0px;fill:none;fill-opacity:1;stroke:#ff0000;stroke-width:1px;stroke-linecap:butt;stroke-linejoin:miter;stroke-opacity:1"
       d="m 655.12643,576.55898 q -2.23452,0 -3.37172,0.75309 -1.11726,0.75309 -1.11726,2.21963 0,1.34763 0.8978,2.12053 0.91774,0.75309 2.53377,0.75309 2.01506,0 3.39168,-1.42691 1.37662,-1.44671 1.37662,-3.60689 l 0,-0.81254 -3.71089,0 z m 10.91321,-2.67544 0,12.66376 -7.20232,0 0,-3.28981 q -1.43647,2.02145 -3.23206,2.9529 -1.79559,0.91163 -4.36928,0.91163 -3.47148,0 -5.64615,-2.00162 -2.15471,-2.02145 -2.15471,-5.23198 0,-3.90416 2.69339,-5.72743 2.71335,-1.82326 8.49915,-1.82326 l 4.20966,0 0,-0.55492 q 0,-1.68453 -1.33672,-2.45744 -1.33672,-0.79271 -4.16976,-0.79271 -2.29437,0 -4.26952,0.45581 -1.97515,0.45581 -3.67099,1.36744 l 0,-5.41033 q 2.29437,-0.55492 4.60869,-0.83237 2.31431,-0.29726 4.62864,-0.29726 6.04516,0 8.71859,2.37817 2.69339,2.35835 2.69339,7.68942 z" />
    <g
       transform="scale(0.9298519,1.0754401)"
       style="font-style:normal;font-weight:normal;font-size:50.6570015px;line-height:125%;font-family:sans-serif;letter-spacing:0px;word-spacing:0px;fill:none;fill-opacity:1;stroke:#ff0000;stroke-width:1px;stroke-linecap:butt;stroke-linejoin:miter;stroke-opacity:1"
       id="text3511-4">
      <path
         d="m 517.8465,637.44426 25.69953,0 0,7.19785 -16.1766,0 0,6.87629 15.21194,0 0,7.19784 -15.21194,0 0,8.45933 16.72077,0 0,7.19784 -26.2437,0 0,-36.92915 z"
         style="font-style:normal;font-variant:normal;font-weight:bold;font-stretch:normal;font-family:sans-serif;-inkscape-font-specification:'sans-serif Bold';fill:none;stroke:#ff0000"
         id="path4221" />
      <path
         d="m 573.72256,647.53609 0,6.72788 q -2.84451,-1.18727 -5.49114,-1.78091 -2.64663,-0.59364 -4.99644,-0.59364 -2.52295,0 -3.7597,0.64311 -1.21201,0.61837 -1.21201,1.92932 0,1.0636 0.91519,1.6325 0.93993,0.5689 3.33921,0.84098 l 1.5583,0.22262 q 6.80208,0.86572 9.1519,2.84451 2.34981,1.97879 2.34981,6.20845 0,4.42754 -3.265,6.65368 -3.26501,2.22613 -9.74554,2.22613 -2.74557,0 -5.68902,-0.44522 -2.91871,-0.4205 -6.01057,-1.28622 l 0,-6.72788 q 2.64663,1.28621 5.41693,1.92932 2.79504,0.64311 5.66429,0.64311 2.59716,0 3.90811,-0.71731 1.31094,-0.71732 1.31094,-2.1272 0,-1.18728 -0.91519,-1.75618 -0.89045,-0.59363 -3.58655,-0.91519 l -1.5583,-0.19788 q -5.91163,-0.74204 -8.28618,-2.74557 -2.37454,-2.00352 -2.37454,-6.08477 0,-4.40281 3.01765,-6.53001 3.01765,-2.1272 9.25084,-2.1272 2.44875,0 5.14485,0.37103 2.6961,0.37102 5.86216,1.16254 z"
         style="font-style:normal;font-variant:normal;font-weight:bold;font-stretch:normal;font-family:sans-serif;-inkscape-font-specification:'sans-serif Bold';fill:none;stroke:#ff0000"
         id="path4223" />
      <path
         d="m 591.11117,670.36637 0,14.5441 -8.85508,0 0,-38.2401 8.85508,0 0,4.05651 q 1.83038,-2.42401 4.05652,-3.56182 2.22614,-1.16254 5.12012,-1.16254 5.12011,0 8.40985,4.08126 3.28974,4.05651 3.28974,10.46284 0,6.40633 -3.28974,10.48759 -3.28974,4.05651 -8.40985,4.05651 -2.89398,0 -5.12012,-1.1378 -2.22614,-1.16254 -4.05652,-3.58655 z m 5.8869,-17.93278 q -2.84451,0 -4.37807,2.10246 -1.50883,2.07773 -1.50883,6.01057 0,3.93285 1.50883,6.03531 1.53356,2.07773 4.37807,2.07773 2.84451,0 4.3286,-2.07773 1.50883,-2.07773 1.50883,-6.03531 0,-3.95757 -1.50883,-6.0353 -1.48409,-2.07773 -4.3286,-2.07773 z"
         style="font-style:normal;font-variant:normal;font-weight:bold;font-stretch:normal;font-family:sans-serif;-inkscape-font-specification:'sans-serif Bold';fill:none;stroke:#ff0000"
         id="path4225" />
      <path
         d="m 630.98378,661.90704 q -2.77031,0 -4.1802,0.93993 -1.38515,0.93992 -1.38515,2.7703 0,1.68197 1.11307,2.64663 1.1378,0.93993 3.14133,0.93993 2.49822,0 4.20492,-1.78091 1.70671,-1.80565 1.70671,-4.50175 l 0,-1.01413 -4.60068,0 z m 13.52997,-3.33921 0,15.80558 -8.92929,0 0,-4.10598 q -1.78091,2.52295 -4.00705,3.68549 -2.22614,1.1378 -5.41693,1.1378 -4.30387,0 -6.99997,-2.49822 -2.67136,-2.52295 -2.67136,-6.53 0,-4.87277 3.3392,-7.14838 3.36394,-2.2756 10.53705,-2.2756 l 5.21906,0 0,-0.69258 q 0,-2.10246 -1.65724,-3.06712 -1.65723,-0.9894 -5.16958,-0.9894 -2.84451,0 -5.29326,0.5689 -2.44875,0.56891 -4.55122,1.70671 l 0,-6.75262 q 2.84451,-0.69257 5.71376,-1.03886 2.86924,-0.37103 5.73848,-0.37103 7.49467,0 10.80914,2.96819 3.33921,2.94345 3.33921,9.59712 z"
         style="font-style:normal;font-variant:normal;font-weight:bold;font-stretch:normal;font-family:sans-serif;-inkscape-font-specification:'sans-serif Bold';fill:none;stroke:#ff0000"
         id="path4227" />
      <path
         d="m 680.65139,657.50424 0,16.86917 -8.90456,0 0,-2.74557 0,-10.16603 q 0,-3.58655 -0.17314,-4.94697 -0.14841,-1.36042 -0.54417,-2.00352 -0.51943,-0.86572 -1.40988,-1.33569 -0.89046,-0.49469 -2.02826,-0.49469 -2.77031,0 -4.35334,2.15193 -1.58303,2.1272 -1.58303,5.91163 l 0,13.62891 -8.85508,0 0,-27.70304 8.85508,0 0,4.05651 q 2.00352,-2.42401 4.2544,-3.56182 2.25087,-1.16254 4.9717,-1.16254 4.79857,0 7.27205,2.94345 2.49823,2.94345 2.49823,8.55827 z m -13.4063,-16.86918 -1.36042,-0.91519 q -0.0989,-0.0495 -0.24735,-0.14841 -1.16254,-0.76678 -1.78091,-0.76678 -0.89045,0 -1.36041,0.76678 -0.46997,0.76678 -0.46997,2.22614 l 0,0.19788 -3.43814,0 q 0,-3.36395 1.26148,-5.19433 1.28621,-1.83038 3.58655,-1.83038 0.89046,0 1.78091,0.34629 0.91519,0.32156 1.92932,1.0636 l 1.50883,1.0636 q 0.54416,0.37102 0.98939,0.5689 0.46996,0.19788 0.84099,0.19788 0.89045,0 1.38515,-0.79151 0.4947,-0.79152 0.4947,-2.20141 l 0,-0.19788 3.43814,0 q 0,3.36395 -1.28621,5.19433 -1.26148,1.83038 -3.56182,1.83038 -0.89046,0 -1.73144,-0.29682 -0.81625,-0.29682 -1.97879,-1.11307 z"
         style="font-style:normal;font-variant:normal;font-weight:bold;font-stretch:normal;font-family:sans-serif;-inkscape-font-specification:'sans-serif Bold';fill:none;stroke:#ff0000"
         id="path4229" />
      <path
         d="m 701.32973,661.90704 q -2.7703,0 -4.18019,0.93993 -1.38515,0.93992 -1.38515,2.7703 0,1.68197 1.11306,2.64663 1.13781,0.93993 3.14133,0.93993 2.49822,0 4.20493,-1.78091 1.70671,-1.80565 1.70671,-4.50175 l 0,-1.01413 -4.60069,0 z m 13.52997,-3.33921 0,15.80558 -8.92928,0 0,-4.10598 q -1.78092,2.52295 -4.00705,3.68549 -2.22614,1.1378 -5.41694,1.1378 -4.30386,0 -6.99996,-2.49822 -2.67137,-2.52295 -2.67137,-6.53 0,-4.87277 3.33921,-7.14838 3.36394,-2.2756 10.53705,-2.2756 l 5.21906,0 0,-0.69258 q 0,-2.10246 -1.65724,-3.06712 -1.65724,-0.9894 -5.16959,-0.9894 -2.84451,0 -5.29326,0.5689 -2.44875,0.56891 -4.55121,1.70671 l 0,-6.75262 q 2.84451,-0.69257 5.71375,-1.03886 2.86924,-0.37103 5.73849,-0.37103 7.49466,0 10.80913,2.96819 3.33921,2.94345 3.33921,9.59712 z"
         style="font-style:normal;font-variant:normal;font-weight:bold;font-stretch:normal;font-family:sans-serif;-inkscape-font-specification:'sans-serif Bold';fill:none;stroke:#ff0000"
         id="path4231" />
    </g>
    <path
       id="path3468-6"
       style="display:inline;fill:#000000;stroke:#000000;stroke-width:0.99999994"
       d="m 411.42084,422.36114 c -18.0769,-3.63726 -28.6442,-8.11446 -43.9768,-18.63246 -14.54413,-9.97708 -35.06543,-37.44707 -38.42463,-51.43538 l -2.0821,-8.67027 52.35363,0 52.3536,0 0.9561,15.5195 0.9562,15.5196 32.4122,-23.6201 c 17.8268,-12.99112 32.3823,-24.58602 32.3457,-25.7664 -0.062,-1.98022 -57.9641,-44.96152 -63.7703,-47.33702 -1.4128,-0.57848 -2.5686,5.45181 -2.5686,13.39965 l 0,14.4505 -53.7572,0 c -61.66787,0 -59.02786,1.67102 -47.19186,-29.87016 8.45417,-22.52926 31.66012,-46.50568 55.82476,-57.67828 25.7925,-11.92518 61.5674,-10.33803 86.6121,-0.21615 25.0446,10.12173 42.11457,28.21866 54.13747,52.56832 9.0792,18.38807 10.2969,23.89017 10.2185,46.16524 -0.075,20.49592 -1.6514,28.64743 -8.3328,43.00817 -15.9858,34.35981 -43.35117,55.73069 -79.90947,62.40554 -20.7393,3.78666 -20.2914,3.78446 -38.1559,0.1899 z m 56.3078,45.82567 c 72.30237,-18.77682 119.19327,-78.32327 119.19327,-151.36307 0,-70.79721 -43.8027,-129.65163 -111.87887,-150.32319 -18.2514,-5.54212 -27.0396,-6.33771 -54.5475,-4.9379 -26.9897,1.37338 -32.7911,0.87772 -32.7911,-2.80394 0,-2.46005 -6.0646,-10.51939 -13.4769,-17.90984 -33.26459,-33.16641 -105.29656,-32.17414 -140.93906,1.94136 -19.44196,18.60916 -19.22324,20.09508 4.52058,30.71681 11.63592,5.2052 21.47006,9.07712 21.85375,8.60413 0.38331,-0.47349 2.40426,-4.1281 4.49005,-8.12254 14.03699,-26.88205 76.11888,-25.94216 76.11888,1.15238 0,9.60133 -12.89331,23.80024 -94.92359,104.53634 l -64.76665,63.74474 47.87136,0.10499 47.87136,0.10499 2.03475,10.81405 c 6.55349,34.83009 44.81111,82.88562 80.2349,100.78314 34.33157,17.3458 74.08497,22.06898 109.13477,12.96659 z"
       inkscape:connector-curvature="0" />
    <path
       style="fill:#ffffff;stroke:#ff0000;stroke-width:0.99999994"
       d="m 411.42084,423.58055 c -18.07693,-3.63726 -28.64416,-8.11446 -43.97679,-18.63246 -14.54414,-9.97708 -35.06544,-37.44707 -38.42464,-51.43538 l -2.0821,-8.67027 52.3536,0 52.35363,0 0.95615,15.5195 0.95616,15.5196 32.41216,-23.6201 c 17.82685,-12.99112 32.38236,-24.58602 32.34574,-25.7664 -0.0616,-1.98022 -57.96406,-44.96152 -63.77032,-47.33702 -1.41283,-0.57848 -2.56863,5.45181 -2.56863,13.39965 l 0,14.4505 -53.75717,0 c -61.66786,0 -59.02785,1.67102 -47.19185,-29.87016 8.45417,-22.52926 31.66012,-46.50568 55.82481,-57.67828 25.79247,-11.92517 61.56738,-10.33802 86.61202,-0.21615 25.04464,10.12173 42.1147,28.21866 54.1375,52.56832 9.0792,18.38807 10.2969,23.89017 10.2185,46.16524 -0.075,20.49592 -1.6514,28.64743 -8.3328,43.00817 -15.9858,34.35981 -43.35114,55.73069 -79.90943,62.40554 -20.73937,3.78666 -20.29145,3.78446 -38.15589,0.1899 z"
       id="path3468"
       inkscape:connector-curvature="0" />
  </g>
  <g
     inkscape:groupmode="layer"
     id="layer1"
     inkscape:label="frame"
     style="display:inline">
    <path
       style="display:inline;opacity:1;fill:none;fill-opacity:1;stroke:#ff0000;stroke-width:0.99999994;stroke-linecap:square;stroke-linejoin:miter;stroke-miterlimit:4;stroke-dasharray:none;stroke-dashoffset:0;stroke-opacity:1"
       d="M 135.56445,22.894531 C 70.710656,22.894531 18.5,75.105188 18.5,139.95898 l 0,792.42969 c 0,64.8538 52.210656,117.06443 117.06445,117.06443 l 116.8717,0 0,-86.26636 19.51004,0 0,86.26636 233.1316,0 0,-87.01966 20.41016,0 0,87.01966 119.0433,0 c 64.8538,0 117.06445,-52.21063 117.06445,-117.06443 l 0,-792.42969 c 0,-64.853792 -52.21065,-117.064449 -117.06445,-117.064449 z"
       id="rect3336"
       inkscape:connector-curvature="0"
       sodipodi:nodetypes="ssssccccccccsssss" />
  </g>
</svg>
