<?xml version="1.0" encoding="UTF-8" standalone="no"?>
<!-- Created with Inkscape (http://www.inkscape.org/) -->

<svg
   xmlns:dc="http://purl.org/dc/elements/1.1/"
   xmlns:cc="http://creativecommons.org/ns#"
   xmlns:rdf="http://www.w3.org/1999/02/22-rdf-syntax-ns#"
   xmlns:svg="http://www.w3.org/2000/svg"
   xmlns="http://www.w3.org/2000/svg"
   xmlns:sodipodi="http://sodipodi.sourceforge.net/DTD/sodipodi-0.dtd"
   xmlns:inkscape="http://www.inkscape.org/namespaces/inkscape"
   width="210mm"
   height="297mm"
   viewBox="0 0 744.09448819 1052.3622047"
   id="svg2"
   version="1.1"
   inkscape:version="0.91 r13725"
   sodipodi:docname="logo-e2o-orig.svg">
  <defs
     id="defs4" />
  <sodipodi:namedview
     id="base"
     pagecolor="#ffffff"
     bordercolor="#666666"
     borderopacity="1.0"
     inkscape:pageopacity="0.0"
     inkscape:pageshadow="2"
     inkscape:zoom="1.4"
     inkscape:cx="75.738019"
     inkscape:cy="843.15614"
     inkscape:document-units="px"
     inkscape:current-layer="layer1"
     showgrid="false"
     inkscape:window-width="1215"
     inkscape:window-height="1000"
     inkscape:window-x="65"
     inkscape:window-y="24"
     inkscape:window-maximized="1" />
  <metadata
     id="metadata7">
    <rdf:RDF>
      <cc:Work
         rdf:about="">
        <dc:format>image/svg+xml</dc:format>
        <dc:type
           rdf:resource="http://purl.org/dc/dcmitype/StillImage" />
        <dc:title />
      </cc:Work>
    </rdf:RDF>
  </metadata>
  <g
     inkscape:label="Layer 1"
     inkscape:groupmode="layer"
     id="layer1">
    <path
       style="fill:none;stroke:#ff0000;stroke-width:1"
       d="m 131.4372,126.85839 c 22.30732,-5.79447 36.77453,-24.17033 36.77453,-46.710189 0,-21.847801 -13.51439,-40.010088 -34.51786,-46.38927 -5.6311,-1.710276 -8.34251,-1.9558 -16.82954,-1.523816 -8.32708,0.423818 -10.11699,0.27086 -10.11699,-0.865295 0,-0.759155 -1.8711,-3.246242 -4.15802,-5.526912 -10.263088,-10.235054 -32.487048,-9.928845 -43.483791,0.5991 -5.998416,5.742725 -5.930938,6.201276 1.394723,9.479108 3.590024,1.606305 6.624141,2.801168 6.742528,2.655208 0.118258,-0.146122 0.741774,-1.273918 1.385302,-2.506592 4.330823,-8.295713 23.484897,-8.005672 23.484897,0.355618 0,2.96294 -3.977968,7.344689 -29.286693,32.259595 l -19.982396,19.671426 14.76971,0.0324 14.76971,0.0324 0.627772,3.337187 c 2.021943,10.748452 13.825534,25.578252 24.754799,31.101372 10.592299,5.35286 22.857349,6.81042 33.671319,4.00145 z m -17.37268,-14.14166 c -5.57723,-1.12245 -8.83753,-2.5041 -13.56809,-5.74992 -4.48729,-3.0789 -10.818711,-11.556051 -11.855121,-15.872806 l -0.642391,-2.675621 16.152612,0 16.1526,0 0.295,4.789271 0.29499,4.789303 10.00016,-7.289091 c 5.50011,-4.009024 9.99091,-7.587167 9.97957,-7.951435 -0.0195,-0.611089 -17.88358,-13.874983 -19.67499,-14.608055 -0.43589,-0.178522 -0.79255,1.682412 -0.79255,4.135091 l 0,4.459378 -16.58561,0 c -19.026333,0 -18.211818,0.515672 -14.560066,-9.217837 2.608357,-6.95246 9.768068,-14.351515 17.223586,-17.799347 7.95775,-3.680071 18.85278,-3.707287 26.72232,-0.06674 7.69061,3.557764 12.99361,8.708192 16.703,16.222428 2.8012,5.674492 3.17693,7.372423 3.15273,14.246443 -0.0227,6.324978 -0.50955,8.840512 -2.5709,13.272189 -4.93215,10.603339 -13.37508,17.198329 -24.65438,19.258169 -6.39874,1.16855 -6.2605,1.16787 -11.77224,0.0586 z"
       id="path3468"
       inkscape:connector-curvature="0"
       sodipodi:nodetypes="cssssssscssscccsscccsscccccsccccssssscsscc" />
    <text
       xml:space="preserve"
       style="font-style:normal;font-weight:normal;font-size:15.84237671px;line-height:125%;font-family:sans-serif;letter-spacing:0px;word-spacing:0px;fill:#000000;fill-opacity:1;stroke:none;stroke-width:1px;stroke-linecap:butt;stroke-linejoin:miter;stroke-opacity:1"
       x="46.997314"
       y="141.04193"
       id="text3470"
       sodipodi:linespacing="125%"
       transform="scale(0.87794378,1.1390251)"><tspan
         sodipodi:role="line"
         id="tspan3472"
         x="46.997314"
         y="141.04193"
         style="font-style:normal;font-variant:normal;font-weight:bold;font-stretch:normal;font-family:sans-serif;-inkscape-font-specification:'sans-serif Bold'">Escuelas</tspan></text>
    <text
       xml:space="preserve"
       style="font-style:normal;font-weight:normal;font-size:21.48234367px;line-height:125%;font-family:sans-serif;letter-spacing:0px;word-spacing:0px;fill:#000000;fill-opacity:1;stroke:none;stroke-width:1px;stroke-linecap:butt;stroke-linejoin:miter;stroke-opacity:1"
       x="46.701172"
       y="156.58618"
       id="text3470-0"
       sodipodi:linespacing="125%"
       transform="scale(0.87215178,1.1465894)"><tspan
         sodipodi:role="line"
         id="tspan3472-4"
         x="46.701172"
         y="156.58618"
         style="font-style:normal;font-variant:normal;font-weight:bold;font-stretch:normal;font-family:sans-serif;-inkscape-font-specification:'sans-serif Bold'">Oportunidad</tspan></text>
    <text
       xml:space="preserve"
       style="font-style:normal;font-weight:normal;font-size:10.11153698px;line-height:125%;font-family:sans-serif;letter-spacing:0px;word-spacing:0px;fill:#000000;fill-opacity:1;stroke:none;stroke-width:1px;stroke-linecap:butt;stroke-linejoin:miter;stroke-opacity:1"
       x="113.64174"
       y="159.73157"
       id="text3511"
       sodipodi:linespacing="125%"
       transform="scale(1.0013688,0.99863307)"><tspan
         sodipodi:role="line"
         id="tspan3513"
         x="113.64174"
         y="159.73157">de segunda</tspan></text>
    <text
       xml:space="preserve"
       style="font-style:normal;font-weight:normal;font-size:12.17396736px;line-height:125%;font-family:sans-serif;letter-spacing:0px;word-spacing:0px;fill:#000000;fill-opacity:1;stroke:none;stroke-width:1px;stroke-linecap:butt;stroke-linejoin:miter;stroke-opacity:1"
       x="136.91852"
       y="179.17819"
       id="text3511-4"
       sodipodi:linespacing="125%"
       transform="scale(0.92974971,1.0755583)"><tspan
         sodipodi:role="line"
         id="tspan3513-4"
         x="136.91852"
         y="179.17819"
         style="font-style:normal;font-variant:normal;font-weight:bold;font-stretch:normal;font-family:sans-serif;-inkscape-font-specification:'sans-serif Bold'">España</tspan></text>
    <path
       inkscape:connector-curvature="0"
       id="path3570"
       style="font-style:normal;font-variant:normal;font-weight:bold;font-stretch:normal;font-size:medium;line-height:125%;font-family:sans-serif;-inkscape-font-specification:'sans-serif Bold';letter-spacing:0px;word-spacing:0px;fill:none;fill-opacity:1;stroke:#ff0000;stroke-width:1px;stroke-linecap:butt;stroke-linejoin:miter;stroke-opacity:1"
       d="m 60.785178,217.51491 7.056229,0 0,2.56399 -4.441553,0 0,2.44945 4.176689,0 0,2.56399 -4.176689,0 0,3.01335 4.590963,0 0,2.56399 -7.205639,0 0,-13.15477 z" />
    <path
       inkscape:connector-curvature="0"
       id="path3572"
       style="font-style:normal;font-variant:normal;font-weight:bold;font-stretch:normal;font-size:medium;line-height:125%;font-family:sans-serif;-inkscape-font-specification:'sans-serif Bold';letter-spacing:0px;word-spacing:0px;fill:none;fill-opacity:1;stroke:#ff0000;stroke-width:1px;stroke-linecap:butt;stroke-linejoin:miter;stroke-opacity:1"
       d="m 76.126873,221.10978 0,2.39658 q -0.781007,-0.42292 -1.507683,-0.63438 -0.726677,-0.21147 -1.371857,-0.21147 -0.692718,0 -1.032287,0.22909 -0.332777,0.22028 -0.332777,0.68726 0,0.37887 0.251281,0.58151 0.258072,0.20266 0.916834,0.29958 l 0.427856,0.0793 q 1.867626,0.30839 2.512805,1.01326 0.64518,0.70487 0.64518,2.21155 0,1.57717 -0.89646,2.37016 -0.896461,0.79299 -2.675798,0.79299 -0.753841,0 -1.562014,-0.1586 -0.801381,-0.1498 -1.650302,-0.45818 l 0,-2.39658 q 0.726676,0.45817 1.487309,0.68725 0.767425,0.22909 1.555223,0.22909 0.713093,0 1.073035,-0.25552 0.359943,-0.25551 0.359943,-0.75774 0,-0.42292 -0.251281,-0.62558 -0.244488,-0.21146 -0.984748,-0.32601 l -0.427856,-0.0705 q -1.623136,-0.26433 -2.275107,-0.97802 -0.651971,-0.71368 -0.651971,-2.1675 0,-1.56834 0.828546,-2.32609 0.828547,-0.75774 2.539971,-0.75774 0.672345,0 1.412604,0.13216 0.740259,0.13217 1.609554,0.41412 z" />
    <path
       inkscape:connector-curvature="0"
       id="path3574"
       style="font-style:normal;font-variant:normal;font-weight:bold;font-stretch:normal;font-size:medium;line-height:125%;font-family:sans-serif;-inkscape-font-specification:'sans-serif Bold';letter-spacing:0px;word-spacing:0px;fill:none;fill-opacity:1;stroke:#ff0000;stroke-width:1px;stroke-linecap:butt;stroke-linejoin:miter;stroke-opacity:1"
       d="m 84.616079,221.10978 0,2.5728 q -0.495769,-0.44054 -0.998331,-0.652 -0.495769,-0.21147 -1.032287,-0.21147 -1.018705,0 -1.58918,0.77537 -0.563683,0.76655 -0.563683,2.14987 0,1.38333 0.563683,2.15869 0.570475,0.76656 1.58918,0.76656 0.570475,0 1.079827,-0.22028 0.516143,-0.22028 0.950791,-0.65201 l 0,2.58161 q -0.570474,0.27314 -1.161324,0.40531 -0.584057,0.14098 -1.174905,0.14098 -2.057785,0 -3.219107,-1.3657 -1.161324,-1.37452 -1.161324,-3.81516 0,-2.44063 1.161324,-3.80633 1.161322,-1.37451 3.219107,-1.37451 0.59764,0 1.174905,0.14096 0.584058,0.13218 1.161324,0.40531 z" />
    <path
       inkscape:connector-curvature="0"
       id="path3576"
       style="font-style:normal;font-variant:normal;font-weight:bold;font-stretch:normal;font-size:medium;line-height:125%;font-family:sans-serif;-inkscape-font-specification:'sans-serif Bold';letter-spacing:0px;word-spacing:0px;fill:none;fill-opacity:1;stroke:#ff0000;stroke-width:1px;stroke-linecap:butt;stroke-linejoin:miter;stroke-opacity:1"
       d="m 86.646698,226.8281 0,-6.02671 2.444895,0 0,0.98683 q 0,0.80181 -0.007,2.01772 -0.007,1.2071 -0.007,1.61241 0,1.18947 0.0475,1.71813 0.04759,0.51985 0.162999,0.75775 0.149409,0.30838 0.387103,0.47579 0.24449,0.16742 0.556898,0.16742 0.760633,0 1.195276,-0.75775 0.434653,-0.75775 0.434653,-2.10582 l 0,-4.87248 2.431307,0 0,9.86829 -2.431307,0 0,-1.42737 q -0.550102,0.86347 -1.168122,1.27759 -0.611225,0.40531 -1.351481,0.40531 -1.317521,0 -2.010242,-1.04851 -0.685928,-1.04851 -0.685928,-3.0486 z" />
    <path
       inkscape:connector-curvature="0"
       id="path3578"
       style="font-style:normal;font-variant:normal;font-weight:bold;font-stretch:normal;font-size:medium;line-height:125%;font-family:sans-serif;-inkscape-font-specification:'sans-serif Bold';letter-spacing:0px;word-spacing:0px;fill:none;fill-opacity:1;stroke:#ff0000;stroke-width:1px;stroke-linecap:butt;stroke-linejoin:miter;stroke-opacity:1"
       d="m 104.23633,225.70911 0,0.89871 -5.684366,0 q 0.08829,1.11019 0.618011,1.66528 0.529725,0.55509 1.480525,0.55509 0.76741,0 1.5688,-0.29075 0.80817,-0.29958 1.65709,-0.89873 l 0,2.43183 q -0.86251,0.42292 -1.72501,0.63439 -0.8625,0.22028 -1.72501,0.22028 -2.064569,0 -3.212305,-1.3569 -1.140949,-1.3657 -1.140949,-3.82396 0,-2.41421 1.120572,-3.79753 1.127368,-1.38331 3.096862,-1.38331 1.79292,0 2.86596,1.40094 1.07982,1.40095 1.07982,3.74466 z m -2.49922,-1.04851 q 0,-0.89872 -0.40748,-1.445 -0.4007,-0.55509 -1.05266,-0.55509 -0.706302,0 -1.147741,0.51985 -0.441439,0.51104 -0.550102,1.48024 l 3.157983,0 z" />
    <path
       inkscape:connector-curvature="0"
       id="path3580"
       style="font-style:normal;font-variant:normal;font-weight:bold;font-stretch:normal;font-size:medium;line-height:125%;font-family:sans-serif;-inkscape-font-specification:'sans-serif Bold';letter-spacing:0px;word-spacing:0px;fill:none;fill-opacity:1;stroke:#ff0000;stroke-width:1px;stroke-linecap:butt;stroke-linejoin:miter;stroke-opacity:1"
       d="m 106.07,216.95982 2.43131,0 0,13.70986 -2.43131,0 0,-13.70986 z" />
    <path
       inkscape:connector-curvature="0"
       id="path3582"
       style="font-style:normal;font-variant:normal;font-weight:bold;font-stretch:normal;font-size:medium;line-height:125%;font-family:sans-serif;-inkscape-font-specification:'sans-serif Bold';letter-spacing:0px;word-spacing:0px;fill:none;fill-opacity:1;stroke:#ff0000;stroke-width:1px;stroke-linecap:butt;stroke-linejoin:miter;stroke-opacity:1"
       d="m 114.26039,226.22895 q -0.76063,0 -1.14775,0.33483 -0.38031,0.33482 -0.38031,0.98683 0,0.59914 0.30561,0.94277 0.31241,0.33481 0.86251,0.33481 0.68592,0 1.15453,-0.63439 0.4686,-0.64319 0.4686,-1.6036 l 0,-0.36125 -1.26319,0 z m 3.71488,-1.18947 0,5.6302 -2.45169,0 0,-1.46261 q -0.48898,0.89871 -1.1002,1.31283 -0.61123,0.40531 -1.48731,0.40531 -1.18169,0 -1.92196,-0.88991 -0.73347,-0.89873 -0.73347,-2.32611 0,-1.73576 0.91684,-2.54637 0.92363,-0.8106 2.89312,-0.8106 l 1.43298,0 0,-0.24671 q 0,-0.74893 -0.45502,-1.09256 -0.45502,-0.35244 -1.4194,-0.35244 -0.78101,0 -1.45334,0.20266 -0.67235,0.20265 -1.24962,0.60795 l 0,-2.40539 q 0.781,-0.2467 1.56881,-0.37006 0.7878,-0.13216 1.57559,-0.13216 2.05779,0 2.96783,1.05731 0.91684,1.04851 0.91684,3.41866 z" />
    <path
       inkscape:connector-curvature="0"
       id="path3584"
       style="font-style:normal;font-variant:normal;font-weight:bold;font-stretch:normal;font-size:medium;line-height:125%;font-family:sans-serif;-inkscape-font-specification:'sans-serif Bold';letter-spacing:0px;word-spacing:0px;fill:none;fill-opacity:1;stroke:#ff0000;stroke-width:1px;stroke-linecap:butt;stroke-linejoin:miter;stroke-opacity:1"
       d="m 126.19282,221.10978 0,2.39658 q -0.78101,-0.42292 -1.50768,-0.63438 -0.72669,-0.21147 -1.37186,-0.21147 -0.69272,0 -1.03229,0.22909 -0.33277,0.22028 -0.33277,0.68726 0,0.37887 0.25127,0.58151 0.25808,0.20266 0.91684,0.29958 l 0.42786,0.0793 q 1.86762,0.30839 2.5128,1.01326 0.64518,0.70487 0.64518,2.21155 0,1.57717 -0.89646,2.37016 -0.89646,0.79299 -2.6758,0.79299 -0.75384,0 -1.56201,-0.1586 -0.80139,-0.1498 -1.65031,-0.45818 l 0,-2.39658 q 0.72668,0.45817 1.48731,0.68725 0.76743,0.22909 1.55523,0.22909 0.71309,0 1.07304,-0.25552 0.35994,-0.25551 0.35994,-0.75774 0,-0.42292 -0.25129,-0.62558 -0.24449,-0.21146 -0.98474,-0.32601 l -0.42786,-0.0705 q -1.62314,-0.26433 -2.27511,-0.97802 -0.65196,-0.71368 -0.65196,-2.1675 0,-1.56834 0.82854,-2.32609 0.82855,-0.75774 2.53997,-0.75774 0.67234,0 1.4126,0.13216 0.74026,0.13217 1.60956,0.41412 z" />
    <path
       inkscape:connector-curvature="0"
       id="path4395"
       style="font-style:normal;font-variant:normal;font-weight:bold;font-stretch:normal;font-size:medium;line-height:125%;font-family:sans-serif;-inkscape-font-specification:'sans-serif Bold';letter-spacing:0px;word-spacing:0px;fill:none;fill-opacity:1;stroke:#ff0000;stroke-width:1px;stroke-linecap:butt;stroke-linejoin:miter;stroke-opacity:1"
       d="m 66.936998,237.13386 q -1.610114,0 -2.497507,1.56352 -0.887391,1.56351 -0.887391,4.4019 0,2.82636 0.887391,4.38989 0.887393,1.56351 2.497507,1.56351 1.619261,0 2.506653,-1.56351 0.887391,-1.56353 0.887391,-4.38989 0,-2.83839 -0.887391,-4.4019 -0.887392,-1.56352 -2.506653,-1.56352 z m 0,-3.35555 q 3.293413,0 5.159681,2.47757 1.866267,2.47757 1.866267,6.8434 0,4.3538 -1.866267,6.83138 -1.866268,2.47757 -5.159681,2.47757 -3.284266,0 -5.159683,-2.47757 -1.866267,-2.47758 -1.866267,-6.83138 0,-4.36583 1.866267,-6.8434 1.875417,-2.47757 5.159683,-2.47757 z" />
    <path
       inkscape:connector-curvature="0"
       id="path4397"
       style="font-style:normal;font-variant:normal;font-weight:bold;font-stretch:normal;font-size:medium;line-height:125%;font-family:sans-serif;-inkscape-font-specification:'sans-serif Bold';letter-spacing:0px;word-spacing:0px;fill:none;fill-opacity:1;stroke:#ff0000;stroke-width:1px;stroke-linecap:butt;stroke-linejoin:miter;stroke-opacity:1"
       d="m 79.744717,250.11106 0,7.07191 -3.275117,0 0,-18.59384 3.275117,0 0,1.97245 q 0.67698,-1.17866 1.500333,-1.7319 0.823353,-0.56527 1.893712,-0.56527 1.893713,0 3.110447,1.98446 1.216731,1.97244 1.216731,5.08745 0,3.11501 -1.216731,5.09947 -1.216734,1.97244 -3.110447,1.97244 -1.070359,0 -1.893712,-0.55324 -0.823353,-0.56528 -1.500333,-1.74393 z m 2.177312,-8.71962 q -1.052063,0 -1.619262,1.0223 -0.55805,1.01027 -0.55805,2.92258 0,1.9123 0.55805,2.9346 0.567199,1.01027 1.619262,1.01027 1.052062,0 1.600965,-1.01027 0.558051,-1.01027 0.558051,-2.9346 0,-1.92433 -0.558051,-2.93461 -0.548903,-1.01027 -1.600965,-1.01027 z" />
    <path
       inkscape:connector-curvature="0"
       id="path4399"
       style="font-style:normal;font-variant:normal;font-weight:bold;font-stretch:normal;font-size:medium;line-height:125%;font-family:sans-serif;-inkscape-font-specification:'sans-serif Bold';letter-spacing:0px;word-spacing:0px;fill:none;fill-opacity:1;stroke:#ff0000;stroke-width:1px;stroke-linecap:butt;stroke-linejoin:miter;stroke-opacity:1"
       d="m 94.775488,241.34333 q -1.088655,0 -1.664999,1.03433 -0.567204,1.0223 -0.567204,2.95866 0,1.93636 0.567204,2.97069 0.576344,1.02229 1.664999,1.02229 1.070366,0 1.637561,-1.02229 0.567204,-1.03433 0.567204,-2.97069 0,-1.93636 -0.567204,-2.95866 -0.567195,-1.03433 -1.637561,-1.03433 z m 0,-3.07892 q 2.643884,0 4.125923,1.87622 1.491179,1.87622 1.491179,5.19569 0,3.31947 -1.491179,5.19569 -1.482039,1.87622 -4.125923,1.87622 -2.653025,0 -4.153361,-1.87622 -1.491179,-1.87622 -1.491179,-5.19569 0,-3.31947 1.491179,-5.19569 1.500336,-1.87622 4.153361,-1.87622 z" />
    <path
       inkscape:connector-curvature="0"
       id="path4401"
       style="font-style:normal;font-variant:normal;font-weight:bold;font-stretch:normal;font-size:medium;line-height:125%;font-family:sans-serif;-inkscape-font-specification:'sans-serif Bold';letter-spacing:0px;word-spacing:0px;fill:none;fill-opacity:1;stroke:#ff0000;stroke-width:1px;stroke-linecap:butt;stroke-linejoin:miter;stroke-opacity:1"
       d="m 110.39176,242.25739 q -0.42997,-0.2646 -0.85994,-0.38487 -0.42083,-0.1323 -0.85081,-0.1323 -1.26247,0 -1.9486,1.07041 -0.67697,1.05839 -0.67697,3.04285 l 0,6.20597 -3.27512,0 0,-13.47032 3.27512,0 0,2.21298 q 0.63123,-1.32297 1.44544,-1.92432 0.82335,-0.61338 1.96689,-0.61338 0.16468,0 0.35679,0.0241 0.19212,0.012 0.55805,0.0721 l 0.009,3.89677 z" />
    <path
       inkscape:connector-curvature="0"
       id="path4403"
       style="font-style:normal;font-variant:normal;font-weight:bold;font-stretch:normal;font-size:medium;line-height:125%;font-family:sans-serif;-inkscape-font-specification:'sans-serif Bold';letter-spacing:0px;word-spacing:0px;fill:none;fill-opacity:1;stroke:#ff0000;stroke-width:1px;stroke-linecap:butt;stroke-linejoin:miter;stroke-opacity:1"
       d="m 115.61548,234.76452 0,3.82461 3.37575,0 0,3.07893 -3.37575,0 0,5.71286 q 0,0.93811 0.28359,1.27487 0.28361,0.32472 1.12525,0.32472 l 1.68331,0 0,3.07894 -2.80856,0 q -1.93944,0 -2.75365,-1.05838 -0.80506,-1.07041 -0.80506,-3.62015 l 0,-5.71286 -1.62841,0 0,-3.07893 1.62841,0 0,-3.82461 3.27512,0 z" />
    <path
       inkscape:connector-curvature="0"
       id="path4405"
       style="font-style:normal;font-variant:normal;font-weight:bold;font-stretch:normal;font-size:medium;line-height:125%;font-family:sans-serif;-inkscape-font-specification:'sans-serif Bold';letter-spacing:0px;word-spacing:0px;fill:none;fill-opacity:1;stroke:#ff0000;stroke-width:1px;stroke-linecap:butt;stroke-linejoin:miter;stroke-opacity:1"
       d="m 120.89409,246.81565 0,-8.22652 3.29342,0 0,1.34704 q 0,1.09445 -0.009,2.75419 -0.009,1.64771 -0.009,2.20096 0,1.62365 0.064,2.34528 0.064,0.70958 0.21956,1.03432 0.20127,0.42095 0.52146,0.64946 0.32934,0.22852 0.75017,0.22852 1.02462,0 1.61011,-1.03433 0.58549,-1.03434 0.58549,-2.87447 l 0,-6.65097 3.27512,0 0,13.47032 -3.27512,0 0,-1.94839 q -0.74101,1.17865 -1.57352,1.74393 -0.82335,0.55324 -1.82052,0.55324 -1.77478,0 -2.70791,-1.43122 -0.924,-1.43122 -0.924,-4.16136 z" />
    <path
       inkscape:connector-curvature="0"
       id="path4407"
       style="font-style:normal;font-variant:normal;font-weight:bold;font-stretch:normal;font-size:medium;line-height:125%;font-family:sans-serif;-inkscape-font-specification:'sans-serif Bold';letter-spacing:0px;word-spacing:0px;fill:none;fill-opacity:1;stroke:#ff0000;stroke-width:1px;stroke-linecap:butt;stroke-linejoin:miter;stroke-opacity:1"
       d="m 144.66156,243.85699 0,8.20246 -3.29341,0 0,-1.33501 0,-4.94312 q 0,-1.74393 -0.064,-2.40542 -0.0549,-0.66149 -0.20126,-0.97419 -0.19211,-0.42094 -0.52146,-0.64946 -0.32934,-0.24054 -0.75017,-0.24054 -1.02461,0 -1.6101,1.04635 -0.58551,1.03433 -0.58551,2.87447 l 0,6.62692 -3.27511,0 0,-13.47032 3.27511,0 0,1.97245 q 0.74103,-1.17866 1.57352,-1.7319 0.83251,-0.56527 1.83883,-0.56527 1.77479,0 2.68962,1.43122 0.92398,1.43121 0.92398,4.16136 z" />
    <path
       inkscape:connector-curvature="0"
       id="path4409"
       style="font-style:normal;font-variant:normal;font-weight:bold;font-stretch:normal;font-size:medium;line-height:125%;font-family:sans-serif;-inkscape-font-specification:'sans-serif Bold';letter-spacing:0px;word-spacing:0px;fill:none;fill-opacity:1;stroke:#ff0000;stroke-width:1px;stroke-linecap:butt;stroke-linejoin:miter;stroke-opacity:1"
       d="m 147.71712,238.58913 3.27511,0 0,13.47032 -3.27511,0 0,-13.47032 z m 0,-5.2438 3.27511,0 0,3.5119 -3.27511,0 0,-3.5119 z" />
    <path
       inkscape:connector-curvature="0"
       id="path4411"
       style="font-style:normal;font-variant:normal;font-weight:bold;font-stretch:normal;font-size:medium;line-height:125%;font-family:sans-serif;-inkscape-font-specification:'sans-serif Bold';letter-spacing:0px;word-spacing:0px;fill:none;fill-opacity:1;stroke:#ff0000;stroke-width:1px;stroke-linecap:butt;stroke-linejoin:miter;stroke-opacity:1"
       d="m 161.12863,240.56158 0,-7.21625 3.29341,0 0,18.71412 -3.29341,0 0,-1.94839 q -0.67698,1.19068 -1.49119,1.74393 -0.8142,0.55324 -1.88456,0.55324 -1.89371,0 -3.11044,-1.97244 -1.21674,-1.98446 -1.21674,-5.09947 0,-3.11501 1.21674,-5.08745 1.21673,-1.98446 3.11044,-1.98446 1.06121,0 1.87541,0.56527 0.82336,0.55324 1.50034,1.7319 z m -2.15902,8.71961 q 1.05207,0 1.60097,-1.01027 0.55805,-1.01027 0.55805,-2.9346 0,-1.92433 -0.55805,-2.93461 -0.5489,-1.01027 -1.60097,-1.01027 -1.04291,0 -1.60096,1.01027 -0.5489,1.01028 -0.5489,2.93461 0,1.92433 0.5489,2.9346 0.55805,1.01027 1.60096,1.01027 z" />
    <path
       inkscape:connector-curvature="0"
       id="path4413"
       style="font-style:normal;font-variant:normal;font-weight:bold;font-stretch:normal;font-size:medium;line-height:125%;font-family:sans-serif;-inkscape-font-specification:'sans-serif Bold';letter-spacing:0px;word-spacing:0px;fill:none;fill-opacity:1;stroke:#ff0000;stroke-width:1px;stroke-linecap:butt;stroke-linejoin:miter;stroke-opacity:1"
       d="m 172.17986,245.99781 q -1.02462,0 -1.54607,0.45702 -0.51232,0.45703 -0.51232,1.34703 0,0.81784 0.41169,1.2869 0.42082,0.45703 1.16183,0.45703 0.924,0 1.55523,-0.86595 0.63124,-0.87798 0.63124,-2.18893 l 0,-0.4931 -1.7016,0 z m 5.00416,-1.62366 0,7.6853 -3.30256,0 0,-1.9965 q -0.65868,1.22676 -1.48204,1.79204 -0.82335,0.55324 -2.00349,0.55324 -1.59181,0 -2.58899,-1.21473 -0.98803,-1.22676 -0.98803,-3.17515 0,-2.36933 1.23503,-3.47582 1.24419,-1.10649 3.89721,-1.10649 l 1.93031,0 0,-0.33676 q 0,-1.0223 -0.61294,-1.49135 -0.61295,-0.48109 -1.91201,-0.48109 -1.05207,0 -1.95775,0.27663 -0.90569,0.27662 -1.68331,0.82987 l 0,-3.2834 q 1.05207,-0.33675 2.11328,-0.50513 1.06122,-0.1804 2.12242,-0.1804 2.77195,0 3.99784,1.44324 1.23503,1.43122 1.23503,4.6665 z" />
    <path
       inkscape:connector-curvature="0"
       id="path4415"
       style="font-style:normal;font-variant:normal;font-weight:bold;font-stretch:normal;font-size:medium;line-height:125%;font-family:sans-serif;-inkscape-font-specification:'sans-serif Bold';letter-spacing:0px;word-spacing:0px;fill:none;fill-opacity:1;stroke:#ff0000;stroke-width:1px;stroke-linecap:butt;stroke-linejoin:miter;stroke-opacity:1"
       d="m 187.21979,240.56158 0,-7.21625 3.29341,0 0,18.71412 -3.29341,0 0,-1.94839 q -0.67698,1.19068 -1.49119,1.74393 -0.8142,0.55324 -1.88456,0.55324 -1.89371,0 -3.11045,-1.97244 -1.21673,-1.98446 -1.21673,-5.09947 0,-3.11501 1.21673,-5.08745 1.21674,-1.98446 3.11045,-1.98446 1.06121,0 1.87542,0.56527 0.82335,0.55324 1.50033,1.7319 z m -2.15902,8.71961 q 1.05207,0 1.60097,-1.01027 0.55805,-1.01027 0.55805,-2.9346 0,-1.92433 -0.55805,-2.93461 -0.5489,-1.01027 -1.60097,-1.01027 -1.04291,0 -1.60096,1.01027 -0.5489,1.01028 -0.5489,2.93461 0,1.92433 0.5489,2.9346 0.55805,1.01027 1.60096,1.01027 z" />
    <path
       inkscape:connector-curvature="0"
       id="path4448"
       style="font-style:normal;font-variant:normal;font-weight:bold;font-stretch:normal;font-size:medium;line-height:125%;font-family:sans-serif;-inkscape-font-specification:'sans-serif Bold';letter-spacing:0px;word-spacing:0px;fill:none;fill-opacity:1;stroke:#ff0000;stroke-width:1px;stroke-linecap:butt;stroke-linejoin:miter;stroke-opacity:1"
       d="m 146.58637,255.69054 5.74228,0 0,1.8605 -3.61448,0 0,1.77739 3.39893,0 0,1.8605 -3.39893,0 0,2.18655 3.73607,0 0,1.8605 -5.86387,0 0,-9.54544 z" />
    <path
       inkscape:connector-curvature="0"
       id="path4450"
       style="font-style:normal;font-variant:normal;font-weight:bold;font-stretch:normal;font-size:medium;line-height:125%;font-family:sans-serif;-inkscape-font-specification:'sans-serif Bold';letter-spacing:0px;word-spacing:0px;fill:none;fill-opacity:1;stroke:#ff0000;stroke-width:1px;stroke-linecap:butt;stroke-linejoin:miter;stroke-opacity:1"
       d="m 159.07126,258.29907 0,1.73903 q -0.63557,-0.30689 -1.22694,-0.46033 -0.59136,-0.15345 -1.11639,-0.15345 -0.56373,0 -0.84006,0.16624 -0.27082,0.15984 -0.27082,0.49868 0,0.27493 0.20449,0.42198 0.21002,0.14705 0.74612,0.21738 l 0.34818,0.0575 q 1.51985,0.22377 2.04489,0.73524 0.52504,0.51148 0.52504,1.60477 0,1.14442 -0.72953,1.71984 -0.72953,0.57541 -2.17753,0.57541 -0.61347,0 -1.27115,-0.11509 -0.65216,-0.10868 -1.343,-0.33246 l 0,-1.73902 q 0.59136,0.33246 1.21036,0.4987 0.62452,0.16622 1.26562,0.16622 0.5803,0 0.87322,-0.18541 0.29292,-0.18541 0.29292,-0.54984 0,-0.30689 -0.20449,-0.45393 -0.19897,-0.15345 -0.80138,-0.23656 l -0.34818,-0.0512 q -1.32089,-0.19181 -1.85146,-0.70968 -0.53056,-0.51787 -0.53056,-1.57279 0,-1.13803 0.67426,-1.68787 0.67426,-0.54984 2.06699,-0.54984 0.54715,0 1.14957,0.0959 0.60241,0.0959 1.30983,0.30049 z" />
    <path
       inkscape:connector-curvature="0"
       id="path4452"
       style="font-style:normal;font-variant:normal;font-weight:bold;font-stretch:normal;font-size:medium;line-height:125%;font-family:sans-serif;-inkscape-font-specification:'sans-serif Bold';letter-spacing:0px;word-spacing:0px;fill:none;fill-opacity:1;stroke:#ff0000;stroke-width:1px;stroke-linecap:butt;stroke-linejoin:miter;stroke-opacity:1"
       d="m 162.95655,264.20024 0,3.75936 -1.97857,0 0,-9.8843 1.97857,0 0,1.04853 c 0.27265,-0.4177 0.57478,-0.72458 0.90639,-0.92065 0.3316,-0.20033 0.71294,-0.30049 1.14403,-0.30049 0.76269,0 1.38905,0.35164 1.87908,1.05492 0.49004,0.69901 0.73506,1.60049 0.73506,2.70443 0,1.10394 -0.24502,2.00755 -0.73506,2.71083 -0.49003,0.69902 -1.11639,1.04853 -1.87908,1.04853 -0.43109,0 -0.81243,-0.098 -1.14403,-0.2941 -0.33161,-0.20033 -0.63374,-0.50935 -0.90639,-0.92706 z"
       sodipodi:nodetypes="cccccccscscscc" />
    <path
       inkscape:connector-curvature="0"
       id="path4454"
       style="font-style:normal;font-variant:normal;font-weight:bold;font-stretch:normal;font-size:medium;line-height:125%;font-family:sans-serif;-inkscape-font-specification:'sans-serif Bold';letter-spacing:0px;word-spacing:0px;fill:none;fill-opacity:1;stroke:#ff0000;stroke-width:1px;stroke-linecap:butt;stroke-linejoin:miter;stroke-opacity:1"
       d="m 174.88876,261.15056 0,4.08542 -1.99515,0 0,-1.06131 c -0.26528,0.43476 -0.56372,0.7523 -0.89533,0.95263 -0.3316,0.19607 -0.73505,0.2941 -1.21035,0.2941 -0.6411,0 -1.16246,-0.21525 -1.56407,-0.64574 -0.39793,-0.43476 -0.59689,-0.99739 -0.59689,-1.68788 0,-0.83967 0.24871,-1.45558 0.74612,-1.84771 0.50109,-0.39213 1.28588,-0.5882 2.35439,-0.5882 l 1.16613,0 0,-0.17902 c 0,-0.36229 -0.12343,-0.62655 -0.37029,-0.79278 -0.24686,-0.1705 -0.63189,-0.25575 -1.15508,-0.25575 -0.42372,0 -0.81796,0.049 -1.18273,0.14705 -0.36477,0.098 -0.70374,0.24508 -1.01691,0.44115 l 0,-1.74541 c 0.42371,-0.11935 0.84927,-0.20886 1.27667,-0.26853 0.42741,-0.0639 0.85481,-0.0959 1.28221,-0.0959 1.1164,0 1.92146,0.25574 2.41517,0.76722 0.49741,0.50721 0.74611,1.3341 0.74611,2.48066 z"
       sodipodi:nodetypes="sccccscscscscsscccscs" />
    <path
       inkscape:connector-curvature="0"
       id="path4456"
       style="font-style:normal;font-variant:normal;font-weight:bold;font-stretch:normal;font-size:medium;line-height:125%;font-family:sans-serif;-inkscape-font-specification:'sans-serif Bold';letter-spacing:0px;word-spacing:0px;fill:none;fill-opacity:1;stroke:#ff0000;stroke-width:1px;stroke-linecap:butt;stroke-linejoin:miter;stroke-opacity:1"
       d="m 182.96331,260.87565 0,4.36033 -1.98961,0 0,-0.70967 0,-2.62771 q 0,-0.92705 -0.0387,-1.2787 -0.0332,-0.35163 -0.12159,-0.51787 -0.11606,-0.22377 -0.31503,-0.34524 -0.19896,-0.12787 -0.45319,-0.12787 -0.61899,0 -0.9727,0.55623 -0.35372,0.54984 -0.35372,1.52804 l 0,3.52279 -1.97856,0 0,-7.16068 1.97856,0 0,1.04853 q 0.44767,-0.62655 0.95061,-0.92065 0.50293,-0.30049 1.11086,-0.30049 1.07219,0 1.62486,0.76081 0.5582,0.76082 0.5582,2.21215 z m -2.99548,-4.36035 -0.30397,-0.23656 q -0.0221,-0.0128 -0.0552,-0.0384 -0.25975,-0.1982 -0.39792,-0.1982 -0.19897,0 -0.30398,0.1982 -0.105,0.1982 -0.105,0.57541 l 0,0.0512 -0.76822,0 q 0,-0.86952 0.28186,-1.34263 0.28739,-0.47312 0.80137,-0.47312 0.19897,0 0.39794,0.0895 0.20448,0.0831 0.43108,0.27492 l 0.33713,0.27491 q 0.12159,0.0959 0.22107,0.14705 0.105,0.0512 0.18791,0.0512 0.19896,0 0.3095,-0.20459 0.11052,-0.2046 0.11052,-0.56903 l 0,-0.0512 0.76822,0 q 0,0.86951 -0.28739,1.34263 -0.28186,0.47311 -0.79584,0.47311 -0.19897,0 -0.38688,-0.0767 -0.18238,-0.0767 -0.44213,-0.28771 z" />
    <path
       inkscape:connector-curvature="0"
       id="path4458"
       style="font-style:normal;font-variant:normal;font-weight:bold;font-stretch:normal;font-size:medium;line-height:125%;font-family:sans-serif;-inkscape-font-specification:'sans-serif Bold';letter-spacing:0px;word-spacing:0px;fill:none;fill-opacity:1;stroke:#ff0000;stroke-width:1px;stroke-linecap:butt;stroke-linejoin:miter;stroke-opacity:1"
       d="m 190.60679,261.15056 0,4.08542 -1.99515,0 0,-1.06131 c -0.26529,0.43476 -0.56374,0.7523 -0.89533,0.95263 -0.33161,0.19607 -0.73506,0.2941 -1.21036,0.2941 -0.6411,0 -1.16245,-0.21525 -1.56406,-0.64574 -0.39793,-0.43476 -0.59689,-0.99739 -0.59689,-1.68788 0,-0.83967 0.2487,-1.45558 0.7461,-1.84771 0.50109,-0.39213 1.28589,-0.5882 2.35439,-0.5882 l 1.16615,0 0,-0.17902 c 0,-0.36229 -0.12343,-0.62655 -0.37029,-0.79278 -0.24687,-0.1705 -0.6319,-0.25575 -1.1551,-0.25575 -0.42371,0 -0.81795,0.049 -1.18271,0.14705 -0.36477,0.098 -0.70374,0.24508 -1.01693,0.44115 l 0,-1.74541 c 0.42372,-0.11935 0.84928,-0.20886 1.27668,-0.26853 0.4274,-0.0639 0.8548,-0.0959 1.2822,-0.0959 1.1164,0 1.92146,0.25574 2.41518,0.76722 0.49741,0.50721 0.74612,1.3341 0.74612,2.48066 z"
       sodipodi:nodetypes="sccccscscscscsscccscs" />
    <path
       inkscape:connector-curvature="0"
       id="path4513"
       style="font-style:normal;font-weight:normal;font-size:medium;line-height:125%;font-family:sans-serif;letter-spacing:0px;word-spacing:0px;fill:none;fill-opacity:1;stroke:#ff0000;stroke-width:1px;stroke-linecap:butt;stroke-linejoin:miter;stroke-opacity:1"
       d="m 136.55515,224.03537 0,-2.9879 0.9097,0 0,7.6719 -0.9097,0 0,-0.82833 q -0.28675,0.49306 -0.72677,0.73465 -0.43508,0.23666 -1.04813,0.23666 -1.00365,0 -1.63648,-0.79874 -0.62789,-0.79875 -0.62789,-2.10041 0,-1.30166 0.62789,-2.10039 0.63283,-0.79875 1.63648,-0.79875 0.61305,0 1.04813,0.24159 0.44002,0.23667 0.72677,0.72972 z m -3.09991,1.92783 q 0,1.0009 0.41035,1.57284 0.4153,0.56701 1.13714,0.56701 0.72183,0 1.13712,-0.56701 0.4153,-0.57194 0.4153,-1.57284 0,-1.00089 -0.4153,-1.5679 -0.41529,-0.57194 -1.13712,-0.57194 -0.72184,0 -1.13714,0.57194 -0.41035,0.56701 -0.41035,1.5679 z" />
    <path
       inkscape:connector-curvature="0"
       id="path4515"
       style="font-style:normal;font-weight:normal;font-size:medium;line-height:125%;font-family:sans-serif;letter-spacing:0px;word-spacing:0px;fill:none;fill-opacity:1;stroke:#ff0000;stroke-width:1px;stroke-linecap:butt;stroke-linejoin:miter;stroke-opacity:1"
       d="m 144.07502,225.73147 0,0.44375 -4.18265,0 q 0.0593,0.9368 0.56362,1.42985 0.50924,0.48813 1.414,0.48813 0.52406,0 1.01352,-0.1282 0.49441,-0.12819 0.97892,-0.38458 l 0,0.85791 q -0.48946,0.20708 -1.00364,0.31555 -0.51418,0.10847 -1.04319,0.10847 -1.325,0 -2.10121,-0.76915 -0.77127,-0.76917 -0.77127,-2.08069 0,-1.35589 0.73172,-2.1497 0.73665,-0.79875 1.98256,-0.79875 1.11734,0 1.76501,0.71985 0.65261,0.71493 0.65261,1.94756 z m -0.9097,-0.26625 q -0.01,-0.74451 -0.42024,-1.18825 -0.40541,-0.44375 -1.0778,-0.44375 -0.76138,0 -1.22118,0.42895 -0.45484,0.42896 -0.52407,1.20799 l 3.24329,-0.005 z" />
    <path
       inkscape:connector-curvature="0"
       id="path4517"
       style="font-style:normal;font-weight:normal;font-size:medium;line-height:125%;font-family:sans-serif;letter-spacing:0px;word-spacing:0px;fill:none;fill-opacity:1;stroke:#ff0000;stroke-width:1px;stroke-linecap:butt;stroke-linejoin:miter;stroke-opacity:1"
       d="m 152.32167,223.35988 0,0.85792 q -0.38563,-0.19722 -0.80093,-0.29583 -0.4153,-0.0986 -0.86027,-0.0986 -0.67732,0 -1.01847,0.20708 -0.33619,0.20708 -0.33619,0.62125 0,0.31554 0.24226,0.49797 0.24225,0.17751 0.97397,0.34022 l 0.31148,0.069 q 0.96902,0.20708 1.37444,0.58673 0.41035,0.37473 0.41035,1.0502 0,0.76917 -0.61306,1.21785 -0.60811,0.44867 -1.67603,0.44867 -0.44496,0 -0.92947,-0.0888 -0.47958,-0.0838 -1.01353,-0.25638 l 0,-0.9368 q 0.50429,0.26132 0.99375,0.39444 0.48946,0.12819 0.96903,0.12819 0.64272,0 0.98881,-0.21694 0.34608,-0.22188 0.34608,-0.62125 0,-0.36978 -0.25214,-0.567 -0.24721,-0.19722 -1.09264,-0.37965 l -0.31642,-0.074 q -0.84543,-0.1775 -1.22117,-0.54236 -0.37575,-0.36979 -0.37575,-1.01076 0,-0.77902 0.55373,-1.20305 0.55373,-0.42402 1.5722,-0.42402 0.50429,0 0.94926,0.074 0.44496,0.074 0.82071,0.22186 z" />
    <path
       inkscape:connector-curvature="0"
       id="path4519"
       style="font-style:normal;font-weight:normal;font-size:medium;line-height:125%;font-family:sans-serif;letter-spacing:0px;word-spacing:0px;fill:none;fill-opacity:1;stroke:#ff0000;stroke-width:1px;stroke-linecap:butt;stroke-linejoin:miter;stroke-opacity:1"
       d="m 158.80824,225.73147 0,0.44375 -4.18265,0 q 0.0593,0.9368 0.56362,1.42985 0.50923,0.48813 1.414,0.48813 0.52406,0 1.01352,-0.1282 0.4944,-0.12819 0.97892,-0.38458 l 0,0.85791 q -0.48946,0.20708 -1.00364,0.31555 -0.51419,0.10847 -1.04319,0.10847 -1.325,0 -2.10122,-0.76915 -0.77127,-0.76917 -0.77127,-2.08069 0,-1.35589 0.73172,-2.1497 0.73666,-0.79875 1.98255,-0.79875 1.11736,0 1.76503,0.71985 0.65261,0.71493 0.65261,1.94756 z m -0.9097,-0.26625 q -0.01,-0.74451 -0.42025,-1.18825 -0.4054,-0.44375 -1.07779,-0.44375 -0.76138,0 -1.22118,0.42895 -0.45485,0.42896 -0.52407,1.20799 l 3.24329,-0.005 z" />
    <path
       inkscape:connector-curvature="0"
       id="path4521"
       style="font-style:normal;font-weight:normal;font-size:medium;line-height:125%;font-family:sans-serif;letter-spacing:0px;word-spacing:0px;fill:none;fill-opacity:1;stroke:#ff0000;stroke-width:1px;stroke-linecap:butt;stroke-linejoin:miter;stroke-opacity:1"
       d="m 163.94509,225.89418 q 0,-0.9861 -0.41036,-1.52846 -0.4054,-0.54236 -1.14207,-0.54236 -0.73171,0 -1.14207,0.54236 -0.40541,0.54236 -0.40541,1.52846 0,0.98117 0.40541,1.52353 0.41036,0.54236 1.14207,0.54236 0.73667,0 1.14207,-0.54236 0.41036,-0.54236 0.41036,-1.52353 z m 0.9097,2.13985 q 0,1.41013 -0.62789,2.09547 -0.62789,0.69027 -1.92323,0.69027 -0.47957,0 -0.90476,-0.074 -0.42518,-0.069 -0.82565,-0.21694 l 0,-0.88256 q 0.40047,0.21694 0.79104,0.32048 0.39058,0.10354 0.79599,0.10354 0.89487,0 1.33983,-0.4684 0.44497,-0.46346 0.44497,-1.4052 l 0,-0.44867 q -0.28181,0.48812 -0.72184,0.72971 -0.44001,0.2416 -1.05306,0.2416 -1.01848,0 -1.64143,-0.77409 -0.62295,-0.77409 -0.62295,-2.0511 0,-1.28194 0.62295,-2.05603 0.62295,-0.77409 1.64143,-0.77409 0.61305,0 1.05306,0.24159 0.44003,0.2416 0.72184,0.72972 l 0,-0.83819 0.9097,0 0,4.83685 z" />
    <path
       inkscape:connector-curvature="0"
       id="path4523"
       style="font-style:normal;font-weight:normal;font-size:medium;line-height:125%;font-family:sans-serif;letter-spacing:0px;word-spacing:0px;fill:none;fill-opacity:1;stroke:#ff0000;stroke-width:1px;stroke-linecap:butt;stroke-linejoin:miter;stroke-opacity:1"
       d="m 166.63464,226.54008 0,-3.3429 0.9097,0 0,3.30838 q 0,0.78396 0.30653,1.1784 0.30654,0.38951 0.9196,0.38951 0.73665,0 1.16185,-0.4684 0.43012,-0.46839 0.43012,-1.27701 l 0,-3.13088 0.90971,0 0,5.52219 -0.90971,0 0,-0.84805 q -0.33125,0.50291 -0.77127,0.74943 -0.43508,0.2416 -1.01353,0.2416 -0.95419,0 -1.4486,-0.59166 -0.4944,-0.59166 -0.4944,-1.73061 z m 2.28909,-3.47602 0,0 z" />
    <path
       inkscape:connector-curvature="0"
       id="path4525"
       style="font-style:normal;font-weight:normal;font-size:medium;line-height:125%;font-family:sans-serif;letter-spacing:0px;word-spacing:0px;fill:none;fill-opacity:1;stroke:#ff0000;stroke-width:1px;stroke-linecap:butt;stroke-linejoin:miter;stroke-opacity:1"
       d="m 177.75871,225.38633 0,3.33304 -0.9097,0 0,-3.30345 q 0,-0.78396 -0.30653,-1.17346 -0.30653,-0.38952 -0.91959,-0.38952 -0.73666,0 -1.16184,0.4684 -0.4252,0.4684 -0.4252,1.27701 l 0,3.12102 -0.91464,0 0,-5.52219 0.91464,0 0,0.85791 q 0.32631,-0.49799 0.76633,-0.74451 0.44496,-0.24652 1.02341,-0.24652 0.95421,0 1.44366,0.59166 0.48946,0.58674 0.48946,1.73061 z" />
    <path
       inkscape:connector-curvature="0"
       id="path4527"
       style="font-style:normal;font-weight:normal;font-size:medium;line-height:125%;font-family:sans-serif;letter-spacing:0px;word-spacing:0px;fill:none;fill-opacity:1;stroke:#ff0000;stroke-width:1px;stroke-linecap:butt;stroke-linejoin:miter;stroke-opacity:1"
       d="m 183.22681,224.03537 0,-2.9879 0.9097,0 0,7.6719 -0.9097,0 0,-0.82833 q -0.28675,0.49306 -0.72678,0.73465 -0.43507,0.23666 -1.04813,0.23666 -1.00363,0 -1.63647,-0.79874 -0.62789,-0.79875 -0.62789,-2.10041 0,-1.30166 0.62789,-2.10039 0.63284,-0.79875 1.63647,-0.79875 0.61306,0 1.04813,0.24159 0.44003,0.23667 0.72678,0.72972 z m -3.09991,1.92783 q 0,1.0009 0.41036,1.57284 0.4153,0.56701 1.13713,0.56701 0.72182,0 1.13712,-0.56701 0.4153,-0.57194 0.4153,-1.57284 0,-1.00089 -0.4153,-1.5679 -0.4153,-0.57194 -1.13712,-0.57194 -0.72183,0 -1.13713,0.57194 -0.41036,0.56701 -0.41036,1.5679 z" />
    <path
       inkscape:connector-curvature="0"
       id="path4529"
       style="font-style:normal;font-weight:normal;font-size:medium;line-height:125%;font-family:sans-serif;letter-spacing:0px;word-spacing:0px;fill:none;fill-opacity:1;stroke:#ff0000;stroke-width:1px;stroke-linecap:butt;stroke-linejoin:miter;stroke-opacity:1"
       d="m 188.52681,225.94348 q -1.10251,0 -1.5277,0.25146 -0.42519,0.25146 -0.42519,0.85791 0,0.48319 0.31642,0.76917 0.32137,0.28103 0.87016,0.28103 0.75643,0 1.21128,-0.53249 0.45979,-0.53743 0.45979,-1.42493 l 0,-0.20215 -0.90476,0 z m 1.81446,-0.37472 0,3.15061 -0.9097,0 0,-0.83819 q -0.31147,0.50292 -0.77621,0.74451 -0.46474,0.23666 -1.13713,0.23666 -0.85037,0 -1.35466,-0.47333 -0.49935,-0.47825 -0.49935,-1.277 0,-0.93188 0.62295,-1.4052 0.62789,-0.47333 1.86885,-0.47333 l 1.27555,0 0,-0.0888 q 0,-0.62618 -0.4153,-0.96639 -0.41035,-0.34513 -1.1569,-0.34513 -0.47463,0 -0.92453,0.1134 -0.44991,0.11341 -0.86521,0.34021 l 0,-0.8382 q 0.49935,-0.19228 0.96903,-0.28597 0.46968,-0.0986 0.91465,-0.0986 1.2014,0 1.79468,0.62124 0.59328,0.62125 0.59328,1.88346 z" />
  </g>
</svg>
