<?xml version="1.0" encoding="UTF-8" standalone="no"?>
<!-- Created with Inkscape (http://www.inkscape.org/) -->

<svg
   xmlns:dc="http://purl.org/dc/elements/1.1/"
   xmlns:cc="http://creativecommons.org/ns#"
   xmlns:rdf="http://www.w3.org/1999/02/22-rdf-syntax-ns#"
   xmlns:svg="http://www.w3.org/2000/svg"
   xmlns="http://www.w3.org/2000/svg"
   xmlns:sodipodi="http://sodipodi.sourceforge.net/DTD/sodipodi-0.dtd"
   xmlns:inkscape="http://www.inkscape.org/namespaces/inkscape"
   width="458.20001mm"
   height="304.79999mm"
   viewBox="0 0 1623.5434 1080"
   id="svg2"
   version="1.1"
   inkscape:version="0.91 r13725"
   sodipodi:docname="logo-e2o.svg">
  <defs
     id="defs4" />
  <sodipodi:namedview
     id="base"
     pagecolor="#ffffff"
     bordercolor="#666666"
     borderopacity="1.0"
     inkscape:pageopacity="0.0"
     inkscape:pageshadow="2"
     inkscape:zoom="0.9899495"
     inkscape:cx="74.611724"
     inkscape:cy="824.86738"
     inkscape:document-units="px"
     inkscape:current-layer="layer1"
     showgrid="false"
     inkscape:window-width="1215"
     inkscape:window-height="1000"
     inkscape:window-x="65"
     inkscape:window-y="24"
     inkscape:window-maximized="1" />
  <metadata
     id="metadata7">
    <rdf:RDF>
      <cc:Work
         rdf:about="">
        <dc:format>image/svg+xml</dc:format>
        <dc:type
           rdf:resource="http://purl.org/dc/dcmitype/StillImage" />
        <dc:title></dc:title>
      </cc:Work>
    </rdf:RDF>
  </metadata>
  <g
     inkscape:label="Layer 1"
     inkscape:groupmode="layer"
     id="layer1"
     transform="translate(0,27.637799)">
    <path
       style="fill:#000000;stroke:#000000;stroke-width:1"
       d="m 207.19864,126.85839 c 22.30732,-5.79447 36.77453,-24.17033 36.77453,-46.710189 0,-21.847801 -13.51439,-40.010088 -34.51786,-46.38927 -5.6311,-1.710276 -8.34251,-1.9558 -16.82954,-1.523816 -8.32708,0.423818 -10.11699,0.27086 -10.11699,-0.865295 0,-0.759155 -1.8711,-3.246242 -4.15802,-5.526912 -10.26308,-10.235054 -32.48704,-9.928845 -43.48379,0.5991 -5.99841,5.742725 -5.93093,6.201276 1.39473,9.479108 3.59002,1.606305 6.62414,2.801168 6.74252,2.655208 0.11826,-0.146122 0.74178,-1.273918 1.38531,-2.506592 4.33082,-8.295713 23.48489,-8.005672 23.48489,0.355618 0,2.96294 -3.97796,7.344689 -29.28669,32.259595 l -19.9824,19.671426 14.76971,0.0324 14.76971,0.0324 0.62778,3.337187 c 2.02194,10.748452 13.82553,25.578252 24.7548,31.101372 10.59229,5.35286 22.85734,6.81042 33.67131,4.00145 z"
       id="path4187"
       inkscape:connector-curvature="0" />
    <path
       style="fill:none;stroke:#ff0000;stroke-width:1"
       d="m 189.82596,112.71673 c -5.57723,-1.12245 -8.83753,-2.5041 -13.56809,-5.74992 -4.48729,-3.0789 -10.81871,-11.556051 -11.85512,-15.872806 l -0.64239,-2.675621 16.15261,0 16.1526,0 0.295,4.789271 0.29499,4.789303 10.00016,-7.289091 c 5.50011,-4.009024 9.99091,-7.587167 9.97957,-7.951435 -0.0195,-0.611089 -17.88358,-13.874983 -19.67499,-14.608055 -0.43589,-0.178522 -0.79255,1.682412 -0.79255,4.135091 l 0,4.459378 -16.58561,0 c -19.02633,0 -18.21181,0.515672 -14.56006,-9.217837 2.60836,-6.95246 9.76807,-14.351515 17.22358,-17.799347 7.95775,-3.680071 18.99532,-3.190273 26.72232,-0.06674 7.727,3.123533 12.99361,8.708192 16.703,16.222428 2.8012,5.674492 3.17693,7.372423 3.15273,14.246443 -0.0227,6.324978 -0.50955,8.840512 -2.5709,13.272189 -4.93215,10.603339 -13.37508,17.198329 -24.65438,19.258169 -6.39874,1.16855 -6.2605,1.16787 -11.77224,0.0586 z"
       id="path3468"
       inkscape:connector-curvature="0" />
    <path
       inkscape:connector-curvature="0"
       id="path3570"
       style="font-style:normal;font-variant:normal;font-weight:bold;font-stretch:normal;font-size:medium;line-height:125%;font-family:sans-serif;-inkscape-font-specification:'sans-serif Bold';letter-spacing:0px;word-spacing:0px;fill:none;fill-opacity:1;stroke:#ff0000;stroke-width:1px;stroke-linecap:butt;stroke-linejoin:miter;stroke-opacity:1"
       d="m 101.92282,141.39387 8.78522,0 0,3.18036 -5.52987,0 0,3.0383 5.20011,0 0,3.18036 -5.20011,0 0,3.73775 5.71589,0 0,3.18036 -8.97124,0 0,-16.31713 z" />
    <path
       inkscape:connector-curvature="0"
       id="path3572"
       style="font-style:normal;font-variant:normal;font-weight:bold;font-stretch:normal;font-size:medium;line-height:125%;font-family:sans-serif;-inkscape-font-specification:'sans-serif Bold';letter-spacing:0px;word-spacing:0px;fill:none;fill-opacity:1;stroke:#ff0000;stroke-width:1px;stroke-linecap:butt;stroke-linejoin:miter;stroke-opacity:1"
       d="m 121.0237,145.85294 0,2.97271 q -0.97238,-0.52459 -1.87711,-0.78688 -0.90473,-0.26231 -1.708,-0.26231 -0.86246,0 -1.28523,0.28416 -0.41432,0.27323 -0.41432,0.85248 0,0.46993 0.31285,0.72129 0.32131,0.25138 1.14149,0.3716 l 0.53269,0.0985 q 2.32525,0.38252 3.12852,1.25684 0.80327,0.87432 0.80327,2.7432 0,1.95632 -1.11612,2.93993 -1.11612,0.98362 -3.33145,0.98362 -0.93856,0 -1.94476,-0.19673 -0.99774,-0.1858 -2.05467,-0.56832 l 0,-2.97271 q 0.90473,0.56832 1.85174,0.85247 0.95547,0.28417 1.9363,0.28417 0.88783,0 1.33596,-0.31695 0.44814,-0.31693 0.44814,-0.93991 0,-0.52458 -0.31285,-0.77596 -0.30439,-0.26229 -1.22604,-0.40438 l -0.53269,-0.0875 q -2.02086,-0.32788 -2.83258,-1.21314 -0.81173,-0.88524 -0.81173,-2.68856 0,-1.94537 1.03157,-2.88526 1.03157,-0.93991 3.16234,-0.93991 0.83709,0 1.75874,0.16394 0.92164,0.16393 2.00394,0.51366 z" />
    <path
       inkscape:connector-curvature="0"
       id="path3574"
       style="font-style:normal;font-variant:normal;font-weight:bold;font-stretch:normal;font-size:medium;line-height:125%;font-family:sans-serif;-inkscape-font-specification:'sans-serif Bold';letter-spacing:0px;word-spacing:0px;fill:none;fill-opacity:1;stroke:#ff0000;stroke-width:1px;stroke-linecap:butt;stroke-linejoin:miter;stroke-opacity:1"
       d="m 131.59303,145.85294 0,3.1913 q -0.61725,-0.54645 -1.24296,-0.80875 -0.61724,-0.26231 -1.28523,-0.26231 -1.26832,0 -1.97857,0.96177 -0.70181,0.95082 -0.70181,2.66669 0,1.71587 0.70181,2.67763 0.71025,0.95084 1.97857,0.95084 0.71026,0 1.34442,-0.27325 0.64262,-0.27322 1.18377,-0.80874 l 0,3.20223 q -0.71026,0.33879 -1.44589,0.50273 -0.72717,0.17487 -1.46279,0.17487 -2.56201,0 -4.00789,-1.694 -1.44588,-1.70495 -1.44588,-4.73231 0,-3.02735 1.44588,-4.72136 1.44588,-1.70494 4.00789,-1.70494 0.74408,0 1.46279,0.17486 0.72717,0.16395 1.44589,0.50274 z" />
    <path
       inkscape:connector-curvature="0"
       id="path3576"
       style="font-style:normal;font-variant:normal;font-weight:bold;font-stretch:normal;font-size:medium;line-height:125%;font-family:sans-serif;-inkscape-font-specification:'sans-serif Bold';letter-spacing:0px;word-spacing:0px;fill:none;fill-opacity:1;stroke:#ff0000;stroke-width:1px;stroke-linecap:butt;stroke-linejoin:miter;stroke-opacity:1"
       d="m 134.12121,152.94591 0,-7.4755 3.04397,0 0,1.22407 q 0,0.99456 -0.009,2.50276 -0.009,1.49729 -0.009,2.00003 0,1.47542 0.0591,2.13116 0.0592,0.64481 0.20294,0.93991 0.18602,0.38252 0.48195,0.59017 0.3044,0.20766 0.69336,0.20766 0.94701,0 1.48815,-0.93991 0.54116,-0.9399 0.54116,-2.61204 l 0,-6.04381 3.02705,0 0,12.24059 -3.02705,0 0,-1.77051 q -0.68489,1.07105 -1.45435,1.58472 -0.76099,0.50274 -1.68263,0.50274 -1.64036,0 -2.50282,-1.30056 -0.854,-1.30057 -0.854,-3.78148 z" />
    <path
       inkscape:connector-curvature="0"
       id="path3578"
       style="font-style:normal;font-variant:normal;font-weight:bold;font-stretch:normal;font-size:medium;line-height:125%;font-family:sans-serif;-inkscape-font-specification:'sans-serif Bold';letter-spacing:0px;word-spacing:0px;fill:none;fill-opacity:1;stroke:#ff0000;stroke-width:1px;stroke-linecap:butt;stroke-linejoin:miter;stroke-opacity:1"
       d="m 156.02085,151.55793 0,1.11476 -7.07722,0 q 0.10993,1.37707 0.76945,2.06561 0.65952,0.68852 1.8433,0.68852 0.95545,0 1.9532,-0.36065 1.0062,-0.3716 2.06313,-1.11478 l 0,3.01644 q -1.07385,0.52459 -2.14769,0.78689 -1.07384,0.27323 -2.14769,0.27323 -2.57046,0 -3.99942,-1.68308 -1.42052,-1.69401 -1.42052,-4.74323 0,-2.99458 1.39515,-4.71044 1.40361,-1.71586 3.85569,-1.71586 2.23224,0 3.56821,1.73773 1.34441,1.73772 1.34441,4.64486 z m -3.11161,-1.30057 q 0,-1.11477 -0.50733,-1.79238 -0.49888,-0.68852 -1.31059,-0.68852 -0.87937,0 -1.42897,0.64482 -0.54961,0.63389 -0.6849,1.83608 l 3.93179,0 z" />
    <path
       inkscape:connector-curvature="0"
       id="path3580"
       style="font-style:normal;font-variant:normal;font-weight:bold;font-stretch:normal;font-size:medium;line-height:125%;font-family:sans-serif;-inkscape-font-specification:'sans-serif Bold';letter-spacing:0px;word-spacing:0px;fill:none;fill-opacity:1;stroke:#ff0000;stroke-width:1px;stroke-linecap:butt;stroke-linejoin:miter;stroke-opacity:1"
       d="m 158.30382,140.70535 3.02706,0 0,17.00565 -3.02706,0 0,-17.00565 z" />
    <path
       inkscape:connector-curvature="0"
       id="path3582"
       style="font-style:normal;font-variant:normal;font-weight:bold;font-stretch:normal;font-size:medium;line-height:125%;font-family:sans-serif;-inkscape-font-specification:'sans-serif Bold';letter-spacing:0px;word-spacing:0px;fill:none;fill-opacity:1;stroke:#ff0000;stroke-width:1px;stroke-linecap:butt;stroke-linejoin:miter;stroke-opacity:1"
       d="m 168.50111,152.20273 q -0.947,0 -1.42899,0.41533 -0.47349,0.41531 -0.47349,1.22407 0,0.74315 0.38049,1.16939 0.38897,0.4153 1.07386,0.4153 0.85399,0 1.43742,-0.7869 0.58342,-0.79779 0.58342,-1.98909 l 0,-0.4481 -1.57271,0 z m 4.62514,-1.47541 0,6.98368 -3.05243,0 0,-1.81422 q -0.60879,1.11476 -1.36978,1.62843 -0.761,0.50274 -1.85175,0.50274 -1.47124,0 -2.3929,-1.10384 -0.91319,-1.11478 -0.91319,-2.88529 0,-2.15304 1.1415,-3.15852 1.14994,-1.00545 3.60201,-1.00545 l 1.78411,0 0,-0.30602 q 0,-0.92897 -0.56652,-1.3552 -0.5665,-0.43717 -1.76719,-0.43717 -0.97237,0 -1.80946,0.25137 -0.83709,0.25137 -1.55581,0.75409 l 0,-2.98362 q 0.97237,-0.30601 1.95322,-0.45902 0.98084,-0.16394 1.96165,-0.16394 2.56203,0 3.69505,1.31149 1.14149,1.30056 1.14149,4.24049 z" />
    <path
       inkscape:connector-curvature="0"
       id="path3584"
       style="font-style:normal;font-variant:normal;font-weight:bold;font-stretch:normal;font-size:medium;line-height:125%;font-family:sans-serif;-inkscape-font-specification:'sans-serif Bold';letter-spacing:0px;word-spacing:0px;fill:none;fill-opacity:1;stroke:#ff0000;stroke-width:1px;stroke-linecap:butt;stroke-linejoin:miter;stroke-opacity:1"
       d="m 183.35734,145.85294 0,2.97271 q -0.97238,-0.52459 -1.87709,-0.78688 -0.90476,-0.26231 -1.70802,-0.26231 -0.86246,0 -1.28522,0.28416 -0.41431,0.27323 -0.41431,0.85248 0,0.46993 0.31283,0.72129 0.32132,0.25138 1.14149,0.3716 l 0.53271,0.0985 q 2.32523,0.38252 3.12852,1.25684 0.80327,0.87432 0.80327,2.7432 0,1.95632 -1.11613,2.93993 -1.11612,0.98362 -3.33145,0.98362 -0.93856,0 -1.94476,-0.19673 -0.99775,-0.1858 -2.05468,-0.56832 l 0,-2.97271 q 0.90473,0.56832 1.85175,0.85247 0.95547,0.28417 1.9363,0.28417 0.88782,0 1.33597,-0.31695 0.44814,-0.31693 0.44814,-0.93991 0,-0.52458 -0.31287,-0.77596 -0.30439,-0.26229 -1.22603,-0.40438 l -0.53269,-0.0875 q -2.02086,-0.32788 -2.83259,-1.21314 -0.81171,-0.88524 -0.81171,-2.68856 0,-1.94537 1.03156,-2.88526 1.03157,-0.93991 3.16233,-0.93991 0.8371,0 1.75873,0.16394 0.92165,0.16393 2.00395,0.51366 z" />
    <path
       inkscape:connector-curvature="0"
       id="path4395"
       style="font-style:normal;font-variant:normal;font-weight:bold;font-stretch:normal;font-size:medium;line-height:125%;font-family:sans-serif;-inkscape-font-specification:'sans-serif Bold';letter-spacing:0px;word-spacing:0px;fill:none;fill-opacity:1;stroke:#ff0000;stroke-width:0.99999994px;stroke-linecap:butt;stroke-linejoin:miter;stroke-opacity:1"
       d="m 109.86936,165.72914 q -2.07049,0 -3.21161,1.93939 -1.14112,1.93936 -1.14112,5.46009 0,3.50581 1.14112,5.4452 1.14112,1.93938 3.21161,1.93938 2.08226,0 3.22338,-1.93938 1.14112,-1.93939 1.14112,-5.4452 0,-3.52073 -1.14112,-5.46009 -1.14112,-1.93939 -3.22338,-1.93939 z m 0,-4.1622 q 4.2351,0 6.63498,3.07316 2.39989,3.07317 2.39989,8.48852 0,5.40043 -2.39989,8.47362 -2.39988,3.07317 -6.63498,3.07317 -4.22333,0 -6.63498,-3.07317 -2.39988,-3.07319 -2.39988,-8.47362 0,-5.41535 2.39988,-8.48852 2.41165,-3.07316 6.63498,-3.07316 z" />
    <path
       inkscape:connector-curvature="0"
       id="path4397"
       style="font-style:normal;font-variant:normal;font-weight:bold;font-stretch:normal;font-size:medium;line-height:125%;font-family:sans-serif;-inkscape-font-specification:'sans-serif Bold';letter-spacing:0px;word-spacing:0px;fill:none;fill-opacity:1;stroke:#ff0000;stroke-width:0.99999994px;stroke-linecap:butt;stroke-linejoin:miter;stroke-opacity:1"
       d="m 126.33917,181.82601 0,8.77197 -4.21156,0 0,-23.06373 4.21156,0 0,2.44662 q 0.87055,-1.46201 1.92932,-2.14824 1.05878,-0.70116 2.43518,-0.70116 2.43518,0 3.99981,2.46151 1.56463,2.44662 1.56463,6.31046 0,3.86384 -1.56463,6.32537 -1.56463,2.4466 -3.99981,2.4466 -1.3764,0 -2.43518,-0.68624 -1.05877,-0.70117 -1.92932,-2.16316 z m 2.79987,-10.81578 q -1.35288,0 -2.08226,1.26805 -0.71761,1.25314 -0.71761,3.62516 0,2.37201 0.71761,3.64007 0.72938,1.25314 2.08226,1.25314 1.35287,0 2.05872,-1.25314 0.71762,-1.25315 0.71762,-3.64007 0,-2.38693 -0.71762,-3.64009 -0.70585,-1.25312 -2.05872,-1.25312 z" />
    <path
       inkscape:connector-curvature="0"
       id="path4399"
       style="font-style:normal;font-variant:normal;font-weight:bold;font-stretch:normal;font-size:medium;line-height:125%;font-family:sans-serif;-inkscape-font-specification:'sans-serif Bold';letter-spacing:0px;word-spacing:0px;fill:none;fill-opacity:1;stroke:#ff0000;stroke-width:0.99999994px;stroke-linecap:butt;stroke-linejoin:miter;stroke-opacity:1"
       d="m 145.66766,170.95055 q -1.39993,0 -2.14106,1.28299 -0.72939,1.26805 -0.72939,3.6699 0,2.40184 0.72939,3.68484 0.74113,1.26804 2.14106,1.26804 1.37642,0 2.10579,-1.26804 0.72938,-1.283 0.72938,-3.68484 0,-2.40185 -0.72938,-3.6699 -0.72937,-1.28299 -2.10579,-1.28299 z m 0,-3.81908 q 3.39985,0 5.30564,2.32725 1.91755,2.32726 1.91755,6.44472 0,4.11745 -1.91755,6.44472 -1.90579,2.32725 -5.30564,2.32725 -3.41159,0 -5.34092,-2.32725 -1.91755,-2.32727 -1.91755,-6.44472 0,-4.11746 1.91755,-6.44472 1.92933,-2.32725 5.34092,-2.32725 z" />
    <path
       inkscape:connector-curvature="0"
       id="path4401"
       style="font-style:normal;font-variant:normal;font-weight:bold;font-stretch:normal;font-size:medium;line-height:125%;font-family:sans-serif;-inkscape-font-specification:'sans-serif Bold';letter-spacing:0px;word-spacing:0px;fill:none;fill-opacity:1;stroke:#ff0000;stroke-width:0.99999994px;stroke-linecap:butt;stroke-linejoin:miter;stroke-opacity:1"
       d="m 165.74907,172.08435 q -0.55291,-0.32821 -1.10582,-0.47739 -0.54116,-0.16411 -1.09408,-0.16411 -1.62345,0 -2.50577,1.32773 -0.87052,1.31282 -0.87052,3.77435 l 0,7.69785 -4.21158,0 0,-16.70853 4.21158,0 0,2.74498 q 0.81171,-1.64102 1.85873,-2.38691 1.05876,-0.76085 2.52928,-0.76085 0.21176,0 0.45881,0.0299 0.24704,0.0149 0.7176,0.0894 l 0.0116,4.83354 z" />
    <path
       inkscape:connector-curvature="0"
       id="path4403"
       style="font-style:normal;font-variant:normal;font-weight:bold;font-stretch:normal;font-size:medium;line-height:125%;font-family:sans-serif;-inkscape-font-specification:'sans-serif Bold';letter-spacing:0px;word-spacing:0px;fill:none;fill-opacity:1;stroke:#ff0000;stroke-width:0.99999994px;stroke-linecap:butt;stroke-linejoin:miter;stroke-opacity:1"
       d="m 172.4664,162.79023 0,4.74402 4.34096,0 0,3.8191 -4.34096,0 0,7.0862 q 0,1.16364 0.36468,1.58134 0.3647,0.40279 1.44698,0.40279 l 2.16462,0 0,3.8191 -3.6116,0 q -2.49398,0 -3.541,-1.31281 -1.03525,-1.32773 -1.03525,-4.49042 l 0,-7.0862 -2.09402,0 0,-3.8191 2.09402,0 0,-4.74402 4.21157,0 z" />
    <path
       inkscape:connector-curvature="0"
       id="path4405"
       style="font-style:normal;font-variant:normal;font-weight:bold;font-stretch:normal;font-size:medium;line-height:125%;font-family:sans-serif;-inkscape-font-specification:'sans-serif Bold';letter-spacing:0px;word-spacing:0px;fill:none;fill-opacity:1;stroke:#ff0000;stroke-width:0.99999994px;stroke-linecap:butt;stroke-linejoin:miter;stroke-opacity:1"
       d="m 179.25431,177.7384 0,-10.20415 4.23511,0 0,1.67087 q 0,1.35755 -0.0115,3.41628 -0.0115,2.04381 -0.0115,2.73006 0,2.01397 0.0823,2.90908 0.0823,0.88016 0.28234,1.28297 0.25882,0.52214 0.67056,0.80558 0.42352,0.28346 0.96466,0.28346 1.31759,0 2.0705,-1.28297 0.75288,-1.28301 0.75288,-3.56549 l 0,-8.24984 4.21158,0 0,16.70853 -4.21158,0 0,-2.41677 q -0.95288,1.46199 -2.02342,2.16316 -1.05877,0.68624 -2.34105,0.68624 -2.28224,0 -3.4822,-1.77529 -1.18819,-1.77528 -1.18819,-5.16172 z" />
    <path
       inkscape:connector-curvature="0"
       id="path4407"
       style="font-style:normal;font-variant:normal;font-weight:bold;font-stretch:normal;font-size:medium;line-height:125%;font-family:sans-serif;-inkscape-font-specification:'sans-serif Bold';letter-spacing:0px;word-spacing:0px;fill:none;fill-opacity:1;stroke:#ff0000;stroke-width:0.99999994px;stroke-linecap:butt;stroke-linejoin:miter;stroke-opacity:1"
       d="m 209.81757,174.06848 0,10.1743 -4.23509,0 0,-1.65594 0,-6.13142 q 0,-2.16317 -0.0823,-2.98368 -0.0706,-0.82051 -0.2588,-1.20839 -0.24703,-0.52212 -0.67057,-0.80558 -0.4235,-0.29837 -0.96465,-0.29837 -1.31759,0 -2.07048,1.2979 -0.75292,1.28297 -0.75292,3.56548 l 0,8.22 -4.21156,0 0,-16.70853 4.21156,0 0,2.44662 q 0.95291,-1.46201 2.02344,-2.14824 1.07053,-0.70116 2.3646,-0.70116 2.28225,0 3.45865,1.77528 1.18818,1.77527 1.18818,5.16173 z" />
    <path
       inkscape:connector-curvature="0"
       id="path4409"
       style="font-style:normal;font-variant:normal;font-weight:bold;font-stretch:normal;font-size:medium;line-height:125%;font-family:sans-serif;-inkscape-font-specification:'sans-serif Bold';letter-spacing:0px;word-spacing:0px;fill:none;fill-opacity:1;stroke:#ff0000;stroke-width:0.99999994px;stroke-linecap:butt;stroke-linejoin:miter;stroke-opacity:1"
       d="m 213.74681,167.53425 4.21155,0 0,16.70853 -4.21155,0 0,-16.70853 z m 0,-6.50439 4.21155,0 0,4.35615 -4.21155,0 0,-4.35615 z" />
    <path
       inkscape:connector-curvature="0"
       id="path4411"
       style="font-style:normal;font-variant:normal;font-weight:bold;font-stretch:normal;font-size:medium;line-height:125%;font-family:sans-serif;-inkscape-font-specification:'sans-serif Bold';letter-spacing:0px;word-spacing:0px;fill:none;fill-opacity:1;stroke:#ff0000;stroke-width:0.99999994px;stroke-linecap:butt;stroke-linejoin:miter;stroke-opacity:1"
       d="m 230.99303,169.98087 0,-8.95101 4.2351,0 0,23.21292 -4.2351,0 0,-2.41677 q -0.87053,1.47691 -1.91756,2.16316 -1.047,0.68624 -2.42339,0.68624 -2.43519,0 -3.99981,-2.4466 -1.56463,-2.46153 -1.56463,-6.32537 0,-3.86384 1.56463,-6.31046 1.56462,-2.46151 3.99981,-2.46151 1.36463,0 2.41163,0.70116 1.05879,0.68623 1.92932,2.14824 z m -2.77634,10.81578 q 1.35289,0 2.05874,-1.25314 0.7176,-1.25315 0.7176,-3.64007 0,-2.38693 -0.7176,-3.64009 -0.70585,-1.25312 -2.05874,-1.25312 -1.34111,0 -2.05872,1.25312 -0.70585,1.25316 -0.70585,3.64009 0,2.38692 0.70585,3.64007 0.71761,1.25314 2.05872,1.25314 z" />
    <path
       inkscape:connector-curvature="0"
       id="path4413"
       style="font-style:normal;font-variant:normal;font-weight:bold;font-stretch:normal;font-size:medium;line-height:125%;font-family:sans-serif;-inkscape-font-specification:'sans-serif Bold';letter-spacing:0px;word-spacing:0px;fill:none;fill-opacity:1;stroke:#ff0000;stroke-width:0.99999994px;stroke-linecap:butt;stroke-linejoin:miter;stroke-opacity:1"
       d="m 245.20412,176.72395 q -1.31759,0 -1.98813,0.56689 -0.65879,0.5669 -0.65879,1.67085 0,1.01443 0.52939,1.59627 0.54114,0.56688 1.49403,0.56688 1.18819,0 1.99992,-1.07411 0.81171,-1.08904 0.81171,-2.71515 l 0,-0.61163 -2.18813,0 z m 6.43499,-2.01398 0,9.53281 -4.24686,0 0,-2.47645 q -0.84701,1.52167 -1.90579,2.22284 -1.05876,0.68624 -2.57634,0.68624 -2.04695,0 -3.32924,-1.50675 -1.27056,-1.52167 -1.27056,-3.93844 0,-2.93891 1.58817,-4.31139 1.59994,-1.37248 5.01154,-1.37248 l 2.48222,0 0,-0.41773 q 0,-1.26805 -0.78818,-1.84987 -0.78821,-0.59673 -2.45871,-0.59673 -1.35288,0 -2.51752,0.34313 -1.16467,0.34312 -2.16463,1.02937 l 0,-4.07272 q 1.35289,-0.4177 2.71753,-0.62656 1.36466,-0.22377 2.72929,-0.22377 3.56452,0 5.14093,1.79019 1.58815,1.77528 1.58815,5.78831 z" />
    <path
       inkscape:connector-curvature="0"
       id="path4415"
       style="font-style:normal;font-variant:normal;font-weight:bold;font-stretch:normal;font-size:medium;line-height:125%;font-family:sans-serif;-inkscape-font-specification:'sans-serif Bold';letter-spacing:0px;word-spacing:0px;fill:none;fill-opacity:1;stroke:#ff0000;stroke-width:0.99999994px;stroke-linecap:butt;stroke-linejoin:miter;stroke-opacity:1"
       d="m 264.5444,169.98087 0,-8.95101 4.23508,0 0,23.21292 -4.23508,0 0,-2.41677 q -0.87055,1.47691 -1.91756,2.16316 -1.04701,0.68624 -2.42341,0.68624 -2.43518,0 -3.99981,-2.4466 -1.56463,-2.46153 -1.56463,-6.32537 0,-3.86384 1.56463,-6.31046 1.56463,-2.46151 3.99981,-2.46151 1.36463,0 2.41165,0.70116 1.05877,0.68623 1.92932,2.14824 z m -2.77634,10.81578 q 1.35289,0 2.05873,-1.25314 0.71761,-1.25315 0.71761,-3.64007 0,-2.38693 -0.71761,-3.64009 -0.70584,-1.25312 -2.05873,-1.25312 -1.34111,0 -2.05872,1.25312 -0.70585,1.25316 -0.70585,3.64009 0,2.38692 0.70585,3.64007 0.71761,1.25314 2.05872,1.25314 z" />
    <text
       xml:space="preserve"
       style="font-style:normal;font-weight:normal;font-size:12.56572056px;line-height:125%;font-family:sans-serif;letter-spacing:0px;word-spacing:0px;fill:#000000;fill-opacity:1;stroke:none;stroke-width:1px;stroke-linecap:butt;stroke-linejoin:miter;stroke-opacity:1"
       x="186.95192"
       y="158.62772"
       id="text3511"
       sodipodi:linespacing="125%"
       transform="scale(1.003238,0.99677245)"><tspan
         sodipodi:role="line"
         id="tspan3513"
         x="186.95192"
         y="158.62772"
         style="font-style:normal;font-variant:normal;font-weight:bold;font-stretch:normal;font-family:sans-serif;-inkscape-font-specification:'sans-serif Bold'">de segunda</tspan></text>
    <rect
       style="opacity:1;fill:none;fill-opacity:1;stroke:#ff0000;stroke-width:1;stroke-linecap:square;stroke-linejoin:miter;stroke-miterlimit:4;stroke-dasharray:none;stroke-dashoffset:0;stroke-opacity:1"
       id="rect4295"
       width="317.89764"
       height="211.59846"
       x="24.243664"
       y="3.3472562" />
    <text
       xml:space="preserve"
       style="font-style:normal;font-weight:normal;font-size:15.63087749px;line-height:125%;font-family:sans-serif;letter-spacing:0px;word-spacing:0px;fill:#000000;fill-opacity:1;stroke:none;stroke-width:1px;stroke-linecap:butt;stroke-linejoin:miter;stroke-opacity:1"
       x="226.80537"
       y="186.80383"
       id="text3511-4"
       sodipodi:linespacing="125%"
       transform="scale(0.92974969,1.0755583)"><tspan
         sodipodi:role="line"
         id="tspan3513-4"
         x="226.80537"
         y="186.80383"
         style="font-style:normal;font-variant:normal;font-weight:bold;font-stretch:normal;font-family:sans-serif;-inkscape-font-specification:'sans-serif Bold'">España</tspan></text>
  </g>
</svg>
