<?xml version="1.0" encoding="UTF-8" standalone="no"?>
<!-- Generator: Adobe Illustrator 17.1.0, SVG Export Plug-In . SVG Version: 6.00 Build 0)  -->

<svg
   xmlns:dc="http://purl.org/dc/elements/1.1/"
   xmlns:cc="http://creativecommons.org/ns#"
   xmlns:rdf="http://www.w3.org/1999/02/22-rdf-syntax-ns#"
   xmlns:svg="http://www.w3.org/2000/svg"
   xmlns="http://www.w3.org/2000/svg"
   xmlns:sodipodi="http://sodipodi.sourceforge.net/DTD/sodipodi-0.dtd"
   xmlns:inkscape="http://www.inkscape.org/namespaces/inkscape"
   version="1.1"
   id="Capa_1"
   x="0px"
   y="0px"
   viewBox="0 0 1620.0001 1079.9999"
   xml:space="preserve"
   inkscape:version="0.91 r13725"
   sodipodi:docname="Pie-izquierdo.svg"
   width="457.20001mm"
   height="304.79999mm"><metadata
     id="metadata39"><rdf:RDF><cc:Work
         rdf:about=""><dc:format>image/svg+xml</dc:format><dc:type
           rdf:resource="http://purl.org/dc/dcmitype/StillImage" /><dc:title></dc:title></cc:Work></rdf:RDF></metadata><defs
     id="defs37" /><sodipodi:namedview
     pagecolor="#ffffff"
     bordercolor="#666666"
     borderopacity="1"
     objecttolerance="10"
     gridtolerance="10"
     guidetolerance="10"
     inkscape:pageopacity="0"
     inkscape:pageshadow="2"
     inkscape:window-width="1855"
     inkscape:window-height="1056"
     id="namedview35"
     showgrid="false"
     inkscape:zoom="0.39361544"
     inkscape:cx="630.0021"
     inkscape:cy="360.05441"
     inkscape:window-x="65"
     inkscape:window-y="24"
     inkscape:window-maximized="1"
     inkscape:current-layer="Capa_1"
     units="mm" /><path
     d="m 413.28907,594.12824 c 15.67676,64.97145 16.87118,91.00402 5.54908,121.11332 -11.95249,31.7765 -48.78042,43.2272 -55.20043,45.0064 -3.75329,1.2898 -18.16513,5.7813 -36.45054,5.7813 -35.38053,0 -63.43281,-17.1117 -78.9893,-48.1873 -11.81563,-23.6064 -18.79552,-44.00694 -25.54731,-63.73975 C 212.17866,623.49106 201.35008,591.84308 171.24075,543.82989 159.86058,525.68134 150.52088,511.16582 142.28022,498.35899 114.09108,454.54286 101.22619,434.54048 79.718336,381.6874 59.973076,333.1475 36.412316,268.78571 36.312786,237.83033 c -0.0664,-20.13925 6.47806,-30.93879 11.97322,-36.45469 3.16853,-3.17268 6.84303,-5.49931 10.77467,-6.86377 0.15345,-11.45481 4.28415,-22.00967 14.56943,-29.4665 5.16338,-3.745 10.35164,-6.42 15.51917,-8.00842 -1.0783,-8.09965 -0.89582,-16.92924 2.18147,-24.97913 3.50031,-9.15307 10.177454,-16.01684 19.305644,-19.84479 4.45004,-1.86628 8.76737,-3.08558 12.88978,-3.64546 0.59721,-7.38633 2.4386,-14.84316 6.38682,-21.35856 5.21315,-8.60148 13.31696,-14.40769 23.43635,-16.78409 8.47706,-1.99484 16.69699,-2.01558 23.50684,-0.43546 1.80822,-7.34071 4.90625,-14.79754 10.024,-21.38344 6.31633,-8.13283 18.29785,-18.04901 39.48636,-19.11901 57.51878,-2.94043 68.19805,49.35691 72.19604,68.675 1.93679,9.36873 2.16074,18.89091 2.3847,28.09375 0.27372,11.45067 0.535,22.26266 4.08922,28.75317 1.84555,3.37175 4.55788,7.83008 7.69323,12.99346 11.49214,18.91165 28.86514,47.49063 35.7372,75.46825 4.31319,17.56378 0.10369,42.83736 -5.22143,74.83371 -6.1297,36.82379 -13.07227,78.55384 -6.45734,110.25158 5.96795,28.60387 20.82355,53.3632 36.54593,79.57408 15.79287,26.28967 32.10416,53.48347 39.95498,85.99823 z"
     id="path4169"
     inkscape:connector-curvature="0"
     style="fill:none;stroke:#ff0000" /><g
     id="g5"
     transform="translate(0,868.02011)" /><g
     id="g7"
     transform="translate(0,868.02011)" /><g
     id="g9"
     transform="translate(0,868.02011)" /><g
     id="g11"
     transform="translate(0,868.02011)" /><g
     id="g13"
     transform="translate(0,868.02011)" /><g
     id="g15"
     transform="translate(0,868.02011)" /><g
     id="g17"
     transform="translate(0,868.02011)" /><g
     id="g19"
     transform="translate(0,868.02011)" /><g
     id="g21"
     transform="translate(0,868.02011)" /><g
     id="g23"
     transform="translate(0,868.02011)" /><g
     id="g25"
     transform="translate(0,868.02011)" /><g
     id="g27"
     transform="translate(0,868.02011)" /><g
     id="g29"
     transform="translate(0,868.02011)" /><g
     id="g31"
     transform="translate(0,868.02011)" /><g
     id="g33"
     transform="translate(0,868.02011)" /></svg>