<?xml version="1.0" encoding="UTF-8" standalone="no"?>
<!-- Generator: Adobe Illustrator 17.1.0, SVG Export Plug-In . SVG Version: 6.00 Build 0)  -->

<svg
   xmlns:dc="http://purl.org/dc/elements/1.1/"
   xmlns:cc="http://creativecommons.org/ns#"
   xmlns:rdf="http://www.w3.org/1999/02/22-rdf-syntax-ns#"
   xmlns:svg="http://www.w3.org/2000/svg"
   xmlns="http://www.w3.org/2000/svg"
   xmlns:sodipodi="http://sodipodi.sourceforge.net/DTD/sodipodi-0.dtd"
   xmlns:inkscape="http://www.inkscape.org/namespaces/inkscape"
   version="1.1"
   id="Capa_1"
   x="0px"
   y="0px"
   viewBox="0 0 1620.0001 1079.9999"
   xml:space="preserve"
   inkscape:version="0.91 r13725"
   sodipodi:docname="pies-gnomo.svg"
   width="457.20001mm"
   height="304.79999mm"><metadata
     id="metadata39"><rdf:RDF><cc:Work
         rdf:about=""><dc:format>image/svg+xml</dc:format><dc:type
           rdf:resource="http://purl.org/dc/dcmitype/StillImage" /><dc:title></dc:title></cc:Work></rdf:RDF></metadata><defs
     id="defs37" /><sodipodi:namedview
     pagecolor="#ffffff"
     bordercolor="#666666"
     borderopacity="1"
     objecttolerance="10"
     gridtolerance="10"
     guidetolerance="10"
     inkscape:pageopacity="0"
     inkscape:pageshadow="2"
     inkscape:window-width="1215"
     inkscape:window-height="1000"
     id="namedview35"
     showgrid="false"
     inkscape:zoom="0.27832815"
     inkscape:cx="537.37444"
     inkscape:cy="341.87327"
     inkscape:window-x="65"
     inkscape:window-y="24"
     inkscape:window-maximized="1"
     inkscape:current-layer="Capa_1"
     units="mm" /><path
     d="m 168.65827,227.0218 c 5.20485,21.56983 5.60141,30.21237 1.84235,40.20834 -3.96835,10.54946 -16.19561,14.35097 -18.32712,14.94165 -1.24613,0.4282 -6.03101,1.91933 -12.10196,1.91933 -11.7467,0 -21.06035,-5.68091 -26.22527,-15.99768 -3.92291,-7.83707 -6.24031,-14.60984 -8.48197,-21.16092 -3.47678,-10.16258 -7.071982,-20.66937 -17.068594,-36.60924 -3.778335,-6.02513 -6.879213,-10.84413 -9.615198,-15.09586 C 69.32142,180.68093 65.050142,174.04035 57.90931,156.49368 51.353678,140.37895 43.53126,119.01151 43.498215,108.73466 c -0.02205,-6.68602 2.150783,-10.271358 3.975234,-12.102578 1.051985,-1.05329 2.271957,-1.82571 3.577302,-2.2787 0.05095,-3.80287 1.422383,-7.30697 4.837203,-9.78256 1.714296,-1.2433 3.436853,-2.13137 5.152526,-2.65871 -0.358006,-2.689 -0.297421,-5.62033 0.724271,-8.29281 1.16214,-3.03872 3.379021,-5.31742 6.409675,-6.58826 1.47746,-0.61959 2.910859,-1.02438 4.279542,-1.21025 0.19828,-2.45219 0.80964,-4.92778 2.120491,-7.09082 1.73082,-2.8556 4.421369,-4.7832 7.781112,-5.57214 2.814473,-0.66227 5.543575,-0.66915 7.804516,-0.14457 0.600348,-2.43704 1.628927,-4.91263 3.328073,-7.09908 2.097087,-2.70001 6.075077,-5.99208 13.10988,-6.3473 19.09684,-0.9762 22.64246,16.38597 23.96984,22.79937 0.64303,3.11032 0.71739,6.27158 0.79174,9.32683 0.0909,3.8015 0.17763,7.39097 1.35767,9.54575 0.61274,1.11938 1.51326,2.5995 2.55423,4.31369 3.81551,6.27847 9.58353,15.766378 11.86512,25.054658 1.43203,5.83099 0.0344,14.22155 -1.73357,24.844 -2.03512,12.22511 -4.34013,26.07904 -2.1439,36.60236 1.98142,9.49618 6.91364,17.71602 12.13363,26.41775 5.2434,8.72789 10.65892,17.75595 13.26547,28.55051 z"
     id="path4169"
     inkscape:connector-curvature="0"
     style="fill:none;stroke:#ff0000;stroke-width:1" /><path
     d="m 296.76641,100.24256 c -0.95835,-8.678328 -5.18006,-12.532148 -9.12776,-13.431238 -0.48055,-3.77396 -2.23891,-7.1032 -5.91259,-9.17812 -1.8396,-1.03953 -3.65441,-1.72796 -5.42241,-2.05703 0.051,-2.71378 -0.3401,-5.62033 -1.65784,-8.16063 -1.49811,-2.89002 -3.95871,-4.90299 -7.11329,-5.82273 -1.53942,-0.44885 -3.01413,-0.69118 -4.3897,-0.71871 -0.47367,-2.41501 -1.3618,-4.80386 -2.90811,-6.80443 -2.042,-2.64219 -4.93358,-4.25173 -8.3608,-4.65653 -2.94666,-0.34972 -5.62068,-0.0289 -7.7756,0.7256 -0.8179,-2.20297 -2.01309,-4.39768 -3.75355,-6.29361 -3.14769,-3.43113 -7.51811,-5.24445 -12.63621,-5.24445 -0.47367,0 -0.95836,0.0165 -1.45956,0.0468 -19.04451,1.19649 -20.63764,18.75416 -21.23798,25.36308 -0.28779,3.16263 -0.006,6.31288 0.26712,9.35987 0.33873,3.78498 0.65956,7.36205 -0.26988,9.63386 -0.48468,1.18135 -1.21033,2.75509 -2.05164,4.57668 -3.0816,6.66949 -7.73843,16.748078 -8.95565,26.234628 -0.75318,5.87092 1.29846,14.12379 3.89538,24.57138 2.99898,12.06678 6.39728,25.74034 5.39762,36.51837 -0.90603,9.77017 -4.54116,18.42785 -8.38834,27.59358 -3.81827,9.09965 -7.76872,18.50909 -9.12363,29.4193 -2.73324,22.02145 -2.15079,30.6557 2.71671,40.16016 5.13875,10.04278 17.73366,12.43164 19.90372,12.7731 0.94045,0.20517 3.92154,0.78067 7.86923,0.78067 13.94432,0 24.10616,-6.78377 28.61565,-19.10111 3.01275,-8.23224 4.54805,-15.22392 6.03515,-21.98704 2.305,-10.48889 4.68849,-21.33577 12.81934,-38.3014 3.07334,-6.41478 5.60967,-11.55596 7.84858,-16.09132 7.65581,-15.51167 11.14912,-22.59009 16.25758,-40.82931 4.69262,-16.75084 10.04894,-38.86591 8.91846,-49.07944 z"
     id="path3"
     inkscape:connector-curvature="0"
     style="fill:none;stroke:#ff0000;stroke-width:1" /><g
     id="g5"
     transform="translate(0,868.02011)" /><g
     id="g7"
     transform="translate(0,868.02011)" /><g
     id="g9"
     transform="translate(0,868.02011)" /><g
     id="g11"
     transform="translate(0,868.02011)" /><g
     id="g13"
     transform="translate(0,868.02011)" /><g
     id="g15"
     transform="translate(0,868.02011)" /><g
     id="g17"
     transform="translate(0,868.02011)" /><g
     id="g19"
     transform="translate(0,868.02011)" /><g
     id="g21"
     transform="translate(0,868.02011)" /><g
     id="g23"
     transform="translate(0,868.02011)" /><g
     id="g25"
     transform="translate(0,868.02011)" /><g
     id="g27"
     transform="translate(0,868.02011)" /><g
     id="g29"
     transform="translate(0,868.02011)" /><g
     id="g31"
     transform="translate(0,868.02011)" /><g
     id="g33"
     transform="translate(0,868.02011)" /></svg>