<?xml version="1.0" encoding="UTF-8" standalone="no"?>
<!-- Created with Inkscape (http://www.inkscape.org/) -->

<svg
   xmlns:dc="http://purl.org/dc/elements/1.1/"
   xmlns:cc="http://creativecommons.org/ns#"
   xmlns:rdf="http://www.w3.org/1999/02/22-rdf-syntax-ns#"
   xmlns:svg="http://www.w3.org/2000/svg"
   xmlns="http://www.w3.org/2000/svg"
   xmlns:sodipodi="http://sodipodi.sourceforge.net/DTD/sodipodi-0.dtd"
   xmlns:inkscape="http://www.inkscape.org/namespaces/inkscape"
   width="457.20001mm"
   height="304.79999mm"
   viewBox="0 0 1620 1080"
   id="svg2"
   version="1.1"
   inkscape:version="0.91 r13725"
   sodipodi:docname="circuito-test2.svg">
  <sodipodi:namedview
     id="base"
     pagecolor="#ffffff"
     bordercolor="#666666"
     borderopacity="1.0"
     inkscape:pageopacity="0.0"
     inkscape:pageshadow="2"
     inkscape:zoom="0.41002994"
     inkscape:cx="925.54295"
     inkscape:cy="274.63704"
     inkscape:document-units="px"
     inkscape:current-layer="layer2"
     showgrid="false"
     inkscape:window-width="1215"
     inkscape:window-height="1000"
     inkscape:window-x="65"
     inkscape:window-y="24"
     inkscape:window-maximized="1"
     showguides="true"
     inkscape:guide-bbox="true" />
  <defs
     id="defs4" />
  <metadata
     id="metadata7">
    <rdf:RDF>
      <cc:Work
         rdf:about="">
        <dc:format>image/svg+xml</dc:format>
        <dc:type
           rdf:resource="http://purl.org/dc/dcmitype/StillImage" />
        <dc:title></dc:title>
      </cc:Work>
    </rdf:RDF>
  </metadata>
  <g
     inkscape:groupmode="layer"
     id="layer2"
     inkscape:label="Layer 2"
     style="display:inline">
    <path
       style="opacity:1;fill:#ffffff;fill-opacity:1;stroke:#ff0000;stroke-width:0.05314961;stroke-linecap:square;stroke-linejoin:miter;stroke-miterlimit:4;stroke-dasharray:none;stroke-dashoffset:0;stroke-opacity:1"
       id="path4209"
       sodipodi:type="arc"
       sodipodi:cx="83.540855"
       sodipodi:cy="465.59167"
       sodipodi:rx="0.8595258"
       sodipodi:ry="0.8595258"
       sodipodi:start="0.030759508"
       sodipodi:end="0.024128479"
       sodipodi:open="true"
       d="m 84.399975,465.61811 a 0.8595258,0.8595258 0 0 1 -0.88413,0.83273 0.8595258,0.8595258 0 0 1 -0.834192,-0.88275 0.8595258,0.8595258 0 0 1 0.881364,-0.83566 0.8595258,0.8595258 0 0 1 0.837114,0.87998" />
    <path
       style="display:inline;opacity:1;fill:#ffffff;fill-opacity:1;stroke:#ff0000;stroke-width:0.35433072;stroke-linecap:square;stroke-linejoin:miter;stroke-miterlimit:4;stroke-dasharray:none;stroke-dashoffset:0;stroke-opacity:1"
       id="path4209-3"
       sodipodi:type="arc"
       sodipodi:cx="83.540855"
       sodipodi:cy="465.59167"
       sodipodi:rx="0.8595258"
       sodipodi:ry="0.8595258"
       sodipodi:start="0.030759508"
       sodipodi:end="0.024128479"
       sodipodi:open="true"
       d="m 84.399975,465.61811 a 0.8595258,0.8595258 0 0 1 -0.88413,0.83273 0.8595258,0.8595258 0 0 1 -0.834192,-0.88275 0.8595258,0.8595258 0 0 1 0.881364,-0.83566 0.8595258,0.8595258 0 0 1 0.837114,0.87998" />
    <path
       style="display:inline;opacity:1;fill:#ffffff;fill-opacity:1;stroke:#ff0000;stroke-width:0.05314961;stroke-linecap:square;stroke-linejoin:miter;stroke-miterlimit:4;stroke-dasharray:none;stroke-dashoffset:0;stroke-opacity:1"
       id="path4209-6"
       sodipodi:type="arc"
       sodipodi:cx="153.28816"
       sodipodi:cy="465.59167"
       sodipodi:rx="0.8595258"
       sodipodi:ry="0.8595258"
       sodipodi:start="0.030759508"
       sodipodi:end="0.024128479"
       sodipodi:open="true"
       d="m 154.14728,465.61811 a 0.8595258,0.8595258 0 0 1 -0.88413,0.83273 0.8595258,0.8595258 0 0 1 -0.83419,-0.88275 0.8595258,0.8595258 0 0 1 0.88136,-0.83566 0.8595258,0.8595258 0 0 1 0.83712,0.87998" />
    <path
       style="display:inline;opacity:1;fill:#ffffff;fill-opacity:1;stroke:#ff0000;stroke-width:0.35433072;stroke-linecap:square;stroke-linejoin:miter;stroke-miterlimit:4;stroke-dasharray:none;stroke-dashoffset:0;stroke-opacity:1"
       id="path4209-3-7"
       sodipodi:type="arc"
       sodipodi:cx="153.28816"
       sodipodi:cy="465.59167"
       sodipodi:rx="0.8595258"
       sodipodi:ry="0.8595258"
       sodipodi:start="0.030759508"
       sodipodi:end="0.024128479"
       sodipodi:open="true"
       d="m 154.14728,465.61811 a 0.8595258,0.8595258 0 0 1 -0.88413,0.83273 0.8595258,0.8595258 0 0 1 -0.83419,-0.88275 0.8595258,0.8595258 0 0 1 0.88136,-0.83566 0.8595258,0.8595258 0 0 1 0.83712,0.87998" />
    <path
       style="display:inline;opacity:1;fill:#ffffff;fill-opacity:1;stroke:#ff0000;stroke-width:0.35433072;stroke-linecap:square;stroke-linejoin:miter;stroke-miterlimit:4;stroke-dasharray:none;stroke-dashoffset:0;stroke-opacity:1"
       id="path4209-3-3"
       sodipodi:type="arc"
       sodipodi:cx="119.78847"
       sodipodi:cy="486.7724"
       sodipodi:rx="0.8595258"
       sodipodi:ry="0.8595258"
       sodipodi:start="0.030759508"
       sodipodi:end="0.024128479"
       sodipodi:open="true"
       d="m 120.64759,486.79883 a 0.8595258,0.8595258 0 0 1 -0.88413,0.83273 0.8595258,0.8595258 0 0 1 -0.83419,-0.88275 0.8595258,0.8595258 0 0 1 0.88136,-0.83565 0.8595258,0.8595258 0 0 1 0.83711,0.87998" />
    <path
       style="display:inline;opacity:1;fill:#ffffff;fill-opacity:1;stroke:#ff0000;stroke-width:0.35433072;stroke-linecap:square;stroke-linejoin:miter;stroke-miterlimit:4;stroke-dasharray:none;stroke-dashoffset:0;stroke-opacity:1"
       id="path4209-3-3-6"
       sodipodi:type="arc"
       sodipodi:cx="119.81868"
       sodipodi:cy="522.70325"
       sodipodi:rx="0.8595258"
       sodipodi:ry="0.8595258"
       sodipodi:start="0.030759508"
       sodipodi:end="0.024128479"
       sodipodi:open="true"
       d="m 120.6778,522.72968 a 0.8595258,0.8595258 0 0 1 -0.88413,0.83273 0.8595258,0.8595258 0 0 1 -0.83419,-0.88275 0.8595258,0.8595258 0 0 1 0.88136,-0.83565 0.8595258,0.8595258 0 0 1 0.83712,0.87997" />
    <path
       style="display:inline;opacity:1;fill:#ffffff;fill-opacity:1;stroke:#ff0000;stroke-width:0.35433072;stroke-linecap:square;stroke-linejoin:miter;stroke-miterlimit:4;stroke-dasharray:none;stroke-dashoffset:0;stroke-opacity:1"
       id="path4209-3-3-2"
       sodipodi:type="arc"
       sodipodi:cx="-531.69263"
       sodipodi:cy="-203.89372"
       sodipodi:rx="0.8595258"
       sodipodi:ry="0.8595258"
       sodipodi:start="0.030759508"
       sodipodi:end="0.024128479"
       sodipodi:open="true"
       d="m -530.83351,-203.86729 a 0.8595258,0.8595258 0 0 1 -0.88413,0.83273 0.8595258,0.8595258 0 0 1 -0.83419,-0.88275 0.8595258,0.8595258 0 0 1 0.88136,-0.83565 0.8595258,0.8595258 0 0 1 0.83712,0.87997"
       transform="matrix(-0.54673506,-0.83730566,0.83730566,-0.54673506,0,0)" />
    <path
       style="display:inline;opacity:1;fill:#ffffff;fill-opacity:1;stroke:#ff0000;stroke-width:0.35433072;stroke-linecap:square;stroke-linejoin:miter;stroke-miterlimit:4;stroke-dasharray:none;stroke-dashoffset:0;stroke-opacity:1"
       id="path4209-3-3-6-9"
       sodipodi:type="arc"
       sodipodi:cx="-531.66241"
       sodipodi:cy="-167.96281"
       sodipodi:rx="0.8595258"
       sodipodi:ry="0.8595258"
       sodipodi:start="0.030759508"
       sodipodi:end="0.024128479"
       sodipodi:open="true"
       d="m -530.8033,-167.93638 a 0.8595258,0.8595258 0 0 1 -0.88412,0.83273 0.8595258,0.8595258 0 0 1 -0.8342,-0.88275 0.8595258,0.8595258 0 0 1 0.88137,-0.83565 0.8595258,0.8595258 0 0 1 0.83711,0.87997"
       transform="matrix(-0.54673506,-0.83730566,0.83730566,-0.54673506,0,0)" />
    <path
       style="display:inline;opacity:1;fill:#ffffff;fill-opacity:1;stroke:#ff0000;stroke-width:0.05314961;stroke-linecap:square;stroke-linejoin:miter;stroke-miterlimit:4;stroke-dasharray:none;stroke-dashoffset:0;stroke-opacity:1"
       id="path4209-2"
       sodipodi:type="arc"
       sodipodi:cx="90.492882"
       sodipodi:cy="465.59167"
       sodipodi:rx="0.8595258"
       sodipodi:ry="0.8595258"
       sodipodi:start="0.030759508"
       sodipodi:end="0.024128479"
       sodipodi:open="true"
       d="m 91.352001,465.61811 a 0.8595258,0.8595258 0 0 1 -0.884129,0.83273 0.8595258,0.8595258 0 0 1 -0.834192,-0.88275 0.8595258,0.8595258 0 0 1 0.881363,-0.83566 0.8595258,0.8595258 0 0 1 0.837114,0.87998" />
    <path
       style="display:inline;opacity:1;fill:#ffffff;fill-opacity:1;stroke:#ff0000;stroke-width:0.35433072;stroke-linecap:square;stroke-linejoin:miter;stroke-miterlimit:4;stroke-dasharray:none;stroke-dashoffset:0;stroke-opacity:1"
       id="path4209-3-70"
       sodipodi:type="arc"
       sodipodi:cx="90.492882"
       sodipodi:cy="465.59167"
       sodipodi:rx="0.8595258"
       sodipodi:ry="0.8595258"
       sodipodi:start="0.030759508"
       sodipodi:end="0.024128479"
       sodipodi:open="true"
       d="m 91.352001,465.61811 a 0.8595258,0.8595258 0 0 1 -0.884129,0.83273 0.8595258,0.8595258 0 0 1 -0.834192,-0.88275 0.8595258,0.8595258 0 0 1 0.881363,-0.83566 0.8595258,0.8595258 0 0 1 0.837114,0.87998" />
    <path
       style="display:inline;opacity:1;fill:#ffffff;fill-opacity:1;stroke:#ff0000;stroke-width:0.05314961;stroke-linecap:square;stroke-linejoin:miter;stroke-miterlimit:4;stroke-dasharray:none;stroke-dashoffset:0;stroke-opacity:1"
       id="path4209-2-9"
       sodipodi:type="arc"
       sodipodi:cx="160.30482"
       sodipodi:cy="465.59167"
       sodipodi:rx="0.8595258"
       sodipodi:ry="0.8595258"
       sodipodi:start="0.030759508"
       sodipodi:end="0.024128479"
       sodipodi:open="true"
       d="m 161.16394,465.61811 a 0.8595258,0.8595258 0 0 1 -0.88413,0.83273 0.8595258,0.8595258 0 0 1 -0.83419,-0.88275 0.8595258,0.8595258 0 0 1 0.88137,-0.83566 0.8595258,0.8595258 0 0 1 0.83711,0.87998" />
    <path
       style="display:inline;opacity:1;fill:#ffffff;fill-opacity:1;stroke:#ff0000;stroke-width:0.35433072;stroke-linecap:square;stroke-linejoin:miter;stroke-miterlimit:4;stroke-dasharray:none;stroke-dashoffset:0;stroke-opacity:1"
       id="path4209-3-70-3"
       sodipodi:type="arc"
       sodipodi:cx="160.30482"
       sodipodi:cy="465.59167"
       sodipodi:rx="0.8595258"
       sodipodi:ry="0.8595258"
       sodipodi:start="0.030759508"
       sodipodi:end="0.024128479"
       sodipodi:open="true"
       d="m 161.16394,465.61811 a 0.8595258,0.8595258 0 0 1 -0.88413,0.83273 0.8595258,0.8595258 0 0 1 -0.83419,-0.88275 0.8595258,0.8595258 0 0 1 0.88137,-0.83566 0.8595258,0.8595258 0 0 1 0.83711,0.87998" />
    <path
       style="display:inline;opacity:1;fill:#ffffff;fill-opacity:1;stroke:#ff0000;stroke-width:0.09077395;stroke-linecap:square;stroke-linejoin:miter;stroke-miterlimit:4;stroke-dasharray:none;stroke-dashoffset:0;stroke-opacity:1"
       id="path4209-2-9-0"
       sodipodi:type="arc"
       sodipodi:cx="95.250267"
       sodipodi:cy="313.02689"
       sodipodi:rx="1.4669007"
       sodipodi:ry="1.4690597"
       sodipodi:start="0.030759508"
       sodipodi:end="0.024128479"
       sodipodi:open="true"
       d="m 96.716474,313.07207 a 1.4669007,1.4690597 0 0 1 -1.50889,1.42325 1.4669007,1.4690597 0 0 1 -1.423665,-1.50875 1.4669007,1.4690597 0 0 1 1.50417,-1.42826 1.4669007,1.4690597 0 0 1 1.428652,1.50402" />
    <path
       style="display:inline;opacity:1;fill:#ffffff;fill-opacity:1;stroke:#ff0000;stroke-width:0.60515964;stroke-linecap:square;stroke-linejoin:miter;stroke-miterlimit:4;stroke-dasharray:none;stroke-dashoffset:0;stroke-opacity:1"
       id="path4209-3-70-3-6"
       sodipodi:type="arc"
       sodipodi:cx="95.250267"
       sodipodi:cy="313.02689"
       sodipodi:rx="1.4669007"
       sodipodi:ry="1.4690597"
       sodipodi:start="0.030759508"
       sodipodi:end="0.024128479"
       sodipodi:open="true"
       d="m 96.716474,313.07207 a 1.4669007,1.4690597 0 0 1 -1.50889,1.42325 1.4669007,1.4690597 0 0 1 -1.423665,-1.50875 1.4669007,1.4690597 0 0 1 1.50417,-1.42826 1.4669007,1.4690597 0 0 1 1.428652,1.50402" />
    <path
       style="display:inline;opacity:1;fill:none;fill-opacity:1;stroke:#ff0000;stroke-width:0.60515964;stroke-linecap:square;stroke-linejoin:miter;stroke-miterlimit:4;stroke-dasharray:none;stroke-dashoffset:0;stroke-opacity:1"
       id="path4209-3-70-3-6-6"
       sodipodi:type="arc"
       sodipodi:cx="140.67372"
       sodipodi:cy="312.87445"
       sodipodi:rx="1.4669007"
       sodipodi:ry="1.4690597"
       sodipodi:start="0.030759508"
       sodipodi:end="0.024128479"
       sodipodi:open="true"
       d="m 142.13993,312.91963 a 1.4669007,1.4690597 0 0 1 -1.50889,1.42326 1.4669007,1.4690597 0 0 1 -1.42367,-1.50875 1.4669007,1.4690597 0 0 1 1.50417,-1.42826 1.4669007,1.4690597 0 0 1 1.42866,1.50401" />
    <path
       style="display:inline;opacity:1;fill:none;fill-opacity:1;stroke:#ff0000;stroke-width:0.60515964;stroke-linecap:square;stroke-linejoin:miter;stroke-miterlimit:4;stroke-dasharray:none;stroke-dashoffset:0;stroke-opacity:1"
       id="path4209-3-70-3-6-8"
       sodipodi:type="arc"
       sodipodi:cx="95.250267"
       sodipodi:cy="329.94638"
       sodipodi:rx="1.4669007"
       sodipodi:ry="1.4690597"
       sodipodi:start="0.030759508"
       sodipodi:end="0.024128479"
       sodipodi:open="true"
       d="m 96.716474,329.99156 a 1.4669007,1.4690597 0 0 1 -1.50889,1.42326 1.4669007,1.4690597 0 0 1 -1.423665,-1.50875 1.4669007,1.4690597 0 0 1 1.50417,-1.42826 1.4669007,1.4690597 0 0 1 1.428652,1.50401" />
    <path
       style="display:inline;opacity:1;fill:none;fill-opacity:1;stroke:#ff0000;stroke-width:0.60515964;stroke-linecap:square;stroke-linejoin:miter;stroke-miterlimit:4;stroke-dasharray:none;stroke-dashoffset:0;stroke-opacity:1"
       id="path4209-3-70-3-6-6-9"
       sodipodi:type="arc"
       sodipodi:cx="140.82619"
       sodipodi:cy="330.25125"
       sodipodi:rx="1.4669007"
       sodipodi:ry="1.4690597"
       sodipodi:start="0.030759508"
       sodipodi:end="0.024128479"
       sodipodi:open="true"
       d="m 142.29239,330.29643 a 1.4669007,1.4690597 0 0 1 -1.50889,1.42326 1.4669007,1.4690597 0 0 1 -1.42366,-1.50875 1.4669007,1.4690597 0 0 1 1.50417,-1.42826 1.4669007,1.4690597 0 0 1 1.42865,1.50401" />
    <path
       style="display:inline;opacity:1;fill:#ffffff;fill-opacity:1;stroke:#ff0000;stroke-width:1.12890887;stroke-linecap:square;stroke-linejoin:miter;stroke-miterlimit:4;stroke-dasharray:none;stroke-dashoffset:0;stroke-opacity:1"
       id="path4209-3-70-3-6-2"
       sodipodi:type="arc"
       sodipodi:cx="120.83968"
       sodipodi:cy="92.797981"
       sodipodi:rx="8.2881126"
       sodipodi:ry="8.2937593"
       sodipodi:start="0.030759508"
       sodipodi:end="0.024128479"
       sodipodi:open="true"
       d="m 129.12388,93.053053 a 8.2881126,8.2937593 0 0 1 -8.52536,8.035177 8.2881126,8.2937593 0 0 1 -8.04383,-8.517834 8.2881126,8.2937593 0 0 1 8.49869,-8.063417 8.2881126,8.2937593 0 0 1 8.072,8.491099" />
    <rect
       style="opacity:1;fill:none;fill-opacity:1;stroke:#ff0000;stroke-width:0.57847995;stroke-linecap:square;stroke-linejoin:miter;stroke-miterlimit:4;stroke-dasharray:none;stroke-dashoffset:0;stroke-opacity:1"
       id="rect4485"
       width="2.9648271"
       height="13.594748"
       x="108.41653"
       y="158.11288" />
    <rect
       style="display:inline;opacity:1;fill:none;fill-opacity:1;stroke:#ff0000;stroke-width:0.57847995;stroke-linecap:square;stroke-linejoin:miter;stroke-miterlimit:4;stroke-dasharray:none;stroke-dashoffset:0;stroke-opacity:1"
       id="rect4485-9"
       width="2.9648271"
       height="13.594748"
       x="130.55104"
       y="158.11288" />
    <path
       inkscape:connector-curvature="0"
       d="m 46.401987,49.986771 18.602362,0 0,-14.173228 37.204731,0 0,14.173228 37.20472,0 0,-14.173228 37.20473,0 0,14.173228 18.60236,0 0,23.031496 14.17323,0 0,46.062993 -14.17323,0 0,46.06299 14.17323,0 0,46.06299 -14.17323,0 0,23.0315 -18.60236,0 0,14.17323 -37.20473,0 0,-14.17323 -37.20472,0 0,14.17323 -37.204731,0 0,-14.17323 -18.602362,0 0,-23.0315 -14.173228,0 0,-46.06299 14.173228,0 0,-46.06299 -14.173228,0 0,-46.062993 14.173228,0 0,-23.031496"
       id="boxv-lid"
       style="fill:none;stroke:#ff0000;stroke-width:1;stroke-linecap:butt;stroke-linejoin:miter;stroke-miterlimit:4;stroke-dasharray:none" />
    <path
       inkscape:connector-curvature="0"
       d="m 46.401987,248.41197 0,-14.17323 m 148.818903,0 0,14.17323 14.17323,0 0,18.60236 -14.17323,0 0,37.20472 14.17323,0 0,37.20473 -14.17323,0 0,37.20472 14.17323,0 0,18.60236 -14.17323,0 0,14.17323 -18.60236,0 0,-14.17323 -37.20473,0 0,14.17323 -37.20472,0 0,-14.17323 -37.20473,0 0,14.17323 -18.602363,0 0,-14.17323 -14.173228,0 0,-18.60236 14.173228,0 0,-37.20472 -14.173228,0 0,-37.20473 14.173228,0 0,-37.20472 -14.173228,0 0,-18.60236 14.173228,0"
       id="boxv-longside1"
       style="fill:none;stroke:#ff0000;stroke-width:1;stroke-linecap:butt;stroke-linejoin:miter;stroke-miterlimit:4;stroke-dasharray:none" />
    <path
       inkscape:connector-curvature="0"
       d="m 46.401987,411.40409 m 148.818903,0 0,23.0315 14.17323,0 0,46.06299 -14.17323,0 0,46.06299 14.17323,0 0,46.063 -14.17323,0 0,23.03149 -18.60236,0 0,14.17323 -37.20473,0 0,-14.17323 -37.20472,0 0,14.17323 -37.20473,0 0,-14.17323 -18.602363,0 0,-23.03149 -14.173228,0 0,-46.063 14.173228,0 0,-46.06299 -14.173228,0 0,-46.06299 14.173228,0 0,-23.0315"
       id="boxv-base"
       style="fill:none;stroke:#ff0000;stroke-width:1;stroke-linecap:butt;stroke-linejoin:miter;stroke-miterlimit:4;stroke-dasharray:none" />
    <path
       inkscape:connector-curvature="0"
       d="m 46.401987,609.82929 0,-14.17323 m 148.818903,0 0,14.17323 14.17323,0 0,18.60236 -14.17323,0 0,37.20473 14.17323,0 0,37.20472 -14.17323,0 0,37.20472 14.17323,0 0,18.60237 -14.17323,0 0,14.17323 -18.60236,0 0,-14.17323 -37.20473,0 0,14.17323 -37.20472,0 0,-14.17323 -37.20473,0 0,14.17323 -18.602363,0 0,-14.17323 -14.173228,0 0,-18.60237 14.173228,0 0,-37.20472 -14.173228,0 0,-37.20472 14.173228,0 0,-37.20473 -14.173228,0 0,-18.60236 14.173228,0"
       id="boxv-longside2"
       style="fill:none;stroke:#ff0000;stroke-width:1;stroke-linecap:butt;stroke-linejoin:miter;stroke-miterlimit:4;stroke-dasharray:none" />
    <path
       inkscape:connector-curvature="0"
       d="m 195.22089,49.986771 32.77559,0 0,-14.173228 37.20472,0 0,14.173228 37.20473,0 0,-14.173228 37.20472,0 0,14.173228 32.77559,0 0,23.031496 -14.17323,0 0,46.062993 14.17323,0 0,46.06299 -14.17323,0 0,46.06299 14.17323,0 0,23.0315 -32.77559,0 0,14.17323 -37.20472,0 0,-14.17323 -37.20473,0 0,14.17323 -37.20472,0 0,-14.17323 -18.60236,0 -14.17323,0"
       id="boxv-endface2"
       style="fill:none;stroke:#ff0000;stroke-width:1;stroke-linecap:butt;stroke-linejoin:miter;stroke-miterlimit:4;stroke-dasharray:none" />
    <path
       inkscape:connector-curvature="0"
       d="m 195.22089,411.40409 32.77559,0 0,-14.17323 37.20472,0 0,14.17323 37.20473,0 0,-14.17323 37.20472,0 0,14.17323 32.77559,0 0,23.0315 -14.17323,0 0,46.06299 14.17323,0 0,46.06299 -14.17323,0 0,46.063 14.17323,0 0,23.03149 -32.77559,0 0,14.17323 -37.20472,0 0,-14.17323 -37.20473,0 0,14.17323 -37.20472,0 0,-14.17323 -18.60236,0 -14.17323,0"
       id="boxv-endface1"
       style="fill:none;stroke:#ff0000;stroke-width:1;stroke-linecap:butt;stroke-linejoin:miter;stroke-miterlimit:4;stroke-dasharray:none" />
  </g>
  <g
     inkscape:groupmode="layer"
     id="layer1"
     inkscape:label="frame"
     style="display:inline" />
</svg>
