<?xml version="1.0" encoding="UTF-8" standalone="no"?>
<!-- Created with Inkscape (http://www.inkscape.org/) -->

<svg
   xmlns:dc="http://purl.org/dc/elements/1.1/"
   xmlns:cc="http://creativecommons.org/ns#"
   xmlns:rdf="http://www.w3.org/1999/02/22-rdf-syntax-ns#"
   xmlns:svg="http://www.w3.org/2000/svg"
   xmlns="http://www.w3.org/2000/svg"
   xmlns:sodipodi="http://sodipodi.sourceforge.net/DTD/sodipodi-0.dtd"
   xmlns:inkscape="http://www.inkscape.org/namespaces/inkscape"
   width="457.20001mm"
   height="308.39999mm"
   viewBox="0 0 1620.0001 1092.7559"
   id="svg2"
   version="1.1"
   inkscape:version="0.91 r13725"
   sodipodi:docname="soporte-base-frontal-1.svg">
  <defs
     id="defs4" />
  <sodipodi:namedview
     id="base"
     pagecolor="#ffffff"
     bordercolor="#666666"
     borderopacity="1.0"
     inkscape:pageopacity="0.0"
     inkscape:pageshadow="2"
     inkscape:zoom="0.7"
     inkscape:cx="539.29642"
     inkscape:cy="489.15975"
     inkscape:document-units="px"
     inkscape:current-layer="layer1"
     showgrid="false"
     inkscape:window-width="1855"
     inkscape:window-height="1056"
     inkscape:window-x="69"
     inkscape:window-y="1048"
     inkscape:window-maximized="1" />
  <metadata
     id="metadata7">
    <rdf:RDF>
      <cc:Work
         rdf:about="">
        <dc:format>image/svg+xml</dc:format>
        <dc:type
           rdf:resource="http://purl.org/dc/dcmitype/StillImage" />
        <dc:title></dc:title>
      </cc:Work>
    </rdf:RDF>
  </metadata>
  <g
     inkscape:label="Layer 1"
     inkscape:groupmode="layer"
     id="layer1"
     transform="translate(0,40.393575)">
    <path
       style="opacity:1;fill:none;fill-opacity:1;stroke:#ff0000;stroke-width:0.99999994;stroke-linecap:round;stroke-linejoin:round;stroke-miterlimit:4;stroke-dasharray:none;stroke-dashoffset:0;stroke-opacity:1"
       d="m 17.689866,-21.660943 0,717.308603 c 0,186.7127 150.314604,337.02734 337.027304,337.02734 l 813.13463,0 c 186.7129,0 337.0274,-150.31464 337.0274,-337.02734 l 0,-717.308603 -879.24993,0 191.8633,111.546804 -40.0156,68.828199 -214.4434,-8.377 163.9102,95.2949 -33.9668,58.4239 -238.9824,-138.9414 40.0176,-68.828199 214.4414,8.376999 -163.9102,-95.2949023 18.0391,-31.0293007 -544.892604,0 z M 466.38717,257.00116 c 25.725,-0.091 52.5097,7.9576 80.3515,24.1445 38.6298,22.4589 62.6073,50.962 71.9336,85.5117 9.3263,34.5497 2.8211,71.0329 -19.5137,109.4492 -22.2727,38.3096 -50.7598,62.012 -85.4609,71.1075 -34.639,8.9888 -71.2726,2.2537 -109.9023,-20.2051 -38.7365,-22.5209 -62.7675,-51.0558 -72.0938,-85.6055 -9.2643,-34.6564 -2.761,-71.1396 19.5117,-109.4492 22.3348,-38.4163 50.8219,-62.1186 85.461,-71.1074 9.7422,-2.5281 19.6465,-3.8101 29.7129,-3.8457 z m -16.6231,68.6972 c -2.569,0.021 -5.0977,0.1733 -7.584,0.459 -19.8905,2.2858 -35.3254,12.8737 -46.3066,31.7617 -10.9192,18.7814 -12.4523,37.3805 -4.5977,55.7969 7.8546,18.4164 24.3746,34.9443 49.5586,49.586 25.0773,14.5796 47.5606,20.7271 67.4512,18.4414 19.8905,-2.2858 35.2956,-12.8203 46.2148,-31.6016 10.9813,-18.888 12.5441,-37.5387 4.6895,-55.9551 -7.8546,-18.4164 -24.3211,-34.9145 -49.3985,-49.4941 -22.036,-12.8115 -42.0441,-19.1427 -60.0273,-18.9942 z m -174.0312,176.9746 49.4609,28.7559 c -14.4284,6.8892 -26.6813,14.8278 -36.7617,23.8164 -10.0805,8.9887 -18.6895,19.6188 -25.8242,31.8906 -12.7805,21.9827 -15.7867,43.3651 -9.0215,64.1465 6.7651,20.7815 22.526,38.3682 47.2832,52.7617 24.6504,14.3315 47.6791,19.2972 69.0859,14.8946 21.4068,-4.4026 38.5008,-17.5955 51.2813,-39.5782 7.1347,-12.2718 12.1134,-25.0113 14.9375,-38.2187 2.824,-13.2074 3.6594,-27.7852 2.5078,-43.7324 l 49.4609,28.7558 c -0.7072,14.7238 -3.1325,29.0906 -7.2793,43.0996 -4.1468,14.0091 -10.0984,27.6825 -17.8535,41.0215 -23.1413,39.8036 -52.5719,64.8855 -88.293,75.2442 -35.8277,10.2966 -72.7905,4.3693 -110.8867,-17.7793 -38.2029,-22.2107 -61.6394,-51.3987 -70.3105,-87.5664 -8.7779,-36.2298 -1.5964,-74.2472 21.5449,-114.0508 7.7551,-13.339 16.6937,-25.2758 26.8164,-35.8106 10.1226,-10.5347 21.406,-19.7511 33.8516,-27.6504 z"
       id="rect4136-3-5"
       inkscape:connector-curvature="0" />
  </g>
</svg>
