<?xml version="1.0" encoding="UTF-8" standalone="no"?>
<!-- Generator: Adobe Illustrator 16.0.0, SVG Export Plug-In . SVG Version: 6.00 Build 0)  -->

<svg
   xmlns:dc="http://purl.org/dc/elements/1.1/"
   xmlns:cc="http://creativecommons.org/ns#"
   xmlns:rdf="http://www.w3.org/1999/02/22-rdf-syntax-ns#"
   xmlns:svg="http://www.w3.org/2000/svg"
   xmlns="http://www.w3.org/2000/svg"
   xmlns:sodipodi="http://sodipodi.sourceforge.net/DTD/sodipodi-0.dtd"
   xmlns:inkscape="http://www.inkscape.org/namespaces/inkscape"
   version="1.1"
   id="Layer_1"
   x="0px"
   y="0px"
   width="457.20001mm"
   height="308.39999mm"
   viewBox="0 0 1620 1092.7558"
   enable-background="new 0 0 841.89 1190.55"
   xml:space="preserve"
   inkscape:version="0.91 r13725"
   sodipodi:docname="letras-grandes-3.svg"><metadata
     id="metadata37"><rdf:RDF><cc:Work
         rdf:about=""><dc:format>image/svg+xml</dc:format><dc:type
           rdf:resource="http://purl.org/dc/dcmitype/StillImage" /><dc:title></dc:title></cc:Work></rdf:RDF></metadata><defs
     id="defs35" /><sodipodi:namedview
     pagecolor="#ffffff"
     bordercolor="#666666"
     borderopacity="1"
     objecttolerance="10"
     gridtolerance="10"
     guidetolerance="10"
     inkscape:pageopacity="0"
     inkscape:pageshadow="2"
     inkscape:window-width="1215"
     inkscape:window-height="1000"
     id="namedview33"
     showgrid="false"
     units="mm"
     inkscape:zoom="0.1982277"
     inkscape:cx="700.19072"
     inkscape:cy="238.84407"
     inkscape:window-x="65"
     inkscape:window-y="24"
     inkscape:window-maximized="1"
     inkscape:current-layer="Layer_1" /><path
     style="fill:none;stroke:#ff0000"
     d="M 363.93555 41.230469 C 362.64545 41.184093 361.34479 41.33947 360.03125 41.695312 L 142.16211 100.89062 C 96.948771 113.17424 69.839905 137.28576 60.820312 173.25586 C 52.757926 205.8243 56.649591 251.27351 72.498047 309.60938 C 87.869398 366.18784 107.47184 407.21741 131.30664 432.68945 C 139.28248 441.06606 148.00024 447.63079 157.44727 452.41016 L 85.998047 452.66016 C 82.376047 452.67316 79.206141 454.04548 76.494141 456.77148 C 73.786141 459.50148 72.432266 462.67759 72.447266 466.30859 L 72.798828 566.95117 C 72.813828 570.87617 74.185016 574.20016 76.916016 576.91016 C 79.645016 579.62016 82.821313 580.97198 86.445312 580.95898 L 198.42578 580.57031 L 198.58008 624.54102 C 198.63408 640.86302 197.76008 650.23016 195.95508 652.66016 C 195.05508 654.17416 193.84675 655.61152 192.34375 656.97852 C 190.83475 658.34352 189.32822 659.63066 187.82422 660.84766 L 188.72656 660.39062 L 81.033203 718.79492 C 78.923203 720.00292 77.113328 721.75339 75.611328 724.02539 C 74.104328 726.29739 73.364094 728.63845 73.371094 731.06445 L 73.771484 846.21094 C 73.789484 850.81694 75.238266 854.38445 78.072266 856.93945 C 75.325266 859.60045 73.916281 863.30036 73.863281 868.06836 L 116.21289 868.06836 L 96.392578 856.89453 L 199.17578 795.45508 C 205.20078 790.89708 211.223 785.20958 217.25 778.39258 C 223.267 771.56858 228.8275 763.307 233.9375 753.625 C 236.6865 761.775 239.80555 769.2452 243.31055 776.0332 C 246.80555 782.8182 250.52852 788.77039 254.47852 793.90039 C 269.96452 814.70138 294.93667 825.04197 329.38867 824.91797 C 359.91367 824.81397 384.4993 812.03307 403.1543 786.58008 C 405.2033 783.75608 407.11792 780.81644 408.91992 777.77344 C 411.69092 813.87343 417.49817 843.96427 426.32617 868.07227 L 768.83008 868.07227 L 768.64844 815.50391 C 768.63044 810.97591 767.25444 807.15234 764.52344 804.02734 C 761.79244 800.90634 758.61333 799.34547 754.98633 799.35547 L 569.57227 800.00781 C 548.71527 800.07981 533.6603 794.55331 524.4043 783.44531 C 515.1413 772.33231 510.47072 754.24292 510.38672 729.16992 C 510.29272 702.70092 514.60494 683.79727 523.33594 672.44727 C 532.05994 661.09827 546.85408 655.38945 567.70508 655.31445 L 754.48242 654.66602 C 758.10942 654.65302 761.27828 653.07955 763.98828 649.93555 C 766.69328 646.78555 768.04539 642.94997 768.02539 638.41797 L 767.65234 531.33789 C 767.63534 526.81289 766.26125 522.98428 763.53125 519.86328 C 760.80225 516.73528 757.62214 515.18231 753.99414 515.19531 L 538.1543 515.94727 L 550.10156 515.26758 C 555.21856 514.85758 558.95459 512.28364 561.30859 507.55664 C 563.65859 502.82664 563.70803 497.75747 561.45703 492.35547 C 557.77503 484.26447 554.15956 475.02616 550.60156 464.66016 C 547.04556 454.28616 543.07789 442.63998 538.71289 429.70898 L 538.79688 430.75781 C 531.37486 406.19581 526.59794 380.54727 524.46094 353.82227 C 521.35394 314.93427 527.04416 283.73947 541.53516 260.23047 C 548.53316 249.18747 557.29975 240.36381 567.84375 233.75781 C 578.37975 227.14381 590.58041 223.29055 604.44141 222.18555 L 604.48242 222.70508 C 636.11842 220.17608 661.38792 229.06944 680.29492 249.39844 C 699.19892 269.71544 710.20741 299.31513 713.31641 338.20312 C 714.25841 349.99512 714.44119 361.77639 713.86719 373.52539 C 713.28619 385.27439 712.11466 397.15778 710.34766 409.17578 C 706.84166 433.56578 703.2835 453.58305 699.6875 469.24805 C 698.3255 474.94105 699.24752 479.93456 702.47852 484.22656 C 705.69852 488.50056 709.99528 490.07908 715.36328 488.95508 L 777.33789 478.58984 L 777.57617 546.97656 C 777.58917 550.90156 778.96336 554.2235 781.69336 556.9375 C 784.42236 559.6475 787.59866 560.99636 791.22266 560.98438 L 1005.1172 560.23633 C 1005.0986 561.53529 1005.2724 562.87398 1005.6484 564.25195 L 1030.25 654.80859 L 786.56836 721.01758 C 783.07121 721.9681 780.36329 724.11276 778.45117 727.44727 C 776.54138 730.79048 776.05945 734.21064 777.00977 737.71094 L 803.03906 833.51562 C 804.06826 837.30642 806.23513 840.089 809.5332 841.85352 C 812.82927 843.61444 816.23162 844.02961 819.72852 843.07812 L 1063.4121 776.87109 L 1080.5684 840.00586 L 1166.834 816.89258 L 1097.0156 559.91602 L 1119.4512 559.83789 C 1123.0762 559.82389 1126.2431 558.45256 1128.9531 555.72656 C 1131.6641 552.99456 1133.013 549.66033 1132.998 545.73633 L 1132.6895 457.33398 C 1132.6775 453.40598 1131.3092 450.08905 1128.5742 447.37305 C 1125.8452 444.66205 1122.665 443.31708 1119.041 443.33008 L 952.20898 443.91211 C 964.26398 435.09611 976.09803 426.44341 987.70703 417.94141 C 999.30603 409.43941 1010.8388 400.78737 1022.2988 391.98438 C 1039.4778 378.92937 1056.5861 366.09105 1073.6191 353.49805 C 1090.6481 340.89505 1108.2079 327.91078 1126.2969 314.55078 C 1127.8039 313.94078 1129.1603 312.34734 1130.3633 309.77734 C 1131.5553 307.19934 1132.1564 305.00731 1132.1504 303.19531 L 1131.8008 202.55273 C 1131.7878 198.92973 1130.4185 195.76078 1127.6875 193.05078 C 1124.9565 190.33778 1121.7783 188.98795 1118.1543 189.00195 L 1081.2754 189.13281 L 1159.9043 164.64453 C 1160.8283 164.35753 1161.0977 163.19897 1160.7188 161.16797 C 1160.3397 159.13697 1159.363 156.78795 1157.791 154.12695 L 1117.916 86.605469 C 1116.341 83.938469 1114.6752 81.811937 1112.9102 80.210938 C 1111.1472 78.611936 1109.8029 77.955141 1108.8789 78.244141 L 1046.877 97.554688 L 1046.8438 87.707031 C 1046.8317 84.375031 1045.7851 81.592125 1043.7031 79.328125 C 1041.6231 77.072125 1039.1995 75.943125 1036.4375 75.953125 L 786.29883 76.830078 C 783.53683 76.840078 781.12064 77.980953 779.05664 80.251953 C 776.99364 82.530953 775.96556 85.322344 775.97656 88.652344 L 776.27148 172.97461 C 776.28548 176.29861 777.32916 179.08956 779.41016 181.35156 C 781.49116 183.60956 783.91378 184.73952 786.67578 184.72852 L 1036.8145 183.85156 C 1039.5755 183.84156 1041.9916 182.70183 1044.0566 180.42383 C 1046.1226 178.15383 1047.1467 175.3513 1047.1367 172.0293 L 1047.0547 148.04102 L 1067.293 182.31055 C 1068.864 184.97155 1070.5329 187.10508 1072.2969 188.70508 C 1072.4779 188.86908 1072.6512 189.01616 1072.8242 189.16016 L 789.92969 190.14844 C 786.30569 190.16144 783.13578 191.53172 780.42578 194.26172 C 778.58478 196.11472 777.38773 198.18122 776.80273 200.44922 C 766.29473 172.76622 752.65223 149.59856 735.86523 130.97656 C 718.22723 111.42556 697.23395 97.205172 672.87695 88.326172 C 648.51795 79.443172 620.97514 76.2335 590.24414 78.6875 C 532.99914 83.2615 490.82923 109.51227 463.74023 157.44727 C 444.63069 190.27171 433.95028 231.03643 431.68945 279.74414 C 429.39363 279.07488 427.06189 279.0468 424.69336 279.69336 L 245.75977 328.30078 C 225.63364 333.77431 209.85631 333.04708 198.42578 326.13086 C 186.9857 319.20994 178.42378 305.25654 172.72266 284.26172 C 166.6976 262.09273 166.62198 245.11626 172.51172 233.34375 C 178.39288 221.56628 191.3967 212.94352 211.52148 207.47656 L 391.76758 158.50781 C 395.26563 157.55291 397.97143 155.40803 399.88477 152.07422 C 401.79411 148.7332 402.23908 145.16727 401.20898 141.38086 L 376.84375 51.691406 C 375.80772 47.898304 373.62673 45.05098 370.28906 43.138672 C 368.20334 41.944687 366.08571 41.307761 363.93555 41.230469 z M 954.45117 305.62891 L 798.59766 422.13672 C 799.37866 414.23872 800.04203 405.94695 800.58203 397.25195 C 802.24003 370.56795 801.72225 340.38475 799.03125 306.71875 C 799.01625 306.53575 798.99937 306.35778 798.98438 306.17578 L 954.45117 305.62891 z M 439.93164 400.98438 C 441.64601 411.88123 443.57119 422.45558 445.71875 432.68945 C 451.59875 460.69045 459.26003 486.37456 468.70703 509.72656 C 469.83203 512.42256 471.75933 514.71661 474.48633 516.59961 C 477.21033 518.47461 479.77736 519.32091 482.19336 519.12891 L 504.49414 517.86133 C 470.25614 523.44933 445.74203 541.55289 430.95703 572.21289 C 430.03203 574.14389 429.13858 576.1405 428.26758 578.1875 L 427.87109 465.06836 C 427.85509 461.43736 426.48886 458.27055 423.75586 455.56055 C 421.02686 452.85055 417.85056 451.50164 414.22656 451.51562 L 251.85742 452.08203 L 439.93164 400.98438 z M 347.11328 577.32812 L 347.36133 648.05078 C 347.42033 664.66978 344.89111 677.36925 339.78711 686.15625 C 334.67511 694.93525 326.53052 699.35367 315.35352 699.38867 C 302.05152 699.43567 292.81177 693.72172 287.63477 682.26172 C 282.45277 670.78772 279.83191 654.02189 279.75391 631.96289 L 279.56641 577.5625 L 347.11328 577.32812 z "
     id="path5" /><polygon
     style="fill:none"
     id="polygon17"
     points="-1126.264,860.664 -1180.119,916.918 -1109.67,935.616 "
     transform="translate(1869.1835,-97.794226)" /><line
     x1="1181.0856"
     y1="868.07196"
     x2="-129.75153"
     y2="868.07196"
     id="line31"
     style="fill:none" /></svg>