<?xml version="1.0" encoding="UTF-8" standalone="no"?>
<!-- Generator: Adobe Illustrator 16.0.0, SVG Export Plug-In . SVG Version: 6.00 Build 0)  -->

<svg
   xmlns:dc="http://purl.org/dc/elements/1.1/"
   xmlns:cc="http://creativecommons.org/ns#"
   xmlns:rdf="http://www.w3.org/1999/02/22-rdf-syntax-ns#"
   xmlns:svg="http://www.w3.org/2000/svg"
   xmlns="http://www.w3.org/2000/svg"
   xmlns:sodipodi="http://sodipodi.sourceforge.net/DTD/sodipodi-0.dtd"
   xmlns:inkscape="http://www.inkscape.org/namespaces/inkscape"
   version="1.1"
   id="Layer_1"
   x="0px"
   y="0px"
   width="457.20001mm"
   height="308.39999mm"
   viewBox="0 0 1620 1092.7558"
   enable-background="new 0 0 841.89 1190.55"
   xml:space="preserve"
   inkscape:version="0.91 r13725"
   sodipodi:docname="letras-grandes-1.svg"><metadata
     id="metadata37"><rdf:RDF><cc:Work
         rdf:about=""><dc:format>image/svg+xml</dc:format><dc:type
           rdf:resource="http://purl.org/dc/dcmitype/StillImage" /><dc:title></dc:title></cc:Work></rdf:RDF></metadata><defs
     id="defs35" /><sodipodi:namedview
     pagecolor="#ffffff"
     bordercolor="#666666"
     borderopacity="1"
     objecttolerance="10"
     gridtolerance="10"
     guidetolerance="10"
     inkscape:pageopacity="0"
     inkscape:pageshadow="2"
     inkscape:window-width="1215"
     inkscape:window-height="1000"
     id="namedview33"
     showgrid="false"
     units="mm"
     inkscape:zoom="0.2803363"
     inkscape:cx="878.07027"
     inkscape:cy="469.50012"
     inkscape:window-x="65"
     inkscape:window-y="24"
     inkscape:window-maximized="1"
     inkscape:current-layer="Layer_1" /><path
     style="fill:none;stroke:#ff0000"
     inkscape:connector-curvature="0"
     id="path15"
     d="m 670.34906,288.59068 c -25.599,-6.794 -46.642,-6.041 -63.125,2.265 -16.487,8.303 -27.838,24.167 -34.054,47.583 -6.217,23.422 -4.225,42.819 5.975,58.207 10.195,15.385 28.095,26.476 53.693,33.271 25.592,6.793 46.706,6.057 63.329,-2.209 16.624,-8.268 28.041,-24.106 34.258,-47.528 6.215,-23.417 4.157,-42.839 -6.178,-58.262 -10.335,-15.426 -28.306,-26.535 -53.898,-33.327 z" /><polygon
     style="fill:none"
     id="polygon17"
     points="-1109.67,935.616 -1126.264,860.664 -1180.119,916.918 "
     transform="translate(-171.22293,893.87184)" /><path
     style="fill:none;stroke:#ff0000"
     d="M 315.69531 95.242188 C 284.42273 95.315628 256.53837 99.255741 232.04688 107.06055 C 207.55474 114.87071 186.87538 126.25787 170.00781 141.22656 C 153.13793 156.20208 140.35754 174.68031 131.67969 196.67578 C 122.99554 218.67087 118.69187 244.03684 118.75977 272.77344 C 118.88576 326.30384 137.4316 367.39145 174.41016 396.04297 C 209.69226 424.13552 258.46209 438.1048 320.72852 437.95703 C 347.49118 437.89423 372.34647 436.14601 395.30469 432.71094 C 418.25563 429.27575 439.44236 424.01588 458.86719 416.92578 C 459.19563 416.8015 459.51747 416.65524 459.83398 416.49805 C 463.65054 426.90409 468.75352 436.66671 475.1582 445.7793 C 500.3322 481.6113 544.50955 507.90678 607.68555 524.67578 C 670.85555 541.44278 722.25753 540.51377 761.89453 521.88477 C 788.94353 509.17077 810.20822 487.78423 825.69922 457.74023 L 799.30664 557.17578 C 798.43964 560.44278 798.90603 563.62652 800.70703 566.72852 C 802.50703 569.82952 805.03959 571.81364 808.30859 572.68164 L 881.63867 592.14453 L 881.63867 255.33789 C 879.73067 256.96289 878.45178 259.00113 877.80078 261.45312 L 851.62891 360.05469 C 853.08491 326.25369 845.24003 297.07244 828.08203 272.52344 C 802.93703 236.55544 758.78037 210.18692 695.60938 193.41992 C 632.43337 176.65092 581.0107 177.65002 541.3457 196.41602 C 501.6747 215.18002 474.43514 252.48083 459.61914 308.29883 C 457.79275 315.17989 456.27354 321.9071 455.05469 328.48438 C 453.62621 328.5759 452.1538 328.89054 450.63086 329.4668 C 443.87569 332.3028 436.20314 334.99499 427.61914 337.55078 C 419.02811 340.10742 409.38862 342.94973 398.69336 346.07227 L 399.53711 346.07031 C 379.26408 351.18876 358.28078 353.77294 336.58789 353.82422 C 305.03175 353.89802 280.21977 346.35055 262.15625 331.17773 C 253.68657 323.87501 247.11712 315.0885 242.44531 304.8125 C 237.77119 294.54334 235.42115 282.92557 235.39062 269.96484 L 235.8125 269.96484 C 235.7425 240.38195 244.49042 217.54212 262.0625 201.43945 C 279.62859 185.34149 304.19413 177.25254 335.75 177.17773 C 345.32557 177.15563 354.83464 177.84248 364.28125 179.22461 C 373.72098 180.61584 383.23192 182.56022 392.82031 185.07422 C 412.27066 190.09933 428.19554 194.85606 440.60742 199.33008 C 445.11518 201.00754 449.20011 200.51304 452.85938 197.82227 C 456.51002 195.13795 458.05281 191.25802 457.48047 186.18945 L 452.68555 124.07812 C 452.39614 121.82734 451.40732 119.57899 449.71094 117.32422 C 448.0154 115.07647 446.03668 113.67622 443.7832 113.11328 C 428.55799 108.07725 410.23267 103.82704 388.81641 100.35156 C 367.39538 96.881486 343.01755 95.177468 315.69531 95.242188 z M 639.36719 284.00586 C 648.82227 284.08851 659.15048 285.61552 670.34961 288.58789 C 695.94161 295.37989 713.91209 306.49006 724.24609 321.91406 C 734.58209 337.33806 736.64078 356.76173 730.42578 380.17773 C 724.20878 403.59973 712.79197 419.43708 696.16797 427.70508 C 679.54497 435.97208 658.42989 436.70706 632.83789 429.91406 C 607.23889 423.12006 589.33953 412.02953 579.14453 396.64453 C 568.94453 381.25653 566.95392 361.8595 573.16992 338.4375 C 579.38492 315.0215 590.73661 299.15652 607.22461 290.85352 C 616.49686 286.18195 627.21066 283.89959 639.36719 284.00586 z "
     id="path19" /><path
     inkscape:connector-curvature="0"
     id="path27"
     d="m 861.57906,635.52568 c -3.286,-0.872 -6.362,-0.473 -9.238,1.197 -2.876,1.67 -4.717,4.018 -5.521,7.048 l -36.996,139.385 c -4.646,-12.042 -9.211,-23.864 -13.697,-35.463 -4.493,-11.595 -9.127,-23.163 -13.899,-34.706 -7.037,-17.275 -13.906,-34.436 -20.594,-51.484 -6.696,-17.045 -13.585,-34.622 -20.672,-52.722 -0.175,-1.395 -1.2,-2.883 -3.071,-4.464 -1.882,-1.576 -3.576,-2.571 -5.092,-2.973 l -84.085,-22.318 c -3.03,-0.804 -5.982,-0.372 -8.859,1.298 -2.875,1.67 -4.714,4.018 -5.519,7.049 l -55.582,209.405 c -1.517,-1.979 -3.586,-3.331 -6.224,-4.031 l -137.491,-36.493 8.444,-31.814 108.805,28.474 c 3.03,0.804 5.983,0.371 8.859,-1.298 2.875,-1.669 4.749,-4.144 5.62,-7.428 l 14.477,-54.543 c 0.804,-3.03 0.372,-5.982 -1.297,-8.858 -1.669,-2.876 -4.02,-4.716 -7.049,-5.52 l -108.704,-28.853 8.042,-30.301 127.264,33.779 c 3.03,0.804 5.984,0.372 8.858,-1.298 2.877,-1.668 4.748,-4.144 5.62,-7.427 l 14.678,-55.3 c 0.805,-3.031 0.373,-5.981 -1.297,-8.858 -1.667,-2.876 -4.018,-4.716 -7.048,-5.52 l -220.819,-58.611 c -1.192,-0.316 -2.372,-0.434 -3.54,-0.368 -1.385,-1.006 -3.062,-1.791 -5.068,-2.323 l -82.571,-21.917 c -2.023,-0.537 -4.292,-0.391 -6.802,0.424 -2.517,0.821 -4.386,2.016 -5.612,3.579 l -104.913,129.466 -29.549,-165.155 c -0.476,-2.287 -1.556,-4.329 -3.237,-6.131 -1.689,-1.797 -3.54,-2.966 -5.557,-3.501 l -85.978993,-22.821 c -4.545,-1.207 -8.391,-0.466 -11.533,2.21 -3.145,2.681 -4.28,6.434 -3.395,11.261 l 62.739003,315.061 c 0.289,1.972 1.386,3.948 3.289,5.941 1.906,1.989 3.73799,3.223 5.50799,3.692 l 49.618,13.17 c 1.763,0.469 3.891,0.354 6.373,-0.337 2.479,-0.696 4.459,-1.786 5.941,-3.287 l 191.49,-218.89 -64.365,242.496 c -0.804,3.028 -0.372,5.981 1.297,8.857 1.669,2.875 4.02,4.717 7.049,5.521 l 231.046,61.325 c 3.277,0.87 6.295,0.454 9.048,-1.247 0.478,-0.297 0.915,-0.62 1.334,-0.957 0.215,0.505 0.454,1.008 0.744,1.508 1.671,2.876 4.02,4.717 7.049,5.521 l 73.858,19.604 c 3.279,0.87 6.363,0.471 9.238,-1.197 2.876,-1.67 4.715,-4.02 5.52,-7.049 l 36.393,-137.112 68.608,172.28 c 0.671,1.534 1.9,3.006 3.69,4.426 1.783,1.422 3.306,2.297 4.574,2.633 l 84.84,22.52003 c 3.28,0.87 6.365,0.472 9.238,-1.198 2.876,-1.669 4.717,-4.019 5.521,-7.048 l 10.262,-38.66103 0,-264.324 -20.059,-5.324 z"
     style="stroke:#ff0000;fill:none" /></svg>