<?xml version="1.0" encoding="UTF-8" standalone="no"?>
<!-- Generator: Adobe Illustrator 16.0.0, SVG Export Plug-In . SVG Version: 6.00 Build 0)  -->

<svg
   xmlns:dc="http://purl.org/dc/elements/1.1/"
   xmlns:cc="http://creativecommons.org/ns#"
   xmlns:rdf="http://www.w3.org/1999/02/22-rdf-syntax-ns#"
   xmlns:svg="http://www.w3.org/2000/svg"
   xmlns="http://www.w3.org/2000/svg"
   xmlns:sodipodi="http://sodipodi.sourceforge.net/DTD/sodipodi-0.dtd"
   xmlns:inkscape="http://www.inkscape.org/namespaces/inkscape"
   version="1.1"
   id="Layer_1"
   x="0px"
   y="0px"
   width="457.20001mm"
   height="308.39999mm"
   viewBox="0 0 1620 1092.7558"
   enable-background="new 0 0 841.89 1190.55"
   xml:space="preserve"
   inkscape:version="0.91 r13725"
   sodipodi:docname="letras-grandes-2.svg"><metadata
     id="metadata37"><rdf:RDF><cc:Work
         rdf:about=""><dc:format>image/svg+xml</dc:format><dc:type
           rdf:resource="http://purl.org/dc/dcmitype/StillImage" /><dc:title /></cc:Work></rdf:RDF></metadata><defs
     id="defs35" /><sodipodi:namedview
     pagecolor="#ffffff"
     bordercolor="#666666"
     borderopacity="1"
     objecttolerance="10"
     gridtolerance="10"
     guidetolerance="10"
     inkscape:pageopacity="0"
     inkscape:pageshadow="2"
     inkscape:window-width="1215"
     inkscape:window-height="1000"
     id="namedview33"
     showgrid="false"
     units="mm"
     inkscape:zoom="0.14016815"
     inkscape:cx="134.31056"
     inkscape:cy="-481.65772"
     inkscape:window-x="65"
     inkscape:window-y="24"
     inkscape:window-maximized="1"
     inkscape:current-layer="Layer_1" /><polygon
     style="fill:none"
     id="polygon17"
     points="-1126.264,860.664 -1180.119,916.918 -1109.67,935.616 "
     transform="translate(1869.1835,-97.794226)" /><path
     style="stroke:#ff0000;fill:none"
     d="M 153.42969 80.814453 C 151.42647 80.89751 149.4557 81.501953 147.51758 82.626953 C 146.74258 83.076953 146.03734 83.572281 145.40234 84.113281 L 145.40234 420.91797 L 151.72266 422.59766 C 155.25866 423.53866 158.58355 423.10759 161.68555 421.30859 C 164.78755 419.50759 166.76972 416.97403 167.63672 413.70703 L 206.88281 265.8457 L 280.87109 451.63086 C 281.59309 453.28486 282.91861 454.8723 284.84961 456.4043 C 286.77161 457.9383 288.41525 458.88019 289.78125 459.24219 L 381.27539 483.52734 C 384.81139 484.46534 388.13633 484.03633 391.23633 482.23633 C 394.33833 480.43633 396.3205 477.90177 397.1875 474.63477 L 458.33594 244.25195 L 513.78711 522.70703 C 514.09811 524.83203 515.28298 526.96428 517.33398 529.11328 C 519.38898 531.25828 521.36444 532.58775 523.27344 533.09375 L 576.78125 547.29492 C 578.68325 547.79992 580.9763 547.67859 583.6543 546.93359 C 586.3263 546.18159 588.46255 545.00767 590.06055 543.38867 L 783.80859 321.91602 L 764.98438 585.82617 C 764.74338 589.19717 765.58477 592.2233 767.50977 594.9043 C 769.43877 597.5833 771.94406 599.03291 775.03906 599.25391 L 853.44336 604.84766 C 856.53236 605.06866 859.22372 603.99033 861.51172 601.61133 C 863.79972 599.23233 865.06273 596.35537 865.30273 592.98438 L 887.07422 287.79688 C 887.31522 284.42487 886.47092 281.4007 884.54492 278.7207 C 882.61792 276.0407 880.10658 274.59209 877.01758 274.37109 L 821.80469 270.43164 C 821.74469 270.19264 821.70486 269.95484 821.63086 269.71484 C 820.28986 265.42384 817.03228 262.5927 811.86328 261.2207 L 799.24219 257.87109 L 864.55859 259.16602 C 867.64759 259.22702 870.34091 258.92858 872.62891 258.26758 C 874.91691 257.60658 876.17992 256.80709 876.41992 255.87109 L 898.19141 171.08594 C 898.43241 170.14894 897.58811 169.31041 895.66211 168.56641 C 893.73511 167.82141 891.22377 167.41842 888.13477 167.35742 L 809.73242 165.80469 C 806.63642 165.74269 803.95011 166.04212 801.66211 166.70312 C 799.37511 167.36413 798.11109 168.16261 797.87109 169.09961 L 776.61719 251.86523 L 722.82031 237.58594 C 720.63831 237.00694 718.19137 237.16397 715.48438 238.04297 C 712.76937 238.92797 710.75264 240.21634 709.43164 241.90234 L 596.29492 381.51758 L 564.42969 203.41406 C 563.91669 200.94906 562.75345 198.74773 560.93945 196.80273 C 559.11745 194.86473 557.12131 193.60534 554.94531 193.02734 L 475.44922 171.92578 C 475.15622 171.06378 474.7733 170.20742 474.2793 169.35742 C 472.4793 166.25542 469.80453 164.23588 466.26953 163.29688 L 386.62109 142.15625 C 383.07909 141.21625 379.7602 141.64627 376.6582 143.44727 C 373.5572 145.24827 371.57403 147.77887 370.70703 151.04688 L 330.81055 301.36133 C 325.79855 288.37533 320.87606 275.62519 316.03906 263.11719 C 311.19306 250.61319 306.19778 238.13645 301.05078 225.68945 C 293.45978 207.06045 286.0518 188.55592 278.8418 170.16992 C 271.6198 151.78892 264.19283 132.83441 256.54883 113.31641 C 256.36083 111.81141 255.25728 110.205 253.23828 108.5 C 251.20928 106.801 249.38205 105.72892 247.74805 105.29492 L 157.07031 81.228516 C 155.84481 80.903391 154.63162 80.764619 153.42969 80.814453 z "
     id="path21" /><path
     inkscape:connector-curvature="0"
     id="path25"
     d="m 844.03354,661.95473 c -0.544,-2.034 -1.658,-3.949 -3.339,-5.753 -1.689,-1.797 -3.414,-2.933 -5.178,-3.4 l -67.041,-17.795 c -1.516,-0.402 -3.579,-0.272 -6.185,0.386 -2.607,0.665 -4.491,1.646 -5.652,2.96 l -224.463,228.563 70.039,-263.875 c 0.804,-3.031 0.561,-5.932 -0.731,-8.708 -1.289,-2.775 -3.325,-4.532 -6.1,-5.269 l -70.451,-18.699 c -2.781,-0.738 -5.413,-0.221 -7.912,1.55 -2.499,1.77 -4.147,4.168 -4.952,7.199 l -51.651,194.597 c -0.103,-0.13 -0.188,-0.265 -0.297,-0.393 -2.68,-3.143 -6.242,-4.493 -10.682,-4.051 -6.731,0.92 -14.25,1.489 -22.552,1.718 -8.308,0.228 -17.628,0.46 -27.957,0.689 l 0.757,0.201 c -19.388,-0.28 -38.804,-3.001 -58.246,-8.162 -28.282,-7.507 -48.696,-20.223 -61.232,-38.148 -5.834,-8.573 -9.61,-18.021 -11.328,-28.346 -1.722,-10.32 -1.04,-21.29 2.044,-32.907 l 0.377,0.101 c 7.038,-26.514 20.357,-44.871 39.96,-55.077 19.599,-10.204 43.54,-11.553 71.825,-4.045 8.581,2.277 16.935,5.174 25.063,8.679 8.12,3.511 16.175,7.537 24.159,12.089 16.215,9.17 29.338,17.252 39.382,24.239 3.634,2.584 7.412,3.12 11.336,1.59 3.914,-1.528 6.229,-4.633 6.929,-9.311 l 10.614,-56.783 c 0.28,-2.086 -0.066,-4.339 -1.042,-6.765 -0.983,-2.421 -2.416,-4.15 -4.298,-5.194 -12.43,-8.165 -27.827,-16.369 -46.173,-24.622 -18.354,-8.249 -39.782,-15.628 -64.269,-22.128 -28.028,-7.439 -53.949,-10.601 -77.76,-9.489 -23.811,1.118 -45.07,6.353 -63.771,15.713 -18.703,9.365 -34.586,22.85 -47.638,40.469 -4.935,6.658 -9.423,13.899 -13.468,21.72 l 25.775,-97.11 c 0.805,-3.03 0.371,-5.981 -1.299,-8.858 -1.667,-2.876 -4.148,-4.75 -7.429,-5.621 l -53.797,-14.279 0,264.322 14.186,-53.444 c -0.664,30.637 8.146,58.005 26.457,82.102 24.858,33.629 65.19,57.848 120.997,72.66 23.986,6.366 46.671,10.766 68.058,13.198 21.382,2.433 41.626,2.806 60.727,1.117 1.683,-0.169 3.329,-0.777 4.937,-1.823 l -1.481,5.579 c -0.804,3.028 -0.563,5.931 0.729,8.707 1.292,2.774 3.321,4.53 6.102,5.269 l 70.451,18.699 c 2.774,0.736 5.415,0.22 7.91,-1.55 0.288,-0.204 0.562,-0.419 0.828,-0.64 1.55,3.414 4.563,5.721 9.063,6.915 l 78.402,20.81 c 2.02,0.536 4.202,0.443 6.562,-0.285 2.353,-0.725 4.271,-1.838 5.753,-3.338 l 29.171,-31.991 142.034,37.699 9.465,42.247 c 0.288,1.97 1.334,3.869 3.146,5.699 1.807,1.835 3.602,2.983 5.372,3.453 l 88.629,23.524 c 5.048,1.34 9.032,0.574 11.963,-2.298 2.923,-2.875 3.944,-6.721 3.066,-11.553 l -73.894,-312.753 z m -134.969,157.169 53.855,-56.254 16.593,74.952 -70.448,-18.698 z"
     style="stroke:#ff0000;fill:none" /></svg>