<?xml version="1.0" encoding="UTF-8" standalone="no"?>
<!-- Generator: Adobe Illustrator 16.0.0, SVG Export Plug-In . SVG Version: 6.00 Build 0)  -->

<svg
   xmlns:dc="http://purl.org/dc/elements/1.1/"
   xmlns:cc="http://creativecommons.org/ns#"
   xmlns:rdf="http://www.w3.org/1999/02/22-rdf-syntax-ns#"
   xmlns:svg="http://www.w3.org/2000/svg"
   xmlns="http://www.w3.org/2000/svg"
   xmlns:sodipodi="http://sodipodi.sourceforge.net/DTD/sodipodi-0.dtd"
   xmlns:inkscape="http://www.inkscape.org/namespaces/inkscape"
   version="1.1"
   id="Layer_1"
   x="0px"
   y="0px"
   width="457.20001mm"
   height="308.39999mm"
   viewBox="0 0 1620 1092.7558"
   enable-background="new 0 0 841.89 1190.55"
   xml:space="preserve"
   inkscape:version="0.91 r13725"
   sodipodi:docname="letras-grandes-4.svg"><metadata
     id="metadata37"><rdf:RDF><cc:Work
         rdf:about=""><dc:format>image/svg+xml</dc:format><dc:type
           rdf:resource="http://purl.org/dc/dcmitype/StillImage" /><dc:title></dc:title></cc:Work></rdf:RDF></metadata><defs
     id="defs35" /><sodipodi:namedview
     pagecolor="#ffffff"
     bordercolor="#666666"
     borderopacity="1"
     objecttolerance="10"
     gridtolerance="10"
     guidetolerance="10"
     inkscape:pageopacity="0"
     inkscape:pageshadow="2"
     inkscape:window-width="1215"
     inkscape:window-height="1000"
     id="namedview33"
     showgrid="false"
     units="mm"
     inkscape:zoom="0.2803363"
     inkscape:cx="582.87443"
     inkscape:cy="721.85145"
     inkscape:window-x="65"
     inkscape:window-y="24"
     inkscape:window-maximized="1"
     inkscape:current-layer="Layer_1" /><path
     inkscape:connector-curvature="0"
     id="path9"
     d="m 176.54621,834.65546 c 3.925,-0.017 7.172,-1.466 9.733,-4.343 2.554,-2.887 3.832,-6.135 3.82,-9.762 l -0.598,-171.364 236.244,-0.371 c 0.525,0.869 1.138,1.689 1.845,2.453 2.729,2.945 5.908,4.422 9.532,4.408 l 252.516,-0.881 0.375,107.604 c 0.018,4.521 1.389,8.361 4.12,11.479 2.731,3.128 6.059,4.683 9.99,4.665 l 61.656,-0.215 c 1.973,-0.01 3.805,-0.494 5.507,-1.427 -0.367,5.387 1.395,9.535 5.347,12.407 4.103,2.983 8.863,3.226 14.278,0.727 l 110.325,-51.5 c 6.462,-3.92 13.032,-8.962 19.722,-15.137 6.679,-6.168 13.052,-13.82 19.122,-22.934 1.904,8.388 4.249,16.137 7.043,23.243 2.784,7.109 5.882,13.409 9.288,18.917 13.287,22.265 37.075,35.096 71.36099,38.485 30.377,3.005 56.137,-7.207 77.287,-30.625 19.462,-21.767 31.112,-52.044 34.947,-90.846 l 22.393,-226.477 c 0.356,-3.606 -0.682,-6.898 -3.126,-9.873 -2.438,-2.975 -5.462,-4.64 -9.069,-4.996 l -268.02999,-26.5 -0.567,-161.985 38.081,-0.131 0.908,130.106 c 0.013,3.63 1.383,6.798 4.11,9.505 2.731,2.716 6.06,4.061 9.991,4.049 l 65.278,-0.229 c 3.62899,-0.014 6.79799,-1.382 9.50799,-4.115 2.71,-2.729 4.062,-5.906 4.048,-9.533 l -0.452,-130.109 36.264,-0.128 0.534,152.325 c 0.011,3.625 1.383,6.795 4.112,9.505 2.728,2.71 6.055,4.058 9.988,4.046 l 66.189,-0.229 c 3.624,-0.013 6.794,-1.384 9.503,-4.117 2.715,-2.729 4.06,-5.906 4.05,-9.53 l -0.923,-264.306 c -0.01,-2.498 -0.677,-4.771 -1.975,-6.834 1.247,-2.114 1.879,-4.499 1.87,-7.163 l -0.096,-27.650997 -89.308,0 0.099,27.960997 c 0,0.136 0.015,0.266 0.019,0.399 l -252.47899,0.882 c -3.624,0.013 -6.796,1.384 -9.506,4.113 -2.71,2.73 -4.061,5.906 -4.047,9.534 l 0.966,276.544 c 0.012,3.922 1.386,7.171 4.116,9.73 2.728,2.557 5.907,3.834 9.531,3.82 l 5.72,-0.02 -8.909,90.116 c -0.389,3.905 0.639,7.349 3.079,10.329 2.44,2.967 5.465,4.637 9.071,4.992 l 111.435,11.017 -4.326,43.768 c -1.605,16.239 -3.43,25.47 -5.472,27.699 -1.054,1.411 -2.399,2.725 -4.036,3.929 -1.64,1.207 -3.269,2.334 -4.89,3.392 l 0.946,-0.366 -113.083,47.132 c -2.225,0.993 -4.203,2.55 -5.927,4.658 -1.732,2.101 -2.709,4.356 -2.946,6.769 l -3.552,35.925 -1.035,-296.976 c -0.015,-4.531 -1.388,-8.273 -4.121,-11.219 -2.729,-2.951 -5.908,-4.414 -9.533,-4.4 l -61.656,0.215 c -3.934,0.014 -7.249,1.496 -9.957,4.473 -2.713,2.962 -4.059,6.713 -4.042,11.246 l 0.377,108.125 -127.308,0.444 c -0.027,-1.088 -0.145,-2.188 -0.371,-3.301 l -39.378,-193.479 231.997,-46.688 c 3.55,-0.723 6.331,-2.979 8.338,-6.761 2.005,-3.791 2.593,-7.726 1.758,-11.82 l -20.625,-101.351 20.404,-0.071 c 3.627,-0.014 6.794,-1.594 9.504,-4.737 2.708,-3.145 4.057,-6.808 4.042,-10.98 l -0.191,-55.042997 -342.505,0 c 1.784,4.872 3.682,9.521 5.714,13.902 18.27,38.592997 49.311,57.813997 93.138,57.659997 l 79.358,-0.276 -209.526,42.643 c -3.551,0.722 -6.352,2.891 -8.39,6.505 -2.042,3.61 -2.611,7.633 -1.707,12.074 l 4.368,21.463 -273.067,-153.970997 -42.348999,0 c 0,0.122 -0.012,0.236 -0.012,0.36 l 0.327,93.840997 c 0.01,2.417 0.769,4.825 2.292,7.245 1.515,2.406 3.338,4.215 5.457,5.42 l 44.512999,22.963 0.59,170.003 -44.346999,23.28 c -2.114,0.914 -3.923,2.657 -5.422,5.23 -1.508,2.569 -2.249,4.917 -2.243,7.036 l 0.371,106.081 c 0.018,4.983 1.441,8.706 4.222,11.218 -0.032,0.033 -0.066,0.06 -0.1,0.093 -2.71,2.733 -4.062,6.061 -4.047,9.991 l 0.989,283.343 c 0.012,3.624 1.383,6.795 4.115,9.508 2.729,2.707 5.906,4.059 9.531,4.045 l 77.976999,-0.27 z m 850.04999,-179.85 c -13.237,-1.31 -21.845,-7.931 -25.827,-19.866 -3.98799,-11.938 -4.88699,-28.882 -2.71599,-50.833 l 5.35299,-54.135 67.219,6.643 -6.96,70.375 c -1.635,16.539 -5.441,28.92 -11.415,37.141 -5.977,8.219 -14.532,11.775 -25.654,10.675 z m -811.74399,-405.558 79.033,43.246 -78.739,41.074 -0.294,-84.32 z m 208.843,107.469 31.172,153.157 -18.252,0.063 c -3.625,0.013 -6.792,1.593 -9.502,4.737 -2.072,2.4 -3.341,5.108 -3.819,8.119 l -309.288,1.08 309.689,-167.156 z"
     style="stroke:#ff0000;fill:none" /></svg>