<?xml version="1.0" encoding="UTF-8" standalone="no"?>
<!-- Generator: Adobe Illustrator 16.0.0, SVG Export Plug-In . SVG Version: 6.00 Build 0)  -->

<svg
   xmlns:dc="http://purl.org/dc/elements/1.1/"
   xmlns:cc="http://creativecommons.org/ns#"
   xmlns:rdf="http://www.w3.org/1999/02/22-rdf-syntax-ns#"
   xmlns:svg="http://www.w3.org/2000/svg"
   xmlns="http://www.w3.org/2000/svg"
   xmlns:sodipodi="http://sodipodi.sourceforge.net/DTD/sodipodi-0.dtd"
   xmlns:inkscape="http://www.inkscape.org/namespaces/inkscape"
   version="1.1"
   id="Layer_1"
   x="0px"
   y="0px"
   width="457.20001mm"
   height="308.39999mm"
   viewBox="0 0 1620.0001 1092.7558"
   enable-background="new 0 0 340.16 425.2"
   xml:space="preserve"
   inkscape:version="0.91 r13725"
   sodipodi:docname="manzana-A4.svg"><metadata
     id="metadata19"><rdf:RDF><cc:Work
         rdf:about=""><dc:format>image/svg+xml</dc:format><dc:type
           rdf:resource="http://purl.org/dc/dcmitype/StillImage" /><dc:title></dc:title></cc:Work></rdf:RDF></metadata><defs
     id="defs17" /><sodipodi:namedview
     pagecolor="#ffffff"
     bordercolor="#666666"
     borderopacity="1"
     objecttolerance="10"
     gridtolerance="10"
     guidetolerance="10"
     inkscape:pageopacity="0"
     inkscape:pageshadow="2"
     inkscape:window-width="1215"
     inkscape:window-height="1000"
     id="namedview15"
     showgrid="false"
     inkscape:zoom="0.39246753"
     inkscape:cx="551.26626"
     inkscape:cy="708.42386"
     inkscape:window-x="65"
     inkscape:window-y="24"
     inkscape:window-maximized="1"
     inkscape:current-layer="Layer_1"
     units="mm" /><path
     d="m 24.243782,260.3309 c 6.873974,18.01161 16.421195,34.45904 30.924555,47.4572 24.145402,21.64318 52.233303,28.65129 83.769723,21.2478 18.54206,-4.35338 34.99777,-13.12015 49.96652,-24.78585 0.84878,-0.66121 1.75731,-1.24629 3.43013,-2.42543 -1.18504,4.10457 -2.01006,7.50497 -3.13984,10.79964 -6.30049,18.35719 -12.853,36.64318 -23.24382,53.1769 -5.43741,8.65419 -11.60145,16.85293 -17.43183,25.26145 -0.99254,1.43064 -2.08144,2.81463 -2.91477,4.33719 -1.85138,3.38346 -0.7675,6.1999 3.03583,6.92524 10.68823,2.0402 21.4023,3.97202 32.15539,5.62835 5.0182,0.77355 9.51225,-2.48772 11.01373,-7.31998 5.21254,-16.77262 9.20845,-33.82799 12.22974,-51.0974 0.346,0.82765 0.70379,1.64904 1.0832,2.45842 6.30863,13.41739 15.03563,24.8989 27.82741,32.9505 13.61891,8.56915 28.55333,11.32991 44.36113,10.52305 3.24159,-0.16562 6.47498,-0.40049 9.71472,-0.60393 4.00472,-1.07306 8.01042,-2.14638 12.01515,-3.21945 5.01064,-3.71338 6.16801,-8.43895 4.40633,-14.38769 -3.44181,-11.63567 -8.67987,-22.32105 -16.27992,-31.75652 -7.80467,-9.68915 -17.50617,-16.93719 -29.30438,-21.09528 -16.46896,-5.80636 -33.10901,-5.84905 -49.81919,-1.30842 1.02058,-7.45 2.00732,-14.90645 3.04149,-22.35595 0.14689,-1.05911 0.37766,-2.10653 0.60081,-3.33307 3.64007,0.37878 7.0693,0.75505 10.50171,1.08906 15.37814,1.49581 30.48703,0.0936 45.22797,-4.55196 22.41253,-7.06347 40.31671,-20.16484 53.08167,-40.06679 14.35241,-22.37716 18.35981,-46.93929 15.29143,-72.92974 -2.67316,-22.64163 -10.78079,-43.57656 -21.55015,-63.40281 C 307.13933,104.47342 299.4915,91.548411 290.70099,79.578707 275.54821,58.948612 257.8952,40.536157 236.24518,26.467206 220.25243,16.078446 203.06711,8.6108837 183.73093,7.3153112 167.71371,6.2433463 152.42792,9.4156943 139.1684,18.403773 c -7.73012,5.240259 -15.06009,7.835839 -24.37237,6.421853 -5.36236,-0.813851 -11.02978,0.367232 -16.55876,0.650902 -4.848947,1.299271 -9.695963,2.598026 -14.544911,3.897297 -3.243661,1.714957 -6.500107,3.405387 -9.727759,5.149184 -14.991887,8.098123 -25.986077,20.227942 -34.811543,34.543947 -14.282606,23.167007 -21.08413,48.784264 -24.815601,75.430974 -3.050024,21.79091 -3.289861,43.626 -1.120517,65.48848 1.704926,17.19669 4.844798,34.14245 11.026843,50.34449 z"
     id="path9"
     inkscape:connector-curvature="0"
     style="clip-rule:evenodd;fill:none;fill-rule:evenodd;stroke:#ff0000" /><path
     d="m 358.78501,122.32669 c -10.20999,16.35315 -17.55922,33.8933 -19.1667,53.30245 -2.67909,32.31488 8.68942,58.9382 33.62917,79.61104 14.66386,12.15449 31.58677,19.98143 49.92321,24.87296 1.03952,0.27753 2.05442,0.64865 4.0043,1.27048 -3.9877,1.53303 -7.19667,2.92798 -10.50531,4.01615 -18.43844,6.05859 -36.97226,11.87325 -56.42614,13.5701 -10.18183,0.8893 -20.43919,0.92436 -30.66238,1.35208 -1.73973,0.0723 -3.50043,0.0397 -5.21732,0.29443 -3.81504,0.56649 -5.40612,3.13076 -3.68845,6.60081 4.82557,9.75267 9.75314,19.46051 14.9239,29.03316 2.4126,4.46767 7.72551,6.0818 12.48437,4.36177 16.51841,-5.96938 32.52779,-13.0794 48.11948,-21.09563 -0.45096,0.77548 -0.88982,1.55656 -1.30606,2.34763 -6.88857,13.12908 -10.7739,27.01756 -9.47102,42.07613 1.38958,16.03041 8.20396,29.60328 18.38982,41.71881 2.08887,2.48434 4.228,4.92035 6.34589,7.38038 3.273,2.54497 6.54679,5.09053 9.81978,7.63548 5.9852,1.75305 10.45127,-0.1769 14.13038,-5.17243 7.19871,-9.76796 12.55548,-20.39434 15.48994,-32.14924 3.01317,-12.07118 2.93514,-24.18097 -0.87202,-36.09705 -5.31266,-16.6348 -15.3236,-29.92666 -29.03091,-40.50766 6.5555,-3.68365 13.09574,-7.39822 19.65909,-11.07069 0.93305,-0.52221 1.90738,-0.97055 3.01994,-1.53307 1.89541,3.13066 3.66552,6.09172 5.47126,9.0298 8.0907,13.16302 18.32931,24.36194 30.93148,33.30965 19.16092,13.60418 40.41395,19.96929 63.9863,18.13191 26.50398,-2.06599 48.50498,-13.69838 67.37332,-31.83411 16.43709,-15.79908 28.23296,-34.90046 37.53815,-55.4546 6.136,-13.55085 11.8236,-27.45036 16.0598,-41.68419 7.29993,-24.53403 11.32258,-49.72262 9.46956,-75.47578 -1.37191,-19.02136 -5.79264,-37.23008 -16.43231,-53.427736 -8.81441,-13.41666 -20.571,-23.688056 -35.74094,-28.833281 -8.84412,-2.999393 -15.33826,-7.27629 -19.83247,-15.553968 -2.58822,-4.76638 -6.95105,-8.57169 -10.51485,-12.808366 -3.96296,-3.081451 -7.92434,-6.161665 -11.88731,-9.243104 -3.3253,-1.550727 -6.63878,-3.126448 -9.97742,-4.646983 -15.5062,-7.063574 -31.81335,-8.506244 -48.55427,-6.900198 -27.09153,2.598441 -51.62043,12.640195 -75.11678,25.750976 -19.21376,10.722797 -36.76632,23.712635 -52.88639,38.639706 -12.68068,11.740255 -24.29507,24.473024 -33.48009,39.182184 z"
     id="path9-3"
     inkscape:connector-curvature="0"
     style="clip-rule:evenodd;fill:none;fill-rule:evenodd;stroke:#ff0000" /><path
     d="m 10.197601,596.88862 c -0.7837222,19.2628 1.505954,38.14202 9.710204,55.80526 13.657105,29.40938 36.707172,46.92333 68.608114,52.55248 18.756551,3.30929 37.335691,1.74012 55.691191,-3.07941 1.04071,-0.27304 2.10632,-0.45255 4.10852,-0.87669 -2.70726,3.30494 -4.80605,6.10468 -7.14322,8.68709 -13.02738,14.38645 -26.2583,28.60811 -42.325825,39.7062 -8.408864,5.80959 -17.30595,10.91416 -25.979104,16.34306 -1.47617,0.92346 -3.022508,1.76607 -4.388602,2.83678 -3.035335,2.37953 -3.149603,5.39517 0.05972,7.5612 9.018216,6.08871 18.102908,12.08801 27.332065,17.84952 4.306796,2.68928 9.722586,1.4639 13.007536,-2.38503 11.40285,-13.35914 21.79907,-27.45778 31.384,-42.13735 -0.008,0.89702 -0.003,1.79294 0.0263,2.68635 0.50796,14.8178 4.00163,28.80993 12.58307,41.25247 9.13753,13.24427 21.77395,21.66922 36.61952,27.15982 3.04434,1.12577 6.10844,2.18466 9.16599,3.27495 4.10341,0.59268 8.20782,1.1855 12.31125,1.77818 6.06878,-1.43721 8.99543,-5.32376 9.72168,-11.48521 1.42424,-12.05017 0.82306,-23.93517 -2.44157,-35.60269 -3.35266,-11.98132 -9.41091,-22.46707 -18.61425,-30.93974 -12.84597,-11.82885 -28.12145,-18.42831 -45.26832,-20.84331 3.87503,-6.44424 7.72151,-12.90776 11.60883,-19.34618 0.55254,-0.91542 1.17755,-1.78702 1.86618,-2.82625 3.19592,1.78318 6.19906,3.48092 9.22179,5.14108 13.54289,7.43738 27.98087,12.10531 43.35937,13.64753 23.38198,2.3446 45.00116,-2.63704 64.57844,-15.89457 22.01199,-14.90641 35.37826,-35.89928 42.80495,-60.99436 6.46965,-21.86167 7.27213,-44.29739 5.19138,-66.76358 -1.37066,-14.81207 -3.30347,-29.70533 -6.66303,-44.17116 -5.79224,-24.93307 -14.75649,-48.81381 -29.10641,-70.27863 -10.60175,-15.85236 -23.45113,-29.4903 -40.71043,-38.30409 -14.29731,-7.29982 -29.59573,-10.41072 -45.32479,-7.37809 -9.16997,1.76829 -16.92955,1.26385 -24.93014,-3.7069 -4.60719,-2.86201 -10.28121,-4.01093 -15.47422,-5.93 -4.96844,-0.71762 -9.93491,-1.43495 -14.90335,-2.15258 -3.65705,0.29726 -7.31618,0.56694 -10.9699,0.89703 -16.97027,1.53179 -31.85609,8.34479 -45.610726,18.0219 -22.259234,15.65982 -38.609299,36.52079 -52.543822,59.53819 -11.3939,18.82353 -20.222639,38.79556 -26.848124,59.74257 -5.212837,16.47603 -9.008019,33.28716 -9.714218,50.61416 z"
     id="path9-35"
     inkscape:connector-curvature="0"
     style="clip-rule:evenodd;fill:none;fill-rule:evenodd;stroke:#ff0000" /><path
     d="m 430.86883,631.77141 c 8.23452,17.43164 19.01453,33.0988 34.47165,44.94686 25.73354,19.7285 54.27603,24.56277 85.15209,14.76345 18.15377,-5.76201 33.88899,-15.76448 47.91939,-28.54336 0.79561,-0.72432 1.6566,-1.37734 3.2341,-2.68126 -0.86689,4.18336 -1.42882,7.637 -2.3027,11.00858 -4.87466,18.78617 -10.00608,37.52066 -19.09883,54.8023 -4.75798,9.04555 -10.27537,17.69271 -15.44399,26.52345 -0.87995,1.50252 -1.85955,2.96591 -2.5737,4.54787 -1.58654,3.51543 -0.28997,6.24049 3.55779,6.67213 10.81319,1.21484 21.64382,2.31963 32.49224,3.14675 5.06274,0.38658 9.29357,-3.20962 10.42018,-8.14276 3.91141,-17.12286 6.58807,-34.43438 8.27659,-51.88458 0.40844,0.79869 0.82814,1.59024 1.26847,2.36815 7.31865,12.89428 16.90016,23.673 30.27154,30.72027 14.23574,7.49991 29.33786,9.10763 45.03728,7.09134 3.21935,-0.41364 6.42524,-0.89568 9.63983,-1.34688 3.91069,-1.37691 7.82231,-2.75416 11.73299,-4.13107 4.71123,-4.08657 5.50294,-8.88695 3.29039,-14.68315 -4.32366,-11.33757 -10.36547,-21.58996 -18.66648,-30.41504 -8.52447,-9.06233 -18.75306,-15.54531 -30.83531,-18.7867 -16.86563,-4.52677 -33.45997,-3.2937 -49.7729,2.51458 0.44644,-7.50629 0.85863,-15.01649 1.31872,-22.52334 0.0653,-1.06725 0.21507,-2.12928 0.34353,-3.36932 3.6584,0.0986 7.10638,0.21089 10.55429,0.28078 15.44756,0.31252 30.40449,-2.24385 44.74591,-8.00576 21.8051,-8.76086 38.65225,-23.19621 49.85394,-44.01817 12.59473,-23.4116 14.70739,-48.20864 9.6556,-73.88739 -4.40101,-22.37007 -14.08966,-42.62188 -26.34722,-61.56419 -8.0804,-12.48933 -16.69657,-24.79001 -26.37883,-36.05061 -16.68971,-19.40778 -35.70226,-36.41276 -58.36711,-48.7806 -16.74209,-9.13219 -34.44932,-15.26033 -53.82792,-15.06978 -16.05227,0.15909 -31.04988,4.49391 -43.58135,14.47204 -7.30565,5.81742 -14.41508,8.96727 -23.80835,8.27134 -5.40898,-0.40038 -10.96918,1.2117 -16.46014,1.91839 -4.73507,1.66717 -9.46826,3.33368 -14.20333,5.00085 -3.10265,1.95856 -6.21993,3.89366 -9.3044,5.87977 -14.32696,9.22357 -24.35892,22.16052 -32.06096,37.11098 -12.46457,24.19375 -17.28225,50.25702 -18.96,77.11138 -1.37053,21.96061 0.0642,43.74983 3.90317,65.38167 3.01821,17.01541 7.44792,33.67059 14.85383,49.35103 z"
     id="path9-3-6"
     inkscape:connector-curvature="0"
     style="clip-rule:evenodd;fill:none;fill-rule:evenodd;stroke:#ff0000" /><path
     d="m 525.66471,734.06517 c -16.26095,-10.35621 -33.73449,-17.86242 -53.12845,-19.64388 -32.28956,-2.96876 -59.01375,8.16056 -79.9094,32.91395 -12.28548,14.55428 -20.26386,31.40633 -25.3196,49.69817 -0.28685,1.037 -0.66706,2.04853 -1.30634,3.99275 -1.49721,-4.00128 -2.86334,-7.22263 -3.92179,-10.5409 -5.89301,-18.49204 -11.54124,-37.07724 -13.06358,-56.54556 -0.79797,-10.1894 -0.74106,-20.44666 -1.07709,-30.67329 -0.0567,-1.7403 -0.008,-3.50065 -0.24764,-5.21975 -0.53225,-3.81996 -3.08216,-5.43398 -6.56746,-3.74749 -9.79556,4.73792 -19.54719,9.57825 -29.16582,14.66296 -4.48913,2.37244 -6.15084,7.67069 -4.47356,12.44477 5.82104,16.57127 12.78721,32.64377 20.66331,48.30672 -0.7714,-0.4579 -1.54851,-0.90375 -2.33582,-1.32706 -13.06679,-7.00601 -26.91988,-11.01574 -41.98952,-9.84792 -16.04222,1.24576 -29.67565,7.93821 -41.88203,18.01498 -2.50297,2.06651 -4.95806,4.1837 -7.437,6.27945 -2.5742,3.25005 -5.14902,6.50088 -7.72321,9.75094 -1.80665,5.96922 0.0832,10.45242 5.04551,14.17618 9.70303,7.28601 20.28094,12.73786 32.00906,15.77761 12.04367,3.12128 24.15367,3.15185 36.1034,-0.54832 16.68178,-5.16327 30.06287,-15.05463 40.76637,-28.66652 3.62472,6.58827 7.28049,13.16156 10.89397,19.75757 0.51382,0.9377 0.95339,1.91602 1.50591,3.03357 -3.14752,1.86726 -6.12433,3.61075 -9.07849,5.39007 -13.23505,7.97237 -24.52533,18.11015 -33.58568,30.63158 -13.77545,19.03816 -20.33087,40.23326 -18.70494,63.82114 1.82825,26.52147 13.26289,48.62589 31.22871,67.65609 15.65105,16.57812 34.64589,28.54482 55.11577,38.03392 13.4953,6.2572 27.34324,12.0692 41.53853,16.4329 24.46759,7.5197 49.61909,11.768 75.38781,10.146 19.03294,-1.2013 37.28054,-5.4586 53.57293,-15.9526 13.49521,-8.6937 23.8716,-20.3577 29.15265,-35.4809 3.07855,-8.81692 7.41352,-15.27243 15.73118,-19.69222 4.7894,-2.54538 8.63367,-6.87391 12.90215,-10.39956 3.11684,-3.93519 6.23246,-7.86879 9.3493,-11.80398 1.58048,-3.31127 3.18587,-6.61047 4.73626,-9.93534 7.20235,-15.44223 8.79113,-31.73587 7.33529,-48.49048 -2.3554,-27.11373 -12.17681,-51.73171 -25.07637,-75.3447 -10.55008,-19.30913 -23.382,-36.97747 -38.16393,-53.23075 -11.62608,-12.78545 -24.25419,-24.51354 -38.88039,-33.8301 z"
     id="path9-3-6-2"
     inkscape:connector-curvature="0"
     style="clip-rule:evenodd;fill:none;fill-rule:evenodd;stroke:#ff0000" /></svg>