<?xml version="1.0" encoding="UTF-8" standalone="no"?>
<!-- Generator: Adobe Illustrator 16.0.0, SVG Export Plug-In . SVG Version: 6.00 Build 0)  -->

<svg
   xmlns:dc="http://purl.org/dc/elements/1.1/"
   xmlns:cc="http://creativecommons.org/ns#"
   xmlns:rdf="http://www.w3.org/1999/02/22-rdf-syntax-ns#"
   xmlns:svg="http://www.w3.org/2000/svg"
   xmlns="http://www.w3.org/2000/svg"
   xmlns:sodipodi="http://sodipodi.sourceforge.net/DTD/sodipodi-0.dtd"
   xmlns:inkscape="http://www.inkscape.org/namespaces/inkscape"
   version="1.1"
   id="Layer_1"
   x="0px"
   y="0px"
   width="457.20001mm"
   height="308.39999mm"
   viewBox="0 0 1620.0001 1092.7558"
   enable-background="new 0 0 340.16 425.2"
   xml:space="preserve"
   inkscape:version="0.91 r13725"
   sodipodi:docname="manzana.svg"><metadata
     id="metadata19"><rdf:RDF><cc:Work
         rdf:about=""><dc:format>image/svg+xml</dc:format><dc:type
           rdf:resource="http://purl.org/dc/dcmitype/StillImage" /><dc:title></dc:title></cc:Work></rdf:RDF></metadata><defs
     id="defs17" /><sodipodi:namedview
     pagecolor="#ffffff"
     bordercolor="#666666"
     borderopacity="1"
     objecttolerance="10"
     gridtolerance="10"
     guidetolerance="10"
     inkscape:pageopacity="0"
     inkscape:pageshadow="2"
     inkscape:window-width="1215"
     inkscape:window-height="1000"
     id="namedview15"
     showgrid="false"
     inkscape:zoom="0.39246753"
     inkscape:cx="673.86893"
     inkscape:cy="726.33162"
     inkscape:window-x="65"
     inkscape:window-y="24"
     inkscape:window-maximized="1"
     inkscape:current-layer="Layer_1"
     units="mm" /><path
     d="m 368.48813,219.87667 c -1.978,-19.177 -6.943,-37.535 -17.588,-53.844 -17.721,-27.155 -43.038,-41.194 -75.416,-42.205 -19.037,-0.594 -37.201,3.615 -54.679,11.009 -0.991,0.419 -2.02,0.749 -3.941,1.455 2.207,-3.658 3.884,-6.729 5.828,-9.619 10.837,-16.101 21.899,-32.067997 36.215,-45.348997 7.492,-6.952 15.568,-13.276 23.376,-19.889 1.329,-1.125 2.739,-2.18 3.938,-3.435 2.664,-2.789 2.346,-5.79 -1.14,-7.475 -9.796,-4.737 -19.645,-9.376 -29.603,-13.759 -4.647,-2.046 -9.832,-0.059 -12.533,4.22 -9.376,14.852 -17.65,30.292 -25.038,46.191 -0.12,-0.889 -0.253,-1.775 -0.41,-2.655 -2.621,-14.593 -8.079,-27.942 -18.351,-39.03 -10.937,-11.802 -24.648,-18.334 -40.126,-21.646 -3.174,-0.679 -6.358,-1.289 -9.54,-1.931 -4.146,0 -8.293,0 -12.439,0 -5.801,2.29 -8.142,6.555 -7.98,12.757 0.313,12.13 2.607,23.807 7.506,34.888 5.031,11.379 12.526,20.891 22.846,27.961 14.405,9.870997 30.467,14.218997 47.783,14.157997 -2.914,6.932 -5.797,13.879 -8.724,20.807 -0.416,0.985 -0.91,1.937 -1.443,3.064 -3.418,-1.308 -6.633,-2.559 -9.862,-3.77 -14.467,-5.425 -29.424,-7.981 -44.865,-7.309 -23.477,1.022 -44.161999,9.043 -61.642999,24.963 -19.655,17.9 -29.883,40.588 -33.646,66.487 -3.278,22.562 -0.865,44.882 4.406,66.82 3.474,14.464 7.516,28.928 12.909,42.765 9.297,23.84897 21.583,46.20297 38.853999,65.39597 12.759,14.174 27.426,25.835 45.768,32.091 15.194,5.181 30.78,6.073 45.914,0.823 8.823,-3.061 16.575,-3.671 25.204,0.105 4.969,2.174 10.749,2.5 16.163,3.657 5.02,0 10.038,0 15.058,0 3.577,-0.817 7.16,-1.607 10.729,-2.456 16.577,-3.942 30.336,-12.813 42.566,-24.357 19.792,-18.681 32.992,-41.665 43.493,-66.43797 8.586,-20.259 14.469,-41.288 18.032,-62.967 2.804,-17.052 4.157,-34.233 2.379,-51.483 z"
     id="path9"
     inkscape:connector-curvature="0"
     style="clip-rule:evenodd;fill-rule:evenodd;stroke:#ff0000;fill:none" /><rect
     style="opacity:1;fill:none;fill-opacity:1;stroke:#ff0000;stroke-width:1;stroke-linecap:square;stroke-linejoin:miter;stroke-miterlimit:4;stroke-dasharray:none;stroke-dashoffset:0;stroke-opacity:1"
     id="rect4166"
     width="743.09454"
     height="1051.3623"
     x="2.5479407"
     y="0.62578773" /></svg>