<?xml version="1.0" encoding="UTF-8" standalone="no"?>
<!-- Generator: Adobe Illustrator 16.0.0, SVG Export Plug-In . SVG Version: 6.00 Build 0)  -->

<svg
   xmlns:dc="http://purl.org/dc/elements/1.1/"
   xmlns:cc="http://creativecommons.org/ns#"
   xmlns:rdf="http://www.w3.org/1999/02/22-rdf-syntax-ns#"
   xmlns:svg="http://www.w3.org/2000/svg"
   xmlns="http://www.w3.org/2000/svg"
   xmlns:sodipodi="http://sodipodi.sourceforge.net/DTD/sodipodi-0.dtd"
   xmlns:inkscape="http://www.inkscape.org/namespaces/inkscape"
   version="1.1"
   id="Layer_1"
   x="0px"
   y="0px"
   width="457.20001mm"
   height="308.39999mm"
   viewBox="0 0 1620 1092.7558"
   enable-background="new 0 0 841.89 1190.55"
   xml:space="preserve"
   inkscape:version="0.91 r13725"
   sodipodi:docname="manzana-grande-1.svg"><metadata
     id="metadata35"><rdf:RDF><cc:Work
         rdf:about=""><dc:format>image/svg+xml</dc:format><dc:type
           rdf:resource="http://purl.org/dc/dcmitype/StillImage" /><dc:title /></cc:Work></rdf:RDF></metadata><defs
     id="defs33" /><sodipodi:namedview
     pagecolor="#ffffff"
     bordercolor="#666666"
     borderopacity="1"
     objecttolerance="10"
     gridtolerance="10"
     guidetolerance="10"
     inkscape:pageopacity="0"
     inkscape:pageshadow="2"
     inkscape:window-width="1215"
     inkscape:window-height="1000"
     id="namedview31"
     showgrid="false"
     units="mm"
     inkscape:zoom="0.2803363"
     inkscape:cx="644.25757"
     inkscape:cy="708.49005"
     inkscape:window-x="65"
     inkscape:window-y="24"
     inkscape:window-maximized="1"
     inkscape:current-layer="Layer_1" /><path
     inkscape:connector-curvature="0"
     id="path17"
     d="m 60.188132,188.04128 c -10.061,80.237 0.055,159.225 20.271,236.656 13.327,51.051 28.665998,102.063 48.764998,150.76 34.623,83.92701 79.75,162.35001 142.334,229.20801 46.238,49.377 99.059,89.713 164.541,110.621 54.242,17.312 109.57897,19.396 162.88697,-0.278 31.072,-11.467 58.522,-14.169 89.388,-1.38 17.773,7.365 38.289,8.119 57.577,11.846 17.796,-0.35 35.596,-0.699 53.393,-1.047 12.631,-3.149 25.285,-6.198 37.881,-9.459 58.512,-15.134 106.688,-47.551 149.264,-89.34 68.883,-67.625 114.094,-150.055 149.611,-238.64001 29.036,-72.441 48.443,-147.431 59.563,-224.557 8.758,-60.673 12.361,-121.693 4.849,-182.744 -4.029,-32.746 -10.521,-64.761 -20.516,-95.544995 l -1094.547968,0 c -12.48,32.698995 -20.693,67.436995 -25.26,103.898995 z"
     style="stroke:#ff0000;fill:none" /></svg>