<?xml version="1.0" encoding="UTF-8" standalone="no"?>
<!-- Generator: Adobe Illustrator 16.0.0, SVG Export Plug-In . SVG Version: 6.00 Build 0)  -->

<svg
   xmlns:dc="http://purl.org/dc/elements/1.1/"
   xmlns:cc="http://creativecommons.org/ns#"
   xmlns:rdf="http://www.w3.org/1999/02/22-rdf-syntax-ns#"
   xmlns:svg="http://www.w3.org/2000/svg"
   xmlns="http://www.w3.org/2000/svg"
   xmlns:sodipodi="http://sodipodi.sourceforge.net/DTD/sodipodi-0.dtd"
   xmlns:inkscape="http://www.inkscape.org/namespaces/inkscape"
   version="1.1"
   id="Layer_1"
   x="0px"
   y="0px"
   width="457.20001mm"
   height="308.39999mm"
   viewBox="0 0 1620 1092.7558"
   enable-background="new 0 0 841.89 1190.55"
   xml:space="preserve"
   inkscape:version="0.91 r13725"
   sodipodi:docname="manzana-grande-2.svg"><metadata
     id="metadata35"><rdf:RDF><cc:Work
         rdf:about=""><dc:format>image/svg+xml</dc:format><dc:type
           rdf:resource="http://purl.org/dc/dcmitype/StillImage" /><dc:title /></cc:Work></rdf:RDF></metadata><defs
     id="defs33" /><sodipodi:namedview
     pagecolor="#ffffff"
     bordercolor="#666666"
     borderopacity="1"
     objecttolerance="10"
     gridtolerance="10"
     guidetolerance="10"
     inkscape:pageopacity="0"
     inkscape:pageshadow="2"
     inkscape:window-width="1215"
     inkscape:window-height="1000"
     id="namedview31"
     showgrid="false"
     units="mm"
     inkscape:zoom="0.2803363"
     inkscape:cx="423.50191"
     inkscape:cy="343.57107"
     inkscape:window-x="65"
     inkscape:window-y="24"
     inkscape:window-maximized="1"
     inkscape:current-layer="Layer_1" /><path
     inkscape:connector-curvature="0"
     id="path19"
     d="m 556.66848,118.88461 c -39.601,-41.093998 -88.682,-63.304998 -143.801,-73.972998 -11.304,-2.185 -22.639,-4.128 -33.971,-6.185 -14.701,0.289 -29.405,0.577 -44.116,0.865 -20.406,8.524 -28.412,23.812 -27.412,45.796 1.956,42.994998 10.904,84.244998 29.048,123.203998 18.63,40.005 45.874,73.214 82.961,97.565 51.777,34.006 109.042,48.306 170.44496,46.884 -9.854,24.78496 -19.59096,49.62196 -29.49296,74.39996 -1.403,3.52 -3.087,6.93 -4.905,10.961 -12.21,-4.401 -23.697,-8.607 -35.236,-12.68 -51.683,-18.233 -104.902,-26.256 -159.617,-22.798 -83.183,5.262 -155.982,35.142 -216.86901,92.82 -41.36,39.179 -70.375997,84.321 -89.424997,134.229 l 1094.546927,0 c -10.723,-33.022 -25.479,-64.628 -45.602,-94.181 -64.737,-95.066 -155.49396,-143.09 -270.38596,-144.42 -67.552,-0.784 -131.673,15.408 -193.145,42.844 -3.485,1.558 -7.107,2.802 -13.873,5.438 7.568,-13.128 13.306,-24.137 19.998,-34.521 37.308,-57.85296 75.434,-115.24696 125.27,-163.34196 26.089,-25.175 54.286,-48.167 81.517,-72.158 4.634,-4.085 9.562,-7.923 13.729,-12.453 9.254,-10.076 7.916,-20.698 -4.56,-26.431 -35.07,-16.117 -70.324,-31.885998 -105.937,-46.732998 -16.631,-6.935 -34.872,0.475 -44.157,15.836 -32.218,53.320998 -60.485,108.654998 -85.574,165.552998 -0.493,-3.146 -1.018,-6.28 -1.64,-9.386 -10.308,-51.565 -30.596,-98.526 -67.79596,-137.134 z"
     style="stroke:#ff0000;fill:none" /></svg>