<?xml version="1.0" encoding="UTF-8" standalone="no"?>
<!-- Generator: Adobe Illustrator 16.0.0, SVG Export Plug-In . SVG Version: 6.00 Build 0)  -->

<svg
   xmlns:dc="http://purl.org/dc/elements/1.1/"
   xmlns:cc="http://creativecommons.org/ns#"
   xmlns:rdf="http://www.w3.org/1999/02/22-rdf-syntax-ns#"
   xmlns:svg="http://www.w3.org/2000/svg"
   xmlns="http://www.w3.org/2000/svg"
   xmlns:sodipodi="http://sodipodi.sourceforge.net/DTD/sodipodi-0.dtd"
   xmlns:inkscape="http://www.inkscape.org/namespaces/inkscape"
   version="1.1"
   id="Layer_1"
   x="0px"
   y="0px"
   width="457.20001mm"
   height="308.39999mm"
   viewBox="0 0 1620 1092.7558"
   enable-background="new 0 0 841.89 1190.55"
   xml:space="preserve"
   inkscape:version="0.91 r13725"
   sodipodi:docname="pala_grande-2.svg"><metadata
     id="metadata35"><rdf:RDF><cc:Work
         rdf:about=""><dc:format>image/svg+xml</dc:format><dc:type
           rdf:resource="http://purl.org/dc/dcmitype/StillImage" /><dc:title /></cc:Work></rdf:RDF></metadata><defs
     id="defs33" /><sodipodi:namedview
     pagecolor="#ffffff"
     bordercolor="#666666"
     borderopacity="1"
     objecttolerance="10"
     gridtolerance="10"
     guidetolerance="10"
     inkscape:pageopacity="0"
     inkscape:pageshadow="2"
     inkscape:window-width="1215"
     inkscape:window-height="1000"
     id="namedview31"
     showgrid="false"
     units="mm"
     inkscape:zoom="0.1982277"
     inkscape:cx="587.51958"
     inkscape:cy="-440.94895"
     inkscape:window-x="65"
     inkscape:window-y="24"
     inkscape:window-maximized="1"
     inkscape:current-layer="Layer_1" /><path
     inkscape:connector-curvature="0"
     id="path11"
     d="m 877.01361,346.70131 c -26.618,-50.492 -53.424,-100.886 -79.81,-151.497 -31.887,-61.17499 -63.405,-122.535994 -95.081,-183.805994 l -4.142,0.357 c -23.784,14.639 -47.579,29.285 -72.902,44.873 19.35,38.092 38.262,75.307004 57.851,113.880994 -122.926,63.067 -245.664,126.046 -368.381,189.006 -0.24,-0.248 -0.49,-0.484 -0.731,-0.737 -93.967,48.215 -187.962,96.443 -282.046,144.714 l 0,128.705 c 52.382,-26.866 104.723,-53.711 157.038,-80.539 0.272,0.239 0.577,0.47 0.848,0.709 181.777,-93.234 363.468,-186.418 545.547,-279.811 21.821,42.106 42.67,82.352 64.245,124.019 26.958,-15.822 52.434,-30.783 77.921,-45.738 l -0.357,-4.136 z"
     style="stroke:#ff0000;fill:none" /></svg>