<?xml version="1.0" encoding="UTF-8" standalone="no"?>
<!-- Generator: Adobe Illustrator 16.0.0, SVG Export Plug-In . SVG Version: 6.00 Build 0)  -->

<svg
   xmlns:dc="http://purl.org/dc/elements/1.1/"
   xmlns:cc="http://creativecommons.org/ns#"
   xmlns:rdf="http://www.w3.org/1999/02/22-rdf-syntax-ns#"
   xmlns:svg="http://www.w3.org/2000/svg"
   xmlns="http://www.w3.org/2000/svg"
   xmlns:sodipodi="http://sodipodi.sourceforge.net/DTD/sodipodi-0.dtd"
   xmlns:inkscape="http://www.inkscape.org/namespaces/inkscape"
   version="1.1"
   id="Layer_1"
   x="0px"
   y="0px"
   width="457.20001mm"
   height="308.39999mm"
   viewBox="0 0 1620 1092.7558"
   enable-background="new 0 0 841.89 1190.55"
   xml:space="preserve"
   inkscape:version="0.91 r13725"
   sodipodi:docname="pala_grande-1.svg"><metadata
     id="metadata35"><rdf:RDF><cc:Work
         rdf:about=""><dc:format>image/svg+xml</dc:format><dc:type
           rdf:resource="http://purl.org/dc/dcmitype/StillImage" /><dc:title></dc:title></cc:Work></rdf:RDF></metadata><defs
     id="defs33" /><sodipodi:namedview
     pagecolor="#ffffff"
     bordercolor="#666666"
     borderopacity="1"
     objecttolerance="10"
     gridtolerance="10"
     guidetolerance="10"
     inkscape:pageopacity="0"
     inkscape:pageshadow="2"
     inkscape:window-width="1215"
     inkscape:window-height="1000"
     id="namedview31"
     showgrid="false"
     units="mm"
     inkscape:zoom="0.1982277"
     inkscape:cx="587.51958"
     inkscape:cy="-440.94895"
     inkscape:window-x="65"
     inkscape:window-y="24"
     inkscape:window-maximized="1"
     inkscape:current-layer="Layer_1" /><path
     inkscape:connector-curvature="0"
     id="path13"
     d="m 767.28941,203.72006 c -9.444,-17.306 -18.178,-33.319 -27.074,-49.62 -23.55,12.527 -45.164,24.022 -67.75,36.04 -29.185,-56.273 -57.358,-110.584002 -85.939,-165.688002 -7.534,3.437 -13.201,5.732 -18.606,8.525 -113.482,58.54 -226.236,118.538002 -340.661,175.166002 -64.25,31.795 -108.055,82.374 -145.730995,140.346 -28.025,43.124 -40.522,91.577 -46.576,142.033 l 5.354,62.104 c 18.469,35.556 31.931,75.096 56.411,105.88 56.422995,70.95302 134.433995,104.72202 224.250995,111.98202 4.599,0.376 9.109,1.881 13.662,2.862 l 70.389,-6.067 c 21.992,-7.662 45.211,-12.916 65.774,-23.379 122.319,-62.23702 244.03,-125.68002 365.916,-188.75402 5.861,-3.035 11.46,-6.563 18.284,-10.491 -28.142,-54.841 -55.35,-107.859 -82.784,-161.332 23.419,-12.975 44.935,-24.9 66.937,-37.097 -6.923,-14.381 -13.026,-27.063 -19.559,-40.643 9.875,-5.064 19.735,-10.122 29.605,-15.185 l 0,-128.702 c -27.294,14.003 -54.592,28.009 -81.903,42.02 z"
     style="stroke:#ff0000;fill:none" /></svg>