<?xml version="1.0" encoding="UTF-8" standalone="no"?>
<!-- Generator: Adobe Illustrator 16.0.0, SVG Export Plug-In . SVG Version: 6.00 Build 0)  -->

<svg
   xmlns:dc="http://purl.org/dc/elements/1.1/"
   xmlns:cc="http://creativecommons.org/ns#"
   xmlns:rdf="http://www.w3.org/1999/02/22-rdf-syntax-ns#"
   xmlns:svg="http://www.w3.org/2000/svg"
   xmlns="http://www.w3.org/2000/svg"
   xmlns:sodipodi="http://sodipodi.sourceforge.net/DTD/sodipodi-0.dtd"
   xmlns:inkscape="http://www.inkscape.org/namespaces/inkscape"
   version="1.1"
   id="Layer_1"
   x="0px"
   y="0px"
   width="457.20001mm"
   height="308.39999mm"
   viewBox="0 0 1620 1092.7559"
   enable-background="new 0 0 340.16 425.2"
   xml:space="preserve"
   inkscape:version="0.91 r13725"
   sodipodi:docname="pala-A4.svg"><metadata
     id="metadata19"><rdf:RDF><cc:Work
         rdf:about=""><dc:format>image/svg+xml</dc:format><dc:type
           rdf:resource="http://purl.org/dc/dcmitype/StillImage" /><dc:title></dc:title></cc:Work></rdf:RDF></metadata><defs
     id="defs17" /><sodipodi:namedview
     pagecolor="#ffffff"
     bordercolor="#666666"
     borderopacity="1"
     objecttolerance="10"
     gridtolerance="10"
     guidetolerance="10"
     inkscape:pageopacity="0"
     inkscape:pageshadow="2"
     inkscape:window-width="1215"
     inkscape:window-height="1000"
     id="namedview15"
     showgrid="false"
     inkscape:zoom="0.39246753"
     inkscape:cx="752.23048"
     inkscape:cy="548.92058"
     inkscape:window-x="65"
     inkscape:window-y="24"
     inkscape:window-maximized="1"
     inkscape:current-layer="Layer_1"
     units="mm"
     width="457.2mm" /><path
     d="M 116.66015,26.234439 C 98.917177,26.122227 81.172497,25.905987 63.431667,25.733996 l -0.41714,0.984945 c 0.46728,7.168489 0.93412,14.339773 1.43148,21.973067 10.98598,0.183319 21.72337,0.363781 32.84912,0.55022 -0.45163,35.534333 -0.90303,71.016462 -1.3529,106.488812 -0.0843,0.027 -0.17008,0.0537 -0.25619,0.0783 -0.44641,35.04496 -0.88957,70.10116 -1.33775,105.2081 -5.07078,0.0649 -9.76109,0.12657 -14.53876,0.18402 0.0148,6.8613 0.028,13.15774 0.041,19.74039 -16.30398,-0.13471 -32.04058,-0.26425 -48.00554,-0.3978 -0.12656,2.12641 -0.2866,3.69016 -0.30247,5.25628 -0.3457,32.84083 -0.27171,65.69323 -1.16511,98.52192 -0.5011,18.43103 5.72583,34.47723 14.37157,50.0163 6.43332,11.55999 15.94459,20.23222 26.68623,27.67808 l 14.76439,6.25565 c 10.30558,0.0811 20.914133,1.77653 30.858763,-0.0833 22.9191,-4.29066 39.98153,-17.96286 52.43825,-37.50895 0.64076,-1.00099 1.52481,-1.84539 2.29693,-2.76156 l 7.08913,-16.73368 c 0.9047,-5.92192 2.5031,-11.83191 2.59947,-17.76498 0.56653,-35.2975 0.78811,-70.59922 1.11348,-105.90129 0.0155,-1.69714 -0.11206,-3.39503 -0.18501,-5.41648 -15.85411,-0.20219 -31.18009,-0.39529 -46.63923,-0.59262 -0.13016,-6.88352 -0.25177,-13.20969 -0.3788,-19.68054 -4.1034,-0.15548 -7.71975,-0.29536 -11.59183,-0.44279 0.2312,-18.00212 0.46307,-35.97623 0.69353,-53.95056 0.0872,-0.0315 0.17672,-0.0734 0.26472,-0.10555 0.67523,-52.54367 1.34935,-105.06175 2.02607,-157.693205 12.19882,0.105629 23.85586,0.207197 35.92522,0.317035 -0.35305,-8.032349 -0.68952,-15.623464 -1.02394,-23.218551 l -0.98296,-0.41612 c -14.68079,-0.02555 -29.36248,0.0053 -44.04328,-0.08465 z"
     id="path7"
     inkscape:connector-curvature="0"
     style="clip-rule:evenodd;fill:none;fill-rule:evenodd;stroke:#ff0000" /><path
     d="m 209.96576,483.45633 c -17.74052,-0.3155 -35.48526,-0.52704 -53.22508,-0.78272 l -0.39328,-0.99471 c 0.63994,-7.15515 1.2795,-14.3131 1.96071,-21.93218 10.9872,0.0815 21.72582,0.15994 32.85283,0.24173 0.40503,-35.53489 0.80902,-71.01759 1.21431,-106.49049 -0.0836,-0.029 -0.16874,-0.0578 -0.25423,-0.0844 0.39844,-35.04554 0.80041,-70.10224 1.19857,-105.20978 -5.06774,-0.18711 -9.7552,-0.36181 -14.5301,-0.53441 0.18018,-6.85895 0.34515,-13.15324 0.51681,-19.73366 -16.30249,-0.25832 -32.03764,-0.50814 -48.00118,-0.75945 -0.0753,-2.12884 -0.19757,-3.69599 -0.17568,-5.26204 0.446,-32.83962 1.31184,-65.68069 1.21,-98.52138 -0.0567,-18.43775 6.55521,-34.329192 15.57299,-49.65535 6.71009,-11.401563 16.42763,-19.842013 27.34563,-27.026793 l 14.91089,-5.897952 c 10.30454,0.16733 20.95087,-1.271899 30.84778,0.827096 22.80902,4.841856 39.53694,18.921357 51.5189,38.762025 0.61645,1.016144 1.47989,1.881608 2.2297,2.816123 l 6.68372,16.899691 c 0.76169,5.94201 2.21718,11.88881 2.17051,17.82248 -0.28445,35.3009 -0.91385,70.5977 -1.43949,105.89736 -0.0254,1.69702 -0.19386,3.39134 -0.31552,5.41044 -15.85438,-0.18001 -31.18056,-0.35639 -46.63996,-0.53174 -0.29605,6.87838 -0.57011,13.19978 -0.85307,19.66569 -4.10596,0.0565 -7.72463,0.1092 -11.59914,0.16325 -0.20279,18.00246 -0.40423,35.97694 -0.60709,53.9516 0.0864,0.0336 0.17489,0.0776 0.26209,0.1119 -0.59148,52.54468 -1.18345,105.06376 -1.77555,157.69623 12.19782,0.18844 23.85392,0.3679 35.92242,0.54901 -0.54656,8.0215 -1.06591,15.6023 -1.5833,23.18712 l -0.99271,0.39231 c -14.67714,-0.32828 -29.35383,-0.71276 -44.03252,-0.97695 z"
     id="path7-3"
     inkscape:connector-curvature="0"
     style="clip-rule:evenodd;fill:none;fill-rule:evenodd;stroke:#ff0000" /><path
     d="m 102.24659,471.95012 c -17.742973,-0.11221 -35.487653,-0.32845 -53.228483,-0.50044 l -0.41714,0.98495 c 0.46728,7.16848 0.93412,14.33977 1.43148,21.97306 10.98598,0.18332 21.72337,0.36378 32.84912,0.55022 -0.45163,35.53434 -0.90303,71.01647 -1.3529,106.48882 -0.0843,0.027 -0.17008,0.0537 -0.25619,0.0783 -0.44641,35.04496 -0.88957,70.10116 -1.33775,105.2081 -5.07078,0.0649 -9.76109,0.12657 -14.53876,0.18402 0.0148,6.8613 0.028,13.15774 0.041,19.74039 -16.30398,-0.13471 -32.04058,-0.26425 -48.00554,-0.3978 -0.12656,2.12641 -0.2866,3.69016 -0.30247,5.25628 -0.3457,32.84083 -0.27171,65.69323 -1.16511,98.52192 -0.5011,18.43103 5.72583,34.47723 14.37157,50.0163 6.43332,11.55999 15.94459,20.23222 26.68623,27.67808 l 14.76439,6.25565 c 10.30558,0.0811 20.914133,1.77653 30.858763,-0.0833 22.9191,-4.29066 39.98153,-17.96286 52.43825,-37.50895 0.64076,-1.00099 1.52481,-1.84539 2.29693,-2.76156 l 7.08913,-16.73368 c 0.9047,-5.92192 2.5031,-11.83191 2.59947,-17.76498 0.56653,-35.2975 0.78811,-70.59922 1.11348,-105.90129 0.0155,-1.69714 -0.11206,-3.39503 -0.18501,-5.41648 -15.85411,-0.20219 -31.18009,-0.39529 -46.63923,-0.59262 -0.13016,-6.88352 -0.25177,-13.20969 -0.3788,-19.68054 -4.1034,-0.15548 -7.71975,-0.29536 -11.59183,-0.44279 0.2312,-18.00212 0.46307,-35.97623 0.69353,-53.95056 0.0872,-0.0315 0.17672,-0.0734 0.26472,-0.10555 0.67523,-52.54367 1.34935,-105.06175 2.02607,-157.69321 12.19882,0.10563 23.85586,0.2072 35.92522,0.31703 -0.35305,-8.03234 -0.68952,-15.62346 -1.02394,-23.21855 l -0.98296,-0.41612 c -14.68079,-0.0255 -29.36248,0.005 -44.04328,-0.0846 z"
     id="path7-6"
     inkscape:connector-curvature="0"
     style="clip-rule:evenodd;fill:none;fill-rule:evenodd;stroke:#ff0000" /><path
     d="m 195.5522,929.17202 c -17.74052,-0.3155 -35.48526,-0.52704 -53.22508,-0.78272 l -0.39328,-0.99471 c 0.63994,-7.15515 1.2795,-14.3131 1.96071,-21.93218 10.9872,0.0815 21.72582,0.15994 32.85283,0.24173 0.40503,-35.53489 0.80902,-71.01759 1.21431,-106.49049 -0.0836,-0.029 -0.16874,-0.0578 -0.25423,-0.0844 0.39844,-35.04554 0.80041,-70.10224 1.19857,-105.20978 -5.06774,-0.18711 -9.7552,-0.36181 -14.5301,-0.53441 0.18018,-6.85895 0.34515,-13.15324 0.51681,-19.73366 -16.30249,-0.25832 -32.03764,-0.50814 -48.00118,-0.75945 -0.0753,-2.12884 -0.19757,-3.69599 -0.17568,-5.26204 0.446,-32.83962 1.31184,-65.68069 1.21,-98.52138 -0.0567,-18.43775 6.55521,-34.3292 15.57299,-49.65536 6.71009,-11.40156 16.42763,-19.84201 27.34563,-27.02679 l 14.91089,-5.89795 c 10.30454,0.16733 20.95087,-1.2719 30.84778,0.8271 22.80902,4.84185 39.53694,18.92135 51.5189,38.76202 0.61645,1.01614 1.47989,1.88161 2.2297,2.81612 l 6.68372,16.8997 c 0.76169,5.94201 2.21718,11.88881 2.17051,17.82248 -0.28445,35.3009 -0.91385,70.5977 -1.43949,105.89736 -0.0254,1.69702 -0.19386,3.39134 -0.31552,5.41044 -15.85438,-0.18001 -31.18056,-0.35639 -46.63996,-0.53174 -0.29605,6.87838 -0.57011,13.19978 -0.85307,19.66569 -4.10596,0.0565 -7.72463,0.1092 -11.59914,0.16325 -0.20279,18.00246 -0.40423,35.97694 -0.60709,53.9516 0.0864,0.0336 0.17489,0.0776 0.26209,0.1119 -0.59148,52.54468 -1.18345,105.06376 -1.77555,157.69623 12.19782,0.18844 23.85392,0.3679 35.92242,0.54901 -0.54656,8.0215 -1.06591,15.6023 -1.5833,23.18712 l -0.99271,0.39231 c -14.67714,-0.32828 -29.35383,-0.71276 -44.03252,-0.97695 z"
     id="path7-3-7"
     inkscape:connector-curvature="0"
     style="clip-rule:evenodd;fill:none;fill-rule:evenodd;stroke:#ff0000" /><path
     d="m 331.06185,26.234448 c -17.74298,-0.112212 -35.48766,-0.328452 -53.22849,-0.500443 l -0.41714,0.984945 c 0.46728,7.168489 0.93412,14.339773 1.43148,21.973067 10.98598,0.183319 21.72337,0.363781 32.84912,0.55022 -0.45163,35.534333 -0.90303,71.016463 -1.3529,106.488813 -0.0843,0.027 -0.17008,0.0537 -0.25619,0.0783 -0.44641,35.04496 -0.88957,70.10116 -1.33775,105.2081 -5.07078,0.0649 -9.76109,0.12657 -14.53876,0.18402 0.0148,6.8613 0.028,13.15774 0.041,19.74039 -16.30398,-0.13471 -32.04058,-0.26425 -48.00554,-0.3978 -0.12656,2.12641 -0.2866,3.69016 -0.30247,5.25628 -0.3457,32.84083 -0.27171,65.69323 -1.16511,98.52192 -0.5011,18.43103 5.72583,34.47723 14.37157,50.0163 6.43332,11.55999 15.94459,20.23222 26.68623,27.67808 l 14.76439,6.25565 c 10.30558,0.0811 20.91414,1.77653 30.85877,-0.0833 22.9191,-4.29066 39.98153,-17.96286 52.43825,-37.50895 0.64076,-1.00099 1.52481,-1.84539 2.29693,-2.76156 l 7.08913,-16.73368 c 0.9047,-5.92192 2.5031,-11.83191 2.59947,-17.76498 0.56653,-35.2975 0.78811,-70.59922 1.11348,-105.90129 0.0155,-1.69714 -0.11206,-3.39503 -0.18501,-5.41648 -15.85411,-0.20219 -31.18009,-0.39529 -46.63923,-0.59262 -0.13016,-6.88352 -0.25177,-13.20969 -0.3788,-19.68054 -4.1034,-0.15548 -7.71975,-0.29536 -11.59183,-0.44279 0.2312,-18.00212 0.46307,-35.97623 0.69353,-53.95056 0.0872,-0.0315 0.17672,-0.0734 0.26472,-0.10555 0.67523,-52.54367 1.34935,-105.06175 2.02607,-157.693206 12.19882,0.105629 23.85586,0.207197 35.92522,0.317035 -0.35305,-8.032349 -0.68952,-15.623464 -1.02394,-23.218551 l -0.98296,-0.41612 c -14.68079,-0.02555 -29.36248,0.0053 -44.04328,-0.08465 z"
     id="path7-5"
     inkscape:connector-curvature="0"
     style="clip-rule:evenodd;fill:none;fill-rule:evenodd;stroke:#ff0000" /><path
     d="m 431.57424,483.45634 c -17.74052,-0.3155 -35.48526,-0.52704 -53.22508,-0.78272 l -0.39328,-0.99471 c 0.63994,-7.15515 1.2795,-14.3131 1.96071,-21.93218 10.9872,0.0815 21.72582,0.15994 32.85283,0.24173 0.40503,-35.53489 0.80902,-71.01759 1.21431,-106.49049 -0.0836,-0.029 -0.16874,-0.0578 -0.25423,-0.0844 0.39844,-35.04554 0.80041,-70.10224 1.19857,-105.20978 -5.06774,-0.18711 -9.7552,-0.36181 -14.5301,-0.53441 0.18018,-6.85895 0.34515,-13.15324 0.51681,-19.73366 -16.30249,-0.25832 -32.03764,-0.50814 -48.00118,-0.75945 -0.0753,-2.12884 -0.19757,-3.69599 -0.17568,-5.26204 0.446,-32.83962 1.31184,-65.68069 1.21,-98.52138 -0.0567,-18.43775 6.55521,-34.329193 15.57299,-49.655351 6.71009,-11.401563 16.42763,-19.842013 27.34563,-27.026793 l 14.91089,-5.897952 c 10.30454,0.16733 20.95087,-1.271899 30.84778,0.827096 22.80902,4.841856 39.53694,18.921357 51.5189,38.762025 0.61645,1.016144 1.47989,1.881608 2.2297,2.816123 l 6.68372,16.899692 c 0.76169,5.94201 2.21718,11.88881 2.17051,17.82248 -0.28445,35.3009 -0.91385,70.5977 -1.43949,105.89736 -0.0254,1.69702 -0.19386,3.39134 -0.31552,5.41044 -15.85438,-0.18001 -31.18056,-0.35639 -46.63996,-0.53174 -0.29605,6.87838 -0.57011,13.19978 -0.85307,19.66569 -4.10596,0.0565 -7.72463,0.1092 -11.59914,0.16325 -0.20279,18.00246 -0.40423,35.97694 -0.60709,53.9516 0.0864,0.0336 0.17489,0.0776 0.26209,0.1119 -0.59148,52.54468 -1.18345,105.06376 -1.77555,157.69623 12.19782,0.18844 23.85392,0.3679 35.92242,0.54901 -0.54656,8.0215 -1.06591,15.6023 -1.5833,23.18712 l -0.99271,0.39231 c -14.67714,-0.32828 -29.35383,-0.71276 -44.03252,-0.97695 z"
     id="path7-3-3"
     inkscape:connector-curvature="0"
     style="clip-rule:evenodd;fill:none;fill-rule:evenodd;stroke:#ff0000" /><path
     d="m 316.64829,471.95013 c -17.74298,-0.11221 -35.48766,-0.32845 -53.22849,-0.50044 l -0.41714,0.98495 c 0.46728,7.16848 0.93412,14.33977 1.43148,21.97306 10.98598,0.18332 21.72337,0.36378 32.84912,0.55022 -0.45163,35.53434 -0.90303,71.01647 -1.3529,106.48882 -0.0843,0.027 -0.17008,0.0537 -0.25619,0.0783 -0.44641,35.04496 -0.88957,70.10116 -1.33775,105.2081 -5.07078,0.0649 -9.76109,0.12657 -14.53876,0.18402 0.0148,6.8613 0.028,13.15774 0.041,19.74039 -16.30398,-0.13471 -32.04058,-0.26425 -48.00554,-0.3978 -0.12656,2.12641 -0.2866,3.69016 -0.30247,5.25628 -0.3457,32.84083 -0.27171,65.69323 -1.16511,98.52192 -0.5011,18.43103 5.72583,34.47723 14.37157,50.0163 6.43332,11.55999 15.94459,20.23222 26.68623,27.67808 l 14.76439,6.25565 c 10.30558,0.0811 20.91414,1.77653 30.85877,-0.0833 22.9191,-4.29066 39.98153,-17.96286 52.43825,-37.50895 0.64076,-1.00099 1.52481,-1.84539 2.29693,-2.76156 l 7.08913,-16.73368 c 0.9047,-5.92192 2.5031,-11.83191 2.59947,-17.76498 0.56653,-35.2975 0.78811,-70.59922 1.11348,-105.90129 0.0155,-1.69714 -0.11206,-3.39503 -0.18501,-5.41648 -15.85411,-0.20219 -31.18009,-0.39529 -46.63923,-0.59262 -0.13016,-6.88352 -0.25177,-13.20969 -0.3788,-19.68054 -4.1034,-0.15548 -7.71975,-0.29536 -11.59183,-0.44279 0.2312,-18.00212 0.46307,-35.97623 0.69353,-53.95056 0.0872,-0.0315 0.17672,-0.0734 0.26472,-0.10555 0.67523,-52.54367 1.34935,-105.06175 2.02607,-157.69321 12.19882,0.10563 23.85586,0.2072 35.92522,0.31703 -0.35305,-8.03234 -0.68952,-15.62346 -1.02394,-23.21855 l -0.98296,-0.41612 c -14.68079,-0.0255 -29.36248,0.005 -44.04328,-0.0846 z"
     id="path7-6-5"
     inkscape:connector-curvature="0"
     style="clip-rule:evenodd;fill:none;fill-rule:evenodd;stroke:#ff0000" /><path
     d="m 417.16068,929.17203 c -17.74052,-0.3155 -35.48526,-0.52704 -53.22508,-0.78272 l -0.39328,-0.99471 c 0.63994,-7.15515 1.2795,-14.3131 1.96071,-21.93218 10.9872,0.0815 21.72582,0.15994 32.85283,0.24173 0.40503,-35.53489 0.80902,-71.01759 1.21431,-106.49049 -0.0836,-0.029 -0.16874,-0.0578 -0.25423,-0.0844 0.39844,-35.04554 0.80041,-70.10224 1.19857,-105.20978 -5.06774,-0.18711 -9.7552,-0.36181 -14.5301,-0.53441 0.18018,-6.85895 0.34515,-13.15324 0.51681,-19.73366 -16.30249,-0.25832 -32.03764,-0.50814 -48.00118,-0.75945 -0.0753,-2.12884 -0.19757,-3.69599 -0.17568,-5.26204 0.446,-32.83962 1.31184,-65.68069 1.21,-98.52138 -0.0567,-18.43775 6.55521,-34.3292 15.57299,-49.65536 6.71009,-11.40156 16.42763,-19.84201 27.34563,-27.02679 l 14.91089,-5.89795 c 10.30454,0.16733 20.95087,-1.2719 30.84778,0.8271 22.80902,4.84185 39.53694,18.92135 51.5189,38.76202 0.61645,1.01614 1.47989,1.88161 2.2297,2.81612 l 6.68372,16.8997 c 0.76169,5.94201 2.21718,11.88881 2.17051,17.82248 -0.28445,35.3009 -0.91385,70.5977 -1.43949,105.89736 -0.0254,1.69702 -0.19386,3.39134 -0.31552,5.41044 -15.85438,-0.18001 -31.18056,-0.35639 -46.63996,-0.53174 -0.29605,6.87838 -0.57011,13.19978 -0.85307,19.66569 -4.10596,0.0565 -7.72463,0.1092 -11.59914,0.16325 -0.20279,18.00246 -0.40423,35.97694 -0.60709,53.9516 0.0864,0.0336 0.17489,0.0776 0.26209,0.1119 -0.59148,52.54468 -1.18345,105.06376 -1.77555,157.69623 12.19782,0.18844 23.85392,0.3679 35.92242,0.54901 -0.54656,8.0215 -1.06591,15.6023 -1.5833,23.18712 l -0.99271,0.39231 c -14.67714,-0.32828 -29.35383,-0.71276 -44.03252,-0.97695 z"
     id="path7-3-7-6"
     inkscape:connector-curvature="0"
     style="clip-rule:evenodd;fill:none;fill-rule:evenodd;stroke:#ff0000" /><path
     d="m 556.27372,26.234448 c -17.74298,-0.112212 -35.48766,-0.328452 -53.22849,-0.500443 l -0.41714,0.984945 c 0.46728,7.168489 0.93412,14.339773 1.43148,21.973067 10.98598,0.183319 21.72337,0.363781 32.84912,0.55022 -0.45163,35.534333 -0.90303,71.016463 -1.3529,106.488813 -0.0843,0.027 -0.17008,0.0537 -0.25619,0.0783 -0.44641,35.04496 -0.88957,70.10116 -1.33775,105.2081 -5.07078,0.0649 -9.76109,0.12657 -14.53876,0.18402 0.0148,6.8613 0.028,13.15774 0.041,19.74039 -16.30398,-0.13471 -32.04058,-0.26425 -48.00554,-0.3978 -0.12656,2.12641 -0.2866,3.69016 -0.30247,5.25628 -0.3457,32.84083 -0.27171,65.69323 -1.16511,98.52192 -0.5011,18.43103 5.72583,34.47723 14.37157,50.0163 6.43332,11.55999 15.94459,20.23222 26.68623,27.67808 l 14.76439,6.25565 c 10.30558,0.0811 20.91414,1.77653 30.85877,-0.0833 22.9191,-4.29066 39.98153,-17.96286 52.43825,-37.50895 0.64076,-1.00099 1.52481,-1.84539 2.29693,-2.76156 l 7.08913,-16.73368 c 0.9047,-5.92192 2.5031,-11.83191 2.59947,-17.76498 0.56653,-35.2975 0.78811,-70.59922 1.11348,-105.90129 0.0155,-1.69714 -0.11206,-3.39503 -0.18501,-5.41648 -15.85411,-0.20219 -31.18009,-0.39529 -46.63923,-0.59262 -0.13016,-6.88352 -0.25177,-13.20969 -0.3788,-19.68054 -4.1034,-0.15548 -7.71975,-0.29536 -11.59183,-0.44279 0.2312,-18.00212 0.46307,-35.97623 0.69353,-53.95056 0.0872,-0.0315 0.17672,-0.0734 0.26472,-0.10555 0.67523,-52.54367 1.34935,-105.06175 2.02607,-157.693206 12.19882,0.105629 23.85586,0.207197 35.92522,0.317035 -0.35305,-8.032349 -0.68952,-15.623464 -1.02394,-23.218551 l -0.98296,-0.41612 c -14.68079,-0.02555 -29.36248,0.0053 -44.04328,-0.08465 z"
     id="path7-5-2"
     inkscape:connector-curvature="0"
     style="clip-rule:evenodd;fill:none;fill-rule:evenodd;stroke:#ff0000" /><path
     d="m 649.57933,483.45634 c -17.74052,-0.3155 -35.48526,-0.52704 -53.22508,-0.78272 l -0.39328,-0.99471 c 0.63994,-7.15515 1.2795,-14.3131 1.96071,-21.93218 10.9872,0.0815 21.72582,0.15994 32.85283,0.24173 0.40503,-35.53489 0.80902,-71.01759 1.21431,-106.49049 -0.0836,-0.029 -0.16874,-0.0578 -0.25423,-0.0844 0.39844,-35.04554 0.80041,-70.10224 1.19857,-105.20978 -5.06774,-0.18711 -9.7552,-0.36181 -14.5301,-0.53441 0.18018,-6.85895 0.34515,-13.15324 0.51681,-19.73366 -16.30249,-0.25832 -32.03764,-0.50814 -48.00118,-0.75945 -0.0753,-2.12884 -0.19757,-3.69599 -0.17568,-5.26204 0.446,-32.83962 1.31184,-65.68069 1.21,-98.52138 -0.0567,-18.43775 6.55521,-34.329193 15.57299,-49.655351 6.71009,-11.401563 16.42763,-19.842013 27.34563,-27.026793 l 14.91089,-5.897952 c 10.30454,0.16733 20.95087,-1.271899 30.84778,0.827096 22.80902,4.841856 39.53694,18.921357 51.5189,38.762025 0.61645,1.016144 1.47989,1.881608 2.2297,2.816123 l 6.68372,16.899692 c 0.76169,5.94201 2.21718,11.88881 2.17051,17.82248 -0.28445,35.3009 -0.91385,70.5977 -1.43949,105.89736 -0.0254,1.69702 -0.19386,3.39134 -0.31552,5.41044 -15.85438,-0.18001 -31.18056,-0.35639 -46.63996,-0.53174 -0.29605,6.87838 -0.57011,13.19978 -0.85307,19.66569 -4.10596,0.0565 -7.72463,0.1092 -11.59914,0.16325 -0.20279,18.00246 -0.40423,35.97694 -0.60709,53.9516 0.0864,0.0336 0.17489,0.0776 0.26209,0.1119 -0.59148,52.54468 -1.18345,105.06376 -1.77555,157.69623 12.19782,0.18844 23.85392,0.3679 35.92242,0.54901 -0.54656,8.0215 -1.06591,15.6023 -1.5833,23.18712 l -0.99271,0.39231 c -14.67714,-0.32828 -29.35383,-0.71276 -44.03252,-0.97695 z"
     id="path7-3-3-9"
     inkscape:connector-curvature="0"
     style="clip-rule:evenodd;fill:none;fill-rule:evenodd;stroke:#ff0000" /><path
     d="m 541.86016,471.95013 c -17.74298,-0.11221 -35.48766,-0.32845 -53.22849,-0.50044 l -0.41714,0.98495 c 0.46728,7.16848 0.93412,14.33977 1.43148,21.97306 10.98598,0.18332 21.72337,0.36378 32.84912,0.55022 -0.45163,35.53434 -0.90303,71.01647 -1.3529,106.48882 -0.0843,0.027 -0.17008,0.0537 -0.25619,0.0783 -0.44641,35.04496 -0.88957,70.10116 -1.33775,105.2081 -5.07078,0.0649 -9.76109,0.12657 -14.53876,0.18402 0.0148,6.8613 0.028,13.15774 0.041,19.74039 -16.30398,-0.13471 -32.04058,-0.26425 -48.00554,-0.3978 -0.12656,2.12641 -0.2866,3.69016 -0.30247,5.25628 -0.3457,32.84083 -0.27171,65.69323 -1.16511,98.52192 -0.5011,18.43103 5.72583,34.47723 14.37157,50.0163 6.43332,11.55999 15.94459,20.23222 26.68623,27.67808 l 14.76439,6.25565 c 10.30558,0.0811 20.91414,1.77653 30.85877,-0.0833 22.9191,-4.29066 39.98153,-17.96286 52.43825,-37.50895 0.64076,-1.00099 1.52481,-1.84539 2.29693,-2.76156 l 7.08913,-16.73368 c 0.9047,-5.92192 2.5031,-11.83191 2.59947,-17.76498 0.56653,-35.2975 0.78811,-70.59922 1.11348,-105.90129 0.0155,-1.69714 -0.11206,-3.39503 -0.18501,-5.41648 -15.85411,-0.20219 -31.18009,-0.39529 -46.63923,-0.59262 -0.13016,-6.88352 -0.25177,-13.20969 -0.3788,-19.68054 -4.1034,-0.15548 -7.71975,-0.29536 -11.59183,-0.44279 0.2312,-18.00212 0.46307,-35.97623 0.69353,-53.95056 0.0872,-0.0315 0.17672,-0.0734 0.26472,-0.10555 0.67523,-52.54367 1.34935,-105.06175 2.02607,-157.69321 12.19882,0.10563 23.85586,0.2072 35.92522,0.31703 -0.35305,-8.03234 -0.68952,-15.62346 -1.02394,-23.21855 l -0.98296,-0.41612 c -14.68079,-0.0255 -29.36248,0.005 -44.04328,-0.0846 z"
     id="path7-6-5-1"
     inkscape:connector-curvature="0"
     style="clip-rule:evenodd;fill:none;fill-rule:evenodd;stroke:#ff0000" /><path
     d="m 635.16577,929.17203 c -17.74052,-0.3155 -35.48526,-0.52704 -53.22508,-0.78272 l -0.39328,-0.99471 c 0.63994,-7.15515 1.2795,-14.3131 1.96071,-21.93218 10.9872,0.0815 21.72582,0.15994 32.85283,0.24173 0.40503,-35.53489 0.80902,-71.01759 1.21431,-106.49049 -0.0836,-0.029 -0.16874,-0.0578 -0.25423,-0.0844 0.39844,-35.04554 0.80041,-70.10224 1.19857,-105.20978 -5.06774,-0.18711 -9.7552,-0.36181 -14.5301,-0.53441 0.18018,-6.85895 0.34515,-13.15324 0.51681,-19.73366 -16.30249,-0.25832 -32.03764,-0.50814 -48.00118,-0.75945 -0.0753,-2.12884 -0.19757,-3.69599 -0.17568,-5.26204 0.446,-32.83962 1.31184,-65.68069 1.21,-98.52138 -0.0567,-18.43775 6.55521,-34.3292 15.57299,-49.65536 6.71009,-11.40156 16.42763,-19.84201 27.34563,-27.02679 l 14.91089,-5.89795 c 10.30454,0.16733 20.95087,-1.2719 30.84778,0.8271 22.80902,4.84185 39.53694,18.92135 51.5189,38.76202 0.61645,1.01614 1.47989,1.88161 2.2297,2.81612 l 6.68372,16.8997 c 0.76169,5.94201 2.21718,11.88881 2.17051,17.82248 -0.28445,35.3009 -0.91385,70.5977 -1.43949,105.89736 -0.0254,1.69702 -0.19386,3.39134 -0.31552,5.41044 -15.85438,-0.18001 -31.18056,-0.35639 -46.63996,-0.53174 -0.29605,6.87838 -0.57011,13.19978 -0.85307,19.66569 -4.10596,0.0565 -7.72463,0.1092 -11.59914,0.16325 -0.20279,18.00246 -0.40423,35.97694 -0.60709,53.9516 0.0864,0.0336 0.17489,0.0776 0.26209,0.1119 -0.59148,52.54468 -1.18345,105.06376 -1.77555,157.69623 12.19782,0.18844 23.85392,0.3679 35.92242,0.54901 -0.54656,8.0215 -1.06591,15.6023 -1.5833,23.18712 l -0.99271,0.39231 c -14.67714,-0.32828 -29.35383,-0.71276 -44.03252,-0.97695 z"
     id="path7-3-7-6-2"
     inkscape:connector-curvature="0"
     style="clip-rule:evenodd;fill:none;fill-rule:evenodd;stroke:#ff0000" /></svg>