<?xml version="1.0" encoding="UTF-8" standalone="no"?>
<!-- Generator: Adobe Illustrator 16.0.0, SVG Export Plug-In . SVG Version: 6.00 Build 0)  -->

<svg
   xmlns:dc="http://purl.org/dc/elements/1.1/"
   xmlns:cc="http://creativecommons.org/ns#"
   xmlns:rdf="http://www.w3.org/1999/02/22-rdf-syntax-ns#"
   xmlns:svg="http://www.w3.org/2000/svg"
   xmlns="http://www.w3.org/2000/svg"
   xmlns:sodipodi="http://sodipodi.sourceforge.net/DTD/sodipodi-0.dtd"
   xmlns:inkscape="http://www.inkscape.org/namespaces/inkscape"
   version="1.1"
   id="Layer_1"
   x="0px"
   y="0px"
   width="457.20001mm"
   height="308.39999mm"
   viewBox="0 0 1620 1092.7558"
   enable-background="new 0 0 841.89 1190.55"
   xml:space="preserve"
   inkscape:version="0.91 r13725"
   sodipodi:docname="pera_grande-1.svg"><metadata
     id="metadata35"><rdf:RDF><cc:Work
         rdf:about=""><dc:format>image/svg+xml</dc:format><dc:type
           rdf:resource="http://purl.org/dc/dcmitype/StillImage" /><dc:title /></cc:Work></rdf:RDF></metadata><defs
     id="defs33" /><sodipodi:namedview
     pagecolor="#ffffff"
     bordercolor="#666666"
     borderopacity="1"
     objecttolerance="10"
     gridtolerance="10"
     guidetolerance="10"
     inkscape:pageopacity="0"
     inkscape:pageshadow="2"
     inkscape:window-width="1215"
     inkscape:window-height="1000"
     id="namedview31"
     showgrid="false"
     units="mm"
     inkscape:zoom="0.2803363"
     inkscape:cx="567.62767"
     inkscape:cy="65.384779"
     inkscape:window-x="65"
     inkscape:window-y="24"
     inkscape:window-maximized="1"
     inkscape:current-layer="Layer_1" /><path
     inkscape:connector-curvature="0"
     id="path5"
     d="m 117.20708,166.23812 c -5.634,56.062 -10.542,112.283 -13.003,168.555 -3.046,69.573 12.406,136.131 39.275,200.205 33.478,79.853 79.323,151.269 145.907,207.448 91.512,77.2 197.604,115.231 317.655,114.039 75.465,-0.751 146.091,-19.938 213.094,-53.854 1.951,-0.987 4.271,-1.253 6.428,-1.854 18.345,-11.581 36.68,-23.159 55.024,-34.74 22.188,-20.404 45.349,-39.849 66.347,-61.406 42.029,-43.152 72.81202,-93.807 94.90302,-149.805 32.219,-81.669 41.128,-166.025 27.253,-252.484 -11.906,-74.259 -41.154,-141.449 -83.54702,-202.637002 l -867.855,0 c 1.433,21.894002 0.773,44.090002 -1.481,66.533002 z"
     style="stroke:#ff0000;fill:none" /></svg>