<?xml version="1.0" encoding="UTF-8" standalone="no"?>
<!-- Generator: Adobe Illustrator 16.0.0, SVG Export Plug-In . SVG Version: 6.00 Build 0)  -->

<svg
   xmlns:dc="http://purl.org/dc/elements/1.1/"
   xmlns:cc="http://creativecommons.org/ns#"
   xmlns:rdf="http://www.w3.org/1999/02/22-rdf-syntax-ns#"
   xmlns:svg="http://www.w3.org/2000/svg"
   xmlns="http://www.w3.org/2000/svg"
   xmlns:sodipodi="http://sodipodi.sourceforge.net/DTD/sodipodi-0.dtd"
   xmlns:inkscape="http://www.inkscape.org/namespaces/inkscape"
   version="1.1"
   id="Layer_1"
   x="0px"
   y="0px"
   width="457.20001mm"
   height="308.39999mm"
   viewBox="0 0 1620 1092.7558"
   enable-background="new 0 0 841.89 1190.55"
   xml:space="preserve"
   inkscape:version="0.91 r13725"
   sodipodi:docname="pera_grande-2.svg"><metadata
     id="metadata35"><rdf:RDF><cc:Work
         rdf:about=""><dc:format>image/svg+xml</dc:format><dc:type
           rdf:resource="http://purl.org/dc/dcmitype/StillImage" /><dc:title></dc:title></cc:Work></rdf:RDF></metadata><defs
     id="defs33" /><sodipodi:namedview
     pagecolor="#ffffff"
     bordercolor="#666666"
     borderopacity="1"
     objecttolerance="10"
     gridtolerance="10"
     guidetolerance="10"
     inkscape:pageopacity="0"
     inkscape:pageshadow="2"
     inkscape:window-width="1215"
     inkscape:window-height="1000"
     id="namedview31"
     showgrid="false"
     units="mm"
     inkscape:zoom="0.3964554"
     inkscape:cx="697.52696"
     inkscape:cy="411.153"
     inkscape:window-x="65"
     inkscape:window-y="24"
     inkscape:window-maximized="1"
     inkscape:current-layer="Layer_1" /><path
     inkscape:connector-curvature="0"
     id="path7"
     d="m 153.30663,98.975959 c -5.071,20.482001 -10.975,40.797001 -15.049,61.479001 -11.732,59.496 -10.025,118.778 6.133,177.3 2.934,10.626 1.918,17.629 -6.268,25.617 -32.128,31.346 -44.062001,70.546 -41.662001,114.633 3.086,56.844 24.656001,108.131 47.563001,159.124 23.75,52.859 47.348,105.808 69.838,159.216 12.801,30.401 19.426,61.646 21.514,93.549 l 850.89097,0 c -3.454,-4.985 -6.985,-9.934 -10.615,-14.838 -36.242,-48.972 -77.76797,-92.769 -128.38397,-127.529 -45.993,-31.594 -96.743,-52.952 -148.667,-72.159 -41.867,-15.481 -84.38,-29.594 -125.086,-47.735 -51.734,-23.061 -88.857,-64.852 -124.953,-106.942 -33.971,-39.618 -66.541,-80.461 -101.237,-119.423 -30.933,-34.72 -64.6,-66.891 -107.476,-87.078 -27.811,-13.097 -57.072,-18.643 -87.835,-13.504 -4.3,0.717 -8.611,1.334 -13.947,2.158 -11.78,-35.973 -18.402,-72.148 -19.117,-109.457 -0.931,-48.646 5.251,-96.177001 21.42,-142.236001 0.811,-2.297 0.436,-5.008 0.617,-7.529 -29.228,18.451 -58.453,36.903 -87.68,55.354 z"
     style="stroke:#ff0000;fill:none" /></svg>