<?xml version="1.0" encoding="UTF-8" standalone="no"?>
<!-- Generator: Adobe Illustrator 16.0.0, SVG Export Plug-In . SVG Version: 6.00 Build 0)  -->

<svg
   xmlns:dc="http://purl.org/dc/elements/1.1/"
   xmlns:cc="http://creativecommons.org/ns#"
   xmlns:rdf="http://www.w3.org/1999/02/22-rdf-syntax-ns#"
   xmlns:svg="http://www.w3.org/2000/svg"
   xmlns="http://www.w3.org/2000/svg"
   xmlns:sodipodi="http://sodipodi.sourceforge.net/DTD/sodipodi-0.dtd"
   xmlns:inkscape="http://www.inkscape.org/namespaces/inkscape"
   version="1.1"
   id="Layer_1"
   x="0px"
   y="0px"
   width="457.20001mm"
   height="308.39999mm"
   viewBox="0 0 1620 1092.7558"
   enable-background="new 0 0 841.89 1190.55"
   xml:space="preserve"
   inkscape:version="0.91 r13725"
   sodipodi:docname="regadera-grande-2.svg"><metadata
     id="metadata35"><rdf:RDF><cc:Work
         rdf:about=""><dc:format>image/svg+xml</dc:format><dc:type
           rdf:resource="http://purl.org/dc/dcmitype/StillImage" /><dc:title /></cc:Work></rdf:RDF></metadata><defs
     id="defs33" /><sodipodi:namedview
     pagecolor="#ffffff"
     bordercolor="#666666"
     borderopacity="1"
     objecttolerance="10"
     gridtolerance="10"
     guidetolerance="10"
     inkscape:pageopacity="0"
     inkscape:pageshadow="2"
     inkscape:window-width="1215"
     inkscape:window-height="1000"
     id="namedview31"
     showgrid="false"
     units="mm"
     inkscape:zoom="0.3964554"
     inkscape:cx="684.8265"
     inkscape:cy="520.37401"
     inkscape:window-x="65"
     inkscape:window-y="24"
     inkscape:window-maximized="1"
     inkscape:current-layer="Layer_1" /><path
     style="fill:none"
     inkscape:connector-curvature="0"
     id="path23"
     d="m 217.90767,1001.8813 c -1.61261,97.533 8.49801,193.2275 40.82811,285.8396 24.16966,69.2253 56.73607,133.0533 115.47556,180.1253 37.10041,29.7165 78.94256,42.1746 125.72641,31.681 47.91995,-10.7443 88.51176,-35.6709 122.62714,-70.5745 20.83019,-21.3144 34.07125,-47.1006 38.53254,-77.0443 7.6164,-51.0854 -9.25368,-96.7994 -31.08364,-141.2942 -1.13998,-2.3227 -8.78365,-3.6666 -12.13352,-2.3124 -17.26478,6.9672 -33.8596,15.6067 -51.16464,22.4467 -28.15964,11.1389 -65.02764,2.2968 -82.26776,-22.5778 -15.81059,-22.8064 -28.48684,-47.907 -41.30331,-72.6427 C 397.2527,1046.9344 351.78932,958.13049 306.14545,869.41751 l -77.11832,0 c -6.46472,43.78717 -10.38198,87.90152 -11.11947,132.46379 z" /><path
     style="fill:none"
     inkscape:connector-curvature="0"
     id="path25"
     d="m 250.32216,763.16055 c -1.95279,6.80361 -3.17069,10.37937 -3.99906,14.03179 -6.91267,30.60323 -12.73339,61.3337 -17.29465,92.22517 l 77.1183,0 c -5.69217,-11.06366 -11.37655,-22.12989 -17.07392,-33.18836 -12.18286,-23.62822 -24.89677,-46.97597 -38.75067,-73.0686 z" /><path
     inkscape:connector-curvature="0"
     id="path27"
     d="m 540.07121,866.97887 c 53.84454,-17.2349 102.25529,-45.44906 140.96444,-87.32626 43.02366,-46.5528 63.36567,-102.1254 59.70936,-165.9274 -2.47995,-43.3003 -14.74328,-83.9011 -32.7832,-123.0958 -9.9055,-21.499 -9.44065,-21.7404 11.53233,-31.4408 104.19381,-48.1964 208.28365,-96.6059 312.64636,-144.4168 30.5486,-13.9954 48.5379,-36.3019 50.0233,-70.0226 0.4479,-10.2079 -1.5425,-21.3093 -5.3741,-30.807 -6.2401,-15.4263 -12.5192,-30.8383 -18.7891,-46.2542 l -751.85515,0 c 45.64387,88.713 91.10725,177.5169 136.99911,266.1092 12.81518,24.7358 25.49272,49.8364 41.30331,72.6428 17.24012,24.8733 54.10812,33.7167 82.26776,22.5777 17.30504,-6.8412 33.89986,-15.4795 51.16464,-22.4466 3.34987,-1.3543 10.99354,-0.013 12.13352,2.3124 21.82996,44.4961 38.70134,90.2101 31.08364,141.2942 -4.46129,29.9437 -17.70235,55.7298 -38.53254,77.0443 -34.11538,34.9048 -74.70719,59.8301 -122.62714,70.5744 -46.78385,10.4936 -88.626,-1.9658 -125.72641,-31.6809 -58.73819,-47.0721 -91.3046,-110.8987 -115.47556,-180.1254 -32.33012,-92.612 -42.44203,-188.3066 -40.82811,-285.8396 0.73749,-44.5609 4.65476,-88.6766 11.11948,-132.4638 l -76.90155,0 c -11.9102,79.8528 -13.49684,160.4859 -7.18533,241.2747 5.92199,75.855 19.96163,149.9338 45.95555,221.5871 0.82318,2.2917 0.73099,4.9093 1.07117,7.3749 10.31576,22.3 20.63283,44.6077 30.9473,66.9168 14.11618,20.4381 27.40008,41.5215 42.51602,61.1961 50.02335,65.1081 112.55027,110.28326 197.58362,113.00726 25.61089,0.818 52.51238,-4.2068 77.05728,-12.0647 z"
     style="stroke:#ff0000;fill:none" /></svg>