<?xml version="1.0" encoding="UTF-8" standalone="no"?>
<!-- Generator: Adobe Illustrator 16.0.0, SVG Export Plug-In . SVG Version: 6.00 Build 0)  -->

<svg
   xmlns:dc="http://purl.org/dc/elements/1.1/"
   xmlns:cc="http://creativecommons.org/ns#"
   xmlns:rdf="http://www.w3.org/1999/02/22-rdf-syntax-ns#"
   xmlns:svg="http://www.w3.org/2000/svg"
   xmlns="http://www.w3.org/2000/svg"
   xmlns:sodipodi="http://sodipodi.sourceforge.net/DTD/sodipodi-0.dtd"
   xmlns:inkscape="http://www.inkscape.org/namespaces/inkscape"
   version="1.1"
   id="Layer_1"
   x="0px"
   y="0px"
   width="457.20001mm"
   height="308.39999mm"
   viewBox="0 0 1620 1092.7558"
   enable-background="new 0 0 841.89 1190.55"
   xml:space="preserve"
   inkscape:version="0.91 r13725"
   sodipodi:docname="regadera-grande-1.svg"><metadata
     id="metadata35"><rdf:RDF><cc:Work
         rdf:about=""><dc:format>image/svg+xml</dc:format><dc:type
           rdf:resource="http://purl.org/dc/dcmitype/StillImage" /><dc:title /></cc:Work></rdf:RDF></metadata><defs
     id="defs33" /><sodipodi:namedview
     pagecolor="#ffffff"
     bordercolor="#666666"
     borderopacity="1"
     objecttolerance="10"
     gridtolerance="10"
     guidetolerance="10"
     inkscape:pageopacity="0"
     inkscape:pageshadow="2"
     inkscape:window-width="1215"
     inkscape:window-height="1000"
     id="namedview31"
     showgrid="false"
     units="mm"
     inkscape:zoom="0.2803363"
     inkscape:cx="970.27295"
     inkscape:cy="-145.51386"
     inkscape:window-x="65"
     inkscape:window-y="24"
     inkscape:window-maximized="1"
     inkscape:current-layer="Layer_1" /><path
     style="fill:none"
     inkscape:connector-curvature="0"
     id="path23"
     d="m 217.90767,1001.8813 c -1.61261,97.533 8.49801,193.2275 40.82811,285.8396 24.16966,69.2253 56.73607,133.0533 115.47556,180.1253 37.10041,29.7165 78.94256,42.1746 125.72641,31.681 47.91995,-10.7443 88.51176,-35.6709 122.62714,-70.5745 20.83019,-21.3144 34.07125,-47.1006 38.53254,-77.0443 7.6164,-51.0854 -9.25368,-96.7994 -31.08364,-141.2942 -1.13998,-2.3227 -8.78365,-3.6666 -12.13352,-2.3124 -17.26478,6.9672 -33.8596,15.6067 -51.16464,22.4467 -28.15964,11.1389 -65.02764,2.2968 -82.26776,-22.5778 -15.81059,-22.8064 -28.48684,-47.907 -41.30331,-72.6427 C 397.2527,1046.9344 351.78932,958.1305 306.14545,869.41752 l -77.11832,0 c -6.46472,43.78717 -10.38198,87.90152 -11.11947,132.46378 z" /><path
     style="fill:none"
     inkscape:connector-curvature="0"
     id="path25"
     d="m 250.32216,763.16056 c -1.95279,6.80361 -3.17069,10.37937 -3.99906,14.03179 -6.91267,30.60323 -12.73339,61.3337 -17.29465,92.22517 l 77.1183,0 c -5.69217,-11.06366 -11.37655,-22.12989 -17.07392,-33.18836 -12.18286,-23.62822 -24.89677,-46.97597 -38.75067,-73.0686 z" /><path
     inkscape:connector-curvature="0"
     id="path29"
     d="m 251.3665,822.59468 c 0.82837,-3.65242 2.04627,-7.22686 3.99906,-14.03179 13.8552,26.09263 26.56911,49.44038 38.74937,73.0686 5.69867,11.05847 11.38305,22.1247 17.07393,33.18836 l 751.85644,0 c -31.8562,-78.3232 -64.03049,-156.51403 -96.10087,-234.75545 -27.935,-68.16715 -55.85966,-136.34081 -83.77002,-204.51836 -0.90498,-2.20078 -1.54116,-4.50933 0,-9.05632 161.19079,96.35666 322.38039,192.71333 485.52009,290.23985 -3.864,6.38812 -7.554,12.70871 -11.4687,18.89428 -10.4664,16.56366 -17.7673,33.72455 -11.8557,53.91334 7.5592,25.84201 27.0781,38.89738 51.4022,43.3587 23.3089,4.27305 42.4785,-6.36604 54.9586,-26.39641 41.8019,-67.11158 83.6402,-134.19457 124.1217,-202.09297 7.3372,-12.3075 8.3317,-28.38946 12.2516,-42.73025 -3.555,-7.6943 -7.1139,-15.38471 -10.6702,-23.07902 -6.0116,-4.55737 -11.9115,-9.28613 -18.0738,-13.64485 -28.7711,-20.34719 -61.8088,-14.15902 -81.3276,15.82356 -14.5227,22.31686 -28.1272,45.22838 -42.1876,67.84906 -1.5204,2.45007 -3.3031,4.73006 -5.5442,7.90724 -35.6604,-21.21062 -70.8768,-42.07067 -106.0089,-63.06316 -66.7597,-39.90754 -133.47,-79.92285 -200.2246,-119.85636 -68.2061,-40.79954 -136.45367,-81.52507 -204.64944,-122.34149 -35.91363,-21.49107 -71.85983,-42.92632 -107.50859,-64.84586 -4.62231,-2.83051 -8.94075,-7.81895 -11.04936,-12.8035 -20.44066,-48.37569 -40.82161,-96.77605 -60.33,-145.53476 C 722.98726,84.253225 677.37194,64.644824 634.49109,84.424613 456.77683,166.38984 279.15479,248.55113 101.59629,330.86303 60.452678,349.9287 43.390434,394.36634 63.555848,435.12433 c 30.225391,61.08441 62.590532,121.10932 93.922172,181.65488 14.19932,27.46631 28.34017,54.96377 41.85259,82.76245 2.0995,4.32626 1.83334,10.6079 0.73748,15.56 -13.21638,59.81586 -29.30741,119.11241 -39.66479,179.40736 -1.16206,6.76333 -2.21896,13.53708 -3.22912,20.31216 l 76.90154,0 c 4.56257,-30.8928 10.382,-61.62327 17.29465,-92.2265 z"
     style="stroke:#ff0000;fill:none" /></svg>