<?xml version="1.0" encoding="UTF-8" standalone="no"?>
<!-- Created with Inkscape (http://www.inkscape.org/) -->

<svg
   xmlns:dc="http://purl.org/dc/elements/1.1/"
   xmlns:cc="http://creativecommons.org/ns#"
   xmlns:rdf="http://www.w3.org/1999/02/22-rdf-syntax-ns#"
   xmlns:svg="http://www.w3.org/2000/svg"
   xmlns="http://www.w3.org/2000/svg"
   xmlns:sodipodi="http://sodipodi.sourceforge.net/DTD/sodipodi-0.dtd"
   xmlns:inkscape="http://www.inkscape.org/namespaces/inkscape"
   width="210mm"
   height="297mm"
   viewBox="0 0 744.09448819 1052.3622047"
   id="svg4184"
   version="1.1"
   inkscape:version="0.91 r13725"
   sodipodi:docname="dragon.svg">
  <defs
     id="defs4186" />
  <sodipodi:namedview
     id="base"
     pagecolor="#ffffff"
     bordercolor="#666666"
     borderopacity="1.0"
     inkscape:pageopacity="0.0"
     inkscape:pageshadow="2"
     inkscape:zoom="0.98994949"
     inkscape:cx="341.18098"
     inkscape:cy="762.26639"
     inkscape:document-units="px"
     inkscape:current-layer="layer1"
     showgrid="false"
     inkscape:window-width="1855"
     inkscape:window-height="1056"
     inkscape:window-x="69"
     inkscape:window-y="1048"
     inkscape:window-maximized="1" />
  <metadata
     id="metadata4189">
    <rdf:RDF>
      <cc:Work
         rdf:about="">
        <dc:format>image/svg+xml</dc:format>
        <dc:type
           rdf:resource="http://purl.org/dc/dcmitype/StillImage" />
        <dc:title></dc:title>
      </cc:Work>
    </rdf:RDF>
  </metadata>
  <g
     inkscape:label="Layer 1"
     inkscape:groupmode="layer"
     id="layer1">
    <path
       style="fill:none;stroke:#ff0000"
       d="m 253.68279,421.46071 c -24.28958,-1.90655 -46.45291,-7.77897 -65.62063,-17.38694 -7.48331,-3.75107 -10.74049,-5.66814 -18.07421,-10.63788 -6.66789,-4.51854 -11.97457,-8.84892 -15.74856,-12.8512 -8.21955,-8.71676 -15.04018,-21.18315 -18.87039,-34.49035 -3.93221,-13.66156 -5.33479,-25.65302 -6.04826,-51.71025 -0.65829,-24.0417 -1.13223,-32.03085 -2.40412,-40.52632 -1.46625,-9.79374 -3.70731,-16.51377 -8.10737,-24.31078 -1.74622,-3.09434 -3.03764,-4.74358 -6.14516,-7.84778 -5.92035,-5.91405 -10.71691,-8.0187 -18.274791,-8.0187 -7.02356,0 -12.88455,2.62781 -19.34951,8.67547 -8.41287,7.86982 -10.29195,18.60166 -6.60955,37.74867 1.26529,6.57898 2.40207,11.09477 7.6431,30.36179 7.20698,26.4942 9.90171,38.68527 11.72039,53.02357 1.03104,8.12862 1.40112,20.22561 0.79288,25.91706 -1.50333,14.06704 -6.38959,23.26152 -13.74021,25.85497 -0.86425,0.30493 -1.57136,0.48556 -1.57136,0.40141 0,-0.0841 0.18896,-0.64929 0.41992,-1.25586 0.93037,-2.44347 2.30485,-8.78068 2.74374,-12.65029 0.48767,-4.29975 0.28164,-9.91335 -0.49378,-13.45374 l -0.44474,-2.03061 -0.93249,4.70118 c -2.38784,12.0384 -7.91076,23.43063 -14.26946,29.43386 -2.02415,1.91101 -5.47442,4.54613 -5.6814,4.33915 -0.0799,-0.0799 0.28868,-1.21304 0.819,-2.51816 2.35828,-5.80375 4.78693,-15.26406 6.666,-25.96602 1.09085,-6.2128 2.74846,-18.74773 3.1343,-23.70178 l 0.2441,-3.13412 -0.96946,2.28596 c -1.19796,2.82474 -2.65844,4.96393 -4.56493,6.68633 -1.61581,1.45978 -5.01672,3.56594 -5.30025,3.2824 -0.15242,-0.15242 1.50514,-8.51547 5.63185,-28.41499 0.41332,-1.99311 0.68974,-3.62383 0.61427,-3.62383 -0.0755,0 -0.50592,0.72271 -0.95655,1.60601 -0.87001,1.70535 -3.59645,4.86516 -4.71395,5.46323 -0.61633,0.32985 -0.62994,0.22692 -0.17181,-1.29873 0.61524,-2.04887 1.60897,-9.00862 2.25032,-15.76051 0.33876,-3.56636 0.49521,-15.66166 0.52198,-40.35179 0.0403,-37.18024 0.0611,-37.68367 1.94054,-47.03155 2.77255,-13.78973 8.85635,-24.81661 16.8428,-30.5276 5.79062,-4.14078 11.56392,-6.04743 19.28536,-6.36903 3.31265,-0.13797 6.280291,-0.0389 8.227061,0.27475 15.81895,2.54834 28.26137,16.60377 36.07811,40.75517 4.13389,12.77251 5.53908,19.12489 9.31607,42.11473 2.35186,14.31534 5.09892,25.28956 8.82597,35.25884 6.33078,16.93386 15.53519,31.59274 27.76573,44.21952 5.42574,5.60152 7.44391,7.07564 15.08295,11.01692 3.23206,1.66755 6.58165,3.50356 7.44353,4.08002 0.86189,0.57646 1.80026,1.19129 2.08528,1.36629 0.28502,0.175 -0.0752,-0.45925 -0.80051,-1.40944 -2.82578,-3.70198 -4.09971,-8.56118 -3.39373,-12.94489 0.212,-1.31642 0.47032,-2.53081 0.57405,-2.69864 0.10373,-0.16783 1.51963,1.08803 3.14645,2.7908 6.42171,6.72153 16.8246,12.25527 31.29672,16.64805 4.39379,1.33367 9.20648,2.58806 9.20648,2.3996 0,-0.0456 -0.94835,-1.06202 -2.10743,-2.25871 -2.3097,-2.38463 -4.22223,-5.99782 -4.90318,-9.26318 -0.40867,-1.95971 -0.61357,-7.52219 -0.27708,-7.52219 0.0857,0 1.27569,0.68009 2.64441,1.51132 5.38641,3.27119 10.82012,5.58841 17.17975,7.32631 3.73852,1.02164 4.70284,1.12541 10.57766,1.13825 5.03594,0.011 7.02673,-0.14084 9.01059,-0.68724 2.8131,-0.7748 7.8353,-2.97113 7.8353,-3.42657 0,-0.15959 -0.59593,-0.40196 -1.3243,-0.5386 -3.82767,-0.71808 -8.79186,-5.73555 -10.2089,-10.31848 -0.26479,-0.85635 -0.1941,-0.88147 2.48084,-0.88147 4.42919,0 10.48666,-0.7833 15.18532,-1.96365 12.59175,-3.16315 22.5355,-11.17661 27.33469,-22.02843 l 0.9696,-2.19244 -3.01715,3.05201 c -2.48233,2.51101 -3.67686,3.37102 -6.73891,4.85173 -2.04697,0.98985 -5.19325,2.14938 -6.99172,2.57673 -3.28502,0.78059 -8.67888,1.47583 -8.67888,1.11866 0,-0.10523 0.61056,-1.5128 1.35679,-3.12792 4.60708,-9.97141 4.67077,-21.79161 0.17835,-33.1006 -0.6463,-1.62698 -1.46236,-3.50854 -1.81345,-4.18125 l -0.63834,-1.22311 -0.52529,3.08177 c -0.61877,3.63024 -2.1375,7.43011 -4.25969,10.65779 -1.43743,2.18618 -7.29552,8.39584 -7.91933,8.39459 -0.15768,-3.2e-4 -0.30592,-1.89548 -0.32943,-4.21148 -0.034,-3.34725 -0.25876,-4.93404 -1.09601,-7.73678 -2.03981,-6.8284 -7.0866,-15.83344 -13.503,-24.09354 -2.90594,-3.74095 -7.90815,-9.51276 -8.08393,-9.32765 -0.0633,0.0666 0.14562,1.44338 0.46425,3.05941 1.18909,6.03097 0.18686,13.61534 -2.51083,19.0006 -1.67333,3.34038 -1.59133,3.36099 -3.85877,-0.96964 -4.60167,-8.78883 -12.81779,-18.68575 -26.60114,-32.04304 -3.83911,-3.72043 -7.02707,-6.71743 -7.08437,-6.66 -0.0573,0.0574 0.40625,2.08626 1.03009,4.50852 1.49454,5.80299 1.85305,10.83299 1.0069,14.12724 -0.64556,2.51333 -1.66965,4.35239 -2.43601,4.3746 -0.68594,0.0199 -9.33913,-8.79676 -12.44296,-12.67798 -3.20495,-4.00766 -8.00587,-10.69709 -9.16805,-12.77443 -0.42191,-0.75415 -1.6745,-2.95043 -2.78353,-4.88063 -1.10904,-1.93019 -2.01643,-3.65946 -2.01643,-3.84282 0,-0.18336 -0.17629,-0.22443 -0.39176,-0.0913 -0.21547,0.13317 -0.39177,0.83018 -0.39177,1.54891 0,3.21787 -2.77791,9.62635 -5.59525,12.90792 l -1.31235,1.5286 -1.00449,-1.72448 c -7.50295,-12.88092 -11.77471,-27.65939 -12.38729,-42.85469 l -0.26828,-6.65489 -1.41681,2.1496 c -1.58948,2.41157 -3.81644,7.8409 -4.87369,11.88208 -0.67398,2.57619 -0.72119,2.6428 -1.21081,1.70834 -2.0878,-3.98472 -4.05575,-13.14217 -4.05575,-18.87264 0,-6.51322 1.22126,-11.08161 4.49823,-16.82654 2.65946,-4.66237 2.3025,-5.2254 -1.64266,-2.59092 -2.34642,1.56688 -13.78058,11.96137 -15.34368,13.94852 -0.46358,0.58935 -0.94521,0.9692 -1.0703,0.84411 -0.40346,-0.40345 0.59705,-9.43149 1.38791,-12.5237 1.98632,-7.76647 6.22747,-15.21684 11.43516,-20.08803 1.07904,-1.00931 1.85654,-1.94045 1.72778,-2.0692 -0.83371,-0.83372 -10.33083,3.45917 -17.17969,7.76557 -2.11566,1.33027 -3.90145,2.35735 -3.96841,2.28239 -0.067,-0.075 0.54976,-1.77439 1.3705,-3.77651 5.08972,-12.41587 14.73137,-22.69388 27.09468,-28.88297 2.35998,-1.1814 4.53052,-2.14801 4.82344,-2.14801 0.29291,0 0.65887,-0.20436 0.81324,-0.45414 0.21053,-0.34063 -1.13005,-0.39166 -5.36364,-0.20416 -4.87837,0.21606 -7.69981,0.60258 -12.10845,1.65878 -0.97875,0.23449 -0.97862,0.23382 0.19589,-1.00852 3.84265,-4.06456 10.72901,-8.97709 16.45412,-11.7379 13.28686,-6.40729 28.02367,-7.49552 44.85709,-3.31245 2.10532,0.52317 -2.50255,-1.89748 -6.38551,-3.35449 -5.98922,-2.24735 -23.39657,-6.26831 -27.13647,-6.26831 -1.85291,0 -0.90013,-0.76268 3.84579,-3.07851 6.17403,-3.0127 11.36554,-4.92574 17.7507,-6.54103 7.41484,-1.87577 12.35961,-2.54914 20.56304,-2.80022 8.5093,-0.26045 14.88721,0.24682 21.13659,1.6811 l 0.97941,0.22478 -0.97941,-1.05629 c -2.45364,-2.64622 -9.6941,-6.76502 -16.24095,-9.238796 l -3.50858,-1.32575 2.52917,-0.53016 c 3.89633,-0.81674 16.15293,-0.77647 20.64272,0.0678 12.84158,2.41482 26.96179,8.922806 37.90884,17.472146 3.03558,2.37071 3.78291,2.78271 2.47741,1.36581 -0.57666,-0.62587 -2.04284,-2.7246 -3.25819,-4.66383 l -2.20973,-3.52589 2.2255,-0.11882 c 4.03,-0.21517 9.12778,2.08578 14.89191,6.72167 1.73662,1.3967 3.80808,3.25958 4.60324,4.13973 l 1.44575,1.60027 -0.009,-1.27436 c -0.0184,-2.72871 -2.49962,-6.35322 -6.20754,-9.06791 -0.99825,-0.73087 -5.16461,-3.00881 -9.25855,-5.06209 -19.0485,-9.553596 -41.6279,-25.519276 -46.58186,-32.937586 -1.24713,-1.86752 -1.2944,-3.13496 -0.14688,-3.93871 1.81432,-1.2708 5.23299,-0.28057 9.90283,2.86838 8.83584,5.95817 29.88533,21.93145 33.95653,25.76771 1.22296,1.15239 2.32758,2.09525 2.45471,2.09525 0.12713,0 -1.27183,-1.7092 -3.10881,-3.79823 -7.93174,-9.02004 -11.32954,-16.41973 -9.10191,-19.82205 1.5542,-2.37379 3.20891,-1.16101 9.49127,6.95638 2.1547,2.78408 5.5174,6.835 7.47266,9.00205 4.49158,4.9781 13.4656,13.538316 14.19276,13.538316 0.30283,0 1.76928,0.6404 3.25878,1.42311 3.20192,1.68256 6.89565,5.17572 10.71583,10.13396 9.24431,11.99826 12.11031,14.76026 18.48908,17.81815 2.19076,1.05022 4.69265,2.55044 5.55976,3.33382 2.70957,2.44793 3.37977,5.57262 1.83154,8.53925 -0.56154,1.076 -0.52772,1.14048 2.25477,4.29879 6.00024,6.81068 11.16367,11.47356 11.89519,10.74204 0.48142,-0.48143 0.62927,-11.78629 0.19089,-14.59615 -1.13109,-7.2498 -3.97378,-13.98181 -8.69834,-20.59922 -6.29057,-8.81083 -7.18425,-10.50894 -9.98083,-18.96489 -3.93644,-11.902476 -6.44164,-15.011536 -20.61395,-25.582796 -8.0782,-6.0256 -12.89617,-10.82992 -15.06322,-15.02052 -0.83152,-1.60798 -0.41551,-1.33203 0.83059,0.55095 2.80014,4.23129 7.03614,7.77279 17.82039,14.89871 12.85271,8.49268 16.0273,12.09418 20.51147,23.269736 3.24979,8.09923 4.47963,10.1735 9.87623,16.65745 6.57016,7.89398 10.09764,14.88025 12.18272,24.12818 0.50454,2.23776 0.70256,5.00185 0.74835,10.44565 0.0608,7.23141 0.0846,7.4308 1.02722,8.61883 3.20263,4.03641 3.8411,5.0668 3.8411,6.19894 0,1.10106 -0.47908,3.04075 -2.20434,8.92488 -1.23284,4.20469 -5.08944,6.39476 -9.73162,5.52635 -1.87929,-0.35156 -2.04033,-0.3064 -4.70118,1.31847 -1.51537,0.92538 -2.79962,1.64402 -2.85387,1.59697 -0.0543,-0.0471 0.16421,-0.95201 0.48547,-2.01102 0.32126,-1.05901 0.57815,-2.18992 0.57086,-2.51312 -0.008,-0.35255 -1.46988,-1.26894 -3.65429,-2.29061 l -3.64105,-1.70296 -2.76409,1.77173 -2.76409,1.77174 -0.25302,-2.22348 c -0.62103,-5.45749 -0.62529,-5.47164 -1.73046,-5.74677 -2.60696,-0.64898 -9.50532,-5.47491 -16.98638,-11.88325 -2.30763,-1.97674 -4.33059,-3.59406 -4.49546,-3.59406 -0.16489,0 -1.48727,1.17838 -2.93864,2.61863 -1.79805,1.78426 -2.69608,2.43961 -2.81847,2.05676 -0.0988,-0.30902 -0.44974,-1.8237 -0.7799,-3.36594 -1.13978,-5.32433 -3.1758,-8.36122 -5.6056,-8.36122 -2.6565,0 -7.37745,5.87067 -8.4018,10.44795 -0.60037,2.68278 -0.0442,4.68351 1.9002,6.83574 2.49312,2.75958 6.17155,4.41873 16.0593,7.24351 2.75429,0.78687 6.20163,2.02903 7.66075,2.76037 3.50108,1.75481 8.00102,6.05181 10.35652,9.88944 1.00563,1.63839 1.88855,3.05735 1.96206,3.15324 0.0735,0.0959 1.3837,-1.05002 2.91153,-2.54647 l 2.77787,-2.72082 -0.21901,4.18435 -0.21902,4.18435 3.60033,1.20808 c 3.01058,1.01019 3.6645,1.1184 3.99209,0.66061 0.21547,-0.30111 0.99731,-1.4055 1.73742,-2.45419 l 1.34565,-1.90673 0.51463,1.74883 c 0.28305,0.96186 0.68991,3.16553 0.90413,4.89706 0.92709,7.49343 -1.77608,12.77641 -7.0483,13.77494 l -1.37118,0.2597 0.85538,-0.9379 c 1.21806,-1.33559 1.69109,-2.82326 1.69109,-5.31841 l 0,-2.17479 -1.61704,1.4609 c -2.32271,2.09843 -4.71805,3.04173 -8.25595,3.25124 -1.65941,0.0983 -3.32883,0.0591 -3.70982,-0.0871 -0.59958,-0.23008 -0.52168,-0.39967 0.57944,-1.26142 1.30962,-1.02493 2.81749,-3.5262 2.81749,-4.67367 0,-0.49479 -0.20939,-0.58242 -0.88148,-0.36887 -0.4848,0.15404 -2.00302,0.53248 -3.37382,0.84097 -4.23998,0.95421 -8.37394,-0.28247 -11.70913,-3.50279 -1.90592,-1.84028 -2.09862,-2.37352 -0.66008,-1.82659 1.57284,0.59799 5.90082,0.456 7.52855,-0.24699 l 1.45654,-0.62905 -3.71157,-1.17291 c -3.53534,-1.11721 -3.83297,-1.30005 -6.26824,-3.85064 -1.40617,-1.47276 -3.0008,-2.84573 -3.54364,-3.05105 -0.54284,-0.20531 -3.01095,-0.66828 -5.48471,-1.02881 -7.38052,-1.07566 -13.38622,-3.41574 -17.03749,-6.63854 l -1.56378,-1.38028 3.8197,-0.0653 c 2.10084,-0.0359 3.99601,-0.10935 4.21148,-0.16322 0.21547,-0.0539 1.14101,-0.12717 2.05676,-0.1629 1.43951,-0.0562 1.06913,-0.22071 -2.73475,-1.21501 -5.1546,-1.34736 -10.95277,-3.45587 -14.76507,-5.36933 -3.08355,-1.54769 -5.71225,-3.21504 -5.71225,-3.62321 0,-0.15198 1.80702,-0.5224 4.01559,-0.82316 l 4.01559,-0.54682 -3.5985,-0.30424 c -4.27227,-0.36121 -11.16478,-2.04352 -15.79386,-3.85496 l -3.33001,-1.30308 1.76324,-0.26485 c 0.96979,-0.14567 4.67197,-0.48614 8.22707,-0.7566 3.5551,-0.27046 6.6313,-0.64395 6.836,-0.82998 0.21711,-0.19731 -0.1194,-0.33822 -0.80769,-0.33822 -2.88553,0 -11.41166,-2.93137 -15.61866,-5.36985 l -1.57525,-0.91307 9.10892,0.10528 c 5.00991,0.0579 9.10522,0.0171 9.10069,-0.0906 -0.005,-0.10774 -5.68449,-1.59047 -12.62216,-3.29496 -14.10532,-3.46548 -13.65427,-3.15304 -6.86069,-4.75236 1.6699,-0.39313 3.03618,-0.82856 3.03618,-0.96762 0,-0.51889 -4.25067,-1.26734 -8.29697,-1.46091 -5.24118,-0.25074 -9.55678,0.35401 -14.68846,2.05832 -8.37849,2.78263 -16.44582,7.97454 -23.73473,15.27503 -8.08979,8.10265 -9.14834,20.61606 -2.85604,33.76228 3.77925,7.89582 10.20693,15.31824 15.88442,18.34268 l 2.93823,1.56522 5.09295,-0.01 c 4.2103,-0.008 5.60134,-0.1677 8.02644,-0.92106 5.15237,-1.60058 8.09257,-3.62332 10.00146,-6.88059 1.60574,-2.74 1.92019,-5.19228 1.20431,-9.39207 -1.0587,-6.21099 -0.64673,-10.00687 1.24166,-11.44069 1.22837,-0.93267 2.56661,-0.76519 12.99637,1.62657 3.88699,0.89136 5.1247,1.98168 5.82921,5.13506 l 0.36269,1.62334 -2.00577,-0.93051 c -1.10317,-0.51179 -2.89955,-1.13102 -3.99196,-1.37608 -2.17164,-0.48715 -3.08561,-0.1908 -5.41312,1.75521 -1.02751,0.85909 -1.11378,1.11977 -0.94219,2.84695 0.10389,1.0457 0.61288,2.78274 1.13108,3.8601 1.18103,2.45537 1.74591,2.55131 7.12344,1.20993 5.70673,-1.42351 11.52422,-2.58112 12.97118,-2.58112 1.613,0 2.74522,0.82396 3.92771,2.85835 1.95935,3.37092 4.31773,10.46165 3.47955,10.46165 -0.17144,0 -1.84086,-1.14764 -3.70982,-2.55032 -1.86896,-1.40268 -3.89629,-2.64879 -4.50516,-2.76913 -1.0083,-0.19928 -4.46903,1.00913 -11.07766,3.86807 l -1.35179,0.58478 5.19125,1.63165 c 2.85519,0.89741 6.2553,1.81909 7.55581,2.04817 3.37613,0.59469 4.14304,1.41372 4.68409,5.00244 0.52148,3.45899 0.30468,6.50646 -0.52166,7.33281 -0.40274,0.40274 -1.90596,0.70036 -4.65793,0.92221 -2.23481,0.18015 -4.40072,0.45824 -4.81314,0.61796 -1.17566,0.45532 -0.43873,-0.42737 1.54791,-1.85406 1.11424,-0.8002 1.74842,-1.55336 1.74842,-2.07649 0,-0.77741 -1.27241,-3.54491 -1.9716,-4.28825 -0.18508,-0.19677 -1.76241,0.0219 -3.67268,0.50915 -4.46066,1.13776 -7.09419,0.71394 -11.32238,-1.82214 l -2.27548,-1.36484 -2.62158,2.51765 c -4.38061,4.20691 -9.38617,7.19548 -16.13748,9.63486 -11.64274,4.20674 -14.94576,4.07687 -22.52648,-0.88576 -7.37946,-4.83087 -16.86998,-14.72343 -26.22622,-27.33722 -1.71164,-2.30759 -3.16365,-4.14405 -3.22668,-4.08101 -0.063,0.063 0.24588,1.42453 0.68648,3.02556 1.12452,4.08626 4.1217,10.12759 7.0671,14.24498 6.08082,8.5004 17.44032,17.75409 28.79416,23.45632 l 3.54494,1.78038 3.10306,-0.36974 c 6.85469,-0.81675 13.06972,-3.19286 17.32931,-6.62529 l 2.30758,-1.85946 5.64073,2.05125 c 10.23978,3.72369 21.65024,8.11586 25.08485,9.65576 1.85996,0.83391 3.47649,1.5162 3.59229,1.5162 0.24271,0 6.87594,3.1344 13.98539,6.60852 19.53022,9.54368 36.4909,21.93207 46.68808,34.10187 13.54708,16.1677 20.48392,36.88468 18.82447,56.21955 -1.53193,17.84917 -8.79699,32.9122 -22.40624,46.45603 -17.49375,17.40966 -41.12973,27.62014 -73.07633,31.56814 -4.86975,0.60181 -27.18587,1.08904 -32.12473,0.70137 z"
       id="path4743"
       inkscape:connector-curvature="0" />
  </g>
</svg>
