<?xml version="1.0" encoding="UTF-8" standalone="no"?>
<!-- Created with Inkscape (http://www.inkscape.org/) -->

<svg
   xmlns:dc="http://purl.org/dc/elements/1.1/"
   xmlns:cc="http://creativecommons.org/ns#"
   xmlns:rdf="http://www.w3.org/1999/02/22-rdf-syntax-ns#"
   xmlns:svg="http://www.w3.org/2000/svg"
   xmlns="http://www.w3.org/2000/svg"
   xmlns:sodipodi="http://sodipodi.sourceforge.net/DTD/sodipodi-0.dtd"
   xmlns:inkscape="http://www.inkscape.org/namespaces/inkscape"
   id="svg4273"
   version="1.1"
   inkscape:version="0.91 r13725"
   xml:space="preserve"
   width="1620"
   height="1080"
   viewBox="0 0 1620 1080"
   sodipodi:docname="Mano dilan.svg"><metadata
     id="metadata4279"><rdf:RDF><cc:Work
         rdf:about=""><dc:format>image/svg+xml</dc:format><dc:type
           rdf:resource="http://purl.org/dc/dcmitype/StillImage" /><dc:title></dc:title></cc:Work></rdf:RDF></metadata><defs
     id="defs4277"><clipPath
       clipPathUnits="userSpaceOnUse"
       id="clipPath4289"><path
         d="m 2400,3280 4390,0 0,3590 -4390,0 0,-3590 z"
         id="path4291"
         inkscape:connector-curvature="0" /></clipPath></defs><sodipodi:namedview
     pagecolor="#ffffff"
     bordercolor="#666666"
     borderopacity="1"
     objecttolerance="10"
     gridtolerance="10"
     guidetolerance="10"
     inkscape:pageopacity="0"
     inkscape:pageshadow="2"
     inkscape:window-width="1215"
     inkscape:window-height="1000"
     id="namedview4275"
     showgrid="false"
     inkscape:zoom="1.2832679"
     inkscape:cx="930.17996"
     inkscape:cy="679.14228"
     inkscape:window-x="65"
     inkscape:window-y="24"
     inkscape:window-maximized="1"
     inkscape:current-layer="g4281" /><g
     id="g4281"
     inkscape:groupmode="layer"
     inkscape:label="ink_ext_XXXXXX"
     transform="matrix(1.25,0,0,-1.25,0,1080)"><g
       id="g4283"
       transform="matrix(0.03356157,0,0,0.03356157,671.93479,480.36015)"><g
         id="g4285"><g
           id="g4287"
           clip-path="url(#clipPath4289)"><path
             d="m 3351.64,6778.87 c 45.04,60.11 77.62,60.11 77.62,60.11 l 102.65,20 220.32,-12.5 c 0,0 202.81,-42.57 232.85,-62.61 30.04,-20 277.93,-72.58 277.93,-72.58 l 137.69,-62.62 c 0,0 135.2,-20 190.28,-35.04 55.07,-15.04 165.23,-55.08 210.31,-55.08 l 265.39,2.5 465.7,-27.53 c 0,0 315.47,-25.04 245.35,-25.04 -70.07,0 255.39,-40.08 255.39,-40.08 0,0 65.12,-10 110.16,-5 45.08,5 127.7,15.04 142.74,30.04 15,15.04 112.65,25.04 112.65,25.04 -26.01,36.44 -5,-350.51 -5,-350.51 l 130.2,-545.82 155.23,-320.47 95.12,-262.89 -192.77,-142.74 c 0,0 -35.04,-122.65 -45.08,-112.65 -10,10 0,-40.04 -55.08,-95.16 -55.08,-55.08 -272.89,-398.08 -287.93,-423.12 -15,-25.04 -130.2,-212.82 -175.24,-242.85 -45.07,-30.04 -220.35,-162.74 -230.35,-147.74 -10.04,15.04 -227.85,-190.27 -267.89,-250.35 -40.08,-60.12 -127.69,-122.7 -127.69,-122.7 0,0 -310.47,-35.03 -325.51,-50.07 -15,-15 -190.27,-142.7 -240.35,-147.74 -50.08,-5 -117.66,12.54 -127.7,32.58 -10,20.04 -72.61,127.7 -57.58,112.66 15.04,-15.04 10,50.07 20.04,115.15 10,65.12 155.24,222.85 160.24,232.85 5,10.04 363.05,262.89 292.93,207.82 -70.12,-55.08 167.73,140.23 207.81,190.31 40.08,50.04 120.2,122.66 120.2,137.69 0,15 -35.08,122.7 -35.08,127.7 0,5 -247.85,97.62 -322.97,112.66 -75.12,15.03 -165.24,45.07 -205.31,45.07 -40.04,0 -262.89,-2.5 -343.01,-32.57 -80.12,-30.04 -285.43,-95.12 -305.47,-95.12 -20,0 -423.13,-147.74 -515.74,-145.24 -95.67,2.58 -341.14,-67.07 -365.55,-72.57 l -132.69,-30.08 c 0,0 -235.36,-41.8 -290.47,-22.5 -50.04,17.5 -117.66,15 -162.74,75.08 -45.04,60.11 -32.54,167.77 -32.54,167.77 l 42.58,62.58 120.16,77.61 340.51,92.66 c 0,0 246.87,50.43 340.5,90.12 93.67,39.72 388.09,117.69 388.09,117.69 l 317.97,127.7 72.61,47.54 2.5,62.62 -35.03,35.03 -70.12,10 -120.2,-10 -200.27,-50.07 -92.66,-15 -245.35,-22.54 -197.81,17.5 c 0,0 -282.89,30.08 -320.47,30.08 -14.14,0 -237.85,-7.54 -277.93,-2.54 -40.04,5.04 -272.89,41.32 -272.89,41.32 20.04,-1.25 -77.66,58.13 -95.16,101.41 -17.46,43.28 -10,145.2 -10,145.2 0,0 14.85,65.07 50.08,95.15 35.24,30.08 110.16,52.58 110.16,52.58 0,0 158.48,3.79 242.85,2.5 84.38,-1.29 262.89,-10 262.89,-10 l 220.35,-5 190.28,10 165.23,0 c 0,0 131.6,27.46 217.85,32.54 0,0 209.14,15.98 280.43,27.54 71.25,11.56 112.66,18.71 142.7,27.54 30.04,8.86 39.68,5.78 40.04,22.54 0.39,16.75 -36.41,1.79 -65.08,2.5 -28.67,0.74 -115.16,-10 -115.16,-10 l -177.77,0 c 0,0 -108.71,-4.93 -157.74,20.04 -28.47,14.45 -85.11,22.53 -120.19,22.53 -35.04,0 -365.55,55.08 -365.55,55.08 l -380.55,25.04 c 0,0 -206.25,26.72 -192.81,20 45.08,-22.54 -59.61,36.68 -82.62,75.12 -22.96,38.44 -37.53,152.73 -37.53,152.73 0,0 38.43,127.27 137.69,155.24 99.26,27.97 280.35,2.38 388.09,-2.5 107.69,-4.89 348.01,-25.04 348.01,-25.04 0,0 337.73,-5.82 390.58,-25.04 52.85,-19.22 285.43,-5 310.47,-25.04 25.04,-20.04 250.35,0 250.35,0 l 92.66,27.54 -17.54,37.54 c 0,0 -250.35,35.08 -265.39,55.12 -24.03,32.03 -312.97,162.73 -312.97,162.73 l -122.66,50.08 -152.73,15 -212.81,57.58 -65.12,50.07 -50.08,52.58 -25.04,62.62 12.54,90.12 z"
             style="fill:none;stroke:#ff0000;stroke-width:16.79999924;stroke-linecap:butt;stroke-linejoin:miter;stroke-miterlimit:4;stroke-dasharray:none;stroke-opacity:1"
             id="path4293"
             inkscape:connector-curvature="0" /><path
             d="m 3343.91,6763.67 c -8.05,-18.79 9.37,-77.19 23.59,-96.76 14.26,-19.53 33.55,-26.75 65.43,-30.31 31.87,-3.51 96.64,2.34 100.9,7.11 0,0 48.63,38.44 53.12,51.33 4.5,12.93 16.02,33.44 14.18,58.44 -1.87,25 -18.59,56.95 -24.8,58.39 0,0 -51.49,14.26 -64.03,19.93 -13.43,6.05 -46.56,2.89 -46.56,2.89 l -50.51,-1.57 c 0,0 -26.05,-13.59 -38.24,-24.02 -12.19,-10.47 -25.08,-26.68 -33.08,-45.43 z"
             style="fill:#000000;fill-opacity:1;fill-rule:evenodd;stroke:none"
             id="path4295"
             inkscape:connector-curvature="0" /><path
             d="m 3343.91,6763.67 c -8.05,-18.79 9.37,-77.19 23.59,-96.76 14.26,-19.53 33.55,-26.75 65.43,-30.31 31.87,-3.51 96.64,2.35 100.9,7.11 0,0 48.63,38.44 53.12,51.33 4.5,12.93 16.02,33.44 14.18,58.44 -1.87,25 -18.59,56.95 -24.8,58.39 0,0 -51.49,14.26 -64.03,19.93 -13.43,6.05 -46.56,2.89 -46.56,2.89 l -50.51,-1.57 c 0,0 -26.05,-13.59 -38.24,-24.02 -12.19,-10.47 -25.08,-26.68 -33.08,-45.43 z"
             style="fill:none;stroke:#000000;stroke-width:16.79999924;stroke-linecap:butt;stroke-linejoin:miter;stroke-miterlimit:4;stroke-dasharray:none;stroke-opacity:1"
             id="path4297"
             inkscape:connector-curvature="0" /><path
             d="m 2751.52,6139.65 c 0,0 37.86,7.15 42.54,5 13.79,-6.25 48.83,-2.5 50.08,-7.5 1.25,-5 42.58,-5 48.83,-13.75 0,0 27.54,-1.29 46.33,-31.33 18.75,-30.04 15,-61.33 15,-61.33 2.89,-13.01 -12.11,-64.22 -17.5,-67.62 0,0 -22.54,-51.32 -48.83,-66.32 -26.29,-15.04 -93.91,-25.04 -86.41,-26.29 7.54,-1.25 -63.83,8.75 -63.83,8.75 0,0 -35.23,21.13 -37.53,28.79 -3.79,12.54 -16.29,55.07 -13.79,66.36 2.5,11.25 -8.75,27.54 -2.5,48.83 6.25,21.29 9.72,63.4 15,71.33 10.04,15.04 52.61,45.08 52.61,45.08 z"
             style="fill:#000000;fill-opacity:1;fill-rule:evenodd;stroke:none"
             id="path4299"
             inkscape:connector-curvature="0" /><path
             d="m 2751.52,6139.65 c 0,0 37.86,7.15 42.54,5 13.79,-6.25 48.83,-2.5 50.08,-7.5 1.25,-5 42.58,-5 48.83,-13.75 0,0 27.54,-1.29 46.33,-31.33 18.75,-30.04 15,-61.33 15,-61.33 2.89,-13.01 -12.11,-64.22 -17.5,-67.62 0,0 -22.54,-51.32 -48.83,-66.32 -26.29,-15.04 -93.91,-25.04 -86.41,-26.29 7.54,-1.25 -63.83,8.75 -63.83,8.75 0,0 -35.23,21.13 -37.53,28.79 -3.79,12.54 -16.29,55.07 -13.79,66.36 2.5,11.25 -8.75,27.54 -2.5,48.83 6.25,21.29 9.72,63.4 15,71.33 10.04,15.04 52.61,45.08 52.61,45.08 z"
             style="fill:none;stroke:#000000;stroke-width:16.79999924;stroke-linecap:butt;stroke-linejoin:miter;stroke-miterlimit:4;stroke-dasharray:none;stroke-opacity:1"
             id="path4301"
             inkscape:connector-curvature="0" /><path
             d="m 2433.12,5369.49 c 12.54,-43.83 25.04,-66.37 25.04,-66.37 0,0 25.04,-27.53 36.33,-37.53 11.25,-10.04 53.83,-13.79 67.58,-10.04 13.79,3.79 57.58,17.54 57.58,17.54 0,0 56.33,30.03 61.37,48.82 3.59,13.52 16.25,20.04 16.25,43.83 0,23.79 10.03,73.83 3.75,92.62 -6.57,19.76 -16.25,45.08 -35.04,50.08 -14.96,3.98 -66.33,18.79 -81.37,17.54 -16.25,-1.37 -33.79,7.5 -61.33,1.25 -24.57,-5.59 -42.58,-8.75 -52.58,-30.04 -10.04,-21.29 -21.29,-37.58 -31.32,-68.87 -8.72,-27.23 -6.26,-58.83 -6.26,-58.83 z"
             style="fill:#000000;fill-opacity:1;fill-rule:evenodd;stroke:none"
             id="path4303"
             inkscape:connector-curvature="0" /><path
             d="m 2433.12,5369.49 c 12.54,-43.83 25.04,-66.37 25.04,-66.37 0,0 25.04,-27.53 36.33,-37.53 11.25,-10.04 53.83,-13.79 67.58,-10.04 13.79,3.79 57.58,17.54 57.58,17.54 0,0 56.33,30.03 61.37,48.82 3.59,13.52 16.25,20.04 16.25,43.83 0,23.79 10.03,73.83 3.75,92.62 -6.57,19.76 -16.25,45.08 -35.04,50.08 -14.96,3.98 -66.33,18.79 -81.37,17.54 -16.25,-1.37 -33.79,7.5 -61.33,1.25 -24.57,-5.59 -42.58,-8.75 -52.58,-30.04 -10.04,-21.29 -21.29,-37.58 -31.32,-68.87 -8.72,-27.23 -6.26,-58.83 -6.26,-58.83 z"
             style="fill:none;stroke:#000000;stroke-width:16.79999924;stroke-linecap:butt;stroke-linejoin:miter;stroke-miterlimit:4;stroke-dasharray:none;stroke-opacity:1"
             id="path4305"
             inkscape:connector-curvature="0" /><path
             d="m 2929.84,4539.84 c 27.54,-6.25 38.83,-22.54 38.83,-22.54 0,0 16.25,-38.82 11.25,-50.07 -5,-11.25 6.37,-61.14 -1.25,-76.37 0,0 -16.25,-50.08 -31.29,-58.83 -15.04,-8.75 -37.54,-30.04 -62.58,-41.33 -21.68,-9.72 -47.57,-27.54 -57.61,-16.25 -10,11.25 -30.04,13.75 -41.29,31.29 -11.29,17.54 -33.79,52.58 -30.04,66.33 3.75,13.79 1.25,51.33 2.5,73.87 0,0 -1.25,21.29 5,28.79 6.25,7.54 16.29,22.54 16.29,22.54 0,0 53.83,25.03 41.29,18.78 -8.75,-4.37 42.58,12.5 50.08,16.29 7.5,3.75 58.82,7.5 58.82,7.5 z"
             style="fill:#000000;fill-opacity:1;fill-rule:evenodd;stroke:none"
             id="path4307"
             inkscape:connector-curvature="0" /><path
             d="m 2929.84,4539.84 c 27.54,-6.25 38.83,-22.54 38.83,-22.54 0,0 16.25,-38.82 11.25,-50.07 -5,-11.25 6.37,-61.14 -1.25,-76.37 0,0 -16.25,-50.08 -31.29,-58.83 -15.04,-8.75 -37.54,-30.04 -62.58,-41.33 -21.68,-9.72 -47.57,-27.54 -57.61,-16.25 -10,11.25 -30.04,13.75 -41.29,31.29 -11.29,17.54 -33.79,52.58 -30.04,66.33 3.75,13.79 1.25,51.33 2.5,73.87 0,0 -1.25,21.29 5,28.79 6.25,7.54 16.29,22.54 16.29,22.54 0,0 53.83,25.03 41.29,18.78 -8.75,-4.37 42.58,12.5 50.08,16.29 7.5,3.75 58.82,7.5 58.82,7.5 z"
             style="fill:none;stroke:#000000;stroke-width:16.79999924;stroke-linecap:butt;stroke-linejoin:miter;stroke-miterlimit:4;stroke-dasharray:none;stroke-opacity:1"
             id="path4309"
             inkscape:connector-curvature="0" /><path
             d="m 4717.38,3471.02 c 2.5,-30.04 22.54,-112.66 22.54,-112.66 l 20,-30.04 c 14.06,-21.09 40.08,-26.29 40.08,-26.29 0,0 23.79,-1.25 31.29,2.5 7.5,3.75 62.62,30.04 62.62,30.04 l 63.82,41.33 62.58,42.54 35.08,26.29 -7.54,26.29 c -5.35,18.86 -31.29,18.78 -40.04,32.53 -6.33,10 -18.79,8.79 -46.33,22.54 -17.93,8.99 -42.57,12.54 -65.07,7.54 -22.54,-5.04 -81.37,-8.79 -103.91,-15.04 -22.54,-6.25 -75.12,-47.57 -75.12,-47.57 z"
             style="fill:#000000;fill-opacity:1;fill-rule:evenodd;stroke:none"
             id="path4311"
             inkscape:connector-curvature="0" /><path
             d="m 4717.38,3471.02 c 2.5,-30.04 22.54,-112.66 22.54,-112.66 l 20,-30.04 c 14.06,-21.09 40.08,-26.29 40.08,-26.29 0,0 23.79,-1.25 31.29,2.5 7.5,3.75 62.62,30.04 62.62,30.04 l 63.82,41.33 62.58,42.54 35.08,26.29 -7.54,26.29 c -5.35,18.86 -31.29,18.78 -40.04,32.53 -6.33,10 -18.79,8.79 -46.33,22.54 -17.93,8.99 -42.57,12.54 -65.07,7.54 -22.54,-5.04 -81.37,-8.79 -103.91,-15.04 -22.54,-6.25 -75.12,-47.57 -75.12,-47.57 z"
             style="fill:none;stroke:#000000;stroke-width:16.79999924;stroke-linecap:butt;stroke-linejoin:miter;stroke-miterlimit:4;stroke-dasharray:none;stroke-opacity:1"
             id="path4313"
             inkscape:connector-curvature="0" /><path
             d="m 3228.95,4610.62 -5,-190.27 5,190.27 z"
             style="fill:none;stroke:#000000;stroke-width:16.79999924;stroke-linecap:butt;stroke-linejoin:miter;stroke-miterlimit:4;stroke-dasharray:none;stroke-opacity:1"
             id="path4315"
             inkscape:connector-curvature="0" /><path
             d="m 3679.61,4735.82 c 20.04,-140.2 75.12,-240.35 75.12,-240.35 l 55.07,-50.08"
             style="fill:none;stroke:#000000;stroke-width:16.79999924;stroke-linecap:butt;stroke-linejoin:miter;stroke-miterlimit:4;stroke-dasharray:none;stroke-opacity:1"
             id="path4317"
             inkscape:connector-curvature="0" /><path
             d="m 3794.8,4775.9 c 20,-135.2 90.12,-285.43 90.12,-285.43 l 0,5"
             style="fill:none;stroke:#000000;stroke-width:16.79999924;stroke-linecap:butt;stroke-linejoin:miter;stroke-miterlimit:4;stroke-dasharray:none;stroke-opacity:1"
             id="path4319"
             inkscape:connector-curvature="0" /><path
             d="m 3894.92,4820.94 c 70.12,-120.16 85.16,-310.43 85.16,-310.43 l 5,0"
             style="fill:none;stroke:#000000;stroke-width:16.79999924;stroke-linecap:butt;stroke-linejoin:miter;stroke-miterlimit:4;stroke-dasharray:none;stroke-opacity:1"
             id="path4321"
             inkscape:connector-curvature="0" /><path
             d="m 2913.48,5496.95 c -75.12,-100.15 -35.04,-270.39 -35.04,-270.39 l -5.04,-5"
             style="fill:none;stroke:#000000;stroke-width:16.79999924;stroke-linecap:butt;stroke-linejoin:miter;stroke-miterlimit:4;stroke-dasharray:none;stroke-opacity:1"
             id="path4323"
             inkscape:connector-curvature="0" /><path
             d="m 2978.55,5486.95 c -55.07,-155.23 -40.03,-240.35 -40.03,-240.35 l 5,10"
             style="fill:none;stroke:#000000;stroke-width:16.79999924;stroke-linecap:butt;stroke-linejoin:miter;stroke-miterlimit:4;stroke-dasharray:none;stroke-opacity:1"
             id="path4325"
             inkscape:connector-curvature="0" /><path
             d="m 3048.67,5486.95 c -35.04,-125.19 -50.08,-190.27 -50.08,-190.27 l 0,5"
             style="fill:none;stroke:#000000;stroke-width:16.79999924;stroke-linecap:butt;stroke-linejoin:miter;stroke-miterlimit:4;stroke-dasharray:none;stroke-opacity:1"
             id="path4327"
             inkscape:connector-curvature="0" /><path
             d="m 3559.45,5526.99 c -70.11,-110.15 -65.11,-265.39 -65.11,-265.39"
             style="fill:none;stroke:#000000;stroke-width:16.79999924;stroke-linecap:butt;stroke-linejoin:miter;stroke-miterlimit:4;stroke-dasharray:none;stroke-opacity:1"
             id="path4329"
             inkscape:connector-curvature="0" /><path
             d="m 3664.61,5506.99 c 20,-110.19 -20.04,-265.39 -20.04,-265.39"
             style="fill:none;stroke:#000000;stroke-width:16.79999924;stroke-linecap:butt;stroke-linejoin:miter;stroke-miterlimit:4;stroke-dasharray:none;stroke-opacity:1"
             id="path4331"
             inkscape:connector-curvature="0" /><path
             d="m 3799.8,5481.95 c 5,-150.23 -15.03,-255.39 -15.03,-255.39"
             style="fill:none;stroke:#000000;stroke-width:16.79999924;stroke-linecap:butt;stroke-linejoin:miter;stroke-miterlimit:4;stroke-dasharray:none;stroke-opacity:1"
             id="path4333"
             inkscape:connector-curvature="0" /><path
             d="m 3869.92,6037.77 c -40.08,-95.15 -60.12,-215.31 -60.12,-215.31"
             style="fill:none;stroke:#000000;stroke-width:16.79999924;stroke-linecap:butt;stroke-linejoin:miter;stroke-miterlimit:4;stroke-dasharray:none;stroke-opacity:1"
             id="path4335"
             inkscape:connector-curvature="0" /><path
             d="m 3950.04,6077.81 c -35.08,-115.15 -75.12,-205.27 -75.12,-205.27"
             style="fill:none;stroke:#000000;stroke-width:16.79999924;stroke-linecap:butt;stroke-linejoin:miter;stroke-miterlimit:4;stroke-dasharray:none;stroke-opacity:1"
             id="path4337"
             inkscape:connector-curvature="0" /><path
             d="m 3799.8,6087.85 c -45.07,-85.12 -65.11,-230.35 -65.11,-230.35"
             style="fill:none;stroke:#000000;stroke-width:16.79999924;stroke-linecap:butt;stroke-linejoin:miter;stroke-miterlimit:4;stroke-dasharray:none;stroke-opacity:1"
             id="path4339"
             inkscape:connector-curvature="0" /><path
             d="m 3258.98,6082.85 c -15,-130.19 -10,-190.31 -10,-190.31"
             style="fill:none;stroke:#000000;stroke-width:16.79999924;stroke-linecap:butt;stroke-linejoin:miter;stroke-miterlimit:4;stroke-dasharray:none;stroke-opacity:1"
             id="path4341"
             inkscape:connector-curvature="0" /><path
             d="m 3188.87,6082.85 c -30.04,-105.15 -40.04,-200.31 -40.04,-200.31"
             style="fill:none;stroke:#000000;stroke-width:16.79999924;stroke-linecap:butt;stroke-linejoin:miter;stroke-miterlimit:4;stroke-dasharray:none;stroke-opacity:1"
             id="path4343"
             inkscape:connector-curvature="0" /><path
             d="m 4330.59,6643.67 c -90.12,-80.12 -140.2,-180.27 -140.2,-180.27"
             style="fill:none;stroke:#000000;stroke-width:16.79999924;stroke-linecap:butt;stroke-linejoin:miter;stroke-miterlimit:4;stroke-dasharray:none;stroke-opacity:1"
             id="path4345"
             inkscape:connector-curvature="0" /><path
             d="m 4375.66,6618.63 c -35.07,-95.15 -85.11,-145.19 -85.11,-145.19 l 10,-5.04"
             style="fill:none;stroke:#000000;stroke-width:16.79999924;stroke-linecap:butt;stroke-linejoin:miter;stroke-miterlimit:4;stroke-dasharray:none;stroke-opacity:1"
             id="path4347"
             inkscape:connector-curvature="0" /><path
             d="m 3899.96,6778.87 c -30.04,-75.12 -60.12,-170.24 -60.12,-170.24"
             style="fill:none;stroke:#000000;stroke-width:16.79999924;stroke-linecap:butt;stroke-linejoin:miter;stroke-miterlimit:4;stroke-dasharray:none;stroke-opacity:1"
             id="path4349"
             inkscape:connector-curvature="0" /><path
             d="m 5231.95,3794.41 c 130.2,-110.15 235.35,-165.23 235.35,-165.23 l 0,-5"
             style="fill:none;stroke:#000000;stroke-width:16.79999924;stroke-linecap:butt;stroke-linejoin:miter;stroke-miterlimit:4;stroke-dasharray:none;stroke-opacity:1"
             id="path4351"
             inkscape:connector-curvature="0" /><path
             d="m 5146.8,3709.3 c 110.19,-135.2 150.23,-185.28 150.23,-185.28"
             style="fill:none;stroke:#000000;stroke-width:16.79999924;stroke-linecap:butt;stroke-linejoin:miter;stroke-miterlimit:4;stroke-dasharray:none;stroke-opacity:1"
             id="path4353"
             inkscape:connector-curvature="0" /><path
             d="m 5432.23,4450.39 c 170.27,-30.04 500.74,-25.04 500.74,-25.04 l 0,-5"
             style="fill:none;stroke:#000000;stroke-width:16.79999924;stroke-linecap:butt;stroke-linejoin:miter;stroke-miterlimit:4;stroke-dasharray:none;stroke-opacity:1"
             id="path4355"
             inkscape:connector-curvature="0" /><path
             d="m 5429.73,4450.39 c 165.23,-30.04 383.08,-80.12 383.08,-80.12"
             style="fill:none;stroke:#000000;stroke-width:16.79999924;stroke-linecap:butt;stroke-linejoin:miter;stroke-miterlimit:4;stroke-dasharray:none;stroke-opacity:1"
             id="path4357"
             inkscape:connector-curvature="0" /><path
             d="m 5429.73,4455.43 c 105.15,-105.2 262.89,-210.35 262.89,-210.35"
             style="fill:none;stroke:#000000;stroke-width:16.79999924;stroke-linecap:butt;stroke-linejoin:miter;stroke-miterlimit:4;stroke-dasharray:none;stroke-opacity:1"
             id="path4359"
             inkscape:connector-curvature="0" /><path
             d="m 5439.73,4452.89 c 95.15,-175.23 222.85,-302.93 222.85,-302.93 l -15.04,5"
             style="fill:none;stroke:#000000;stroke-width:16.79999924;stroke-linecap:butt;stroke-linejoin:miter;stroke-miterlimit:4;stroke-dasharray:none;stroke-opacity:1"
             id="path4361"
             inkscape:connector-curvature="0" /></g></g></g><rect
       style="opacity:1;fill:none;fill-opacity:1;fill-rule:evenodd;stroke:#000000;stroke-width:0.80000001;stroke-linecap:round;stroke-linejoin:round;stroke-miterlimit:4;stroke-dasharray:none;stroke-dashoffset:0;stroke-opacity:1"
       id="rect4363"
       width="141.73228"
       height="178.0898"
       x="756.4408"
       y="-742.33472"
       transform="scale(1,-1)"
       ry="1.720816" /><ellipse
       style="opacity:1;fill:none;fill-opacity:1;fill-rule:evenodd;stroke:#ff0000;stroke-width:0.80000001;stroke-linecap:round;stroke-linejoin:round;stroke-miterlimit:4;stroke-dasharray:none;stroke-dashoffset:0;stroke-opacity:1"
       id="path4367"
       cx="878.07074"
       cy="-688.86633"
       transform="scale(1,-1)"
       rx="4.6755629"
       ry="4.3638592" /></g></svg>