<?xml version="1.0" encoding="UTF-8" standalone="no"?>
<!-- Created with Inkscape (http://www.inkscape.org/) -->

<svg
   xmlns:dc="http://purl.org/dc/elements/1.1/"
   xmlns:cc="http://creativecommons.org/ns#"
   xmlns:rdf="http://www.w3.org/1999/02/22-rdf-syntax-ns#"
   xmlns:svg="http://www.w3.org/2000/svg"
   xmlns="http://www.w3.org/2000/svg"
   xmlns:sodipodi="http://sodipodi.sourceforge.net/DTD/sodipodi-0.dtd"
   xmlns:inkscape="http://www.inkscape.org/namespaces/inkscape"
   width="420mm"
   height="297mm"
   viewBox="0 0 1488.189 1052.3622"
   id="svg2"
   version="1.1"
   inkscape:version="0.91 r13725"
   sodipodi:docname="perfil-gustavo.svg">
  <defs
     id="defs4" />
  <sodipodi:namedview
     id="base"
     pagecolor="#ffffff"
     bordercolor="#666666"
     borderopacity="1.0"
     inkscape:pageopacity="0.0"
     inkscape:pageshadow="2"
     inkscape:zoom="0.64282748"
     inkscape:cx="67.488532"
     inkscape:cy="646.85182"
     inkscape:document-units="px"
     inkscape:current-layer="layer1"
     showgrid="false"
     inkscape:window-width="1215"
     inkscape:window-height="1000"
     inkscape:window-x="65"
     inkscape:window-y="24"
     inkscape:window-maximized="1" />
  <metadata
     id="metadata7">
    <rdf:RDF>
      <cc:Work
         rdf:about="">
        <dc:format>image/svg+xml</dc:format>
        <dc:type
           rdf:resource="http://purl.org/dc/dcmitype/StillImage" />
        <dc:title />
      </cc:Work>
    </rdf:RDF>
  </metadata>
  <g
     inkscape:label="Capa 1"
     inkscape:groupmode="layer"
     id="layer1"
     transform="translate(0,-3.464567e-6)">
    <g
       id="g4592"
       style="fill:none"
       transform="matrix(0.28309306,0,0,0.28309448,234.19813,100.75385)">
      <path
         inkscape:connector-curvature="0"
         id="path4588"
         d="m 566.60948,77.838591 50.29078,69.289519 3.35272,3.35272 c 0,0 21.23388,23.46903 27.93932,34.64476 6.70544,11.17573 10.05816,20.11631 10.05816,20.11631 0,0 26.82175,26.82175 42.46777,48.05564 15.64602,21.23388 37.99748,71.52467 35.76233,89.40583 -2.23515,17.88117 23.46903,41.3502 23.46903,41.3502 l 112.87487,87.17069 c 0,0 71.52467,56.99622 82.70039,91.64098 11.17573,34.64476 -21.23388,64.81923 -21.23388,64.81923 l -45.82049,30.17447 c 0,0 -14.52845,10.05815 -13.41088,13.41087 1.11758,3.35272 24.58661,29.0569 24.58661,29.0569 l 8.94058,17.88117 3.35272,14.52844 -4.47029,7.82302 10.05816,17.88117 c 0,0 -3.35272,14.52844 -6.70544,21.23388 -3.35272,6.70544 3.35272,14.52845 2.23514,25.70418 -1.11757,11.17573 -5.58786,17.88117 -7.82301,25.70418 -2.23514,7.82301 41.3502,11.17573 58.1138,32.40961 16.76359,21.23389 46.93803,54.76107 54.76103,88.28826 7.823,33.52719 39.1151,70.40708 39.1151,70.40708 0,0 13.4109,12.2933 6.7054,23.469 -6.7054,11.1758 -93.8761,-16.7635 -93.8761,-16.7635 l -2.23514,2.2351 -14.52845,-15.646 -6.70544,12.2933 -11.17573,1.1176 7.82301,23.469 7.82301,25.7042 17.88117,27.9393 2.23515,14.5284 -5.58787,15.6461 17.88117,14.5284 3.35272,20.1163 5.58786,27.9393 -7.82301,40.2327 0,29.0569 -20.11631,11.1757 -8.94059,14.5284 -16.76359,24.5866 c 0,0 -1.11757,-2.2351 -2.23515,13.4109 -1.11757,15.646 -4.47029,25.7042 -4.47029,25.7042 l 0,14.5284 -4.47029,14.5285 -18.99874,-4.4703 -15.64602,-11.1757 -23.46903,5.5878 c 0,0 -34.64476,-22.3514 -41.3502,-22.3514 -6.70544,0 -33.52719,1.1175 -33.52719,1.1175 l -20.11631,-7.823 -20.11631,-12.2933 -30.17447,-12.2933 c 0,0 -117.34516,14.5285 -128.52089,109.5222 -11.17573,94.9937 -13.41087,96.1113 -13.41087,96.1113 l -777.83076,-71.5247 35.76233,-53.6435 -11.17573,-13.4109 c 0,0 -65.9368,49.1732 -100.58156,39.1151 -34.64476,-10.0582 -51.40836,-7.823 -70.4071,-22.3515 -18.99874,-14.5284 -53.6435,-58.1138 -53.6435,-58.1138 0,0 17.88117,-3.3527 13.41088,-29.0569 -4.47029,-25.7042 13.41087,-43.5853 13.41087,-43.5853 0,0 16.7636,-21.2339 24.58661,-24.5866 7.82301,-3.3528 -23.46903,10.0581 -27.93933,11.1757 -4.47029,1.1176 -27.93932,20.1163 -27.93932,20.1163 l -18.99874,-11.1757 -3.35272,-11.1757 -23.46903,-2.2352 -2.23514,-22.3515 29.05689,-33.5271 c 0,0 -71.52467,29.0569 -107.287,-34.6448 -35.76233,-63.7017 -21.23389,-77.1125 -21.23389,-77.1125 l 20.11632,-13.4109 c 0,0 1.11757,-23.469 -3.35272,-32.4096 -4.47029,-8.9406 11.17573,-21.2339 17.88117,-26.8218 6.70543,-5.5878 35.76233,-34.64474 35.76233,-34.64474 0,0 15.64602,1.11758 -27.93932,2.23515 -43.58535,1.11757 -68.17195,-18.99874 -68.17195,-18.99874 l -3.35272,-20.11631 58.11379,17.88116 53.6435,-10.05815 10.05816,-31.29204 -33.52719,15.64602 -18.50839,15.28733 3.97994,-21.99277 0,0 0,0 0,0 -25.70418,-15.64602 c 0,0 -10.05815,-26.82175 -16.76359,-31.29204 -6.70544,-4.4703 -20.11631,-14.52845 -21.23389,-23.46903 -1.11757,-8.94059 0,-43.58535 0,-43.58535 l 27.93933,53.6435 18.99874,6.70544 29.05689,0 1.11758,-8.94058 1.11757,-22.35146 0,-15.64602 -5.58786,-16.7636 c 0,0 -7.82302,-15.64602 -15.64603,-25.70418 -7.82301,-10.05815 -10.05815,-12.2933 -10.05815,-12.2933 l -3.35272,-10.05815 -17.88117,-35.76234 c 0,0 -1.11757,-6.70544 -1.11757,-20.11631 l 0,-30.17447 c 0,-10.05816 -15.64602,-36.87991 -20.11631,-41.3502 -4.4703,-4.47029 -2.23515,-13.41087 -6.70544,-31.29204 -4.47029,-17.88117 1.11757,-20.11631 -4.47029,-36.87991 -5.58787,-16.76359 -8.94059,-23.46903 -8.94059,-29.05689 0,-5.58787 10.05816,14.52845 0,-29.0569 -10.05815,-43.58534 -16.76359,-75.99496 -16.76359,-82.7004 l 0,-17.88116 0,-62.58409 c 0,-13.41087 -8.94058,-22.35146 10.05816,-36.8799 18.99874,-14.52845 25.70417,-15.64602 25.70417,-15.64602"
         style="fill:none;fill-rule:evenodd;stroke:#000000;stroke-width:3.53239846px;stroke-linecap:butt;stroke-linejoin:miter;stroke-opacity:1"
         sodipodi:nodetypes="cccscssccsccscccccssssscsccccccccccccccccccsccccccsccccsccccsscscssccccccsccsscsccccccccccccssccccccccscccsssssssscssc" />
      <path
         inkscape:connector-curvature="0"
         id="path4590"
         d="m -566.02481,310.72307 26.82175,-7.82301 -3.35272,-30.17447 c 0,0 -1.11757,-2.23515 10.05815,-11.17573 11.17573,-8.94058 21.23389,-18.99874 21.23389,-18.99874 l 4.47029,-10.05816 42.46777,8.94059 c 0,0 2.23515,-45.82049 5.58787,-53.6435 3.35272,-7.82302 33.52719,-41.3502 33.52719,-41.3502 0,0 4.47029,-4.47029 17.88116,-17.88117 13.41088,-13.41087 35.76234,-34.64476 42.46777,-37.997478 6.70544,-3.352719 14.52845,-16.763594 20.11632,-23.469032 5.58786,-6.705438 24.5866,-26.82175 24.5866,-26.82175 l 26.82175,-17.881167 c 0,0 2.23515,-18.99874 18.99874,-29.056896 16.7636,-10.058157 29.0569,-14.528448 29.0569,-14.528448 l 147.519625,-11.17573 39.115052,4.470292 32.409615,-11.175729 39.115053,-10.058157 c 0,0 52.525928,-52.525925 62.584084,-60.348935 10.058156,-7.82301 20.116313,-12.29331 26.821751,-14.52845 6.70544,-2.23515 25.70418,3.35272 25.70418,3.35272 l 4.47029,6.70543 105.05185,-2.23514 c 0,0 24.58661,-3.35272 25.70418,3.35272 1.11757,6.70543 26.82175,1.11757 31.29204,0 4.47029,-1.11758 23.46903,3.35272 23.46903,3.35272 0,0 20.11632,14.528438 31.29205,14.528438 11.17573,0 37.99748,0 37.99748,0 0,0 6.70543,5.58787 17.88116,12.29331 11.17573,6.705437 31.29204,12.293302 37.99748,14.528448 6.70544,2.235145 18.99874,8.940583 34.64476,14.528448 15.64602,5.587864 30.17447,14.528448 36.87991,14.528448 6.70544,0 17.88117,1.117573 25.70418,0 7.82301,-1.117573 14.52844,-20.116313 17.88116,-1.117573 3.35272,18.99874 3.35272,40.23262504 3.35272,40.23262504 l 16.7636,41.35019896 c 0,0 0,-3.352719 0,6.705437 0,10.058157 0,29.056896 0,29.056896 l -13.41088,18.99874 -2.23514,0"
         style="fill:none;fill-rule:evenodd;stroke:#000000;stroke-width:3.53239846px;stroke-linecap:butt;stroke-linejoin:miter;stroke-opacity:1" />
    </g>
  </g>
</svg>
