<?xml version="1.0" encoding="UTF-8" standalone="no"?>
<!-- Created with Inkscape (http://www.inkscape.org/) -->

<svg
   xmlns:dc="http://purl.org/dc/elements/1.1/"
   xmlns:cc="http://creativecommons.org/ns#"
   xmlns:rdf="http://www.w3.org/1999/02/22-rdf-syntax-ns#"
   xmlns:svg="http://www.w3.org/2000/svg"
   xmlns="http://www.w3.org/2000/svg"
   xmlns:sodipodi="http://sodipodi.sourceforge.net/DTD/sodipodi-0.dtd"
   xmlns:inkscape="http://www.inkscape.org/namespaces/inkscape"
   width="210mm"
   height="297mm"
   viewBox="0 0 744.09448819 1052.3622047"
   id="svg2"
   version="1.1"
   inkscape:version="0.91 r13725"
   sodipodi:docname="perfil-jessi.svg">
  <defs
     id="defs4" />
  <sodipodi:namedview
     id="base"
     pagecolor="#ffffff"
     bordercolor="#666666"
     borderopacity="1.0"
     inkscape:pageopacity="0.0"
     inkscape:pageshadow="2"
     inkscape:zoom="0.9899495"
     inkscape:cx="195.6612"
     inkscape:cy="626.2971"
     inkscape:document-units="px"
     inkscape:current-layer="layer2"
     showgrid="false"
     inkscape:window-width="1215"
     inkscape:window-height="1000"
     inkscape:window-x="65"
     inkscape:window-y="24"
     inkscape:window-maximized="1" />
  <metadata
     id="metadata7">
    <rdf:RDF>
      <cc:Work
         rdf:about="">
        <dc:format>image/svg+xml</dc:format>
        <dc:type
           rdf:resource="http://purl.org/dc/dcmitype/StillImage" />
        <dc:title />
      </cc:Work>
    </rdf:RDF>
  </metadata>
  <g
     inkscape:groupmode="layer"
     id="layer2"
     inkscape:label="Capa 2"
     style="display:inline">
    <path
       style="opacity:1;fill:none;fill-opacity:0.99516913;fill-rule:evenodd;stroke:#343200;stroke-width:1;stroke-linecap:butt;stroke-linejoin:miter;stroke-miterlimit:4;stroke-dasharray:none;stroke-dashoffset:0;stroke-opacity:1"
       d="m 96.167734,367.65228 -16.903631,32.8944 c -2.789301,5.42795 17.842783,7.30988 17.842783,7.30988 0,0 -2.13072,9.63484 0,13.706 1.932009,3.69164 10.330014,7.30992 10.330014,7.30992 0,0 -6.7921,1.78208 -7.512728,4.56863 -0.615883,2.38133 3.756338,6.39615 3.756338,6.39615 0,0 -2.99596,14.59463 0.9391,20.10212 6.40521,8.96465 30.99008,12.79227 30.99008,12.79227 0,0 16.11896,-2.59218 23.47731,0 6.89649,2.42943 13.01827,7.65314 16.90367,13.70602 4.52463,7.04868 6.1041,24.21392 6.1041,24.21392 l 99.54386,-28.32575 c 0,0 -12.63612,-29.71212 -12.49356,-45.36748 0.13344,-14.68644 8.64777,-29.3059 12.49356,-42.35095 4.16967,-14.14378 8.90519,-37.06558 8.90519,-37.06558 0,0 1.22434,-23.92206 -0.64585,-34.6746 -2.18127,-12.54127 -9.85701,-33.24862 -9.85701,-33.24862 l 5.97639,-7.10721 5.97631,-3.87661 c 0,0 4.7643,-6.66142 7.96847,-5.81498 7.18073,1.89689 8.00603,12.81533 8.6325,20.02932 0.82271,9.47425 -6.64038,27.78264 -6.64038,27.78264 l -2.00116,45.36848 c 0,0 -0.29927,34.62782 -4.23727,50.39171 -2.93182,11.7363 -7.41966,20.83112 -8.23054,32.88332 -0.86625,12.87481 0.42851,22.75425 7.1035,33.90275 5.44811,9.09956 9.59033,11.51882 20.33349,12.79794 14.00242,1.66716 19.01194,-9.12104 31.04421,-8.62458 7.97358,0.32889 9.39097,18.27464 9.39097,18.27464 0,0 6.04611,26.67867 11.26905,39.29059 3.45475,8.34227 13.14731,23.75702 13.14731,23.75702 0,0 8.10641,-27.99538 8.45186,-42.03169 0.4347,-17.6631 -5.20385,-35.25279 -6.57368,-52.99658 -1.57171,-20.35846 -3.49358,-41.18236 -7.51272,-61.22014 -4.47743,-22.32249 -20.28182,-41.57636 -24.41644,-63.96134 -2.8792,-15.58833 2.81052,-31.91399 0,-47.51415 -2.70128,-14.9942 -5.498,-31.63085 -15.96457,-42.94554 -8.14839,-8.8086 -32.86825,-15.53345 -32.86825,-15.53345 0,0 -5.89067,-1.54213 -10.33003,-1.82744 -6.85036,-0.44032 -13.1473,5.48241 -13.1473,5.48241 0,0 -5.04737,0.42778 -7.51272,0 -6.23992,-1.08284 -12.05176,-8.90327 -17.84275,-6.39616 -3.08032,1.33359 -3.7564,9.13739 -3.7564,9.13739 0,0 -21.63716,-7.28659 -33.80733,-8.22364 -18.61898,-1.43367 -36.9241,1.07415 -54.46739,7.30985 -13.80669,4.90752 -28.13636,10.04801 -39.44191,19.18839 -11.17146,9.032 -20.825115,20.71588 -26.294558,33.80819 -5.702124,13.64896 -9.012585,29.49693 -5.634594,43.85922 1.41397,6.01179 5.891882,10.31575 6.573607,16.44718 0.28772,2.58718 0.939099,6.39614 0.939099,6.39614 z"
       id="path3359"
       inkscape:connector-curvature="0"
       sodipodi:nodetypes="cscscscscssccsscscccssccssssscscsssssscscsscssssssc" />
  </g>
</svg>
