<?xml version="1.0" encoding="UTF-8" standalone="no"?>
<!-- Created with Inkscape (http://www.inkscape.org/) -->
 
<svg
   xmlns:dc="http://purl.org/dc/elements/1.1/"
   xmlns:cc="http://creativecommons.org/ns#"
   xmlns:rdf="http://www.w3.org/1999/02/22-rdf-syntax-ns#"
   xmlns:svg="http://www.w3.org/2000/svg"
   xmlns="http://www.w3.org/2000/svg"
   xmlns:sodipodi="http://sodipodi.sourceforge.net/DTD/sodipodi-0.dtd"
   xmlns:inkscape="http://www.inkscape.org/namespaces/inkscape"
   width="210mm"
   height="297mm"
   viewBox="0 0 744.09448819 1052.3622047"
   id="svg4149"
   version="1.1"
   inkscape:version="0.91 r13725"
   sodipodi:docname="perfil-ana.svg">
  <defs
     id="defs4151" />
  <sodipodi:namedview
     id="base"
     pagecolor="#ffffff"
     bordercolor="#666666"
     borderopacity="1.0"
     inkscape:pageopacity="0.0"
     inkscape:pageshadow="2"
     inkscape:zoom="0.49497475"
     inkscape:cx="448.5344"
     inkscape:cy="613.07287"
     inkscape:document-units="px"
     inkscape:current-layer="layer1"
     showgrid="false"
     inkscape:window-width="1215"
     inkscape:window-height="1000"
     inkscape:window-x="65"
     inkscape:window-y="24"
     inkscape:window-maximized="1" />
  <metadata
     id="metadata4154">
    <rdf:RDF>
      <cc:Work
         rdf:about="">
        <dc:format>image/svg+xml</dc:format>
        <dc:type
           rdf:resource="http://purl.org/dc/dcmitype/StillImage" />
        <dc:title></dc:title>
      </cc:Work>
    </rdf:RDF>
  </metadata>
  <g
     inkscape:label="Layer 1"
     inkscape:groupmode="layer"
     id="layer1">
    <path
       inkscape:connector-curvature="0"
       style="fill:none;fill-rule:evenodd;stroke:#ff0000;stroke-width:8.19999981;stroke-linecap:butt;stroke-linejoin:miter;stroke-miterlimit:4;stroke-dasharray:none;stroke-opacity:1"
       d="m 305.0457,307.46793 c -1.54948,0.61937 2.82454,-2.0056 4.47457,-2.24805 7.49124,-1.10071 14.80184,3.93955 22.37277,3.93412 6.4369,-0.004 13.08174,-0.86851 19.01686,-3.3721 4.43638,-1.87139 9.54408,-4.13141 11.74572,-8.43022 3.49776,-6.82955 -1.75624,-15.56719 0,-23.04258 0.76625,-3.26155 2.26735,-6.47989 4.47455,-8.99222 1.33463,-1.51912 5.31963,-1.36615 5.03387,-3.37209 -2.89156,-10.45968 -11.23113,-4.65162 -9.50842,-9.55423 1.94201,-4.37146 10.54054,-2.85939 12.30502,-7.30618 1.00538,-2.53371 -1.72037,-5.19043 -2.23727,-7.8682 -0.67826,-3.5136 -3.04703,-7.66905 -1.11864,-10.67828 2.23431,-3.48659 8.09788,-1.99459 11.7457,-3.93409 4.54561,-2.41679 6.79128,-10.43983 2.98853,-15.87277 -15.54891,-22.21453 -15.21749,-20.35769 -23.12403,-38.08059 -2.66376,-5.97095 4.41184,-12.56533 4.47456,-19.10846 0.17082,-17.81996 -7.77993,-34.77836 -11.18639,-52.267302 -0.97668,-5.014336 5.02894,-6.594667 -1.11864,-20.794532 -1.99274,-4.602884 0.97477,1.056335 -7.27115,-5.620145 -4.78184,-3.871714 -1.9095,-5.213577 -7.27116,-11.007474 -2.28885,-2.473405 -11.24272,-0.23282 -12.86435,0.891222 -2.08347,0.06478 -4.67856,0.357007 -6.15252,-1.124042 -1.47392,-1.481018 0.48741,-4.846972 -1.11862,-6.182138 0,0 -10.11125,-3.525169 -10.20346,-4.496106 -0.18241,-1.920056 -0.22933,1.260728 -2.10158,1.686032 -2.91529,0.662259 -7.48866,2.058316 -8.94912,-0.562021 -3.87865,-6.959048 -9.99372,-4.401639 -13.98298,-6.744159 -10.00301,-5.873861 -20.06823,-2.790107 -30.20325,-3.372095 -5.76241,-0.330898 -18.05502,8.15435 -16.22026,3.934116 0.87291,-2.007888 -20.86767,-22.231261 -76.06748,17.422434 -2.96563,2.130407 -16.42348,23.731998 -25.16938,33.158832 -16.71058,18.011638 -10.21469,35.093428 -15.66093,38.216938 -3.42831,1.96619 -4.286,1.79663 -9.40488,6.85989 -15.590428,15.42105 -1.93876,32.61169 -2.34084,33.60512 -4.76614,1.37396 -25.129889,31.09965 -29.64391,60.13553 -2.626837,16.89653 -14.743508,10.38463 -11.745719,46.36616 0.384148,4.61079 9.72243,5.44257 12.305011,9.27324 2.91692,4.32649 -22.306115,16.14319 -19.21168,18.0497 2.306607,1.42114 29.154483,-11.11318 31.68344,4.72892 1.880948,11.78272 -17.003223,5.37653 3.748526,60.96147 2.809572,7.52564 11.259942,-17.19026 15.101602,-10.11625 17.05974,31.41364 38.83095,6.18191 41.26268,17.02796 3.99636,17.82462 45.36537,26.49954 28.09296,20.62697 -17.41781,-5.922 -24.95671,-35.09274 -17.33891,-24.16659 23.99529,34.41623 59.16248,13.44598 58.16923,17.42244 -4.60043,18.41778 36.80405,35.05071 36.91509,37.65494 0.95724,22.44955 33.7185,27.10668 42.50828,14.05037 1.77241,-2.63274 -24.42798,9.84007 -16.77958,-7.8682 1.17129,-2.71191 5.45326,4.5207 12.30504,-6.18217 2.6216,-4.09512 3.49721,-12.44183 -0.55933,-17.42243 -7.80482,-9.58276 -30.37765,4.08401 -36.35576,-6.74417 -3.20787,-5.81037 1.1505,-21.06166 7.27114,-18.54647 5.73778,2.35783 14.37636,-3.8981 16.22025,-1.68603 5.24399,6.29086 19.36909,11.40405 26.84735,3.93408 5.1431,-5.13738 -7.4579,-13.54624 -6.71184,-20.79453 2.96258,-28.78207 3.60404,-63.60056 0.55933,-62.38357 z"
       id="path3504" />
  </g>
</svg>
