<?xml version="1.0" encoding="UTF-8" standalone="no"?>
<svg
   xmlns:dc="http://purl.org/dc/elements/1.1/"
   xmlns:cc="http://creativecommons.org/ns#"
   xmlns:rdf="http://www.w3.org/1999/02/22-rdf-syntax-ns#"
   xmlns:svg="http://www.w3.org/2000/svg"
   xmlns="http://www.w3.org/2000/svg"
   version="1.1"
   id="svg4136"
   viewBox="0 0 744.09448819 1052.3622047"
   height="297mm"
   width="210mm">
  <defs
     id="defs4138" />
  <metadata
     id="metadata4141">
    <rdf:RDF>
      <cc:Work
         rdf:about="">
        <dc:format>image/svg+xml</dc:format>
        <dc:type
           rdf:resource="http://purl.org/dc/dcmitype/StillImage" />
        <dc:title></dc:title>
      </cc:Work>
    </rdf:RDF>
  </metadata>
  <g
     id="layer1">
    <g
       transform="translate(135.00294,136.96518)"
       id="layer2">
      <path
         style="fill:none;fill-rule:evenodd;stroke:#000000;stroke-width:1px;stroke-linecap:butt;stroke-linejoin:miter;stroke-opacity:1"
         d="m -12.599436,-55.707656 -1.14121,0.97092 -0.85591,0.8567 -0.97003,0.85669 -1.94006,1.88473 -1.08416,1.25649 -1.31239,1.65628 -1.0271,1.42782 -0.74178,0.97092 -0.34236,1.08515 -0.62767,1.3136 -0.57061,1.77051 -0.57061,1.7705 -0.39942,1.37071 -0.28531,1.59917 -0.5706,1.37071 -0.45649,1.54205 -0.74178,1.88473 -0.79886,2.05607 -0.97003,2.34163 -0.85591,1.65627 -0.68472,0.68536 -0.22825,0.79958 0,1.59917 0.11412,1.3136 0.62767,1.14226 0.68473,0.39979 -0.0571,2.28452 -0.22824,1.19937 -0.74179,1.65628 -1.19827,1.88473 -1.36946,2.28452 -1.54064,1.77051 -0.74179,0.9138 c 0,0 -0.91297,0.8567 -1.42651,1.37072 -0.51355,0.51401 -2.11125,2.2274 -2.11125,2.2274 l -1.08415,1.25649 -0.74179,1.25649 -0.74179,1.54205004 -0.11412,1.65627996 0.34236,1.48494 0.34236,1.19937 1.3124,1.02803 1.88301,1.02804 2.1683,1.19937 1.14122,0.0571 0.22824,1.08515 0,1.19938 -0.85591,1.3136 -1.0271,1.08514 -0.51354,0.97092 -0.34237,1.37071 0.39943,0.97093 0.62767,1.14226 1.42651,1.25648 -0.8559,1.02804 -0.62767,1.54205 -0.28531,0.91381 0.62767,1.82762 1.42652,1.14226 0.39942,0.79958 0.28531,0.97092 -0.45649,1.19937 -0.97003,1.48494 -1.14122,2.11319 -0.45648,1.82761 0,1.65628 0.39942,2.34163 1.02709,2.57009 2.56774,2.11318 2.85303,1.42782 3.65189,1.14227 4.62191,1.42782 4.33661,1.14226 4.33661,1.02804 2.39655,0.62824 -0.62767,1.65628 -0.62767,2.51297 -0.5706,2.28452 0.057,1.54205 0.51355,1.42783 1.08415,2.05606 1.82594,2.39875 1.5977,2.22741 0.85591,1.94184 0.62767,2.85565 1.14121,3.36967 1.3124,2.74143 -0.34236,1.82761 -0.68473,2.1703 -0.97004,2.28452 -0.68472,1.59916 -1.08416,2.85565 -0.8559,2.51298 -0.34237,2.6272 0.62767,0.85669 0.68473,2.22741 0.17117,0.11422 0.79886,-0.34267 -0.17119,0.28556 0.51355,0.97092 1.94007,-0.0571 c 0,0 2.96715002,-0.91381 3.30952002,-0.8567 0.34235998,0.0572 7.87436998,-2.96987 7.87436998,-2.96987 l 7.07552,-2.96988 5.13546,-2.6272 3.76601,-2.05607 5.87724,-3.14121 8.55911,-4.51193 7.53201,-4.68327 1.82594,-1.3136 -0.11413,-0.51402 0.68474,-0.74246 0.97003,-0.39979 0.97003,-0.74248 1.48357,-1.59916 0.34237,-0.79959 0.22824,-1.88472 -0.11412,-2.11318 -0.45649,-3.027 -0.74178,-2.74142 -1.54064,-3.36967 -0.45649,-0.51402 -0.51355,-6.05398 0.22825,-2.17029 -0.28531,-2.68431 0.34237,-3.31255 0.68473,-2.62721 0.51354,-1.37071 0.45649,-3.0841 1.48358,-2.45586 1.19827,-2.96988 1.48358,-2.74142 1.82594,-3.0841 c 0,0 1.82594,-2.22741 1.99712,-2.45587 0.17119,-0.22844 1.76888,-1.7705 1.5977,-2.34163 -0.17118,-0.57113 2.22537,-3.14121 2.22537,-3.14121 l 0.68473,-2.74143 1.71182,-2.28452 c 0,0 0.45648,-1.42782 0.74178,-1.82762 0.28531,-0.39979 0.68474,-2.05606 0.7418,-2.39874 0.057,-0.34268 0.97003,-1.65627996 0.97003,-1.65627996 l 1.42652,-3.31256004 c 0,0 1.71181,-1.59916 1.94005,-1.7705 0.22825,-0.17134 0.97003,-3.14121 0.97003,-3.14121 l 1.99713,-3.08411 2.28243,-3.25544 -1.94007,-1.3136 c 0,0 1.36946,-1.65628 1.48358,-1.88473 0.11412,-0.22846 -0.39942,-1.25648 -0.39942,-1.25648 0,0 1.31239,-1.48494 1.36945,-1.7134 0.0571,-0.22845 0.11413,-2.28452 0.22825,-2.51297 0.11412,-0.22845 1.02709,-1.42782 1.02709,-1.65628 0,-0.22845 -0.74179,-1.82762 -0.74179,-1.82762 l 1.36946,-2.74142 -1.25534,-1.59917 0.057,-1.31359 -0.45649,0 0.79885,-1.3136 -0.97003,-0.74247 0.34236,-3.19833 0.45649,-0.74247 -0.39943,-1.88473 -0.85591,-1.7705 c 0,0 -1.08415,-0.79959 -1.14121,-1.19938 -0.057,-0.39979 0.57061,-1.88473 0.57061,-1.88473 l -0.11413,-1.19937 -1.14121,-1.48494 0.22824,-2.17029 -0.39942,-1.48494 -1.19827,-2.39875 -1.3124,-0.34267 -1.99712,-1.19938 -0.97003,-3.99791 -0.51355,-2.91277 0.057,-2.17029 -0.5706,0.22845 -0.85591,0.22846 -1.54064,-0.62825 -1.0271,-0.39979 0.22825,-0.74247 -1.76888,0.34268 -1.5977,-2.85565 -0.45649,-2.45586 -0.39942,-0.68536 -0.2853,-2.57009 -1.99713,-0.9138 -2.05418,-0.17134 -0.2853,1.42782 0.11412,1.37071 c 0,0 -1.14122,0.11423 -1.54064,0.0571 -0.39943,-0.0571 -1.5977,1.82762 -1.5977,1.82762 l -1.36946,-2.11318 -2.05418,-1.77051 -1.94006,0.0571 -1.76888,0.17134 -1.65477,-1.14226 -1.76888,-0.17134 c 0,0 -0.22824,-0.68536 -1.02709,-0.39979 -0.79885,0.28556 -2.1683,1.08514 -2.1683,1.08514 l -0.62767,-0.11422 0.85591,-0.74247 0.91297,-1.08515 0.17118,-1.25649 -0.91297,-1.94184 0.22824,1.25649 c 0,0 0.34237,1.14226 -0.11412,1.3136 -0.45648,0.17134 -1.25534,1.42782 -1.25534,1.42782 l -2.85303,1.19938 -1.14121,0.62824 -1.76888,-0.68536 -1.02709,0.39979 0.17118,-1.08514 -1.25534,-0.79959 -1.71182,-1.14226 -0.62766,0.91381 -1.82595,-0.11422 -0.8559,0.68535 0.8559,-1.19937 0,-0.8567 -0.62767,-0.34267 0.28531,-1.02804 -1.76888,1.65628 -2.62479,1.59916 0.85591,-1.14226 -0.45649,-0.4569 -2.33949,0.91381 -1.71181,0.0571 -2.28243,-2.11318 -3.88013,-0.97092 -1.36945,0.57113 -1.71182,-1.02804 -2.9101,-0.22845 -2.05419,0.97092 -1.59769,1.54205 c 0,0 -0.91297,-1.02803 -0.97003,-1.25648 -0.057,-0.22845 -3.08128,-1.71339 -3.08128,-1.71339 l -2.96715,-0.22845 -1.71183,2.34163 -0.51354,2.05607 -0.34237,1.88473 -0.0571,1.08515 -1.42652,-0.3998 -2.22537,0.45691 -1.14121,1.59916 -0.62767,0.8567 -2.68185,-1.7705 c 0,0 -1.42651,-0.51402 -1.65476,-0.57114 -0.22824,-0.0571 -3.70894,0.22846 -3.70894,0.22846 l -2.33949,0.34268 -0.45648,1.82761 0.97003,0.91381 1.71181,0.39979 0.51355,0.79958 -0.57061,0.97092 -1.48358,1.7134 -0.17117,1.7705 2.22536,2.34163 2.62479,1.02804 0.97003,-0.17134 -0.11411,1.99895 2.1683,1.42783 0,1.42783 z"
         id="path3402" />
    </g>
  </g>
</svg>
