<?xml version="1.0" encoding="UTF-8" standalone="no"?>
<!-- Created with Inkscape (http://www.inkscape.org/) -->

<svg
   xmlns:dc="http://purl.org/dc/elements/1.1/"
   xmlns:cc="http://creativecommons.org/ns#"
   xmlns:rdf="http://www.w3.org/1999/02/22-rdf-syntax-ns#"
   xmlns:svg="http://www.w3.org/2000/svg"
   xmlns="http://www.w3.org/2000/svg"
   xmlns:sodipodi="http://sodipodi.sourceforge.net/DTD/sodipodi-0.dtd"
   xmlns:inkscape="http://www.inkscape.org/namespaces/inkscape"
   id="svg2"
   version="1.1"
   inkscape:version="0.91 r13725"
   width="5200"
   height="3900"
   viewBox="0 0 5200 3900"
   sodipodi:docname="perfil-laura.jpg.svg">
  <metadata
     id="metadata8">
    <rdf:RDF>
      <cc:Work
         rdf:about="">
        <dc:format>image/svg+xml</dc:format>
        <dc:type
           rdf:resource="http://purl.org/dc/dcmitype/StillImage" />
        <dc:title />
      </cc:Work>
    </rdf:RDF>
  </metadata>
  <defs
     id="defs6" />
  <sodipodi:namedview
     pagecolor="#ffffff"
     bordercolor="#666666"
     borderopacity="1"
     objecttolerance="10"
     gridtolerance="10"
     guidetolerance="10"
     inkscape:pageopacity="0"
     inkscape:pageshadow="2"
     inkscape:window-width="1215"
     inkscape:window-height="1000"
     id="namedview4"
     showgrid="false"
     inkscape:zoom="0.099946825"
     inkscape:cx="2651.5366"
     inkscape:cy="2700.5247"
     inkscape:window-x="65"
     inkscape:window-y="24"
     inkscape:window-maximized="1"
     inkscape:current-layer="layer2" />
  <g
     inkscape:groupmode="layer"
     id="layer2"
     inkscape:label="capa 2"
     style="display:inline">
    <path
       style="fill:none;fill-rule:evenodd;stroke:#ff0000;stroke-width:1px;stroke-linecap:butt;stroke-linejoin:miter;stroke-opacity:1"
       d="m 490.49636,514.98113 c 62.8082,-102.24584 80.336,-124.15566 80.336,-124.15566 0,0 2.9213,-29.2131 8.7639,-35.05572 5.8427,-5.84262 24.8312,-48.20161 39.4377,-54.04423 14.6066,-5.84262 11.6853,-29.2131 37.9771,-43.81965 26.2917,-14.60655 67.1901,-42.35898 84.7179,-46.74095 17.5279,-4.38196 92.0213,-32.1344 105.1672,-33.59506 13.1459,-1.46065 67.1901,-14.60655 83.2573,-16.0672 16.0672,-1.46066 97.86394,-7.30328 105.16724,-7.30328 7.3033,0 140.2228,1.46066 140.2228,7.30328 0,5.84262 67.1902,13.14589 77.4148,16.0672 10.2245,2.92131 70.1114,26.29179 92.0212,46.74096 21.9098,20.44916 115.3918,80.33601 124.1557,90.56059 8.7639,10.22459 21.9098,13.1459 21.9098,13.1459 0,0 4.7018,-11.46087 17.0959,-13.52654 12.394,-2.06568 28.9195,22.72245 28.9195,22.72245 0,0 12.394,-24.78813 24.7881,-24.78813 12.3941,0 33.0509,6.19703 33.0509,6.19703 0,0 2.0656,-24.78814 28.9194,-24.78814 26.8539,0 80.5615,2.06568 101.2183,14.45975 20.6567,12.39407 82.6271,61.97034 86.7584,82.62712 4.1314,20.65678 16.5255,28.91949 22.7225,43.37924 6.197,14.45974 45.4449,22.72246 43.3792,45.44491 -2.0656,22.72246 -8.2627,47.51059 12.3941,51.64195 20.6568,4.13136 28.7256,50.78431 31.6469,74.15479 2.9213,23.37048 29.2131,1.46065 30.6738,30.67375 1.4606,29.2131 29.2131,35.05572 30.6737,43.81965 1.4607,8.76393 -10.2246,37.97702 -10.2246,51.12292 0,13.14589 24.8312,-4.38197 29.2131,30.67375 4.382,35.05572 29.2131,62.80816 26.2918,81.79668 -2.9213,18.98851 52.5836,-11.68524 52.5836,32.1344 0,43.81965 17.5278,87.6393 -1.4607,100.78519 -18.9885,13.1459 59.8869,-11.68524 46.741,17.52786 -13.1459,29.21306 24.8311,20.44916 8.7639,65.72946 -16.0672,45.2803 -27.7524,65.7295 -23.3705,89.1 4.382,23.3705 4.382,43.8196 18.9886,51.1229 14.6065,7.3033 21.9098,24.8311 48.2016,35.0557 26.2918,10.2246 56.9655,7.3033 64.2688,27.7525 7.3033,20.4491 26.2918,14.6065 33.595,27.7524 7.3033,13.1459 16.7976,50.3926 16.7976,50.3926 0,0 18.9885,19.7188 16.0672,42.359 -2.9213,22.6401 10.2246,72.3024 -5.1123,43.0893 -15.3369,-29.2131 -24.8311,-65.7295 -24.8311,-65.7295 0,0 -4.382,-30.6737 -9.4943,-18.2581 -5.1123,12.4155 -2.191,0.7303 -4.382,-13.8763 -2.191,-14.6065 -15.3368,-31.404 -24.1008,-37.2467 -8.7639,-5.8426 -23.3705,-20.4491 -53.3139,-23.3704 -29.9434,-2.9214 -16.7975,10.9549 -50.3926,-1.4607 -33.595,-12.4156 -42.359,-56.9655 -44.5499,-27.0221 -2.191,29.9434 -4.382,28.4828 5.1122,32.8647 9.4943,4.382 37.9771,2.191 46.741,9.4943 8.7639,7.3033 33.5951,7.3033 36.5164,16.0672 2.9213,8.7639 23.3705,10.9549 29.2131,28.4828 5.8426,17.5278 24.1008,38.7073 20.4491,52.5835 -3.6516,13.8763 9.4943,38.7074 0.7304,44.55 -8.764,5.8426 2.9213,32.8647 -4.382,43.0893 -7.3033,10.2246 -10.2246,25.5615 -21.9098,25.5615 -11.6853,0 -6.573,11.6852 -3.6517,-21.9099 2.9214,-33.595 3.6517,-33.595 0.7304,-32.8647 -2.9213,0.7303 -0.7304,16.0672 -0.7304,-27.7524 0,-43.8197 -13.8762,-59.8869 -13.8762,-59.8869 0,0 -2.191,-36.5163 -27.0221,-36.5163 -24.8311,0 -40.168,8.7639 -40.168,11.6852 0,2.9213 -10.2246,11.6852 -0.7303,26.2918 9.4942,14.6065 46.0106,38.7073 45.2803,51.1229 -0.7304,12.4156 19.7188,33.595 16.0672,47.4713 -3.6517,13.8762 2.191,34.3254 0.7303,49.6622 -1.4607,15.3369 -13.1459,12.4156 -5.1123,27.0222 8.0336,14.6065 23.3705,5.8426 24.1008,13.8762 0.7303,8.0336 -8.7639,-2.9213 14.6066,24.1008 23.3704,27.0221 35.786,23.3705 31.404,40.8983 -4.3819,17.5279 10.955,58.4262 5.8427,70.1115 -5.1123,11.6852 -3.6517,48.2016 -9.4943,57.6958 -5.8426,9.4943 -11.6852,46.741 -42.359,54.0443 -30.6737,7.3032 -57.6959,14.6065 -78.145,8.0336 -20.4492,-6.573 -63.5385,0.7303 -76.6844,-13.1459 -13.1459,-13.8763 -7.3033,-17.5279 -19.7188,-30.6738 -12.4156,-13.1459 -24.1008,-29.9434 -26.2918,3.6516 -2.191,33.5951 33.595,85.4484 22.6401,98.5942 -10.9549,13.1459 -2.191,38.7074 -25.5614,21.1795 -23.3705,-17.5278 -42.359,-12.4155 -49.6623,-36.5163 -7.3033,-24.1008 -15.3369,-31.4041 -10.9549,-59.1566 4.3819,-27.7524 1.4606,-52.5835 12.4155,-60.6171 10.955,-8.0336 11.6853,-28.4828 -8.0336,-30.6738 -19.7188,-2.191 -13.1458,2.191 -35.786,-10.9549 -22.6402,-13.1459 -21.1795,-11.6852 -21.1795,-11.6852 0,0 -27.7524,-50.3926 -23.3705,-58.4262 4.382,-8.0336 0.7304,-26.2918 -5.8426,-24.1008 -6.5729,2.1909 6.573,-29.9435 -18.2582,-8.764 -24.8311,21.1795 -22.6401,29.2131 -22.6401,48.2016 0,18.9886 16.7975,42.359 -16.7976,50.3926 -33.595,8.0336 -55.5048,11.6853 -62.0778,23.3705 -6.5729,11.6853 16.7975,13.1459 -15.3369,34.3254 -32.1344,21.1795 -16.0672,37.2467 -52.5835,26.2918 -36.5164,-10.9549 -56.9656,2.9213 -74.4934,-13.1459 -17.5279,-16.0672 8.0336,-64.2688 -21.9099,-29.2131 -29.9434,35.0557 -54.0442,29.9434 -55.5049,20.4492 -1.4606,-9.4943 -43.0893,-46.0107 -50.3926,-57.6959 -7.3032,-11.6852 0.7304,-29.9434 -10.2245,-48.2016 -10.9549,-18.2582 -18.9886,8.0336 -17.5279,34.3254 1.4607,26.2918 -18.2582,-57.6959 -15.3369,-74.4934 2.9213,-16.7975 -2.191,-56.2352 1.4607,-56.9656 3.6516,-0.7303 -33.5951,-0.7303 -46.0106,-10.9549 -12.4156,-10.2246 16.0672,-13.1459 -37.2467,6.573 -53.314,19.7188 -81.0664,23.3705 -113.2008,37.977 -32.1344,14.6066 -42.359,28.4828 -74.4934,40.168 -32.1344,11.6853 -35.0557,24.8311 -57.6959,34.3254 -22.6401,9.4943 -29.2131,20.4492 -46.0106,30.6738 -16.7975,10.2245 -152.63844,86.1786 -161.40244,102.2458 -8.7639,16.0672 -62.0778,48.2016 -64.9991,51.8533 -2.9213,3.6516 -5.8426,-40.8984 -5.8426,-40.8984 0,0 0,-64.2688 -4.382,-62.8081 -4.382,1.4606 -10.9549,-35.0558 -8.7639,-40.8984 2.191,-5.8426 -11.6853,-27.0221 -7.3033,-40.168 4.382,-13.1459 -21.9098,-37.977 -21.9098,-37.977 0,0 -6.573,-7.3033 -20.4492,-13.8762 -13.8762,-6.573 -24.1008,-11.6853 -42.359,-13.1459 -18.2582,-1.4607 -56.2352,-12.4156 -70.8417,-13.1459 -14.6066,-0.7304 -102.9762,-34.3254 -116.1221,-41.6287 -13.1459,-7.3033 -18.2582,-15.3369 -36.5164,-18.2582 -18.2582,-2.9213 -48.2016,-6.5729 -49.6622,-15.3369 -1.4607,-8.7639 -24.8312,-26.2917 -24.8312,-26.2917 0,0 -8.7639,-7.3033 -15.3369,-24.1009 -6.5729,-16.7975 -10.2245,-18.9885 -10.2245,-31.404 0,-12.4156 -0.7304,-15.3369 2.1909,-34.3254 2.9213,-18.9885 7.3033,-29.9434 10.955,-35.786 3.6516,-5.8427 0.7303,-34.3254 0.7303,-37.2467 0,-2.9214 1.4606,-21.9099 -2.9213,-23.3705 -4.382,-1.4607 -5.1123,-10.2246 -10.9549,-13.8762 -5.8427,-3.6517 -16.0672,-14.6066 -16.7976,-20.4492 -0.7303,-5.8426 -7.3032,-23.3705 1.4607,-32.1344 8.7639,-8.7639 16.0672,-10.2246 16.0672,-10.2246 l 6.5729,-2.191 -5.8426,-5.8426 -13.1459,-15.3369 -8.7639,-11.6852 -2.9213,-8.0336 c 0,0 -5.1123,-11.6853 0,-16.0672 5.1123,-4.382 7.3033,-14.6066 7.3033,-14.6066 l 8.0336,-16.0672 c 0,0 5.8426,-14.6065 4.3819,-24.1008 -1.4606,-9.4943 -4.3819,-10.2246 -5.8426,-17.5279 -1.4607,-7.3032 -12.4156,-13.1459 -12.4156,-13.1459 l -27.0221,-4.3819 c 0,0 -18.2582,-5.1123 -22.6401,-13.8762 -4.382,-8.764 -13.8763,-13.8763 -16.7976,-22.6402 -2.9213,-8.7639 -12.4155,-21.1795 -6.5729,-31.40408 5.8426,-10.22459 20.4492,-33.59506 24.8311,-37.2467 4.382,-3.65164 21.1795,-16.06721 19.7189,-24.83114 -1.4607,-8.76392 32.8647,-29.94342 35.0557,-32.86473 2.191,-2.92131 35.0557,-39.43768 35.0557,-39.43768 l 26.2918,-30.67376 c 0,0 1.4606,20.44917 0,0 -1.4607,-20.44916 7.3033,-37.2467 1.4606,-46.01063 -5.8426,-8.76392 -10.9549,-38.70735 -9.4942,-48.20161 1.4606,-9.49425 0,-43.08932 5.1123,-45.2803 5.1123,-2.19098 -2.9213,-8.76393 8.0336,-32.86473 10.9549,-24.10081 18.9885,-50.3926 22.6401,-56.96555 3.6517,-6.57294 15.3369,-36.51637 15.3369,-36.51637 l 8.0336,-16.0672 z"
       id="path4140"
       inkscape:connector-curvature="0" />
  </g>
</svg>
