<?xml version="1.0" encoding="UTF-8" standalone="no"?>
<!-- Created with Inkscape (http://www.inkscape.org/) -->

<svg
   xmlns:dc="http://purl.org/dc/elements/1.1/"
   xmlns:cc="http://creativecommons.org/ns#"
   xmlns:rdf="http://www.w3.org/1999/02/22-rdf-syntax-ns#"
   xmlns:svg="http://www.w3.org/2000/svg"
   xmlns="http://www.w3.org/2000/svg"
   xmlns:sodipodi="http://sodipodi.sourceforge.net/DTD/sodipodi-0.dtd"
   xmlns:inkscape="http://www.inkscape.org/namespaces/inkscape"
   width="210mm"
   height="297mm"
   viewBox="0 0 744.09448819 1052.3622047"
   id="svg2"
   version="1.1"
   inkscape:version="0.91 r13725"
   sodipodi:docname="perfil-hector.svg">
  <defs
     id="defs4" />
  <sodipodi:namedview
     id="base"
     pagecolor="#ffffff"
     bordercolor="#666666"
     borderopacity="1.0"
     inkscape:pageopacity="0.0"
     inkscape:pageshadow="2"
     inkscape:zoom="0.49497475"
     inkscape:cx="68.699975"
     inkscape:cy="480.7869"
     inkscape:document-units="px"
     inkscape:current-layer="layer2"
     showgrid="false"
     inkscape:window-width="1215"
     inkscape:window-height="1000"
     inkscape:window-x="65"
     inkscape:window-y="24"
     inkscape:window-maximized="1" />
  <metadata
     id="metadata7">
    <rdf:RDF>
      <cc:Work
         rdf:about="">
        <dc:format>image/svg+xml</dc:format>
        <dc:type
           rdf:resource="http://purl.org/dc/dcmitype/StillImage" />
        <dc:title />
      </cc:Work>
    </rdf:RDF>
  </metadata>
  <g
     inkscape:groupmode="layer"
     id="layer2"
     inkscape:label="Capa 2"
     style="display:inline">
    <path
       style="display:inline;fill:none;fill-rule:evenodd;stroke:#000000;stroke-width:1px;stroke-linecap:butt;stroke-linejoin:miter;stroke-opacity:1"
       d="m 222.11927,699.87663 -14.28571,-10 c -5.0852,-1.90476 -13.79717,-3.80952 -22.85714,-5.71428 L 162.11927,675.59092 139.26214,661.3052 118.84372,650.55502 98.843718,636.2693 c 0,0 -10.654488,-9.95771 -11.010154,-16.39267 -0.355666,-6.43496 0,-14.28571 0,-20 0,-5.71428 -1.147797,-9.05269 0,-14.28571 1.147797,-5.23302 7.47462,-16.21937 7.47462,-16.21937 l 2.525381,-6.63778 -3.434008,-2.17875 c 0,0 -6.460499,-8.77989 -3.647575,-15.15319 2.284608,-5.17628 26.601898,8.79115 26.601898,8.79115 l -11.4846,-5.92349 c -0.37566,-0.37566 -16.007426,-8.5701 -16.78046,-12.67857 -0.773034,-4.10847 3.030459,-15.71429 3.030459,-15.71429 l -1.09681,-7.14286 c 0,0 1.608929,0.65761 0.552121,-2.88932 0.214089,-7.35033 0,0 -6.309256,-13.67455 -3.042148,-1.15875 -6.798321,-4.98147 -7.26589,-6.35455 0,0 -5.109682,1.57321 -7.553841,0.89811 -5.698705,-1.57404 -14.04061,-10.83683 -14.04061,-10.83683 L 53.54785,467.01949 54.976422,454.16235 72.119278,437.01949 100.69071,411.3052 c 0,0 9.81742,-9.50459 13.60733,-15.12998 1.96702,-2.91968 3.82044,-4.57249 4.6249,-9.49493 0.80447,-4.92243 -5.37509,-16.80366 -5.37509,-16.80366 0,0 -5.04205,-12.56215 -1.93365,-14.71157 l 5.88017,-8.06635 12.35207,-20 11.17603,-28.57143 8.10779,-18.29287 10.13187,-11.78634 21.26269,-22.69126 c 0,0 -17.56056,-11.76513 -24.04061,-20.33177 -6.48004,-8.56664 -7.2776,-28.73689 -5.94451,-42.20849 1.33309,-13.4716 11.94224,-24.45256 21.91877,-28.95704 9.97653,-4.50447 26.40787,-3.88043 36.11167,-5.35714 9.70381,-1.47671 9.67043,-3.25425 21.50302,-4.86364 11.8326,-1.60939 29.8603,-1.54546 49.54611,-2.37639 19.68581,-0.83093 68.57143,-2.5 68.57143,-2.5 l 73.21429,0.71429 c 0,0 53.15518,-10.19307 59.12727,6.47933 5.9721,16.6724 33.20301,29.16171 27.51794,29.94924 0,0 41.70913,1.89189 50.45432,15.55584 8.74518,13.66395 15.11511,48.44888 15.11511,48.44888 0,0 15.86417,-3.27222 25.25998,7.41643 9.39581,10.68866 21.70237,-10.35253 20.21664,30.59917 -1.48573,40.95168 -4.67715,134.24055 -6.97698,189.40825 -4.40056,105.55959 -11.96022,6.45741 -27.32361,16.11168 -15.36338,9.65426 -49.10496,56.74547 -49.10496,56.74547 l -34.28571,33.57143 -96.42857,45 -47.14286,47.85714 -30.27185,19.02891 -52.52794,8.08122 -35.35533,6.06092 z"
       id="path3347-3"
       inkscape:connector-curvature="0"
       sodipodi:nodetypes="ccccccczzzcccscczccccsacccccazcscccccczzzzzzcczszczzszcccccccc" />
    <path
       style="fill:none;fill-rule:evenodd;stroke:#000000;stroke-width:1px;stroke-linecap:butt;stroke-linejoin:miter;stroke-opacity:1"
       d="m 139.82143,424.32649 14.46428,-0.89286 7.67858,-2.67857 1.96428,-1.25 -14.28571,-10 -5,-3.75 c -0.36796,0.48688 -2.05253,-0.0611 -4.82143,-2.32143 -2.76889,-2.26038 -3.39286,2.5 -3.39286,2.5 0,0 -1.54047,6.8635 -1.42857,9.28572 0.1119,2.42222 0.64017,3.47191 1.25,5 0.60983,1.52809 1.46234,3.60589 2.32143,4.10714 0.85909,0.50125 1.25,0 1.25,0 z"
       id="path4176"
       inkscape:connector-curvature="0"
       sodipodi:nodetypes="cccccczczzzc" />
    <path
       style="fill:none;fill-rule:evenodd;stroke:#000000;stroke-width:1px;stroke-linecap:butt;stroke-linejoin:miter;stroke-opacity:1"
       d="m 118.17516,373.53706 c 3.90309,-0.009 11.65672,-2.40512 16.45042,-2.19624 4.79371,0.20887 12.09908,1.6938 12.09908,1.6938 0,0 4.852,6.3107 7.57614,8.83883 2.72414,2.52813 8.5863,6.31346 8.5863,6.31346 0,0 0.69116,0.58564 1.91307,-0.28581 1.22191,-0.87145 0.47706,-2.38751 0.47706,-2.38751 l -3.03045,-3.46157 -8.49701,-9.70105 -2.98713,-3.44625 -2.57134,-4.42577 -2.75997,-3.26767 c 0,0 -0.76093,0.53426 -2.53544,-0.084 -1.77451,-0.61829 -8.08385,-2.31399 -8.08385,-2.31399 0,0 -2.70631,-0.18455 -3.72943,-0.20921 -1.02313,-0.0246 -2.41361,-0.13791 -3.74474,-0.3392 -1.33113,-0.20129 -2.81233,-0.14287 -4.26251,-0.23196 -1.45018,-0.0891 -3.11975,0.35452 -3.11975,0.35452 0,0 -6.1329,-2.74283 -8.3924,-1.09682 -2.25951,1.64601 -0.95692,2.63416 -0.5204,5.43329 0.43652,2.79914 2.63223,9.23247 4.54569,10.6066 1.91346,1.37414 -1.31643,0.21595 2.58666,0.20658 z"
       id="path4178"
       inkscape:connector-curvature="0"
       sodipodi:nodetypes="zzczczcccccczczzzczzzz" />
    <path
       style="fill:none;fill-rule:evenodd;stroke:#000000;stroke-width:1px;stroke-linecap:butt;stroke-linejoin:miter;stroke-opacity:1"
       d="m 353.55339,433.13869 c 2.02492,-2.03126 10.49576,-0.94847 15.15229,-3.03045 4.65653,-2.08198 6.89204,-6.40389 12.12183,-9.09138 5.22979,-2.68749 19.1929,-6.06091 19.1929,-6.06091 0,0 5.93366,-5.47547 17.17259,-2.02031 11.23893,3.45516 21.8471,17.92254 23.9478,22.99892 2.1007,5.07639 8.69638,12.56867 10.39739,23.4681 1.70101,10.89943 -1.21354,25.33433 -4.04061,38.3858 -2.82707,13.05147 -6.66469,28.67839 -13.13199,39.39595 -6.4673,10.71756 -13.00946,17.48364 -23.2335,24.24366 -10.22404,6.76002 -26.26477,11.70368 -37.37565,14.14213 -11.11088,2.43845 -21.38418,3.66334 -28.28427,2.02031 -6.90009,-1.64303 -1.79785,-9.55236 -1.36729,-6.17821 0.43056,3.37415 3.51227,3.57387 4.1094,2.02133 l 9.28572,2.5 16.78572,-3.21428 22.67857,-7.85714 9.64285,-5.17858 c 0,0 13.59175,-8.57364 18.03571,-12.67857 4.44396,-4.10493 6.58332,-8.00643 8.92858,-11.60714 2.34526,-3.60072 5.71428,-15.53572 5.71428,-15.53572 l 3.21429,-10 2.5,-8.74999 c 0,0 2.15835,-12.36593 2.5,-16.60715 0.34165,-4.24122 1.73396,-7.38059 1.78571,-12.14286 0.0518,-4.76227 -0.10276,-9.90685 -1.42857,-16.42857 -1.32581,-6.52172 -5.30638,-15.71777 -9.64285,-21.42857 -4.33647,-5.7108 -9.0431,-10.06492 -12.85714,-13.21429 -3.81404,-3.14937 -6.23962,-4.48241 -10.00001,-5.71428 -3.76039,-1.23187 -9.44361,0.0161 -13.57143,0.71429 -4.12782,0.69824 -7.55517,1.9557 -11.07142,3.21428 -3.51625,1.25858 -6.4448,2.29222 -10,4.28572 -3.5552,1.9935 -6.42788,5.86535 -11.07143,7.85714 -4.64355,1.99179 -14.24988,5.39528 -16.42857,3.21428 -2.17869,-2.181 -1.68582,0.30775 0.3391,-1.72351 z"
       id="path4180"
       inkscape:connector-curvature="0"
       sodipodi:nodetypes="zzzczzzzzzzzzccccczzccczzzzzzzzzzzz" />
    <path
       style="fill:none;fill-rule:evenodd;stroke:#000000;stroke-width:1px;stroke-linecap:butt;stroke-linejoin:miter;stroke-opacity:1"
       d="m 362.5,528.43363 c 0,0 -6.06046,-0.82027 -7.5,-3.21428 -1.43954,-2.39401 0.71429,-8.57143 0.71429,-8.57143 l 6.07142,-6.78572 5,-6.42857 c 0,0 -2.05825,-4.19288 -2.5,-6.07143 -0.44175,-1.87855 -0.61211,-3.10857 -0.35714,-5 0.25497,-1.89143 1.81091,-3.52705 2.14286,-6.07142 0.33195,-2.54437 -3.70331,-8.04271 -0.71429,-8.92858 2.98902,-0.88587 4.64286,8.57143 4.64286,8.57143 l 4.64286,0.35715 9.28571,11.78571 c 0,0 4.47317,6.16361 7.85714,6.07143 3.38397,-0.0922 7.85715,-6.78572 7.85715,-6.78572 l 1.07143,-8.57142 -6.78572,-7.85715 c 0,0 -7.83037,-0.3567 -11.07143,-3.21428 -3.24106,-2.85758 -5.71428,-13.21429 -5.71428,-13.21429 l 5,0.35714 c 0,0 4.46499,4.64191 7.5,7.14286 3.03501,2.50095 7.86049,5.15957 10.71428,7.85714 2.85379,2.69757 6.26909,5.2343 7.5,8.21429 1.23091,2.97999 0.35715,8.21429 0.35715,8.21429 l -3.57143,3.21428 c 0,0 -2.20663,5.55952 -2.14286,7.85714 0.0638,2.29762 2.26485,3.50809 1.78571,5.35715 -0.47914,1.84906 -4.28571,3.92857 -4.28571,3.92857 0,0 -6.31553,5.44423 -9.64286,5.71428 -3.32733,0.27005 -8.21428,-3.21428 -8.21428,-3.21428 0,0 -3.60739,0.48582 -5.35715,1.78571 -1.74976,1.29989 -2.77746,4.82311 -4.28571,6.07143 -1.50825,1.24832 -3.92857,1.78572 -3.92857,1.78572 z"
       id="path4182"
       inkscape:connector-curvature="0"
       sodipodi:nodetypes="czccczzzzccczccczcczzzcczzczczzcc" />
  </g>
</svg>
