<?xml version="1.0" encoding="UTF-8" standalone="no"?>
<!-- Created with Inkscape (http://www.inkscape.org/) -->

<svg
   xmlns:dc="http://purl.org/dc/elements/1.1/"
   xmlns:cc="http://creativecommons.org/ns#"
   xmlns:rdf="http://www.w3.org/1999/02/22-rdf-syntax-ns#"
   xmlns:svg="http://www.w3.org/2000/svg"
   xmlns="http://www.w3.org/2000/svg"
   xmlns:sodipodi="http://sodipodi.sourceforge.net/DTD/sodipodi-0.dtd"
   xmlns:inkscape="http://www.inkscape.org/namespaces/inkscape"
   width="210mm"
   height="297mm"
   viewBox="0 0 744.09448819 1052.3622047"
   id="svg4166"
   version="1.1"
   inkscape:version="0.91 r13725"
   sodipodi:docname="drawing.svg">
  <defs
     id="defs4168" />
  <sodipodi:namedview
     id="base"
     pagecolor="#ffffff"
     bordercolor="#666666"
     borderopacity="1.0"
     inkscape:pageopacity="0.0"
     inkscape:pageshadow="2"
     inkscape:zoom="0.55836836"
     inkscape:cx="597.11866"
     inkscape:cy="659.16463"
     inkscape:document-units="px"
     inkscape:current-layer="layer2"
     showgrid="false"
     inkscape:window-width="1215"
     inkscape:window-height="1000"
     inkscape:window-x="65"
     inkscape:window-y="24"
     inkscape:window-maximized="1" />
  <metadata
     id="metadata4171">
    <rdf:RDF>
      <cc:Work
         rdf:about="">
        <dc:format>image/svg+xml</dc:format>
        <dc:type
           rdf:resource="http://purl.org/dc/dcmitype/StillImage" />
        <dc:title />
      </cc:Work>
    </rdf:RDF>
  </metadata>
  <g
     inkscape:groupmode="layer"
     id="layer2"
     inkscape:label="Capa 2"
     style="display:inline">
    <path
       style="fill:none;fill-rule:evenodd;stroke:#000000;stroke-width:1px;stroke-linecap:butt;stroke-linejoin:miter;stroke-opacity:1"
       d="m 273.53819,592.03289 -5.69871,-43.05694 c 0,0 -21.21188,9.49786 -44.63992,5.06552 -23.42804,-4.43233 -46.5713,-25.11965 -46.5713,-25.11965 0,0 -8.83284,-15.72112 -5.66689,-30.91769 3.16595,-15.19657 27.86037,-30.07653 27.86037,-30.07653 l 0.31659,-5.69871 c 0,0 0.94979,4.43233 -9.81444,3.79914 -10.76424,-0.63319 -15.82976,-10.76424 -15.82976,-10.76424 0,0 2.84936,-10.76423 4.74893,-10.76423 1.89957,0 19.94549,-5.69871 21.21187,-4.43233 1.26638,1.26638 -13.93019,-14.56338 -13.93019,-14.56338 0,0 -4.43233,-4.74893 -2.53276,-13.61359 1.89957,-8.86467 1.26638,-8.86467 1.26638,-8.86467 0,0 3.16596,10.44765 12.66381,17.41274 9.49785,6.96509 5.06552,7.59828 18.99571,7.59828 13.93018,0 13.29699,-2.21616 20.89528,-2.84935 7.59828,-0.63319 17.09613,4.11573 23.42804,4.74892 6.3319,0.63319 22.16166,-17.72933 20.89528,-15.82976 -1.26638,1.89957 8.86466,-8.86466 8.86466,-8.86466 0,0 -3.16595,21.21188 -5.69871,23.74464 -2.53276,2.53276 -15.82976,13.61359 -15.82976,13.61359 0,0 16.11727,-5.2828 16.11727,-4.01641 0,1.26638 18.32411,8.53215 16.31589,14.45473 -2.19935,6.48626 -6.44054,8.66603 -6.44054,8.66603 0,0 -21.89939,1.71411 -23.79896,-1.45184 -1.89957,-3.16596 1.3432,8.38511 1.3432,8.38511 0,0 10.79089,-4.57002 27.93719,-1.0041 13.96201,2.90367 38.47097,6.44053 39.73735,6.44053 1.26638,0 35.16456,-9.94558 37.69732,-8.6792 2.53276,1.26638 24.24669,1.23456 26.77945,3.13413 2.53276,1.89957 30.8661,24.06453 27.06696,24.69772 -3.79914,0.63319 6.07621,9.15546 6.07621,9.15546 0,0 17.6975,-2.79504 22.76303,-4.69461 5.06552,-1.89957 7.22737,-5.06552 7.22737,-5.06552 l 2.90368,-12.09426 c 0.29564,-1.23139 13.37381,-10.77411 13.37381,-10.77411 0,0 3.38323,13.19824 0.85047,19.53014 -2.53276,6.33191 -10.02241,12.20289 -15.72112,10.93651 -5.69871,-1.26638 -11.53789,11.39743 -19.13617,10.76424 -7.59828,-0.63319 -8.9733,1.57365 -8.9733,1.57365 0,0 4.31051,9.34422 1.77775,17.57569 -2.53276,8.23148 -11.95379,33.29681 -16.38613,34.56319 -4.43233,1.26638 -4.61779,8.15465 -9.05012,12.58698 -4.43233,4.43233 -0.55637,15.9384 -0.55637,15.9384 0,0 7.6301,14.71701 -1.23456,18.51616 -8.86466,3.79914 -23.83077,0.55637 -23.83077,0.55637 l -16.16886,-1.63729 c 3.23878,-4.29021 1.68993,-6.52858 15.82976,-15.49067 l -7.10555,-23.47304 c 0,0 -10.77741,4.61779 -4.77143,19.33481 4.552,11.15418 -7.17759,19.06439 -11.14833,20.10845 0,0 -27.70033,5.89269 -27.924,0.52455 -0.3166,-7.59829 2.53276,-6.9651 2.53276,-6.9651 l 11.39742,-12.6638 c 0,0 -9.49785,-15.82976 -6.3319,-16.46295 3.16595,-0.63319 -6.3319,-4.43233 -7.59828,1.89957 -1.26638,6.33191 -5.69871,17.72933 -8.23148,17.72933 -2.53276,0 6.33191,13.297 0.63319,14.56338 -5.69871,1.26638 -26.59399,6.96509 -26.59399,3.79914 0,-3.16595 -10.76423,1.26638 -11.39742,-1.26638 -0.63319,-2.53276 8.23147,-13.297 7.59828,-13.93019 -0.63319,-0.63319 3.79914,-4.11573 3.79914,-4.11573 l -1.89957,-11.71403 c 0,0 -8.23147,9.49786 -6.3319,10.76424 1.89957,1.26638 0.94979,10.76423 -0.31659,9.49785 -1.26638,-1.26638 -1.58298,12.03062 -4.11574,10.13105 -2.53276,-1.89957 -26.91059,-0.94979 -25.01102,-0.3166 1.89957,0.63319 -8.02313,2.76311 -8.02313,-3.50516 0,-6.26826 13.40525,-17.07352 13.40525,-17.07352 z"
       id="path4726"
       inkscape:connector-curvature="0"
       sodipodi:nodetypes="ccscsccscsscscssssscscsscscssssscscscssscssscsccccsssccsssssssccsssssc" />
    <path
       style="fill:none;fill-rule:evenodd;stroke:#000000;stroke-width:1px;stroke-linecap:butt;stroke-linejoin:miter;stroke-opacity:1"
       d="m 298.16173,486.62175 c -8.95466,0.55967 -2.2239,22.99943 3.02221,24.51339 3.98943,1.1513 9.90768,3.46672 11.753,4.42136 1.84531,0.95464 -0.056,10.01803 2.63042,11.80896 2.6864,1.79093 11.13736,6.82794 16.51016,4.58927 5.3728,-2.23866 5.91499,-3.73645 10.29786,-5.59666 4.38287,-1.86021 10.74559,-0.78353 11.64106,-4.81313 0.89547,-4.0296 1.79094,-3.0222 1.11934,-5.48474 -0.6716,-2.46254 -2.85695,-4.64911 -3.6938,-5.7086 -0.83685,-1.05949 -0.23989,0.10296 -0.3358,-1.11932 -0.0959,-1.22228 3.24606,-3.80574 3.46993,-4.70121 0.22387,-0.89547 2.46254,-3.80573 1.56707,-5.59666 -0.89547,-1.79093 0.55966,-6.60406 -1.11934,-8.28306 -1.679,-1.679 0.34857,-1.60267 -3.24606,-2.57447 -3.59463,-0.9718 -10.44369,2.97787 -16.67806,3.358 -6.23437,0.38013 -11.82736,-1.41933 -18.02125,-2.23867 -6.19389,-0.81934 -9.96207,-3.13412 -18.91674,-2.57446 z"
       id="path4728"
       inkscape:connector-curvature="0"
       sodipodi:nodetypes="zszzzzzzzzzzzzzzz" />
    <path
       style="fill:none;fill-rule:evenodd;stroke:#000000;stroke-width:1px;stroke-linecap:butt;stroke-linejoin:miter;stroke-opacity:1"
       d="m 379.28096,483.56394 c 0.64115,3.54812 0.1583,1.37502 2.21617,3.59119 2.05787,2.21617 4.11852,0.0175 5.96895,3.42823 1.85043,3.41074 0.0429,3.52643 0.20465,7.4943 0.16178,3.96787 4.34557,8.4022 6.50941,10.56753 2.16385,2.16533 6.51674,3.13562 7.43999,3.40903 0,0 4.78404,0.66034 9.63694,-0.20467 4.85291,-0.86501 7.01942,-3.73357 7.01942,-3.73357 1.48691,-1.52167 0.22525,-2.42674 -0.61399,-3.79914 0,0 -1.48801,-1.36687 -3.08118,-2.6414 -3.48999,-2.79199 -7.96982,-7.38244 -11.3464,-9.63229 -3.37658,-2.24985 -3.6263,-3.49051 -8.05863,-6.65646 -4.43233,-3.16595 -6.03745,-3.77238 -9.35739,-3.38981 -3.31994,0.38256 -7.17908,-1.98105 -6.53794,1.56706 z"
       id="path4730"
       inkscape:connector-curvature="0"
       sodipodi:nodetypes="zzzzzszssszzzz" />
    <path
       style="fill:none;fill-rule:evenodd;stroke:#000000;stroke-width:1px;stroke-linecap:butt;stroke-linejoin:miter;stroke-opacity:1"
       d="m 368.86846,536.54729 c 6.49213,-10.074 0.27353,-4.83233 10.79526,-11.1006 10.52172,-6.26826 19.65059,2.81754 19.65059,2.81754 0,0 6.93986,5.14893 5.82053,8.28306 -1.11933,3.13413 -0.22387,9.17853 -3.80573,10.52172 -3.58187,1.3432 -7.38759,5.82054 -7.38759,5.82054 0,0 0.45897,5.16484 -2.45129,7.62737 -2.91027,2.46253 -0.80274,1.10342 -5.28007,1.99889 -4.47733,0.89547 -8.62216,-1.63263 -8.62216,-1.63263 0,0 -1.17365,-1.43593 -2.06911,-1.6598 -0.89547,-0.22387 -7.36044,0.28943 -8.70364,-0.38217 -1.3432,-0.6716 -7.2293,-4.31903 -7.67703,-6.33383 -0.44773,-2.0148 -2.8447,-8.12476 1.1849,-9.69183 4.0296,-1.56706 2.14594,-5.50393 2.36981,-4.16073 0.22386,1.3432 6.17553,-2.10753 6.17553,-2.10753 z"
       id="path4732"
       inkscape:connector-curvature="0"
       sodipodi:nodetypes="cscsscsscsssssc" />
    <path
       style="fill:none;fill-rule:evenodd;stroke:#000000;stroke-width:1px;stroke-linecap:butt;stroke-linejoin:miter;stroke-opacity:1"
       d="m 201.3545,484.70714 c -6.80679,3.79914 -6.6485,10.1198 -6.6485,10.1198 0,0 -0.48285,1.27762 3.31629,3.81039 3.79915,2.53276 9.9615,2.13139 12.49427,0.54841 2.53276,-1.58297 5.3437,-4.68336 5.3437,-4.68336 0,0 0.3358,-3.16595 -0.29739,-4.43233 -0.63319,-1.26638 -5.9769,-4.72972 -5.9769,-4.72972 z"
       id="path4734"
       inkscape:connector-curvature="0"
       sodipodi:nodetypes="ccsscscc" />
    <path
       style="fill:none;fill-rule:evenodd;stroke:#000000;stroke-width:1px;stroke-linecap:butt;stroke-linejoin:miter;stroke-opacity:1"
       d="m 256.43915,485.19627 c -2.35061,1.0074 -5.19735,3.50721 -5.3728,5.82053 -0.17545,2.31332 0.55967,5.26087 0.55967,5.26087 0.41897,1.36167 2.69006,2.87824 3.80573,3.02219 l 6.93986,0.89547 c 4.27348,-0.93278 5.33549,-0.97009 7.83533,-1.90287 0,0 2.57447,-2.57446 2.57447,-4.02959 0,-1.45513 0.33579,-3.24607 -0.11194,-4.14154 -0.44774,-0.89547 -3.24607,-3.80572 -3.24607,-3.80572 -1.03337,-1.55006 -6.38019,-1.90287 -6.38019,-1.90287 -0.24836,0.37253 -4.02959,0.22386 -4.02959,0.22386 0,0 -0.22387,-0.44773 -2.57447,0.55967 z"
       id="path4736"
       inkscape:connector-curvature="0"
       sodipodi:nodetypes="zzsscczzsscz" />
    <path
       style="fill:none;fill-rule:evenodd;stroke:#000000;stroke-width:1px;stroke-linecap:butt;stroke-linejoin:miter;stroke-opacity:1"
       d="m 221.6279,445.68382 c 4.70119,0.89547 6.71599,2.0148 6.71599,2.0148 0,0 2.91027,6.93987 2.23867,8.0592 -0.6716,1.11933 -1.79093,4.25347 -3.358,5.3728 -1.56707,1.11933 -5.14893,2.01479 -6.49213,1.56706 -1.3432,-0.44773 -4.02959,-0.44774 -5.14893,-2.0148 -1.11933,-1.56707 -2.91027,-5.3728 -2.23867,-7.83533 0.6716,-2.46253 1.56707,-3.58186 2.6864,-5.14892 1.11933,-1.56707 5.59667,-2.01481 5.59667,-2.01481 z"
       id="path4742"
       inkscape:connector-curvature="0"
       sodipodi:nodetypes="ccssssssc" />
    <path
       style="fill:none;fill-rule:evenodd;stroke:#000000;stroke-width:1px;stroke-linecap:butt;stroke-linejoin:miter;stroke-opacity:1"
       d="m 247.37255,445.68382 c 7.61147,1.11933 7.61147,1.11933 7.61147,1.11933 l 4.0296,4.0296 c 0,0 0.22386,6.0444 -2.01481,7.83533 -2.23866,1.79093 -6.04439,2.91027 -6.04439,2.91027 0,0.6716 -8.7308,-0.22387 -8.95467,-2.0148 -0.22386,-1.79093 -1.11933,-4.7012 -0.22386,-7.61147 0.89546,-2.91026 5.59666,-6.26826 5.59666,-6.26826 z"
       id="path4744"
       inkscape:connector-curvature="0"
       sodipodi:nodetypes="cccssssc" />
  </g>
</svg>
