<?xml version="1.0" encoding="UTF-8" standalone="no"?>
<!-- Created with Inkscape (http://www.inkscape.org/) -->

<svg
   xmlns:dc="http://purl.org/dc/elements/1.1/"
   xmlns:cc="http://creativecommons.org/ns#"
   xmlns:rdf="http://www.w3.org/1999/02/22-rdf-syntax-ns#"
   xmlns:svg="http://www.w3.org/2000/svg"
   xmlns="http://www.w3.org/2000/svg"
   xmlns:sodipodi="http://sodipodi.sourceforge.net/DTD/sodipodi-0.dtd"
   xmlns:inkscape="http://www.inkscape.org/namespaces/inkscape"
   width="457.20001mm"
   height="304.79999mm"
   viewBox="0 0 1620 1080"
   id="svg2"
   version="1.1"
   inkscape:version="0.91 r13725"
   sodipodi:docname="soporte-movil-carton-6mm-grabado.svg">
  <defs
     id="defs4" />
  <sodipodi:namedview
     id="base"
     pagecolor="#ffffff"
     bordercolor="#666666"
     borderopacity="1.0"
     inkscape:pageopacity="0.0"
     inkscape:pageshadow="2"
     inkscape:zoom="3.2802395"
     inkscape:cx="317.34281"
     inkscape:cy="919.12293"
     inkscape:document-units="px"
     inkscape:current-layer="layer3"
     showgrid="false"
     inkscape:window-width="1855"
     inkscape:window-height="1056"
     inkscape:window-x="69"
     inkscape:window-y="1048"
     inkscape:window-maximized="1"
     showguides="true"
     inkscape:guide-bbox="true" />
  <metadata
     id="metadata7">
    <rdf:RDF>
      <cc:Work
         rdf:about="">
        <dc:format>image/svg+xml</dc:format>
        <dc:type
           rdf:resource="http://purl.org/dc/dcmitype/StillImage" />
        <dc:title></dc:title>
      </cc:Work>
    </rdf:RDF>
  </metadata>
  <g
     inkscape:groupmode="layer"
     id="layer3"
     inkscape:label="Grabado"
     style="display:inline">
    <path
       style="display:inline;fill:#000000"
       d="m 102.22474,106.88118 c -1.41601,-0.51763 -2.10387,-2.15162 -1.44342,-3.42879 0.53949,-1.04325 1.10673,-1.31446 3.14793,-1.50507 1.64548,-0.15366 1.69905,-0.18121 1.62314,-0.83486 -0.0709,-0.6106 -0.19984,-0.6837 -1.33337,-0.75601 -0.69018,-0.044 -1.40944,0.0482 -1.59837,0.20502 -0.25899,0.21494 -0.52156,0.13191 -1.06731,-0.33753 l -0.72382,-0.622594 0.72935,-0.47789 c 1.04931,-0.68754 3.41457,-0.789 4.56485,-0.19582 1.26386,0.65174 1.59492,1.810134 1.50293,5.258784 l -0.0733,2.74837 -0.73053,0.0838 c -0.40179,0.0461 -0.87359,-0.035 -1.04844,-0.18008 -0.19949,-0.16555 -0.45992,-0.17404 -0.6991,-0.0228 -0.40891,0.25864 -2.20904,0.29998 -2.85053,0.0655 z m 2.71236,-1.62952 c 0.51289,-0.19499 0.66675,-0.43493 0.66675,-1.03972 0,-0.74181 -0.0578,-0.78623 -1.0228,-0.78623 -2.18056,0 -3.07119,0.98679 -1.57421,1.74418 0.78557,0.39745 1.06845,0.40944 1.93026,0.0818 z m 5.36331,1.20931 c -1.39091,-0.71138 -1.49141,-0.94622 -0.6631,-1.54955 0.59915,-0.43641 0.6862,-0.43819 1.47509,-0.0302 1.12051,0.57944 2.68229,0.60243 3.23706,0.0477 0.66927,-0.66928 0.0761,-1.14529 -1.64898,-1.32333 -2.33958,-0.24147 -3.62195,-1.59806 -3.04945,-3.22595 0.614,-1.745904 3.25998,-2.398684 5.53626,-1.365824 1.09559,0.49712 1.12177,0.53588 0.74224,1.098994 -0.26097,0.38722 -0.5995,0.55597 -1.00568,0.50131 -2.62178,-0.35275 -2.98851,-0.34303 -3.34688,0.0888 -0.31814,0.38333 -0.30149,0.48617 0.12979,0.80152 0.27211,0.19897 0.92281,0.36177 1.446,0.36177 2.0585,0 3.36822,1.03376 3.36822,2.65854 0,2.18299 -3.56719,3.29337 -6.22057,1.93631 z m 9.41886,0.0954 c -1.36343,-0.83134 -1.75422,-1.67351 -1.75422,-3.78045 0,-1.3485 0.12778,-2.05945 0.46178,-2.56919 1.46329,-2.233264 4.82372,-2.278244 6.16255,-0.0825 0.37567,0.61611 0.5074,1.30455 0.5074,2.65168 0,1.34713 -0.13173,2.03557 -0.5074,2.65168 -0.97512,1.59927 -3.23822,2.12379 -4.87011,1.12877 z m 3.04007,-1.83096 c 0.39384,-0.39384 0.51986,-0.86644 0.51986,-1.94949 0,-1.08305 -0.12602,-1.55565 -0.51986,-1.94949 -0.63153,-0.63152 -1.73912,-0.67319 -2.3839,-0.0897 -0.64375,0.58259 -0.6746,3.33765 -0.0452,4.03317 0.56758,0.62718 1.77958,0.60497 2.42906,-0.0445 z m 5.71444,1.86527 c -2.6864,-1.40626 -2.70278,-6.20284 -0.0258,-7.568514 1.35245,-0.68996 2.69245,-0.67892 3.95846,0.0326 1.14484,0.64343 1.25804,1.048674 0.45083,1.614054 -0.49011,0.34329 -0.62589,0.34511 -1.09756,0.0147 -0.62621,-0.43862 -1.80259,-0.49141 -2.5103,-0.11266 -1.14129,0.6108 -1.13945,3.80018 0.003,4.41136 0.69712,0.37308 1.90008,0.32567 2.47909,-0.0977 0.42304,-0.30933 0.57819,-0.30507 1.08941,0.0299 0.84357,0.55274 0.74449,0.93149 -0.41401,1.5826 -1.23134,0.69205 -2.72165,0.72753 -3.93262,0.0936 z m 6.50235,-3.81476 0,-4.288864 0.90976,0 0.90976,0 0,4.288864 0,4.28887 -0.90976,0 -0.90976,0 0,-4.28887 z m 4.22998,3.37221 c -0.805,-0.805 -0.89817,-1.03055 -0.76491,-1.85176 0.27029,-1.66557 1.52978,-2.42554 4.02523,-2.42876 1.07033,-0.001 1.11819,-0.0344 1.03972,-0.71626 -0.0757,-0.65796 -0.18333,-0.72123 -1.35318,-0.79552 -0.69902,-0.0444 -1.39046,0.0388 -1.53653,0.18488 -0.31789,0.31789 -1.79279,-0.4593 -1.66337,-0.876494 0.1554,-0.50094 1.86843,-1.17635 2.98458,-1.17676 1.37283,-5.2e-4 2.78129,0.56209 3.15489,1.26016 0.16007,0.299104 0.28085,1.985254 0.28085,3.920974 l 0,3.3962 -0.76445,0 c -0.42045,0 -0.83694,-0.11728 -0.92554,-0.26063 -0.10767,-0.17423 -0.32254,-0.17423 -0.64808,0 -0.26785,0.14335 -1.03275,0.26063 -1.69977,0.26063 -1.04119,0 -1.34247,-0.12969 -2.12944,-0.91666 z m 3.68101,-0.89643 c 0.51289,-0.19499 0.66675,-0.43493 0.66675,-1.03972 0,-0.74181 -0.0578,-0.78623 -1.0228,-0.78623 -2.09914,0 -2.98236,0.83168 -1.77861,1.67482 0.6685,0.46824 1.20139,0.50596 2.13466,0.15113 z m 6.40372,1.35781 c -1.50882,-0.76937 -1.96796,-1.65306 -1.96796,-3.78767 0,-2.17985 0.54621,-3.199894 2.11113,-3.942504 1.16677,-0.55367 2.97975,-0.41133 3.94559,0.30976 0.92214,0.68848 0.95786,0.974864 0.18479,1.481404 -0.60292,0.39505 -0.7199,0.39847 -1.23713,0.0362 -1.23136,-0.862474 -2.82856,-0.2227 -3.20686,1.28453 -0.25381,1.01129 0.10991,2.41532 0.74004,2.85668 0.7082,0.49604 1.99091,0.51266 2.67339,0.0346 0.45368,-0.31778 0.59355,-0.30148 1.12817,0.13143 0.51385,0.41609 0.5571,0.55826 0.27369,0.89975 -0.96669,1.16479 -3.09875,1.48417 -4.64485,0.6958 z m 6.47982,-3.85006 0,-4.305334 0.84477,0.0814 0.84478,0.0815 0.0714,4.223884 0.0714,4.22389 -0.9162,0 -0.9162,0 0,-4.30534 z m 3.37911,3.69884 c 0,-0.90333 0.27089,-1.00926 0.8143,-0.31843 0.63452,0.80667 0.61349,0.92493 -0.16447,0.92493 -0.50749,0 -0.64983,-0.13285 -0.64983,-0.6065 z m 1.86886,0.08 c -1.08788,-0.66327 -1.60893,-1.90136 -1.60893,-3.82304 0,-2.793904 1.51172,-4.366684 3.98884,-4.149974 1.0257,0.0897 1.43592,0.28654 2.20942,1.05994 0.93139,0.931264 0.94986,0.989304 0.94986,2.984144 0,1.27113 -0.14017,2.29686 -0.37359,2.73395 -0.87811,1.64424 -3.45207,2.23969 -5.1656,1.19498 z m 3.17103,-1.69125 c 0.85257,-0.85257 0.83491,-3.12387 -0.0318,-4.08557 -0.4951,-0.54938 -1.60357,-0.5909 -2.29415,-0.0859 -0.73822,0.5398 -0.73822,3.66102 0,4.20082 0.66304,0.48483 1.82643,0.47017 2.32591,-0.0293 z m 4.43857,1.89804 c -0.0745,-0.19411 -0.10293,-2.10234 -0.0632,-4.24049 l 0.0722,-3.887554 0.90976,0 c 0.58918,0 0.88686,0.1145 0.84478,0.32492 -0.0859,0.42935 0.0835,0.40995 0.85941,-0.0985 0.98873,-0.64784 2.66276,-0.33209 3.55943,0.67137 0.70202,0.785624 0.71481,0.860334 0.71481,4.174944 l 0,3.37501 -0.90976,0 -0.90976,0 0,-2.94892 c 0,-3.22086 -0.24618,-3.81376 -1.58006,-3.80532 -1.27839,0.008 -1.40046,0.29042 -1.53912,3.55982 l -0.12997,3.06446 -0.84656,0.0816 c -0.53532,0.0516 -0.89636,-0.0482 -0.982,-0.27135 z m 19.81338,-0.65501 c -0.0611,-0.10722 -0.91185,-4.49357 -1.89052,-9.747434 l -1.77941,-9.55248 -4.75308,0 -4.75307,0 0,-1.80859 0,-1.80859 1.98381,-0.0759 c 1.71995,-0.0658 2.03503,-0.15327 2.36896,-0.65756 0.35017,-0.52881 0.34115,-0.59567 -0.0993,-0.73596 -2.32549,-0.74068 -3.94519,-1.64031 -5.30871,-2.9486 -2.3524,-2.2571 -2.35992,-2.26228 -7.48447,-5.15354 -5.64721,-3.18613 -5.49023,-3.11306 -5.35519,-2.49266 0.17651,0.81089 0.65825,7.95024 0.54416,8.06433 -0.0593,0.0593 -0.44254,-0.20525 -0.85159,-0.58793 -0.40906,-0.38269 -0.98989,-0.85934 -1.29075,-1.05923 -0.48329,-0.32109 -0.56788,-0.7126 -0.72624,-3.36141 -0.17586,-2.94167 -0.19464,-3.01177 -0.99958,-3.73098 -1.04309,-0.932 -1.12936,-2.27524 -0.20903,-3.25489 0.58646,-0.62426 0.60428,-0.75835 0.43795,-3.29642 -0.14858,-2.26721 -0.11128,-2.71431 0.26074,-3.12538 0.23877,-0.26384 0.6318,-0.4797 0.87341,-0.4797 0.93293,0 1.25245,0.81932 1.4445,3.70403 0.10232,1.53684 0.29181,2.79426 0.42108,2.79426 0.12928,0 2.30649,-1.47303 4.83825,-3.2734 3.13435,-2.22889 4.94394,-3.70531 5.67105,-4.62697 2.20273,-2.79209 5.31663,-4.73292 8.61599,-5.3702 7.84045,-1.51439 15.82113,4.38791 16.63776,12.30484 0.40286,3.90556 -0.33936,7.01002 -2.40596,10.06334 -2.49031,3.67931 -6.35509,5.87297 -10.86594,6.16754 -1.86274,0.12165 -2.33391,0.23834 -2.54348,0.62992 -0.24435,0.45658 -0.0806,0.48062 3.27391,0.48062 3.90433,0 4.88039,0.26916 5.17071,1.42589 0.33222,1.32367 -0.64564,2.21316 -2.43305,2.21316 -0.96846,0 -1.04971,0.0514 -0.92455,0.58484 0.23214,0.98945 3.77166,18.590164 3.77166,18.755074 0,0.22655 -1.50908,0.18974 -1.64002,-0.04 z m -1.54278,-26.600084 c 0.91331,-0.30393 1.72109,-0.71033 1.79506,-0.90311 0.074,-0.19278 -0.80226,-1.90733 -1.94719,-3.81012 l -2.0817,-3.45962 -1.14934,0.0914 -1.14934,0.0914 -0.95464,4.07104 c -0.52506,2.23907 -0.95304,4.15099 -0.95108,4.24872 0.0127,0.63469 4.18178,0.42117 6.43823,-0.32973 z m -6.57867,-3.68195 c 0.52014,-2.18017 0.99082,-4.09771 1.04595,-4.2612 0.0551,-0.16348 -0.15868,-0.54047 -0.47512,-0.83775 l -0.57535,-0.54051 -3.69475,2.2162 c -2.03211,1.21891 -3.69475,2.33395 -3.69475,2.47788 0,0.66456 2.79022,3.14936 4.49305,4.00126 0.99834,0.49944 1.84668,0.90808 1.8852,0.90808 0.0385,0 0.49562,-1.78378 1.01577,-3.96396 z m 11.82819,0.0419 c 0.7981,-0.99312 2.1617,-3.3732 2.01604,-3.51886 -0.0436,-0.0436 -1.79977,-0.68008 -3.90251,-1.4143 l -3.82316,-1.33496 -0.48156,0.5947 c -0.4791,0.59166 -0.47231,0.61012 1.32422,3.60047 0.99319,1.65317 1.97442,3.26996 2.18052,3.59286 l 0.37474,0.58711 0.76193,-0.56332 c 0.41906,-0.30982 1.11646,-1.00449 1.54978,-1.5437 z m -21.9794,-2.01434 c -0.77701,-1.62356 -1.39268,-4.34255 -1.39268,-6.15046 0,-1.62746 0.59751,-4.49951 1.16399,-5.59498 0.23637,-0.45708 0.31416,-0.78883 0.17286,-0.73722 -0.1413,0.0516 -2.05886,1.37906 -4.26125,2.94988 l -4.00434,2.85603 0.0592,1.56281 0.0592,1.5628 4.3754,2.49476 c 2.40648,1.37212 4.39942,2.47882 4.42876,2.45933 0.0293,-0.0195 -0.24116,-0.65082 -0.60112,-1.40295 z m 5.53757,-2.02873 c 4.0957,-2.44494 4.01753,-2.37561 3.76076,-3.3357 -0.20434,-0.76405 -0.21885,-0.76915 -3.82801,-1.34643 -5.22415,-0.8356 -4.79258,-0.94033 -4.79258,1.16305 0,2.01026 0.90463,5.50574 1.42489,5.50574 0.0588,0 1.60454,-0.894 3.43494,-1.98666 z m 19.12879,-1.78372 c 0.52825,-2.41013 -0.58024,-8.18722 -1.50299,-7.83313 -0.18562,0.0712 -1.75869,1.15955 -3.4957,2.4185 -3.05677,2.21548 -3.15573,2.31735 -3.08117,3.17202 l 0.077,0.88303 3.50907,1.25303 c 1.92999,0.68917 3.67943,1.2287 3.88763,1.19897 0.2121,-0.0303 0.47861,-0.51062 0.60612,-1.09242 z m -10.37007,0.51704 c 1.00364,-0.47626 1.71742,-1.60385 1.71742,-2.71311 0,-2.69433 -3.02785,-4.10835 -5.03104,-2.34953 -1.60964,1.41329 -1.4133,3.8237 0.40161,4.93021 1.02886,0.62728 1.7957,0.66215 2.91201,0.13243 z m -4.36398,-4.77675 0.54686,-1.00766 -2.10645,-3.45704 c -1.15855,-1.90137 -2.24344,-3.50059 -2.41088,-3.55383 -0.57547,-0.18298 -3.12209,2.69898 -4.08408,4.62189 -1.52607,3.05043 -1.61949,2.93616 3.02387,3.6988 2.18018,0.35808 4.08093,0.6633 4.22389,0.67827 0.14296,0.015 0.50602,-0.42622 0.80679,-0.98043 z m 9.5912,-2.25182 c 1.71515,-1.22322 3.15663,-2.33198 3.20329,-2.46392 0.0466,-0.13194 -0.49935,-0.85642 -1.21334,-1.60996 -1.34381,-1.41824 -3.55791,-2.90486 -4.76044,-3.19631 -0.80886,-0.19604 -0.67896,-0.51062 -1.76337,4.27033 l -0.79019,3.48381 0.97211,0.85922 c 0.53466,0.47257 1.03091,0.86409 1.1028,0.87004 0.0719,0.006 1.534,-0.98999 3.24914,-2.21321 z m -6.36464,0.2141 c 0.27598,-0.32491 1.82099,-7.64766 1.66636,-7.89787 -0.26838,-0.43424 -3.89982,-0.24698 -5.60735,0.28916 -0.90857,0.28527 -1.78921,0.60831 -1.95698,0.71786 -0.2109,0.13771 0.38128,1.3326 1.91901,3.87211 l 2.22403,3.67294 0.79274,-0.22736 c 0.43601,-0.12504 0.869,-0.31712 0.96219,-0.42684 z m -23.02383,34.71197 c 0.0791,-0.47323 0.32869,-2.25262 0.55453,-3.95421 0.22584,-1.70159 0.59093,-3.36899 0.8113,-3.70533 0.29506,-0.45031 0.32584,-0.70172 0.11675,-0.95365 -0.17436,-0.2101 -0.22241,-0.86158 -0.1245,-1.68825 l 0.15943,-1.34613 -1.95064,0 c -1.57983,0 -2.08084,-0.10242 -2.63553,-0.53873 -1.33961,-1.05374 -0.5855,-2.76373 1.33225,-3.02095 0.7942,-0.10652 1.10205,-0.26836 1.10205,-0.57934 0,-0.23733 0.51007,-0.93211 1.13348,-1.54394 l 1.13349,-1.11243 0.16617,0.83086 c 0.0914,0.45699 0.16618,1.16716 0.16618,1.57818 0,0.72348 0.0414,0.7473 1.29966,0.7473 0.71481,0 1.29515,0.0877 1.28964,0.19495 -0.006,0.10722 -0.38566,0.42889 -0.84478,0.71481 -1.62325,1.01091 -2.43603,3.75307 -1.72066,5.80518 0.21609,0.61988 0.18027,1.57232 -0.15014,3.99255 -0.23867,1.74815 -0.52602,3.3585 -0.63857,3.57855 -0.11255,0.22006 -0.15763,0.53003 -0.10019,0.68883 0.0574,0.1588 -0.19892,0.4875 -0.5697,0.73044 l -0.67414,0.44172 0.14392,-0.86041 z m 1.8051,-1.38028 c 0.23088,-0.3574 0.60869,-0.94225 0.83958,-1.29965 0.34273,-0.53054 0.62904,-0.64983 1.55959,-0.64983 0.62689,0 1.1398,0.0521 1.1398,0.11567 0,0.0636 -0.55561,0.64575 -1.23468,1.29363 -0.8681,0.82823 -1.45577,1.17975 -1.97938,1.18399 -0.73326,0.006 -0.73825,-0.004 -0.32491,-0.64381 z m -27.13296,-0.90976 c 0,-0.7179 0.0722,-0.77979 0.90976,-0.77979 0.83755,0 0.90976,0.0619 0.90976,0.77979 0,0.71791 -0.0722,0.7798 -0.90976,0.7798 -0.83756,0 -0.90976,-0.0619 -0.90976,-0.7798 z m 20.79453,0 c 0,-0.7179 0.0722,-0.77979 0.90976,-0.77979 0.83755,0 0.90976,0.0619 0.90976,0.77979 0,0.71791 -0.0722,0.7798 -0.90976,0.7798 -0.83756,0 -0.90976,-0.0619 -0.90976,-0.7798 z m -32.88135,-3.09662 c -1.87549,-0.47024 -3.20173,-1.56286 -3.88657,-3.20192 -0.32368,-0.77467 -0.40231,-2.13517 -0.40231,-6.9615 l 0,-5.99865 1.75454,0.0769 1.75454,0.0769 0.12997,5.54662 0.12996,5.54662 0.72931,0.62675 c 0.9891,0.85002 2.49107,0.84998 3.48009,-8e-5 l 0.7293,-0.62685 0.0794,-5.62306 0.0794,-5.62306 1.74012,0.0765 1.74012,0.0765 0.0687,7.9929 0.0687,7.99289 -1.82327,0 c -1.76561,0 -1.82328,-0.0203 -1.82328,-0.64199 l 0,-0.642 -0.94603,0.642 c -0.52032,0.3531 -1.13441,0.64359 -1.36465,0.64554 -0.23023,0.002 -0.65254,0.051 -0.93847,0.10904 -0.28592,0.058 -0.87077,0.0175 -1.29965,-0.09 z m 16.76559,0.003 c -1.34708,-0.28723 -2.96536,-1.19706 -3.71612,-2.0893 -0.36429,-0.43292 -0.91607,-1.46153 -1.22618,-2.2858 -0.48096,-1.27837 -0.54883,-1.89984 -0.46174,-4.22794 0.0868,-2.31906 0.20503,-2.92815 0.78689,-4.05234 1.32087,-2.55201 3.19833,-3.62003 6.04497,-3.43877 2.12359,0.13522 3.83258,1.14788 4.9284,2.92034 0.71047,1.14915 0.79047,1.50799 0.88091,3.9511 l 0.0995,2.68717 -4.67738,0.071 -4.67738,0.071 0.29426,0.90076 c 0.17479,0.53501 0.66367,1.15129 1.20403,1.51777 1.19324,0.80927 2.96135,0.69109 4.23887,-0.28331 l 0.88167,-0.67249 1.27372,1.12599 1.27373,1.12599 -0.63546,0.68262 c -1.38091,1.4834 -4.47299,2.4312 -6.51266,1.99629 z m 3.63904,-10.1504 c 0,-1.95066 -2.13447,-3.1675 -4.0362,-2.30101 -0.74062,0.33746 -1.42237,1.4283 -1.42237,2.27588 0,0.50325 0.15125,0.53277 2.72929,0.53277 2.53407,0 2.72928,-0.0363 2.72928,-0.50763 z m 10.86665,10.02441 c -1.28653,-0.34947 -1.62857,-0.55688 -3.0265,-1.83524 -1.51124,-1.38198 -1.95043,-2.55116 -2.07122,-5.51383 -0.0832,-2.04146 -0.005,-2.95146 0.34652,-4.00847 0.54274,-1.63404 2.17074,-3.50374 3.63198,-4.17119 1.40612,-0.64227 4.31255,-0.64223 5.7185,8e-5 1.07055,0.48908 2.72928,1.88268 2.72928,2.29303 0,0.12732 -0.52509,0.74683 -1.16686,1.37668 l -1.16686,1.14519 -0.77047,-0.73816 c -0.56791,-0.54409 -1.10406,-0.77021 -2.03924,-0.86007 -2.6,-0.24983 -3.77318,1.15526 -3.76104,4.50451 0.011,3.04244 0.97784,4.26912 3.36473,4.26912 1.1582,0 1.50285,-0.12301 2.29618,-0.81956 l 0.93343,-0.81956 1.15506,1.13361 c 0.63529,0.62349 1.15507,1.28398 1.15507,1.46776 0,0.39015 -1.86008,1.8126 -2.98921,2.28591 -1.25877,0.52766 -3.02925,0.64606 -4.33935,0.29019 z m 13.17702,0.2344 c -0.14296,-0.0501 -0.70554,-0.16581 -1.25018,-0.25707 -0.60227,-0.10093 -1.3856,-0.52311 -1.99928,-1.07754 -2.40657,-2.17419 -2.32669,-5.64914 0.17374,-7.55835 0.90049,-0.68758 1.12551,-0.7331 4.02921,-0.815 l 3.07545,-0.0867 0,-0.99939 c 0,-0.5511 -0.17864,-1.17804 -0.39825,-1.39765 -0.89992,-0.89992 -3.65365,-0.85401 -4.64513,0.0774 l -0.55,0.5167 -1.36222,-1.06143 c -0.74921,-0.58379 -1.36221,-1.15218 -1.36221,-1.2631 0,-0.3386 1.56782,-1.54399 2.53248,-1.94705 1.08139,-0.45184 4.42332,-0.50293 5.90944,-0.0904 1.325,0.36785 2.85716,1.90001 3.22501,3.22501 0.1696,0.6109 0.28762,3.39998 0.28848,6.81735 l 0.002,5.78347 -1.81953,0 c -1.45767,0 -1.81952,-0.0789 -1.81952,-0.39657 0,-0.34729 -0.0888,-0.35149 -0.71481,-0.0337 -0.72796,0.3695 -2.84255,0.72938 -3.31413,0.56404 z m 3.53774,-3.95737 c 0.15952,-0.15952 0.35051,-0.82657 0.42442,-1.48233 l 0.13439,-1.19229 -2.32351,0 c -2.32696,0 -2.98037,0.20826 -3.26215,1.03973 -0.20836,0.61482 0.25146,1.54813 0.89815,1.82301 0.76418,0.32481 3.7519,0.18869 4.1287,-0.1881 z m -70.61119,3.4986 c -0.0686,-0.1788 -0.0942,-5.17923 -0.0568,-11.11208 l 0.0679,-10.787 4.4111,-0.0715 c 5.15283,-0.0836 6.73475,0.17106 8.2518,1.32816 2.99589,2.28504 3.30946,7.06497 0.63332,9.65397 -0.59481,0.57544 -1.29947,1.16621 -1.56591,1.31282 -0.44831,0.24667 -0.30764,0.61976 1.88551,5.00094 1.30349,2.60392 2.36997,4.79411 2.36997,4.86709 0,0.073 -0.96853,0.1327 -2.15228,0.1327 l -2.15228,0 -2.17219,-4.67876 -2.17219,-4.67877 -1.78392,0 -1.78393,0 0,4.67877 0,4.67876 -1.82768,0 c -1.22285,0 -1.86896,-0.10757 -1.95242,-0.32507 z m 10.55329,-13.34561 c 1.45506,-1.4563 1.20928,-4.17077 -0.43423,-4.79563 -0.35987,-0.13682 -1.93335,-0.24876 -3.49663,-0.24876 l -2.84233,0 0,3.01158 0,3.01158 2.98491,-0.0874 c 2.94095,-0.0861 2.99673,-0.0992 3.78828,-0.89142 z m -0.71016,-11.65189 c -1.161,-0.51927 -1.74234,-1.49551 -1.53828,-2.58324 0.25794,-1.37494 0.96224,-1.82628 3.03236,-1.94325 1.67968,-0.0949 1.80043,-0.14211 1.80043,-0.70367 0,-1.22904 -1.57893,-1.84413 -2.908,-1.13283 -0.43311,0.23179 -0.6334,0.18707 -1.05631,-0.23584 l -0.52187,-0.52187 0.80056,-0.41399 c 1.54072,-0.79674 4.39804,-0.34221 4.82382,0.76735 0.0888,0.23143 0.16146,1.87332 0.16146,3.64866 l 0,3.22789 -0.64983,0 c -0.43138,0 -0.64983,-0.14461 -0.64983,-0.43019 0,-0.39915 -0.034,-0.39938 -0.47193,-0.003 -0.67844,0.61397 -1.86881,0.75064 -2.82258,0.32406 z m 3.02544,-1.69323 c 0.14799,-0.27652 0.26907,-0.7444 0.26907,-1.03972 0,-0.48264 -0.15684,-0.53695 -1.55044,-0.53695 -1.26685,0 -1.59966,0.092 -1.81952,0.50277 -0.348,0.65024 -0.34385,0.68498 0.13938,1.16822 0.6129,0.61289 2.61718,0.54906 2.96151,-0.0943 z m -12.92753,-3.85108 0.0701,-5.65351 0.71481,-0.0822 0.71481,-0.0822 0,4.95597 0,4.95597 2.72928,0 2.72928,0 0,0.77979 0,0.7798 -3.51414,0 -3.51415,0 0.0701,-5.65352 z"
       id="path4437"
       inkscape:connector-curvature="0" />
    <text
       xml:space="preserve"
       style="font-style:normal;font-weight:normal;font-size:12.27650928px;line-height:125%;font-family:sans-serif;text-align:center;letter-spacing:0px;word-spacing:0px;text-anchor:middle;display:inline;fill:#000000;fill-opacity:1;stroke:none;stroke-width:1px;stroke-linecap:butt;stroke-linejoin:miter;stroke-opacity:1"
       x="376.94296"
       y="69.39753"
       id="text4439"
       sodipodi:linespacing="125%"><tspan
         sodipodi:role="line"
         id="tspan4441"
         x="378.89713"
         y="69.39753"
         style="-inkscape-font-specification:'sans-serif Bold';font-family:sans-serif;font-weight:bold;font-style:normal;font-stretch:normal;font-variant:normal">Escuela de </tspan><tspan
         sodipodi:role="line"
         x="376.94296"
         y="84.743164"
         id="tspan4445"
         style="-inkscape-font-specification:'sans-serif Bold';font-family:sans-serif;font-weight:bold;font-style:normal;font-stretch:normal;font-variant:normal">oportunidades</tspan><tspan
         sodipodi:role="line"
         x="376.94296"
         y="100.08881"
         id="tspan4443"
         style="-inkscape-font-specification:'sans-serif Bold';font-family:sans-serif;font-weight:bold;font-style:normal;font-stretch:normal;font-variant:normal">tecnológicas</tspan></text>
    <text
       xml:space="preserve"
       style="font-style:normal;font-weight:normal;font-size:7.11200285px;line-height:125%;font-family:sans-serif;text-align:center;letter-spacing:0px;word-spacing:0px;text-anchor:middle;display:inline;fill:#000000;fill-opacity:1;stroke:none;stroke-width:1px;stroke-linecap:butt;stroke-linejoin:miter;stroke-opacity:1"
       x="219.52283"
       y="20.686695"
       id="text4439-6"
       sodipodi:linespacing="125%"
       transform="matrix(0.67996173,0.7332476,-0.7332476,0.67996173,0,0)"><tspan
         sodipodi:role="line"
         x="219.52283"
         y="20.686695"
         id="tspan4443-1" /><tspan
         sodipodi:role="line"
         x="219.52283"
         y="29.576698"
         id="tspan4475"
         style="-inkscape-font-specification:'sans-serif Bold';font-family:sans-serif;font-weight:bold;font-style:normal;font-stretch:normal;font-variant:normal">larueca@larueca.info</tspan></text>
    <text
       xml:space="preserve"
       style="font-style:normal;font-weight:normal;font-size:8.64497757px;line-height:125%;font-family:sans-serif;letter-spacing:0px;word-spacing:0px;display:inline;fill:#000000;fill-opacity:1;stroke:none;stroke-width:1px;stroke-linecap:butt;stroke-linejoin:miter;stroke-opacity:1"
       x="371.26242"
       y="168.61588"
       id="text4477"
       sodipodi:linespacing="125%"><tspan
         sodipodi:role="line"
         id="tspan4479"
         x="371.26242"
         y="168.61588"
         style="font-style:normal;font-variant:normal;font-weight:bold;font-stretch:normal;font-family:sans-serif;-inkscape-font-specification:'sans-serif Bold'">Tlf:</tspan><tspan
         sodipodi:role="line"
         x="371.26242"
         y="179.4221"
         id="tspan4481"
         style="font-style:normal;font-variant:normal;font-weight:bold;font-stretch:normal;font-family:sans-serif;-inkscape-font-specification:'sans-serif Bold'">914040733</tspan></text>
  </g>
  <g
     inkscape:groupmode="layer"
     id="layer2"
     inkscape:label="Interior"
     style="display:inline">
    <path
       style="fill:none;fill-rule:evenodd;stroke:#ff0000;stroke-width:1.24015737;stroke-miterlimit:4;stroke-dasharray:none"
       d="m 37.073875,118.5539 0,-70.866145 219.685025,0 0,31.548925 m -219.685025,39.31722 35.433068,0 0,-35.433074 21.259841,0 0,35.433074 106.299206,0 0,-35.433074 21.25984,0 0,35.433074 35.43307,0 0,-36.407084"
       id="Sketch001_w0000"
       inkscape:connector-curvature="0"
       sodipodi:nodetypes="ccccccccccccccc" />
    <path
       style="fill:none;fill-rule:evenodd;stroke:#ff0000;stroke-width:1.24015737;stroke-miterlimit:4;stroke-dasharray:none"
       d="m 72.506943,143.35705 -35.433068,0 0,70.86614 212.598405,0 0,-29.7057 m -177.165337,-41.16044 0,35.43307 21.259841,0 0,-35.43307 56.692906,0 14.24139,53.1496 31.88977,0 -14.2414,-53.1496 28.34646,0 0,35.43307 21.25984,0 0,-35.43307 17.71653,0 0,37.42476"
       id="Sketch_w0000"
       inkscape:connector-curvature="0"
       sodipodi:nodetypes="ccccccccccccccccccc" />
    <path
       style="fill:none;fill-rule:evenodd;stroke:#ff0000;stroke-width:1.24015737;stroke-miterlimit:4;stroke-dasharray:none"
       d="m 267.8643,79.128857 0,-30.578842 219.68502,0 0,70.866145 -35.43307,0 0,-35.433074 -21.25984,0 0,35.433074 -106.2992,0 0,-35.433074 -21.25984,0 0,35.433074 -35.43307,0 0,-37.269343"
       id="Sketch001_w0000-7"
       inkscape:connector-curvature="0"
       sodipodi:nodetypes="cccccccccccc" />
    <path
       style="fill:none;fill-rule:evenodd;stroke:#ff0000;stroke-width:1.24015737;stroke-miterlimit:4;stroke-dasharray:none"
       d="m 449.29763,144.21931 35.43307,0 0,36.44099 m -35.43307,-36.44099 0,35.43307 -21.25984,0 0,-35.43307 -56.69291,0 -14.24139,53.1496 -31.88976,0 14.24139,-53.1496 -28.34645,0 0,35.43307 -21.25984,0 0,-35.43307 -17.71654,0 0,70.86614 212.59841,0 0,-30.7518"
       id="Sketch_w0000-5"
       inkscape:connector-curvature="0"
       sodipodi:nodetypes="ccccccccccccccccc" />
  </g>
  <g
     inkscape:groupmode="layer"
     id="layer1"
     inkscape:label="Borde-tarjeta"
     style="display:inline">
    <rect
       style="opacity:1;fill:none;fill-opacity:0;stroke:#ff0000;stroke-width:0.99999994;stroke-linecap:round;stroke-linejoin:round;stroke-miterlimit:4;stroke-dasharray:none;stroke-dashoffset:0;stroke-opacity:1"
       id="rect4261"
       width="496.30518"
       height="207.49844"
       x="18.291348"
       y="29.00514"
       ry="0" />
  </g>
</svg>
