<?xml version="1.0" encoding="UTF-8" standalone="no"?>
<!-- Created with Inkscape (http://www.inkscape.org/) -->

<svg
   xmlns:dc="http://purl.org/dc/elements/1.1/"
   xmlns:cc="http://creativecommons.org/ns#"
   xmlns:rdf="http://www.w3.org/1999/02/22-rdf-syntax-ns#"
   xmlns:svg="http://www.w3.org/2000/svg"
   xmlns="http://www.w3.org/2000/svg"
   xmlns:sodipodi="http://sodipodi.sourceforge.net/DTD/sodipodi-0.dtd"
   xmlns:inkscape="http://www.inkscape.org/namespaces/inkscape"
   width="457.20001mm"
   height="304.79999mm"
   viewBox="0 0 1620 1080"
   id="svg2"
   version="1.1"
   inkscape:version="0.91 r13725"
   sodipodi:docname="soporte-movil-E2O-carton-6mm.svg">
  <defs
     id="defs4" />
  <sodipodi:namedview
     id="base"
     pagecolor="#ffffff"
     bordercolor="#666666"
     borderopacity="1.0"
     inkscape:pageopacity="0.0"
     inkscape:pageshadow="2"
     inkscape:zoom="1.1597398"
     inkscape:cx="282.30171"
     inkscape:cy="829.65129"
     inkscape:document-units="px"
     inkscape:current-layer="layer3"
     showgrid="false"
     inkscape:window-width="1215"
     inkscape:window-height="1000"
     inkscape:window-x="65"
     inkscape:window-y="24"
     inkscape:window-maximized="1"
     showguides="true"
     inkscape:guide-bbox="true" />
  <metadata
     id="metadata7">
    <rdf:RDF>
      <cc:Work
         rdf:about="">
        <dc:format>image/svg+xml</dc:format>
        <dc:type
           rdf:resource="http://purl.org/dc/dcmitype/StillImage" />
        <dc:title></dc:title>
      </cc:Work>
    </rdf:RDF>
  </metadata>
  <g
     inkscape:groupmode="layer"
     id="layer3"
     inkscape:label="Grabado"
     style="display:inline">
    <path
       style="fill:#000000;stroke:#000000;stroke-width:1"
       d="m 381.64413,95.907461 c 9.22108,-2.39473 15.20133,-9.98907 15.20133,-19.304296 0,-9.029222 -5.58638,-16.535292 -14.26851,-19.171672 -2.32768,-0.706818 -3.44849,-0.808291 -6.95674,-0.62976 -3.44213,0.175156 -4.18201,0.11195 -4.18201,-0.357612 0,-0.313739 -0.77346,-1.341596 -1.71879,-2.284148 -4.24241,-4.229922 -13.42903,-4.10337 -17.97471,0.247594 -2.47953,2.373349 -2.45164,2.562857 0.57653,3.917509 1.484,0.663852 2.7382,1.157666 2.78713,1.097339 0.0489,-0.06041 0.30662,-0.52648 0.57264,-1.035921 1.79021,-3.428438 9.70786,-3.308565 9.70786,0.146973 0,1.224513 -1.64436,3.035393 -12.10613,13.332182 l -8.26002,8.129774 6.10529,0.01339 6.1053,0.01339 0.25948,1.379181 c 0.8358,4.442102 5.715,10.570932 10.23279,12.85352 4.37849,2.212216 9.44844,2.814598 13.91856,1.653708 z m -7.18126,-5.844439 c -2.30543,-0.463881 -3.65313,-1.034887 -5.60859,-2.376316 -1.85489,-1.272443 -4.47208,-4.775861 -4.9005,-6.55988 l -0.26554,-1.105774 6.67694,0 6.67692,0 0.12195,1.9793 0.12194,1.979305 4.13373,-3.012413 c 2.27354,-1.656842 4.1299,-3.135614 4.12519,-3.286152 -0.008,-0.252553 -7.39245,-5.734232 -8.13296,-6.037191 -0.18018,-0.07377 -0.3276,0.695302 -0.3276,1.70894 l 0,1.842959 -6.85594,0 c -7.86482,0 -7.52813,0.213115 -6.01862,-3.809526 1.07821,-2.8733 4.03779,-5.931164 7.11965,-7.35608 3.28945,-1.520897 7.79308,-1.532143 11.04608,-0.02753 3.17903,1.47035 5.37112,3.598909 6.90445,6.704383 1.15792,2.345136 1.31322,3.04686 1.30322,5.887736 -0.009,2.613981 -0.21063,3.653591 -1.06272,5.485102 -2.03878,4.382129 -5.52879,7.107694 -10.19127,7.958983 -2.64502,0.482933 -2.58787,0.482655 -4.86624,0.02424 z"
       id="path3468"
       inkscape:connector-curvature="0"
       sodipodi:nodetypes="cssssssscssscccsscccsscccccsccccssssscsscc" />
    <text
       xml:space="preserve"
       style="font-style:normal;font-weight:normal;font-size:6.54799986px;line-height:125%;font-family:sans-serif;letter-spacing:0px;word-spacing:0px;fill:#000000;fill-opacity:1;stroke:none;stroke-width:1px;stroke-linecap:butt;stroke-linejoin:miter;stroke-opacity:1"
       x="391.39084"
       y="90.21463"
       id="text3470"
       sodipodi:linespacing="125%"
       transform="scale(0.87803674,1.1389045)"><tspan
         sodipodi:role="line"
         id="tspan3472"
         x="391.39084"
         y="90.21463"
         style="font-style:normal;font-variant:normal;font-weight:bold;font-stretch:normal;font-family:sans-serif;-inkscape-font-specification:'sans-serif Bold'">Escuelas</tspan></text>
    <text
       xml:space="preserve"
       style="font-style:normal;font-weight:normal;font-size:8.87912178px;line-height:125%;font-family:sans-serif;letter-spacing:0px;word-spacing:0px;fill:#000000;fill-opacity:1;stroke:none;stroke-width:1px;stroke-linecap:butt;stroke-linejoin:miter;stroke-opacity:1"
       x="393.73868"
       y="96.428825"
       id="text3470-0"
       sodipodi:linespacing="125%"
       transform="scale(0.87224414,1.146468)"><tspan
         sodipodi:role="line"
         id="tspan3472-4"
         x="393.73868"
         y="96.428825"
         style="font-style:normal;font-variant:normal;font-weight:bold;font-stretch:normal;font-family:sans-serif;-inkscape-font-specification:'sans-serif Bold'">Oportunidad</tspan></text>
    <text
       xml:space="preserve"
       style="font-style:normal;font-weight:normal;font-size:4.1793189px;line-height:125%;font-family:sans-serif;letter-spacing:0px;word-spacing:0px;fill:#000000;fill-opacity:1;stroke:none;stroke-width:1px;stroke-linecap:butt;stroke-linejoin:miter;stroke-opacity:1"
       x="373.08932"
       y="102.42673"
       id="text3511"
       sodipodi:linespacing="125%"
       transform="scale(1.0014749,0.99852732)"><tspan
         sodipodi:role="line"
         id="tspan3513"
         x="373.08932"
         y="102.42673">de segunda</tspan></text>
    <text
       xml:space="preserve"
       style="font-style:normal;font-weight:normal;font-size:5.03176641px;line-height:125%;font-family:sans-serif;letter-spacing:0px;word-spacing:0px;fill:#000000;fill-opacity:1;stroke:none;stroke-width:1px;stroke-linecap:butt;stroke-linejoin:miter;stroke-opacity:1"
       x="407.83115"
       y="107.86065"
       id="text3511-4"
       sodipodi:linespacing="125%"
       transform="scale(0.92984815,1.0754444)"><tspan
         sodipodi:role="line"
         id="tspan3513-4"
         x="407.83115"
         y="107.86065"
         style="font-style:normal;font-variant:normal;font-weight:bold;font-stretch:normal;font-family:sans-serif;-inkscape-font-specification:'sans-serif Bold'">Espa単a</tspan></text>
    <path
       style="display:inline;fill:#000000;stroke:#000000;stroke-width:1"
       d="m 158.97821,95.794635 c 9.22108,-2.39473 15.20133,-9.98907 15.20133,-19.3043 0,-9.02922 -5.58638,-16.53529 -14.26851,-19.17167 -2.32768,-0.70682 -3.44849,-0.80829 -6.95674,-0.62976 -3.44213,0.17516 -4.18201,0.11195 -4.18201,-0.35761 0,-0.31374 -0.77346,-1.3416 -1.71879,-2.28415 -4.24241,-4.22992 -13.42903,-4.10337 -17.97471,0.2476 -2.47953,2.37334 -2.45164,2.56285 0.57653,3.9175 1.484,0.66386 2.7382,1.15767 2.78713,1.09734 0.0489,-0.0604 0.30662,-0.52648 0.57264,-1.03592 1.79021,-3.42844 9.70786,-3.30856 9.70786,0.14698 0,1.22451 -1.64436,3.03539 -12.10613,13.33218 l -8.26002,8.12977 6.10529,0.0134 6.1053,0.0134 0.25948,1.37918 c 0.8358,4.4421 5.715,10.57093 10.23279,12.85352 4.37849,2.21222 9.44844,2.8146 13.91856,1.65371 z m -7.18126,-5.84444 c -2.30543,-0.46388 -3.65313,-1.03489 -5.60859,-2.37632 -1.85489,-1.27244 -4.47208,-4.77586 -4.9005,-6.55988 l -0.26554,-1.10577 6.67694,0 6.67692,0 0.12195,1.9793 0.12194,1.97931 4.13373,-3.01242 c 2.27354,-1.65684 4.1299,-3.13561 4.12519,-3.28615 -0.008,-0.25255 -7.39245,-5.73423 -8.13296,-6.03719 -0.18018,-0.0738 -0.3276,0.6953 -0.3276,1.70894 l 0,1.84296 -6.85594,0 c -7.86482,0 -7.52813,0.21311 -6.01862,-3.80953 1.07821,-2.8733 4.03779,-5.93116 7.11965,-7.35608 3.28945,-1.52089 7.79308,-1.53214 11.04608,-0.0275 3.17903,1.47035 5.37112,3.59891 6.90445,6.70439 1.15792,2.34513 1.31322,3.04686 1.30322,5.88773 -0.009,2.61398 -0.21063,3.65359 -1.06272,5.4851 -2.03878,4.38213 -5.52879,7.1077 -10.19127,7.95899 -2.64502,0.48293 -2.58787,0.48265 -4.86624,0.0242 z"
       id="path3468-3"
       inkscape:connector-curvature="0"
       sodipodi:nodetypes="cssssssscssscccsscccsscccccsccccssssscsscc" />
    <text
       xml:space="preserve"
       style="font-style:normal;font-weight:normal;font-size:6.54799986px;line-height:125%;font-family:sans-serif;letter-spacing:0px;word-spacing:0px;display:inline;fill:#000000;fill-opacity:1;stroke:none;stroke-width:1px;stroke-linecap:butt;stroke-linejoin:miter;stroke-opacity:1"
       x="137.79561"
       y="90.11557"
       id="text3470-6"
       sodipodi:linespacing="125%"
       transform="scale(0.87803674,1.1389045)"><tspan
         sodipodi:role="line"
         id="tspan3472-7"
         x="137.79561"
         y="90.11557"
         style="font-style:normal;font-variant:normal;font-weight:bold;font-stretch:normal;font-family:sans-serif;-inkscape-font-specification:'sans-serif Bold'">Escuelas</tspan></text>
    <text
       xml:space="preserve"
       style="font-style:normal;font-weight:normal;font-size:8.87912178px;line-height:125%;font-family:sans-serif;letter-spacing:0px;word-spacing:0px;display:inline;fill:#000000;fill-opacity:1;stroke:none;stroke-width:1px;stroke-linecap:butt;stroke-linejoin:miter;stroke-opacity:1"
       x="138.45932"
       y="96.330414"
       id="text3470-0-5"
       sodipodi:linespacing="125%"
       transform="scale(0.87224414,1.146468)"><tspan
         sodipodi:role="line"
         id="tspan3472-4-3"
         x="138.45932"
         y="96.330414"
         style="font-style:normal;font-variant:normal;font-weight:bold;font-stretch:normal;font-family:sans-serif;-inkscape-font-specification:'sans-serif Bold'">Oportunidad</tspan></text>
    <text
       xml:space="preserve"
       style="font-style:normal;font-weight:normal;font-size:4.1793189px;line-height:125%;font-family:sans-serif;letter-spacing:0px;word-spacing:0px;display:inline;fill:#000000;fill-opacity:1;stroke:none;stroke-width:1px;stroke-linecap:butt;stroke-linejoin:miter;stroke-opacity:1"
       x="150.75134"
       y="102.31374"
       id="text3511-5"
       sodipodi:linespacing="125%"
       transform="scale(1.0014749,0.99852728)"><tspan
         sodipodi:role="line"
         id="tspan3513-6"
         x="150.75134"
         y="102.31374">de segunda</tspan></text>
    <text
       xml:space="preserve"
       style="font-style:normal;font-weight:normal;font-size:5.03176641px;line-height:125%;font-family:sans-serif;letter-spacing:0px;word-spacing:0px;display:inline;fill:#000000;fill-opacity:1;stroke:none;stroke-width:1px;stroke-linecap:butt;stroke-linejoin:miter;stroke-opacity:1"
       x="168.36632"
       y="107.75574"
       id="text3511-4-2"
       sodipodi:linespacing="125%"
       transform="scale(0.92984816,1.0754444)"><tspan
         sodipodi:role="line"
         id="tspan3513-4-9"
         x="168.36632"
         y="107.75574"
         style="font-style:normal;font-variant:normal;font-weight:bold;font-stretch:normal;font-family:sans-serif;-inkscape-font-specification:'sans-serif Bold'">Espa単a</tspan></text>
    <path
       style="display:inline;fill:#000000;stroke:#000000;stroke-width:1"
       d="m 134.08036,191.34643 c 8.94158,-2.32164 14.74056,-9.68418 14.74056,-18.71507 0,-8.75363 -5.41705,-16.03058 -13.83601,-18.5865 -2.25713,-0.68524 -3.34397,-0.78361 -6.74587,-0.61053 -3.33781,0.16982 -4.05525,0.10851 -4.05525,-0.3467 0,-0.30416 -0.75002,-1.30065 -1.6667,-2.21442 -4.11381,-4.10081 -13.02197,-3.97813 -17.42987,0.24004 -2.40438,2.3009 -2.37733,2.48462 0.55905,3.79793 1.43902,0.64359 2.6552,1.12232 2.70265,1.06384 0.0474,-0.0585 0.29732,-0.51041 0.55528,-1.00431 1.73595,-3.32379 9.4136,-3.20756 9.4136,0.1425 0,1.18714 -1.59452,2.94275 -11.73917,12.92525 l -8.009657,7.88162 5.920227,0.013 5.92025,0.013 0.25162,1.33709 c 0.81046,4.30651 5.54176,10.24827 9.92262,12.46119 4.24577,2.1447 9.16205,2.72869 13.49667,1.60324 z m -6.96359,-5.66605 c -2.23554,-0.44972 -3.54239,-1.00331 -5.43859,-2.30378 -1.79866,-1.23361 -4.33652,-4.6301 -4.75195,-6.35966 l -0.25749,-1.07201 6.47455,0 6.47453,0 0.1183,1.91888 0.1183,1.91889 4.00844,-2.92046 c 2.20462,-1.60628 4.0047,-3.03991 4.00015,-3.18586 -0.007,-0.24484 -7.16838,-5.5592 -7.88644,-5.85291 -0.17472,-0.0716 -0.31768,0.67407 -0.31768,1.65678 l 0,1.78671 -6.64812,0 c -7.62643,0 -7.29995,0.2066 -5.8362,-3.69326 1.04553,-2.7856 3.91541,-5.75012 6.90385,-7.13154 3.18974,-1.47447 7.55686,-1.48537 10.71126,-0.0267 3.08268,1.42547 5.20832,3.48907 6.69517,6.49975 1.12282,2.27356 1.27341,2.95387 1.26372,5.70802 -0.009,2.5342 -0.20426,3.54207 -1.03052,5.31768 -1.97697,4.24837 -5.3612,6.89075 -9.88236,7.71605 -2.56484,0.4682 -2.50942,0.46793 -4.71873,0.0235 z"
       id="path3468-3-1"
       inkscape:connector-curvature="0"
       sodipodi:nodetypes="cssssssscssscccsscccsscccccsccccssssscsscc" />
    <text
       xml:space="preserve"
       style="font-style:normal;font-weight:normal;font-size:6.34882832px;line-height:125%;font-family:sans-serif;letter-spacing:0px;word-spacing:0px;display:inline;fill:#000000;fill-opacity:1;stroke:none;stroke-width:1px;stroke-linecap:butt;stroke-linejoin:miter;stroke-opacity:1"
       x="110.73864"
       y="173.84933"
       id="text3470-6-2"
       sodipodi:linespacing="125%"
       transform="scale(0.87813276,1.13878)"><tspan
         sodipodi:role="line"
         id="tspan3472-7-7"
         x="110.73864"
         y="173.84933"
         style="font-style:normal;font-variant:normal;font-weight:bold;font-stretch:normal;font-family:sans-serif;-inkscape-font-specification:'sans-serif Bold'">Escuelas</tspan></text>
    <text
       xml:space="preserve"
       style="font-style:normal;font-weight:normal;font-size:8.60904408px;line-height:125%;font-family:sans-serif;letter-spacing:0px;word-spacing:0px;display:inline;fill:#000000;fill-opacity:1;stroke:none;stroke-width:1px;stroke-linecap:butt;stroke-linejoin:miter;stroke-opacity:1"
       x="111.23032"
       y="179.30461"
       id="text3470-0-5-0"
       sodipodi:linespacing="125%"
       transform="scale(0.87233954,1.1463426)"><tspan
         sodipodi:role="line"
         id="tspan3472-4-3-9"
         x="111.23032"
         y="179.30461"
         style="font-style:normal;font-variant:normal;font-weight:bold;font-stretch:normal;font-family:sans-serif;-inkscape-font-specification:'sans-serif Bold'">Oportunidad</tspan></text>
    <text
       xml:space="preserve"
       style="font-style:normal;font-weight:normal;font-size:4.05219555px;line-height:125%;font-family:sans-serif;letter-spacing:0px;word-spacing:0px;display:inline;fill:#000000;fill-opacity:1;stroke:none;stroke-width:1px;stroke-linecap:butt;stroke-linejoin:miter;stroke-opacity:1"
       x="126.11864"
       y="197.83345"
       id="text3511-5-3"
       sodipodi:linespacing="125%"
       transform="scale(1.0015845,0.99841803)"><tspan
         sodipodi:role="line"
         id="tspan3513-6-6"
         x="126.11864"
         y="197.83345">de segunda</tspan></text>
    <text
       xml:space="preserve"
       style="font-style:normal;font-weight:normal;font-size:4.87871456px;line-height:125%;font-family:sans-serif;letter-spacing:0px;word-spacing:0px;display:inline;fill:#000000;fill-opacity:1;stroke:none;stroke-width:1px;stroke-linecap:butt;stroke-linejoin:miter;stroke-opacity:1"
       x="141.65355"
       y="196.05562"
       id="text3511-4-2-0"
       sodipodi:linespacing="125%"
       transform="scale(0.92994989,1.0753268)"><tspan
         sodipodi:role="line"
         id="tspan3513-4-9-6"
         x="141.65355"
         y="196.05562"
         style="font-style:normal;font-variant:normal;font-weight:bold;font-stretch:normal;font-family:sans-serif;-inkscape-font-specification:'sans-serif Bold'">Espa単a</tspan></text>
    <path
       style="display:inline;fill:#000000;stroke:#000000;stroke-width:1"
       d="m 407.23115,191.34643 c 8.94158,-2.32164 14.74056,-9.68418 14.74056,-18.71507 0,-8.75363 -5.41705,-16.03058 -13.83601,-18.5865 -2.25713,-0.68524 -3.34397,-0.78361 -6.74587,-0.61053 -3.33781,0.16982 -4.05525,0.10851 -4.05525,-0.3467 0,-0.30416 -0.75002,-1.30065 -1.6667,-2.21442 -4.11381,-4.10081 -13.02197,-3.97813 -17.42987,0.24004 -2.40438,2.3009 -2.37733,2.48462 0.55905,3.79793 1.43902,0.64359 2.6552,1.12232 2.70265,1.06384 0.0474,-0.0585 0.29732,-0.51041 0.55528,-1.00431 1.73595,-3.32379 9.4136,-3.20756 9.4136,0.1425 0,1.18714 -1.59452,2.94275 -11.73917,12.92525 l -8.00966,7.88162 5.92023,0.013 5.92025,0.013 0.25162,1.33709 c 0.81046,4.30651 5.54176,10.24827 9.92262,12.46119 4.24577,2.1447 9.16205,2.72869 13.49667,1.60324 z m -6.96359,-5.66605 c -2.23554,-0.44972 -3.54239,-1.00331 -5.43859,-2.30378 -1.79866,-1.23361 -4.33652,-4.6301 -4.75195,-6.35966 l -0.25749,-1.07201 6.47455,0 6.47453,0 0.1183,1.91888 0.1183,1.91889 4.00844,-2.92046 c 2.20462,-1.60628 4.0047,-3.03991 4.00015,-3.18586 -0.007,-0.24484 -7.16838,-5.5592 -7.88644,-5.85291 -0.17472,-0.0716 -0.31768,0.67407 -0.31768,1.65678 l 0,1.78671 -6.64812,0 c -7.62643,0 -7.29995,0.2066 -5.8362,-3.69326 1.04553,-2.7856 3.91541,-5.75012 6.90385,-7.13154 3.18974,-1.47447 7.55686,-1.48537 10.71126,-0.0267 3.08268,1.42547 5.20832,3.48907 6.69517,6.49975 1.12282,2.27356 1.27341,2.95387 1.26372,5.70802 -0.009,2.5342 -0.20426,3.54207 -1.03052,5.31768 -1.97697,4.24837 -5.3612,6.89075 -9.88236,7.71605 -2.56484,0.4682 -2.50942,0.46793 -4.71873,0.0235 z"
       id="path3468-3-1-2"
       inkscape:connector-curvature="0"
       sodipodi:nodetypes="cssssssscssscccsscccsscccccsccccssssscsscc" />
    <text
       xml:space="preserve"
       style="font-style:normal;font-weight:normal;font-size:6.34882832px;line-height:125%;font-family:sans-serif;letter-spacing:0px;word-spacing:0px;display:inline;fill:#000000;fill-opacity:1;stroke:none;stroke-width:1px;stroke-linecap:butt;stroke-linejoin:miter;stroke-opacity:1"
       x="421.7973"
       y="173.84933"
       id="text3470-6-2-6"
       sodipodi:linespacing="125%"
       transform="scale(0.87813274,1.13878)"><tspan
         sodipodi:role="line"
         id="tspan3472-7-7-1"
         x="421.7973"
         y="173.84933"
         style="font-style:normal;font-variant:normal;font-weight:bold;font-stretch:normal;font-family:sans-serif;-inkscape-font-specification:'sans-serif Bold'">Escuelas</tspan></text>
    <text
       xml:space="preserve"
       style="font-style:normal;font-weight:normal;font-size:8.60904408px;line-height:125%;font-family:sans-serif;letter-spacing:0px;word-spacing:0px;display:inline;fill:#000000;fill-opacity:1;stroke:none;stroke-width:1px;stroke-linecap:butt;stroke-linejoin:miter;stroke-opacity:1"
       x="424.35471"
       y="179.30461"
       id="text3470-0-5-0-8"
       sodipodi:linespacing="125%"
       transform="scale(0.87233956,1.1463426)"><tspan
         sodipodi:role="line"
         id="tspan3472-4-3-9-7"
         x="424.35471"
         y="179.30461"
         style="font-style:normal;font-variant:normal;font-weight:bold;font-stretch:normal;font-family:sans-serif;-inkscape-font-specification:'sans-serif Bold'">Oportunidad</tspan></text>
    <text
       xml:space="preserve"
       style="font-style:normal;font-weight:normal;font-size:4.05219555px;line-height:125%;font-family:sans-serif;letter-spacing:0px;word-spacing:0px;display:inline;fill:#000000;fill-opacity:1;stroke:none;stroke-width:1px;stroke-linecap:butt;stroke-linejoin:miter;stroke-opacity:1"
       x="398.83731"
       y="197.83345"
       id="text3511-5-3-9"
       sodipodi:linespacing="125%"
       transform="scale(1.0015845,0.99841801)"><tspan
         sodipodi:role="line"
         id="tspan3513-6-6-2"
         x="398.83731"
         y="197.83345">de segunda</tspan></text>
    <text
       xml:space="preserve"
       style="font-style:normal;font-weight:normal;font-size:4.87871456px;line-height:125%;font-family:sans-serif;letter-spacing:0px;word-spacing:0px;display:inline;fill:#000000;fill-opacity:1;stroke:none;stroke-width:1px;stroke-linecap:butt;stroke-linejoin:miter;stroke-opacity:1"
       x="435.37991"
       y="196.05562"
       id="text3511-4-2-0-0"
       sodipodi:linespacing="125%"
       transform="scale(0.92994986,1.0753268)"><tspan
         sodipodi:role="line"
         id="tspan3513-4-9-6-2"
         x="435.37991"
         y="196.05562"
         style="font-style:normal;font-variant:normal;font-weight:bold;font-stretch:normal;font-family:sans-serif;-inkscape-font-specification:'sans-serif Bold'">Espa単a</tspan></text>
  </g>
  <g
     inkscape:groupmode="layer"
     id="layer2"
     inkscape:label="Interior"
     style="display:inline">
    <path
       style="fill:none;fill-rule:evenodd;stroke:#ff0000;stroke-width:1.24015737;stroke-miterlimit:4;stroke-dasharray:none"
       d="m 37.073875,118.5539 0,-70.866145 219.685025,0 0,31.548925 m -219.685025,39.31722 35.433068,0 0,-35.433074 21.259841,0 0,35.433074 106.299206,0 0,-35.433074 21.25984,0 0,35.433074 35.43307,0 0,-36.407084"
       id="Sketch001_w0000"
       inkscape:connector-curvature="0"
       sodipodi:nodetypes="ccccccccccccccc" />
    <path
       style="fill:none;fill-rule:evenodd;stroke:#ff0000;stroke-width:1.24015737;stroke-miterlimit:4;stroke-dasharray:none"
       d="m 72.506943,143.35705 -35.433068,0 0,70.86614 212.598405,0 0,-29.7057 m -177.165337,-41.16044 0,35.43307 21.259841,0 0,-35.43307 56.692906,0 14.24139,53.1496 31.88977,0 -14.2414,-53.1496 28.34646,0 0,35.43307 21.25984,0 0,-35.43307 17.71653,0 0,37.42476"
       id="Sketch_w0000"
       inkscape:connector-curvature="0"
       sodipodi:nodetypes="ccccccccccccccccccc" />
    <path
       style="fill:none;fill-rule:evenodd;stroke:#ff0000;stroke-width:1.24015737;stroke-miterlimit:4;stroke-dasharray:none"
       d="m 267.8643,79.128857 0,-30.578842 219.68502,0 0,70.866145 -35.43307,0 0,-35.433074 -21.25984,0 0,35.433074 -106.2992,0 0,-35.433074 -21.25984,0 0,35.433074 -35.43307,0 0,-37.269343"
       id="Sketch001_w0000-7"
       inkscape:connector-curvature="0"
       sodipodi:nodetypes="cccccccccccc" />
    <path
       style="fill:none;fill-rule:evenodd;stroke:#ff0000;stroke-width:1.24015737;stroke-miterlimit:4;stroke-dasharray:none"
       d="m 449.29763,144.21931 35.43307,0 0,36.44099 m -35.43307,-36.44099 0,35.43307 -21.25984,0 0,-35.43307 -56.69291,0 -14.24139,53.1496 -31.88976,0 14.24139,-53.1496 -28.34645,0 0,35.43307 -21.25984,0 0,-35.43307 -17.71654,0 0,70.86614 212.59841,0 0,-30.7518"
       id="Sketch_w0000-5"
       inkscape:connector-curvature="0"
       sodipodi:nodetypes="ccccccccccccccccc" />
  </g>
  <g
     inkscape:groupmode="layer"
     id="layer1"
     inkscape:label="Borde-tarjeta"
     style="display:inline">
    <rect
       style="opacity:1;fill:none;fill-opacity:0;stroke:#ff0000;stroke-width:0.99999994;stroke-linecap:round;stroke-linejoin:round;stroke-miterlimit:4;stroke-dasharray:none;stroke-dashoffset:0;stroke-opacity:1"
       id="rect4261"
       width="496.30518"
       height="207.49844"
       x="18.291348"
       y="29.00514"
       ry="0" />
  </g>
</svg>
