<?xml version="1.0" encoding="UTF-8" standalone="no"?>
<!-- Created with Inkscape (http://www.inkscape.org/) -->

<svg
   xmlns:dc="http://purl.org/dc/elements/1.1/"
   xmlns:cc="http://creativecommons.org/ns#"
   xmlns:rdf="http://www.w3.org/1999/02/22-rdf-syntax-ns#"
   xmlns:svg="http://www.w3.org/2000/svg"
   xmlns="http://www.w3.org/2000/svg"
   xmlns:sodipodi="http://sodipodi.sourceforge.net/DTD/sodipodi-0.dtd"
   xmlns:inkscape="http://www.inkscape.org/namespaces/inkscape"
   width="210mm"
   height="297mm"
   viewBox="0 0 744.09448819 1052.3622047"
   id="svg2"
   version="1.1"
   inkscape:version="0.91 r13725"
   sodipodi:docname="ici-vader.svg">
  <defs
     id="defs4">
    <clipPath
       id="clipPath4152"
       clipPathUnits="userSpaceOnUse">
      <path
         inkscape:connector-curvature="0"
         id="path4154"
         d="m 230,420 5560,0 0,8140 -5560,0 0,-8140 z" />
    </clipPath>
  </defs>
  <sodipodi:namedview
     id="base"
     pagecolor="#ffffff"
     bordercolor="#666666"
     borderopacity="1.0"
     inkscape:pageopacity="0.0"
     inkscape:pageshadow="2"
     inkscape:zoom="0.7"
     inkscape:cx="193.62961"
     inkscape:cy="500.9095"
     inkscape:document-units="px"
     inkscape:current-layer="layer1"
     showgrid="false"
     inkscape:window-width="1855"
     inkscape:window-height="1056"
     inkscape:window-x="69"
     inkscape:window-y="1048"
     inkscape:window-maximized="1" />
  <metadata
     id="metadata7">
    <rdf:RDF>
      <cc:Work
         rdf:about="">
        <dc:format>image/svg+xml</dc:format>
        <dc:type
           rdf:resource="http://purl.org/dc/dcmitype/StillImage" />
        <dc:title></dc:title>
      </cc:Work>
    </rdf:RDF>
  </metadata>
  <g
     inkscape:label="Layer 1"
     inkscape:groupmode="layer"
     id="layer1">
    <path
       inkscape:connector-curvature="0"
       id="path4158"
       style="fill:none;stroke:#ff0000;stroke-width:2.00262499;stroke-linecap:butt;stroke-linejoin:miter;stroke-miterlimit:4;stroke-dasharray:none;stroke-opacity:1"
       d="m 183.54786,556.72806 0,-32.38775 -26.035,0 c -32.8375,0 -87.94,-5.97113 -92.04125,-9.975 -4.135,-4.0435 5.67875,-90.38125 15.83,-139.23875 13.775,-66.30375 31.5775,-111.1475 53.07625,-133.72625 17.74375,-18.6275 29.32625,-22.47 66.1725,-21.9525 19.10625,0.26875 31.57625,-0.83 31.57625,-2.77875 0,-1.86 -10.625,-3.24625 -25.0975,-3.27625 -13.80875,-0.0288 -26.9775,-1.24 -29.2675,-2.695 -4.10625,-2.6025 1.5975,-20.4 21.93875,-68.50125 3.38875,-8.0175 6.72875,-22.9875 7.42125,-33.26625 1.68,-24.917497 11.71,-35.678747 41.52375,-44.556247 18.69125,-5.56625 24.0625,-5.95125 39.00875,-2.7825 37.55375,7.96375 51.31375,21.47875 51.3775,50.487497 0.0288,10.7525 4.975,28.4725 16.06375,57.505 8.81375,23.07625 15.3375,42.65125 14.4925,43.49125 -0.84,0.845 -13.89625,2.1825 -29.01375,2.97375 -15.5325,0.81625 -27.485,2.87625 -27.485,4.74125 0,2.095 9.14,2.68125 25.0975,1.61625 46.66,-3.115 70.23,9.585 90.87875,48.97 23.18875,44.22875 44.32625,136.1475 50.80125,220.9325 l 2.13375,27.88625 -12.45625,1.99125 c -6.84625,1.09375 -33.19375,2.979 -58.545,4.18987 l -46.09375,2.20263 0,60.53125 -87.44125,0 0,-30.766 c 0,-18.35013 -1.30375,-30.76663 -3.2375,-30.76663 -1.93375,0 -3.2375,12.4165 -3.2375,30.76663 l 0,30.766 -87.44125,0 0,-32.38225 z" />
  </g>
</svg>
