<?xml version="1.0" encoding="UTF-8" standalone="no"?>
<!-- Created with Inkscape (http://www.inkscape.org/) -->

<svg
   xmlns:dc="http://purl.org/dc/elements/1.1/"
   xmlns:cc="http://creativecommons.org/ns#"
   xmlns:rdf="http://www.w3.org/1999/02/22-rdf-syntax-ns#"
   xmlns:svg="http://www.w3.org/2000/svg"
   xmlns="http://www.w3.org/2000/svg"
   xmlns:sodipodi="http://sodipodi.sourceforge.net/DTD/sodipodi-0.dtd"
   xmlns:inkscape="http://www.inkscape.org/namespaces/inkscape"
   width="457mm"
   height="305mm"
   viewBox="0 0 1619.2913 1080.7087"
   id="svg2"
   version="1.1"
   inkscape:version="0.91 r13725"
   sodipodi:docname="ICI.svg">
  <defs
     id="defs4" />
  <sodipodi:namedview
     id="base"
     pagecolor="#ffffff"
     bordercolor="#666666"
     borderopacity="1.0"
     inkscape:pageopacity="0.0"
     inkscape:pageshadow="2"
     inkscape:zoom="0.35355339"
     inkscape:cx="298.58499"
     inkscape:cy="393.29204"
     inkscape:document-units="px"
     inkscape:current-layer="layer6"
     showgrid="false"
     inkscape:window-width="1215"
     inkscape:window-height="1000"
     inkscape:window-x="65"
     inkscape:window-y="24"
     inkscape:window-maximized="1"
     inkscape:snap-global="false" />
  <metadata
     id="metadata7">
    <rdf:RDF>
      <cc:Work
         rdf:about="">
        <dc:format>image/svg+xml</dc:format>
        <dc:type
           rdf:resource="http://purl.org/dc/dcmitype/StillImage" />
        <dc:title />
      </cc:Work>
    </rdf:RDF>
  </metadata>
  <g
     inkscape:groupmode="layer"
     id="layer5"
     inkscape:label="Vader"
     style="display:none"
     sodipodi:insensitive="true">
    <path
       style="display:inline;fill:none;stroke:#ff0000;stroke-width:2.00262737"
       d="m 689.39013,603.39703 -32.3853,0 0,26.03597 c 0,32.83809 -5.97336,87.94078 -9.97729,92.03776 -4.04384,4.13783 -90.3801,-5.67585 -139.23706,-15.82677 -66.30275,-13.77567 -111.14913,-31.57602 -133.72427,-53.07763 -18.62948,-17.74389 -22.47166,-29.32488 -21.95324,-66.17144 0.26879,-19.10466 -0.82975,-31.57582 -2.78137,-31.57582 -1.86006,0 -3.2466,10.62554 -3.2752,25.09873 -0.0272,13.80411 -1.23967,26.97419 -2.69419,29.2668 -2.60342,4.10319 -20.40019,-1.5965 -68.50388,-21.93919 -8.01537,-3.38965 -22.98533,-6.72963 -33.26659,-7.42254 -24.91543,-1.6788 -35.67596,-11.70756 -44.55627,-41.52588 -5.5653,-18.68729 -5.94794,-24.05854 -2.77892,-39.00795 7.9609,-37.55471 21.4773,-51.31016 50.48456,-51.37745 10.75342,-0.026 28.47583,-4.97513 57.50539,-16.06208 23.07886,-8.81437 42.65086,-15.33672 43.49335,-14.49422 0.84248,0.84251 2.18092,13.89964 2.97434,29.01608 0.81531,15.53378 2.87535,27.48446 4.73773,27.48446 2.09533,0 2.68461,-9.13879 1.61835,-25.09853 -3.11721,-46.65822 9.58307,-70.22674 48.97142,-90.87884 44.2287,-23.19002 136.14419,-44.32535 220.93316,-50.80205 l 27.88276,-2.12979 1.99127,12.45274 c 1.09522,6.84898 2.98143,33.19495 4.19164,58.54641 l 2.20035,46.09367 30.26728,0 30.26727,0 0,43.72017 0,43.7202 -30.76603,0 c -18.35167,0 -30.76603,1.30671 -30.76603,3.23844 0,1.93174 12.41436,3.23865 30.76603,3.23865 l 30.76603,0 0,43.71994 0,43.72016 z"
       id="path4199"
       inkscape:connector-curvature="0"
       sodipodi:nodetypes="ccssssssscscsscssssssscsscccccssscccc" />
    <path
       sodipodi:nodetypes="ccssssssscscsscssssssscsscccccssscccc"
       inkscape:connector-curvature="0"
       id="path4296"
       d="m 62.667235,131.92371 32.3853,0 0,-26.03597 c 0,-32.838086 5.973355,-87.940776 9.977285,-92.037756 4.04384,-4.1378305 90.3801,5.67585 139.23706,15.82677 66.30275,13.77567 111.14913,31.57602 133.72427,53.07763 18.62948,17.743886 22.47166,29.324876 21.95324,66.171436 -0.26879,19.10466 0.82975,31.57582 2.78137,31.57582 1.86006,0 3.2466,-10.62554 3.2752,-25.09873 0.0272,-13.80411 1.23967,-26.97419 2.69419,-29.2668 2.60342,-4.10319 20.40019,1.5965 68.50388,21.93919 8.01537,3.38965 22.98533,6.72963 33.26659,7.42254 24.91543,1.6788 35.67595,11.70756 44.55626,41.52588 5.5653,18.68729 5.94794,24.05854 2.77892,39.00795 -7.9609,37.55471 -21.47729,51.31016 -50.48455,51.37745 -10.75342,0.026 -28.47583,4.97513 -57.50539,16.06208 -23.07886,8.81437 -42.65086,15.33672 -43.49335,14.49422 -0.84248,-0.84251 -2.18092,-13.89964 -2.97434,-29.01608 -0.81531,-15.53378 -2.87535,-27.48446 -4.73773,-27.48446 -2.09533,0 -2.68461,9.13879 -1.61835,25.09853 3.11721,46.65822 -9.58307,70.22674 -48.97142,90.87884 -44.2287,23.19002 -136.14419,44.32535 -220.93316,50.80205 l -27.882755,2.12979 -1.99127,-12.45274 c -1.09522,-6.84898 -2.98143,-33.19495 -4.19164,-58.54641 l -2.20035,-46.09367 -30.26728,0 -30.26727,0 0,-43.72017 0,-43.7202 30.76603,0 c 18.35167,0 30.76603,-1.30671 30.76603,-3.23844 0,-1.93174 -12.41436,-3.23865 -30.76603,-3.23865 l -30.76603,0 0,-43.71994 0,-43.72016 z"
       style="display:inline;fill:none;stroke:#ff0000;stroke-width:2.00262737" />
    <path
       style="display:inline;fill:none;stroke:#ff0000;stroke-width:2.00262737"
       d="m 70.667236,727.92378 32.385304,0 0,-26.03597 c 0,-32.83809 5.97336,-87.94078 9.97729,-92.03776 4.04384,-4.13783 90.3801,5.67585 139.23706,15.82677 66.30275,13.77567 111.14913,31.57602 133.72427,53.07763 18.62948,17.74389 22.47166,29.32488 21.95324,66.17144 -0.26879,19.10466 0.82975,31.57582 2.78137,31.57582 1.86006,0 3.2466,-10.62554 3.2752,-25.09873 0.0272,-13.80411 1.23967,-26.97419 2.69419,-29.2668 2.60342,-4.10319 20.40019,1.5965 68.50388,21.93919 8.01537,3.38965 22.98533,6.72963 33.26659,7.42254 24.91543,1.6788 35.67595,11.70756 44.55626,41.52588 5.5653,18.68729 5.94794,24.05854 2.77892,39.00795 -7.9609,37.55471 -21.47729,51.31016 -50.48455,51.37745 -10.75342,0.026 -28.47583,4.97513 -57.50539,16.06208 -23.07886,8.81437 -42.65086,15.33672 -43.49335,14.49422 -0.84248,-0.84251 -2.18092,-13.89964 -2.97434,-29.01608 -0.81531,-15.53378 -2.87535,-27.48446 -4.73773,-27.48446 -2.09533,0 -2.68461,9.13879 -1.61835,25.09853 3.11721,46.65822 -9.58307,70.22674 -48.97142,90.87884 -44.2287,23.18998 -136.14419,44.32538 -220.93316,50.80208 l -27.88276,2.1298 -1.99127,-12.4528 c -1.09522,-6.849 -2.98143,-33.19493 -4.19164,-58.54639 l -2.200354,-46.09367 -30.26728,0 -30.26727,0 0,-43.72017 0,-43.7202 30.76603,0 c 18.35167,0 30.76603,-1.30671 30.76603,-3.23844 0,-1.93174 -12.41436,-3.23865 -30.76603,-3.23865 l -30.76603,0 0,-43.71994 0,-43.72016 z"
       id="path4298"
       inkscape:connector-curvature="0"
       sodipodi:nodetypes="ccssssssscscsscssssssscsscccccssscccc" />
    <path
       sodipodi:nodetypes="ccssssssscscsscssssssscsscccccssscccc"
       inkscape:connector-curvature="0"
       id="path4300"
       d="m 1443.3902,603.39703 -32.3853,0 0,26.03597 c 0,32.83809 -5.9734,87.94078 -9.9773,92.03776 -4.0439,4.13783 -90.3801,-5.67585 -139.2371,-15.82677 -66.3027,-13.77567 -111.1491,-31.57602 -133.7242,-53.07763 -18.6295,-17.74389 -22.4717,-29.32488 -21.9533,-66.17144 0.2688,-19.10466 -0.8297,-31.57582 -2.7814,-31.57582 -1.86,0 -3.2466,10.62554 -3.2752,25.09873 -0.027,13.80411 -1.2396,26.97419 -2.6941,29.2668 -2.6035,4.10319 -20.4002,-1.5965 -68.5039,-21.93919 -8.0154,-3.38965 -22.9854,-6.72963 -33.26662,-7.42254 -24.91543,-1.6788 -35.67596,-11.70756 -44.55627,-41.52588 -5.5653,-18.68729 -5.94794,-24.05854 -2.77892,-39.00795 7.9609,-37.55471 21.4773,-51.31016 50.48456,-51.37745 10.75345,-0.026 28.47585,-4.97513 57.50535,-16.06208 23.0789,-8.81437 42.6509,-15.33672 43.4934,-14.49422 0.8425,0.84251 2.1809,13.89964 2.9743,29.01608 0.8153,15.53378 2.8754,27.48446 4.7378,27.48446 2.0953,0 2.6846,-9.13879 1.6183,-25.09853 -3.1172,-46.65822 9.5831,-70.22674 48.9714,-90.87884 44.2287,-23.19002 136.1442,-44.32535 220.9332,-50.80205 l 27.8828,-2.12979 1.9912,12.45274 c 1.0952,6.84898 2.9815,33.19495 4.1917,58.54641 l 2.2003,46.09367 30.2673,0 30.2673,0 0,43.72017 0,43.7202 -30.7661,0 c -18.3516,0 -30.766,1.30671 -30.766,3.23844 0,1.93174 12.4144,3.23865 30.766,3.23865 l 30.7661,0 0,43.71994 0,43.72016 z"
       style="display:inline;fill:none;stroke:#ff0000;stroke-width:2.00262737" />
    <path
       style="display:inline;fill:none;stroke:#ff0000;stroke-width:2.00262737"
       d="m 816.66728,131.92371 32.3853,0 0,-26.03597 c 0,-32.838086 5.97335,-87.940776 9.97728,-92.037756 4.04384,-4.1378305 90.3801,5.67585 139.23706,15.82677 66.30278,13.77567 111.14918,31.57602 133.72428,53.07763 18.6295,17.743886 22.4717,29.324876 21.9532,66.171436 -0.2688,19.10466 0.8298,31.57582 2.7814,31.57582 1.8601,0 3.2466,-10.62554 3.2752,-25.09873 0.027,-13.80411 1.2397,-26.97419 2.6942,-29.2668 2.6034,-4.10319 20.4002,1.5965 68.5039,21.93919 8.0153,3.38965 22.9853,6.72963 33.2666,7.42254 24.9154,1.6788 35.6759,11.70756 44.5562,41.52588 5.5653,18.68729 5.948,24.05854 2.7789,39.00795 -7.9609,37.55471 -21.4772,51.31016 -50.4845,51.37745 -10.7534,0.026 -28.4758,4.97513 -57.5054,16.06208 -23.0789,8.81437 -42.6509,15.33672 -43.4933,14.49422 -0.8425,-0.84251 -2.181,-13.89964 -2.9744,-29.01608 -0.8153,-15.53378 -2.8753,-27.48446 -4.7377,-27.48446 -2.0953,0 -2.6846,9.13879 -1.6184,25.09853 3.1172,46.65822 -9.583,70.22674 -48.9714,90.87884 -44.2287,23.19002 -136.14418,44.32535 -220.93315,50.80205 l -27.88275,2.12979 -1.99127,-12.45274 c -1.09522,-6.84898 -2.98143,-33.19495 -4.19164,-58.54641 l -2.20035,-46.09367 -30.26728,0 -30.26727,0 0,-43.72017 0,-43.7202 30.76603,0 c 18.35167,0 30.76603,-1.30671 30.76603,-3.23844 0,-1.93174 -12.41436,-3.23865 -30.76603,-3.23865 l -30.76603,0 0,-43.71994 0,-43.72016 z"
       id="path4302"
       inkscape:connector-curvature="0"
       sodipodi:nodetypes="ccssssssscscsscssssssscsscccccssscccc" />
    <path
       sodipodi:nodetypes="ccssssssscscsscssssssscsscccccssscccc"
       inkscape:connector-curvature="0"
       id="path4304"
       d="m 824.66728,727.92378 32.3853,0 0,-26.03597 c 0,-32.83809 5.97336,-87.94078 9.97729,-92.03776 4.04384,-4.13783 90.3801,5.67585 139.23703,15.82677 66.3028,13.77567 111.1492,31.57602 133.7243,53.07763 18.6295,17.74389 22.4717,29.32488 21.9532,66.17144 -0.2687,19.10466 0.8298,31.57582 2.7814,31.57582 1.8601,0 3.2466,-10.62554 3.2752,-25.09873 0.027,-13.80411 1.2397,-26.97419 2.6942,-29.2668 2.6034,-4.10319 20.4002,1.5965 68.5039,21.93919 8.0154,3.38965 22.9853,6.72963 33.2666,7.42254 24.9154,1.6788 35.6759,11.70756 44.5562,41.52588 5.5653,18.68729 5.948,24.05854 2.779,39.00795 -7.9609,37.55471 -21.4773,51.31016 -50.4846,51.37745 -10.7534,0.026 -28.4758,4.97513 -57.5054,16.06208 -23.0788,8.81437 -42.6508,15.33672 -43.4933,14.49422 -0.8425,-0.84251 -2.181,-13.89964 -2.9744,-29.01608 -0.8153,-15.53378 -2.8753,-27.48446 -4.7377,-27.48446 -2.0953,0 -2.6846,9.13879 -1.6184,25.09853 3.1173,46.65822 -9.583,70.22674 -48.9714,90.87884 -44.2287,23.18998 -136.14417,44.32538 -220.93314,50.80208 l -27.88276,2.1298 -1.99127,-12.4528 c -1.09522,-6.849 -2.98143,-33.19493 -4.19164,-58.54639 l -2.20035,-46.09367 -30.26728,0 -30.26727,0 0,-43.72017 0,-43.7202 30.76603,0 c 18.35167,0 30.76603,-1.30671 30.76603,-3.23844 0,-1.93174 -12.41436,-3.23865 -30.76603,-3.23865 l -30.76603,0 0,-43.71994 0,-43.72016 z"
       style="display:inline;fill:none;stroke:#ff0000;stroke-width:2.00262737" />
  </g>
  <g
     inkscape:groupmode="layer"
     id="layer6"
     inkscape:label="Soldado"
     style="display:inline">
    <path
       inkscape:connector-curvature="0"
       id="path4197"
       d="m 26.137791,69.242091 c 11.423628,0.03536 52.618231,1.40607 91.543399,3.046185 61.48204,2.590552 71.2215,2.380113 74.1893,-1.602877 1.87901,-2.521693 5.68689,-4.584897 8.46212,-4.584897 7.40758,0 6.14926,-5.148297 -1.76428,-7.217941 -3.95096,-1.033263 -8.89728,0.108093 -11.78135,2.718483 -10.34684,9.364455 -39.8735,2.312401 -39.8735,-9.523252 0,-5.397906 4.09825,-5.583469 17.36341,-0.786323 8.72337,3.154717 10.96543,2.878713 16.37318,-2.015638 12.28047,-11.114722 6.24784,-26.221683 -10.50458,-26.305794 -5.16171,-0.02455 -11.46207,-1.437071 -14.00059,-3.135879 -3.99512,-2.673455 -3.81263,-3.701482 1.35726,-7.646317 10.2226,-7.8001184 22.49069,-5.6005237 34.65375,6.213242 11.6805,11.34502 16.04686,12.86982 21.43177,7.484336 2.33017,-2.330369 8.99928,-2.286828 22.92434,0.149954 28.49059,4.985079 38.80299,8.774079 61.17894,22.478338 24.22927,14.839348 33.84809,24.69563 33.84809,34.684226 0,4.136868 1.45336,7.521692 3.22981,7.521692 5.61174,0 21.38688,-9.253684 21.38688,-12.545586 0,-1.735463 4.878,-5.193728 10.84004,-7.685087 11.28549,-4.715785 18.19417,-3.126343 25.69404,5.911276 2.78646,3.357924 8.16529,4.077628 21.46242,2.87179 13.79147,-1.250681 18.8512,-0.501838 22.71445,3.36189 2.73393,2.734063 11.94518,6.466969 20.46972,8.295288 32.16148,6.898059 41.78944,22.09338 41.78944,65.95416 0,44.81844 -7.31721,56.05962 -42.91647,65.93192 -11.46816,3.18039 -21.90881,7.49355 -23.20119,9.58484 -1.58293,2.5616 -7.48065,3.30923 -18.07429,2.29121 -13.19551,-1.26805 -17.33067,-0.32456 -25.7123,5.86669 -11.21034,8.28088 -21.11573,7.5465 -31.72573,-2.35214 -3.49391,-3.25967 -8.2313,-5.92667 -10.52741,-5.92667 -2.29629,0 -6.70736,-2.29183 -9.80226,-5.09304 -5.31965,-4.81455 -5.62715,-4.63868 -5.62715,3.21729 0,11.32272 -9.41732,19.87095 -40.10981,36.4086 -19.02037,10.24851 -32.91309,15.26475 -51.49486,18.59348 -13.99584,2.50719 -26.19353,3.35044 -27.10611,1.87388 -3.20203,-5.18154 -13.50966,-2.61231 -18.19207,4.53446 -8.95342,13.66611 -25.97032,17.82321 -38.12006,9.31243 -8.60674,-6.02896 -4.23201,-10.25583 10.69087,-10.32969 9.95144,-0.0493 19.70879,-7.955 19.70879,-15.96873 0,-2.56637 -2.721,-7.12872 -6.04652,-10.13854 -5.8608,-5.30452 -9.8839,-5.30262 -27.03228,0.0114 -9.00594,2.79154 -9.3766,-4.62975 -0.62678,-12.54891 7.44412,-6.73757 25.52222,-7.12654 33.13283,-0.71287 6.33917,5.34224 15.9582,3.66027 15.9582,-2.79049 0,-2.98259 -1.74183,-4.05127 -4.73226,-2.90362 -2.71377,1.04146 -5.49299,-0.16746 -6.51632,-2.83394 -1.51615,-3.95141 -8.31712,-4.41115 -45.27059,-3.06006 -23.91741,0.87448 -65.335802,2.35559 -92.040804,3.29136 l -48.554237,1.70143 0.8592992,-40.90352 0.8594952,-40.90289 46.9256406,-0.84951 c 44.381028,-0.80341 46.925636,-1.17889 46.925636,-6.92411 0,-5.78661 -2.261092,-6.07459 -47.694746,-6.07459 l -47.694938,0 0,-40.00596 0,-40.005992 20.770365,0.06429 z"
       style="display:inline;fill:none;stroke:#ff0000;stroke-width:2.03953576"
       sodipodi:nodetypes="cscsscsssccssscssssscscssscsssscsssccsssscsssscsscccsssccccc" />
    <path
       inkscape:connector-curvature="0"
       id="path4197-2"
       d="m 72.032175,969.40279 c -0.227287,-11.42252 0.195837,-52.64169 0.940457,-91.59796 1.176103,-61.53118 0.741822,-71.26415 -3.307973,-74.13988 -2.563978,-1.82072 -4.713994,-5.58051 -4.77779,-8.35527 -0.170311,-7.40633 -5.287827,-6.02986 -7.174787,1.92992 -0.942052,3.97405 0.312606,8.89329 2.988371,11.71685 9.598971,10.1298 3.22828,39.81358 -8.603125,40.0857 -5.395966,0.12409 -5.675685,-3.96919 -1.185227,-17.3424 2.95302,-8.79442 2.625572,-11.02975 -2.391344,-16.32406 -11.393074,-12.02285 -26.355899,-5.64393 -26.054881,11.10758 0.0942,5.1614 -1.172968,11.49315 -2.812872,14.07033 -2.580594,4.05589 -3.612443,3.89707 -7.674721,-1.18126 -8.0323788,-10.04153 -6.1156484,-22.3581 5.414309,-34.79072 11.072416,-11.93935 12.496238,-16.34001 6.988839,-21.60019 -2.383031,-2.27621 -2.49283,-8.94519 -0.37711,-22.9239 4.328291,-28.60038 7.878833,-38.99816 21.063743,-61.68538 14.276971,-24.56634 23.908568,-34.41012 33.893577,-34.63977 4.135384,-0.0951 7.485583,-1.62604 7.444738,-3.40219 -0.129018,-5.61078 -9.742058,-21.1705 -13.032781,-21.09482 -1.734832,0.0399 -5.304005,-4.75778 -7.931545,-10.66152 -4.973552,-11.17515 -3.543517,-18.11921 5.318437,-25.82559 3.292655,-2.86319 3.88844,-8.25765 2.377322,-21.52481 -1.56731,-13.76038 -0.935055,-18.83647 2.838454,-22.7879 2.670232,-2.79632 6.190024,-12.09184 7.821708,-20.65696 6.156167,-32.31462 21.124676,-42.2903 64.969716,-43.2987 44.80233,-1.0304 56.20771,6.02713 66.89492,41.39339 3.44292,11.39309 7.99456,21.73281 10.1148,22.97689 2.59708,1.52378 3.48003,7.40333 2.70594,18.01856 -0.96423,13.22244 0.074,17.33521 6.45572,25.57309 8.53563,11.01804 8.02925,20.93864 -1.62191,31.77441 -3.17816,3.56827 -5.7353,8.36616 -5.6825,10.66189 0.0528,2.29591 -2.13681,6.75891 -4.86584,9.91769 -4.69053,5.42944 -4.50765,5.73284 3.34549,5.55223 11.31865,-0.26032 20.08033,8.95888 37.31768,39.26595 10.6821,18.78153 16.01594,32.55658 19.77068,51.05867 2.82805,13.93583 3.95147,26.11205 2.49644,27.05843 -5.10609,3.32061 -2.30081,13.56743 4.95102,18.08474 13.86706,8.6377 18.41388,25.55615 10.18551,37.8995 -5.82893,8.74388 -10.15486,4.46708 -10.57172,-10.45156 -0.27823,-9.94863 -8.40531,-19.52257 -16.41616,-19.33833 -2.56542,0.059 -7.06359,2.88443 -9.99588,6.27859 -5.16786,5.98175 -5.07348,10.00413 0.63287,27.02743 2.99758,8.94024 -4.41251,9.48146 -12.52999,0.91518 -6.9063,-7.28796 -7.71075,-25.35405 -1.47436,-33.11082 5.19457,-6.46093 3.29206,-16.03965 -3.15637,-15.89134 -2.98154,0.0686 -4.00978,1.83468 -2.79379,4.79821 1.10348,2.68937 -0.0411,5.49591 -2.6831,6.58036 -3.91515,1.60675 -4.21836,8.41714 -2.01817,45.33328 1.42404,23.89325 3.85685,65.27057 5.40625,91.94956 l 2.81712,48.50684 -40.90859,0.0812 -40.90797,0.0812 -1.92806,-46.89809 c -1.82347,-44.35505 -2.25731,-46.89059 -8.00048,-46.7585 -5.78452,0.13302 -6.02041,2.40036 -4.97586,47.82628 l 1.09653,47.68688 -39.99161,0.91979 -39.991609,0.91971 -0.413262,-20.76827 z"
       style="display:inline;fill:none;stroke:#ff0000;stroke-width:2.03953576"
       sodipodi:nodetypes="cscsscsssccssscssssscscssscsssscsssccsssscsssscsscccsssccccc" />
    <path
       inkscape:connector-curvature="0"
       id="path4197-0"
       d="m 476.31535,517.41577 c -11.34024,-1.37848 -52.08792,-7.58391 -90.55023,-13.79002 -60.75097,-9.8025 -70.44762,-10.73883 -73.86312,-7.13245 -2.16244,2.28323 -6.18649,3.88434 -8.94246,3.558 -7.3562,-0.87109 -6.71191,4.38946 0.90341,7.37533 3.80207,1.4907 8.84827,0.93892 12.01923,-1.3142 11.37607,-8.08277 39.86877,2.39252 38.47724,14.14606 -0.63463,5.36047 -4.72627,5.06282 -17.3354,-1.26096 -8.29195,-4.15864 -10.55091,-4.14821 -16.49659,0.0762 -13.50205,9.59352 -9.28743,25.30508 7.33889,27.35858 5.12302,0.63136 11.2136,2.77498 13.53479,4.76052 3.65307,3.12472 3.35099,4.12416 -2.24685,7.43367 -11.06875,6.5439 -22.99313,2.9169 -33.68285,-10.24521 -10.26561,-12.63987 -14.42241,-14.66755 -20.40314,-9.95267 -2.58799,2.0402 -9.20573,1.21271 -22.74769,-2.84467 -27.70685,-8.30084 -37.50225,-13.27622 -58.11175,-29.51669 -22.31651,-17.58563 -30.70978,-28.50465 -29.5354,-38.42397 0.48637,-4.10817 -0.55894,-7.64042 -2.32308,-7.84932 -5.57279,-0.6599 -22.32647,6.67452 -22.71351,9.9436 -0.20404,1.72342 -5.4548,4.58408 -11.6684,6.35705 -11.76164,3.35596 -18.43552,0.96513 -24.8208,-8.89174 -2.37233,-3.6623 -7.62923,-5.00952 -20.975894,-5.37572 -13.842849,-0.37978 -18.779438,-1.71843 -22.161622,-6.00966 -2.393521,-3.03659 -11.101992,-7.82679 -19.352431,-10.64485 -31.127362,-10.63217 -38.902002,-26.85427 -33.745213,-70.4108 5.269379,-44.50754 13.857479,-54.81028 50.370497,-60.42783 11.762529,-1.80976 22.637854,-4.86523 24.167142,-6.79004 1.873129,-2.35768 7.817845,-2.40659 18.218311,-0.14989 12.95488,2.81097 17.17229,2.3603 26.22369,-2.80237 12.10617,-6.90517 21.8565,-5.01107 31.2291,6.06658 3.08643,3.64791 7.47739,6.85351 9.75758,7.12351 2.28036,0.27003 6.39137,3.06467 9.13546,6.21039 4.7167,5.40673 5.04273,5.26822 5.96638,-2.53325 1.33122,-11.24417 11.68825,-18.62568 44.11219,-31.43936 20.09335,-7.94074 34.47949,-11.28849 53.32372,-12.40902 14.19352,-0.84397 26.40574,-0.247 27.1384,1.32664 2.5706,5.52214 13.10881,4.18285 18.59898,-2.36373 10.49806,-12.51845 27.88569,-14.64561 38.95052,-4.76513 7.83819,6.99923 2.99685,10.68234 -11.83119,9.00084 -9.88821,-1.1213 -20.50735,5.58218 -21.44955,13.54033 -0.30173,2.54857 1.86399,7.39924 4.81257,10.77925 5.19648,5.95692 9.1919,6.42811 26.8461,3.16753 9.27167,-1.71313 8.76723,5.70026 -0.85297,12.53556 -8.18462,5.81544 -26.18304,4.07585 -32.9868,-3.18829 -5.6671,-6.05062 -15.41716,-5.51147 -16.17558,0.89454 -0.35066,2.9619 1.25342,4.228 4.35805,3.43997 2.8174,-0.71512 5.4352,0.81224 6.13792,3.58056 1.04106,4.10228 7.74081,5.35859 44.59678,8.36237 23.8543,1.94414 65.15953,5.34386 91.78929,7.55494 l 48.41748,4.02006 -5.66244,40.51872 -5.66256,40.51808 -46.7,-4.67456 c -44.16762,-4.4211 -46.73873,-4.34746 -47.41419,1.35791 -0.68035,5.74648 1.53121,6.29835 46.64969,11.64106 l 47.36408,5.60864 -4.70356,39.72846 -4.70358,39.72847 -20.61873,-2.50631 z"
       style="display:inline;fill:none;stroke:#ff0000;stroke-width:2.03953576"
       sodipodi:nodetypes="cscsscsssccssscssssscscssscsssscsssccsssscsssscsscccsssccccc" />
    <path
       sodipodi:nodetypes="cscsscsssccssscssssscscssscsssscsssccsssscsssscsscccsssccccc"
       style="display:inline;fill:none;stroke:#ff0000;stroke-width:2.03953576"
       d="m 535.47958,545.36011 c -0.47228,11.41504 -3.41755,52.53092 -6.54519,91.36857 -4.94009,61.34378 -5.10236,71.08513 -1.23618,74.20331 2.44774,1.97433 4.36359,5.85868 4.25743,8.63218 -0.28334,7.40285 4.90884,6.34221 7.27945,-1.48711 1.18354,-3.90893 0.23232,-8.89578 -2.2656,-11.87784 -8.96094,-10.69846 -0.78532,-39.93658 11.04055,-39.48386 5.39344,0.20643 5.42209,4.30925 0.12152,17.38245 -3.48578,8.59719 -3.29575,10.84831 1.38771,16.43986 10.6358,12.69782 25.96102,7.24682 26.68583,-9.49174 0.22195,-5.15745 1.87432,-11.39974 3.66882,-13.87172 2.82406,-3.8903 3.84426,-3.66861 7.58807,1.64887 7.40267,10.51452 4.73563,22.69067 -7.5336,34.39408 -11.78242,11.23914 -13.47297,15.54436 -8.29791,21.13186 2.2393,2.41779 1.94071,9.08103 -1.02669,22.90397 -6.07071,28.28179 -10.25103,38.44263 -24.79984,60.28021 -15.75385,23.6462 -25.9699,32.88185 -35.95025,32.49978 -4.13345,-0.15825 -7.57107,1.16474 -7.63901,2.94015 -0.21468,5.60815 8.42799,21.72713 11.71718,21.85305 1.73403,0.0663 5.00285,5.0736 7.26409,11.12715 4.28023,11.45859 2.42784,18.3021 -6.88917,25.45148 -3.46174,2.65625 -4.38659,8.00416 -3.69036,21.33896 0.72213,13.83048 -0.21963,18.85828 -4.22794,22.57133 -2.83638,2.62764 -6.91852,11.6903 -9.0714,20.1394 -8.12252,31.8772 -23.67354,40.9177 -67.49808,39.2401 -44.78138,-1.7143 -55.73341,-9.4568 -64.23588,-45.41098 -2.73911,-11.58254 -6.64935,-22.18155 -8.68948,-23.55312 -2.49893,-1.67976 -3.02036,-7.60244 -1.59797,-18.15037 1.77173,-13.13863 0.98717,-17.30723 -4.87835,-25.92029 -7.84525,-11.51998 -6.73259,-21.39097 3.56371,-31.61553 3.3906,-3.367 6.23661,-7.99944 6.32444,-10.29408 0.0878,-2.29482 2.54649,-6.61537 5.46376,-9.60114 5.01405,-5.13217 4.85008,-5.44621 -2.99939,-5.74669 -11.31336,-0.43309 -19.49432,-10.17133 -34.84432,-41.47682 -9.51251,-19.40025 -13.99321,-33.47602 -16.60845,-52.17329 -1.9698,-14.08281 -2.34577,-26.30505 -0.83553,-27.16051 5.29975,-3.00177 3.1269,-13.40115 -3.83483,-18.35394 -13.31235,-9.47041 -16.81511,-26.63551 -7.84663,-38.45194 6.35315,-8.37071 10.40921,-3.83709 9.91223,11.07913 -0.33144,9.94703 7.19453,20.00052 15.20163,20.30704 2.56426,0.0981 7.2269,-2.44657 10.36145,-5.65484 5.52431,-5.6542 5.67629,-9.67479 1.0226,-27.01553 -2.44475,-9.10695 4.98458,-9.19351 12.56252,-0.14636 6.44727,7.69703 6.14443,25.77856 -0.55505,33.13897 -5.58029,6.13079 -4.26763,15.80806 2.17778,16.05479 2.98014,0.11407 4.11455,-1.58576 3.08224,-4.61824 -0.93681,-2.75179 0.37739,-5.48307 3.08084,-6.40368 4.00614,-1.36414 4.72564,-8.1432 4.78913,-45.12479 0.0411,-23.93559 0.14545,-65.38426 0.23192,-92.10803 l 0.15716,-48.58842 40.83684,2.42328 40.83622,2.42354 -0.94609,46.92819 c -0.89483,44.38352 -0.61699,46.94087 5.12348,47.16063 5.78183,0.22131 6.15605,-2.02731 7.89389,-47.43196 l 1.82432,-47.66461 39.97291,1.53024 39.97291,1.53023 -0.85869,20.75467 z"
       id="path4273"
       inkscape:connector-curvature="0" />
  </g>
  <g
     inkscape:groupmode="layer"
     id="layer7"
     inkscape:label="Yoda"
     style="display:none">
    <path
       style="fill:none;stroke:#ff0000;stroke-width:2.56238675"
       d="M 81.889201,94.662002 C 156.14074,93.617759 175.75527,91.168659 175.63978,82.956078 175.51479,74.067482 159.46553,71.799344 151.19248,79.50107 136.35355,93.315207 94.442537,84.853933 94.205478,67.996191 94.104872,60.841964 100.56937,60.339476 118.01014,66.145904 142.73497,74.37732 162.12254,48.178582 143.44579,31.774287 139.488,28.298061 128.93278,24.964888 119.98974,24.367289 100.95043,23.09497 97.612151,13.481247 114.1046,7.4189855 129.2167,1.864102 145.1376,6.8828419 158.9101,21.54309 c 10.99539,11.704117 12.94193,12.350195 24.04361,7.980263 16.82297,-6.622003 63.01472,4.679808 113.67828,27.813806 45.39861,20.729897 57.76964,30.532375 57.98641,45.946871 0.0854,6.07171 2.9108,12.05271 6.2787,13.29112 3.57963,1.31623 6.19537,7.36513 6.29656,14.56077 0.1998,14.2083 4.18285,15.4552 13.93974,4.36391 3.79745,-4.3168 12.22272,-10.1399 18.72284,-12.94017 7.23882,-3.11852 11.77609,-8.09976 11.70922,-12.85494 -0.33192,-23.603544 62.25121,-105.8435857 80.74289,-106.1036453 9.20103,-0.1293995 9.10783,1.4241437 -3.90196,65.0369373 -7.34862,35.931988 -7.07115,40.713238 2.35499,40.580668 8.51878,-0.11981 18.49393,16.20839 18.69636,30.6038 0.0991,7.04624 2.95292,15.04752 6.34184,17.78063 3.38891,2.73313 6.21882,9.03298 6.28866,13.99968 0.0699,4.96674 3.08262,14.75247 6.69507,21.74616 5.97416,11.56597 6.00674,13.88174 0.36015,25.61118 -3.41436,7.09246 -6.1662,15.8626 -6.1152,19.48919 0.051,3.62657 -2.87815,10.96506 -6.50922,16.30769 -3.63106,5.34264 -6.93853,14.92996 -7.34991,21.30509 -0.93007,14.41308 -11.77889,32.07096 -19.77317,32.18339 -7.56913,0.10645 -7.42267,8.64559 0.96239,56.11581 9.29941,52.64647 4.9432,57.31275 -24.70273,26.46099 -21.4673,-22.34047 -50.15684,-67.73593 -53.93647,-85.34369 -1.45791,-6.79193 -5.09958,-12.31453 -8.09253,-12.27244 -2.99296,0.0421 -11.76198,-5.31743 -19.48666,-11.91009 -7.72469,-6.59264 -15.17406,-11.97072 -16.5542,-11.95131 -1.38008,0.0194 -2.4193,6.4307 -2.30938,14.24729 0.10992,7.81662 -1.42399,14.23488 -3.40866,14.26279 -1.98468,0.0279 -4.68645,6.27893 -6.00395,13.8912 -2.88784,16.68562 -3.79996,17.49501 -44.39024,39.39101 -40.32757,21.75432 -115.75818,43.31134 -121.27515,34.65882 -4.88201,-7.6568 -13.90123,-4.35408 -28.15955,10.31169 -11.15085,11.46948 -17.1967,14.45667 -29.61241,14.63128 -15.62131,0.2197 -33.91665,-8.60507 -28.78425,-13.8841 1.50108,-1.54402 9.2321,-2.89872 17.17994,-3.0105 16.37807,-0.23033 34.64256,-12.78464 34.48898,-23.70632 -0.0557,-3.95843 -3.87293,-10.51535 -8.48281,-14.57098 -7.27831,-6.40321 -11.02576,-6.79327 -28.47006,-2.96333 -18.06933,3.96717 -20.098615,3.68803 -20.189529,-2.77696 -0.133306,-9.47966 14.955959,-20.04392 28.909629,-20.24016 6.12696,-0.0862 17.47317,2.75495 25.21378,6.31365 14.03984,6.45467 26.97612,5.07882 26.86452,-2.85724 -0.0324,-2.30341 -3.6054,-4.13811 -7.94002,-4.07715 -4.33467,0.061 -9.03613,-1.70056 -10.44775,-3.91445 -1.55229,-2.43458 -30.5522,-3.63169 -73.383853,-3.02933 l -70.817265,0.99594 -0.740748,-52.67601 -0.740748,-52.67603 57.84479,-1.94034 c 48.210834,-1.61721 57.830524,-2.9548 57.759134,-8.03124 -0.0714,-5.07643 -9.72487,-6.14298 -57.962124,-6.40377 l -57.876475,-0.3129 -0.740748,-52.67601 -0.740748,-52.675983 z"
       id="path4165"
       inkscape:connector-curvature="0"
       sodipodi:nodetypes="sssssssssssssssssssssssssssssssssssssssssssssssssssssscccssscccs" />
    <path
       sodipodi:nodetypes="sssssssssssssssssssssssssssssssssssssssssssssssssssssscccssscccs"
       inkscape:connector-curvature="0"
       id="path4333"
       d="m 464.06749,638.83632 c -74.05492,5.50041 -93.48702,9.12275 -92.8787,17.31358 0.65839,8.86505 16.81486,10.16551 24.61062,1.98097 13.98284,-14.68015 56.32622,-8.75047 57.57489,8.06262 0.52994,7.1353 -5.89273,8.02499 -23.65065,3.27618 -25.17438,-6.73209 -42.95417,20.58341 -23.32626,35.83677 4.15934,3.23234 14.89563,5.92576 23.85841,5.98536 19.08134,0.12689 22.99075,9.52285 6.892,16.56438 -14.75134,6.45219 -30.94484,2.39839 -45.5726,-11.40852 -11.67821,-11.02283 -13.66003,-11.55088 -24.47934,-6.52228 -16.39508,7.62009 -63.18201,-0.88799 -115.14301,-20.93843 -46.56122,-17.96676 -59.49843,-27.00881 -60.64021,-42.38249 -0.44974,-6.05562 -3.62913,-11.8562 -7.0653,-12.89016 -3.65218,-1.09894 -6.62635,-6.97989 -7.15935,-14.15647 -1.05243,-14.17066 -5.10315,-15.17618 -14.17657,-3.51909 -3.53145,4.53701 -11.59194,10.85544 -17.91221,14.04094 -7.03854,3.54751 -11.26859,8.79217 -10.91636,13.53477 1.74835,23.54105 -55.784651,109.39021 -74.227373,110.76005 -9.176662,0.68158 -9.176901,-0.87475 -0.0095,-65.1539 5.178193,-36.30838 4.614192,-41.06435 -4.786985,-40.36608 -8.496231,0.63106 -19.433634,-15.06878 -20.499923,-29.42608 -0.521925,-7.02757 -3.850962,-14.84306 -7.397848,-17.36779 -3.546912,-2.52472 -6.74992,-8.6433 -7.117812,-13.59685 -0.367893,-4.95358 -3.962715,-14.54079 -7.988507,-21.30495 -6.6577515,-11.18643 -6.8292829,-13.49607 -1.897057,-25.54336 2.982409,-7.28468 5.20277,-16.2042 4.934144,-19.8212 -0.268626,-3.61697 2.214682,-11.11807 5.518453,-16.6691 3.303774,-5.55101 6.029695,-15.31959 6.057613,-21.70794 0.06311,-14.44291 9.832273,-32.72031 17.805392,-33.3125 7.549081,-0.56072 6.890249,-9.07565 -4.329547,-55.9568 -12.443234,-51.99318 -8.375019,-56.91257 23.06961,-27.89642 22.769772,21.01127 54.13284,64.60234 58.96273,81.95141 1.86303,6.69214 5.82968,11.98614 8.81471,11.76444 2.98504,-0.22173 12.05998,4.60164 20.16652,10.71862 8.10655,6.11695 15.86535,11.03809 17.24183,10.93585 1.37643,-0.10224 2.02888,-6.56436 1.4499,-14.36026 -0.579,-7.79592 0.56686,-14.29469 2.54625,-14.44171 1.97942,-0.14702 4.30104,-6.54897 5.15915,-14.22662 1.88092,-16.8289 2.74281,-17.69159 41.94534,-41.98514 38.94883,-24.13632 112.94921,-50.1833 118.97567,-41.87764 5.33289,7.34988 14.13756,3.51159 27.48969,-11.98378 10.44218,-12.11829 16.2978,-15.46308 28.68063,-16.38282 15.57994,-1.15719 34.37207,6.5532 29.56586,12.13085 -1.40569,1.63135 -9.04143,3.4478 -16.96823,4.03656 -16.33468,1.21325 -33.81254,14.84152 -33.00356,25.73428 0.29321,3.94794 4.49721,10.26383 9.34226,14.03537 7.6496,5.95468 11.41371,6.11905 28.5966,1.24866 17.79858,-5.04489 19.84096,-4.8881 20.31984,1.55978 0.70217,9.45455 -13.72566,20.90571 -27.64238,21.93938 -6.11074,0.45387 -17.60706,-1.7009 -25.54734,-4.78845 -14.40202,-5.60007 -27.23235,-3.45001 -26.64452,4.46503 0.17062,2.29732 3.84733,3.91419 8.17047,3.59309 4.32318,-0.3211 9.12192,1.15496 10.6639,3.2801 1.69566,2.33699 30.71513,1.7908 73.43334,-1.38209 l 70.62973,-5.24601 3.90179,52.53654 3.9018,52.53652 -57.62396,5.40984 c -48.02679,4.50885 -57.54883,6.42161 -57.1728,11.4846 0.37601,5.06298 10.07614,5.54802 58.24202,2.91219 l 57.79086,-3.16257 3.90179,52.53652 3.90179,52.53649 z"
       style="fill:none;stroke:#ff0000;stroke-width:2.56238675" />
    <path
       sodipodi:nodetypes="sssssssssssssssssssssssssssssssssssssssssssssssssssssscccssscccs"
       inkscape:connector-curvature="0"
       id="path4335"
       d="m 931.03686,161.65299 c 75.77564,0 95.82394,-2.21732 95.82394,-10.5981 0,-9.07064 -16.3429,-11.61506 -24.8946,-3.87586 -15.33872,13.88135 -57.98014,4.64712 -57.98014,-12.55588 0,-7.30075 6.60309,-7.72067 24.31503,-1.54624 25.10923,8.75311 45.26671,-17.69872 26.44577,-34.703664 -3.98835,-3.60351 -14.71027,-7.15573 -23.8265,-7.89377 -19.40801,-1.57131 -22.6762,-11.42789 -5.76158,-17.37644 15.49895,-5.45069 31.67143,-0.10173 45.51352,15.05343 11.0509,12.099234 13.0277,12.786344 24.4178,8.48709 17.2599,-6.5149 64.2283,5.678894 115.5896,30.008984 46.0238,21.80169 58.5057,31.98046 58.5057,47.71065 0,6.19606 2.797,12.3389 6.2156,13.65074 3.6335,1.39429 6.2156,7.60339 6.2156,14.9464 0,14.49929 4.0461,15.82863 14.1604,4.65242 3.9366,-4.34985 12.6167,-10.17014 19.2891,-12.93393 7.4306,-3.07789 12.1316,-8.09504 12.1316,-12.94761 0,-24.08696 65.0351,-107.096744 83.9063,-107.096744 9.3899,0 9.2725,1.58371 -4.9144,66.299824 -8.0135,36.5552 -7.799,41.43739 1.8206,41.43739 8.6936,0 18.6372,16.80244 18.6372,31.49268 0,7.19055 2.7971,15.39503 6.2156,18.2322 3.4186,2.83718 6.2157,9.30539 6.2157,14.37381 0,5.06846 2.9336,15.09587 6.5191,22.28321 5.9296,11.88625 5.9296,14.24944 0,26.13571 -3.5855,7.18731 -6.5191,16.09581 -6.5191,19.79667 0,3.70085 -3.094,11.14612 -6.8755,16.545 -3.7816,5.39888 -7.2938,15.13315 -7.805,21.63167 -1.1558,14.69201 -12.4785,32.55231 -20.6368,32.55231 -7.7245,0 -7.6976,8.7144 0.1768,57.26758 8.733,53.84752 4.2213,58.54591 -25.5845,26.64313 -21.5831,-23.10153 -50.2044,-69.82922 -53.8082,-87.84828 -1.3901,-6.95058 -5.0265,-12.63743 -8.0809,-12.63743 -3.0544,0 -11.9247,-5.59403 -19.7118,-12.43122 -7.7871,-6.83717 -15.3107,-12.43121 -16.7192,-12.43121 -1.4084,0 -2.5607,6.5264 -2.5607,14.50308 0,7.97671 -1.6572,14.50311 -3.6826,14.50311 -2.0254,0 -4.8718,6.33901 -6.3253,14.08675 -3.1859,16.98255 -4.1282,17.79526 -45.8576,39.55287 -41.4594,21.61681 -118.7323,42.52865 -124.2373,33.62151 -4.8714,-7.88213 -14.1213,-4.64184 -28.8798,10.11674 -11.54206,11.54207 -17.75365,14.50309 -30.42421,14.50309 -15.94195,0 -34.48251,-9.26623 -29.17006,-14.57868 1.55375,-1.55378 9.46133,-2.82503 17.57231,-2.82503 16.71424,0 35.53006,-12.54683 35.53006,-23.69219 0,-4.0395 -3.80074,-10.78416 -8.44612,-14.98817 -7.33437,-6.6375 -11.15238,-7.08925 -29.00617,-3.43195 -18.49351,3.78836 -20.56003,3.47444 -20.56003,-3.12296 0,-9.67381 15.54752,-20.23579 29.7876,-20.23579 6.25273,0 17.78878,3.06154 25.63565,6.80347 14.23257,6.78702 27.45147,5.56889 27.45147,-2.52971 0,-2.35058 -3.6193,-4.27376 -8.0429,-4.27376 -4.4236,0 -9.1953,-1.8647 -10.6039,-4.14374 -1.5489,-2.50622 -31.12103,-4.14373 -74.83184,-4.14373 l -72.27086,0 0,-53.75486 0,-53.75486 59.04828,-1.14969 c 49.21389,-0.95823 59.04828,-2.18492 59.04828,-7.36533 0,-5.1804 -9.83439,-6.40709 -59.04828,-7.36532 l -59.04828,-1.14969 0,-53.75486 0,-53.75482 z"
       style="fill:none;stroke:#ff0000;stroke-width:2.56238675" />
    <path
       style="fill:none;stroke:#ff0000;stroke-width:2.56238675"
       d="m 110.80908,755.27006 c 74.25888,0 93.9059,-2.17301 93.9059,-10.38642 0,-8.88944 -16.01577,-11.38302 -24.39629,-3.79839 -15.03171,13.60405 -56.81961,4.55428 -56.81961,-12.30513 0,-7.15488 6.47092,-7.56649 23.82834,-1.51532 24.60663,8.57828 44.36063,-17.3453 25.91642,-34.01057 -3.90852,-3.53153 -14.41583,-7.01278 -23.34958,-7.73614 -19.01954,-1.53992 -22.22231,-11.19965 -5.64626,-17.02934 15.18872,-5.34184 31.03749,-0.0997 44.60248,14.75274 10.82973,11.85754 12.76697,12.53102 23.92908,8.31759 16.91442,-6.38478 62.94269,5.56547 113.27592,29.40964 45.10258,21.36626 57.33464,31.34176 57.33464,46.75769 0,6.07234 2.74101,12.09246 6.09118,13.37815 3.56078,1.36646 6.09119,7.45154 6.09119,14.64788 0,14.20971 3.96511,15.51246 13.87696,4.55948 3.85781,-4.26292 12.36416,-9.96697 18.90301,-12.67557 7.28186,-3.01643 11.88877,-7.93342 11.88877,-12.689 0,-23.60592 63.73334,-104.95779 82.22681,-104.95779 9.20194,0 9.08689,1.55207 -4.81604,64.97561 -7.8531,35.8251 -7.64289,40.60979 1.78416,40.60979 8.51959,0 18.26415,16.4669 18.26415,30.8637 0,7.04698 2.74112,15.08752 6.09119,17.86805 3.35017,2.78054 6.09129,9.11955 6.09129,14.08672 0,4.96727 2.87488,14.79439 6.38861,21.83814 5.81091,11.6489 5.81091,13.9649 0,25.6137 -3.51373,7.04385 -6.38861,15.77443 -6.38861,19.40131 0,3.62698 -3.03207,10.92348 -6.73788,16.21455 -3.70591,5.29107 -7.14781,14.83095 -7.64877,21.19966 -1.13267,14.39856 -12.22873,31.90214 -20.22373,31.90214 -7.56989,0 -7.54353,8.54036 0.17326,56.12387 8.5582,52.772 4.1368,57.3765 -25.0724,26.1109 -21.15108,-22.6401 -49.19949,-68.43451 -52.73116,-86.09373 -1.36227,-6.81177 -4.92588,-12.38499 -7.91915,-12.38499 -2.99326,0 -11.68601,-5.48227 -19.31724,-12.18292 -7.63123,-6.70064 -15.00424,-12.18291 -16.38454,-12.18291 -1.38021,0 -2.50945,6.39605 -2.50945,14.21333 0,7.81748 -1.62403,14.21354 -3.60888,14.21354 -1.98486,0 -4.77429,6.21239 -6.1987,13.80535 -3.12213,16.64342 -4.04556,17.43988 -44.9397,38.76293 -40.62953,21.1851 -116.35572,41.6792 -121.75053,32.95 -4.77389,-7.7247 -13.83864,-4.5492 -28.30174,9.9146 -11.31102,11.3116 -17.39828,14.2135 -29.81522,14.2135 -15.62285,0 -33.7923,-9.0812 -28.58619,-14.2876 1.52265,-1.5226 9.27195,-2.7685 17.22058,-2.7685 16.37968,0 34.8189,-12.2962 34.8189,-23.219 0,-3.9589 -3.72468,-10.5688 -8.27708,-14.6889 -7.18756,-6.5049 -10.92915,-6.9476 -28.42557,-3.3633 -18.12334,3.7127 -20.1485,3.405 -20.1485,-3.0607 0,-9.4806 15.23632,-19.83161 29.19136,-19.83161 6.12758,0 17.43272,3.00046 25.12252,6.66762 13.94769,6.65149 26.902,5.45769 26.902,-2.47917 0,-2.30366 -3.54686,-4.18845 -7.88191,-4.18845 -4.33506,0 -9.01129,-1.82745 -10.39163,-4.06093 -1.51791,-2.45615 -30.49812,-4.06094 -73.33401,-4.06094 l -70.824263,0 0,-52.68128 0,-52.68117 57.866353,-1.12674 c 48.22881,-0.93916 57.86635,-2.14136 57.86635,-7.21829 0,-5.07694 -9.63754,-6.27914 -57.86635,-7.2182 l -57.866353,-1.12674 0,-52.68117 0,-52.68127 z"
       id="path4337"
       inkscape:connector-curvature="0"
       sodipodi:nodetypes="sssssssssssssssssssssssssssssssssssssssssssssssssssssscccssscccs" />
  </g>
</svg>
