<?xml version="1.0" encoding="UTF-8" standalone="no"?>
<!-- Created with Inkscape (http://www.inkscape.org/) -->

<svg
   xmlns:dc="http://purl.org/dc/elements/1.1/"
   xmlns:cc="http://creativecommons.org/ns#"
   xmlns:rdf="http://www.w3.org/1999/02/22-rdf-syntax-ns#"
   xmlns:svg="http://www.w3.org/2000/svg"
   xmlns="http://www.w3.org/2000/svg"
   xmlns:sodipodi="http://sodipodi.sourceforge.net/DTD/sodipodi-0.dtd"
   xmlns:inkscape="http://www.inkscape.org/namespaces/inkscape"
   width="210mm"
   height="297mm"
   viewBox="0 0 744.09448819 1052.3622047"
   id="svg2"
   version="1.1"
   inkscape:version="0.91 r13725"
   sodipodi:docname="ici-yoda.svg">
  <defs
     id="defs4">
    <clipPath
       id="clipPath4152"
       clipPathUnits="userSpaceOnUse">
      <path
         inkscape:connector-curvature="0"
         id="path4154"
         d="m 230,420 5560,0 0,8140 -5560,0 0,-8140 z" />
    </clipPath>
    <clipPath
       id="clipPath4243"
       clipPathUnits="userSpaceOnUse">
      <path
         inkscape:connector-curvature="0"
         id="path4245"
         d="m 40,280 4320,0 0,8360 -4320,0 0,-8360 z" />
    </clipPath>
  </defs>
  <sodipodi:namedview
     id="base"
     pagecolor="#ffffff"
     bordercolor="#666666"
     borderopacity="1.0"
     inkscape:pageopacity="0.0"
     inkscape:pageshadow="2"
     inkscape:zoom="0.7"
     inkscape:cx="193.62961"
     inkscape:cy="500.9095"
     inkscape:document-units="px"
     inkscape:current-layer="layer1"
     showgrid="false"
     inkscape:window-width="1855"
     inkscape:window-height="1056"
     inkscape:window-x="69"
     inkscape:window-y="1048"
     inkscape:window-maximized="1" />
  <metadata
     id="metadata7">
    <rdf:RDF>
      <cc:Work
         rdf:about="">
        <dc:format>image/svg+xml</dc:format>
        <dc:type
           rdf:resource="http://purl.org/dc/dcmitype/StillImage" />
        <dc:title></dc:title>
      </cc:Work>
    </rdf:RDF>
  </metadata>
  <g
     inkscape:label="Layer 1"
     inkscape:groupmode="layer"
     id="layer1">
    <path
       inkscape:connector-curvature="0"
       id="path4249"
       style="fill:none;stroke:#ff0000;stroke-width:2.56238747;stroke-linecap:butt;stroke-linejoin:miter;stroke-miterlimit:4;stroke-dasharray:none;stroke-opacity:1"
       d="m 174.77618,530.20638 c 0.39344,-71.97922 -1.60724,-91.03621 -9.56912,-91.07832 -8.61693,-0.0517 -11.11881,15.46343 -3.80972,23.62434 13.10571,14.64246 4.11161,55.10531 -12.23185,55.01645 -6.93759,-0.0394 -7.29978,-6.31307 -1.345,-23.11018 8.44857,-23.80221 -16.57671,-43.08989 -32.83276,-25.30393 -3.4409,3.77203 -6.87306,13.94128 -7.62247,22.59534 -1.59192,18.42801 -10.975633,21.48012 -16.539153,5.38164 -5.09807,-14.74968 0.0679,-30.08489 14.537073,-43.15553 11.5554,-10.43653 12.21898,-12.30969 8.19102,-23.15189 -6.09504,-16.43055 5.73199,-60.98229 29.11532,-109.64796 20.95183,-43.60428 30.68671,-55.41119 45.62854,-55.32631 5.8863,0.0295 11.73854,-2.59462 13.00021,-5.83454 1.34318,-3.44408 7.25841,-5.86756 14.23463,-5.82508 13.77261,0.0756 15.05804,-3.76056 4.49487,-13.43006 -4.11262,-3.7615 -9.59936,-12.03659 -12.1884,-18.39138 -2.8841,-7.07304 -7.63055,-11.56602 -12.23698,-11.58996 -22.88492,-0.12674 -101.413123,-62.34087 -101.310953,-80.26553 0.0459,-8.92111 1.54988,-8.80111 62.960733,5.01311 34.68925,7.80365 39.32692,7.62468 39.37497,-1.51181 0.0471,-8.2598 16.06191,-17.61574 30.02139,-17.54052 6.83002,0.0361 14.6399,-2.57467 17.3521,-5.8106 2.7119,-3.23205 8.87263,-5.85638 13.68578,-5.82999 4.81812,0.0269 14.35804,-2.70401 21.20544,-6.076337 11.3224,-5.56734 13.56976,-5.55457 24.83261,0.13902 6.80902,3.442597 15.25783,6.277287 18.7727,6.293257 3.51572,0.0209 10.57124,2.99863 15.68073,6.6191 5.10941,3.62146 14.34185,7.00759 20.51147,7.52529 13.95434,1.17706 30.86023,12.02373 30.81998,19.7737 -0.0414,7.33971 8.23959,7.35876 54.40921,0.13386 51.20115,-8.01824 55.64225,-3.70599 25.17694,24.44357 -22.05704,20.38056 -66.60096,47.32321 -83.73761,50.65346 -6.61184,1.28434 -12.03293,4.71267 -12.04971,7.61051 -0.0159,2.90293 -5.3781,11.29806 -11.91204,18.66298 -6.53854,7.35953 -11.89276,14.47624 -11.89571,15.81776 -0.009,1.33603 6.18461,2.46719 13.76406,2.50888 7.57944,0.0417 13.77016,1.64665 13.75836,3.57055 -0.0107,1.92525 5.99698,4.66173 13.35363,6.08132 16.11558,3.11784 16.88153,4.0166 37.33439,43.77296 20.32198,39.49512 39.79056,113.01013 31.30044,118.19005 -7.51745,4.5879 -4.48805,13.39172 9.45981,27.4907 10.90532,11.02349 13.6863,16.93715 13.61764,28.97232 -0.0822,15.14393 -8.9824,32.70922 -13.99986,27.6366 -1.46912,-1.48405 -2.6373,-9.00327 -2.59054,-16.70896 0.0853,-15.87475 -11.73784,-33.81441 -22.32777,-33.8756 -3.8345,-0.0175 -10.2615,3.55514 -14.28102,7.94687 -6.3428,6.93375 -6.79364,10.55687 -3.41206,27.53586 3.49968,17.58905 3.19164,19.54826 -3.07545,19.51346 -9.19035,-0.0473 -19.14138,-14.87448 -19.0702,-28.40293 0.0324,-5.93873 3.002,-16.87971 6.59712,-24.31358 6.52337,-13.48765 5.43417,-26.05158 -2.25822,-26.09225 -2.2374,-0.0117 -4.08347,3.4173 -4.1051,7.61764 -0.0217,4.20158 -1.81723,8.72561 -3.99085,10.05194 -2.38866,1.45964 -4.10008,29.54249 -4.32712,71.06722 l -0.37362,68.65025 -51.07209,-0.27903 -51.0671,-0.27863 -0.7858,-56.09895 c -0.65331,-46.75758 -1.76845,-56.10463 -6.68914,-56.13483 -4.92482,-0.0255 -6.13999,9.31117 -7.30895,56.05627 l -1.39763,56.08651 -51.06846,-0.27748 -51.07169,-0.28402 0.36298,-66.42655 z" />
  </g>
</svg>
