<?xml version="1.0" encoding="UTF-8" standalone="no"?>
<!-- Generator: Adobe Illustrator 17.1.0, SVG Export Plug-In . SVG Version: 6.00 Build 0)  -->

<svg
   xmlns:dc="http://purl.org/dc/elements/1.1/"
   xmlns:cc="http://creativecommons.org/ns#"
   xmlns:rdf="http://www.w3.org/1999/02/22-rdf-syntax-ns#"
   xmlns:svg="http://www.w3.org/2000/svg"
   xmlns="http://www.w3.org/2000/svg"
   xmlns:sodipodi="http://sodipodi.sourceforge.net/DTD/sodipodi-0.dtd"
   xmlns:inkscape="http://www.inkscape.org/namespaces/inkscape"
   version="1.1"
   id="Capa_1"
   x="0px"
   y="0px"
   viewBox="0 0 1620.0001 1079.9999"
   xml:space="preserve"
   inkscape:version="0.91 r13725"
   sodipodi:docname="urna.svg"
   width="457.20001mm"
   height="304.79999mm"><sodipodi:namedview
     pagecolor="#ffffff"
     bordercolor="#666666"
     borderopacity="1"
     objecttolerance="10"
     gridtolerance="10"
     guidetolerance="10"
     inkscape:pageopacity="0"
     inkscape:pageshadow="2"
     inkscape:window-width="1215"
     inkscape:window-height="1000"
     id="namedview35"
     showgrid="false"
     inkscape:zoom="0.39361544"
     inkscape:cx="769.5127"
     inkscape:cy="570.77671"
     inkscape:window-x="65"
     inkscape:window-y="24"
     inkscape:window-maximized="1"
     inkscape:current-layer="Capa_1"
     units="mm" /><metadata
     id="metadata39"><rdf:RDF><cc:Work
         rdf:about=""><dc:format>image/svg+xml</dc:format><dc:type
           rdf:resource="http://purl.org/dc/dcmitype/StillImage" /><dc:title></dc:title></cc:Work></rdf:RDF></metadata><defs
     id="defs37" /><g
     id="g5"
     transform="translate(0,868.02011)" /><g
     id="g7"
     transform="translate(0,868.02011)" /><g
     id="g9"
     transform="translate(0,868.02011)" /><g
     id="g11"
     transform="translate(0,868.02011)" /><g
     id="g13"
     transform="translate(0,868.02011)" /><g
     id="g15"
     transform="translate(0,868.02011)" /><g
     id="g17"
     transform="translate(0,868.02011)" /><g
     id="g19"
     transform="translate(0,868.02011)" /><g
     id="g21"
     transform="translate(0,868.02011)" /><g
     id="g23"
     transform="translate(0,868.02011)" /><g
     id="g25"
     transform="translate(0,868.02011)" /><g
     id="g27"
     transform="translate(0,868.02011)" /><g
     id="g29"
     transform="translate(0,868.02011)" /><g
     id="g31"
     transform="translate(0,868.02011)" /><g
     id="g33"
     transform="translate(0,868.02011)" /><g
     id="box"
     transform="matrix(0,-0.99999994,1.0000001,0,53.490854,797.44813)"
     style="stroke-width:1;stroke-miterlimit:4;stroke-dasharray:none;stroke:#ff0000"><path
       d="m 0,0 31.44685,0 0,-14.173228 62.893701,0 0,14.173228 62.893699,0 0,-14.173228 62.8937,0 0,14.173228 62.8937,0 0,-14.173228 62.8937,0 0,14.173228 62.89371,0 0,-14.173228 62.8937,0 0,14.173228 31.44685,0 0,27.165354 14.17323,0 0,54.330709 -14.17323,0 0,54.330707 14.17323,0 0,54.33071 -14.17323,0 0,54.33071 14.17323,0 0,54.33071 -14.17323,0 0,27.16535 -31.44685,0 0,14.17323 -62.8937,0 0,-14.17323 -62.89371,0 0,14.17323 -62.8937,0 0,-14.17323 -62.8937,0 0,14.17323 -62.8937,0 0,-14.17323 -62.893699,0 0,14.17323 -62.893701,0 0,-14.17323 -31.44685,0 0,-27.16535 -14.173228,0 0,-54.33071 14.173228,0 0,-54.33071 -14.173228,0 0,-54.33071 14.173228,0 0,-54.330707 -14.173228,0 0,-54.330709 L 0,27.165354 0,0"
       id="box-lid"
       style="fill:none;stroke:#ff0000;stroke-width:1;stroke-linecap:butt;stroke-linejoin:miter;stroke-miterlimit:4;stroke-dasharray:none"
       inkscape:connector-curvature="0" /><path
       d="m 0,340.15748 0,-14.17323 m 503.14961,0 0,14.17323 14.17322,0 0,27.46063 -14.17322,0 0,54.92126 14.17322,0 0,54.92126 -14.17322,0 0,54.92126 14.17322,0 0,27.46063 -14.17322,0 0,14.17323 -31.44685,0 0,-14.17323 -62.8937,0 0,14.17323 -62.89371,0 0,-14.17323 -62.8937,0 0,14.17323 -62.8937,0 0,-14.17323 -62.8937,0 0,14.17323 -62.893699,0 0,-14.17323 -62.893701,0 0,14.17323 -31.44685063900016,0 0,-14.17323 -14.17322836099984,0 0,-27.46063 14.17322836099984,0 0,-54.92126 -14.17322836099984,0 0,-54.92126 14.17322836099984,0 0,-54.92126 -14.17322836099984,0 0,-27.46063 14.17322836099984,0"
       id="box-longside1"
       style="fill:none;stroke:#ff0000;stroke-width:1;stroke-linecap:butt;stroke-linejoin:miter;stroke-miterlimit:4;stroke-dasharray:none"
       inkscape:connector-curvature="0" /><path
       d="m 0,574.01575 m 503.14961,0 0,27.16535 14.17322,0 0,54.33071 -14.17322,0 0,54.33071 14.17322,0 0,54.33071 -14.17322,0 0,54.33071 14.17322,0 0,54.33071 -14.17322,0 0,27.16535 -31.44685,0 0,14.17323 -62.8937,0 0,-14.17323 -62.89371,0 0,14.17323 -62.8937,0 0,-14.17323 -62.8937,0 0,14.17323 -62.8937,0 0,-14.17323 -62.893699,0 0,14.17323 -62.893701,0 0,-14.17323 -31.44685063900016,0 0,-27.16535 -14.17322836099984,0 0,-54.33071 14.17322836099984,0 0,-54.33071 -14.17322836099984,0 0,-54.33071 14.17322836099984,0 0,-54.33071 -14.17322836099984,0 0,-54.33071 14.17322836099984,0 0,-27.16535"
       id="box-base"
       style="fill:none;stroke:#ff0000;stroke-width:1;stroke-linecap:butt;stroke-linejoin:miter;stroke-miterlimit:4;stroke-dasharray:none"
       inkscape:connector-curvature="0" /><path
       d="M 0,914.17323 0,900 m 503.14961,0 0,14.17323 14.17322,0 0,27.46063 -14.17322,0 0,54.92126 14.17322,0 0,54.92128 -14.17322,0 0,54.9212 14.17322,0 0,27.4607 -14.17322,0 0,14.1732 -31.44685,0 0,-14.1732 -62.8937,0 0,14.1732 -62.89371,0 0,-14.1732 -62.8937,0 0,14.1732 -62.8937,0 0,-14.1732 -62.8937,0 0,14.1732 -62.893699,0 0,-14.1732 -62.893701,0 0,14.1732 -31.44685063900016,0 0,-14.1732 -14.17322836099984,0 0,-27.4607 14.17322836099984,0 0,-54.9212 -14.17322836099984,0 0,-54.92128 14.17322836099984,0 0,-54.92126 -14.17322836099984,0 0,-27.46063 14.17322836099984,0"
       id="box-longside2"
       style="fill:none;stroke:#ff0000;stroke-width:1;stroke-linecap:butt;stroke-linejoin:miter;stroke-miterlimit:4;stroke-dasharray:none"
       inkscape:connector-curvature="0" /><path
       d="m 503.14961,0 41.63385,0 0,-14.173228 54.92126,0 0,14.173228 54.92126,0 0,-14.173228 54.92126,0 0,14.173228 41.63386,0 0,27.165354 -14.17323,0 0,54.330709 14.17323,0 0,54.330707 -14.17323,0 0,54.33071 14.17323,0 0,54.33071 -14.17323,0 0,54.33071 14.17323,0 0,27.16535 -41.63386,0 0,14.17323 -54.92126,0 0,-14.17323 -54.92126,0 0,14.17323 -54.92126,0 0,-14.17323 -27.46063,0 -14.17322,0"
       id="box-endface2"
       style="fill:none;stroke:#ff0000;stroke-width:1;stroke-linecap:butt;stroke-linejoin:miter;stroke-miterlimit:4;stroke-dasharray:none"
       inkscape:connector-curvature="0" /><path
       d="m 503.14961,574.01575 41.63385,0 0,-14.17323 54.92126,0 0,14.17323 54.92126,0 0,-14.17323 54.92126,0 0,14.17323 41.63386,0 0,27.16535 -14.17323,0 0,54.33071 14.17323,0 0,54.33071 -14.17323,0 0,54.33071 14.17323,0 0,54.33071 -14.17323,0 0,54.33071 14.17323,0 0,27.16535 -41.63386,0 0,14.17323 -54.92126,0 0,-14.17323 -54.92126,0 0,14.17323 -54.92126,0 0,-14.17323 -27.46063,0 -14.17322,0"
       id="box-endface1"
       style="fill:none;stroke:#ff0000;stroke-width:1;stroke-linecap:butt;stroke-linejoin:miter;stroke-miterlimit:4;stroke-dasharray:none"
       inkscape:connector-curvature="0" /></g><rect
     style="opacity:1;fill:none;fill-opacity:1;stroke:#ff0000;stroke-width:1;stroke-linecap:round;stroke-linejoin:miter;stroke-miterlimit:4;stroke-dasharray:none;stroke-dashoffset:0;stroke-opacity:1"
     id="rect4405"
     width="16.716536"
     height="140.73228"
     x="496.27921"
     y="461.862" /></svg>