<?xml version="1.0" encoding="UTF-8" standalone="no"?>
<!-- Created with Inkscape (http://www.inkscape.org/) -->

<svg
   xmlns:dc="http://purl.org/dc/elements/1.1/"
   xmlns:cc="http://creativecommons.org/ns#"
   xmlns:rdf="http://www.w3.org/1999/02/22-rdf-syntax-ns#"
   xmlns:svg="http://www.w3.org/2000/svg"
   xmlns="http://www.w3.org/2000/svg"
   xmlns:sodipodi="http://sodipodi.sourceforge.net/DTD/sodipodi-0.dtd"
   xmlns:inkscape="http://www.inkscape.org/namespaces/inkscape"
   width="457.20001mm"
   height="308.39999mm"
   viewBox="0 0 1620 1092.7559"
   id="svg2"
   version="1.1"
   inkscape:version="0.91 r13725"
   sodipodi:docname="Bienvenido.svg">
  <defs
     id="defs4" />
  <sodipodi:namedview
     id="base"
     pagecolor="#ffffff"
     bordercolor="#666666"
     borderopacity="1.0"
     inkscape:pageopacity="0.0"
     inkscape:pageshadow="2"
     inkscape:zoom="0.49497475"
     inkscape:cx="549.58866"
     inkscape:cy="771.40729"
     inkscape:document-units="px"
     inkscape:current-layer="layer1"
     showgrid="false"
     inkscape:window-width="1215"
     inkscape:window-height="1000"
     inkscape:window-x="65"
     inkscape:window-y="24"
     inkscape:window-maximized="1" />
  <metadata
     id="metadata7">
    <rdf:RDF>
      <cc:Work
         rdf:about="">
        <dc:format>image/svg+xml</dc:format>
        <dc:type
           rdf:resource="http://purl.org/dc/dcmitype/StillImage" />
        <dc:title />
      </cc:Work>
    </rdf:RDF>
  </metadata>
  <g
     inkscape:label="Capa 1"
     inkscape:groupmode="layer"
     id="layer1"
     transform="translate(0,40.393701)">
    <path
       style="fill:none;stroke:#ff0000"
       d="m 609.59114,274.201 c -2.83505,-0.48398 -6.52266,-1.23931 -8.19467,-1.6785 -7.24195,-1.90221 -27.99725,-9.45175 -58.74554,-21.36808 -34.15272,-13.2357 -55.96477,-20.92382 -66.10353,-23.2996 -9.76731,-2.28874 -17.64797,-3.43267 -23.55856,-3.41966 -7.51818,0.0165 -9.18158,0.52053 -35.10052,10.63513 -3.78005,1.47512 -7.32083,2.81673 -7.86839,2.98134 -1.52261,0.45774 -6.79264,-2.8629 -10.81729,-6.81596 -3.55043,-3.48728 -5.12376,-6.42472 -5.12376,-9.56617 l 0,-1.29115 10.18651,-1.62194 c 17.55249,-2.79477 28.03328,-3.99598 37.5551,-4.30419 l 9.20468,-0.29795 0,-1.40358 c 0,-5.43096 -2.59355,-17.19945 -7.12378,-32.32486 -4.46258,-14.89952 -5.31708,-18.75435 -4.95139,-22.33669 0.16538,-1.62002 1.07768,-6.36964 2.02734,-10.5547 2.98387,-13.14955 3.58733,-19.02047 2.05258,-19.969 -1.76711,-1.09213 -7.32695,0.34054 -20.72335,5.34001 -10.82851,4.04115 -14.81632,5.30158 -16.77337,5.30158 -4.08663,0 -13.46467,-7.20438 -12.58304,-9.66651 0.29949,-0.8364 3.95296,-1.91613 10.45613,-3.09016 17.04103,-3.07645 29.04278,-7.39301 34.70164,-12.48081 2.78294,-2.50211 4.33566,-3.23567 6.84892,-3.23567 5.5404,0 22.46922,8.71055 25.67292,13.20973 2.09353,2.94009 0.87787,6.45641 -2.8981,8.38276 -2.17763,1.11094 -3.79748,2.93004 -6.08567,6.83425 -3.46246,5.9078 -8.57485,18.52368 -9.67383,23.8722 -0.5781,2.81351 -0.54132,3.12996 0.73427,6.31843 2.52986,6.32365 6.47203,25.36922 7.88476,38.09314 0.43469,3.91506 0.8709,7.36221 0.96935,7.66034 0.0985,0.29812 1.91038,0.69397 4.0265,0.87965 10.6466,0.93421 21.10828,3.02086 54.41186,10.85277 31.63092,7.43857 57.19175,12.79205 57.19175,11.97829 0,-0.20867 -0.23422,-0.99546 -0.52052,-1.74841 -0.79798,-2.09894 -1.87171,-10.82462 -2.43696,-19.80431 -0.28041,-4.45506 -0.71482,-29.74953 -0.96528,-56.20992 -0.60221,-63.612879 -1.17639,-73.717949 -4.6911,-82.557659 -1.46043,-3.67302 -1.58615,-7.0279 -0.30673,-8.18576 1.26789,-1.14739 7.06566,-1.06607 13.57664,0.19041 4.52507,0.87325 5.71038,0.93255 9.17056,0.45879 8.93983,-1.22403 19.12158,-4.71895 28.88311,-9.91423 10.441,-5.55691 10.14758,-5.43268 12.00722,-5.08382 0.96004,0.18011 6.54878,2.73875 12.4194,5.68588 11.8028,5.92515 15.3376,8.42767 15.3376,10.85858 0,1.80923 -0.9728,3.73227 -2.70004,5.3375 -2.85242,2.65093 -3.54344,5.3834 -5.64883,22.33669 -4.0154,32.333949 -5.9501,41.672829 -10.50831,50.724299 -3.01835,5.9936 -8.99113,12.49069 -13.68331,14.88447 -1.07942,0.55066 -2.91113,1.01555 -4.07048,1.03307 -4.1883,0.0633 -5.80906,-2.4811 -5.26841,-8.27087 0.53858,-5.76781 -1.24055,-8.8394 -10.32712,-17.8289 -6.17121,-6.10531 -7.84175,-8.42698 -6.80763,-9.46108 0.87501,-0.875 5.05369,-0.49883 9.70718,0.87385 7.87661,2.32345 9.6066,2.71083 11.42834,2.559 2.42557,-0.20214 3.0913,-1.6768 4.94323,-10.94985 2.88104,-14.42614 4.17996,-24.843419 4.19311,-33.627769 0.0113,-7.40382 -0.0883,-8.35068 -1.15635,-11.0149 -1.80991,-4.51479 -2.72547,-5.18877 -7.0205,-5.16809 -3.80691,0.0183 -6.12197,0.44918 -15.11801,2.81358 -4.80759,1.26357 -8.58406,1.96652 -17.96935,3.34486 l -1.52371,0.22377 -0.30098,47.978289 c -0.34845,55.54207 -1.15076,82.12654 -2.8184,93.38806 -0.63358,4.27871 -3.71815,13.83596 -5.14328,15.93598 -1.39783,2.05985 -2.25296,1.73265 9.59182,3.67017 22.72441,3.71717 37.55043,4.98803 58.17358,4.98654 15.20925,-9.8e-4 33.39545,-0.67006 41.72785,-1.53493 6.1589,-0.63926 11.5584,-0.57386 13.0093,0.15756 1.9384,0.97715 1.8102,2.43635 -0.3449,3.92636 -10.8118,7.47531 -72.14968,27.45814 -83.8109,27.30417 -1.91001,-0.0252 -5.79232,-0.44183 -8.62736,-0.92582 z m -455.57033,-3.75598 c 0,-1.25503 5.80788,-6.62455 16.21048,-14.98697 12.0319,-9.67218 15.53257,-12.89827 21.40936,-19.73011 10.77637,-12.52764 19.83267,-29.37828 25.21266,-46.91201 3.48075,-11.34399 7.46841,-31.11525 8.1321,-40.31989 0.43028,-5.96746 -0.37727,-12.14775 -2.26214,-17.3124 -2.79344,-7.65423 -1.72385,-9.62226 4.37046,-8.04155 4.20326,1.09022 12.2661,4.92514 15.79726,7.51362 3.63751,2.66645 4.59731,4.66944 4.16816,8.6985 -0.35181,3.30297 -3.10524,20.72176 -3.46982,21.95079 -0.36987,1.24688 17.93699,23.22795 33.71005,40.47569 24.59877,26.8986 41.7976,39.56697 65.96966,48.59216 13.91489,5.19543 23.13645,9.29526 25.77311,11.45848 0.99722,0.81817 1.12743,1.17374 0.69461,1.89679 -1.21273,2.02589 -6.96377,3.10503 -23.0313,4.32164 -8.87152,0.67173 -21.44274,1.80603 -27.25697,2.45938 -2.80546,0.31526 -9.13206,-0.47355 -12.62233,-1.57376 -2.07735,-0.65482 -3.21819,-1.43618 -5.09458,-3.48925 -6.93878,-7.59213 -25.88127,-36.18321 -52.01454,-78.5088 -4.70723,-7.62384 -8.66904,-13.85811 -8.80405,-13.85393 -0.135,0.004 -1.39501,3.49485 -2.80002,7.75705 -6.76733,20.52902 -17.7333,42.17807 -27.14323,53.58617 -7.4513,9.03357 -18.80777,18.19749 -31.17582,25.15682 -9.91537,5.57924 -23.09408,11.66191 -25.2667,11.66191 -0.27853,0 -0.50641,-0.36015 -0.50641,-0.80033 z M 67.12863,257.60643 c 0,-1.57344 2.69376,-4.80048 11.7444,-14.06945 9.36835,-9.59433 14.4842,-15.60754 21.76144,-25.57855 10.34525,-14.17468 18.53056,-27.87125 24.1361,-40.38716 l 2.88488,-6.44131 -1.89251,-2.34762 c -1.04088,-1.2912 -5.34618,-6.54496 -9.56734,-11.67503 -9.31314,-11.31848 -14.08487,-17.40945 -18.67103,-23.83301 -3.55844,-4.9841 -7.32288,-11.70054 -7.32288,-13.06535 0,-3.06687 14.95133,6.95391 35.27706,23.64362 4.9324,4.05006 9.15962,7.43231 9.39382,7.51611 0.68172,0.24394 9.30028,-27.18591 12.31057,-39.18021 1.24401,-4.95672 1.58348,-7.45777 1.76574,-13.009289 0.19582,-5.96478 0.10797,-7.09983 -0.6649,-8.59103 -0.84159,-1.62377 -1.04456,-1.72627 -3.69273,-1.86482 -3.52064,-0.18421 -10.20189,1.46833 -20.76179,5.13521 -37.50502,13.023469 -39.55834,13.564779 -43.96808,11.591149 -3.06679,-1.37257 -7.65036,-5.30916 -9.13862,-7.848689 -0.69236,-1.18142 -1.17677,-2.22121 -1.07646,-2.31063 0.1003,-0.0894 3.60651,-0.87661 7.79157,-1.7493 10.88166,-2.26908 21.18878,-4.86869 33.98503,-8.57151 6.13658,-1.77573 15.19399,-4.3135 20.12757,-5.63949 10.4174,-2.79987 12.8987,-3.78023 16.55862,-6.54235 2.9463,-2.22355 5.35287,-3.25445 7.67425,-3.28743 3.34526,-0.0475 10.78884,4.84753 17.67466,11.6232 6.35574,6.25409 6.76716,8.2607 2.59756,12.66942 -4.14219,4.37976 -6.7364,10.935929 -12.0381,30.422999 -3.80792,13.99649 -7.00387,23.77183 -10.99322,33.62456 -1.61192,3.98105 -2.93076,7.39608 -2.93076,7.58895 0,0.19288 1.96196,2.59665 4.35991,5.3417 7.50826,8.59507 12.50107,16.15569 15.3474,23.24059 3.61916,9.00859 5.7837,26.12122 3.70534,29.29414 -1.75087,2.67295 -3.72192,2.33518 -7.57224,-1.29764 -3.38118,-3.19018 -5.46461,-5.88779 -12.31155,-15.94092 -6.35846,-9.33593 -13.47932,-19.22708 -13.85576,-19.24619 -0.14471,-0.007 -1.47019,2.1368 -2.9455,4.76477 -5.77993,10.29578 -14.32589,22.3313 -21.20699,29.8664 -11.96378,13.10086 -39.18168,34.21374 -47.3809,36.7533 -0.88037,0.27268 -1.10456,0.15107 -1.10456,-0.59914 z m 440.96194,-71.55598 c -1.49839,-1.04951 -5.07971,-6.17495 -7.18881,-10.28832 -2.40242,-4.68544 -2.36559,-6.86884 0.24221,-14.35804 3.45599,-9.92508 3.7656,-11.05433 4.38918,-16.00846 0.85644,-6.80407 0.35275,-26.59972 -0.95734,-37.62541 -1.98943,-16.742949 -3.36219,-22.873629 -6.73965,-30.098899 -4.63807,-9.92203 -2.78341,-11.65827 9.71096,-9.09094 l 5.22121,1.07284 6.80624,-5.78966 c 21.2072,-18.0397 30.39733,-28.01467 33.53375,-36.39755 1.2536,-3.35048 1.27589,-5.29489 0.0834,-7.26641 -2.41595,-3.9942 -1.58257,-5.70348 2.78069,-5.70348 4.74299,0 17.6398,4.9588 22.46124,8.6363 2.07559,1.58313 3.17525,3.50797 3.17525,5.55793 0,3.04207 -8.46374,10.60558 -25.28219,22.59313 -12.61375,8.9906 -28.11252,19.27997 -34.11932,22.65123 l -5.15525,2.89334 0.57057,9.2119 c 0.90752,14.651859 1.63982,31.684829 1.63982,38.141349 0,6.29888 0.66281,13.13457 1.55039,15.98939 0.68124,2.19115 2.25938,3.92786 3.56707,3.9255 1.48515,-0.002 2.98032,-1.01679 16.16002,-10.96065 11.63242,-8.77648 16.95046,-12.11058 19.31693,-12.11058 4.2989,0 -0.73162,8.01222 -14.14581,22.53033 -19.24724,20.83117 -25.48795,28.45889 -29.45042,35.99585 -3.74378,7.12096 -5.40075,8.43907 -8.17015,6.49931 z M 185.18718,132.305 c -0.81188,-1.31364 2.37686,-8.25066 12.12352,-26.37436 10.60921,-19.727599 20.49955,-42.156449 27.22259,-61.734079 6.97366,-20.30747 7.90539,-31.10516 3.28635,-38.0850096 -3.33124,-5.03384 2.07707,-8.33167 8.85436,-5.39913997 6.00702,2.59923997 16.46603,11.34441957 18.2203,15.23469957 0.86304,1.91389 0.86575,2.13592 0.0617,5.06178 -3.23645,11.77741 -19.95946,47.86414 -30.47274,65.75738 -1.46406,2.49178 -2.5845,4.60794 -2.48988,4.70257 0.30139,0.30138 18.78025,-2.32784 25.47826,-3.62512 13.30792,-2.57749 32.3503,-7.92778 41.30568,-11.60556 8.78952,-3.60965 10.64832,-3.16225 24.18373,5.82084 8.07629,5.36003 13.37137,10.0153 13.37137,11.7557 0,1.47974 -2.64329,3.05826 -8.59103,5.13037 -8.90161,3.101209 -12.97766,6.182909 -27.0004,20.413679 -9.66577,9.80917 -11.77978,11.43765 -13.11474,10.1027 -0.88051,-0.88051 0.36387,-5.67944 4.83634,-18.65126 3.22624,-9.35729 4.19901,-12.793699 4.26525,-15.067419 l 0.0858,-2.9455 -1.96367,-0.16762 c -2.76488,-0.236 -8.84107,0.63258 -23.56398,3.36845 -14.99439,2.78632 -25.70257,4.188809 -37.5551,4.918729 -8.48582,0.52258 -8.60305,0.54522 -9.57286,1.84858 -9.81797,13.19465 -25.68605,30.02545 -28.32144,30.0397 -0.18657,9.9e-4 -0.47882,-0.22404 -0.64944,-0.50011 z M 458.47346,77.482961 c -4.14169,-2.13408 -12.50966,-8.69502 -17.65115,-13.83946 -9.0165,-9.02167 -14.69432,-17.72704 -15.98459,-24.50795 l -0.30913,-1.62459 2.3254,0.31816 c 5.9221,0.81028 14.72674,2.83351 19.04091,4.37546 6.51187,2.32743 11.55287,5.296 15.79865,9.30359 6.50778,6.14268 7.93678,11.58035 5.29651,20.15437 -2.30819,7.49563 -3.57938,8.36439 -8.5166,5.82042 z"
       id="path4176"
       inkscape:connector-curvature="0"
       sodipodi:nodetypes="ssssssssscsscssssssssssssssssscssscssscssscssssscssssssscsssscsscsssssssssssssssssssssssssscssssssssscssssscssssssscssssssssssssssscsssscsssssscsssssssscssscsssscccssssssscssssssssscsssscccssscsssas" />
  </g>
</svg>
