<?xml version="1.0" encoding="UTF-8" standalone="no"?>
<!-- Generator: Adobe Illustrator 17.1.0, SVG Export Plug-In . SVG Version: 6.00 Build 0)  -->

<svg
   xmlns:dc="http://purl.org/dc/elements/1.1/"
   xmlns:cc="http://creativecommons.org/ns#"
   xmlns:rdf="http://www.w3.org/1999/02/22-rdf-syntax-ns#"
   xmlns:svg="http://www.w3.org/2000/svg"
   xmlns="http://www.w3.org/2000/svg"
   xmlns:sodipodi="http://sodipodi.sourceforge.net/DTD/sodipodi-0.dtd"
   xmlns:inkscape="http://www.inkscape.org/namespaces/inkscape"
   version="1.1"
   id="Capa_1"
   x="0px"
   y="0px"
   viewBox="0 0 1620.0001 1079.9999"
   xml:space="preserve"
   inkscape:version="0.91 r13725"
   sodipodi:docname="Pie-izquierdo-Bienvenido-espanol.svg"
   width="457.20001mm"
   height="304.79999mm"><metadata
     id="metadata39"><rdf:RDF><cc:Work
         rdf:about=""><dc:format>image/svg+xml</dc:format><dc:type
           rdf:resource="http://purl.org/dc/dcmitype/StillImage" /><dc:title /></cc:Work></rdf:RDF></metadata><defs
     id="defs37" /><sodipodi:namedview
     pagecolor="#ffffff"
     bordercolor="#666666"
     borderopacity="1"
     objecttolerance="10"
     gridtolerance="10"
     guidetolerance="10"
     inkscape:pageopacity="0"
     inkscape:pageshadow="2"
     inkscape:window-width="1215"
     inkscape:window-height="1000"
     id="namedview35"
     showgrid="false"
     inkscape:zoom="0.78723089"
     inkscape:cx="216.60994"
     inkscape:cy="613.00311"
     inkscape:window-x="65"
     inkscape:window-y="24"
     inkscape:window-maximized="1"
     inkscape:current-layer="Capa_1"
     units="mm" /><g
     id="g5"
     transform="translate(0,868.02011)" /><g
     id="g7"
     transform="translate(0,868.02011)" /><g
     id="g9"
     transform="translate(0,868.02011)" /><g
     id="g11"
     transform="translate(0,868.02011)" /><g
     id="g13"
     transform="translate(0,868.02011)" /><g
     id="g15"
     transform="translate(0,868.02011)" /><g
     id="g17"
     transform="translate(0,868.02011)" /><g
     id="g19"
     transform="translate(0,868.02011)" /><g
     id="g21"
     transform="translate(0,868.02011)" /><g
     id="g23"
     transform="translate(0,868.02011)" /><g
     id="g25"
     transform="translate(0,868.02011)" /><g
     id="g27"
     transform="translate(0,868.02011)" /><g
     id="g29"
     transform="translate(0,868.02011)" /><g
     id="g31"
     transform="translate(0,868.02011)" /><g
     id="g33"
     transform="translate(0,868.02011)" /><path
     d="m 278.25393,630.45618 c -8.86092,66.24601 -17.15444,90.95105 -38.59185,114.93432 -22.62768,25.31 -61.10482,22.67865 -67.73394,22.01766 -3.96575,-0.15366 -19.02677,-1.17359 -36.07655,-7.78127 -32.98968,-12.78524 -52.962784,-38.87769 -56.238454,-73.4749 -2.48669,-26.28094 -1.6229,-47.82519 -0.78772,-68.66441 1.29749,-32.32676 2.63708,-65.74918 -8.08739,-121.3983 -4.05293,-21.03454 -7.51612,-37.9442 -10.57199,-52.86348 -10.4507,-51.04179 -15.21811,-74.34141 -16.17339,-131.3951 -0.87042,-52.39503 0.41895,-120.92157 11.5123,-149.82111 7.21568,-18.80233 17.22046,-26.50716 24.33753,-29.66457 4.1009,-1.8133 8.36786,-2.65488 12.52688,-2.50638 4.28244,-10.6253 11.948154,-18.97423 24.233034,-22.21044 6.16777,-1.62607 11.97208,-2.24546 17.36441,-1.85919 1.92148,-7.941968 5.28233,-16.108958 11.06061,-22.502858 6.57136,-7.26966 15.27762,-11.25673 25.17225,-11.52742 4.82374,-0.13208 9.28993,0.29114 13.33609,1.25878 3.22601,-6.67138 7.63759,-12.95891 13.67344,-17.60729 7.96913,-6.136388 17.62348,-8.621821 27.9178,-7.180856 8.62508,1.203263 16.29705,4.154308 22.07572,8.088486 4.3387,-6.191239 9.92201,-12.024658 17.07383,-16.316147 8.82841,-5.300762 23.58363,-10.21717 43.72698,-3.558108 54.69451,18.043465 45.75377,70.665903 42.50074,90.123303 -1.57961,9.43553 -4.81176,18.39517 -7.92851,27.05706 -3.88263,10.7758 -7.54606,20.95159 -6.57746,28.28787 0.50241,3.81082 1.42038,8.94801 2.478,14.89548 3.88158,21.78653 9.75319,54.71226 6.05077,83.2826 -2.32518,17.93554 -15.38318,39.9801 -31.91077,67.88999 -19.02227,32.12037 -40.57542,68.52172 -45.8619,100.46788 -4.77174,28.82756 0.13287,57.28205 5.32115,87.40322 5.22554,30.22012 10.60774,61.4706 6.17839,94.62518 z"
     id="path4169"
     inkscape:connector-curvature="0"
     style="fill:none;stroke:#ff0000" /><g
     transform="matrix(-0.00236114,-0.92375816,0.92363946,-0.00247007,110.22281,-66.577819)"
     style="font-style:normal;font-weight:normal;font-size:149.0271759px;line-height:125%;font-family:sans-serif;letter-spacing:0px;word-spacing:0px;fill:#000000;fill-opacity:1;stroke:none;stroke-width:1px;stroke-linecap:butt;stroke-linejoin:miter;stroke-opacity:1"
     id="text4182"><path
       d="m -674.47987,57.156895 q 6.62182,0 10.04187,-2.910687 3.42006,-2.910687 3.42006,-8.586526 0,-5.603073 -3.42006,-8.51376 -3.42005,-2.983454 -10.04187,-2.983454 l -15.4994,0 0,22.994427 15.4994,0 z m 0.94598,47.516965 q 8.44099,0 12.66149,-3.56559 4.29326,-3.565592 4.29326,-10.769543 0,-7.058416 -4.2205,-10.55124 -4.22049,-3.565592 -12.73425,-3.565592 l -16.44538,0 0,28.451965 16.44538,0 z m 26.05065,-39.075972 q 9.02313,2.619618 13.97129,9.678034 4.94817,7.058416 4.94817,17.318588 0,15.71771 -10.62401,23.43103 -10.624,7.71332 -32.30862,7.71332 l -46.49823,0 0,-108.641392 42.05943,0 q 22.63059,0 32.74523,6.840114 10.1874,6.840115 10.1874,21.90292 0,7.931622 -3.71112,13.534695 -3.71113,5.530305 -10.76954,8.222691 z"
       style="font-style:normal;font-variant:normal;font-weight:bold;font-stretch:normal;font-family:sans-serif;-inkscape-font-specification:'sans-serif Bold';fill:none;stroke:#ff0000;stroke-width:1.08260024px"
       id="path4239"
       inkscape:connector-curvature="0" /><path
       d="m -604.47784,15.097468 28.01536,0 0,108.641392 -28.01536,0 0,-108.641392 z"
       style="font-style:normal;font-variant:normal;font-weight:bold;font-stretch:normal;font-family:sans-serif;-inkscape-font-specification:'sans-serif Bold';fill:none;stroke:#ff0000;stroke-width:1.08260024px"
       id="path4241"
       inkscape:connector-curvature="0" /><path
       d="m -548.88372,15.097468 75.6051,0 0,21.175248 -47.58974,0 0,20.229275 44.75182,0 0,21.175248 -44.75182,0 0,24.886371 49.19061,0 0,21.17525 -77.20597,0 0,-108.641392 z"
       style="font-style:normal;font-variant:normal;font-weight:bold;font-stretch:normal;font-family:sans-serif;-inkscape-font-specification:'sans-serif Bold';fill:none;stroke:#ff0000;stroke-width:1.08260024px"
       id="path4243"
       inkscape:connector-curvature="0" /><path
       d="m -447.00968,15.097468 31.28988,0 39.51258,74.513588 0,-74.513588 26.56002,0 0,108.641392 -31.28989,0 -39.51257,-74.513587 0,74.513587 -26.56002,0 0,-108.641392 z"
       style="font-style:normal;font-variant:normal;font-weight:bold;font-stretch:normal;font-family:sans-serif;-inkscape-font-specification:'sans-serif Bold';fill:none;stroke:#ff0000;stroke-width:1.08260024px"
       id="path4245"
       inkscape:connector-curvature="0" /></g></svg>