<?xml version="1.0" encoding="UTF-8" standalone="no"?>
<!-- Generator: Adobe Illustrator 17.1.0, SVG Export Plug-In . SVG Version: 6.00 Build 0)  -->

<svg
   xmlns:dc="http://purl.org/dc/elements/1.1/"
   xmlns:cc="http://creativecommons.org/ns#"
   xmlns:rdf="http://www.w3.org/1999/02/22-rdf-syntax-ns#"
   xmlns:svg="http://www.w3.org/2000/svg"
   xmlns="http://www.w3.org/2000/svg"
   xmlns:sodipodi="http://sodipodi.sourceforge.net/DTD/sodipodi-0.dtd"
   xmlns:inkscape="http://www.inkscape.org/namespaces/inkscape"
   version="1.1"
   id="Capa_1"
   x="0px"
   y="0px"
   viewBox="0 0 1620.0001 1079.9999"
   xml:space="preserve"
   inkscape:version="0.91 r13725"
   sodipodi:docname="Pie-derecho-izquierdo-Bienvenido-español.svg"
   width="457.20001mm"
   height="304.79999mm"><metadata
     id="metadata39"><rdf:RDF><cc:Work
         rdf:about=""><dc:format>image/svg+xml</dc:format><dc:type
           rdf:resource="http://purl.org/dc/dcmitype/StillImage" /><dc:title /></cc:Work></rdf:RDF></metadata><defs
     id="defs37" /><sodipodi:namedview
     pagecolor="#ffffff"
     bordercolor="#666666"
     borderopacity="1"
     objecttolerance="10"
     gridtolerance="10"
     guidetolerance="10"
     inkscape:pageopacity="0"
     inkscape:pageshadow="2"
     inkscape:window-width="1215"
     inkscape:window-height="1000"
     id="namedview35"
     showgrid="false"
     inkscape:zoom="0.27832815"
     inkscape:cx="613.73371"
     inkscape:cy="721.84492"
     inkscape:window-x="65"
     inkscape:window-y="24"
     inkscape:window-maximized="1"
     inkscape:current-layer="Capa_1"
     units="mm" /><path
     d="m 811.09974,235.3867 c -2.88651,-26.14038 -15.60211,-37.74865 -27.49239,-40.45683 -1.44741,-11.36772 -6.7435,-21.39587 -17.80847,-27.64584 -5.54078,-3.1312 -11.00691,-5.20485 -16.33203,-6.19605 0.15345,-8.17431 -1.02438,-16.92924 -4.99334,-24.58099 -4.51225,-8.70517 -11.92346,-14.76851 -21.4249,-17.5389 -4.63667,-1.35201 -9.07842,-2.08194 -13.22157,-2.16488 -1.42666,-7.27435 -4.10167,-14.4699 -8.75908,-20.495906 -6.15043,-7.95866 -14.85974,-12.80684 -25.18235,-14.02614 -8.8752,-1.05341 -16.92924,-0.0871 -23.41975,2.18562 -2.46349,-6.63567 -6.06334,-13.24645 -11.30551,-18.95727 -9.48071,-10.33505 -22.64421,-15.79703 -38.05969,-15.79703 -1.42667,0 -2.88652,0.0498 -4.39613,0.14101 -57.36118,3.604 -62.1596,56.490256 -63.96781,76.397246 -0.86679,9.52632 -0.0166,19.01532 0.80457,28.19328 1.02023,11.4009 1.98655,22.17556 -0.81287,29.01859 -1.45984,3.55838 -3.64547,8.29873 -6.17946,13.7856 -9.28164,20.08948 -23.30778,50.44765 -26.97398,79.02249 -2.26857,17.68405 3.91089,42.54291 11.73268,74.01255 9.0328,36.34686 19.26832,77.53361 16.25738,109.99859 -2.72891,29.42917 -13.67776,55.50733 -25.26529,83.11585 -11.50044,27.40945 -23.39902,55.75204 -27.47995,88.61517 -8.23237,66.33177 -6.47807,92.33938 8.1826,120.96818 15.47769,30.2503 53.41296,37.4459 59.94909,38.4744 2.8326,0.618 11.81149,2.3515 23.70177,2.3515 41.99962,0 72.60662,-20.4337 86.189,-57.5353 9.07427,-24.7967 13.6985,-45.85663 18.17758,-66.22812 6.94256,-31.59406 14.12152,-64.26642 38.61127,-115.36935 9.25676,-19.32222 16.89607,-34.80821 23.63956,-48.46938 23.05894,-46.72338 33.58062,-68.04459 48.96707,-122.98375 14.13396,-50.45595 30.26693,-117.06973 26.862,-147.83434 z"
     id="path3"
     inkscape:connector-curvature="0"
     style="fill:none;stroke:#ff0000" /><g
     id="g5"
     transform="translate(0,868.02011)" /><g
     id="g7"
     transform="translate(0,868.02011)" /><g
     id="g9"
     transform="translate(0,868.02011)" /><g
     id="g11"
     transform="translate(0,868.02011)" /><g
     id="g13"
     transform="translate(0,868.02011)" /><g
     id="g15"
     transform="translate(0,868.02011)" /><g
     id="g17"
     transform="translate(0,868.02011)" /><g
     id="g19"
     transform="translate(0,868.02011)" /><g
     id="g21"
     transform="translate(0,868.02011)" /><g
     id="g23"
     transform="translate(0,868.02011)" /><g
     id="g25"
     transform="translate(0,868.02011)" /><g
     id="g27"
     transform="translate(0,868.02011)" /><g
     id="g29"
     transform="translate(0,868.02011)" /><g
     id="g31"
     transform="translate(0,868.02011)" /><g
     id="g33"
     transform="translate(0,868.02011)" /><path
     d="m 430.12743,624.97519 c 15.67676,64.97145 16.87118,91.00402 5.54908,121.11332 -11.95249,31.7765 -48.78042,43.2272 -55.20043,45.0064 -3.75329,1.2898 -18.16513,5.7813 -36.45054,5.7813 -35.38053,0 -63.43281,-17.1117 -78.9893,-48.1873 -11.81563,-23.6064 -18.79552,-44.00694 -25.54731,-63.73975 -10.47191,-30.61115 -21.30049,-62.25913 -51.40982,-110.27232 -11.38017,-18.14855 -20.71987,-32.66407 -28.96053,-45.4709 -28.18914,-43.81613 -41.05403,-63.81851 -62.561888,-116.67159 -19.74526,-48.5399 -43.30602,-112.90169 -43.40555,-143.85707 -0.0664,-20.13925 6.47806,-30.93879 11.97322,-36.45469 3.16853,-3.17268 6.84303,-5.49931 10.77467,-6.86377 0.15345,-11.45481 4.28415,-22.00967 14.56943,-29.4665 5.16338,-3.745 10.351638,-6.42 15.519168,-8.00842 -1.0783,-8.09965 -0.89582,-16.92924 2.18147,-24.97913 3.50031,-9.15307 10.17746,-16.01684 19.30565,-19.84479 4.45004,-1.86628 8.76737,-3.08558 12.88978,-3.64546 0.59721,-7.38633 2.4386,-14.84316 6.38682,-21.35856 5.21315,-8.60148 13.31696,-14.40769 23.43635,-16.78409 8.47706,-1.99484 16.69699,-2.01558 23.50684,-0.43546 1.80822,-7.34071 4.90625,-14.79754 10.024,-21.38344 6.31633,-8.13283 18.29785,-18.04901 39.48636,-19.11901 57.51878,-2.94043 68.19805,49.35691 72.19604,68.675 1.93679,9.36873 2.16074,18.89091 2.3847,28.09375 0.27372,11.45067 0.535,22.26266 4.08922,28.75317 1.84555,3.37175 4.55788,7.83008 7.69323,12.99346 11.49214,18.91165 28.86514,47.49063 35.7372,75.46825 4.31319,17.56378 0.10369,42.83736 -5.22143,74.83371 -6.1297,36.82379 -13.07227,78.55384 -6.45734,110.25158 5.96795,28.60387 20.82355,53.3632 36.54593,79.57408 15.79287,26.28967 32.10416,53.48347 39.95498,85.99823 z"
     id="path4169"
     inkscape:connector-curvature="0"
     style="fill:none;stroke:#ff0000" /><g
     transform="matrix(-0.33601422,-0.86048194,0.8603319,-0.33607286,21.568262,35.763621)"
     style="font-style:normal;font-weight:normal;font-size:149.0271759px;line-height:125%;font-family:sans-serif;letter-spacing:0px;word-spacing:0px;fill:#000000;fill-opacity:1;stroke:none;stroke-width:1px;stroke-linecap:butt;stroke-linejoin:miter;stroke-opacity:1"
     id="text4182"><path
       d="m -674.47987,57.156895 q 6.62182,0 10.04187,-2.910687 3.42006,-2.910687 3.42006,-8.586526 0,-5.603073 -3.42006,-8.51376 -3.42005,-2.983454 -10.04187,-2.983454 l -15.4994,0 0,22.994427 15.4994,0 z m 0.94598,47.516965 q 8.44099,0 12.66149,-3.56559 4.29326,-3.565592 4.29326,-10.769543 0,-7.058416 -4.2205,-10.55124 -4.22049,-3.565592 -12.73425,-3.565592 l -16.44538,0 0,28.451965 16.44538,0 z m 26.05065,-39.075972 q 9.02313,2.619618 13.97129,9.678034 4.94817,7.058416 4.94817,17.318588 0,15.71771 -10.62401,23.43103 -10.624,7.71332 -32.30862,7.71332 l -46.49823,0 0,-108.641392 42.05943,0 q 22.63059,0 32.74523,6.840114 10.1874,6.840115 10.1874,21.90292 0,7.931622 -3.71112,13.534695 -3.71113,5.530305 -10.76954,8.222691 z"
       style="font-style:normal;font-variant:normal;font-weight:bold;font-stretch:normal;font-family:sans-serif;-inkscape-font-specification:'sans-serif Bold';fill:none;stroke:#ff0000;stroke-width:1.08260024px"
       id="path4239"
       inkscape:connector-curvature="0" /><path
       d="m -604.47784,15.097468 28.01536,0 0,108.641392 -28.01536,0 0,-108.641392 z"
       style="font-style:normal;font-variant:normal;font-weight:bold;font-stretch:normal;font-family:sans-serif;-inkscape-font-specification:'sans-serif Bold';fill:none;stroke:#ff0000;stroke-width:1.08260024px"
       id="path4241"
       inkscape:connector-curvature="0" /><path
       d="m -548.88372,15.097468 75.6051,0 0,21.175248 -47.58974,0 0,20.229275 44.75182,0 0,21.175248 -44.75182,0 0,24.886371 49.19061,0 0,21.17525 -77.20597,0 0,-108.641392 z"
       style="font-style:normal;font-variant:normal;font-weight:bold;font-stretch:normal;font-family:sans-serif;-inkscape-font-specification:'sans-serif Bold';fill:none;stroke:#ff0000;stroke-width:1.08260024px"
       id="path4243"
       inkscape:connector-curvature="0" /><path
       d="m -447.00968,15.097468 31.28988,0 39.51258,74.513588 0,-74.513588 26.56002,0 0,108.641392 -31.28989,0 -39.51257,-74.513587 0,74.513587 -26.56002,0 0,-108.641392 z"
       style="font-style:normal;font-variant:normal;font-weight:bold;font-stretch:normal;font-family:sans-serif;-inkscape-font-specification:'sans-serif Bold';fill:none;stroke:#ff0000;stroke-width:1.08260024px"
       id="path4245"
       inkscape:connector-curvature="0" /></g><g
     transform="matrix(0.25043645,-0.96813298,0.9681331,0.25043645,-10.162204,0)"
     style="font-style:normal;font-weight:normal;font-size:125.15630341px;line-height:125%;font-family:sans-serif;letter-spacing:0px;word-spacing:0px;fill:none;fill-opacity:1;stroke:#ff0000;stroke-width:1px;stroke-linecap:butt;stroke-linejoin:miter;stroke-opacity:1"
     id="text4186"><path
       d="m -548.51096,693.34083 23.65015,0 24.20014,67.34484 24.13903,-67.34484 23.65014,0 -33.79464,91.23943 -28.05017,0 -33.79465,-91.23943 z"
       style="font-style:normal;font-variant:normal;font-weight:bold;font-stretch:normal;font-family:sans-serif;-inkscape-font-specification:'sans-serif Bold';fill:none;stroke:#ff0000"
       id="path4226"
       inkscape:connector-curvature="0" /><path
       d="m -440.83254,693.34083 63.49483,0 0,17.78344 -39.96691,0 0,16.98899 37.58356,0 0,17.78344 -37.58356,0 0,20.90012 41.31136,0 0,17.78344 -64.83928,0 0,-91.23943 z"
       style="font-style:normal;font-variant:normal;font-weight:bold;font-stretch:normal;font-family:sans-serif;-inkscape-font-specification:'sans-serif Bold';fill:none;stroke:#ff0000"
       id="path4228"
       inkscape:connector-curvature="0" /><path
       d="m -355.27647,693.34083 26.27794,0 33.18353,62.57815 0,-62.57815 22.30569,0 0,91.23943 -26.27794,0 -33.18353,-62.57815 0,62.57815 -22.30569,0 0,-91.23943 z"
       style="font-style:normal;font-variant:normal;font-weight:bold;font-stretch:normal;font-family:sans-serif;-inkscape-font-specification:'sans-serif Bold';fill:none;stroke:#ff0000"
       id="path4230"
       inkscape:connector-curvature="0" /><path
       d="m -250.40917,693.34083 23.52791,0 0,91.23943 -23.52791,0 0,-91.23943 z"
       style="font-style:normal;font-variant:normal;font-weight:bold;font-stretch:normal;font-family:sans-serif;-inkscape-font-specification:'sans-serif Bold';fill:none;stroke:#ff0000"
       id="path4232"
       inkscape:connector-curvature="0" /><path
       d="m -180.19208,711.12427 0,55.67255 8.43339,0 q 14.4223,0 22.00013,-7.15004 7.63893,-7.15004 7.63893,-20.7779 0,-13.56675 -7.57782,-20.65568 -7.57782,-7.08893 -22.06124,-7.08893 l -8.43339,0 z m -23.52792,-17.78344 24.81126,0 q 20.7779,0 30.92241,2.99446 10.20562,2.93335 17.47788,10.02228 6.41671,6.17226 9.53339,14.23898 3.11669,8.06671 3.11669,18.27233 0,10.32784 -3.11669,18.45566 -3.11668,8.06672 -9.53339,14.23898 -7.33337,7.08893 -17.6001,10.08339 -10.26673,2.93335 -30.80019,2.93335 l -24.81126,0 0,-91.23943 z"
       style="font-style:normal;font-variant:normal;font-weight:bold;font-stretch:normal;font-family:sans-serif;-inkscape-font-specification:'sans-serif Bold';fill:none;stroke:#ff0000"
       id="path4234"
       inkscape:connector-curvature="0" /><path
       d="m -58.152474,708.74092 q -10.755619,0 -16.683433,7.94449 -5.927813,7.94449 -5.927813,22.3668 0,14.3612 5.927813,22.30569 5.927814,7.94449 16.683433,7.94449 10.816732,0 16.744545,-7.94449 5.927813,-7.94449 5.927813,-22.30569 0,-14.42231 -5.927813,-22.3668 -5.927813,-7.94449 -16.744545,-7.94449 z m 0,-17.0501 q 22.000132,0 34.466873,12.58896 12.466741,12.58897 12.466741,34.77243 0,22.12236 -12.466741,34.71132 -12.466741,12.58896 -34.466873,12.58896 -21.93902,0 -34.466872,-12.58896 -12.466744,-12.58896 -12.466744,-34.71132 0,-22.18346 12.466744,-34.77243 12.527852,-12.58896 34.466872,-12.58896 z"
       style="font-style:normal;font-variant:normal;font-weight:bold;font-stretch:normal;font-family:sans-serif;-inkscape-font-specification:'sans-serif Bold';fill:none;stroke:#ff0000"
       id="path4236"
       inkscape:connector-curvature="0" /></g></svg>