<?xml version="1.0" encoding="UTF-8" standalone="no"?>
<!-- Generator: Adobe Illustrator 17.1.0, SVG Export Plug-In . SVG Version: 6.00 Build 0)  -->

<svg
   xmlns:dc="http://purl.org/dc/elements/1.1/"
   xmlns:cc="http://creativecommons.org/ns#"
   xmlns:rdf="http://www.w3.org/1999/02/22-rdf-syntax-ns#"
   xmlns:svg="http://www.w3.org/2000/svg"
   xmlns="http://www.w3.org/2000/svg"
   xmlns:sodipodi="http://sodipodi.sourceforge.net/DTD/sodipodi-0.dtd"
   xmlns:inkscape="http://www.inkscape.org/namespaces/inkscape"
   version="1.1"
   id="Capa_1"
   x="0px"
   y="0px"
   viewBox="0 0 1620.0001 1079.9999"
   xml:space="preserve"
   inkscape:version="0.91 r13725"
   sodipodi:docname="Pie-derecho-Bienvenido-espanol.svg"
   width="457.20001mm"
   height="304.79999mm"><metadata
     id="metadata39"><rdf:RDF><cc:Work
         rdf:about=""><dc:format>image/svg+xml</dc:format><dc:type
           rdf:resource="http://purl.org/dc/dcmitype/StillImage" /><dc:title /></cc:Work></rdf:RDF></metadata><defs
     id="defs37" /><sodipodi:namedview
     pagecolor="#ffffff"
     bordercolor="#666666"
     borderopacity="1"
     objecttolerance="10"
     gridtolerance="10"
     guidetolerance="10"
     inkscape:pageopacity="0"
     inkscape:pageshadow="2"
     inkscape:window-width="1215"
     inkscape:window-height="1000"
     id="namedview35"
     showgrid="false"
     inkscape:zoom="0.5566563"
     inkscape:cx="526.14388"
     inkscape:cy="540.80968"
     inkscape:window-x="65"
     inkscape:window-y="24"
     inkscape:window-maximized="1"
     inkscape:current-layer="Capa_1"
     units="mm" /><path
     d="m 365.58243,213.82941 c -2.88651,-26.14038 -15.60211,-37.74865 -27.49239,-40.45683 -1.44741,-11.36772 -6.7435,-21.39587 -17.80847,-27.64584 -5.54078,-3.1312 -11.00691,-5.20485 -16.33203,-6.19605 0.15345,-8.17431 -1.02438,-16.92924 -4.99334,-24.58099 -4.51225,-8.70517 -11.92346,-14.76851 -21.4249,-17.538898 -4.63667,-1.35201 -9.07842,-2.08194 -13.22157,-2.16488 -1.42666,-7.27435 -4.10167,-14.4699 -8.75908,-20.495906 -6.15043,-7.95866 -14.85974,-12.80684 -25.18235,-14.02614 -8.8752,-1.05341 -16.92924,-0.0871 -23.41975,2.18562 -2.46349,-6.63567 -6.06334,-13.24645 -11.30551,-18.95727 -9.48071,-10.33505 -22.64421,-15.79703 -38.05969,-15.79703 -1.42667,0 -2.88652,0.0498 -4.39613,0.14101 -57.361176,3.604 -62.159596,56.490256 -63.967806,76.397244 -0.86679,9.52632 -0.0166,19.01532 0.80457,28.19328 1.02023,11.4009 1.98655,22.17556 -0.81287,29.01859 -1.45984,3.55838 -3.64547,8.29873 -6.17946,13.7856 -9.28164,20.08948 -23.30778,50.44765 -26.97398,79.02249 -2.26857,17.68405 3.91089,42.54291 11.73268,74.01255 9.0328,36.34686 19.26832,77.53361 16.25738,109.99859 -2.72891,29.42917 -13.67776,55.50733 -25.26529,83.11585 -11.50044,27.40945 -23.39902,55.75204 -27.47995,88.61517 -8.23237,66.33177 -6.47807,92.33938 8.1826,120.96818 15.47769,30.2503 53.41296,37.4459 59.94909,38.4744 2.832596,0.618 11.811486,2.3515 23.701766,2.3515 41.99962,0 72.60662,-20.4337 86.189,-57.5353 9.07427,-24.7967 13.6985,-45.85663 18.17758,-66.22812 6.94256,-31.59406 14.12152,-64.26642 38.61127,-115.36935 9.25676,-19.32222 16.89607,-34.80821 23.63956,-48.46938 23.05894,-46.72338 33.58062,-68.04459 48.96707,-122.98375 14.13396,-50.45595 30.26693,-117.06973 26.862,-147.83434 z"
     id="path3"
     inkscape:connector-curvature="0"
     style="fill:none;stroke:#ff0000" /><g
     id="g5"
     transform="translate(0,868.02011)" /><g
     id="g7"
     transform="translate(0,868.02011)" /><g
     id="g9"
     transform="translate(0,868.02011)" /><g
     id="g11"
     transform="translate(0,868.02011)" /><g
     id="g13"
     transform="translate(0,868.02011)" /><g
     id="g15"
     transform="translate(0,868.02011)" /><g
     id="g17"
     transform="translate(0,868.02011)" /><g
     id="g19"
     transform="translate(0,868.02011)" /><g
     id="g21"
     transform="translate(0,868.02011)" /><g
     id="g23"
     transform="translate(0,868.02011)" /><g
     id="g25"
     transform="translate(0,868.02011)" /><g
     id="g27"
     transform="translate(0,868.02011)" /><g
     id="g29"
     transform="translate(0,868.02011)" /><g
     id="g31"
     transform="translate(0,868.02011)" /><g
     id="g33"
     transform="translate(0,868.02011)" /><g
     transform="matrix(0.25043645,-0.96813298,0.9681331,0.25043645,-455.67951,-21.557288)"
     style="font-style:normal;font-weight:normal;font-size:125.15630341px;line-height:125%;font-family:sans-serif;letter-spacing:0px;word-spacing:0px;fill:none;fill-opacity:1;stroke:#ff0000;stroke-width:1px;stroke-linecap:butt;stroke-linejoin:miter;stroke-opacity:1"
     id="text4186"><path
       d="m -548.51096,693.34083 23.65015,0 24.20014,67.34484 24.13903,-67.34484 23.65014,0 -33.79464,91.23943 -28.05017,0 -33.79465,-91.23943 z"
       style="font-style:normal;font-variant:normal;font-weight:bold;font-stretch:normal;font-family:sans-serif;-inkscape-font-specification:'sans-serif Bold';fill:none;stroke:#ff0000"
       id="path4226"
       inkscape:connector-curvature="0" /><path
       d="m -440.83254,693.34083 63.49483,0 0,17.78344 -39.96691,0 0,16.98899 37.58356,0 0,17.78344 -37.58356,0 0,20.90012 41.31136,0 0,17.78344 -64.83928,0 0,-91.23943 z"
       style="font-style:normal;font-variant:normal;font-weight:bold;font-stretch:normal;font-family:sans-serif;-inkscape-font-specification:'sans-serif Bold';fill:none;stroke:#ff0000"
       id="path4228"
       inkscape:connector-curvature="0" /><path
       d="m -355.27647,693.34083 26.27794,0 33.18353,62.57815 0,-62.57815 22.30569,0 0,91.23943 -26.27794,0 -33.18353,-62.57815 0,62.57815 -22.30569,0 0,-91.23943 z"
       style="font-style:normal;font-variant:normal;font-weight:bold;font-stretch:normal;font-family:sans-serif;-inkscape-font-specification:'sans-serif Bold';fill:none;stroke:#ff0000"
       id="path4230"
       inkscape:connector-curvature="0" /><path
       d="m -250.40917,693.34083 23.52791,0 0,91.23943 -23.52791,0 0,-91.23943 z"
       style="font-style:normal;font-variant:normal;font-weight:bold;font-stretch:normal;font-family:sans-serif;-inkscape-font-specification:'sans-serif Bold';fill:none;stroke:#ff0000"
       id="path4232"
       inkscape:connector-curvature="0" /><path
       d="m -180.19208,711.12427 0,55.67255 8.43339,0 q 14.4223,0 22.00013,-7.15004 7.63893,-7.15004 7.63893,-20.7779 0,-13.56675 -7.57782,-20.65568 -7.57782,-7.08893 -22.06124,-7.08893 l -8.43339,0 z m -23.52792,-17.78344 24.81126,0 q 20.7779,0 30.92241,2.99446 10.20562,2.93335 17.47788,10.02228 6.41671,6.17226 9.53339,14.23898 3.11669,8.06671 3.11669,18.27233 0,10.32784 -3.11669,18.45566 -3.11668,8.06672 -9.53339,14.23898 -7.33337,7.08893 -17.6001,10.08339 -10.26673,2.93335 -30.80019,2.93335 l -24.81126,0 0,-91.23943 z"
       style="font-style:normal;font-variant:normal;font-weight:bold;font-stretch:normal;font-family:sans-serif;-inkscape-font-specification:'sans-serif Bold';fill:none;stroke:#ff0000"
       id="path4234"
       inkscape:connector-curvature="0" /><path
       d="m -58.152474,708.74092 q -10.755619,0 -16.683433,7.94449 -5.927813,7.94449 -5.927813,22.3668 0,14.3612 5.927813,22.30569 5.927814,7.94449 16.683433,7.94449 10.816732,0 16.744545,-7.94449 5.927813,-7.94449 5.927813,-22.30569 0,-14.42231 -5.927813,-22.3668 -5.927813,-7.94449 -16.744545,-7.94449 z m 0,-17.0501 q 22.000132,0 34.466873,12.58896 12.466741,12.58897 12.466741,34.77243 0,22.12236 -12.466741,34.71132 -12.466741,12.58896 -34.466873,12.58896 -21.93902,0 -34.466872,-12.58896 -12.466744,-12.58896 -12.466744,-34.71132 0,-22.18346 12.466744,-34.77243 12.527852,-12.58896 34.466872,-12.58896 z"
       style="font-style:normal;font-variant:normal;font-weight:bold;font-stretch:normal;font-family:sans-serif;-inkscape-font-specification:'sans-serif Bold';fill:none;stroke:#ff0000"
       id="path4236"
       inkscape:connector-curvature="0" /></g></svg>