<?xml version="1.0" encoding="UTF-8" standalone="no"?>
<!-- Generator: Adobe Illustrator 17.1.0, SVG Export Plug-In . SVG Version: 6.00 Build 0)  -->

<svg
   xmlns:dc="http://purl.org/dc/elements/1.1/"
   xmlns:cc="http://creativecommons.org/ns#"
   xmlns:rdf="http://www.w3.org/1999/02/22-rdf-syntax-ns#"
   xmlns:svg="http://www.w3.org/2000/svg"
   xmlns="http://www.w3.org/2000/svg"
   xmlns:sodipodi="http://sodipodi.sourceforge.net/DTD/sodipodi-0.dtd"
   xmlns:inkscape="http://www.inkscape.org/namespaces/inkscape"
   version="1.1"
   id="Capa_1"
   x="0px"
   y="0px"
   viewBox="0 0 1620.0001 1079.9999"
   xml:space="preserve"
   inkscape:version="0.91 r13725"
   sodipodi:docname="Pie-derecho.svg"
   width="457.20001mm"
   height="304.79999mm"><metadata
     id="metadata39"><rdf:RDF><cc:Work
         rdf:about=""><dc:format>image/svg+xml</dc:format><dc:type
           rdf:resource="http://purl.org/dc/dcmitype/StillImage" /><dc:title></dc:title></cc:Work></rdf:RDF></metadata><defs
     id="defs37" /><sodipodi:namedview
     pagecolor="#ffffff"
     bordercolor="#666666"
     borderopacity="1"
     objecttolerance="10"
     gridtolerance="10"
     guidetolerance="10"
     inkscape:pageopacity="0"
     inkscape:pageshadow="2"
     inkscape:window-width="1855"
     inkscape:window-height="1056"
     id="namedview35"
     showgrid="false"
     inkscape:zoom="0.55665629"
     inkscape:cx="381.0214"
     inkscape:cy="511.09585"
     inkscape:window-x="69"
     inkscape:window-y="1048"
     inkscape:window-maximized="1"
     inkscape:current-layer="Capa_1"
     units="mm" /><path
     d="m 354.54844,197.00762 c -2.88651,-26.14038 -15.60211,-37.74865 -27.49239,-40.45683 -1.44741,-11.36772 -6.7435,-21.39587 -17.80847,-27.64584 -5.54078,-3.1312 -11.00691,-5.20485 -16.33203,-6.19605 0.15345,-8.17431 -1.02438,-16.92924 -4.99334,-24.580994 -4.51225,-8.70517 -11.92346,-14.76851 -21.4249,-17.5389 -4.63667,-1.35201 -9.07842,-2.08194 -13.22157,-2.16488 -1.42666,-7.27435 -4.10167,-14.4699 -8.75908,-20.49591 -6.15043,-7.95866 -14.85974,-12.80684 -25.18235,-14.02614 -8.8752,-1.05341 -16.92924,-0.0871 -23.41975,2.18562 -2.46349,-6.63567 -6.06334,-13.24645 -11.30551,-18.95727 -9.48071,-10.33505 -22.64421,-15.79703 -38.05969,-15.79703 -1.42667,0 -2.88652,0.0498 -4.39613,0.14101 -57.361177,3.604 -62.159597,56.49025 -63.967807,76.39725 -0.86679,9.52632 -0.0166,19.015324 0.80457,28.193284 1.02023,11.4009 1.98655,22.17556 -0.81287,29.01859 -1.45984,3.55838 -3.64547,8.29873 -6.17946,13.7856 -9.28164,20.08948 -23.30778,50.44765 -26.97398,79.02249 -2.26857,17.68405 3.91089,42.54291 11.73268,74.01255 9.0328,36.34686 19.26832,77.53361 16.25738,109.99859 -2.72891,29.42917 -13.67776,55.50733 -25.26529,83.11585 -11.50044,27.40945 -23.39902,55.75204 -27.47995,88.61517 -8.23237,66.33177 -6.47807,92.33938 8.1826,120.96818 15.47769,30.2503 53.41296,37.4459 59.94909,38.4744 2.8326,0.618 11.811487,2.3515 23.701767,2.3515 41.99962,0 72.60662,-20.4337 86.189,-57.5353 9.07427,-24.7967 13.6985,-45.85663 18.17758,-66.22812 6.94256,-31.59406 14.12152,-64.26642 38.61127,-115.36935 9.25676,-19.32222 16.89607,-34.80821 23.63956,-48.46938 23.05894,-46.72338 33.58062,-68.04459 48.96707,-122.98375 14.13396,-50.45595 30.26693,-117.06973 26.862,-147.83434 z"
     id="path3"
     inkscape:connector-curvature="0"
     style="fill:none;stroke:#ff0000" /><g
     id="g5"
     transform="translate(0,868.02011)" /><g
     id="g7"
     transform="translate(0,868.02011)" /><g
     id="g9"
     transform="translate(0,868.02011)" /><g
     id="g11"
     transform="translate(0,868.02011)" /><g
     id="g13"
     transform="translate(0,868.02011)" /><g
     id="g15"
     transform="translate(0,868.02011)" /><g
     id="g17"
     transform="translate(0,868.02011)" /><g
     id="g19"
     transform="translate(0,868.02011)" /><g
     id="g21"
     transform="translate(0,868.02011)" /><g
     id="g23"
     transform="translate(0,868.02011)" /><g
     id="g25"
     transform="translate(0,868.02011)" /><g
     id="g27"
     transform="translate(0,868.02011)" /><g
     id="g29"
     transform="translate(0,868.02011)" /><g
     id="g31"
     transform="translate(0,868.02011)" /><g
     id="g33"
     transform="translate(0,868.02011)" /><path
     style="fill:none;stroke:#ff0000;stroke-width:1"
     d="m 100.36723,421.31246 c 0.5737,-1.47726 1.38774,-3.38489 1.80896,-4.23918 1.8244,-3.70019 8.18375,-14.07374 17.99943,-29.36119 10.90246,-16.98004 17.45312,-27.90884 19.85243,-33.12077 2.31141,-5.02098 3.7976,-9.14953 4.44284,-12.34194 0.82083,-4.06068 0.73267,-5.01426 -1.85855,-20.12153 -0.37791,-2.20328 -0.71026,-4.26265 -0.73856,-4.5764 -0.0787,-0.87245 2.29261,-3.35177 4.86731,-5.08909 2.27133,-1.5326 4.02814,-2.0584 5.72128,-1.71231 l 0.69588,0.14224 -0.24993,5.67812 c -0.43067,9.78405 -0.93984,15.57471 -1.82449,20.74925 l -0.85518,5.0022 0.75649,0.15463 c 2.92711,0.59832 9.55615,0.49462 18.20818,-0.28482 8.52282,-0.76779 10.69475,-0.80443 12.58515,-0.21235 0.8549,0.26773 3.31411,1.28354 5.46492,2.25729 6.75791,3.05956 9.85555,4.03214 10.53614,3.30807 0.78363,-0.83371 0.62502,-3.99316 -0.59122,-11.77632 -0.98309,-6.29124 -1.22236,-8.58301 -1.00639,-9.63958 0.45097,-2.20627 5.3688,-6.47556 6.59852,-5.72833 0.41774,0.25383 0.5965,2.3452 0.51163,5.98543 -0.22242,9.53895 0.77964,16.49394 2.89733,20.10953 1.04145,1.77808 1.26547,2.69718 0.98812,4.05402 -0.61139,2.99112 -7.17424,11.17095 -9.95269,12.40489 -1.81564,0.80635 -3.57668,-0.23735 -4.19823,-2.48812 -0.35845,-1.29804 -1.16012,-2.37296 -3.01187,-4.03841 -2.80201,-2.52014 -9.0374,-6.67006 -11.7988,-7.8526 -1.4526,-0.62205 -1.62721,-0.63706 -3.48646,-0.29966 -3.68742,0.66914 -14.3874,0.69922 -21.40108,0.0602 -2.15806,-0.19664 -4.0641,-0.34091 -4.23564,-0.32059 -0.17155,0.0204 -0.58485,0.95491 -0.91844,2.07689 -1.67839,5.64491 -3.9575,11.06303 -11.85378,28.17998 -7.49972,16.25725 -13.20578,29.46712 -12.76719,29.55677 0.11247,0.023 0.56236,-0.0168 0.99978,-0.0884 1.21933,-0.19957 6.04067,0.18203 10.94281,0.86614 2.43208,0.33941 16.11292,2.8915 30.40185,5.67135 34.35174,6.68295 39.86141,7.48621 45.01359,6.56255 2.1408,-0.3838 3.96284,-0.0821 4.4457,0.73621 0.4785,0.81091 -0.20513,3.93202 -1.60084,7.30872 -0.97001,2.34676 -1.13277,2.98014 -1.25927,4.9004 -0.32682,4.96124 0.43325,10.84314 2.15613,16.68549 1.8428,6.24903 1.80822,6.07693 1.41498,7.04246 -0.20303,0.49846 -2.19877,3.23382 -4.43502,6.07853 -4.49593,5.71927 -6.23479,7.35192 -7.54497,7.08412 -0.97512,-0.19932 -1.90423,-0.93637 -2.57879,-2.04569 -1.11398,-1.83203 -2.51044,-2.50612 -11.41539,-5.51046 -16.98383,-5.72994 -21.80369,-7.80329 -26.17913,-11.26132 -2.89728,-2.2898 -5.73989,-6.23014 -6.51226,-9.02704 -0.17767,-0.64342 -0.2261,-1.68353 -0.10761,-2.31137 0.4281,-2.26812 1.97829,-2.86282 5.03912,-1.9331 3.04923,0.9262 4.90105,0.30407 10.74882,-3.61119 3.97158,-2.65907 5.40723,-3.30518 5.85046,-2.63296 0.37505,0.56879 -0.28884,2.78331 -1.54219,5.14439 -2.12147,3.99641 -2.52116,4.88772 -2.64036,5.88796 -0.15872,1.33177 0.5626,1.85364 5.35612,3.87503 7.45728,3.1447 12.92852,4.99359 17.66155,5.96844 3.98922,0.82154 4.5105,0.87226 6.06428,0.58919 2.63306,-0.47974 3.09735,-0.89978 3.56017,-3.22083 0.4103,-2.05726 0.43348,-3.35459 0.15189,-8.4718 -0.1505,-2.73471 -0.11263,-4.85096 0.18019,-10.0697 l 0.0475,-0.84726 -25.82553,-5.44813 c -29.89693,-6.30704 -44.13657,-9.66892 -50.02213,-11.80989 -2.23617,-0.81343 -7.04683,-3.5316 -8.02141,-4.53235 -0.95593,-0.98158 -0.68522,-1.4072 -3.03658,4.77405 -4.51114,11.85883 -6.83219,19.72301 -9.1072,30.85707 -1.67785,8.21122 -3.32413,18.10319 -3.77749,22.69693 -0.33512,3.39546 -0.96622,6.30331 -1.52056,7.00603 -0.74056,0.93885 -1.51287,0.70887 -2.07812,-0.61875 -2.83584,-6.66056 -6.837138,-41.97677 -5.467295,-48.25542 0.224294,-1.02839 0.877325,-3.07845 1.451035,-4.55569 z M 152.665,175.77527 c 0.67641,0.13826 2.9295,3.86533 6.28862,10.40269 3.88523,7.56128 5.23768,9.80661 8.27132,13.73199 5.56277,7.19803 13.64534,13.94368 22.50176,18.77985 5.72993,3.12891 15.94596,7.45989 20.83372,8.83225 3.16878,0.88972 6.58888,1.1346 9.58046,0.686 4.43363,-0.66488 5.37631,0.12939 3.85184,3.2454 -1.05144,2.14914 -4.00809,6.07957 -5.79288,7.70079 -1.83853,1.67005 -3.02399,1.96756 -5.14817,1.292 -1.74136,-0.55381 -10.82569,-3.9593 -11.44786,-4.29153 -0.63122,-0.33705 -14.49851,7.12477 -25.53509,13.74011 -17.21201,10.31693 -25.9378,18.2065 -33.46953,30.2621 -4.33571,6.93994 -7.56302,11.46676 -9.01988,12.65191 -0.55101,0.44824 -0.75703,0.47937 -1.09896,0.16604 -0.95806,-0.87792 -0.90504,-4.10164 0.21234,-12.91013 0.61695,-4.86351 1.39287,-11.77535 1.68235,-14.98629 0.13967,-1.54933 1.26298,-4.87799 2.24112,-6.64111 0.58216,-1.04937 1.12918,-1.57919 2.44278,-2.36603 4.85763,-2.90966 22.35765,-9.98644 48.05367,-19.43224 4.62845,-1.70142 8.42572,-3.15349 8.43836,-3.22685 0.0129,-0.0733 -1.72967,-1.13814 -3.8718,-2.36622 -10.31769,-5.91515 -20.77571,-14.22041 -25.88588,-20.5574 -4.04655,-5.01797 -7.73238,-12.15861 -10.11839,-19.60249 -1.91283,-5.96772 -3.73689,-13.75268 -3.49714,-14.92561 0.0307,-0.15038 0.24999,-0.23373 0.48724,-0.18523 z m 16.50837,-45.49652 c 0.84802,0.17334 2.29004,1.98314 6.28694,7.89049 4.13722,6.11472 6.8136,9.5391 11.38459,14.56638 6.49807,7.14673 12.9768,13.07468 19.10389,17.47981 l 3.1533,2.26711 1.47414,-0.76309 c 0.81077,-0.4197 4.11749,-2.16524 7.34824,-3.87896 7.12803,-3.781 10.93743,-5.68612 14.90562,-7.45441 3.07895,-1.37202 7.11431,-2.66443 7.8499,-2.51407 1.65295,0.33787 -5.39785,7.30575 -16.63606,16.44045 -2.72716,2.2167 -5.01656,4.12626 -5.08758,4.24346 -0.2067,0.34117 13.62601,8.01599 19.75836,10.96254 2.53423,1.21769 3.84476,1.67649 6.81673,2.38648 3.19322,0.76285 3.81466,0.84046 4.70367,0.58748 0.96803,-0.27546 1.04567,-0.37375 1.41258,-1.78816 0.4878,-1.88041 0.33442,-5.6695 -0.4766,-11.7745 -2.88045,-21.68278 -2.9456,-22.85095 -1.39525,-25.01423 1.0782,-1.50447 3.7057,-3.54534 5.23866,-4.06905 0.71316,-0.24363 1.32701,-0.3906 1.36414,-0.32659 0.0371,0.064 0.0745,2.04363 0.083,4.39918 0.0222,6.12472 0.28584,11.97567 0.86943,19.29197 0.27988,3.50861 0.64814,8.67806 0.81837,11.48766 0.35946,5.93255 0.61403,7.38014 1.69884,9.66033 0.87328,1.83559 1.16333,3.24842 0.92493,4.50531 -0.34358,1.81125 -3.80323,5.29058 -8.21497,8.2616 -4.07213,2.74231 -5.19902,2.74336 -7.11505,0.007 -1.90345,-2.71877 -5.15074,-4.8416 -15.06858,-9.85068 -7.12344,-3.59776 -12.03935,-6.4001 -16.90942,-9.6393 -1.96777,-1.30881 -3.66283,-2.39704 -3.76678,-2.41829 -0.10396,-0.0213 -1.61602,0.77314 -3.36014,1.76532 -5.46102,3.10663 -10.08691,4.96918 -14.21955,5.72533 -5.25472,0.96143 -14.71674,0.24476 -16.19749,-1.22684 -1.24741,-1.23973 -0.84786,-2.26663 1.53501,-3.94511 2.09252,-1.47396 3.77636,-2.30156 9.95024,-4.89052 5.73345,-2.40426 11.85027,-5.15895 11.9021,-5.36008 0.0199,-0.0773 -0.98942,-1.02912 -2.243,-2.11512 -4.91127,-4.25471 -10.45496,-10.19438 -13.75678,-14.73943 -5.7407,-7.90223 -14.1163,-24.92244 -14.58023,-29.62877 -0.0498,-0.50533 0.0405,-0.61296 0.44481,-0.53031 z m -10.09499,245.9474 c 0.73101,-0.69332 3.88866,-2.06213 6.33838,-2.74762 2.79042,-0.78082 3.96313,-0.5204 7.71179,1.71256 4.96792,2.95921 5.54238,3.25077 8.14368,4.13321 3.57267,1.21195 14.29747,3.12085 20.38453,3.62824 9.24344,0.77047 12.69918,0.70477 16.96607,-0.32265 5.85948,-1.41089 6.59059,-0.21833 3.82809,6.24422 l -1.15439,2.70061 2.36935,4.31235 c 7.38254,13.43662 11.74457,19.49705 15.91657,22.11385 1.66746,1.0459 2.71297,1.27215 3.90715,0.84559 2.41934,-0.86429 3.24863,-0.22606 2.76713,2.12955 -0.5234,2.56063 -4.61924,8.97699 -7.13335,11.17483 -1.0823,0.94615 -2.24108,1.32777 -3.34594,1.10194 -1.63957,-0.33514 -4.78207,-5.73775 -9.38701,-16.13825 -3.45368,-7.80031 -7.289,-17.30126 -8.44313,-20.91559 l -0.99052,-3.10195 -5.02788,-0.7068 c -7.99702,-1.12421 -17.25806,-2.60533 -20.73791,-3.31663 -3.3949,-0.69393 -7.15224,-1.08916 -8.78886,-0.92449 -1.25613,0.12638 -2.36631,0.78706 -2.50934,1.49331 -0.16317,0.80194 0.21912,1.72102 4.12413,9.93189 3.44657,7.24694 4.65667,10.48532 4.39553,11.76292 -0.47439,2.32086 -4.23759,-1.27767 -10.58209,-10.11908 -9.10334,-12.68601 -12.52576,-16.89554 -16.15066,-19.86511 -3.42483,-2.80567 -3.9524,-3.84543 -2.60133,-5.12686 z m 64.60033,-168.40644 c 0.7976,-0.2936 4.18455,2.19216 12.87706,9.45078 9.46178,7.90097 20.45879,15.71144 30.2686,21.49786 10.17549,6.00212 15.89228,7.69469 20.16393,5.96993 3.08069,-1.24387 4.26128,2.03925 1.93285,5.37506 -2.06379,2.9567 -7.93135,7.63982 -10.22167,8.15833 -1.12676,0.25508 -1.24673,0.23208 -2.73495,-0.52434 -5.99049,-3.04475 -23.59464,-16.04866 -32.07836,-23.69576 -1.18142,-1.06493 -2.19832,-1.90296 -2.25975,-1.86231 -0.1957,0.12952 -0.81784,10.39545 -0.85778,14.15445 -0.0794,7.46857 0.70287,18.3385 1.69683,23.57845 0.97553,5.14291 0.52927,6.09714 -5.80599,12.41493 -3.78012,3.76968 -6.87349,6.11551 -7.81151,5.92377 -0.79754,-0.16302 -1.35661,-1.76396 -1.81706,-5.20328 -0.68913,-5.14741 -1.90027,-7.68746 -8.02275,-16.82575 -4.22017,-6.29896 -4.86459,-7.61967 -3.99778,-8.19331 0.57174,-0.37836 3.02089,0.82214 9.51873,4.66577 4.68725,2.77263 6.43202,3.67639 7.65016,3.96264 l 1.57807,0.37084 0.30702,-1.04167 c 0.43231,-1.46669 0.6347,-4.84275 0.78486,-13.0927 0.15294,-8.40205 0.57872,-14.33764 1.49327,-20.81694 0.65478,-4.63884 0.65552,-4.70463 0.0601,-5.37179 -6.02804,-6.7541 -13.34822,-17.17508 -13.06508,-18.59943 0.0201,-0.10084 0.17359,-0.23382 0.34121,-0.29552 z m -0.61058,153.57999 c 1.60725,-2.00089 6.06682,-5.79574 9.40689,-8.00475 5.85737,-3.87389 11.17585,-5.98015 14.97293,-5.92971 l 0.90971,0.0121 -0.42809,1.22037 c -1.09024,3.10793 -3.15231,7.63844 -4.45945,9.79768 -1.97301,3.25919 -4.12926,5.65366 -6.75775,7.50434 -4.02886,2.83666 -7.11729,3.00909 -11.44705,0.6391 -3.78518,-2.0719 -4.11314,-2.85389 -2.19719,-5.23912 z"
     id="path4176"
     inkscape:connector-curvature="0"
     sodipodi:nodetypes="ssssssssscsscssssssssssssssssscssscssscssscssssscssssssscsssscsscsssssssssssssssssssssssssscssssssssscssssscssssssscssssssssssssssscsssscsssssscsssssssscssscsssscccssssssscssssssssscsssscccssscsssas" /></svg>