<?xml version="1.0" encoding="UTF-8" standalone="no"?>
<!-- Created with Inkscape (http://www.inkscape.org/) -->

<svg
   xmlns:dc="http://purl.org/dc/elements/1.1/"
   xmlns:cc="http://creativecommons.org/ns#"
   xmlns:rdf="http://www.w3.org/1999/02/22-rdf-syntax-ns#"
   xmlns:svg="http://www.w3.org/2000/svg"
   xmlns="http://www.w3.org/2000/svg"
   xmlns:sodipodi="http://sodipodi.sourceforge.net/DTD/sodipodi-0.dtd"
   xmlns:inkscape="http://www.inkscape.org/namespaces/inkscape"
   width="457.20001mm"
   height="304.79999mm"
   viewBox="0 0 1620 1080"
   id="svg2"
   version="1.1"
   inkscape:version="0.91 r13725"
   sodipodi:docname="tarjeta-modelo-2.svg">
  <defs
     id="defs4" />
  <sodipodi:namedview
     id="base"
     pagecolor="#ffffff"
     bordercolor="#666666"
     borderopacity="1.0"
     inkscape:pageopacity="0.0"
     inkscape:pageshadow="2"
     inkscape:zoom="0.82005988"
     inkscape:cx="261.03469"
     inkscape:cy="867.73989"
     inkscape:document-units="px"
     inkscape:current-layer="layer3"
     showgrid="false"
     inkscape:window-width="1215"
     inkscape:window-height="1000"
     inkscape:window-x="65"
     inkscape:window-y="24"
     inkscape:window-maximized="1"
     showguides="true"
     inkscape:guide-bbox="true" />
  <metadata
     id="metadata7">
    <rdf:RDF>
      <cc:Work
         rdf:about="">
        <dc:format>image/svg+xml</dc:format>
        <dc:type
           rdf:resource="http://purl.org/dc/dcmitype/StillImage" />
        <dc:title></dc:title>
      </cc:Work>
    </rdf:RDF>
  </metadata>
  <g
     inkscape:groupmode="layer"
     id="layer3"
     inkscape:label="grabado">
    <path
       inkscape:connector-curvature="0"
       id="path4193"
       d="m 304.72458,89.036868 c -1.40464,0 -1.56935,-0.42166 -0.49514,-1.2675 1.25433,-0.98767 1.43823,-0.95494 1.43823,0.25601 0,0.78993 -0.20658,1.01149 -0.94309,1.01149 z m -0.5726,-45.59444 c -0.16671,0.0952 -6.98728,1.41934 -15.1568,2.9427 l -14.85367,2.76977 0,7.39843 0,7.39844 -2.81228,0 -2.81226,0 -0.11804,-3.08793 c -0.10237,-2.6772 -0.23835,-3.16764 -1.0225,-3.68742 -0.82227,-0.54507 -0.92623,-0.53102 -1.14437,0.15457 -1.15173,3.61976 -2.5506,6.1409 -4.58494,8.26331 -3.50969,3.66165 -3.51774,3.67335 -8.01351,11.65002 -4.95429,8.7902 -4.84067,8.54586 -3.87597,8.33565 1.2609,-0.27474 12.36224,-1.02461 12.53966,-0.84702 0.0923,0.0924 -0.31916,0.68884 -0.91422,1.32556 -0.59506,0.63672 -1.33623,1.54082 -1.64704,2.00912 -0.49929,0.75227 -1.10807,0.88394 -5.22685,1.13044 -4.57415,0.27375 -4.68315,0.30298 -5.80149,1.55592 -1.44922,1.62362 -3.5379,1.75788 -5.0612,0.32535 -0.9707,-0.91287 -1.1792,-0.94059 -5.12577,-0.68169 -3.52542,0.23127 -4.22064,0.1732 -4.85983,-0.40586 -0.41026,-0.37165 -0.74591,-0.98343 -0.74591,-1.35951 0,-1.45216 1.27401,-1.94951 5.75959,-2.24845 2.38971,-0.15927 4.34495,-0.45421 4.34495,-0.65544 0,-0.20122 -2.29051,-3.59018 -5.09,-7.53101 -3.46581,-4.87881 -5.76158,-7.69552 -7.19471,-8.82732 -4.34157,-3.42867 -7.35948,-8.27563 -8.35041,-13.41129 -2.35481,-12.20412 6.82299,-24.62651 19.13345,-25.89764 6.07297,-0.62707 10.90027,0.52824 15.64802,3.74503 5.72116,3.8763 9.13221,9.89206 9.59025,16.91346 0.18915,2.89945 0.3706,3.63285 0.9795,3.95907 0.70994,0.38034 0.74733,0.1254 0.74733,-5.09603 0,-6.07732 0.41853,-7.59661 2.21719,-8.04851 2.05825,-0.51712 3.44136,1.00498 3.44136,3.78718 0,1.50747 0.0799,1.63393 0.9094,1.43912 1.53855,-0.36133 28.90685,-5.87081 29.16328,-5.87081 0.35227,0 0.29504,2.34897 -0.0622,2.55279 z m -41.36189,2.40142 c -0.4726,-1.42161 -1.10453,-2.67897 -1.40429,-2.79412 -0.29977,-0.11514 -2.96582,1.24877 -5.92457,3.03093 l -5.37954,3.24028 0.14214,1.78901 0.14214,1.78901 6.33027,1.48597 c 3.48165,0.81727 6.4546,1.48346 6.60656,1.4804 0.9869,-0.0197 0.6549,-6.50918 -0.51271,-10.02148 z m -5.72526,10.24009 c -3.39007,-0.80964 -6.37175,-1.54228 -6.62596,-1.62808 -0.25422,-0.0858 -0.84041,0.24699 -1.30267,0.73955 l -0.84047,0.89556 3.44608,5.75109 c 1.89536,3.1631 3.6292,5.75109 3.853,5.75109 1.03335,0 4.89711,-4.34313 6.22176,-6.9937 0.77662,-1.55396 1.41203,-2.87445 1.41203,-2.93441 0,-0.06 -2.77369,-0.77145 -6.16377,-1.5811 z m 0.0652,-18.41127 c -1.54426,-1.24229 -5.24516,-3.3648 -5.47166,-3.13808 -0.0679,0.0679 -1.05749,2.80145 -2.19918,6.07449 l -2.0758,5.95097 0.92473,0.74957 c 0.92001,0.74575 0.94872,0.73517 5.59857,-2.06122 2.5706,-1.54595 5.08463,-3.0733 5.58674,-3.39412 l 0.91292,-0.58329 -0.87594,-1.18599 c -0.48176,-0.65229 -1.56193,-1.73783 -2.40038,-2.41233 z m -3.1322,34.21221 c -2.52457,1.20946 -6.75247,2.1678 -9.56368,2.1678 -2.53062,0 -6.99654,-0.93007 -8.69993,-1.81184 -0.71075,-0.36792 -1.22661,-0.48899 -1.14635,-0.26906 0.0803,0.21995 2.14438,3.20474 4.58693,6.63288 l 4.44099,6.23299 2.43009,-0.0921 2.43009,-0.0921 3.87924,-6.81058 c 2.13357,-3.74582 3.85444,-6.84795 3.82413,-6.89361 -0.0303,-0.0457 -1.01198,0.37538 -2.18151,0.93567 z m -3.15458,-8.61956 c -3.80177,-6.37519 -3.69396,-6.25351 -5.18686,-5.85383 -1.18806,0.31807 -1.196,0.34066 -2.09364,5.95851 -1.29932,8.13171 -1.46217,7.45994 1.8085,7.45994 3.12586,0 8.56117,-1.40811 8.56117,-2.21791 0,-0.0916 -1.39013,-2.49757 -3.08917,-5.34671 z m -2.7736,-29.77507 c -3.74764,-0.82224 -12.73074,0.9032 -12.18015,2.33951 0.11078,0.28893 1.80306,2.73749 3.76065,5.44125 3.44497,4.75804 3.60338,4.91208 4.93235,4.79602 l 1.37307,-0.1199 1.9484,-5.46209 c 1.07163,-3.00414 1.91058,-5.72723 1.86434,-6.05132 -0.047,-0.33014 -0.79397,-0.74498 -1.69866,-0.94347 z m 0.80398,16.14163 c -0.74056,-1.56223 -2.49392,-2.67326 -4.21877,-2.67326 -4.18955,0 -6.38828,4.71301 -3.6534,7.8311 2.1976,2.5055 5.94567,2.19987 7.66625,-0.62513 0.97539,-1.60148 1.02961,-2.79511 0.20592,-4.53271 z m -7.42763,6.79279 -1.56685,-0.85122 -5.37554,3.27881 c -2.95655,1.80334 -5.44326,3.49205 -5.52605,3.75267 -0.28453,0.89576 4.1968,4.85973 7.18682,6.35712 4.74329,2.37542 4.5656,2.52083 5.75147,-4.70683 0.5568,-3.39359 1.0314,-6.3522 1.05468,-6.57474 0.0233,-0.22253 -0.66275,-0.78764 -1.52453,-1.25581 z m -3.50147,-14.92927 c -1.90204,-2.66972 -3.62612,-4.91347 -3.83127,-4.98609 -0.20517,-0.0726 -1.3317,0.77725 -2.50342,1.88862 -2.2053,2.09172 -4.51692,5.53811 -4.97011,7.4099 -0.30484,1.25905 -0.794,1.05684 6.64015,2.74479 l 5.41717,1.22997 1.33605,-1.51313 c 0.73483,-0.83224 1.34363,-1.60469 1.35288,-1.71658 0.009,-0.11187 -1.53939,-2.38775 -3.44145,-5.05748 z m 0.33291,9.90694 c -0.50522,-0.42959 -11.89175,-2.83448 -12.28081,-2.59378 -0.67523,0.41774 -0.38405,6.07029 0.44962,8.72815 0.44359,1.41426 0.9459,2.78502 1.11624,3.04616 0.21414,0.32828 2.07213,-0.59348 6.02096,-2.98704 l 5.71124,-3.46184 -0.35353,-1.23396 c -0.19443,-0.67867 -0.49311,-1.35263 -0.66372,-1.49769 z m 53.9755,35.83792 c -0.73585,-0.1232 -3.50272,-0.51162 -6.14862,-0.86315 -2.64588,-0.35153 -5.23861,-0.91981 -5.7616,-1.26285 -0.70021,-0.45927 -1.09114,-0.50717 -1.48288,-0.18173 -0.3267,0.27142 -1.33972,0.3462 -2.62516,0.19381 l -2.09317,-0.24816 0,3.03629 c 0,2.45908 -0.15925,3.23894 -0.8377,4.10233 -1.63851,2.08519 -4.29746,0.91138 -4.69743,-2.07371 -0.16564,-1.23621 -0.41729,-1.71541 -0.90084,-1.71541 -0.36904,0 -1.4494,-0.79395 -2.40077,-1.76433 l -1.72978,-1.76434 1.29197,-0.25866 c 0.71058,-0.14226 1.81487,-0.25865 2.45398,-0.25865 1.12497,0 1.16202,-0.0645 1.16202,-2.023 0,-1.11265 0.13642,-2.01597 0.30315,-2.00741 0.16671,0.009 0.66689,0.6003 1.11148,1.31494 1.57192,2.52669 5.83586,3.79184 9.02678,2.67833 0.96389,-0.33636 2.44488,-0.28062 6.20823,0.2337 2.7183,0.37149 5.22233,0.81877 5.5645,0.99395 0.34217,0.17519 0.82416,0.24538 1.07109,0.15596 0.24692,-0.0894 0.75804,0.30963 1.1358,0.88677 l 0.68684,1.04933 -1.33789,-0.22401 z"
       style="display:inline;fill:#000000" />
  </g>
  <g
     inkscape:groupmode="layer"
     id="layer2"
     inkscape:label="Interior"
     style="display:inline">
    <g
       style="font-style:normal;font-weight:normal;font-size:17.5px;line-height:125%;font-family:sans-serif;letter-spacing:0px;word-spacing:0px;fill:none;fill-opacity:1;stroke:#ff0000;stroke-width:1.14858437px;stroke-linecap:butt;stroke-linejoin:miter;stroke-opacity:1"
       id="text4269"
       transform="matrix(0.8707582,0,0,0.87051576,-124.32843,-12.073324)">
      <path
         d="m 181.00691,198.68474 0,-2.3584 c 0.52409,0.24495 1.0254,0.43009 1.50391,0.55542 0.47851,0.11963 0.95133,0.17944 1.41846,0.17944 0.97981,0 1.74316,-0.27059 2.29003,-0.81176 0.54688,-0.54688 0.86874,-1.3558 0.96558,-2.42676 -0.38737,0.28483 -0.80037,0.49845 -1.23901,0.64087 -0.43864,0.14241 -0.91431,0.21362 -1.427,0.21362 -1.30453,0 -2.3584,-0.37882 -3.16163,-1.13647 -0.79753,-0.76335 -1.19629,-1.76595 -1.19629,-3.00782 0,-1.37288 0.44434,-2.47233 1.33301,-3.29834 0.89437,-0.82601 2.09066,-1.23901 3.58887,-1.23901 1.66341,0 2.95085,0.56112 3.8623,1.68335 0.91146,1.12223 1.36719,2.70874 1.36719,4.75952 0,2.10775 -0.53263,3.76546 -1.5979,4.97314 -1.06527,1.20199 -2.52645,1.80298 -4.38354,1.80298 -0.59815,0 -1.17066,-0.0456 -1.71753,-0.13672 -0.54687,-0.0855 -1.08236,-0.21647 -1.60645,-0.39306 z"
         style="font-style:normal;font-variant:normal;font-weight:bold;font-stretch:normal;font-family:sans-serif;-inkscape-font-specification:'sans-serif Bold';fill:none;stroke:#ff0000;stroke-width:1.14858437px"
         id="path4274"
         inkscape:connector-curvature="0"
         sodipodi:nodetypes="cccscccscscssscscc" />
      <path
         d="m 193.47395,196.69377 2.90528,0 0,-8.24585 -2.98218,0.61524 0,-2.23877 2.96509,-0.61524 3.12744,0 0,10.48462 2.90527,0 0,2.27295 -8.9209,0 0,-2.27295 z"
         style="font-style:normal;font-variant:normal;font-weight:bold;font-stretch:normal;font-family:sans-serif;-inkscape-font-specification:'sans-serif Bold';fill:none;stroke:#ff0000;stroke-width:1.14858437px"
         id="path4276"
         inkscape:connector-curvature="0" />
      <path
         d="m 209.48714,186.20915 3.65722,0 0,8.04932 1.82007,0 0,2.38403 -1.82007,0 0,2.32422 -3.11035,0 0,-2.32422 -5.65674,0 0,-2.81982 z"
         style="font-style:normal;font-variant:normal;font-weight:bold;font-stretch:normal;font-family:sans-serif;-inkscape-font-specification:'sans-serif Bold';fill:none;stroke:#ff0000;stroke-width:1.14858437px"
         id="path4278"
         inkscape:connector-curvature="0"
         sodipodi:nodetypes="cccccccccccc" />
      <path
         d="m 233.18221,192.60072 c 0,2.11345 -0.45573,3.74553 -1.36719,4.89624 -0.91146,1.14502 -2.20459,1.71753 -3.8794,1.71753 -1.6805,0 -2.97648,-0.57251 -3.88794,-1.71753 -0.91145,-1.15071 -1.36718,-2.78279 -1.36718,-4.89624 0,-2.11914 0.45573,-3.75122 1.36718,-4.89624 0.91146,-1.15071 2.20744,-1.72607 3.88794,-1.72607 1.67481,0 2.96794,0.57536 3.8794,1.72607 0.91146,1.14502 1.36719,2.7771 1.36719,4.89624 z"
         style="font-style:normal;font-variant:normal;font-weight:bold;font-stretch:normal;font-family:sans-serif;-inkscape-font-specification:'sans-serif Bold';fill:none;stroke:#ff0000;stroke-width:1.14858437px"
         id="path4280"
         inkscape:connector-curvature="0"
         sodipodi:nodetypes="scscscscs" />
      <path
         d="m 239.90706,186.20915 3.65723,0 0,8.04932 1.82006,0 0,2.38403 -1.82006,0 0,2.32422 -3.11036,0 0,-2.32422 -5.65673,0 0,-2.81982 z"
         style="font-style:normal;font-variant:normal;font-weight:bold;font-stretch:normal;font-family:sans-serif;-inkscape-font-specification:'sans-serif Bold';fill:none;stroke:#ff0000;stroke-width:1.14858437px"
         id="path4282"
         inkscape:connector-curvature="0"
         sodipodi:nodetypes="cccccccccccc" />
      <path
         d="m 260.31233,192.57512 q 0,-2.39258 -0.45288,-3.3667 -0.44433,-0.98267 -1.5039,-0.98267 -1.05958,0 -1.51246,0.98267 -0.45288,0.97412 -0.45288,3.3667 0,2.41821 0.45288,3.40942 0.45288,0.99121 1.51246,0.99121 1.05102,0 1.5039,-0.99121 0.45288,-0.99121 0.45288,-3.40942 z m 3.2898,0.0256 q 0,3.17017 -1.36719,4.89624 -1.36719,1.71753 -3.87939,1.71753 -2.52076,0 -3.88794,-1.71753 -1.36719,-1.72607 -1.36719,-4.89624 0,-3.17871 1.36719,-4.89624 1.36718,-1.72607 3.88794,-1.72607 2.5122,0 3.87939,1.72607 1.36719,1.71753 1.36719,4.89624 z"
         style="font-style:normal;font-variant:normal;font-weight:bold;font-stretch:normal;font-family:sans-serif;-inkscape-font-specification:'sans-serif Bold';fill:none;stroke:#ff0000;stroke-width:1.14858437px"
         id="path4284"
         inkscape:connector-curvature="0" />
      <path
         d="m 265.60164,186.20915 9.61304,0 0,1.85425 -4.97315,10.90332 -3.20434,0 4.70825,-10.33935 -6.1438,0 0,-2.41822 z"
         style="font-style:normal;font-variant:normal;font-weight:bold;font-stretch:normal;font-family:sans-serif;-inkscape-font-specification:'sans-serif Bold';fill:none;stroke:#ff0000;stroke-width:1.14858437px"
         id="path4286"
         inkscape:connector-curvature="0" />
      <path
         d="m 290.83479,192.08806 q 1.29029,0.33325 1.95679,1.16211 0.67505,0.82031 0.67505,2.0935 0,1.89698 -1.45264,2.88819 -1.45263,0.98266 -4.23828,0.98266 -0.98266,0 -1.97388,-0.16235 -0.98266,-0.15381 -1.94824,-0.46997 l 0,-2.53784 q 0.92285,0.46142 1.82862,0.70068 0.9143,0.23071 1.79443,0.23071 1.30737,0 1.99951,-0.45288 0.70068,-0.45288 0.70068,-1.29883 0,-0.87158 -0.71777,-1.31591 -0.70923,-0.45288 -2.10205,-0.45288 l -1.31592,0 0,-2.11914 1.38428,0 q 1.23901,0 1.8457,-0.38453 0.60669,-0.39306 0.60669,-1.18774 0,-0.73486 -0.5896,-1.13647 -0.5896,-0.40162 -1.66626,-0.40162 -0.79468,0 -1.60644,0.17945 -0.81177,0.17944 -1.61499,0.52978 l 0,-2.40967 q 0.97412,-0.27343 1.93115,-0.41015 0.95703,-0.13672 1.87988,-0.13672 2.48657,0 3.71704,0.82031 1.23902,0.81177 1.23902,2.45239 0,1.11939 -0.5896,1.83716 -0.5896,0.70923 -1.74317,0.99976 z"
         style="font-style:normal;font-variant:normal;font-weight:bold;font-stretch:normal;font-family:sans-serif;-inkscape-font-specification:'sans-serif Bold';fill:none;stroke:#ff0000;stroke-width:1.14858437px"
         id="path4288"
         inkscape:connector-curvature="0" />
      <path
         d="m 303.00276,192.08806 q 1.29029,0.33325 1.95679,1.16211 0.67505,0.82031 0.67505,2.0935 0,1.89698 -1.45264,2.88819 -1.45264,0.98266 -4.23828,0.98266 -0.98267,0 -1.97388,-0.16235 -0.98266,-0.15381 -1.94824,-0.46997 l 0,-2.53784 q 0.92285,0.46142 1.82861,0.70068 0.91431,0.23071 1.79444,0.23071 1.30737,0 1.99951,-0.45288 0.70068,-0.45288 0.70068,-1.29883 0,-0.87158 -0.71777,-1.31591 -0.70923,-0.45288 -2.10205,-0.45288 l -1.31592,0 0,-2.11914 1.38428,0 q 1.23901,0 1.8457,-0.38453 0.60669,-0.39306 0.60669,-1.18774 0,-0.73486 -0.5896,-1.13647 -0.5896,-0.40162 -1.66626,-0.40162 -0.79468,0 -1.60644,0.17945 -0.81177,0.17944 -1.61499,0.52978 l 0,-2.40967 q 0.97412,-0.27343 1.93115,-0.41015 0.95703,-0.13672 1.87988,-0.13672 2.48657,0 3.71704,0.82031 1.23902,0.81177 1.23902,2.45239 0,1.11939 -0.5896,1.83716 -0.5896,0.70923 -1.74317,0.99976 z"
         style="font-style:normal;font-variant:normal;font-weight:bold;font-stretch:normal;font-family:sans-serif;-inkscape-font-specification:'sans-serif Bold';fill:none;stroke:#ff0000;stroke-width:1.14858437px"
         id="path4290"
         inkscape:connector-curvature="0" />
    </g>
    <g
       style="font-style:normal;font-weight:normal;font-size:17.5px;line-height:125%;font-family:sans-serif;letter-spacing:0px;word-spacing:0px;fill:none;fill-opacity:1;stroke:#ff0000;stroke-width:1.14858437px;stroke-linecap:butt;stroke-linejoin:miter;stroke-opacity:1"
       id="text4292"
       transform="matrix(0.8707582,0,0,0.87051576,19.829402,39.718966)">
      <path
         d="m 15.26592,150.9814 3.059082,0 0,13.2959 -3.059082,0 0,-13.2959 z"
         style="font-style:normal;font-variant:normal;font-weight:bold;font-stretch:normal;font-family:sans-serif;-inkscape-font-specification:'sans-serif Bold';fill:none;stroke:#ff0000;stroke-width:1.14858437px"
         id="path4297"
         inkscape:connector-curvature="0" />
      <path
         d="m 30.245168,158.81709 0,5.46021 -3.084717,0 0,-1.41846 c -0.410156,0.58105 -0.871582,1.00545 -1.384277,1.27319 -0.512695,0.26205 -1.136475,0.39307 -1.871338,0.39307 -0.991211,0 -1.797282,-0.28768 -2.418213,-0.86304 -0.615235,-0.58105 -0.922852,-1.33301 -0.922852,-2.25586 0,-1.12223 0.384522,-1.94539 1.153565,-2.46948 0.774739,-0.52409 1.988118,-0.78613 3.640136,-0.78613 l 1.802979,0 0,-0.23926 c 0,-0.48421 -0.190837,-0.8374 -0.57251,-1.05957 -0.381673,-0.22787 -0.97697,-0.3418 -1.785889,-0.3418 -0.655111,0 -1.264648,0.0655 -1.828613,0.19654 -0.563965,0.13102 -1.088053,0.32755 -1.572265,0.5896 l 0,-2.33277 c 0.655111,-0.1595 1.31307,-0.27913 1.973877,-0.35888 0.660807,-0.0855 1.321614,-0.12818 1.982421,-0.12818 1.726075,0 2.970785,0.3418 3.734131,1.02539 0.769043,0.6779 1.153565,1.78304 1.153565,3.31543 z"
         style="font-style:normal;font-variant:normal;font-weight:bold;font-stretch:normal;font-family:sans-serif;-inkscape-font-specification:'sans-serif Bold';fill:none;stroke:#ff0000;stroke-width:1.14858437px"
         id="path4299"
         inkscape:connector-curvature="0"
         sodipodi:nodetypes="sccccscscscscsccccscs" />
      <path
         d="m 40.217092,157.31319 q -0.401612,-0.18799 -0.803223,-0.27344 -0.393067,-0.094 -0.794678,-0.094 -1.179199,0 -1.820068,0.76049 -0.632324,0.75196 -0.632324,2.16187 l 0,4.40918 -3.059082,0 0,-9.57031 3.059082,0 0,1.57226 q 0.589599,-0.93994 1.350097,-1.36719 0.769043,-0.43579 1.837158,-0.43579 0.153809,0 0.333252,0.0171 0.179444,0.009 0.521241,0.0513 l 0.0085,2.76856 z"
         style="font-style:normal;font-variant:normal;font-weight:bold;font-stretch:normal;font-family:sans-serif;-inkscape-font-specification:'sans-serif Bold';fill:none;stroke:#ff0000;stroke-width:1.14858437px"
         id="path4301"
         inkscape:connector-curvature="0" />
      <path
         d="m 41.652638,160.55171 0,-5.84472 3.076172,0 0,0.95703 q 0,0.77758 -0.0085,1.95678 -0.0085,1.17066 -0.0085,1.56372 0,1.15357 0.05982,1.66626 0.05981,0.50415 0.205078,0.73487 0.187988,0.29907 0.487061,0.46142 0.307617,0.16236 0.700683,0.16236 0.957031,0 1.503906,-0.73487 0.546875,-0.73486 0.546875,-2.04223 l 0,-4.72534 3.059082,0 0,9.57031 -3.059082,0 0,-1.38428 q -0.692138,0.8374 -1.469726,1.23901 -0.769043,0.39307 -1.70044,0.39307 -1.657714,0 -2.529296,-1.01684 -0.863038,-1.01685 -0.863038,-2.95655 z"
         style="font-style:normal;font-variant:normal;font-weight:bold;font-stretch:normal;font-family:sans-serif;-inkscape-font-specification:'sans-serif Bold';fill:none;stroke:#ff0000;stroke-width:1.14858437px"
         id="path4303"
         inkscape:connector-curvature="0" />
      <path
         d="m 63.783986,159.46651 0,0.87158 -7.1521,0 c 0.07406,0.71777 0.333252,1.2561 0.777588,1.61499 0.444336,0.35889 1.065267,0.53833 1.862793,0.53833 0.643718,0 1.301677,-0.094 1.973877,-0.28198 0.677897,-0.19369 1.372884,-0.48422 2.084961,-0.87159 l 0,2.3584 c -0.72347,0.27344 -1.44694,0.47852 -2.17041,0.61524 -0.72347,0.14241 -1.44694,0.21362 -2.17041,0.21362 -1.731771,0 -3.07902,-0.43864 -4.041748,-1.31592 -0.957031,-0.88297 -1.435547,-2.11914 -1.435547,-3.70849 0,-1.56087 0.469971,-2.78849 1.409912,-3.68286 0.945638,-0.89437 2.244466,-1.34156 3.896484,-1.34156 1.503907,0 2.705893,0.45288 3.605958,1.35865 0.905761,0.90576 1.358642,2.11629 1.358642,3.63159 z"
         style="font-style:normal;font-variant:normal;font-weight:bold;font-stretch:normal;font-family:sans-serif;-inkscape-font-specification:'sans-serif Bold';fill:none;stroke:#ff0000;stroke-width:1.14858437px"
         id="path4305"
         inkscape:connector-curvature="0"
         sodipodi:nodetypes="sccssccccscscscs" />
      <path
         d="m 73.824269,155.00606 0,2.49511 q -0.623779,-0.42724 -1.256103,-0.63232 -0.62378,-0.20508 -1.298828,-0.20508 -1.281739,0 -1.999512,0.75196 -0.709229,0.7434 -0.709229,2.08496 0,1.34155 0.709229,2.0935 0.717773,0.74341 1.999512,0.74341 0.717773,0 1.358642,-0.21362 0.649414,-0.21363 1.196289,-0.63233 l 0,2.50367 q -0.717773,0.26489 -1.461181,0.39306 -0.734864,0.13672 -1.478272,0.13672 -2.589111,0 -4.050293,-1.32446 -1.461181,-1.33301 -1.461181,-3.69995 0,-2.36695 1.461181,-3.69141 1.461182,-1.33301 4.050293,-1.33301 0.751953,0 1.478272,0.13672 0.734863,0.12818 1.461181,0.39307 z"
         style="font-style:normal;font-variant:normal;font-weight:bold;font-stretch:normal;font-family:sans-serif;-inkscape-font-specification:'sans-serif Bold';fill:none;stroke:#ff0000;stroke-width:1.14858437px"
         id="path4307"
         inkscape:connector-curvature="0" />
      <path
         d="m 85.445363,158.81709 0,5.46021 -3.084717,0 0,-1.41846 c -0.410156,0.58105 -0.871582,1.00545 -1.384277,1.27319 -0.512695,0.26205 -1.136475,0.39307 -1.871338,0.39307 -0.991211,0 -1.797282,-0.28768 -2.418213,-0.86304 -0.615234,-0.58105 -0.922851,-1.33301 -0.922851,-2.25586 0,-1.12223 0.384521,-1.94539 1.153564,-2.46948 0.774739,-0.52409 1.988118,-0.78613 3.640137,-0.78613 l 1.802978,0 0,-0.23926 c 0,-0.48421 -0.190837,-0.8374 -0.57251,-1.05957 -0.381673,-0.22787 -0.976969,-0.3418 -1.785888,-0.3418 -0.655111,0 -1.264648,0.0655 -1.828613,0.19654 -0.563965,0.13102 -1.088054,0.32755 -1.572266,0.5896 l 0,-2.33277 c 0.655111,-0.1595 1.31307,-0.27913 1.973877,-0.35888 0.660807,-0.0855 1.321615,-0.12818 1.982422,-0.12818 1.726074,0 2.970784,0.3418 3.734131,1.02539 0.769043,0.6779 1.153564,1.78304 1.153564,3.31543 z"
         style="font-style:normal;font-variant:normal;font-weight:bold;font-stretch:normal;font-family:sans-serif;-inkscape-font-specification:'sans-serif Bold';fill:none;stroke:#ff0000;stroke-width:1.14858437px"
         id="path4309"
         inkscape:connector-curvature="0"
         sodipodi:nodetypes="sccccscscscscsccccscs" />
      <path
         d="m 93.939015,159.67159 q 0,1.05102 0.444336,1.65771 0.452881,0.60669 1.221924,0.60669 0.760498,0 1.213379,-0.60669 0.452881,-0.61523 0.452881,-1.65771 0,-1.03394 -0.461426,-1.63208 -0.452881,-0.60669 -1.221924,-0.60669 -0.751953,0 -1.204834,0.60669 -0.444336,0.59814 -0.444336,1.63208 z m 3.503418,2.57202 q -0.256347,0.60669 -0.828857,0.94848 -0.563965,0.33325 -1.324463,0.33325 -1.469727,0 -2.392578,-1.05957 -0.914307,-1.06811 -0.914307,-2.7771 0,-1.70898 0.922852,-2.77709 0.922851,-1.06812 2.384033,-1.06812 0.760498,0 1.324463,0.3418 0.57251,0.34179 0.828857,0.94848 l 0,-1.11938 1.785889,0 0,5.92163 q 1.059568,-0.16235 1.666258,-1.01685 0.60669,-0.86303 0.60669,-2.20459 0,-0.85449 -0.2478,-1.5979 -0.2478,-0.75195 -0.75195,-1.37573 -0.811772,-1.04248 -2.033696,-1.60644 -1.213379,-0.56397 -2.631836,-0.56397 -0.991211,0 -1.896973,0.26489 -0.905761,0.25635 -1.674804,0.7605 -1.264649,0.8374 -1.973877,2.17041 -0.700684,1.32446 -0.700684,2.8711 0,1.27319 0.452881,2.39257 0.461426,1.11084 1.324463,1.96534 0.854492,0.8374 1.956787,1.27319 1.11084,0.44433 2.366943,0.44433 1.076661,0 2.153321,-0.40161 1.07666,-0.40161 1.837158,-1.0852 l 0.914307,1.38428 q -1.068116,0.82885 -2.332764,1.26464 -1.256104,0.44434 -2.554932,0.44434 -1.58081,0 -2.982178,-0.56396 -1.401367,-0.55542 -2.495117,-1.62354 -1.09375,-1.06812 -1.666259,-2.46948 -0.57251,-1.40991 -0.57251,-3.0249 0,-1.55518 0.581054,-2.96509 0.581055,-1.40991 1.657715,-2.47803 1.07666,-1.05957 2.503662,-1.64062 1.435547,-0.58106 2.973633,-0.58106 1.914063,0 3.477783,0.73486 1.563723,0.72632 2.614743,2.10205 0.64087,0.83741 0.96558,1.82007 0.33325,0.97412 0.33325,2.05078 0,2.31568 -1.39282,3.59742 -1.39282,1.28173 -3.930665,1.28173 l -0.333252,0 0,-1.31591 z"
         style="font-style:normal;font-variant:normal;font-weight:bold;font-stretch:normal;font-family:sans-serif;-inkscape-font-specification:'sans-serif Bold';fill:none;stroke:#ff0000;stroke-width:1.14858437px"
         id="path4311"
         inkscape:connector-curvature="0" />
      <path
         d="m 105.80791,150.9814 3.05908,0 0,13.2959 -3.05908,0 0,-13.2959 z"
         style="font-style:normal;font-variant:normal;font-weight:bold;font-stretch:normal;font-family:sans-serif;-inkscape-font-specification:'sans-serif Bold';fill:none;stroke:#ff0000;stroke-width:1.14858437px"
         id="path4313"
         inkscape:connector-curvature="0" />
      <path
         d="m 120.78716,158.81709 0,5.46021 -3.08472,0 0,-1.41846 c -0.41015,0.58105 -0.87158,1.00545 -1.38427,1.27319 -0.5127,0.26205 -1.13648,0.39307 -1.87134,0.39307 -0.99121,0 -1.79729,-0.28768 -2.41822,-0.86304 -0.61523,-0.58105 -0.92285,-1.33301 -0.92285,-2.25586 0,-1.12223 0.38452,-1.94539 1.15357,-2.46948 0.77474,-0.52409 1.98812,-0.78613 3.64013,-0.78613 l 1.80298,0 0,-0.23926 c 0,-0.48421 -0.19084,-0.8374 -0.57251,-1.05957 -0.38167,-0.22787 -0.97697,-0.3418 -1.78589,-0.3418 -0.65511,0 -1.26464,0.0655 -1.82861,0.19654 -0.56397,0.13102 -1.08805,0.32755 -1.57226,0.5896 l 0,-2.33277 c 0.65511,-0.1595 1.31306,-0.27913 1.97387,-0.35888 0.66081,-0.0855 1.32161,-0.12818 1.98242,-0.12818 1.72608,0 2.97079,0.3418 3.73414,1.02539 0.76904,0.6779 1.15356,1.78304 1.15356,3.31543 z"
         style="font-style:normal;font-variant:normal;font-weight:bold;font-stretch:normal;font-family:sans-serif;-inkscape-font-specification:'sans-serif Bold';fill:none;stroke:#ff0000;stroke-width:1.14858437px"
         id="path4315"
         inkscape:connector-curvature="0"
         sodipodi:nodetypes="sccccscscscscsccccscs" />
      <path
         d="m 130.75908,157.31319 q -0.40161,-0.18799 -0.80322,-0.27344 -0.39307,-0.094 -0.79468,-0.094 -1.1792,0 -1.82007,0.76049 -0.63232,0.75196 -0.63232,2.16187 l 0,4.40918 -3.05908,0 0,-9.57031 3.05908,0 0,1.57226 q 0.5896,-0.93994 1.3501,-1.36719 0.76904,-0.43579 1.83716,-0.43579 0.15381,0 0.33325,0.0171 0.17944,0.009 0.52124,0.0513 l 0.009,2.76856 z"
         style="font-style:normal;font-variant:normal;font-weight:bold;font-stretch:normal;font-family:sans-serif;-inkscape-font-specification:'sans-serif Bold';fill:none;stroke:#ff0000;stroke-width:1.14858437px"
         id="path4317"
         inkscape:connector-curvature="0" />
      <path
         d="m 132.19463,160.55171 0,-5.84472 3.07617,0 0,0.95703 q 0,0.77758 -0.009,1.95678 -0.009,1.17066 -0.009,1.56372 0,1.15357 0.0598,1.66626 0.0598,0.50415 0.20508,0.73487 0.18798,0.29907 0.48706,0.46142 0.30761,0.16236 0.70068,0.16236 0.95703,0 1.50391,-0.73487 0.54687,-0.73486 0.54687,-2.04223 l 0,-4.72534 3.05908,0 0,9.57031 -3.05908,0 0,-1.38428 q -0.69214,0.8374 -1.46973,1.23901 -0.76904,0.39307 -1.70044,0.39307 -1.65771,0 -2.52929,-1.01684 -0.86304,-1.01685 -0.86304,-2.95655 z"
         style="font-style:normal;font-variant:normal;font-weight:bold;font-stretch:normal;font-family:sans-serif;-inkscape-font-specification:'sans-serif Bold';fill:none;stroke:#ff0000;stroke-width:1.14858437px"
         id="path4319"
         inkscape:connector-curvature="0" />
      <path
         d="m 154.32598,159.46651 0,0.87158 -7.1521,0 c 0.074,0.71777 0.33325,1.2561 0.77759,1.61499 0.44433,0.35889 1.06526,0.53833 1.86279,0.53833 0.64372,0 1.30168,-0.094 1.97388,-0.28198 0.67789,-0.19369 1.37288,-0.48422 2.08496,-0.87159 l 0,2.3584 c -0.72347,0.27344 -1.44694,0.47852 -2.17041,0.61524 -0.72347,0.14241 -1.44694,0.21362 -2.17041,0.21362 -1.73177,0 -3.07902,-0.43864 -4.04175,-1.31592 -0.95703,-0.88297 -1.43555,-2.11914 -1.43555,-3.70849 0,-1.56087 0.46997,-2.78849 1.40991,-3.68286 0.94564,-0.89437 2.24447,-1.34156 3.89649,-1.34156 1.50391,0 2.70589,0.45288 3.60596,1.35865 0.90576,0.90576 1.35864,2.11629 1.35864,3.63159 z"
         style="font-style:normal;font-variant:normal;font-weight:bold;font-stretch:normal;font-family:sans-serif;-inkscape-font-specification:'sans-serif Bold';fill:none;stroke:#ff0000;stroke-width:1.14858437px"
         id="path4321"
         inkscape:connector-curvature="0"
         sodipodi:nodetypes="sccssccccscscscs" />
      <path
         d="m 164.36626,155.00606 0,2.49511 q -0.62378,-0.42724 -1.2561,-0.63232 -0.62378,-0.20508 -1.29883,-0.20508 -1.28174,0 -1.99951,0.75196 -0.70923,0.7434 -0.70923,2.08496 0,1.34155 0.70923,2.0935 0.71777,0.74341 1.99951,0.74341 0.71777,0 1.35864,-0.21362 0.64942,-0.21363 1.19629,-0.63233 l 0,2.50367 q -0.71777,0.26489 -1.46118,0.39306 -0.73486,0.13672 -1.47827,0.13672 -2.58911,0 -4.05029,-1.32446 -1.46119,-1.33301 -1.46119,-3.69995 0,-2.36695 1.46119,-3.69141 1.46118,-1.33301 4.05029,-1.33301 0.75195,0 1.47827,0.13672 0.73486,0.12818 1.46118,0.39307 z"
         style="font-style:normal;font-variant:normal;font-weight:bold;font-stretch:normal;font-family:sans-serif;-inkscape-font-specification:'sans-serif Bold';fill:none;stroke:#ff0000;stroke-width:1.14858437px"
         id="path4323"
         inkscape:connector-curvature="0" />
      <path
         d="m 175.98736,158.81709 0,5.46021 -3.08472,0 0,-1.41846 c -0.41016,0.58105 -0.87159,1.00545 -1.38428,1.27319 -0.51269,0.26205 -1.13647,0.39307 -1.87134,0.39307 -0.99121,0 -1.79728,-0.28768 -2.41821,-0.86304 -0.61523,-0.58105 -0.92285,-1.33301 -0.92285,-2.25586 0,-1.12223 0.38452,-1.94539 1.15356,-2.46948 0.77474,-0.52409 1.98812,-0.78613 3.64014,-0.78613 l 1.80298,0 0,-0.23926 c 0,-0.48421 -0.19084,-0.8374 -0.57251,-1.05957 -0.38167,-0.22787 -0.97697,-0.3418 -1.78589,-0.3418 -0.65511,0 -1.26465,0.0655 -1.82861,0.19654 -0.56397,0.13102 -1.08806,0.32755 -1.57227,0.5896 l 0,-2.33277 c 0.65511,-0.1595 1.31307,-0.27913 1.97388,-0.35888 0.66081,-0.0855 1.32161,-0.12818 1.98242,-0.12818 1.72607,0 2.97078,0.3418 3.73413,1.02539 0.76905,0.6779 1.15357,1.78304 1.15357,3.31543 z"
         style="font-style:normal;font-variant:normal;font-weight:bold;font-stretch:normal;font-family:sans-serif;-inkscape-font-specification:'sans-serif Bold';fill:none;stroke:#ff0000;stroke-width:1.14858437px"
         id="path4325"
         inkscape:connector-curvature="0"
         sodipodi:nodetypes="sccccscscscscsccccscs" />
      <path
         d="m 179.16607,160.97041 3.07617,0 0,3.30689 -3.07617,0 0,-3.30689 z"
         style="font-style:normal;font-variant:normal;font-weight:bold;font-stretch:normal;font-family:sans-serif;-inkscape-font-specification:'sans-serif Bold';fill:none;stroke:#ff0000;stroke-width:1.14858437px"
         id="path4327"
         inkscape:connector-curvature="0" />
      <path
         d="m 185.51494,154.70699 3.05909,0 0,9.57031 -3.05909,0 0,-9.57031 z m 0,-3.72559 3.05909,0 0,2.49512 -3.05909,0 0,-2.49512 z"
         style="font-style:normal;font-variant:normal;font-weight:bold;font-stretch:normal;font-family:sans-serif;-inkscape-font-specification:'sans-serif Bold';fill:none;stroke:#ff0000;stroke-width:1.14858437px"
         id="path4329"
         inkscape:connector-curvature="0" />
      <path
         d="m 201.15215,158.44966 0,5.82764 -3.07617,0 0,-0.94849 0,-3.51196 q 0,-1.23901 -0.0598,-1.70899 -0.0513,-0.46997 -0.18798,-0.69213 -0.17945,-0.29908 -0.48707,-0.46143 -0.30761,-0.1709 -0.70068,-0.1709 -0.95703,0 -1.5039,0.74341 -0.54688,0.73486 -0.54688,2.04224 l 0,4.70825 -3.05908,0 0,-9.57031 3.05908,0 0,1.40136 q 0.69214,-0.8374 1.46973,-1.23047 0.77758,-0.40161 1.71753,-0.40161 1.65771,0 2.5122,1.01685 0.86304,1.01684 0.86304,2.95654 z"
         style="font-style:normal;font-variant:normal;font-weight:bold;font-stretch:normal;font-family:sans-serif;-inkscape-font-specification:'sans-serif Bold';fill:none;stroke:#ff0000;stroke-width:1.14858437px"
         id="path4331"
         inkscape:connector-curvature="0" />
      <path
         d="m 210.30376,150.9814 0,2.00806 -1.69189,0 q -0.64942,0 -0.90576,0.23925 -0.25635,0.23072 -0.25635,0.81177 l 0,0.66651 2.61474,0 0,2.1875 -2.61474,0 0,7.38281 -3.05908,0 0,-7.38281 -1.521,0 0,-2.1875 1.521,0 0,-0.66651 q 0,-1.56372 0.87158,-2.30713 0.87158,-0.75195 2.70019,-0.75195 l 2.34131,0 z"
         style="font-style:normal;font-variant:normal;font-weight:bold;font-stretch:normal;font-family:sans-serif;-inkscape-font-specification:'sans-serif Bold';fill:none;stroke:#ff0000;stroke-width:1.14858437px"
         id="path4333"
         inkscape:connector-curvature="0" />
      <path
         d="m 216.18267,154.47627 c 1.64632,0 2.93091,0.44434 3.85376,1.33301 0.92855,0.88867 1.39282,2.11914 1.39282,3.69141 0,1.57227 -0.46427,2.80273 -1.39282,3.6914 -0.92285,0.88867 -2.20744,1.33301 -3.85376,1.33301 -1.65202,0 -2.94515,-0.44434 -3.8794,-1.33301 -0.92855,-0.88867 -1.39282,-2.11913 -1.39282,-3.6914 0,-1.57227 0.46427,-2.80274 1.39282,-3.69141 0.93425,-0.88867 2.22738,-1.33301 3.8794,-1.33301 z"
         style="font-style:normal;font-variant:normal;font-weight:bold;font-stretch:normal;font-family:sans-serif;-inkscape-font-specification:'sans-serif Bold';fill:none;stroke:#ff0000;stroke-width:1.14858437px"
         id="path4335"
         inkscape:connector-curvature="0"
         sodipodi:nodetypes="scscscscs" />
    </g>
    <path
       inkscape:connector-curvature="0"
       id="path4182-3"
       style="font-style:normal;font-variant:normal;font-weight:bold;font-stretch:normal;font-size:medium;line-height:125%;font-family:sans-serif;-inkscape-font-specification:'sans-serif Bold';text-align:center;letter-spacing:0px;word-spacing:0px;text-anchor:middle;fill:none;fill-opacity:1;stroke:#ff0000;stroke-width:1px;stroke-linecap:butt;stroke-linejoin:miter;stroke-opacity:1"
       d="m 40.497715,40.023686 9.077203,0 0,2.54161 -5.713658,0 0,2.42807 5.372935,0 0,2.5416 -5.372935,0 0,2.98705 5.90586,0 0,2.54161 -9.269405,0 0,-13.03994 z" />
    <path
       inkscape:connector-curvature="0"
       id="path4184-6"
       style="font-style:normal;font-variant:normal;font-weight:bold;font-stretch:normal;font-size:medium;line-height:125%;font-family:sans-serif;-inkscape-font-specification:'sans-serif Bold';text-align:center;letter-spacing:0px;word-spacing:0px;text-anchor:middle;fill:none;fill-opacity:1;stroke:#ff0000;stroke-width:1px;stroke-linecap:butt;stroke-linejoin:miter;stroke-opacity:1"
       d="m 60.233426,43.587176 0,2.37567 q -1.0047,-0.41923 -1.9395,-0.62885 -0.9348,-0.20962 -1.76477,-0.20962 -0.89112,0 -1.32795,0.22709 -0.42808,0.21835 -0.42808,0.68125 0,0.37556 0.32324,0.57645 0.33199,0.20088 1.17943,0.29695 l 0.5504,0.0786 q 2.40253,0.3057 3.23249,1.00442 0.829975,0.69873 0.829975,2.19224 0,1.5634 -1.153215,2.34946 -1.15321,0.78606 -3.44218,0.78606 -0.96974,0 -2.00938,-0.1572 -1.030912,-0.14849 -2.122973,-0.45418 l 0,-2.37566 q 0.934803,0.45417 1.913291,0.68126 0.987222,0.22709 2.000652,0.22709 0.91734,0 1.38036,-0.2533 0.46304,-0.25328 0.46304,-0.75112 0,-0.41923 -0.32325,-0.62012 -0.31451,-0.20961 -1.26679,-0.32315 l -0.5504,-0.0699 q -2.088017,-0.26202 -2.926723,-0.96948 -0.838696,-0.70746 -0.838696,-2.14857 0,-1.55467 1.065851,-2.30579 1.065852,-0.75113 3.267438,-0.75113 0.86491,0 1.81719,0.13101 0.95228,0.13101 2.07055,0.4105 z" />
    <path
       inkscape:connector-curvature="0"
       id="path4186-1"
       style="font-style:normal;font-variant:normal;font-weight:bold;font-stretch:normal;font-size:medium;line-height:125%;font-family:sans-serif;-inkscape-font-specification:'sans-serif Bold';text-align:center;letter-spacing:0px;word-spacing:0px;text-anchor:middle;fill:none;fill-opacity:1;stroke:#ff0000;stroke-width:1px;stroke-linecap:butt;stroke-linejoin:miter;stroke-opacity:1"
       d="m 71.154021,43.587176 0,2.55035 q -0.63777,-0.43671 -1.28427,-0.64632 -0.63776,-0.20962 -1.32794,-0.20962 -1.31047,0 -2.04434,0.7686 -0.72512,0.75986 -0.72512,2.13111 0,1.37124 0.72512,2.13984 0.73387,0.75986 2.04434,0.75986 0.73387,0 1.3891,-0.21835 0.66397,-0.21835 1.22311,-0.64632 l 0,2.55908 q -0.73387,0.27075 -1.49394,0.40176 -0.75134,0.13974 -1.51141,0.13974 -2.64716,0 -4.1411,-1.35377 -1.49393,-1.36251 -1.49393,-3.78184 0,-2.41933 1.49393,-3.77311 1.49394,-1.36251 4.1411,-1.36251 0.76881,0 1.51141,0.13974 0.75134,0.13101 1.49394,0.40176 z" />
    <path
       inkscape:connector-curvature="0"
       id="path4188-2"
       style="font-style:normal;font-variant:normal;font-weight:bold;font-stretch:normal;font-size:medium;line-height:125%;font-family:sans-serif;-inkscape-font-specification:'sans-serif Bold';text-align:center;letter-spacing:0px;word-spacing:0px;text-anchor:middle;fill:none;fill-opacity:1;stroke:#ff0000;stroke-width:1px;stroke-linecap:butt;stroke-linejoin:miter;stroke-opacity:1"
       d="m 73.766221,49.255576 0,-5.97409 3.14514,0 0,0.97822 q 0,0.7948 -0.009,2.0001 -0.009,1.19656 -0.009,1.59832 0,1.1791 0.0611,1.70314 0.0611,0.51531 0.20968,0.75114 0.1922,0.30569 0.49797,0.47163 0.31451,0.16595 0.71639,0.16595 0.97849,0 1.53762,-0.75113 0.55914,-0.75113 0.55914,-2.08744 l 0,-4.82993 3.12766,0 0,9.78214 -3.12766,0 0,-1.41492 q -0.70765,0.85594 -1.50267,1.26644 -0.78629,0.40176 -1.73857,0.40176 -1.69488,0 -2.58599,-1.03935 -0.88238,-1.03935 -0.88238,-3.02198 z" />
    <path
       sodipodi:nodetypes="sccssccccscscscs"
       inkscape:connector-curvature="0"
       id="path4190-9"
       style="font-style:normal;font-variant:normal;font-weight:bold;font-stretch:normal;font-size:medium;line-height:125%;font-family:sans-serif;-inkscape-font-specification:'sans-serif Bold';text-align:center;letter-spacing:0px;word-spacing:0px;text-anchor:middle;fill:none;fill-opacity:1;stroke:#ff0000;stroke-width:1px;stroke-linecap:butt;stroke-linejoin:miter;stroke-opacity:1"
       d="m 96.393711,48.146356 0,0.89087 -7.31244,0 c 0.0758,0.73366 0.34073,1.28391 0.79502,1.65073 0.4543,0.36684 1.08916,0.55025 1.90456,0.55025 0.65814,0 1.33086,-0.0961 2.01812,-0.28822 0.6931,-0.19797 1.40366,-0.49493 2.1317,-0.89088 l 0,2.4106 c -0.73968,0.2795 -1.47937,0.48911 -2.21906,0.62885 -0.73969,0.14557 -1.47938,0.21835 -2.21907,0.21835 -1.77059,0 -3.14804,-0.44834 -4.13235,-1.34504 -0.97849,-0.90252 -1.46773,-2.16604 -1.46773,-3.79057 0,-1.59542 0.48051,-2.85021 1.44152,-3.76437 0.96684,-0.91417 2.29478,-1.37125 3.98383,-1.37125 1.53762,0 2.76656,0.4629 3.6868,1.38871 0.92606,0.92581 1.3891,2.16313 1.3891,3.71197 z" />
    <path
       inkscape:connector-curvature="0"
       id="path4192-3"
       style="font-style:normal;font-variant:normal;font-weight:bold;font-stretch:normal;font-size:medium;line-height:125%;font-family:sans-serif;-inkscape-font-specification:'sans-serif Bold';text-align:center;letter-spacing:0px;word-spacing:0px;text-anchor:middle;fill:none;fill-opacity:1;stroke:#ff0000;stroke-width:1px;stroke-linecap:butt;stroke-linejoin:miter;stroke-opacity:1"
       d="m 98.752571,39.473446 3.127649,0 0,13.59018 -3.127649,0 0,-13.59018 z" />
    <path
       sodipodi:nodetypes="sccccscscscscsscccscs"
       inkscape:connector-curvature="0"
       id="path4194-1"
       style="font-style:normal;font-variant:normal;font-weight:bold;font-stretch:normal;font-size:medium;line-height:125%;font-family:sans-serif;-inkscape-font-specification:'sans-serif Bold';text-align:center;letter-spacing:0px;word-spacing:0px;text-anchor:middle;fill:none;fill-opacity:1;stroke:#ff0000;stroke-width:1px;stroke-linecap:butt;stroke-linejoin:miter;stroke-opacity:1"
       d="m 114.06761,47.482566 0,5.58106 -3.15387,0 0,-1.44986 c -0.41936,0.59392 -0.89112,1.02771 -1.41531,1.30138 -0.52419,0.26784 -1.16195,0.40176 -1.91329,0.40176 -1.01344,0 -1.83757,-0.29404 -2.47243,-0.88213 -0.62902,-0.59392 -0.94353,-1.36252 -0.94353,-2.30579 0,-1.14707 0.39314,-1.98845 1.17942,-2.52414 0.79211,-0.53569 2.03268,-0.80353 3.72174,-0.80353 l 1.8434,0 0,-0.24455 c 0,-0.49494 -0.19512,-0.85595 -0.58535,-1.08303 -0.39023,-0.23291 -0.99886,-0.34936 -1.82592,-0.34936 -0.66979,0 -1.293,0.0669 -1.86961,0.20088 -0.57661,0.13392 -1.11245,0.33481 -1.60751,0.60265 l 0,-2.38439 c 0.6698,-0.16304 1.3425,-0.28531 2.01812,-0.36684 0.67562,-0.0873 1.35125,-0.131 2.02687,-0.131 1.76477,0 3.03738,0.34936 3.81784,1.04808 0.78628,0.6929 1.17943,1.82251 1.17943,3.38881 z" />
    <path
       inkscape:connector-curvature="0"
       id="path4196-9"
       style="font-style:normal;font-variant:normal;font-weight:bold;font-stretch:normal;font-size:medium;line-height:125%;font-family:sans-serif;-inkscape-font-specification:'sans-serif Bold';text-align:center;letter-spacing:0px;word-spacing:0px;text-anchor:middle;fill:none;fill-opacity:1;stroke:#ff0000;stroke-width:1px;stroke-linecap:butt;stroke-linejoin:miter;stroke-opacity:1"
       d="m 129.87191,44.713876 0,-5.24043 3.14513,0 0,13.59018 -3.14513,0 0,-1.41492 q -0.6465,0.86467 -1.42405,1.26644 -0.77754,0.40176 -1.79972,0.40176 -1.80845,0 -2.9704,-1.43238 -1.16195,-1.44112 -1.16195,-3.70323 0,-2.26213 1.16195,-3.69451 1.16195,-1.44111 2.9704,-1.44111 1.01343,0 1.79099,0.41049 0.78628,0.40177 1.43278,1.25771 z m -2.06181,6.33218 q 1.0047,0 1.52888,-0.73365 0.53293,-0.73367 0.53293,-2.13111 0,-1.39745 -0.53293,-2.13111 -0.52418,-0.73367 -1.52888,-0.73367 -0.99596,0 -1.52889,0.73367 -0.52419,0.73366 -0.52419,2.13111 0,1.39744 0.52419,2.13111 0.53293,0.73365 1.52889,0.73365 z" />
    <path
       sodipodi:nodetypes="sccssccccscscscs"
       inkscape:connector-curvature="0"
       id="path4198-4"
       style="font-style:normal;font-variant:normal;font-weight:bold;font-stretch:normal;font-size:medium;line-height:125%;font-family:sans-serif;-inkscape-font-specification:'sans-serif Bold';text-align:center;letter-spacing:0px;word-spacing:0px;text-anchor:middle;fill:none;fill-opacity:1;stroke:#ff0000;stroke-width:1px;stroke-linecap:butt;stroke-linejoin:miter;stroke-opacity:1"
       d="m 145.80725,48.146356 0,0.89087 -7.31244,0 c 0.0758,0.73366 0.34072,1.28391 0.79502,1.65073 0.45431,0.36684 1.08915,0.55025 1.90455,0.55025 0.65815,0 1.33086,-0.0961 2.01813,-0.28822 0.6931,-0.19797 1.40367,-0.49493 2.13171,-0.89088 l 0,2.4106 c -0.7397,0.2795 -1.47939,0.48911 -2.21907,0.62885 -0.73969,0.14557 -1.47938,0.21835 -2.21907,0.21835 -1.77059,0 -3.14804,-0.44834 -4.13235,-1.34504 -0.97848,-0.90252 -1.46773,-2.16604 -1.46773,-3.79057 0,-1.59542 0.4805,-2.85021 1.44152,-3.76437 0.96683,-0.91417 2.29478,-1.37125 3.98384,-1.37125 1.53762,0 2.76654,0.4629 3.68679,1.38871 0.92607,0.92581 1.3891,2.16313 1.3891,3.71197 z" />
    <path
       sodipodi:nodetypes="scscscscs"
       inkscape:connector-curvature="0"
       id="path4200-7"
       style="font-style:normal;font-variant:normal;font-weight:bold;font-stretch:normal;font-size:medium;line-height:125%;font-family:sans-serif;-inkscape-font-specification:'sans-serif Bold';text-align:center;letter-spacing:0px;word-spacing:0px;text-anchor:middle;fill:none;fill-opacity:1;stroke:#ff0000;stroke-width:1px;stroke-linecap:butt;stroke-linejoin:miter;stroke-opacity:1"
       d="m 44.795714,64.741806 c 1.683228,0 2.99661,0.45416 3.940154,1.3625 0.949362,0.90834 1.424047,2.16604 1.424047,3.77311 0,1.60707 -0.474685,2.86477 -1.424047,3.77311 -0.943544,0.90834 -2.256926,1.36251 -3.940154,1.36251 -1.689054,0 -3.011169,-0.45417 -3.966365,-1.36251 -0.949361,-0.90834 -1.424047,-2.16604 -1.424047,-3.77311 0,-1.60707 0.474686,-2.86477 1.424047,-3.77311 0.955196,-0.90834 2.277311,-1.3625 3.966365,-1.3625 z" />
    <path
       sodipodi:nodetypes="cccccccscscscc"
       inkscape:connector-curvature="0"
       id="path4202-8"
       style="font-style:normal;font-variant:normal;font-weight:bold;font-stretch:normal;font-size:medium;line-height:125%;font-family:sans-serif;-inkscape-font-specification:'sans-serif Bold';text-align:center;letter-spacing:0px;word-spacing:0px;text-anchor:middle;fill:none;fill-opacity:1;stroke:#ff0000;stroke-width:1px;stroke-linecap:butt;stroke-linejoin:miter;stroke-opacity:1"
       d="m 55.567796,73.344826 0,5.13563 -3.127657,0 0,-13.50284 3.127657,0 0,1.43238 c 0.431,-0.57062 0.90859,-0.98985 1.43278,-1.2577 0.52419,-0.27367 1.12701,-0.41049 1.80845,-0.41049 1.20564,0 2.195775,0.48036 2.970405,1.44111 0.77464,0.95492 1.16195,2.18642 1.16195,3.6945 0,1.50808 -0.38731,2.74249 -1.16195,3.70324 -0.77463,0.95492 -1.764765,1.43238 -2.970405,1.43238 -0.68144,0 -1.28426,-0.13392 -1.80845,-0.40176 -0.52419,-0.27367 -1.00178,-0.69581 -1.43278,-1.26645 z" />
    <path
       sodipodi:nodetypes="scscscscs"
       inkscape:connector-curvature="0"
       id="path4204-4"
       style="font-style:normal;font-variant:normal;font-weight:bold;font-stretch:normal;font-size:medium;line-height:125%;font-family:sans-serif;-inkscape-font-specification:'sans-serif Bold';text-align:center;letter-spacing:0px;word-spacing:0px;text-anchor:middle;fill:none;fill-opacity:1;stroke:#ff0000;stroke-width:1px;stroke-linecap:butt;stroke-linejoin:miter;stroke-opacity:1"
       d="m 69.921821,64.741806 c 1.68323,0 2.99661,0.45416 3.94016,1.3625 0.94936,0.90834 1.42404,2.16604 1.42404,3.77311 0,1.60707 -0.47468,2.86477 -1.42404,3.77311 -0.94355,0.90834 -2.25693,1.36251 -3.94016,1.36251 -1.68905,0 -3.01117,-0.45417 -3.96635,-1.36251 -0.94936,-0.90834 -1.42405,-2.16604 -1.42405,-3.77311 0,-1.60707 0.47469,-2.86477 1.42405,-3.77311 0.95518,-0.90834 2.2773,-1.3625 3.96635,-1.3625 z" />
    <path
       inkscape:connector-curvature="0"
       id="path4206-5"
       style="font-style:normal;font-variant:normal;font-weight:bold;font-stretch:normal;font-size:medium;line-height:125%;font-family:sans-serif;-inkscape-font-specification:'sans-serif Bold';text-align:center;letter-spacing:0px;word-spacing:0px;text-anchor:middle;fill:none;fill-opacity:1;stroke:#ff0000;stroke-width:1px;stroke-linecap:butt;stroke-linejoin:miter;stroke-opacity:1"
       d="m 84.834991,67.641496 q -0.41061,-0.19215 -0.82123,-0.27949 -0.40188,-0.0961 -0.81249,-0.0961 -1.20564,0 -1.86086,0.77733 -0.64651,0.7686 -0.64651,2.20972 l 0,4.50676 -3.12766,0 0,-9.78213 3.12766,0 0,1.60707 q 0.60282,-0.96075 1.38036,-1.39745 0.78629,-0.44543 1.87835,-0.44543 0.15726,0 0.34072,0.0175 0.18347,0.009 0.53293,0.0524 l 0.009,2.82983 z" />
    <path
       inkscape:connector-curvature="0"
       id="path4208-0"
       style="font-style:normal;font-variant:normal;font-weight:bold;font-stretch:normal;font-size:medium;line-height:125%;font-family:sans-serif;-inkscape-font-specification:'sans-serif Bold';text-align:center;letter-spacing:0px;word-spacing:0px;text-anchor:middle;fill:none;fill-opacity:1;stroke:#ff0000;stroke-width:1px;stroke-linecap:butt;stroke-linejoin:miter;stroke-opacity:1"
       d="m 89.823531,62.200196 0,2.77742 3.22377,0 0,2.23592 -3.22377,0 0,4.14867 q 0,0.68126 0.27083,0.92581 0.27084,0.23582 1.07459,0.23582 l 1.60752,0 0,2.23591 -2.68211,0 q -1.85213,0 -2.62968,-0.76859 -0.76881,-0.77733 -0.76881,-2.62895 l 0,-4.14867 -1.55509,0 0,-2.23592 1.55509,0 0,-2.77742 3.12766,0 z" />
    <path
       inkscape:connector-curvature="0"
       id="path4210-3"
       style="font-style:normal;font-variant:normal;font-weight:bold;font-stretch:normal;font-size:medium;line-height:125%;font-family:sans-serif;-inkscape-font-specification:'sans-serif Bold';text-align:center;letter-spacing:0px;word-spacing:0px;text-anchor:middle;fill:none;fill-opacity:1;stroke:#ff0000;stroke-width:1px;stroke-linecap:butt;stroke-linejoin:miter;stroke-opacity:1"
       d="m 94.864471,70.951706 0,-5.97409 3.14514,0 0,0.97822 q 0,0.79479 -0.009,2.00009 -0.009,1.19656 -0.009,1.59833 0,1.1791 0.0611,1.70314 0.0611,0.51531 0.20967,0.75113 0.1922,0.30569 0.49799,0.47164 0.31451,0.16594 0.71639,0.16594 0.978479,0 1.537619,-0.75112 0.55913,-0.75113 0.55913,-2.08744 l 0,-4.82993 3.12766,0 0,9.78213 -3.12766,0 0,-1.41492 q -0.70766,0.85595 -1.50268,1.26645 -0.786269,0.40176 -1.738549,0.40176 -1.69488,0 -2.586,-1.03935 -0.88239,-1.03936 -0.88239,-3.02198 z" />
    <path
       inkscape:connector-curvature="0"
       id="path4212-6"
       style="font-style:normal;font-variant:normal;font-weight:bold;font-stretch:normal;font-size:medium;line-height:125%;font-family:sans-serif;-inkscape-font-specification:'sans-serif Bold';text-align:center;letter-spacing:0px;word-spacing:0px;text-anchor:middle;fill:none;fill-opacity:1;stroke:#ff0000;stroke-width:1px;stroke-linecap:butt;stroke-linejoin:miter;stroke-opacity:1"
       d="m 117.56186,68.803136 0,5.95661 -3.14513,0 0,-0.96947 0,-3.5897 q 0,-1.26643 -0.0611,-1.74681 -0.0524,-0.48038 -0.1922,-0.70746 -0.18346,-0.30569 -0.49798,-0.47163 -0.31451,-0.17468 -0.71639,-0.17468 -0.97849,0 -1.53763,0.75985 -0.55913,0.75114 -0.55913,2.08744 l 0,4.81246 -3.12766,0 0,-9.78213 3.12766,0 0,1.43238 q 0.70765,-0.85593 1.50268,-1.2577 0.79502,-0.41049 1.75604,-0.41049 1.69487,0 2.56852,1.03934 0.88238,1.03935 0.88238,3.02199 z" />
    <path
       inkscape:connector-curvature="0"
       id="path4214-1"
       style="font-style:normal;font-variant:normal;font-weight:bold;font-stretch:normal;font-size:medium;line-height:125%;font-family:sans-serif;-inkscape-font-specification:'sans-serif Bold';text-align:center;letter-spacing:0px;word-spacing:0px;text-anchor:middle;fill:none;fill-opacity:1;stroke:#ff0000;stroke-width:1px;stroke-linecap:butt;stroke-linejoin:miter;stroke-opacity:1"
       d="m 120.47985,64.977616 3.12766,0 0,9.78213 -3.12766,0 0,-9.78213 z m 0,-3.80805 3.12766,0 0,2.55035 -3.12766,0 0,-2.55035 z" />
    <path
       sodipodi:nodetypes="ccccccsscscscc"
       inkscape:connector-curvature="0"
       id="path4216-0"
       style="font-style:normal;font-variant:normal;font-weight:bold;font-stretch:normal;font-size:medium;line-height:125%;font-family:sans-serif;-inkscape-font-specification:'sans-serif Bold';text-align:center;letter-spacing:0px;word-spacing:0px;text-anchor:middle;fill:none;fill-opacity:1;stroke:#ff0000;stroke-width:1px;stroke-linecap:butt;stroke-linejoin:miter;stroke-opacity:1"
       d="m 133.28753,66.409996 0,-5.24043 3.14513,0 0,13.59018 -3.14513,0 0,-1.41492 c -0.431,0.57646 -0.90568,0.9986 -1.42404,1.26645 -0.51837,0.26784 -1.11828,0.40176 -1.79972,0.40176 -1.20564,0 -2.19577,-0.47746 -2.9704,-1.43238 -0.77464,-0.96075 -1.16196,-2.19516 -1.16196,-3.70324 0,-1.50808 0.38732,-2.73958 1.16196,-3.6945 0.77463,-0.96075 1.76476,-1.44111 2.9704,-1.44111 0.67562,0 1.27261,0.13682 1.79097,0.41049 0.52419,0.26785 1.00179,0.68708 1.43279,1.2577 z" />
    <path
       sodipodi:nodetypes="sccccscscscscsscccscs"
       inkscape:connector-curvature="0"
       id="path4218-6"
       style="font-style:normal;font-variant:normal;font-weight:bold;font-stretch:normal;font-size:medium;line-height:125%;font-family:sans-serif;-inkscape-font-specification:'sans-serif Bold';text-align:center;letter-spacing:0px;word-spacing:0px;text-anchor:middle;fill:none;fill-opacity:1;stroke:#ff0000;stroke-width:1px;stroke-linecap:butt;stroke-linejoin:miter;stroke-opacity:1"
       d="m 148.62005,69.178686 0,5.58106 -3.15387,0 0,-1.44985 c -0.41934,0.59392 -0.89112,1.02771 -1.41531,1.30138 -0.52419,0.26784 -1.16196,0.40176 -1.91329,0.40176 -1.01343,0 -1.83757,-0.29404 -2.47242,-0.88214 -0.62903,-0.59392 -0.94355,-1.36251 -0.94355,-2.30579 0,-1.14707 0.39314,-1.98845 1.17943,-2.52413 0.79211,-0.53569 2.03269,-0.80353 3.72174,-0.80353 l 1.8434,0 0,-0.24456 c 0,-0.49493 -0.19512,-0.85594 -0.58535,-1.08302 -0.39023,-0.23291 -0.99886,-0.34937 -1.82592,-0.34937 -0.66979,0 -1.293,0.0669 -1.86961,0.20089 -0.57661,0.13392 -1.11244,0.3348 -1.60751,0.60265 l 0,-2.3844 c 0.6698,-0.16303 1.3425,-0.28531 2.01813,-0.36683 0.67562,-0.0873 1.35124,-0.131 2.02686,-0.131 1.76477,0 3.03739,0.34935 3.81785,1.04808 0.78628,0.69289 1.17942,1.8225 1.17942,3.3888 z" />
    <path
       inkscape:connector-curvature="0"
       id="path4220-3"
       style="font-style:normal;font-variant:normal;font-weight:bold;font-stretch:normal;font-size:medium;line-height:125%;font-family:sans-serif;-inkscape-font-specification:'sans-serif Bold';text-align:center;letter-spacing:0px;word-spacing:0px;text-anchor:middle;fill:none;fill-opacity:1;stroke:#ff0000;stroke-width:1px;stroke-linecap:butt;stroke-linejoin:miter;stroke-opacity:1"
       d="m 158.20397,66.409996 0,-5.24043 3.14512,0 0,13.59018 -3.14512,0 0,-1.41492 q -0.64651,0.86468 -1.42405,1.26645 -0.77755,0.40176 -1.79972,0.40176 -1.80845,0 -2.9704,-1.43238 -1.16196,-1.44112 -1.16196,-3.70324 0,-2.26212 1.16196,-3.6945 1.16195,-1.44111 2.9704,-1.44111 1.01343,0 1.79098,0.41049 0.78628,0.40177 1.43279,1.2577 z m -2.06182,6.33218 q 1.0047,0 1.52889,-0.73365 0.53293,-0.73366 0.53293,-2.13111 0,-1.39745 -0.53293,-2.13111 -0.52419,-0.73366 -1.52889,-0.73366 -0.99596,0 -1.52888,0.73366 -0.52419,0.73366 -0.52419,2.13111 0,1.39745 0.52419,2.13111 0.53292,0.73365 1.52888,0.73365 z" />
    <path
       sodipodi:nodetypes="sccssccccscscscs"
       inkscape:connector-curvature="0"
       id="path4222-2"
       style="font-style:normal;font-variant:normal;font-weight:bold;font-stretch:normal;font-size:medium;line-height:125%;font-family:sans-serif;-inkscape-font-specification:'sans-serif Bold';text-align:center;letter-spacing:0px;word-spacing:0px;text-anchor:middle;fill:none;fill-opacity:1;stroke:#ff0000;stroke-width:1px;stroke-linecap:butt;stroke-linejoin:miter;stroke-opacity:1"
       d="m 174.13931,69.842486 0,0.89087 -7.31244,0 c 0.0758,0.73366 0.34072,1.2839 0.79502,1.65073 0.45431,0.36683 1.08916,0.55024 1.90456,0.55024 0.65815,0 1.33086,-0.0961 2.01812,-0.28822 0.6931,-0.19797 1.40367,-0.49493 2.13171,-0.89087 l 0,2.41059 c -0.73969,0.2795 -1.47938,0.48911 -2.21907,0.62886 -0.73968,0.14556 -1.47937,0.21835 -2.21907,0.21835 -1.77059,0 -3.14804,-0.44834 -4.13235,-1.34504 -0.97848,-0.90252 -1.46773,-2.16605 -1.46773,-3.79058 0,-1.59542 0.4805,-2.85021 1.44152,-3.76437 0.96683,-0.91416 2.29478,-1.37124 3.98384,-1.37124 1.53762,0 2.76654,0.46289 3.68679,1.3887 0.92607,0.92581 1.3891,2.16314 1.3891,3.71198 z" />
    <path
       inkscape:connector-curvature="0"
       id="path4224-0"
       style="font-style:normal;font-variant:normal;font-weight:bold;font-stretch:normal;font-size:medium;line-height:125%;font-family:sans-serif;-inkscape-font-specification:'sans-serif Bold';text-align:center;letter-spacing:0px;word-spacing:0px;text-anchor:middle;fill:none;fill-opacity:1;stroke:#ff0000;stroke-width:1px;stroke-linecap:butt;stroke-linejoin:miter;stroke-opacity:1"
       d="m 184.14257,65.283306 0,2.37566 q -1.0047,-0.41923 -1.9395,-0.62885 -0.9348,-0.20962 -1.76476,-0.20962 -0.89113,0 -1.32795,0.22709 -0.42809,0.21835 -0.42809,0.68126 0,0.37556 0.32326,0.57645 0.33198,0.20088 1.17942,0.29695 l 0.5504,0.0786 q 2.40252,0.3057 3.2325,1.00442 0.82996,0.69873 0.82996,2.19225 0,1.56339 -1.15322,2.34946 -1.15321,0.78606 -3.44217,0.78606 -0.96975,0 -2.00939,-0.15721 -1.03091,-0.14848 -2.12296,-0.45417 l 0,-2.37567 q 0.9348,0.45418 1.91328,0.68126 0.98722,0.22709 2.00066,0.22709 0.91733,0 1.38036,-0.25329 0.46304,-0.25329 0.46304,-0.75113 0,-0.41923 -0.32325,-0.62012 -0.31452,-0.20961 -1.26679,-0.32315 l -0.5504,-0.0699 q -2.08802,-0.26203 -2.92672,-0.96949 -0.83871,-0.70746 -0.83871,-2.14857 0,-1.55466 1.06586,-2.30579 1.06585,-0.75113 3.26744,-0.75113 0.86491,0 1.81719,0.13101 0.95227,0.13102 2.07054,0.4105 z" />
    <path
       inkscape:connector-curvature="0"
       id="path4226-6"
       style="font-style:normal;font-variant:normal;font-weight:bold;font-stretch:normal;font-size:medium;line-height:125%;font-family:sans-serif;-inkscape-font-specification:'sans-serif Bold';text-align:center;letter-spacing:0px;word-spacing:0px;text-anchor:middle;fill:none;fill-opacity:1;stroke:#ff0000;stroke-width:1px;stroke-linecap:butt;stroke-linejoin:miter;stroke-opacity:1"
       d="m 44.955261,86.914086 0,2.77743 3.223761,0 0,2.23592 -3.223761,0 0,4.14868 q 0,0.68125 0.27083,0.92581 0.270831,0.23582 1.074588,0.23582 l 1.607512,0 0,2.23591 -2.6821,0 q -1.852133,0 -2.62968,-0.7686 -0.76881,-0.77732 -0.76881,-2.62894 l 0,-4.14868 -1.555094,0 0,-2.23592 1.555094,0 0,-2.77743 3.12766,0 z" />
    <path
       sodipodi:nodetypes="sccssccccscscscs"
       inkscape:connector-curvature="0"
       id="path4228-1"
       style="font-style:normal;font-variant:normal;font-weight:bold;font-stretch:normal;font-size:medium;line-height:125%;font-family:sans-serif;-inkscape-font-specification:'sans-serif Bold';text-align:center;letter-spacing:0px;word-spacing:0px;text-anchor:middle;fill:none;fill-opacity:1;stroke:#ff0000;stroke-width:1px;stroke-linecap:butt;stroke-linejoin:miter;stroke-opacity:1"
       d="m 59.868426,94.556386 0,0.89087 -7.312424,0 c 0.07576,0.73367 0.340719,1.28391 0.79502,1.65074 0.454301,0.36683 1.089144,0.55024 1.904544,0.55024 0.65815,0 1.33086,-0.0961 2.01813,-0.28822 0.6931,-0.19797 1.40367,-0.49493 2.13171,-0.89087 l 0,2.41059 c -0.73969,0.2795 -1.47939,0.48911 -2.21907,0.62885 -0.73969,0.14557 -1.47938,0.21836 -2.21907,0.21836 -1.770595,0 -3.148045,-0.44835 -4.132355,-1.34505 -0.978486,-0.90251 -1.467728,-2.16604 -1.467728,-3.79058 0,-1.59542 0.480506,-2.85021 1.441519,-3.76437 0.966837,-0.91416 2.294781,-1.37125 3.983834,-1.37125 1.53762,0 2.76656,0.4629 3.6868,1.38871 0.92606,0.92581 1.38909,2.16314 1.38909,3.71198 z" />
    <path
       inkscape:connector-curvature="0"
       id="path4230-5"
       style="font-style:normal;font-variant:normal;font-weight:bold;font-stretch:normal;font-size:medium;line-height:125%;font-family:sans-serif;-inkscape-font-specification:'sans-serif Bold';text-align:center;letter-spacing:0px;word-spacing:0px;text-anchor:middle;fill:none;fill-opacity:1;stroke:#ff0000;stroke-width:1px;stroke-linecap:butt;stroke-linejoin:miter;stroke-opacity:1"
       d="m 70.133791,89.997206 0,2.55034 q -0.63776,-0.4367 -1.28426,-0.64631 -0.63776,-0.20962 -1.32794,-0.20962 -1.31048,0 -2.04434,0.76859 -0.72513,0.75987 -0.72513,2.13111 0,1.37125 0.72513,2.13985 0.73386,0.75986 2.04434,0.75986 0.73385,0 1.38909,-0.21835 0.66397,-0.21835 1.22311,-0.64632 l 0,2.55908 q -0.73386,0.27075 -1.49394,0.40176 -0.75133,0.13975 -1.51141,0.13975 -2.64715,0 -4.14109,-1.35378 -1.49394,-1.36251 -1.49394,-3.78185 0,-2.41933 1.49394,-3.77311 1.49394,-1.36251 4.14109,-1.36251 0.76881,0 1.51141,0.13975 0.75134,0.131 1.49394,0.40176 z" />
    <path
       inkscape:connector-curvature="0"
       id="path4232-5"
       style="font-style:normal;font-variant:normal;font-weight:bold;font-stretch:normal;font-size:medium;line-height:125%;font-family:sans-serif;-inkscape-font-specification:'sans-serif Bold';text-align:center;letter-spacing:0px;word-spacing:0px;text-anchor:middle;fill:none;fill-opacity:1;stroke:#ff0000;stroke-width:1px;stroke-linecap:butt;stroke-linejoin:miter;stroke-opacity:1"
       d="m 82.688111,93.517026 0,5.95663 -3.14513,0 0,-0.96948 0,-3.5897 q 0,-1.26644 -0.0611,-1.74681 -0.0524,-0.48038 -0.1922,-0.70746 -0.18347,-0.30569 -0.49798,-0.47164 -0.31452,-0.17467 -0.71639,-0.17467 -0.97849,0 -1.53763,0.75985 -0.55913,0.75114 -0.55913,2.08744 l 0,4.81247 -3.12766,0 0,-9.78214 3.12766,0 0,1.43238 q 0.70766,-0.85593 1.50268,-1.2577 0.79502,-0.4105 1.75603,-0.4105 1.69488,0 2.56853,1.03935 0.88238,1.03935 0.88238,3.02198 z" />
    <path
       inkscape:connector-curvature="0"
       id="path4234-4"
       style="font-style:normal;font-variant:normal;font-weight:bold;font-stretch:normal;font-size:medium;line-height:125%;font-family:sans-serif;-inkscape-font-specification:'sans-serif Bold';text-align:center;letter-spacing:0px;word-spacing:0px;text-anchor:middle;fill:none;fill-opacity:1;stroke:#ff0000;stroke-width:1px;stroke-linecap:butt;stroke-linejoin:miter;stroke-opacity:1"
       d="m 90.262651,91.691616 q -1.03964,0 -1.59004,0.75113 -0.54167,0.74239 -0.54167,2.14857 0,1.40619 0.54167,2.15732 0.5504,0.74239 1.59004,0.74239 1.02216,0 1.56383,-0.74239 0.54165,-0.75113 0.54165,-2.15732 0,-1.40618 -0.54165,-2.14857 -0.54167,-0.75113 -1.56383,-0.75113 z m 0,-2.23592 q 2.52484,0 3.94014,1.36251 1.42405,1.36251 1.42405,3.77311 0,2.41061 -1.42405,3.77312 -1.4153,1.36251 -3.94014,1.36251 -2.53359,0 -3.96637,-1.36251 -1.42404,-1.36251 -1.42404,-3.77312 0,-2.4106 1.42404,-3.77311 1.43278,-1.36251 3.96637,-1.36251 z" />
    <path
       inkscape:connector-curvature="0"
       id="path4236-7"
       style="font-style:normal;font-variant:normal;font-weight:bold;font-stretch:normal;font-size:medium;line-height:125%;font-family:sans-serif;-inkscape-font-specification:'sans-serif Bold';text-align:center;letter-spacing:0px;word-spacing:0px;text-anchor:middle;fill:none;fill-opacity:1;stroke:#ff0000;stroke-width:1px;stroke-linecap:butt;stroke-linejoin:miter;stroke-opacity:1"
       d="m 97.907061,85.883466 3.127659,0 0,13.59019 -3.127659,0 0,-13.59019 z" />
    <path
       inkscape:connector-curvature="0"
       id="path4238-6"
       style="font-style:normal;font-variant:normal;font-weight:bold;font-stretch:normal;font-size:medium;line-height:125%;font-family:sans-serif;-inkscape-font-specification:'sans-serif Bold';text-align:center;letter-spacing:0px;word-spacing:0px;text-anchor:middle;fill:none;fill-opacity:1;stroke:#ff0000;stroke-width:1px;stroke-linecap:butt;stroke-linejoin:miter;stroke-opacity:1"
       d="m 108.71408,91.691616 q -1.03964,0 -1.59004,0.75113 -0.54166,0.74239 -0.54166,2.14857 0,1.40619 0.54166,2.15732 0.5504,0.74239 1.59004,0.74239 1.02217,0 1.56383,-0.74239 0.54167,-0.75113 0.54167,-2.15732 0,-1.40618 -0.54167,-2.14857 -0.54166,-0.75113 -1.56383,-0.75113 z m 0,-2.23592 q 2.52485,0 3.94016,1.36251 1.42404,1.36251 1.42404,3.77311 0,2.41061 -1.42404,3.77312 -1.41531,1.36251 -3.94016,1.36251 -2.53357,0 -3.96636,-1.36251 -1.42405,-1.36251 -1.42405,-3.77312 0,-2.4106 1.42405,-3.77311 1.43279,-1.36251 3.96636,-1.36251 z m 1.37163,-4.28842 2.47242,0 -3.22375,3.28401 -1.71236,0 2.46369,-3.28401 z" />
    <path
       sodipodi:nodetypes="csscscsscccscsscccsssc"
       inkscape:connector-curvature="0"
       id="path4240-5"
       style="font-style:normal;font-variant:normal;font-weight:bold;font-stretch:normal;font-size:medium;line-height:125%;font-family:sans-serif;-inkscape-font-specification:'sans-serif Bold';text-align:center;letter-spacing:0px;word-spacing:0px;text-anchor:middle;fill:none;fill-opacity:1;stroke:#ff0000;stroke-width:1px;stroke-linecap:butt;stroke-linejoin:miter;stroke-opacity:1"
       d="m 123.0157,97.814196 c -0.431,0.57062 -0.90567,0.98985 -1.42404,1.25769 -0.51837,0.26785 -1.11827,0.40177 -1.79971,0.40177 -1.19399,0 -2.18122,-0.46873 -2.96167,-1.40618 -0.78046,-0.94328 -1.17069,-2.14276 -1.17069,-3.59844 0,-1.46149 0.39023,-2.65806 1.17069,-3.58969 0.78045,-0.93745 1.76768,-1.40618 2.96167,-1.40618 0.68144,0 1.28134,0.13392 1.79971,0.40177 0.51837,0.26784 0.99304,0.68998 1.42404,1.26643 l 0,-1.44985 3.14514,0 0,8.79519 c 0,1.572134 -0.49798,2.771614 -1.49394,3.598434 -0.99013,0.83265 -2.42874,1.24897 -4.31582,1.24897 -0.61155,0 -1.20272,-0.0466 -1.77351,-0.13974 -0.57078,-0.0932 -1.14447,-0.23583 -1.72108,-0.42797 l 0,-2.4368 c 0.54749,0.31443 1.08332,0.54733 1.60751,0.69872 0.52419,0.15722 1.05129,0.23582 1.5813,0.23582 1.02509,0 1.77642,-0.22417 2.25401,-0.67252 0.4776,-0.44835 0.71639,-1.149994 0.71639,-2.104914 z" />
    <path
       inkscape:connector-curvature="0"
       id="path4242-6"
       style="font-style:normal;font-variant:normal;font-weight:bold;font-stretch:normal;font-size:medium;line-height:125%;font-family:sans-serif;-inkscape-font-specification:'sans-serif Bold';text-align:center;letter-spacing:0px;word-spacing:0px;text-anchor:middle;fill:none;fill-opacity:1;stroke:#ff0000;stroke-width:1px;stroke-linecap:butt;stroke-linejoin:miter;stroke-opacity:1"
       d="m 129.18367,89.691516 3.12766,0 0,9.78214 -3.12766,0 0,-9.78214 z m 0,-3.80805 3.12766,0 0,2.55034 -3.12766,0 0,-2.55034 z" />
    <path
       inkscape:connector-curvature="0"
       id="path4244-9"
       style="font-style:normal;font-variant:normal;font-weight:bold;font-stretch:normal;font-size:medium;line-height:125%;font-family:sans-serif;-inkscape-font-specification:'sans-serif Bold';text-align:center;letter-spacing:0px;word-spacing:0px;text-anchor:middle;fill:none;fill-opacity:1;stroke:#ff0000;stroke-width:1px;stroke-linecap:butt;stroke-linejoin:miter;stroke-opacity:1"
       d="m 143.24066,89.997206 0,2.55034 q -0.63776,-0.4367 -1.28427,-0.64631 -0.63776,-0.20962 -1.32794,-0.20962 -1.31047,0 -2.04434,0.76859 -0.72512,0.75987 -0.72512,2.13111 0,1.37125 0.72512,2.13985 0.73387,0.75986 2.04434,0.75986 0.73387,0 1.3891,-0.21835 0.66397,-0.21835 1.22311,-0.64632 l 0,2.55908 q -0.73386,0.27075 -1.49394,0.40176 -0.75134,0.13975 -1.51141,0.13975 -2.64715,0 -4.14109,-1.35378 -1.49394,-1.36251 -1.49394,-3.78185 0,-2.41933 1.49394,-3.77311 1.49394,-1.36251 4.14109,-1.36251 0.76881,0 1.51141,0.13975 0.75134,0.131 1.49394,0.40176 z" />
    <path
       sodipodi:nodetypes="sccccscscscscsscccscs"
       inkscape:connector-curvature="0"
       id="path4246-3"
       style="font-style:normal;font-variant:normal;font-weight:bold;font-stretch:normal;font-size:medium;line-height:125%;font-family:sans-serif;-inkscape-font-specification:'sans-serif Bold';text-align:center;letter-spacing:0px;word-spacing:0px;text-anchor:middle;fill:none;fill-opacity:1;stroke:#ff0000;stroke-width:1px;stroke-linecap:butt;stroke-linejoin:miter;stroke-opacity:1"
       d="m 155.12227,93.892586 0,5.58107 -3.15387,0 0,-1.44985 c -0.41934,0.59392 -0.89112,1.0277 -1.41531,1.30138 -0.52419,0.26784 -1.16196,0.40176 -1.91329,0.40176 -1.01343,0 -1.83757,-0.29405 -2.47242,-0.88214 -0.62903,-0.59392 -0.94354,-1.36252 -0.94354,-2.30579 0,-1.14708 0.39314,-1.98846 1.17943,-2.52415 0.7921,-0.53569 2.03268,-0.80353 3.72173,-0.80353 l 1.8434,0 0,-0.24455 c 0,-0.49493 -0.19511,-0.85594 -0.58534,-1.08303 -0.39024,-0.2329 -0.99887,-0.34936 -1.82592,-0.34936 -0.6698,0 -1.29301,0.0669 -1.86962,0.20089 -0.5766,0.13392 -1.11243,0.3348 -1.6075,0.60265 l 0,-2.3844 c 0.66979,-0.16304 1.3425,-0.28531 2.01812,-0.36683 0.67562,-0.0873 1.35124,-0.13101 2.02686,-0.13101 1.76478,0 3.03739,0.34936 3.81785,1.04809 0.78629,0.69289 1.17942,1.8225 1.17942,3.3888 z" />
    <path
       inkscape:connector-curvature="0"
       id="path4248-7"
       style="font-style:normal;font-variant:normal;font-weight:bold;font-stretch:normal;font-size:medium;line-height:125%;font-family:sans-serif;-inkscape-font-specification:'sans-serif Bold';text-align:center;letter-spacing:0px;word-spacing:0px;text-anchor:middle;fill:none;fill-opacity:1;stroke:#ff0000;stroke-width:1px;stroke-linecap:butt;stroke-linejoin:miter;stroke-opacity:1"
       d="m 165.69341,89.997206 0,2.37566 q -1.0047,-0.41923 -1.9395,-0.62885 -0.9348,-0.20962 -1.76477,-0.20962 -0.89112,0 -1.32795,0.22709 -0.42808,0.21835 -0.42808,0.68126 0,0.37556 0.32324,0.57645 0.332,0.20088 1.17943,0.29695 l 0.5504,0.0786 q 2.40253,0.3057 3.23249,1.00442 0.82998,0.69873 0.82998,2.19226 0,1.56339 -1.15322,2.34946 -1.15321,0.78606 -3.44218,0.78606 -0.96974,0 -2.00938,-0.15721 -1.03091,-0.14848 -2.12297,-0.45417 l 0,-2.37567 q 0.9348,0.45418 1.91329,0.68126 0.98722,0.22709 2.00065,0.22709 0.91734,0 1.38036,-0.25329 0.46304,-0.25329 0.46304,-0.75113 0,-0.41923 -0.32325,-0.62012 -0.31451,-0.20961 -1.26679,-0.32316 l -0.5504,-0.0699 q -2.08802,-0.26203 -2.92672,-0.96949 -0.8387,-0.70746 -0.8387,-2.14857 0,-1.55466 1.06585,-2.30579 1.06585,-0.75113 3.26744,-0.75113 0.86492,0 1.81719,0.13101 0.95228,0.13101 2.07055,0.4105 z" />
    <path
       sodipodi:nodetypes="csssssssscssccccssssssscssssccssssssccssssssssscccsssssssscsscssssscssssssssssssssssscsssssscssssssssssssccsssssssssssssssccsccssscccssssscccssssssssscssscssscsssscsscsssssccsssssssssscccccccccccccccccccsccccccscccsssccssssscscsssscccccsscsscsssssssscs"
       inkscape:connector-curvature="0"
       id="path4692-5"
       d="m 305.69136,178.21514 c -1.27185,2.81553 -4.6526,3.5167 -6.76233,1.40253 -1.0856,-1.08787 -1.18403,-1.42537 -1.18403,-4.05917 0,-3.04204 -0.44059,-3.59092 -1.79386,-2.23478 -0.76019,0.7618 -0.80721,1.87587 -0.1554,3.68222 0.41524,1.15075 0.37891,1.44652 -0.2653,2.15988 -0.96599,1.06965 -1.60037,1.04455 -2.34397,-0.0927 -1.5644,-2.3926 -1.29455,-6.67304 0.53633,-8.50779 1.11917,-1.12153 1.15023,-1.1268 6.64397,-1.1268 l 5.51956,0 -0.035,1.92811 c -0.0192,1.06046 0.0657,2.75009 0.18872,3.75473 0.1418,1.15763 0.0141,2.29073 -0.34867,3.09379 z m 0.18151,-14.45685 c -0.60846,2.00452 -1.67897,3.65042 -2.36611,3.63787 -0.38416,-0.007 -1.02119,-0.45734 -1.41564,-1.00072 -0.69006,-0.95061 -0.68623,-1.04583 0.10124,-2.51822 0.96275,-1.80005 1.04447,-3.31277 0.23812,-4.4076 -0.85715,-1.16379 -1.42636,-0.34149 -1.85187,2.67527 -0.46312,3.28328 -1.59283,4.5629 -4.02837,4.5629 -2.97988,0 -4.87431,-3.00739 -4.25364,-6.75258 0.59057,-3.56341 2.05867,-4.83522 3.605,-3.12294 0.67936,0.75226 0.6795,0.87576 0.003,2.6504 -0.5727,1.50275 -0.61874,2.06075 -0.23892,2.89611 0.75969,1.67084 1.42454,0.90761 1.88568,-2.16463 0.23698,-1.57881 0.67058,-3.16001 0.96357,-3.51379 0.67753,-0.8181 2.9829,-1.46557 4.18207,-1.17455 2.72502,0.66131 4.26334,4.64922 3.17565,8.23248 z m -0.4347,-13.12761 c -1.21599,2.39644 -2.87747,3.09781 -6.90436,2.91456 -2.86044,-0.13017 -3.29162,-0.26109 -4.41622,-1.34079 -3.08004,-2.95709 -2.29694,-8.23787 1.45456,-9.80866 1.88619,-0.78976 5.72147,-0.71145 7.40989,0.1513 2.98259,1.52407 4.032,4.97788 2.45613,8.08359 z m 0.0177,-13.77545 c -1.095,2.41726 -2.79542,3.35395 -6.09062,3.35506 -4.67098,0.002 -7.05967,-2.12581 -7.05967,-6.28736 0,-2.16653 1.35945,-5.07619 2.3717,-5.07619 1.30085,0 2.48002,2.8108 1.44746,3.45031 -0.46785,0.28975 -0.53543,2.62714 -0.0951,3.28805 0.47832,0.71787 1.98157,1.37999 3.13304,1.37999 1.15148,0 2.65472,-0.66212 3.13304,-1.37999 0.4455,-0.66861 0.37056,-2.25079 -0.17872,-3.773 -0.43627,-1.20901 -0.3964,-1.44693 0.37133,-2.21628 1.14596,-1.14837 1.99674,-0.75306 2.96099,1.3758 0.98924,2.18405 0.99093,3.71046 0.007,5.88361 z m 0.36206,-18.15664 c -0.85483,2.03891 -2.00084,2.84163 -4.05689,2.84163 -1.64526,0 -2.06815,-0.17799 -2.96738,-1.24889 -0.88777,-1.0573 -1.04866,-1.64524 -1.04866,-3.83227 0,-2.66762 -0.27317,-3.21819 -1.38466,-2.79077 -0.93683,0.36024 -1.24294,2.09356 -0.65668,3.71827 0.93075,2.57933 -1.19936,4.5939 -2.56779,2.42851 -1.51923,-2.40399 -1.22306,-6.69994 0.58693,-8.51374 1.11917,-1.12154 1.15024,-1.1268 6.64398,-1.1268 l 5.51955,0 -0.035,1.9281 c -0.0192,1.06047 0.0611,2.75009 0.17848,3.75474 0.11744,1.00465 0.0221,2.2832 -0.21187,2.84122 z m -0.47798,-14.20072 c -1.22886,2.4295 -3.04337,3.43997 -6.17723,3.43997 -3.20199,0 -4.95179,-1.00088 -6.2225,-3.55924 -1.24366,-2.50389 -0.95801,-5.018386 0.78552,-6.914756 l 1.18922,-1.29348 0.80743,0.95829 c 0.86904,1.03143 1.05689,2.2896 0.40235,2.69496 -0.58255,0.360806 -0.49903,2.760446 0.1259,3.616886 0.7694,1.05445 4.01745,1.34964 5.33453,0.48483 0.8033,-0.52745 1.02059,-1.00872 1.02059,-2.26048 0,-0.8747 -0.18227,-1.703256 -0.40506,-1.841236 -1.10845,-0.68649 0.49612,-3.70132 1.71956,-3.23085 0.88842,0.34164 2.33108,3.37209 2.33108,4.896676 0,0.66359 -0.41013,2.01738 -0.91139,3.00843 z m -0.73377,-24.407886 c -0.6579,-1.2319 -2.76215,-2.06754 -5.26581,-2.09117 -4.27755,-0.0404 -6.20429,1.5375 -6.20595,5.08231 -0.002,3.57237 2.6134,5.46006 6.97107,5.03206 2.57688,-0.2531 3.98108,-1.08786 4.76348,-2.83175 0.60075,-1.33902 0.47575,-3.80858 -0.26279,-5.19145 z m -15.05177,1.10344 c -1.53409,-1.6287 -2.22154,-1.88027 -2.22528,-0.91339 -0.004,1.21302 0.87989,2.35247 2.20402,3.26053 2.19163,1.50298 2.20361,-0.0302 0.0213,-2.34714 z m -6.5826,10.07814 c -0.54029,-1.81482 -2.70658,-5.04619 -3.3829,-5.04617 -0.15087,2e-5 -0.78579,0.64242 -1.41096,1.42756 l -1.13664,1.42755 0.89728,1.26277 c 1.20897,1.70142 1.46907,4.67426 0.57428,6.56386 -0.99297,2.09694 -3.29906,3.119446 -7.03538,3.119446 -3.28053,0 -5.05705,-0.599406 -6.53525,-2.205036 -1.42352,-1.54622 -1.46127,-5.49638 -0.0712,-7.44943 l 0.94886,-1.33315 -1.0871,-1.42827 c -0.5979,-0.78554 -1.2983,-1.35859 -1.55646,-1.27344 -0.99053,0.32675 -3.02869,3.57149 -3.51227,5.59157 -0.97762,4.08378 1.0418,8.773696 4.65155,10.802796 2.16763,1.21847 6.18861,1.91606 9.02685,1.56605 4.90173,-0.60447 8.40079,-3.19151 9.60314,-7.100076 0.74102,-2.40885 0.74588,-3.50871 0.0263,-5.92603 z m -0.48735,-20.08218 c -0.70299,-1.19877 -0.7045,-1.28673 -0.0306,-1.78299 0.49841,-0.36702 0.70887,-1.08116 0.70887,-2.40536 l 0,-1.88336 -9.02812,0 c -8.55693,0 -9.12242,0.0477 -10.83545,0.91331 -3.08243,1.55765 -4.71995,6.46006 -3.67422,10.99993 0.45438,1.9726 2.13286,4.72938 2.87953,4.72938 0.20012,0 0.84106,-0.627 1.42434,-1.39333 0.99503,-1.30729 1.02147,-1.45306 0.42822,-2.3604 -0.93029,-1.42278 -1.19527,-4.30365 -0.56843,-6.17997 0.62564,-1.87274 1.92522,-2.70584 3.9817,-2.5525 l 1.41773,0.1057 0.25512,4.46509 c 0.28656,5.01562 0.58422,6.02548 2.23576,7.58514 3.8803,3.66441 9.84208,1.92447 11.43684,-3.33784 0.58145,-1.91861 0.26548,-5.37365 -0.63126,-6.90281 z m 16.77954,55.942256 -6.58229,-0.11153 0,-1.62367 0,-1.62367 6.58229,-0.11154 6.58228,-0.11153 0,1.84674 0,1.84673 z m -0.10124,-32.381986 -6.73014,0 0.12456,-1.72514 0.12455,-1.72516 6.48103,0 6.48102,0 0.12456,1.72516 0.12456,1.72514 z m 0,-20.29588 -6.68356,0 0,-1.62367 c 0,-0.92992 0.19426,-1.62367 0.45466,-1.62367 0.30897,0 0.28885,-0.2002 -0.0627,-0.62481 -0.85405,-1.03125 -0.71082,-4.02903 0.25478,-5.33247 1.38891,-1.87485 2.37739,-2.1486 7.78173,-2.15509 l 4.98532,-0.006 -0.12455,1.72516 -0.12457,1.72515 -4.43164,0.11599 c -2.43742,0.0639 -4.67033,0.31449 -4.96204,0.5571 -0.29171,0.24261 -0.53038,0.95637 -0.53038,1.58614 0,1.92066 1.20852,2.40882 5.96356,2.40882 l 4.16303,0 0,1.62366 0,1.62368 -6.68355,0 z m -9.26238,52.601706 c -0.33153,0.12748 -1.02616,0.17168 -1.54363,0.0982 -0.80542,-0.11435 -0.94086,-0.36733 -0.94086,-1.75725 0,-1.58501 0.0338,-1.62368 1.41772,-1.62368 1.34642,0 1.42406,0.0768 1.54363,1.52547 0.0878,1.06341 -0.0567,1.59565 -0.47686,1.75724 z m -1.06677,-32.305826 -1.66684,0 0.12457,-1.72514 c 0.12109,-1.67722 0.16394,-1.72516 1.54227,-1.72516 1.37833,0 1.42119,0.0479 1.54229,1.72516 l 0.12455,1.72514 z m -4.72574,86.189856 c -0.14852,0.14883 -8.07765,0.27061 -17.62029,0.27061 l -17.35024,0 0,-7.96978 c 0,-4.87441 0.18258,-8.58047 0.4701,-9.54214 0.62949,-2.10547 2.78448,-4.55146 4.92471,-5.58971 2.30058,-1.11604 7.04253,-1.16159 9.39003,-0.0902 1.52765,0.69721 4.35074,3.39223 4.72171,4.50751 0.11345,0.34107 2.58267,-0.7019 7.49115,-3.16421 5.46866,-2.74329 7.43847,-3.55617 7.7824,-3.21152 0.63943,0.64078 0.60183,6.22802 -0.0459,6.81366 -0.27849,0.25179 -3.51393,1.86884 -7.18989,3.59343 l -6.68355,3.13561 -0.1206,2.51134 -0.12059,2.51133 7.06461,0 c 6.06834,0 7.09928,0.0905 7.31048,0.64209 0.33239,0.86803 0.31344,5.24365 -0.0242,5.58199 z m -0.49791,-33.2176 c -0.41258,0.89303 -1.2744,2.11631 -1.91516,2.71842 -2.31293,2.17343 -3.35719,2.35555 -13.50644,2.35555 l -9.32948,0 0,-3.04438 0,-3.04438 7.70922,0 c 8.88499,0 10.17761,-0.30066 11.13181,-2.5892 0.70459,-1.68986 0.1908,-3.64467 -1.16208,-4.42145 -0.5731,-0.32905 -3.695,-0.5679 -9.17261,-0.70179 l -8.30381,-0.20296 0,-3.04438 0,-3.04438 12.10306,-0.1076 c 8.59235,-0.0764 12.2641,0.0264 12.65824,0.35414 0.78102,0.64955 0.74626,4.9839 -0.0464,5.77816 -0.53202,0.53315 -0.53202,0.76958 0,2.04555 0.81528,1.95536 0.74283,4.98071 -0.1664,6.9487 z m -0.17253,-25.57281 c -1.20866,2.49707 -2.69764,3.93464 -5.33801,5.15369 -1.74529,0.80578 -2.67505,0.93508 -6.7244,0.93508 -4.57101,0 -4.77482,-0.0387 -7.47801,-1.42072 -3.61988,-1.85064 -5.12666,-4.08707 -5.37378,-7.97599 -0.30403,-4.78489 2.08588,-8.70951 6.25575,-10.27294 2.86221,-1.07315 8.84075,-1.1944 9.22646,-0.18713 0.13523,0.35315 0.24587,3.54975 0.24587,7.10356 0,5.59351 0.0852,6.46149 0.63422,6.46149 3.05533,0 4.44595,-4.95929 2.25516,-8.04246 -0.47523,-0.6688 -0.86406,-1.46944 -0.86406,-1.77919 0,-0.30975 0.81704,-1.36673 1.81564,-2.34886 l 1.81564,-1.78567 1.05835,0.99081 c 2.19503,2.05492 3.1472,4.31693 3.30604,7.854 0.12719,2.83239 0.0122,3.56424 -0.83487,5.31433 z m -47.55446,58.96719 -9.22668,-0.10918 0,-1.21775 0,-1.21776 7.79748,-0.1103 7.79749,-0.11029 0,-4.27909 0,-4.27909 1.31645,0.12719 1.31646,0.1272 0.11274,5.58903 0.11275,5.58901 z m 8.70498,-14.72216 c -0.75886,1.35369 -1.6408,1.80019 -3.58255,1.81372 -2.69803,0.0189 -3.72703,-1.19809 -3.94753,-4.66827 -0.13497,-2.12401 -0.29704,-2.62535 -0.84876,-2.62535 -1.50962,0 -2.20163,2.27544 -1.23975,4.07652 0.29526,0.55286 0.26725,1.01178 -0.0974,1.59699 -1.25622,2.01576 -3.15232,-0.054 -3.15232,-3.44096 0,-2.09318 0.83242,-4.02829 2.00288,-4.65602 0.42862,-0.22988 3.13517,-0.41795 6.01457,-0.41795 l 5.23525,0 0.0354,3.75473 c 0.0198,2.096 -0.16567,4.1134 -0.41973,4.56659 z"
       style="fill:none;stroke:#ff0000;stroke-width:1" />
  </g>
  <g
     inkscape:groupmode="layer"
     id="layer1"
     inkscape:label="Borde-tarjeta"
     style="display:inline">
    <rect
       ry="23.924044"
       y="21.872057"
       x="17.423988"
       height="176.16536"
       width="303.37552"
       id="rect4136"
       style="display:inline;opacity:1;fill:none;fill-opacity:0;stroke:#ff0000;stroke-width:0.99999994;stroke-linecap:round;stroke-linejoin:round;stroke-miterlimit:4;stroke-dasharray:none;stroke-dashoffset:0;stroke-opacity:1" />
  </g>
</svg>
