<?xml version="1.0" encoding="UTF-8" standalone="no"?>
<!-- Created with Inkscape (http://www.inkscape.org/) -->

<svg
   xmlns:dc="http://purl.org/dc/elements/1.1/"
   xmlns:cc="http://creativecommons.org/ns#"
   xmlns:rdf="http://www.w3.org/1999/02/22-rdf-syntax-ns#"
   xmlns:svg="http://www.w3.org/2000/svg"
   xmlns="http://www.w3.org/2000/svg"
   xmlns:sodipodi="http://sodipodi.sourceforge.net/DTD/sodipodi-0.dtd"
   xmlns:inkscape="http://www.inkscape.org/namespaces/inkscape"
   width="457.20001mm"
   height="304.79999mm"
   viewBox="0 0 1620 1080"
   id="svg2"
   version="1.1"
   inkscape:version="0.91 r13725"
   sodipodi:docname="Tarjeta-logo-rueca.svg">
  <defs
     id="defs4" />
  <sodipodi:namedview
     id="base"
     pagecolor="#ffffff"
     bordercolor="#666666"
     borderopacity="1.0"
     inkscape:pageopacity="0.0"
     inkscape:pageshadow="2"
     inkscape:zoom="1.1597398"
     inkscape:cx="122.00827"
     inkscape:cy="822.2756"
     inkscape:document-units="px"
     inkscape:current-layer="layer2"
     showgrid="false"
     inkscape:window-width="1855"
     inkscape:window-height="1056"
     inkscape:window-x="69"
     inkscape:window-y="1048"
     inkscape:window-maximized="1" />
  <metadata
     id="metadata7">
    <rdf:RDF>
      <cc:Work
         rdf:about="">
        <dc:format>image/svg+xml</dc:format>
        <dc:type
           rdf:resource="http://purl.org/dc/dcmitype/StillImage" />
        <dc:title></dc:title>
      </cc:Work>
    </rdf:RDF>
  </metadata>
  <g
     inkscape:groupmode="layer"
     id="layer2"
     inkscape:label="Layer 2"
     style="display:inline">
    <path
       style="fill:none;stroke:#ff0000;stroke-width:1"
       d="m 32.942576,165.06359 c -4.623131,-2.09055 -5.77448,-7.64751 -2.30298,-11.11528 1.786306,-1.78439 2.340469,-1.9462 6.665208,-1.9462 4.995057,0 5.896307,-0.72418 3.669527,-2.94857 -1.250876,-1.24953 -3.080192,-1.32681 -6.046232,-0.25543 -1.889552,0.68253 -2.375213,0.62282 -3.546556,-0.43609 -1.756373,-1.58779 -1.715168,-2.63052 0.152251,-3.85278 3.928679,-2.57141 10.957199,-2.12787 13.969878,0.88157 1.841564,1.83958 1.850215,1.89065 1.850215,10.92073 l 0,9.0725 -3.165973,-0.0575 c -1.741285,-0.0316 -4.515679,0.10793 -6.165318,0.3102 -1.900836,0.23307 -3.76139,0.0232 -5.08002,-0.5731 z m 23.73829,0.29834 c -3.291459,-1.00014 -5.994035,-2.75974 -5.973432,-3.88919 0.01153,-0.63144 0.750955,-1.67854 1.643193,-2.32689 1.560899,-1.13425 1.717258,-1.12796 4.134935,0.16645 2.95572,1.58247 5.43961,1.7168 7.237323,0.39139 1.910962,-1.4089 0.560751,-2.34451 -4.392792,-3.04393 -5.391207,-0.76123 -7.49234,-2.61813 -7.49234,-6.62144 0,-4.89803 4.938153,-8.01192 11.087807,-6.99171 5.851146,0.9707 7.93946,3.38384 5.127904,5.92553 -1.235223,1.11666 -1.438038,1.11691 -4.352001,0.005 -2.467513,-0.94134 -3.383766,-1.01701 -4.755439,-0.3927 -2.74352,1.24869 -1.490301,2.34153 3.554349,3.09949 2.592413,0.38952 5.188764,1.10224 5.769677,1.58384 1.34332,1.11366 2.406471,4.903 1.928622,6.87408 -1.085873,4.47912 -7.63406,7.00766 -13.517806,5.21982 z M 78.23652,164.6474 c -3.934992,-1.99871 -5.08664,-4.72969 -4.785733,-11.34871 0.213747,-4.70172 0.4287,-5.41045 2.201585,-7.25896 4.855571,-5.06268 13.52668,-3.77549 16.105912,2.39085 1.29681,3.10036 1.16822,9.40442 -0.24843,12.17967 -2.502531,4.9025 -8.173717,6.62742 -13.273334,4.03715 z m 22.61943,0.0291 c -3.969166,-1.79986 -5.507216,-4.59485 -5.509046,-10.01117 -0.003,-7.67771 3.49061,-11.60403 10.323906,-11.60403 3.55746,0 8.33515,2.23454 8.33515,3.89838 0,2.13821 -4.61535,4.07643 -5.66543,2.37921 -0.47578,-0.76901 -4.3138,-0.8801 -5.39901,-0.15626 -1.17876,0.78623 -2.26597,3.25711 -2.26597,5.1498 0,1.89268 1.08721,4.36356 2.26597,5.14979 1.09786,0.73227 3.6958,0.60908 6.19529,-0.29378 1.9852,-0.71709 2.37588,-0.65156 3.63916,0.61036 1.88563,1.88361 1.23652,3.28206 -2.25908,4.867 -3.58623,1.62601 -6.09261,1.62879 -9.66094,0.0107 z m 29.81337,0.59511 c -3.34791,-1.40509 -4.66598,-3.28879 -4.66598,-6.66832 0,-2.70432 0.29225,-3.39944 2.0507,-4.87749 1.73608,-1.45924 2.70149,-1.72369 6.29261,-1.72369 4.38026,0 5.28431,-0.44902 4.58248,-2.27598 -0.59153,-1.53986 -3.43764,-2.04302 -6.10543,-1.07937 -4.2353,1.52986 -7.54325,-1.97141 -3.98765,-4.22071 3.94739,-2.49714 11.00137,-2.01033 13.97965,0.96476 1.84157,1.83958 1.85022,1.89065 1.85022,10.92073 l 0,9.0725 -3.16597,-0.0575 c -1.74129,-0.0316 -4.51568,0.10036 -6.16532,0.29337 -1.64964,0.19302 -3.74903,0.0363 -4.66531,-0.34825 z m 23.31774,-0.78565 c -3.98928,-2.01988 -5.64848,-5.0024 -5.64848,-10.15353 0,-5.26312 1.64346,-8.13928 5.8443,-10.22796 4.11142,-2.04421 8.24023,-1.57469 11.35411,1.29117 l 2.1239,1.95473 -1.57351,1.32716 c -1.69361,1.42846 -3.75955,1.73722 -4.42518,0.66136 -0.59244,-0.95755 -4.53268,-0.82026 -5.93895,0.20694 -1.7314,1.26466 -2.21612,6.6035 -0.7961,8.76838 0.86607,1.3204 1.65634,1.67756 3.71174,1.67756 1.43626,0 2.79675,-0.29961 3.02331,-0.6658 1.12725,-1.82197 6.07763,0.81547 5.30512,2.82644 -0.56098,1.46031 -5.53701,3.83161 -8.04041,3.83161 -1.08964,0 -3.31257,-0.67413 -4.93985,-1.49806 z m 40.07798,-1.2061 c 2.02279,-1.0814 3.39493,-4.54015 3.43373,-8.65544 0.0663,-7.03103 -2.5246,-10.19801 -8.34521,-10.20075 -5.86587,-0.003 -8.96548,4.29567 -8.26269,11.45839 0.4156,4.23562 1.78628,6.54372 4.64976,7.82974 2.1987,0.98746 6.25372,0.78199 8.52441,-0.43194 z m 13.35569,-80.501548 -20.34745,-11.854891 0,-3.882857 0,-3.88285 5.62377,-4.034673 c 14.64351,-10.505735 14.63657,-10.501394 13.60189,-8.509198 -3.05864,5.889254 -3.07682,20.294158 -0.0347,27.483885 1.00715,2.380254 2.5999,5.28399 2.5999,5.28399 z m 2.8606,-38.599563 c 8.56268,-9.373813 13.73699,-12.902235 22.00548,-15.005786 21.86064,-5.561458 43.87959,12.140053 43.87959,35.275754 0,19.724038 -16.18666,36.225353 -35.58481,36.276553 m 3.01928,4.00466 c 9.63748,0 11.86117,0.46191 13.06801,2.7145 1.26926,2.36909 -1.05806,4.8876 -4.75974,5.15075 -1.613,0.11466 -3.14916,0.42077 -3.41371,0.68022 -0.37433,0.36713 7.29449,40.1099 9.21332,47.74692 l -2e-5,0 c 0.3397,1.35202 0.16506,1.63267 -1.01601,1.63267 -0.78441,0 -1.57177,-0.37893 -1.74969,-0.84205 -0.17791,-0.46314 -2.34731,-11.6237 -4.82089,-24.80125 l -4.49742,-23.95919 -12.18728,-0.1816 -12.18727,-0.1816 0.19943,-3.81323 0.19945,-3.81323 4.66564,-0.19257 M 185.55977,62.011577 c -0.19108,-0.19088 5.20693,-4.313839 11.9335,-9.100113 m 50.52903,42.091959 c 1.99111,-0.589072 4.43059,-1.488148 5.42106,-1.997942 l 1.80085,-0.926894 -5.39667,-8.999916 -5.39666,-8.999919 -2.40287,0.425729 c -1.32159,0.23415 -2.58581,0.614099 -2.80939,0.844328 -0.477,0.491177 -4.59239,18.116863 -4.59239,19.668616 0,1.456775 8.43459,1.447946 13.37607,-0.01398 z M 222.38379,74.0619 c 7.45466,-4.480756 8.92983,-5.629144 8.92983,-6.951659 0,-0.871326 -0.26339,-1.74684 -0.58533,-1.945597 -0.32193,-0.198749 -4.44602,-0.973307 -9.16466,-1.721233 -4.71863,-0.747932 -9.45124,-1.535972 -10.5169,-1.751207 l -1.93759,-0.391334 0.4092,5.300682 c 0.3626,4.697037 2.63304,12.827787 3.58205,12.827787 0.19447,0 4.372,-2.415352 9.2834,-5.367439 z m 48.37526,-8.947377 c 0.009,-6.040232 -2.25563,-14.660886 -3.70479,-14.105385 -0.45691,0.175147 -4.33642,2.814206 -8.62114,5.864586 -7.10688,5.059541 -7.79039,5.729368 -7.79039,7.634443 0,2.08732 0.005,2.089856 9.49792,5.412291 11.11779,3.8909 10.60569,4.12268 10.6184,-4.805935 z m -25.54412,5.30465 c 2.83738,-2.384928 3.76747,-5.535106 2.51695,-8.524791 -1.24744,-2.982341 -3.94116,-4.739262 -7.26626,-4.739262 -2.18348,0 -3.00558,0.423586 -4.96288,2.557072 -2.14426,2.337283 -2.31617,2.820557 -1.99999,5.622612 0.6888,6.104449 7.15766,8.912636 11.71218,5.084369 z m -4.44661,-16.209948 c 0.78724,-0.712651 4.77901,-19.374441 4.25531,-19.893875 -1.08466,-1.075822 -10.08705,-0.386394 -14.57685,1.116335 -2.49299,0.834394 -4.44256,1.724476 -4.33238,1.977961 0.11017,0.253479 2.59979,4.402338 5.53248,9.219679 4.92092,8.083269 5.46069,8.72928 6.99847,8.37605 0.91647,-0.210514 1.8718,-0.568784 2.12297,-0.79615 z m -7.26726,30.069054 c 2.41108,-10.153547 2.44856,-10.500917 1.26103,-11.687176 -1.18753,-1.186252 -1.4947,-1.060568 -10.33444,4.228682 -5.01079,2.998197 -9.11053,5.770924 -9.11053,6.161611 0,1.380082 7.71359,8.123477 11.33086,9.905698 2.01622,0.993395 3.82388,1.817329 4.017,1.830965 0.19313,0.01365 1.46936,-4.68426 2.83608,-10.43978 z m 30.66997,-0.03222 c 2.35778,-3.237412 4.73385,-7.478414 4.35028,-7.764731 -0.11868,-0.08859 -4.48293,-1.62551 -9.69835,-3.415381 -9.30235,-3.192476 -9.50104,-3.229362 -10.45495,-1.940936 -0.79525,1.074137 -0.81972,1.555974 -0.13432,2.645005 0.46095,0.732386 2.86319,4.707 5.33832,8.832476 l 4.50025,7.500862 1.90153,-1.35255 c 1.04584,-0.743911 2.9346,-2.771042 4.19724,-4.504745 z m -31.65232,-25.056652 1.33676,-2.263206 -4.16126,-6.891617 c -2.2887,-3.790383 -4.76246,-7.866223 -5.49726,-9.057408 l -1.33598,-2.165805 -3.35737,3.215573 c -1.84657,1.768565 -4.18961,4.53247 -5.20677,6.142021 -1.93086,3.055407 -4.42741,9.395344 -3.90514,9.917056 0.28923,0.288913 17.40702,3.15629 19.68968,3.298186 0.60532,0.03762 1.70212,-0.950031 2.43734,-2.1948 z m 25.47397,-6.218162 c 4.00444,-2.842203 7.28815,-5.452546 7.29715,-5.800775 0.0321,-1.243571 -7.89269,-8.287638 -11.21705,-9.970414 -3.12134,-1.580003 -5.42961,-2.172676 -5.42961,-1.394103 0,0.175859 -0.93512,4.543868 -2.07804,9.706695 l -2.07804,9.386955 2.24467,1.91985 c 1.23457,1.05592 2.63515,1.784757 3.1124,1.619638 0.47725,-0.16512 4.14409,-2.62565 8.14852,-5.467846 z M 192.25317,138.5392 c 2.67436,-2.52159 3.08742,-3.65155 1.49981,-3.6577 -1.99179,-0.008 -3.86278,1.44627 -5.35382,3.62275 -2.46792,3.60239 0.0496,3.62209 3.85401,0.035 z m -16.54838,-10.81984 c 2.97994,-0.88809 8.28588,-4.44881 8.28584,-5.56049 -2e-5,-0.24798 -1.05484,-1.29161 -2.34406,-2.31919 l -2.34405,-1.8683 -2.07347,1.47485 c -2.79376,1.98719 -7.6752,2.41472 -10.77793,0.94396 -3.44321,-1.63216 -5.12218,-5.42269 -5.12218,-11.5641 0,-5.39221 0.98424,-8.31229 3.6207,-10.742015 2.53892,-2.339839 9.02512,-2.401885 12.23204,-0.117015 l 2.18905,1.559662 2.34523,-1.786868 c 1.28988,-0.982782 2.23082,-2.134046 2.091,-2.55837 -0.53652,-1.628147 -5.86442,-4.978266 -9.18141,-5.773144 -6.7056,-1.606921 -14.40652,1.712424 -17.73833,7.645781 -2.00072,3.562939 -3.14617,10.172229 -2.57145,14.837479 0.99254,8.05698 5.24048,13.8084 11.65841,15.78472 3.95536,1.21799 5.76134,1.22598 9.73061,0.0431 z m 32.97513,-0.80106 c 1.96839,-1.15551 2.11282,-1.15799 2.92768,-0.0503 0.60266,0.81924 1.77528,1.16515 3.94963,1.16515 l 3.0925,0 0,-14.83954 c 0,-14.065049 -0.0783,-14.994573 -1.49967,-17.810277 -2.55768,-5.066598 -10.60749,-7.758183 -18.06199,-6.039327 -3.23904,0.746874 -7.76569,3.505805 -7.76569,4.733104 0,0.328921 1.02954,1.382464 2.28786,2.341204 2.14658,1.635517 2.38594,1.678981 3.8758,0.703843 2.33623,-1.529115 7.06663,-1.964665 10.14758,-0.934325 3.07505,1.028363 4.44301,3.164493 4.19122,6.544748 l -0.17358,2.33032 -7.33173,0.41933 c -8.2357,0.47103 -9.89389,0.96029 -12.45486,3.67494 -6.017,6.37806 -3.16001,16.17747 5.48075,18.79878 3.15038,0.95573 8.82361,0.43636 11.3345,-1.03761 z m -91.85775,27.5806 0.18314,-10.81934 2.66608,0 2.66608,0 0.18314,10.81934 0.18314,10.81933 -3.03236,0 -3.03236,0 z m 53.17154,-0.16645 0,-11.06236 2.83271,0.20474 2.83272,0.20473 0,10.65289 0,10.65288 -2.83272,0.20474 -2.83271,0.20473 z m 33.32604,0 0,-10.98579 2.66608,0 c 1.52694,0 2.66609,0.31931 2.66609,0.74733 0,0.50786 0.32874,0.47478 1.02595,-0.10322 1.69332,-1.40382 6.6157,-1.16838 8.75597,0.41878 3.07851,2.28295 3.52802,3.90773 3.53867,12.79085 l 0.01,8.1944 -2.83272,-0.20473 -2.83271,-0.20474 -0.19047,-7.28433 c -0.10476,-4.00638 -0.5164,-7.67663 -0.91476,-8.15611 -0.39836,-0.47948 -1.57037,-0.87179 -2.60445,-0.87179 -3.15376,0 -3.95531,1.98646 -3.95531,9.80233 l 0,6.8428 -2.66608,0 -2.66609,0 0,-10.98578 z m -86.37251,-15.22461 c -0.20934,-0.54494 -0.28191,-1.68671 -0.16127,-2.53728 0.18776,-1.32385 0.60316,-1.54649 2.88542,-1.54649 2.6026,0 2.66608,0.0555 2.66608,2.33032 0,2.21312 -0.12598,2.34073 -2.50481,2.53728 -1.74614,0.14428 -2.62009,-0.0931 -2.88542,-0.78383 z m 53.04647,-1.75345 0,-2.73979 2.83271,0.20474 c 2.75401,0.19905 2.83272,0.26948 2.83272,2.53505 0,2.26557 -0.0787,2.33601 -2.83272,2.53506 l -2.83271,0.20473 z M 28.469131,129.58666 C 28.22474,129.34254 28.024784,116.3094 28.024784,100.62414 l 0,-28.518662 13.086458,0 c 8.003827,0 14.089208,0.300112 15.668289,0.772707 3.457197,1.034688 7.473525,4.576855 9.178345,8.094757 1.832546,3.781474 1.907356,11.575843 0.148134,15.434431 -1.144829,2.511005 -5.570067,7.151317 -7.40138,7.761097 -0.560037,0.18648 1.152541,4.24514 5.195657,12.31323 4.504514,8.98885 5.839266,12.22664 5.273352,12.79195 -1.052163,1.05104 -10.226475,0.98923 -11.188085,-0.0754 -0.413456,-0.45774 -3.068655,-5.77586 -5.900449,-11.81805 l -5.148706,-10.98578 -4.123643,-0.19823 -4.123639,-0.19821 0,11.61212 c 0,9.97455 -0.14868,11.66912 -1.054294,12.01627 -1.425328,0.54636 -8.610147,0.51521 -9.165692,-0.0398 z m 54.543617,-0.8184 c -1.466346,-0.67817 -3.474993,-2.09475 -4.463656,-3.14795 -3.568806,-3.80178 -3.867854,-5.51825 -3.867854,-22.2006 l 0,-15.334903 4.998906,0 4.998906,0 0,12.671683 c 0,14.60429 0.493679,16.72897 4.25149,18.2974 2.774764,1.15813 5.984574,0.31361 7.260064,-1.91014 0.54031,-0.942 0.9325,-6.07347 1.15234,-15.07704 l 0.33326,-13.649 4.998906,0 4.9989,0 0.17669,19.89384 c 0.12543,14.12328 -0.0433,20.15854 -0.58151,20.80641 -1.06657,1.28376 -8.183616,1.22661 -9.487806,-0.0762 -0.87542,-0.87447 -1.26364,-0.87447 -3.35881,0 -3.21071,1.34008 -8.17836,1.221 -11.409826,-0.27351 z m 41.990812,-0.28359 c -4.10021,-1.98667 -6.46073,-4.43413 -8.46241,-8.77412 -1.32311,-2.86873 -1.53541,-4.39698 -1.53541,-11.05291 0,-7.51338 0.0636,-7.84838 2.33283,-12.29164 3.03876,-5.950009 6.71101,-8.426711 13.09665,-8.832886 7.85683,-0.499747 14.3011,3.428558 16.86828,10.282597 1.76212,4.704619 1.96121,14.531559 0.30725,15.165559 -0.57986,0.22227 -5.82871,0.40413 -11.66412,0.40413 -9.18459,0 -10.60981,0.14004 -10.60981,1.04248 0,5.02206 8.1432,7.30781 13.20579,3.7068 1.09819,-0.78114 2.41284,-1.42025 2.92145,-1.42025 0.50861,0 2.24419,1.34297 3.85684,2.98437 l 2.93209,2.98438 -1.62691,1.73962 c -3.3742,3.60797 -7.08845,5.17305 -12.89636,5.43414 -4.6508,0.20907 -5.8525,0.0201 -8.72616,-1.37227 z m -96.824708,-78.165446 0.179192,-15.165939 1.999563,0 1.999562,0 0.181023,12.816752 0.181022,12.816751 7.026306,0 7.026308,0 -0.208861,2.163867 -0.208861,2.163868 -9.177223,0.18532 -9.177223,0.18532 z m 24.173941,14.308402 c -2.222786,-1.24734 -2.955939,-2.696991 -2.978148,-5.888648 -0.03086,-4.434769 1.967263,-6.126148 7.665323,-6.488586 3.487663,-0.221839 4.310856,-0.488241 4.310856,-1.395088 0,-2.48137 -3.736295,-3.618831 -6.693675,-2.03779 -0.907794,0.485312 -1.661363,0.439291 -2.622266,-0.16016 -3.309916,-2.064862 0.08857,-5.181503 5.650077,-5.181503 3.437021,0 6.614492,1.368263 7.645227,3.292148 0.377457,0.704522 0.686283,5.153293 0.686283,9.886163 l 0,8.60522 -6.165317,0.05812 c -3.441647,0.03242 -6.754222,-0.272321 -7.49836,-0.689908 z M 184.99264,62.007582 c -0.18258,-0.488341 -0.58744,-3.948664 -0.8997,-7.689618 -0.31225,-3.740947 -0.94964,-7.261392 -1.41641,-7.823212 -0.46677,-0.561813 -1.67502,-1.021485 -2.68501,-1.021485 -3.12339,0 -3.57785,1.278 -3.12072,8.77331 0.3951,6.478385 0.34843,6.80698 -1.23367,8.68517 -2.39305,2.840931 -2.21974,6.03872 0.47289,8.725591 2.02266,2.018342 2.19322,0.457401 2.73335,7.385567 l 0.56978,9.557961 6.14549,4.299531 c 1.04779,-0.08671 1.16952,-1.658295 0.63152,-9.515742 -0.38714,-5.654258 -0.65754,-10.338348 -0.60089,-10.409083 l 13.38118,7.963007"
       id="path4692"
       inkscape:connector-curvature="0"
       sodipodi:nodetypes="csssssssscssccccssssssscssssccssssssccssssssssscccsssssssscssccsssscssssssssssssssscsscccscccssccssssscsscsssccccssssscsscsssssssssscsssccssssssssccssscssccccssssssssssssscsssssssscccccssscsssssscssssssssssssscsssssssssssssssccsccssscccssssscccssssssssscssscssscsssscsscsssssccsssssssssscccccccccccccccccccsccccccscccsssccssssscscsssscccccsscsscsssssssscsssssssssscccc" />
  </g>
  <g
     inkscape:groupmode="layer"
     id="layer1"
     inkscape:label="frame"
     style="display:inline"
     sodipodi:insensitive="true">
    <rect
       style="opacity:1;fill:none;fill-opacity:0;stroke:#ff0000;stroke-width:1;stroke-linecap:round;stroke-linejoin:round;stroke-miterlimit:4;stroke-dasharray:none;stroke-dashoffset:0;stroke-opacity:1"
       id="rect4136"
       width="282.46457"
       height="176.16536"
       x="8.6226168"
       y="15.273199"
       ry="43.434807" />
  </g>
</svg>
