<?xml version="1.0" encoding="UTF-8" standalone="no"?>
<!-- Created with Inkscape (http://www.inkscape.org/) -->

<svg
   xmlns:dc="http://purl.org/dc/elements/1.1/"
   xmlns:cc="http://creativecommons.org/ns#"
   xmlns:rdf="http://www.w3.org/1999/02/22-rdf-syntax-ns#"
   xmlns:svg="http://www.w3.org/2000/svg"
   xmlns="http://www.w3.org/2000/svg"
   xmlns:sodipodi="http://sodipodi.sourceforge.net/DTD/sodipodi-0.dtd"
   xmlns:inkscape="http://www.inkscape.org/namespaces/inkscape"
   width="457.20001mm"
   height="304.79999mm"
   viewBox="0 0 1620 1080"
   id="svg2"
   version="1.1"
   inkscape:version="0.91 r13725"
   sodipodi:docname="Tarjeta-logo-rueca-grabado.svg">
  <defs
     id="defs4" />
  <sodipodi:namedview
     id="base"
     pagecolor="#ffffff"
     bordercolor="#666666"
     borderopacity="1.0"
     inkscape:pageopacity="0.0"
     inkscape:pageshadow="2"
     inkscape:zoom="1.1597398"
     inkscape:cx="228.23256"
     inkscape:cy="815.24398"
     inkscape:document-units="px"
     inkscape:current-layer="layer3"
     showgrid="false"
     inkscape:window-width="1215"
     inkscape:window-height="1000"
     inkscape:window-x="65"
     inkscape:window-y="24"
     inkscape:window-maximized="1" />
  <metadata
     id="metadata7">
    <rdf:RDF>
      <cc:Work
         rdf:about="">
        <dc:format>image/svg+xml</dc:format>
        <dc:type
           rdf:resource="http://purl.org/dc/dcmitype/StillImage" />
        <dc:title></dc:title>
      </cc:Work>
    </rdf:RDF>
  </metadata>
  <g
     inkscape:groupmode="layer"
     id="layer3"
     inkscape:label="Grabado"
     style="display:inline">
    <path
       style="fill:#000000"
       d="m 179.37419,163.47448 c 0,-2.3088 0.69237,-2.57955 2.08126,-0.81385 1.62177,2.06174 1.56802,2.36401 -0.42037,2.36401 -1.29707,0 -1.66089,-0.33956 -1.66089,-1.55016 z m 74.86653,-0.94117 c -0.15619,-0.27404 -2.33057,-11.48503 -4.83195,-24.9133 l -4.54797,-24.41504 -12.1483,0 -12.1483,0 0,-4.62254 0,-4.62254 5.07038,-0.19403 c 4.39601,-0.16823 5.20131,-0.39176 6.0548,-1.68067 0.89499,-1.35158 0.87193,-1.52246 -0.25381,-1.88102 -5.94367,-1.893093 -10.08343,-4.192423 -13.56845,-7.536273 -6.01245,-5.76889 -6.03167,-5.78212 -19.12943,-13.17184 -14.4336,-8.14339 -14.03238,-7.95663 -13.68722,-6.37095 0.45113,2.07254 1.68241,20.31988 1.39081,20.61149 -0.15162,0.15162 -1.13108,-0.5246 -2.17658,-1.5027 -1.0455,-0.97811 -2.53005,-2.19637 -3.29899,-2.70725 -1.23524,-0.82069 -1.45144,-1.82134 -1.85619,-8.59139 -0.4495,-7.51855 -0.4975,-7.69771 -2.55483,-9.53593 -2.66601,-2.38209 -2.88648,-5.81527 -0.53424,-8.31912 1.49893,-1.59554 1.54446,-1.93826 1.11934,-8.42526 -0.37975,-5.79473 -0.28441,-6.93746 0.66642,-7.98812 0.61026,-0.67433 1.61481,-1.22605 2.23234,-1.22605 2.38446,0 3.20111,2.09409 3.69198,9.46705 0.26151,3.928 0.74581,7.14182 1.07623,7.14182 0.33041,0 5.89511,-3.7649 12.36599,-8.36643 8.01105,-5.69678 12.63613,-9.47035 14.49454,-11.82599 5.62992,-7.13625 13.58868,-12.09681 22.02148,-13.72561 20.03928,-3.87061 40.43697,11.21498 42.52418,31.44973 1.02965,9.98217 -0.86738,17.91681 -6.14938,25.72072 -6.36492,9.40388 -16.24286,15.010643 -27.77206,15.763523 -4.76094,0.31091 -5.96519,0.60916 -6.50083,1.61001 -0.62454,1.16695 -0.20592,1.2284 8.36773,1.2284 9.979,0 12.4737,0.68794 13.21572,3.64439 0.84912,3.38316 -1.65018,5.65658 -6.21859,5.65658 -2.47527,0 -2.68293,0.13136 -2.36304,1.4948 0.59332,2.52892 9.63992,47.51429 9.63992,47.93579 0,0.57903 -3.85702,0.48495 -4.1917,-0.10225 z m -3.94316,-67.986713 c 2.33431,-0.77681 4.3989,-1.81551 4.58797,-2.30824 0.18908,-0.49272 -2.05048,-4.87493 -4.97681,-9.73823 l -5.32057,-8.84237 -2.93758,0.23363 -2.93758,0.23364 -2.43996,10.40509 c -1.34197,5.7228 -2.43585,10.60945 -2.43084,10.85923 0.0325,1.62218 10.68814,1.07647 16.45537,-0.84275 z m -16.81433,-9.41062 c 1.32944,-5.57228 2.53244,-10.47329 2.67333,-10.89113 0.1409,-0.41785 -0.40556,-1.38139 -1.21434,-2.1412 l -1.47052,-1.38148 -9.44335,5.66434 c -5.19384,3.11539 -9.44335,5.96532 -9.44335,6.33318 0,1.69853 7.13146,8.0494 11.48372,10.22674 2.55162,1.27653 4.71988,2.32096 4.81834,2.32096 0.0985,0 1.26673,-4.55914 2.59617,-10.13141 z m 30.23148,0.10719 c 2.03985,-2.53832 5.52505,-8.62151 5.15276,-8.9938 -0.11154,-0.11154 -4.6,-1.7382 -9.97436,-3.6148 l -9.77155,-3.412 -1.23081,1.51999 c -1.22451,1.5122 -1.20715,1.5594 3.38456,9.20237 2.53847,4.22531 5.04639,8.35764 5.57317,9.18295 l 0.95778,1.50057 1.94739,-1.43977 c 1.07107,-0.79188 2.85354,-2.56735 3.96106,-3.94551 z m -56.17677,-5.14843 c -1.98594,-4.14964 -3.55954,-11.09906 -3.55954,-15.71985 0,-4.15959 1.52717,-11.50023 2.97504,-14.30011 0.60414,-1.16826 0.80294,-2.01618 0.4418,-1.88426 -0.36114,0.13192 -5.2622,3.52472 -10.89125,7.53955 l -10.23462,7.29968 0.15127,3.99435 0.15127,3.99434 11.18304,6.37632 c 6.15067,3.50698 11.24439,6.33557 11.31938,6.28575 0.075,-0.0498 -0.61638,-1.66341 -1.53639,-3.58577 z m 14.15339,-5.1852 c 10.46812,-6.24898 10.26833,-6.07177 9.61206,-8.52565 -0.52227,-1.95282 -0.55936,-1.96587 -9.78394,-3.44133 -13.35233,-2.13568 -12.24929,-2.40337 -12.24929,2.97264 0,5.13798 2.31213,14.07203 3.64184,14.07203 0.15032,0 4.10102,-2.28496 8.77933,-5.07769 z m 48.89096,-4.55897 c 1.35012,-6.16003 -1.48305,-20.92559 -3.84148,-20.02057 -0.47443,0.18205 -4.495,2.96369 -8.9346,6.1814 -7.81275,5.6625 -8.06567,5.92288 -7.87511,8.10732 l 0.19689,2.25692 8.96879,3.2026 c 4.93283,1.76143 9.40418,3.14042 9.93632,3.06442 0.54211,-0.0774 1.22327,-1.30507 1.54919,-2.79209 z m -26.50471,1.32149 c 2.5652,-1.21726 4.38952,-4.09927 4.38952,-6.9344 0,-6.88638 -7.73882,-10.50046 -12.85874,-6.00511 -4.11406,3.61219 -3.61222,9.77291 1.02646,12.60104 2.62965,1.60325 4.5896,1.69238 7.44276,0.33847 z m -11.15382,-12.20882 1.39771,-2.57545 -5.38384,-8.83579 c -2.96111,-4.85968 -5.73398,-8.94711 -6.16193,-9.08319 -1.47084,-0.46767 -7.97971,6.8983 -10.43844,11.81301 -3.90046,7.79656 -4.13923,7.50449 7.72867,9.45371 5.57228,0.91521 10.43037,1.69532 10.79577,1.73359 0.36539,0.0383 1.29332,-1.08938 2.06206,-2.50588 z m 24.514,-5.75538 c 4.38371,-3.1264 8.06796,-5.96027 8.18722,-6.29749 0.11925,-0.33722 -1.27626,-2.18891 -3.10114,-4.11487 -3.43463,-3.62486 -9.09362,-7.42448 -12.16713,-8.16939 -2.06737,-0.50105 -1.73535,-1.3051 -4.50697,10.91445 l -2.01963,8.90421 2.48458,2.19608 c 1.36653,1.20784 2.63491,2.20852 2.81863,2.22372 0.18372,0.0152 3.92072,-2.5303 8.30444,-5.65671 z m -16.26729,0.54721 c 0.70539,-0.83044 4.65425,-19.54651 4.25901,-20.18602 -0.68594,-1.10988 -9.96748,-0.63126 -14.33171,0.73904 -2.32221,0.72913 -4.57303,1.55478 -5.00182,1.83477 -0.53903,0.35198 0.97451,3.40597 4.90475,9.89667 l 5.68437,9.3876 2.02617,-0.5811 c 1.11438,-0.3196 2.22104,-0.81053 2.45923,-1.09096 z M 182.32425,142.9748 c 0.2023,-1.20951 0.8401,-5.75743 1.41731,-10.1065 0.57722,-4.34906 1.51034,-8.61073 2.0736,-9.47038 0.75413,-1.15094 0.83279,-1.79351 0.2984,-2.43741 -0.44566,-0.53699 -0.56846,-2.20211 -0.31822,-4.31499 l 0.40748,-3.44055 -4.98561,0 c -4.03784,0 -5.31837,-0.26176 -6.73608,-1.37693 -3.4239,-2.69323 -1.49649,-7.06375 3.40505,-7.72118 2.02988,-0.27227 2.81672,-0.6859 2.81672,-1.48072 0,-0.6066 1.30368,-2.38237 2.89706,-3.946153 l 2.89705,-2.84324 0.42472,2.1236 c 0.2336,1.16799 0.42472,2.983123 0.42472,4.033633 0,1.84912 0.10591,1.91002 3.32178,1.91002 1.82697,0 3.31025,0.22422 3.29618,0.49827 -0.0141,0.27404 -0.98569,1.09618 -2.15915,1.82697 -4.14884,2.58376 -6.22622,9.59241 -4.39782,14.83735 0.5523,1.58435 0.46076,4.01866 -0.38375,10.20448 -0.60999,4.46808 -1.34443,8.58395 -1.63209,9.14638 -0.28766,0.56243 -0.4029,1.35468 -0.25608,1.76056 0.14681,0.40588 -0.50842,1.24599 -1.45608,1.86693 l -1.72302,1.12896 0.36783,-2.1991 z"
       id="path4193"
       inkscape:connector-curvature="0" />
  </g>
  <g
     inkscape:groupmode="layer"
     id="layer2"
     inkscape:label="Corte interior"
     style="display:inline">
    <path
       style="fill:none;stroke:#ff0000;stroke-width:1"
       d="m 32.942576,165.06359 c -4.623131,-2.09055 -5.77448,-7.64751 -2.30298,-11.11528 1.786306,-1.78439 2.340469,-1.9462 6.665208,-1.9462 4.995057,0 5.896307,-0.72418 3.669527,-2.94857 -1.250876,-1.24953 -3.080192,-1.32681 -6.046232,-0.25543 -1.889552,0.68253 -2.375213,0.62282 -3.546556,-0.43609 -1.756373,-1.58779 -1.715168,-2.63052 0.152251,-3.85278 3.928679,-2.57141 10.957199,-2.12787 13.969878,0.88157 1.841564,1.83958 1.850215,1.89065 1.850215,10.92073 l 0,9.0725 -3.165973,-0.0575 c -1.741285,-0.0316 -4.515679,0.10793 -6.165318,0.3102 -1.900836,0.23307 -3.76139,0.0232 -5.08002,-0.5731 z m 23.73829,0.29834 c -3.291459,-1.00014 -5.994035,-2.75974 -5.973432,-3.88919 0.01153,-0.63144 0.750955,-1.67854 1.643193,-2.32689 1.560899,-1.13425 1.717258,-1.12796 4.134935,0.16645 2.95572,1.58247 5.43961,1.7168 7.237323,0.39139 1.910962,-1.4089 0.560751,-2.34451 -4.392792,-3.04393 -5.391207,-0.76123 -7.49234,-2.61813 -7.49234,-6.62144 0,-4.89803 4.938153,-8.01192 11.087807,-6.99171 5.851146,0.9707 7.93946,3.38384 5.127904,5.92553 -1.235223,1.11666 -1.438038,1.11691 -4.352001,0.005 -2.467513,-0.94134 -3.383766,-1.01701 -4.755439,-0.3927 -2.74352,1.24869 -1.490301,2.34153 3.554349,3.09949 2.592413,0.38952 5.188764,1.10224 5.769677,1.58384 1.34332,1.11366 2.406471,4.903 1.928622,6.87408 -1.085873,4.47912 -7.63406,7.00766 -13.517806,5.21982 z M 78.23652,164.6474 c -3.934992,-1.99871 -5.08664,-4.72969 -4.785733,-11.34871 0.213747,-4.70172 0.4287,-5.41045 2.201585,-7.25896 4.855571,-5.06268 13.52668,-3.77549 16.105912,2.39085 1.29681,3.10036 1.16822,9.40442 -0.24843,12.17967 -2.502531,4.9025 -8.173717,6.62742 -13.273334,4.03715 z m 22.61943,0.0291 c -3.969166,-1.79986 -5.507216,-4.59485 -5.509046,-10.01117 -0.003,-7.67771 3.49061,-11.60403 10.323906,-11.60403 3.55746,0 8.33515,2.23454 8.33515,3.89838 0,2.13821 -4.61535,4.07643 -5.66543,2.37921 -0.47578,-0.76901 -4.3138,-0.8801 -5.39901,-0.15626 -1.17876,0.78623 -2.26597,3.25711 -2.26597,5.1498 0,1.89268 1.08721,4.36356 2.26597,5.14979 1.09786,0.73227 3.6958,0.60908 6.19529,-0.29378 1.9852,-0.71709 2.37588,-0.65156 3.63916,0.61036 1.88563,1.88361 1.23652,3.28206 -2.25908,4.867 -3.58623,1.62601 -6.09261,1.62879 -9.66094,0.0107 z m 29.81337,0.59511 c -3.34791,-1.40509 -4.66598,-3.28879 -4.66598,-6.66832 0,-2.70432 0.29225,-3.39944 2.0507,-4.87749 1.73608,-1.45924 2.70149,-1.72369 6.29261,-1.72369 4.38026,0 5.28431,-0.44902 4.58248,-2.27598 -0.59153,-1.53986 -3.43764,-2.04302 -6.10543,-1.07937 -4.2353,1.52986 -7.54325,-1.97141 -3.98765,-4.22071 3.94739,-2.49714 11.00137,-2.01033 13.97965,0.96476 1.84157,1.83958 1.85022,1.89065 1.85022,10.92073 l 0,9.0725 -3.16597,-0.0575 c -1.74129,-0.0316 -4.51568,0.10036 -6.16532,0.29337 -1.64964,0.19302 -3.74903,0.0363 -4.66531,-0.34825 z m 23.31774,-0.78565 c -3.98928,-2.01988 -5.64848,-5.0024 -5.64848,-10.15353 0,-5.26312 1.64346,-8.13928 5.8443,-10.22796 4.11142,-2.04421 8.24023,-1.57469 11.35411,1.29117 l 2.1239,1.95473 -1.57351,1.32716 c -1.69361,1.42846 -3.75955,1.73722 -4.42518,0.66136 -0.59244,-0.95755 -4.53268,-0.82026 -5.93895,0.20694 -1.7314,1.26466 -2.21612,6.6035 -0.7961,8.76838 0.86607,1.3204 1.65634,1.67756 3.71174,1.67756 1.43626,0 2.79675,-0.29961 3.02331,-0.6658 1.12725,-1.82197 6.07763,0.81547 5.30512,2.82644 -0.56098,1.46031 -5.53701,3.83161 -8.04041,3.83161 -1.08964,0 -3.31257,-0.67413 -4.93985,-1.49806 z m 40.07798,-1.2061 c 2.02279,-1.0814 3.39493,-4.54015 3.43373,-8.65544 0.0663,-7.03103 -2.5246,-10.19801 -8.34521,-10.20075 -5.86587,-0.003 -8.96548,4.29567 -8.26269,11.45839 0.4156,4.23562 1.78628,6.54372 4.64976,7.82974 2.1987,0.98746 6.25372,0.78199 8.52441,-0.43194 z m -1.81187,-24.74066 c 2.67436,-2.52159 3.08742,-3.65155 1.49981,-3.6577 -1.99179,-0.008 -3.86278,1.44627 -5.35382,3.62275 -2.46792,3.60239 0.0496,3.62209 3.85401,0.035 z m -16.54838,-10.81984 c 2.97994,-0.88809 8.28588,-4.44881 8.28584,-5.56049 -2e-5,-0.24798 -1.05484,-1.29161 -2.34406,-2.31919 l -2.34405,-1.8683 -2.07347,1.47485 c -2.79376,1.98719 -7.6752,2.41472 -10.77793,0.94396 -3.44321,-1.63216 -5.12218,-5.42269 -5.12218,-11.5641 0,-5.39221 0.98424,-8.31229 3.6207,-10.742015 2.53892,-2.339839 9.02512,-2.401885 12.23204,-0.117015 l 2.18905,1.559662 2.34523,-1.786868 c 1.28988,-0.982782 2.23082,-2.134046 2.091,-2.55837 -0.53652,-1.628147 -5.86442,-4.978266 -9.18141,-5.773144 -6.7056,-1.606921 -14.40652,1.712424 -17.73833,7.645781 -2.00072,3.562939 -3.14617,10.172229 -2.57145,14.837479 0.99254,8.05698 5.24048,13.8084 11.65841,15.78472 3.95536,1.21799 5.76134,1.22598 9.73061,0.0431 z m 32.97513,-0.80106 c 1.96839,-1.15551 2.11282,-1.15799 2.92768,-0.0503 0.60266,0.81924 1.77528,1.16515 3.94963,1.16515 l 3.0925,0 0,-14.83954 c 0,-14.065049 -0.0783,-14.994573 -1.49967,-17.810277 -2.55768,-5.066598 -10.60749,-7.758183 -18.06199,-6.039327 -3.23904,0.746874 -7.76569,3.505805 -7.76569,4.733104 0,0.328921 1.02954,1.382464 2.28786,2.341204 2.14658,1.635517 2.38594,1.678981 3.8758,0.703843 2.33623,-1.529115 7.06663,-1.964665 10.14758,-0.934325 3.07505,1.028363 4.44301,3.164493 4.19122,6.544748 l -0.17358,2.33032 -7.33173,0.41933 c -8.2357,0.47103 -9.89389,0.96029 -12.45486,3.67494 -6.017,6.37806 -3.16001,16.17747 5.48075,18.79878 3.15038,0.95573 8.82361,0.43636 11.3345,-1.03761 z m -91.85775,27.5806 0.18314,-10.81934 2.66608,0 2.66608,0 0.18314,10.81934 0.18314,10.81933 -3.03236,0 -3.03236,0 z m 53.17154,-0.16645 0,-11.06236 2.83271,0.20474 2.83272,0.20473 0,10.65289 0,10.65288 -2.83272,0.20474 -2.83271,0.20473 z m 33.32604,0 0,-10.98579 2.66608,0 c 1.52694,0 2.66609,0.31931 2.66609,0.74733 0,0.50786 0.32874,0.47478 1.02595,-0.10322 1.69332,-1.40382 6.6157,-1.16838 8.75597,0.41878 3.07851,2.28295 3.52802,3.90773 3.53867,12.79085 l 0.01,8.1944 -2.83272,-0.20473 -2.83271,-0.20474 -0.19047,-7.28433 c -0.10476,-4.00638 -0.5164,-7.67663 -0.91476,-8.15611 -0.39836,-0.47948 -1.57037,-0.87179 -2.60445,-0.87179 -3.15376,0 -3.95531,1.98646 -3.95531,9.80233 l 0,6.8428 -2.66608,0 -2.66609,0 0,-10.98578 z m -86.37251,-15.22461 c -0.20934,-0.54494 -0.28191,-1.68671 -0.16127,-2.53728 0.18776,-1.32385 0.60316,-1.54649 2.88542,-1.54649 2.6026,0 2.66608,0.0555 2.66608,2.33032 0,2.21312 -0.12598,2.34073 -2.50481,2.53728 -1.74614,0.14428 -2.62009,-0.0931 -2.88542,-0.78383 z m 53.04647,-1.75345 0,-2.73979 2.83271,0.20474 c 2.75401,0.19905 2.83272,0.26948 2.83272,2.53505 0,2.26557 -0.0787,2.33601 -2.83272,2.53506 l -2.83271,0.20473 z M 28.469131,129.58666 C 28.22474,129.34254 28.024784,116.3094 28.024784,100.62414 l 0,-28.518662 13.086458,0 c 8.003827,0 14.089208,0.300112 15.668289,0.772707 3.457197,1.034688 7.473525,4.576855 9.178345,8.094757 1.832546,3.781474 1.907356,11.575843 0.148134,15.434431 -1.144829,2.511005 -5.570067,7.151317 -7.40138,7.761097 -0.560037,0.18648 1.152541,4.24514 5.195657,12.31323 4.504514,8.98885 5.839266,12.22664 5.273352,12.79195 -1.052163,1.05104 -10.226475,0.98923 -11.188085,-0.0754 -0.413456,-0.45774 -3.068655,-5.77586 -5.900449,-11.81805 l -5.148706,-10.98578 -4.123643,-0.19823 -4.123639,-0.19821 0,11.61212 c 0,9.97455 -0.14868,11.66912 -1.054294,12.01627 -1.425328,0.54636 -8.610147,0.51521 -9.165692,-0.0398 z m 54.543617,-0.8184 c -1.466346,-0.67817 -3.474993,-2.09475 -4.463656,-3.14795 -3.568806,-3.80178 -3.867854,-5.51825 -3.867854,-22.2006 l 0,-15.334903 4.998906,0 4.998906,0 0,12.671683 c 0,14.60429 0.493679,16.72897 4.25149,18.2974 2.774764,1.15813 5.984574,0.31361 7.260064,-1.91014 0.54031,-0.942 0.9325,-6.07347 1.15234,-15.07704 l 0.33326,-13.649 4.998906,0 4.9989,0 0.17669,19.89384 c 0.12543,14.12328 -0.0433,20.15854 -0.58151,20.80641 -1.06657,1.28376 -8.183616,1.22661 -9.487806,-0.0762 -0.87542,-0.87447 -1.26364,-0.87447 -3.35881,0 -3.21071,1.34008 -8.17836,1.221 -11.409826,-0.2735 z m 41.990812,-0.28359 c -4.10021,-1.98667 -6.46073,-4.43413 -8.46241,-8.77412 -1.32311,-2.86873 -1.53541,-4.39698 -1.53541,-11.05291 0,-7.51338 0.0636,-7.84838 2.33283,-12.29164 3.03876,-5.950009 6.71101,-8.426711 13.09665,-8.832886 7.85683,-0.499747 14.3011,3.428558 16.86828,10.282597 1.76212,4.704619 1.96121,14.531559 0.30725,15.165559 -0.57986,0.22227 -5.82871,0.40413 -11.66412,0.40413 -9.18459,0 -10.60981,0.14004 -10.60981,1.04248 0,5.02206 8.1432,7.30781 13.20579,3.7068 1.09819,-0.78114 2.41284,-1.42025 2.92145,-1.42025 0.50861,0 2.24419,1.34297 3.85684,2.98437 l 2.93209,2.98438 -1.62691,1.73962 c -3.3742,3.60797 -7.08845,5.17305 -12.89636,5.43414 -4.6508,0.20907 -5.8525,0.0201 -8.72616,-1.37227 z m -96.824708,-78.165446 0.179192,-15.165939 1.999563,0 1.999562,0 0.181023,12.816752 0.181022,12.816751 7.026306,0 7.026308,0 -0.208861,2.163867 -0.208861,2.163868 -9.177223,0.18532 -9.177223,0.18532 z m 24.173941,14.308402 c -2.222786,-1.24734 -2.955939,-2.696991 -2.978148,-5.888648 -0.03086,-4.434769 1.967263,-6.126148 7.665323,-6.488586 3.487663,-0.221839 4.310856,-0.488241 4.310856,-1.395088 0,-2.48137 -3.736295,-3.618831 -6.693675,-2.03779 -0.907794,0.485312 -1.661363,0.439291 -2.622266,-0.16016 -3.309916,-2.064862 0.08857,-5.181503 5.650077,-5.181503 3.437021,0 6.614492,1.368263 7.645227,3.292148 0.377457,0.704522 0.686283,5.153293 0.686283,9.886163 l 0,8.60522 -6.165317,0.05812 c -3.441647,0.03242 -6.754222,-0.272321 -7.49836,-0.689908 z"
       id="path4692"
       inkscape:connector-curvature="0"
       sodipodi:nodetypes="csssssssscssccccssssssscssssccssssssccssssssssscccsssssssscsscssssscssssssssssssssssscsssssscssssssssssssccsssssssssssssssccsccssscccssssscccssssssssscssscssscsssscsscsssssccsssssssssscccccccccccccccccccsccccccscccsssccssssscscsssscccccsscsscsssssssscs" />
  </g>
  <g
     inkscape:groupmode="layer"
     id="layer1"
     inkscape:label="Corte-exterior"
     style="display:inline">
    <rect
       style="opacity:1;fill:none;fill-opacity:0;stroke:#ff0000;stroke-width:1;stroke-linecap:round;stroke-linejoin:round;stroke-miterlimit:4;stroke-dasharray:none;stroke-dashoffset:0;stroke-opacity:1"
       id="rect4136"
       width="282.46457"
       height="176.16536"
       x="8.6226168"
       y="15.273199"
       ry="43.434807" />
  </g>
</svg>
