<?xml version="1.0" encoding="UTF-8" standalone="no"?>
<!-- Created with Inkscape (http://www.inkscape.org/) -->

<svg
   xmlns:dc="http://purl.org/dc/elements/1.1/"
   xmlns:cc="http://creativecommons.org/ns#"
   xmlns:rdf="http://www.w3.org/1999/02/22-rdf-syntax-ns#"
   xmlns:svg="http://www.w3.org/2000/svg"
   xmlns="http://www.w3.org/2000/svg"
   xmlns:sodipodi="http://sodipodi.sourceforge.net/DTD/sodipodi-0.dtd"
   xmlns:inkscape="http://www.inkscape.org/namespaces/inkscape"
   width="457.20001mm"
   height="304.79999mm"
   viewBox="0 0 1620 1080"
   id="svg2"
   version="1.1"
   inkscape:version="0.91 r13725"
   sodipodi:docname="logo-rueca.svg">
  <defs
     id="defs4" />
  <sodipodi:namedview
     id="base"
     pagecolor="#ffffff"
     bordercolor="#666666"
     borderopacity="1.0"
     inkscape:pageopacity="0.0"
     inkscape:pageshadow="2"
     inkscape:zoom="2.3194796"
     inkscape:cx="235.26698"
     inkscape:cy="930.11415"
     inkscape:document-units="px"
     inkscape:current-layer="layer1"
     showgrid="false"
     inkscape:window-width="1855"
     inkscape:window-height="1056"
     inkscape:window-x="69"
     inkscape:window-y="1048"
     inkscape:window-maximized="1" />
  <metadata
     id="metadata7">
    <rdf:RDF>
      <cc:Work
         rdf:about="">
        <dc:format>image/svg+xml</dc:format>
        <dc:type
           rdf:resource="http://purl.org/dc/dcmitype/StillImage" />
        <dc:title></dc:title>
      </cc:Work>
    </rdf:RDF>
  </metadata>
  <g
     inkscape:groupmode="layer"
     id="layer2"
     inkscape:label="Layer 2"
     style="display:inline"
     sodipodi:insensitive="true">
    <path
       style="fill:none;stroke:#ff0000"
       d="m 35.848271,225.16656 c -6.936213,-3.13988 -8.663615,-11.4861 -3.455225,-16.69449 2.680045,-2.68005 3.511471,-2.92308 10,-2.92308 7.494225,0 8.846395,-1.08767 5.505494,-4.42857 -1.876724,-1.87673 -4.621299,-1.9928 -9.071333,-0.38365 -2.834948,1.02513 -3.563599,0.93544 -5.320998,-0.65498 -2.635136,-2.38477 -2.573314,-3.95088 0.228427,-5.78665 5.894308,-3.8621 16.439395,-3.19593 20.959403,1.32407 2.76295,2.76295 2.77593,2.83965 2.77593,16.40229 l 0,13.62636 -4.75,-0.0864 c -2.612498,-0.0475 -6.775,0.16211 -9.25,0.46591 -2.851878,0.35006 -5.64332,0.0348 -7.621698,-0.86076 z m 35.615228,0.44809 c -4.93827,-1.50215 -8.99302,-4.14497 -8.96211,-5.84134 0.0173,-0.94838 1.12668,-2.52106 2.46533,-3.49485 2.34186,-1.70357 2.57645,-1.69412 6.20376,0.25 4.43455,2.37678 8.1612,2.57853 10.85836,0.58785 2.86707,-2.11608 0.84131,-3.52131 -6.59063,-4.57181 -8.08858,-1.14331 -11.24097,-3.93227 -11.24097,-9.945 0,-7.35656 7.40885,-12.03343 16.63535,-10.50113 8.77864,1.45792 11.9118,5.08232 7.69354,8.89979 -1.85324,1.67716 -2.15753,1.67753 -6.52943,0.008 -3.70208,-1.41384 -5.07676,-1.52748 -7.13472,-0.58981 -4.11618,1.87546 -2.23594,3.51684 5.33269,4.65525 3.88947,0.58503 7.78485,1.6555 8.65641,2.37883 2.01542,1.67265 3.6105,7.36402 2.89357,10.32447 -1.62917,6.72736 -11.4536,10.52508 -20.28115,7.83986 z m 32.340561,-1.07318 c -5.903781,-3.00195 -7.631631,-7.10371 -7.180171,-17.04509 0.32069,-7.06171 0.64319,-8.12618 3.3031,-10.90253 7.284951,-7.60385 20.294461,-5.67056 24.164161,3.59092 1.94563,4.65655 1.75271,14.12488 -0.37273,18.29314 -3.75462,7.36326 -12.26326,9.95399 -19.91436,6.06356 z m 33.93657,0.0437 c -5.95505,-2.70328 -8.26263,-6.90118 -8.26537,-15.03618 -0.004,-11.53146 5.23705,-17.42857 15.48925,-17.42857 5.33735,0 12.50546,3.35616 12.50546,5.85514 0,3.21146 -6.92455,6.12256 -8.5,3.57343 -0.71384,-1.15501 -6.47212,-1.32185 -8.1003,-0.23469 -1.76852,1.18087 -3.3997,4.89199 -3.3997,7.73469 0,2.8427 1.63118,6.55382 3.3997,7.73469 1.64715,1.09982 5.54492,0.91479 9.29497,-0.44124 2.97846,-1.07703 3.56461,-0.97861 5.45994,0.91672 2.82907,2.82907 1.85519,4.92946 -3.38937,7.30994 -5.38052,2.44218 -9.14091,2.44635 -14.49458,0.0161 z m 44.72985,0.89382 c -5.02296,-2.11035 -7.00051,-4.93957 -7.00051,-10.01542 0,-4.06172 0.43848,-5.10575 3.07673,-7.32569 2.60469,-2.1917 4.05312,-2.58889 9.44098,-2.58889 6.57182,0 7.9282,-0.6744 6.87523,-3.41839 -0.88749,-2.31277 -5.1576,-3.06849 -9.16016,-1.62114 -6.35434,2.29776 -11.31735,-2.96095 -5.98278,-6.33926 5.92238,-3.75055 16.50566,-3.0194 20.97407,1.44901 2.76295,2.76295 2.77593,2.83965 2.77593,16.40229 l 0,13.62636 -4.75,-0.0864 c -2.6125,-0.0475 -6.775,0.15074 -9.25,0.44063 -2.475,0.2899 -5.62477,0.0545 -6.99949,-0.52305 z m 34.98426,-1.18 c -5.98523,-3.03373 -8.47457,-7.5133 -8.47457,-15.25 0,-7.90489 2.46572,-12.22471 8.76836,-15.36178 6.16848,-3.07028 12.36305,-2.3651 17.03489,1.93925 l 3.18655,2.93589 -2.36078,1.99332 c -2.54097,2.14546 -5.64055,2.6092 -6.63922,0.99332 -0.88885,-1.43818 -6.8005,-1.23197 -8.91038,0.31081 -2.59766,1.89945 -3.3249,9.91807 -1.19441,13.1696 1.2994,1.98315 2.48506,2.51959 5.56883,2.51959 2.15486,0 4.19604,-0.45 4.53596,-1 1.69125,-2.73649 9.11844,1.22479 7.95942,4.24515 -0.84165,2.1933 -8.30733,5.75485 -12.06325,5.75485 -1.63482,0 -4.96995,-1.0125 -7.4114,-2.25 z m 60.13012,-1.81149 c 3.03486,-1.6242 5.09351,-6.81903 5.15173,-12.99995 0.0995,-10.5602 -3.78773,-15.31681 -12.52056,-15.32093 -8.80073,-0.004 -13.45116,6.45184 -12.39674,17.20983 0.62353,6.36165 2.68001,9.82828 6.97616,11.7598 3.29878,1.48311 9.38263,1.17451 12.78941,-0.64875 z m 20.03793,-120.90855 -30.52786,-17.805343 0,-5.83182 0,-5.83181 8.4375,-6.05984 c 21.97007,-15.77899 21.95966,-15.77247 20.4073,-12.78031 -4.58896,8.84531 -4.61623,30.48062 -0.052,41.27916 1.51105,3.575 3.90071,7.936243 3.90071,7.936243 z m 4.29183,-57.974253 c 12.84683,-14.07891 20.61,-19.37839 33.01545,-22.5378 32.79814,-8.35298 65.83379,18.23364 65.83379,52.98209 0,29.624333 -24.28531,54.408323 -53.3889,54.485223 m 4.52991,6.01478 c 14.45939,0 17.79565,0.69375 19.60631,4.07701 1.90431,3.55823 -1.58744,7.34089 -7.14118,7.73612 -2.42002,0.17222 -4.72477,0.63197 -5.12168,1.02165 -0.56162,0.55141 10.94413,60.24269 13.82301,71.71304 l -4e-5,0 c 0.50966,2.03066 0.24764,2.45218 -1.52434,2.45218 -1.17688,0 -2.35818,-0.56913 -2.62511,-1.26472 -0.26693,-0.6956 -3.52174,-17.4581 -7.23293,-37.25 l -6.7476,-35.98528 -18.28492,-0.27275 -18.28491,-0.27275 0.29922,-5.72725 0.29923,-5.72725 7,-0.28923 M 264.82417,70.388547 c -0.28669,-0.28669 7.8121,-6.47913 17.90417,-13.66783 m 75.81013,63.219623 c 2.98732,-0.88475 6.64734,-2.23511 8.13337,-3.00079 l 2.70187,-1.39214 -8.09678,-13.51734 -8.09677,-13.517343 -3.60509,0.63942 c -1.98281,0.35168 -3.87956,0.92234 -4.21501,1.26813 -0.71565,0.73772 -6.89009,27.210453 -6.89009,29.541093 0,2.18799 12.65466,2.17473 20.0685,-0.021 z M 320.07229,88.487417 c 11.18443,-6.72983 13.39768,-8.45464 13.39768,-10.44098 0,-1.30868 -0.39518,-2.62365 -0.87819,-2.92217 -0.483,-0.29851 -6.6705,-1.46185 -13.75,-2.58519 -7.07949,-1.12335 -14.17996,-2.30694 -15.77881,-2.63021 l -2.90701,-0.58776 0.61393,7.96131 c 0.54402,7.05467 3.95043,19.26657 5.37425,19.26657 0.29177,0 6.55943,-3.62771 13.92815,-8.06157 z m 72.57876,-13.43843 c 0.0129,-9.07207 -3.38418,-22.01978 -5.5584,-21.18545 -0.68551,0.26306 -6.50605,4.22677 -12.93453,8.80826 -10.66265,7.59913 -11.68815,8.60517 -11.68815,11.46648 0,3.13503 0.007,3.13884 14.25,8.12894 16.68034,5.8439 15.91201,6.19202 15.93108,-7.21823 z m -38.32456,7.96727 c 4.257,-3.58202 5.65244,-8.3134 3.77626,-12.80373 -1.87157,-4.4793 -5.91304,-7.11809 -10.90178,-7.11809 -3.27594,0 -4.50936,0.6362 -7.44595,3.84057 -3.2171,3.51046 -3.47501,4.23631 -3.00065,8.44483 1.03343,9.16852 10.73884,13.38625 17.57212,7.63642 z m -6.67138,-24.34638 c 1.18113,-1.07036 7.17009,-29.09926 6.38437,-29.87942 -1.62734,-1.61582 -15.13388,-0.58034 -21.87006,1.67667 -3.7403,1.25321 -6.6653,2.59006 -6.5,2.97078 0.1653,0.38071 3.90055,6.61205 8.30055,13.84741 7.38299,12.14059 8.19282,13.11086 10.5,12.58033 1.375,-0.31618 2.80831,-0.85428 3.18514,-1.19577 z m -10.90327,45.161933 c 3.61741,-15.250023 3.67364,-15.771753 1.89196,-17.553443 -1.78169,-1.78168 -2.24254,-1.59291 -15.50505,6.35123 -7.51783,4.50311 -13.66878,8.667583 -13.66878,9.254373 0,2.0728 11.57291,12.20098 17,14.87777 3.025,1.49202 5.73707,2.72952 6.02682,2.75 0.28976,0.0205 2.20453,-7.03548 4.25505,-15.67993 z m 46.01503,-0.0484 c 3.53744,-4.862403 7.10232,-11.232133 6.52684,-11.662163 -0.17806,-0.13305 -6.72587,-2.44142 -14.5507,-5.1297 -13.95659,-4.79491 -14.25469,-4.85031 -15.68586,-2.91517 -1.19314,1.61329 -1.22985,2.33698 -0.20152,3.97264 0.69157,1.1 4.29572,7.06963 8.00923,13.265853 l 6.75184,11.26585 2.85292,-2.03145 c 1.56911,-1.11731 4.40287,-4.16194 6.29725,-6.76586 z M 335.278,66.149807 l 2.00558,-3.3992 -6.24327,-10.3508 c -3.43379,-5.69293 -7.14525,-11.8146 -8.24768,-13.60369 l -2.00441,-3.25291 -5.03717,4.8296 c -2.77045,2.65628 -6.28578,6.8075 -7.81185,9.22495 -2.89693,4.58904 -6.64257,14.11125 -5.859,14.89483 0.43394,0.43393 26.11625,4.74056 29.54099,4.95368 0.90818,0.0565 2.55374,-1.42689 3.65681,-3.29646 z m 38.21931,-9.33931 c 6.00797,-4.26882 10.93462,-8.1894 10.94812,-8.71242 0.0482,-1.86777 -11.84162,-12.44754 -16.82926,-14.97497 -4.68303,-2.37307 -8.1462,-3.26323 -8.1462,-2.09386 0,0.26413 -1.40298,6.82462 -3.11774,14.57888 l -3.11774,14.09865 3.36774,2.8835 c 1.85226,1.58593 3.95359,2.6806 4.66962,2.4326 0.71604,-0.248 6.2175,-3.94357 12.22546,-8.21238 z M 274.86647,185.3285 c 4.01241,-3.78728 4.63214,-5.48441 2.2502,-5.49364 -2.98833,-0.0116 -5.79543,2.17221 -8.03249,5.44115 -3.70268,5.41057 0.0744,5.44017 5.78229,0.0525 z m -24.828,-16.25076 c 4.47088,-1.33385 12.43154,-6.68186 12.43147,-8.35152 -2e-5,-0.37246 -1.5826,-1.93994 -3.51686,-3.48329 l -3.51684,-2.80608 -3.11089,2.21515 c -4.19155,2.98464 -11.51531,3.62676 -16.17043,1.41776 -5.16594,-2.4514 -7.68495,-8.14456 -7.68495,-17.36858 0,-8.09879 1.47669,-12.48459 5.43224,-16.13389 3.80921,-3.5143 13.54064,-3.60749 18.35207,-0.17575 l 3.2843,2.34252 3.51861,-2.68377 c 1.93524,-1.47608 3.34697,-3.20521 3.13719,-3.84252 -0.80495,-2.44538 -8.79856,-7.47706 -13.77513,-8.67092 -10.0606,-2.4135 -21.61451,2.57196 -26.61331,11.48351 -3.00175,5.35133 -4.72029,15.27809 -3.85803,22.28501 1.48914,12.10111 7.86244,20.7394 17.49144,23.70771 5.93434,1.82936 8.6439,1.84136 14.59912,0.0647 z m 49.47351,-1.20314 c 2.95323,-1.73551 3.16993,-1.73924 4.39248,-0.0756 0.90419,1.23044 2.66351,1.75 5.92575,1.75 l 4.63976,0 0,-22.28811 c 0,-21.12489 -0.11743,-22.52098 -2.25,-26.75 -3.83736,-7.60973 -15.91472,-11.65233 -27.09891,-9.07071 -4.85963,1.12176 -11.65109,5.26551 -11.65109,7.10884 0,0.49402 1.54465,2.07638 3.43255,3.51635 3.22057,2.45645 3.57969,2.52173 5.81497,1.05713 3.50511,-2.29664 10.60227,-2.95081 15.2247,-1.4033 4.61358,1.54454 6.66598,4.75288 6.28821,9.82982 l -0.26043,3.5 -11,0.62981 c -12.35625,0.70746 -14.84408,1.44231 -18.68638,5.51955 -9.02748,9.57947 -4.74105,24.2976 8.22292,28.23465 4.72661,1.43544 13.23832,0.6554 17.00547,-1.55843 z m -137.81678,41.42442 0.27477,-16.25 4,0 4,0 0.27477,16.25 0.27477,16.25 -4.54954,0 -4.54954,0 z m 79.77477,-0.25 0,-16.615 4.25,0.3075 4.25,0.3075 0,16 0,16 -4.25,0.3075 -4.25,0.3075 z m 50,0 0,-16.5 4,0 c 2.2909,0 4,0.47959 4,1.12244 0,0.76278 0.49323,0.7131 1.53927,-0.15503 2.54053,-2.10845 9.92572,-1.75485 13.13682,0.62899 4.61878,3.42886 5.29319,5.86917 5.30917,19.2111 l 0.0147,12.3075 -4.25,-0.3075 -4.25,-0.3075 -0.28577,-10.94063 c -0.15717,-6.01735 -0.77477,-11.52985 -1.37244,-12.25 -0.59767,-0.72015 -2.35606,-1.30937 -3.90753,-1.30937 -4.73167,0 -5.93426,2.98354 -5.93426,14.72251 l 0,10.27749 -4,0 -4,0 0,-16.5 z M 161.88285,186.18256 c -0.31407,-0.81846 -0.42296,-2.53334 -0.24196,-3.81084 0.2817,-1.98834 0.90494,-2.32273 4.32908,-2.32273 3.90476,0 4,0.0833 4,3.5 0,3.32397 -0.18901,3.51563 -3.75804,3.81084 -2.61979,0.2167 -3.93099,-0.13988 -4.32908,-1.17727 z m 79.58712,-2.63357 0,-4.115 4.25,0.3075 c 4.13191,0.29896 4.25,0.40475 4.25,3.8075 0,3.40275 -0.11809,3.50854 -4.25,3.8075 l -4.25,0.3075 z M 29.136636,171.88232 c -0.366667,-0.36666 -0.666667,-19.94166 -0.666667,-43.5 l 0,-42.833333 19.633982,0 c 12.008368,0 21.138438,0.45075 23.507578,1.16056 5.18693,1.55404 11.21274,6.87416 13.77053,12.15784 2.74942,5.679553 2.86166,17.386233 0.22225,23.181603 -1.71762,3.77138 -8.35693,10.74086 -11.1045,11.65672 -0.84024,0.28008 1.72919,6.37594 7.79519,18.49374 6.75825,13.50071 8.76082,18.36369 7.91176,19.21275 -1.57859,1.57859 -15.34307,1.48576 -16.7858,-0.11321 -0.62032,-0.6875 -4.60399,-8.675 -8.85261,-17.75 l -7.72475,-16.5 -6.186818,-0.29772 -6.186812,-0.29771 0,17.44072 c 0,14.98118 -0.223069,17.52633 -1.581787,18.04772 -2.138459,0.8206 -12.918046,0.77382 -13.751546,-0.0597 z m 81.833334,-1.22919 c -2.2,-1.01857 -5.21363,-3.14619 -6.69695,-4.72804 -5.354381,-5.71005 -5.803051,-8.28808 -5.803051,-33.34398 l 0,-23.03212 7.500001,0 7.5,0 0,19.03212 c 0,21.93478 0.74068,25.12593 6.37863,27.48161 4.16305,1.73944 8.97883,0.47103 10.89248,-2.86891 0.81064,-1.41483 1.39906,-9.12199 1.72889,-22.64482 l 0.5,-20.5 7.5,0 7.5,0 0.26508,29.87937 c 0.18819,21.21233 -0.0649,30.27694 -0.87245,31.25 -1.6002,1.92813 -12.27811,1.84229 -14.23483,-0.11443 -1.31342,-1.31341 -1.89587,-1.31341 -5.03931,0 -4.81713,2.01272 -12.27023,1.83387 -17.11849,-0.4108 z m 63,-0.42594 c -6.15166,-2.98386 -9.69321,-6.6598 -12.69639,-13.1782 -1.9851,-4.30867 -2.30361,-6.60401 -2.30361,-16.60082 0,-11.28466 0.0954,-11.7878 3.5,-18.46132 4.55914,-8.93656 10.06872,-12.65642 19.64928,-13.26647 11.78783,-0.75059 21.45634,5.14949 25.30795,15.44385 2.64376,7.06607 2.94246,21.82554 0.46098,22.77777 -0.86998,0.33385 -8.74498,0.60699 -17.5,0.60699 -13.7799,0 -15.91821,0.21033 -15.91821,1.56574 0,7.54283 12.21748,10.9759 19.81303,5.56739 1.64764,-1.17322 3.62005,-2.13313 4.38313,-2.13313 0.76308,0 3.36702,2.01706 5.78652,4.48235 l 4.3991,4.48236 -2.44089,2.61281 c -5.06241,5.41896 -10.63501,7.76961 -19.34878,8.16175 -6.97773,0.31402 -8.78067,0.0302 -13.09211,-2.06107 z M 28.701122,52.827327 l 0.268847,-22.77834 3,0 3,0 0.271593,19.25 0.271593,19.25 10.541765,0 10.541769,0 -0.31336,3.25 -0.31336,3.25 -13.768847,0.27834 -13.768847,0.27834 z m 36.268847,21.49037 c -3.33491,-1.87343 -4.43488,-4.05072 -4.4682,-8.8444 -0.0463,-6.66076 2.95154,-9.20111 11.5005,-9.74547 5.23264,-0.33319 6.4677,-0.73331 6.4677,-2.09534 0,-3.72687 -5.60567,-5.43527 -10.04271,-3.06064 -1.36199,0.72891 -2.49259,0.65979 -3.93426,-0.24055 -4.96596,-3.1013 0.13288,-7.78231 8.47697,-7.78231 5.15666,0 9.92391,2.05505 11.47035,4.94461 0.56631,1.05815 1.02965,7.73994 1.02965,14.84843 l 0,12.92453 -9.25,0.0873 c -5.1636,0.0487 -10.13355,-0.40901 -11.25,-1.0362 z m 199.003321,-3.93515 c -0.27393,-0.73346 -0.88135,-5.93066 -1.34984,-11.54935 -0.46849,-5.61868 -1.42478,-10.90618 -2.12509,-11.75 -0.7003,-0.84381 -2.51308,-1.53421 -4.02839,-1.53421 -4.68611,0 -5.36795,1.91948 -4.68211,13.17699 0.59278,9.73015 0.52276,10.22368 -1.8509,13.04461 -3.59037,4.26691 -3.33035,9.0698 0.70948,13.10532 3.03466,3.03143 3.29055,0.68699 4.10093,11.09268 l 0.85485,14.355493 9.22026,6.45764 c 1.57202,-0.13023 1.75466,-2.49066 0.94748,-14.29208 -0.58084,-8.492363 -0.98653,-15.527583 -0.90153,-15.633823 l 20.07616,11.95996"
       id="path4692"
       inkscape:connector-curvature="0"
       sodipodi:nodetypes="csssssssscssccccssssssscssssccssssssccssssssssscccsssssssscssccsssscssssssssssssssscsscccscccssccssssscsscsssccccssssscsscsssssssssscsssccssssssssccssscssccccssssssssssssscsssssssscccccssscsssssscssssssssssssscsssssssssssssssccsccssscccssssscccssssssssscssscssscsssscsscsssssccsssssssssscccccccccccccccccccsccccccscccsssccssssscscsssscccccsscsscsssssssscsssssssssscccc" />
  </g>
  <g
     inkscape:groupmode="layer"
     id="layer1"
     inkscape:label="frame">
    <rect
       style="opacity:1;fill:none;fill-opacity:0;stroke:#ff0000;stroke-width:1;stroke-linecap:round;stroke-linejoin:round;stroke-miterlimit:4;stroke-dasharray:none;stroke-dashoffset:0;stroke-opacity:1"
       id="rect4156"
       width="403.53879"
       height="231.08632"
       x="9.9160175"
       y="10.363475"
       ry="27.106077" />
  </g>
</svg>
