<?xml version="1.0" encoding="UTF-8" standalone="no"?>
<!-- Created with Inkscape (http://www.inkscape.org/) -->

<svg
   xmlns:dc="http://purl.org/dc/elements/1.1/"
   xmlns:cc="http://creativecommons.org/ns#"
   xmlns:rdf="http://www.w3.org/1999/02/22-rdf-syntax-ns#"
   xmlns:svg="http://www.w3.org/2000/svg"
   xmlns="http://www.w3.org/2000/svg"
   xmlns:sodipodi="http://sodipodi.sourceforge.net/DTD/sodipodi-0.dtd"
   xmlns:inkscape="http://www.inkscape.org/namespaces/inkscape"
   width="457.20001mm"
   height="304.79999mm"
   viewBox="0 0 1620 1080"
   id="svg2"
   version="1.1"
   inkscape:version="0.91 r13725"
   sodipodi:docname="Telon-pieza-A4.svg">
  <defs
     id="defs4" />
  <sodipodi:namedview
     id="base"
     pagecolor="#ffffff"
     bordercolor="#666666"
     borderopacity="1.0"
     inkscape:pageopacity="0.0"
     inkscape:pageshadow="2"
     inkscape:zoom="0.30903184"
     inkscape:cx="769.67188"
     inkscape:cy="526.14833"
     inkscape:document-units="px"
     inkscape:current-layer="layer2"
     showgrid="false"
     inkscape:window-width="1215"
     inkscape:window-height="1000"
     inkscape:window-x="65"
     inkscape:window-y="24"
     inkscape:window-maximized="1"
     showguides="true"
     inkscape:guide-bbox="true" />
  <metadata
     id="metadata7">
    <rdf:RDF>
      <cc:Work
         rdf:about="">
        <dc:format>image/svg+xml</dc:format>
        <dc:type
           rdf:resource="http://purl.org/dc/dcmitype/StillImage" />
        <dc:title></dc:title>
      </cc:Work>
    </rdf:RDF>
  </metadata>
  <g
     inkscape:groupmode="layer"
     id="layer2"
     inkscape:label="Layer 2"
     style="display:inline">
    <path
       style="fill:none;stroke:#ff0000;stroke-width:4;stroke-miterlimit:4;stroke-dasharray:none"
       d="m 9.1369484,9.450099 0,528.253901 c 14.8722996,-3.2571 30.7803996,-5.0677 55.7949996,-6.9746 7.7073,-0.5875 14.9518,-0.9057 21.748,-0.9297 80.195402,-0.2771 98.060102,40.4874 79.552702,164.1054 -15.5054,103.5672 -26.0802,131.7155 -78.457002,208.8438 -36.9583,54.42366 -53.4163,98.2797 -55.3984,154.0625 l 1286.207052,0 c -11.1199,-16.0791 -31.1951,-39.4221 -54.3086,-62.33014 -48.5254,-48.0942 -66.511,-73.91506 -75.8809,-108.92966 -6.7543,-25.241 -21.3436,-67.6118 -32.4199,-94.1582 -14.4205,-34.5614 -17.3451,-52.8871 -10.3008,-64.5371 5.4106,-8.9486 6.6199,-27.4399 2.6875,-41.0918 -19.8227,-68.8172 -0.6789,-131.6732 24.5567,-130.7129 9.8748,0.3757 20.6826,10.5234 30.4531,33.9082 12.1269,29.0246 17.3157,32.0972 51.6191,30.5567 20.9752,-0.9422 47.7767,-4.7069 59.5586,-8.3653 14.4998,-4.5024 27.5067,-0.5658 40.2559,12.1836 10.3594,10.3594 31.4253,18.5911 46.8125,18.293 30.9945,-0.6009 49.5369,18.8486 79.9727,93.6934 l 0,0.6506 10.7363,0 0,-726.521701 z"
       id="path4444"
       inkscape:connector-curvature="0"
       sodipodi:nodetypes="ccscssccssscssscsscccccc" />
  </g>
  <g
     inkscape:groupmode="layer"
     id="layer1"
     inkscape:label="frame"
     style="display:inline" />
</svg>
