<?xml version="1.0" encoding="UTF-8" standalone="no"?>
<!-- Created with Inkscape (http://www.inkscape.org/) -->

<svg
   xmlns:dc="http://purl.org/dc/elements/1.1/"
   xmlns:cc="http://creativecommons.org/ns#"
   xmlns:rdf="http://www.w3.org/1999/02/22-rdf-syntax-ns#"
   xmlns:svg="http://www.w3.org/2000/svg"
   xmlns="http://www.w3.org/2000/svg"
   xmlns:sodipodi="http://sodipodi.sourceforge.net/DTD/sodipodi-0.dtd"
   xmlns:inkscape="http://www.inkscape.org/namespaces/inkscape"
   width="457.20001mm"
   height="304.79999mm"
   viewBox="0 0 1620 1080"
   id="svg2"
   version="1.1"
   inkscape:version="0.91 r13725"
   sodipodi:docname="Telon-pieza-C2.svg">
  <defs
     id="defs4" />
  <sodipodi:namedview
     id="base"
     pagecolor="#ffffff"
     bordercolor="#666666"
     borderopacity="1.0"
     inkscape:pageopacity="0.0"
     inkscape:pageshadow="2"
     inkscape:zoom="0.28993495"
     inkscape:cx="803.50511"
     inkscape:cy="638.12033"
     inkscape:document-units="px"
     inkscape:current-layer="layer2"
     showgrid="false"
     inkscape:window-width="1215"
     inkscape:window-height="1000"
     inkscape:window-x="65"
     inkscape:window-y="24"
     inkscape:window-maximized="1" />
  <metadata
     id="metadata7">
    <rdf:RDF>
      <cc:Work
         rdf:about="">
        <dc:format>image/svg+xml</dc:format>
        <dc:type
           rdf:resource="http://purl.org/dc/dcmitype/StillImage" />
        <dc:title></dc:title>
      </cc:Work>
    </rdf:RDF>
  </metadata>
  <g
     inkscape:groupmode="layer"
     id="layer2"
     inkscape:label="Layer 2"
     style="display:inline">
    <path
       style="fill:none;stroke:#ff0000;stroke-width:4;stroke-miterlimit:4;stroke-dasharray:none"
       d="m 56.372024,22.178369 c -2.0019,13.0625 -2.0056,12.587 -4.9212,31.7358 -8.6339,56.706001 -21.9763,118.997001 -29.8609,134.802201 -12.4289996,24.9143 -12.4621996,35.0437 -0.252,76.1601 11.2762,37.9709 21.5432,51.5271 51.5059,68 20.5824,11.3158 57.921506,22.7256 82.974606,25.3555 l 45.5508,4.7813 -8.3379,-50.7247 c -4.586,-27.8984 -15.4849,-88.7005 -24.2188,-135.1171 -6.8823,-36.5754 -14.9418,-99.345501 -20.3437,-155.234401 z m 348.693096,0.2515 c 2.2114,20.5542 5.4107,42.091 7.7103,68.14 12.6431,143.217501 41.3307,269.179901 68.21681,299.521501 9.9432,11.2212 43.4848,65.8804 74.5371,121.4648 36.9798,66.1948 70.107,111.8719 96.0137,132.3906 45.7346,36.2224 50.3137,26.6464 23.748,-49.6582 -8.5336,-24.5111 -13.1108,-56.5896 -10.1718,-71.2851 3.1925,-15.9618 0.6547,-28.2824 -6.3028,-30.6016 -8.8208,-2.9402 -8.5977,-14.0528 0.918,-45.8144 6.9097,-23.0636 9.989,-50.0417 6.8438,-59.9512 -3.2851,-10.3503 0.9942,-23.588 10.0546,-31.1074 23.8542,-19.7973 47.4306,-69.1426 33.0352,-69.1426 -15.8567,0 18.8259,-37.641 41.2363,-44.7539 9.6118,-3.0506 19.7734,-14.3355 22.5821,-25.0762 2.8101,-10.7458 13.5626,-19.5273 23.9082,-19.5273 10.3406,0 24.1491,-5.3484 30.6855,-11.8848 6.5365,-6.5365 35.3555,-15.1647 64.041,-19.1738 28.6856,-4.0092 64.8144,-10.4237 80.2871,-14.2539 15.9762,-3.9547 44.79647,-1.4643 66.69727,5.7637 31.4295,10.3722 41.4214,10.3575 54.0078,-0.088 13.5066,-11.2095 15.1031,-8.6737 12.7324,20.2285 -2.4294,29.6187 0.6354,34.0334 29.5566,42.5566 17.7476,5.2303 32.2695,13.8154 32.2695,19.0781 0,5.4543 11.7393,6.6699 27.3028,2.8262 22.0145,-5.437 24.8992,-4.2998 14.8926,5.8731 -6.826,6.9393 -12.4102,16.1919 -12.4102,20.5605 0,13.0573 57.5016,8.9739 62.9258,-4.4687 3.5235,-8.7319 5.2395,-8.9423 5.791,-0.709 0.431,6.436 -5.9762,18.4626 -14.2383,26.7246 -13.4102,13.4102 -12.6102,17.6149 7.4473,39.1875 12.3577,13.2912 32.9897,35.8906 45.8496,50.2226 12.8599,14.3318 29.6143,26.0586 37.2324,26.0586 7.618,0 13.8516,4.4689 13.8516,9.9297 0,5.4607 -6.7016,9.9278 -14.8926,9.9278 -21.1452,0 -18.4435,17.4722 4.9629,32.0898 23.5053,14.6794 25.8185,27.4824 4.9648,27.4824 -10.7561,0 -14.8925,11.032 -14.8925,39.7149 0,38.1617 -12.769,53.1808 -23.211,27.3027 -2.7543,-6.8259 -5.7018,-1.2398 -6.5508,12.4121 -1.6818,27.0451 -5.7498,51.4001 -14.2226,85.1582 -4.0771,16.2449 -0.2806,23.1471 14.916,27.1211 27.7368,7.2539 88.6406,-19.4947 88.6406,-38.9297 0,-8.6577 6.3304,-29.8196 14.0684,-47.0273 14.3467,-31.9037 41.3639,-120.6189 63.8652,-203.625 l 0,-365.150401 z"
       id="path4330"
       inkscape:connector-curvature="0"
       sodipodi:nodetypes="cssssscsscccsssssccsssscsssssccssssssscsssssssssssscssccc" />
    <path
       inkscape:connector-curvature="0"
       style="fill:none;stroke:#ff0000;stroke-width:4;stroke-miterlimit:4;stroke-dasharray:none"
       d="m 482.77973,703.39077 c 7.9088,0 17.1829,11.1703 20.6094,24.8222 5.397,21.504 11.8454,24.8691 48.2383,25.1738 41.4237,0.3469 41.6622,0.549 17.1855,14.5411 -35.5128,20.301 -69.502,18.9528 -69.502,-2.7559 0,-9.7066 -6.9543,-27.5783 -15.455,-39.7148 -13.14651,-18.7691 -13.30721,-22.0664 -1.0762,-22.0664 z"
       id="path4549-6" />
  </g>
  <g
     inkscape:groupmode="layer"
     id="layer1"
     inkscape:label="frame"
     style="display:inline" />
</svg>
