<?xml version="1.0" encoding="UTF-8" standalone="no"?>
<!-- Created with Inkscape (http://www.inkscape.org/) -->

<svg
   xmlns:dc="http://purl.org/dc/elements/1.1/"
   xmlns:cc="http://creativecommons.org/ns#"
   xmlns:rdf="http://www.w3.org/1999/02/22-rdf-syntax-ns#"
   xmlns:svg="http://www.w3.org/2000/svg"
   xmlns="http://www.w3.org/2000/svg"
   xmlns:sodipodi="http://sodipodi.sourceforge.net/DTD/sodipodi-0.dtd"
   xmlns:inkscape="http://www.inkscape.org/namespaces/inkscape"
   width="457.20001mm"
   height="304.79999mm"
   viewBox="0 0 1620 1080"
   id="svg2"
   version="1.1"
   inkscape:version="0.91 r13725"
   sodipodi:docname="Telon-pieza-C3.svg">
  <defs
     id="defs4" />
  <sodipodi:namedview
     id="base"
     pagecolor="#ffffff"
     bordercolor="#666666"
     borderopacity="1.0"
     inkscape:pageopacity="0.0"
     inkscape:pageshadow="2"
     inkscape:zoom="0.30903184"
     inkscape:cx="750.26662"
     inkscape:cy="396.71183"
     inkscape:document-units="px"
     inkscape:current-layer="layer2"
     showgrid="false"
     inkscape:window-width="1215"
     inkscape:window-height="1000"
     inkscape:window-x="65"
     inkscape:window-y="24"
     inkscape:window-maximized="1"
     showguides="true"
     inkscape:guide-bbox="true" />
  <metadata
     id="metadata7">
    <rdf:RDF>
      <cc:Work
         rdf:about="">
        <dc:format>image/svg+xml</dc:format>
        <dc:type
           rdf:resource="http://purl.org/dc/dcmitype/StillImage" />
        <dc:title></dc:title>
      </cc:Work>
    </rdf:RDF>
  </metadata>
  <g
     inkscape:groupmode="layer"
     id="layer2"
     inkscape:label="Layer 2"
     style="display:inline">
    <path
       style="fill:none;stroke:#ff0000;stroke-width:4;stroke-miterlimit:4;stroke-dasharray:none"
       d="m 508.10503,690.67462 c 7.9088,0 17.1829,11.1703 20.6094,24.8222 5.397,21.504 11.8454,24.8691 48.2383,25.1738 41.4237,0.3469 41.6622,0.549 17.1855,14.5411 -35.5128,20.301 -69.502,18.9528 -69.502,-2.7559 0,-9.7066 -6.9543,-27.5783 -15.455,-39.7148 -13.1465,-18.7691 -13.3072,-22.0664 -1.0762,-22.0664 z"
       id="path4549"
       inkscape:connector-curvature="0" />
    <path
       style="fill:none;stroke:#ff0000;stroke-width:4;stroke-miterlimit:4;stroke-dasharray:none"
       d="m 12.157427,9.2195152 4.6211,365.1523048 c 0,0 33.0521,-128.7212 36.1445,-155.4433 3.783,-32.6901 15.3235,-88.6849 25.6465,-124.431705 6.9974,-24.2312 12.6938,-53.5888 17.0781,-85.2772998 z m 303.515603,0 c 4.4688,105.0154048 9.9613,197.8303048 13.6016,201.4707048 6.7159,6.7157 75.609,-68.0327 75.9492,-82.4043 0.3177,-13.4186 23.0903,-23.4024 53.3828,-23.4024 11.9386,0 37.264,-10.492805 56.2793,-23.316405 44.3753,-29.926 87.2247,-37.7305 118.7871,-21.6347 13.75,7.0121 48.5166,17.726 77.2578,23.8086 79.4501,16.814705 246.53812,114.340105 316.89647,184.964805 23.7169,23.8069 52.8145,95.0288 52.8145,129.2734 0,30.63 15.8757,31.5294 40.2754,2.2813 10.25,-12.2868 18.7851,-16.7537 18.9668,-9.9277 0.5709,21.4424 37.7426,13.5066 58.1289,-12.4102 29.4112,-37.3902 33.3496,-30.0971 12.4199,23.002 -15.9866,40.5586 -25.0908,102.8994 -21.4961,147.205 2.0214,24.9137 30.2682,22.0532 42.8789,-4.3418 7.3245,-15.3304 22.6169,-28.2569 35.6172,-30.1074 28.6831,-4.0829 45.9287,-44.5245 30.9336,-72.543 -5.8513,-10.9332 -9.4423,-39.3286 -7.9805,-63.0996 2.4508,-39.8515 -1.9446,-48.7215 -56.3828,-113.8183 -32.4715,-38.829 -63.0364,-83.8623 -67.9219,-100.0742 -4.8855,-16.2118 -14.244,-29.4766 -20.7988,-29.4766 -6.5549,0 -20.4293,-9.5887 -30.832,-21.3086 -10.4027,-11.7198 -43.4893,-37.026605 -73.5235,-56.236305 -35.7809,-22.8854 -53.40835,-35.0132 -61.19525,-47.9042998 z M 432.21013,651.11212 c -7.105,0.089 -5.8801,3.9941 3.0684,9.7773 19.0742,12.3266 22.5109,12.3265 14.8926,0 -3.3749,-5.461 -11.4572,-9.8613 -17.961,-9.7773 z m -47.0722,10.9121 c -7.6694,-0.1506 -11.1502,9.8475 -5.3672,24.9179 4.9666,12.9428 9.2708,14.2255 18.1035,5.3926 8.8328,-8.8328 8.7963,-14.3832 -0.1582,-23.3379 -4.7394,-4.7395 -9.092,-6.9046 -12.5781,-6.9726 z m -52.3438,12.1425 c -0.8714,-0.2021 -2.0622,3.1204 -3.7871,9.7911 -2.7523,10.6448 -10.459,15.887 -18.7051,12.7226 -10.0545,-3.858 -14.0254,2.6116 -14.0254,22.8516 0,15.5284 -2.9161,42.8135 -6.4804,60.6347 l -6.4805,32.4024 -17.9238,-33.6426 c -11.2828,-21.1766 -18.0799,-27.2062 -18.3418,-16.2695 -0.2294,9.5564 -5.3612,17.375 -11.4063,17.375 -6.0449,0 -8.4206,-6.7015 -5.2773,-14.8926 3.1432,-8.1913 1.3869,-14.8926 -3.9024,-14.8926 -5.2893,0 -9.6171,13.1393 -9.6171,29.1992 0,16.0601 -4.4671,31.963 -9.9278,35.3379 -5.4615,3.375 -9.9297,-1.1493 -9.9297,-10.0527 0,-13.3817 -2.2223,-13.9137 -12.8242,-3.0684 -13.8636,14.182 -75.5455,195.7281 -88.632703,255.16638 l 92.771403,-0.2464 c 11.4247,-6.9183 20.7942,-13.8973 23.0644,-17.5704 3.1393,-5.0796 18.751,-12.0999 34.6934,-15.6015 15.9422,-3.5016 34.7009,-13.2517 41.6855,-21.668 6.9847,-8.41608 35.7174,-25.48148 63.8516,-37.92378 28.1339,-12.4421 57.4234,-30.9603 65.0859,-41.1504 7.6628,-10.1901 22.8002,-23.2871 33.6387,-29.1035 22.7965,-12.2335 65.4251,-93.8876 56.5293,-108.2813 -3.3027,-5.3441 -6.2377,-20.7922 -6.5215,-34.3281 -0.3484,-16.6274 -11.6062,-32.1042 -34.7031,-47.7129 -31.1497,-21.0505 -35.0112,-21.6257 -43.4902,-6.4746 -6.4245,11.4802 -4.2955,25.1114 6.8808,44.0313 26.233,44.4091 18.8115,45.8233 -23.5254,4.4824 -40.9671,-40.0032 -49.5471,-38.2869 -24.8222,4.9648 18.8048,32.8955 18.5302,45.1641 -0.6543,29.2422 -21.1462,-17.5498 -43.775,-63.0331 -45.1758,-90.8027 -0.481,-9.5345 -1.0597,-14.2906 -2.0469,-14.5196 z"
       id="path4449"
       inkscape:connector-curvature="0"
       sodipodi:nodetypes="ccssccccssssssssssssssssssssscccccccsssccccsscccscsscsscccscscsccsssssssc" />
  </g>
  <g
     inkscape:groupmode="layer"
     id="layer1"
     inkscape:label="frame"
     style="display:inline" />
</svg>
