<?xml version="1.0" encoding="UTF-8" standalone="no"?>
<!-- Created with Inkscape (http://www.inkscape.org/) -->

<svg
   xmlns:dc="http://purl.org/dc/elements/1.1/"
   xmlns:cc="http://creativecommons.org/ns#"
   xmlns:rdf="http://www.w3.org/1999/02/22-rdf-syntax-ns#"
   xmlns:svg="http://www.w3.org/2000/svg"
   xmlns="http://www.w3.org/2000/svg"
   xmlns:sodipodi="http://sodipodi.sourceforge.net/DTD/sodipodi-0.dtd"
   xmlns:inkscape="http://www.inkscape.org/namespaces/inkscape"
   width="457.20001mm"
   height="304.79999mm"
   viewBox="0 0 1620 1080"
   id="svg2"
   version="1.1"
   inkscape:version="0.91 r13725"
   sodipodi:docname="Telon-pieza-E2.svg">
  <defs
     id="defs4" />
  <sodipodi:namedview
     id="base"
     pagecolor="#ffffff"
     bordercolor="#666666"
     borderopacity="1.0"
     inkscape:pageopacity="0.0"
     inkscape:pageshadow="2"
     inkscape:zoom="0.28993495"
     inkscape:cx="853.06591"
     inkscape:cy="404.03574"
     inkscape:document-units="px"
     inkscape:current-layer="layer2"
     showgrid="false"
     inkscape:window-width="1215"
     inkscape:window-height="1000"
     inkscape:window-x="65"
     inkscape:window-y="24"
     inkscape:window-maximized="1"
     showguides="true"
     inkscape:guide-bbox="true" />
  <metadata
     id="metadata7">
    <rdf:RDF>
      <cc:Work
         rdf:about="">
        <dc:format>image/svg+xml</dc:format>
        <dc:type
           rdf:resource="http://purl.org/dc/dcmitype/StillImage" />
        <dc:title></dc:title>
      </cc:Work>
    </rdf:RDF>
  </metadata>
  <g
     inkscape:groupmode="layer"
     id="layer2"
     inkscape:label="Layer 2"
     style="display:inline">
    <path
       style="fill:none;stroke:#ff0000;stroke-width:4;stroke-miterlimit:4;stroke-dasharray:none"
       d="m 1483.8901,753.07605 -382.2058,2.62844 c -7.6489,-8.755 -33.9482,-30.6136 -44.459,-51.2166 -29.71,-58.238 -142.87402,-130.9 -152.02532,-130.9 -7.7716,0 13.1484,181.9566 13.1484,181.9566 l -19.9062,0.16 -370.0293,-3.9429 c -20.3186,-191.652 -57.0088,-216.7287 -86.6954,-216.7287 -4.9553,0 -8.6836,-12.285 -8.2851,-27.302 1.2693,-47.843 -12.7566,-93.668 -26.9961,-88.204 -20.9124,8.025 -23.2655,-14.205 -8.8106,-83.22599 16.3586,-78.112 17.6105,-128.916 3.1778,-128.916 -15.2074,0 -2.6345,-53.327 28.0898,-119.142995 14.0207,-30.034 19.6856,-77.9227 18.6124,-82.6397001 -0.3111,-1.367 -65.4808,-0.259 -65.4808,-0.259 0,0 -12.7466,135.8646851 -26.9538,174.9026951 -21.3242,9.715 -22.9786,16.384 -22.9786,92.623 0,45.184 -5.1061,94.73099 -11.3476,110.10399 -6.2418,15.373 -12.5247,77.098 -13.961,137.166 -1.4237,59.543 -12.8433,160.4897 -21.8613,231.6207 l -282.4242971,0 -1.394,302.12131 1483.1893171,0 z m 0.4035,-746.5561451 -84.3594,-0.65 c -1.6005,16.8820001 1.3943,44.8760001 -1.5742,67.6590001 l -14.6347,112.304995 40.957,97.652 c 29.1158,69.42099 47.1421,104.01129 58.86,129.55429 z"
       id="path4341"
       inkscape:connector-curvature="0"
       sodipodi:nodetypes="ccsscccsscssscccscscccccccccscc" />
  </g>
  <g
     inkscape:groupmode="layer"
     id="layer1"
     inkscape:label="frame"
     style="display:inline" />
</svg>
