<?xml version="1.0" encoding="UTF-8" standalone="no"?>
<!-- Created with Inkscape (http://www.inkscape.org/) -->

<svg
   xmlns:dc="http://purl.org/dc/elements/1.1/"
   xmlns:cc="http://creativecommons.org/ns#"
   xmlns:rdf="http://www.w3.org/1999/02/22-rdf-syntax-ns#"
   xmlns:svg="http://www.w3.org/2000/svg"
   xmlns="http://www.w3.org/2000/svg"
   xmlns:sodipodi="http://sodipodi.sourceforge.net/DTD/sodipodi-0.dtd"
   xmlns:inkscape="http://www.inkscape.org/namespaces/inkscape"
   width="457.20001mm"
   height="304.79999mm"
   viewBox="0 0 1620 1080"
   id="svg2"
   version="1.1"
   inkscape:version="0.91 r13725"
   sodipodi:docname="Telon-pieza-B5.svg">
  <defs
     id="defs4" />
  <sodipodi:namedview
     id="base"
     pagecolor="#ffffff"
     bordercolor="#666666"
     borderopacity="1.0"
     inkscape:pageopacity="0.0"
     inkscape:pageshadow="2"
     inkscape:zoom="0.30903184"
     inkscape:cx="481.67567"
     inkscape:cy="-137.21372"
     inkscape:document-units="px"
     inkscape:current-layer="layer2"
     showgrid="false"
     inkscape:window-width="1215"
     inkscape:window-height="1000"
     inkscape:window-x="65"
     inkscape:window-y="24"
     inkscape:window-maximized="1"
     showguides="true"
     inkscape:guide-bbox="true" />
  <metadata
     id="metadata7">
    <rdf:RDF>
      <cc:Work
         rdf:about="">
        <dc:format>image/svg+xml</dc:format>
        <dc:type
           rdf:resource="http://purl.org/dc/dcmitype/StillImage" />
        <dc:title></dc:title>
      </cc:Work>
    </rdf:RDF>
  </metadata>
  <g
     inkscape:groupmode="layer"
     id="layer2"
     inkscape:label="Layer 2"
     style="display:inline">
    <path
       style="fill:none;stroke:#ff0000;stroke-width:4;stroke-miterlimit:4;stroke-dasharray:none"
       d="m 14.281179,11.857123 c 9.0845,24.8953 17.3057,55.2595 24.6942,70.2423 10.7833,21.867297 26.394,64.314297 34.6894,94.324197 8.2954,30.0102 27.050401,83.1796 41.677701,118.1563 14.6273,34.9768 36.0098,103.2311 47.5176,151.6758 14.7708,62.1803 24.6978,86.633 33.7578,83.1562 18.6942,-7.1736 130.4324,-98.5268 131.2422,-107.2988 0.3783,-4.0956 -7.4106,-7.4453 -17.3105,-7.4453 -26.7536,0 -74.5242,-53.825 -67.4649,-76.0156 4.8206,-15.1523 16.5362,-18.3831 67.9844,-18.75 62.3243,-0.4448 210.7553,-38.6215 202.4668,-52.0743 -2.3912,-3.8808 17.0468,-6.8367 43.1953,-6.5703 35.2755,0.3594 69.16673,11.2478 131.34963,42.1973 58.4985,29.1158 96.4268,41.7109 125.5957,41.7109 40.5561,0 45.9427,4.1739 182.6074,141.4844 165.93449,166.71848 181.73949,179.14388 207.44929,163.08788 10.1177,-6.3186 18.3965,-20.2433 18.3965,-30.9434 0,-15.13148 2.6473,-16.80578 11.914,-7.53898 16.5855,16.58558 28.3172,14.88388 21.4141,-3.1055 -14.8146,-38.606 50.4156,-58.4898 85.1484,-29.8203 l 0,-561.593797 z M 1342.116,579.61902 c -0.4957,-0.4412 -1.0007,-0.8689 -1.5098,-1.2891 M 884.77031,1062.0467 c 9.8239,-31.4885 11.7168,-57.6242 10.3769,-108.0059 -1.1871,-44.6422 2.4251,-89.7337 8.0293,-100.205 12.5409,-23.4329 -14.6102,-88.1162 -40.7011,-96.9629 -9.4128,-3.1917 -22.8585,-17.8269 -29.879,-32.5215 -7.7592,-16.2406 -22.4605,-28.0584 -37.4921,-30.1367 -14.4693,-2.0007 -48.5964,-28.3567 -82.2579,-63.5274 -61.5744,-64.33498 -80.5736,-92.19388 -72.1582,-105.81048 11.2557,-18.2122 -45.00523,-58.1218 -96.23823,-68.2676 -14.1895,-2.8099 -26.8215,-4.4371 -38.6524,-4.6016 -1.3204,-0.018 -2.6301,-0.018 -3.9316,0 -40.3471,0.5724 -72.127,19.0215 -126.7324,66.8926 -63.2332,55.4351 -123.2237,85.8783 -153.5821,77.9395 -20.8763,-5.4592 -21.7725,-3.9517 -12.3633,20.79678 5.5797,14.6756 10.1446,39.7954 10.1446,55.8223 0,26.0152 3.4612,29.2667 32.2695,30.3164 17.7475,0.6463 36.7344,0.1151 42.1953,-1.1797 5.4607,-1.2952 28.8229,-4.6289 51.916,-7.4082 91.008,-10.9524 218.7377,90.2013 292.35353,231.5254 22.3118,42.8331 43.3758,91.9042 59.0684,135.334 z M 1282.2879,603.31232 c -5.783,0 -10.5157,4.4669 -10.5157,9.92778 0,5.4607 1.9709,9.9296 4.3789,9.9296 2.4081,0 7.1408,-4.4689 10.5157,-9.9296 3.375,-5.46088 1.4043,-9.92778 -4.3789,-9.92778 z"
       id="path4344"
       inkscape:connector-curvature="0"
       sodipodi:nodetypes="cssssccscscssssssssccccccssssssssccssssccssccsssss" />
    <text
       xml:space="preserve"
       style="font-style:normal;font-weight:normal;font-size:252.56735229px;line-height:125%;font-family:sans-serif;letter-spacing:0px;word-spacing:0px;fill:#0000ff;fill-opacity:1;stroke:none;stroke-width:1px;stroke-linecap:butt;stroke-linejoin:miter;stroke-opacity:1"
       x="412.15903"
       y="-946.96918"
       id="text4524-9-6-6-8-9-0-31-5-9-3-5-1"
       sodipodi:linespacing="125%"><tspan
         sodipodi:role="line"
         id="tspan4526-3-0-2-7-2-2-9-0-6-8-6-1"
         x="412.15903"
         y="-946.96918">5</tspan></text>
  </g>
  <g
     inkscape:groupmode="layer"
     id="layer1"
     inkscape:label="frame"
     style="display:inline" />
</svg>
