<?xml version="1.0" encoding="UTF-8" standalone="no"?>
<!-- Created with Inkscape (http://www.inkscape.org/) -->

<svg
   xmlns:dc="http://purl.org/dc/elements/1.1/"
   xmlns:cc="http://creativecommons.org/ns#"
   xmlns:rdf="http://www.w3.org/1999/02/22-rdf-syntax-ns#"
   xmlns:svg="http://www.w3.org/2000/svg"
   xmlns="http://www.w3.org/2000/svg"
   xmlns:sodipodi="http://sodipodi.sourceforge.net/DTD/sodipodi-0.dtd"
   xmlns:inkscape="http://www.inkscape.org/namespaces/inkscape"
   width="3086.0615mm"
   height="1615.2493mm"
   viewBox="0 0 10934.863 5723.3242"
   id="svg2"
   version="1.1"
   inkscape:version="0.91 r13725"
   sodipodi:docname="telon-siluetas-mapa.svg">
  <defs
     id="defs4" />
  <sodipodi:namedview
     id="base"
     pagecolor="#ffffff"
     bordercolor="#666666"
     borderopacity="1.0"
     inkscape:pageopacity="0.0"
     inkscape:pageshadow="2"
     inkscape:zoom="0.08966952"
     inkscape:cx="5373.8479"
     inkscape:cy="2314.8495"
     inkscape:document-units="px"
     inkscape:current-layer="layer1"
     showgrid="false"
     inkscape:window-width="1855"
     inkscape:window-height="1056"
     inkscape:window-x="69"
     inkscape:window-y="1048"
     inkscape:window-maximized="1"
     showguides="true"
     inkscape:guide-bbox="true"
     inkscape:snap-global="false"
     fit-margin-top="0"
     fit-margin-left="0"
     fit-margin-right="0"
     fit-margin-bottom="0" />
  <metadata
     id="metadata7">
    <rdf:RDF>
      <cc:Work
         rdf:about="">
        <dc:format>image/svg+xml</dc:format>
        <dc:type
           rdf:resource="http://purl.org/dc/dcmitype/StillImage" />
        <dc:title></dc:title>
      </cc:Work>
    </rdf:RDF>
  </metadata>
  <g
     inkscape:label="Layer 1"
     inkscape:groupmode="layer"
     id="layer1"
     transform="translate(437.78536,4540.9304)">
    <path
       style="fill:#a05a2c;stroke:#000000;stroke-width:4;stroke-miterlimit:4;stroke-dasharray:none"
       d="m 9010.6272,-1215.9774 c 19.192,-31.9497 21.86,-43.9223 2.913,-28.1978 -0.657,0.545 -1.938,0.9337 -2.564,1.4102 z m 0,-65.3516 c 23.344,-32.3024 48.556,-91.4239 41.32,-98.6601 -3.027,-3.0272 -16.132,-0.6613 -29.123,5.2578 -4.794,2.1841 -8.776,4.7669 -12.197,7.9922 z m 0,-127.7148 c 7.579,-1.7518 15.203,-3.0098 21.834,-3.0098 17.229,0 36.46,-6.1876 42.736,-13.75 9.141,-11.0136 5.943,-15.1218 -16.061,-20.6445 -33.717,-8.4626 -42.215,-20.8971 -42.412,-62.0606 -0.103,-21.9687 6.103,-35.2662 19.912,-42.6562 27.211,-14.5628 45.95,-1.8871 22.729,15.375 -14.268,10.607 -15.702,17.0561 -6.959,31.3144 16.42,26.7774 35.191,21.8875 60.574,-15.7793 27.796,-41.2454 28.105,-46.9391 2.881,-53.5351 -10.921,-2.8561 -19.857,-12.6132 -19.857,-21.6836 0,-11.9733 5.44,-14.7653 19.857,-10.1895 30.795,9.7738 58.311,-3.5135 75.295,-36.3574 14.214,-27.4873 14.105,-31.5318 -1.313,-48.5684 -9.251,-10.2217 -14.144,-25.5541 -10.875,-34.0722 4.906,-12.7853 9.347,-13.3601 25.467,-3.293 16.238,10.1407 22.97,9.082 39.944,-6.2793 11.227,-10.1604 20.402,-21.1314 20.392,-24.3808 -0.04,-11.9747 -86.694,-5.4578 -102.637,7.7187 -24.204,20.0027 -21.393,-3.6734 4.803,-40.4629 18.189,-25.5432 26.028,-29.1353 53.76,-24.6348 23.269,3.776 36.926,0.3401 48.209,-12.1269 19.595,-21.6521 20.193,-31.8091 1.451,-24.6172 -7.859,3.0159 -22.188,1.063 -31.842,-4.3398 -14.866,-8.3188 -11.537,-11.5115 21.737,-20.8496 21.609,-6.0645 48.111,-17.766 58.896,-26.004 16.659,-12.7244 17.744,-17.966 7.207,-34.8378 -11.351,-18.177 -10.355,-19.3472 11.744,-13.8008 12.912,3.2407 21.419,-1.2354 37.779,-13.8386 l -365.251,-0.7342 z m 986.48,-555.3926 c 2.399,6.4653 5.0688,13.0083 8.0308,19.3691 13.181,28.3104 24.015,68.3947 24.065,89.0762 0.08,31.4532 7.401,44.7041 44.773,81.0254 49.814,48.4136 52.193,55.1757 27.307,77.6992 -13.596,12.3046 -17.102,30.458 -16.121,83.4512 2.06,111.2332 -15.298,134.931 -108.3128,147.8945 -65.763,9.1655 -96.48,23.9801 -96.48,46.5313 0,11.0219 7.381,25.439 16.404,32.0371 9.023,6.598 23.655,31.6629 32.512,55.7011 10.657,28.9226 22.739,44.6759 35.72,46.5743 21.626,3.1631 44.4338,43.2271 44.4338,78.0468 0,12.2918 7.323,26.4468 16.27,31.4532 9.066,5.074 20.249,30.5624 25.265,57.582 4.949,26.6639 11.547,60.8078 14.66,75.875 5.601,27.1084 -9.44,57.00001 -28.683,57.00001 -5.377,0 -7.055,-7.8186 -3.727,-17.37501 5.044,-14.484 3.568,-14.1692 -8.867,1.8965 -14.998,19.37671 -18.704,15.34351 -15.436,-16.791 0.972,-9.5565 -2.981,-17.375 -8.785,-17.375 -5.8038,-3e-4 -10.5518,7.1876 -10.5518,15.9707 0,12.1132 -6.046,14.4507 -25.039,9.6836 -34.557,-8.6732 -40.695,13.39591 -15.307,55.03901 6.447,10.574 11.909,23.8998 15.639,36.3223 l 59.5108,0 c 19.991,-24.8362 53.092,-60.7855 77.336,-83.65821 31.271,-29.5024 54.3,-62.8084 67.121,-97.0762 10.735,-28.6908 32.751,-69.653 48.924,-91.0273 16.174,-21.3742 29.534,-46.4183 29.686,-55.6524 0.151,-9.234 4.936,-19.6705 10.636,-23.1933 15.866,-9.8055 39.282,14.7531 39.282,41.1992 0,28.5813 0.624,28.6304 47.048,3.748 42.714,-22.8933 70.592,-25.4019 77.657,-6.9902 3.179,8.2802 17.199,11.4339 39.336,8.8496 22.059,-2.5753 31.41,4.2972 33.201,12.9573 l -1.479,-756.5198 z m 497.5498,759.0633 c -0.243,2.6683 -2.086,7.61 -2.478,10.9718 -1.996,17.1401 -10.836,39.1322 -19.65,48.8711 -11.423,12.6222 -12.963,20.7712 -5.359,28.375 7.604,7.6039 -12.69,28.8079 -70.668,73.834 -44.735,34.7412 -92.132,70.30691 -105.325,79.03521 -5.432,3.594 -20.97,21.0622 -42.013,46.5371 l 243.972,0 z m -1451.0558,-275.6766 c -4.745,0 -6.09,3.1409 -2.207,9.4238 3.375,5.4608 13.694,9.8614 22.928,9.7774 14.469,-0.1319 14.728,-1.483 1.894,-9.7774 -9.722,-6.2829 -17.869,-9.4238 -22.615,-9.4238 z m 790.608,277.2109 c -2.146,-0.1173 -3.485,2.2007 -3.485,7.752 0,29.2728 70.218,181.1797 83.75,181.1797 1.915,0 5.884,-6.2492 8.815,-13.8867 2.931,-7.6376 -7.856,-28.6513 -23.967,-46.6973 -16.355,-18.3185 -31.942,-49.3789 -35.291,-70.3203 -4.179,-26.1345 -22.157,-57.6087 -29.822,-58.0274 z m 104.556,98.4082 c -6.947,0.5535 -9.105,17.1477 -3.053,37.9356 l 8.086,27.7656 3.784,-28.2109 c 2.081,-15.5164 1.212,-30.7806 -1.93,-33.9219 -2.62,-2.6204 -4.942,-3.7234 -6.887,-3.5684 z"
       id="path4551"
       inkscape:connector-curvature="0"
       sodipodi:nodetypes="ccccccccccscsccccccsssccsscccscccsccsccccscssssscsccssssccsscccscccssscsccccccssccccccscscscsccccccccccc" />
    <path
       style="fill:#a05a2c;stroke:#000000;stroke-width:4;stroke-miterlimit:4;stroke-dasharray:none"
       d="m 3580.3086,-1284.4738 c 7.9088,0 17.1829,11.1703 20.6094,24.8222 5.397,21.504 11.8454,24.8691 48.2383,25.1738 41.4237,0.3469 41.6622,0.549 17.1855,14.5411 -35.5128,20.301 -69.502,18.9528 -69.502,-2.7559 0,-9.7066 -6.9543,-27.5783 -15.455,-39.7148 -13.1465,-18.7691 -13.3072,-22.0664 -1.0762,-22.0664 z"
       id="path4549"
       inkscape:connector-curvature="0" />
    <path
       style="fill:#a05a2c;stroke:#000000;stroke-width:4;stroke-miterlimit:4;stroke-dasharray:none"
       d="m 8934.2769,-1962.7096 4.6459,11.4451 c 0,0 27.9375,70.2909 27.9375,124.7369 0,38.013 -4.316,71.78 -9.5899,75.039 -5.6783,3.509 -7.1719,37.255 -3.664,82.746 5.3788,69.752 3.5203,81.563 -20.1973,128.367 -29.3464,57.913 -33.5009,91.922 -11.2285,91.922 17.8687,0 20.2928,19.714 2.4824,20.188 -6.8259,0.181 -1.7263,9.229 11.334,20.105 27.2248,22.673 19.8661,39.518 -9.3047,21.301 -22.4088,-13.995 -24.2758,-9.552 -7.3691,17.52 16.401,26.262 1.5086,38.303 -17.9141,14.484 -14.8752,-18.243 -15.324,-18.266 -9.6543,-0.5 3.2703,10.248 1.0702,24.511 -4.8906,31.693 -8.2078,9.89 -4.6365,18.451 14.7207,35.282 19.2614,16.747 25.5605,31.729 25.5605,60.8 0,21.218 4.6245,47.221 10.2774,57.784 8.0871,15.11 7.0281,19.203 -4.9649,19.203 -18.2557,0 -18.4718,1.906 -3.8613,33.972 11.7529,25.795 28.334,25.679 28.334,-0.199 0,-8.084 15.6372,-37.92 34.75,-66.301 7.2137,-10.711 13.0375,-19.9 17.9883,-28.088 l 0,-27.423 c -20.6061,14.981 -23.495,-7.88 -2.6954,-34.323 0.8884,-1.129 1.7929,-2.472 2.6954,-3.781 l 0,-85.793 c -9.0014,9.089 -13.7638,23.414 -17.7227,49.815 -3.9537,26.367 -11.3724,55.76 -16.4863,65.316 -9.9152,18.529 -38.3867,24.052 -38.3867,7.447 0,-5.461 4.4689,-9.927 9.9296,-9.927 5.5919,0 9.9278,-27.945 9.9278,-63.975 0,-54.853 3.1457,-66.177 22.0664,-79.43 7.2831,-5.101 18.863,-9.416 30.6719,-12.224 l 0,-557.202 z m -724.2249,1.0879 c -1.1683,28.186 1.6497,60.4801 5.9528,71.3421 6.7168,16.954 4.8414,16.431 -12.8223,-3.582 -11.3787,-12.892 -20.6875,-31.881 -20.6875,-42.197 0,-10.317 -4.469,-18.756 -9.9297,-18.756 -14.6014,0 -11.4289,50.75 4.9649,79.428 18.5997,32.537 18.5997,50.444 0,43.306 -9.6851,-3.716 -14.8926,0.264 -14.8926,11.383 0,18.84 69.6929,87.75 78.7383,77.854 3.1104,-3.403 0.7089,-7.969 -5.3359,-10.147 -7.2149,-2.599 -3.988,-18.11 9.3925,-45.154 13.8331,-27.959 16.7251,-42.413 9.0039,-44.986 -7.8908,-2.631 -8.5208,-11.3 -2.0586,-28.297 5.1242,-13.478 8.2601,-27.702 6.9707,-31.608 -1.81,-5.482 34.5504,-60.447 34.5504,-60.447 z m 5.3161,265.8811 c -1.4808,0.107 -0.5152,3.951 2.5156,11.91 3.7285,9.792 9.279,15.301 12.3359,12.245 3.057,-3.057 -3e-4,-11.068 -6.7793,-17.803 -4.2901,-4.258 -6.9204,-6.435 -8.0722,-6.352 z m 6.6035,80.535 c -0.7099,0.033 -1.4577,0.18 -2.2441,0.442 -23.3287,7.767 -21.4105,67.023 2.1699,67.023 5.6321,0 10.2402,-16.01 10.2402,-35.578 0,-21.793 -3.3031,-32.204 -10.166,-31.887 z"
       id="path4545"
       inkscape:connector-curvature="0"
       sodipodi:nodetypes="ccscssscccsccccscsssccccccscsssccccccsssscsccscsccccccccccssc" />
    <path
       style="fill:#a05a2c;stroke:#000000;stroke-width:4;stroke-miterlimit:4;stroke-dasharray:none"
       d="m 7528.5982,-3011.2174 -2.8643,570.387 c 15.8643,16.422 42.2395,25.137 81.7569,4.702 27.2661,-14.099 32.2467,-14.099 53.7656,0 32.1453,21.063 51.3653,19.531 64.5703,-5.142 9.8144,-18.338 12.9463,-19.048 27.6524,-6.26 9.1218,7.932 22.3995,12.322 29.5058,9.756 7.1061,-2.566 30.5229,7.532 52.0372,22.441 29.1108,20.174 42.4183,24.369 52.0214,16.399 9.7861,-8.122 19.3903,-2.582 39.7461,22.929 20.4945,25.685 35.6583,34.37 64.1309,36.725 34.8423,2.883 37.2834,5.203 37.1934,35.354 -0.1,32.157 8.2103,41.342 20.0546,22.177 11.2513,-18.205 21.4978,-1.311 17.1543,28.283 -3.2295,22.004 1.2947,32.886 18.7579,45.118 12.6575,8.865 30.7982,16.119 40.3125,16.119 23.4882,0 44.7445,39.249 27.1464,50.125 -10.3203,6.378 -10.3845,15.812 -0.3339,49.357 10.2895,34.344 15.8875,40.568 32.5722,36.205 16.1038,-4.211 19.1425,-1.419 15.1348,13.907 -2.7578,10.546 -0.9032,21.715 4.1211,24.82 4.8345,2.988 7.8523,26.942 6.9922,53.959 l 84.9531,0 c 19.5813,-26.799 44.8389,-58.36 70.8066,-87.467 119.7698,-134.251 133.2926,-140.906 286.3242,-140.906 112.6011,0 193.8689,17.798 180.4454,39.517 -3.1034,5.022 2.8053,13.65 13.1308,19.176 10.3256,5.526 24.4859,24.739 31.4668,42.695 6.9807,17.957 29.9339,69.42 51.0059,114.362 2.1376,4.559 3.9444,8.555 5.7949,12.623 l 77.832,0 0,-1047.361 z m 464.1465,711.003 c -0.2766,0 -0.5493,0 -0.8183,0.01 -1.9866,0.09 -3.7524,0.731 -5.086,2.065 -7.1121,7.112 5.4204,26.476 17.1348,26.476 5.1385,0 9.3418,-4.205 9.3418,-9.344 0,-9.22 -11.9961,-18.947 -20.5723,-19.203 z m 129.2031,117.913 c -5.7831,0 -7.7538,4.468 -4.3789,9.929 3.375,5.461 8.1055,9.928 10.5137,9.928 2.4081,0 4.3789,-4.467 4.3789,-9.928 0,-5.461 -4.7307,-9.929 -10.5137,-9.929 z"
       id="path4541"
       inkscape:connector-curvature="0"
       sodipodi:nodetypes="ccccssscsscccscsscsscccsscscscccccccssccscsss" />
    <path
       style="fill:#a05a2c;stroke:#000000;stroke-width:4;stroke-miterlimit:4;stroke-dasharray:none"
       d="m 1601.9538,875.76721 -152.0472,-1.394 c -14.7929,-75.322 -121.3974,-135.73 -128.2286,-160.043 l -12.5527,-44.678 13.0508,204.721 -608.74804,0 c -11.6097,-41.519 -18.2376,-67.101 -18.2949,-71.68 -0.5994,-47.896 4.7084,-86.372 15.248,-110.535 9.6342,-22.088 19.6581,-86.276 24.8086,-158.857 5.0581,-71.276 15.1131,-136.209 24.2422,-156.545 14.373,-32.019 39.7667,-179.525 43.7777,-246.28 l -683.7484,-0.697 0,1047.36219 1483.18954,0 z"
       id="path4537"
       inkscape:connector-curvature="0"
       sodipodi:nodetypes="ccscccscscccccc" />
    <path
       style="fill:#a05a2c;stroke:#000000;stroke-width:4;stroke-miterlimit:4;stroke-dasharray:none"
       d="m 800.30826,129.63381 c 0,0 0.2409,-22.715 -1.4668,-25.477 -3.6239,-5.863996 1.3524,-25.406996 11.0586,-43.429996 l 17.6484,-32.773 -62.6426,-69.965 c -34.4537,-38.482 -86.6381,-86.492004 -115.9648,-106.689004 -29.3268,-20.198 -55.712,-46.247 -58.6328,-57.885 -2.9209,-11.638 3.4968,-41.208 14.2617,-65.713 10.7648,-24.505 24.7754,-73.597 31.1348,-109.092 6.3592,-35.495 31.4497,-110.235 55.7558,-166.09 47.9644,-110.219 112.0497,-276.3569 136.6014,-367.7929 l -705.8709,-1.3941 0,1047.363 z"
       id="path4572"
       inkscape:connector-curvature="0"
       sodipodi:nodetypes="ccccscsssscccc" />
    <path
       style="fill:#a05a2c;stroke:#000000;stroke-width:4;stroke-miterlimit:4;stroke-dasharray:none"
       d="m 757.27486,-3015.9452 c -34.6238,78.7489 -48.0317,157.2831 -31.7358,183.6503 7.2033,11.6554 16.3379,182.1531 15.125,282.295 -0.1985,16.3823 8.5111,62.2293 19.3535,101.8808 10.8424,39.6514 19.8067,91.0322 19.9219,114.1797 0.254,51.0476 81.6934,273.7616 131.5683,359.8027 0.828,1.4284 2.4301,4.4973 3.7578,6.9805 l 255.51174,0 c -1.0936,-10.155 -2.212,-20.8406 -3.5176,-33.4707 -5.4575,-52.7954 -17.1946,-117.4084 -26.082,-143.5859 -13.6766,-40.2833 -14.4243,-58.1039 -4.8652,-115.9864 16.4119,-99.3775 60.6361,-175.6211 101.8672,-175.6211 9.9697,0 18.1269,-3.4133 18.1269,-7.5859 0,-10.7808 78.8344,-43.5963 89.2578,-37.1543 4.7614,2.9428 11.3219,1.0381 14.5781,-4.2305 2.3541,-3.8088 17.5709,-5.7997 39.3965,-5.6269 9.9207,0.078 21.2079,0.6044 33.2715,1.6094 83.7683,6.9788 120.2965,9.8723 148.6601,11.7754 7.345,0.493 13.6631,3.1799 17.7051,6.9707 l 0.8362,-545.8828 z m -641.2885,1.4257 0,1047.3633 367.8574,0 c -8.3554,-45.1619 -15.6834,-153.1575 -19.4375,-289.9473 -8.6841,-316.4186 -6.8748,-394.5721 10.4844,-453.0273 8.1481,-27.4375 12.5935,-61.4979 9.8808,-75.6895 -2.7129,-14.1911 0.3466,-41.793 6.7969,-61.3378 9.7181,-29.4458 8.7945,-44.3669 -5.3848,-87.0567 -8.3752,-25.2153 -16.3059,-48.3169 -17.3577,-81.2894 z"
       id="path4260"
       inkscape:connector-curvature="0"
       sodipodi:nodetypes="csssscccssssscccscccccsscsscc" />
    <path
       style="fill:#a05a2c;stroke:#000000;stroke-width:4;stroke-miterlimit:4;stroke-dasharray:none"
       d="m 121.73126,-4062.2334 0,1047.3613 353.9902,0 c -0.5297,-23.3305 3.2885,-52.5102 5.3809,-93.7949 4.2134,-83.1328 10.4148,-126.5969 18.8106,-131.8437 6.8886,-4.305 38.3143,-10.7721 69.8359,-14.3731 31.5216,-3.6012 59.7101,-10.4283 62.6406,-15.1699 2.9304,-4.7415 15.6889,-8.6211 28.3516,-8.6211 12.6628,0 38.3234,-6.3928 57.0254,-14.207 13.6183,-5.6901 24.3852,-8.6715 33.0722,-8.4356 19.1112,0.5189 28.1519,16.6113 35.3165,53.7031 17.3292,89.7157 8.4974,155.5216 -22.6691,232.7422 l 841.43454,0 0,-1047.3613 z"
       id="path4216"
       inkscape:connector-curvature="0"
       sodipodi:nodetypes="cccsssssssscccc" />
    <path
       style="fill:#a05a2c;stroke:#000000;stroke-width:4;stroke-miterlimit:4;stroke-dasharray:none"
       d="m 921.37726,-1965.4597 c 7.3047,13.431 20.5865,34.5164 29.9221,53.4744 31.6059,64.184 136.21794,167.446 184.19714,181.821 21.8209,6.537 44.0365,20.035 49.3672,29.996 10.4739,19.571 53.5017,24.191 78.4434,8.424 12.5721,-7.948 8.4887,-21.972 -26.6953,-91.688 -44.33,-87.838 -51.0056,-98.7483 -60.0304,-181.6663 z m -93.0797,1048.42881 c 6.9594,-26.168 8.2333,-48.1744 8.2713,-57.9574 0.08,-20.286 7.1912,-56.99001 15.8027,-81.56301 11.2888,-32.213 13.8173,-61.163 9.0645,-103.764 -7.7339,-69.32 -13.3434,-81.721 -70.252,-155.277 -23.6182,-30.527 -46.1459,-68.505 -50.0605,-84.395 -12.2498,-49.724 -42.8939,-114.31 -98.332,-207.25 -63.807,-106.969 -133.3008,-269.597 -153.2802,-359.015 -0.2626,-1.175 -38.1463,0.592 -38.4036,-0.932 l -328.5467,2.957 0,1047.36201 z"
       id="path4214"
       inkscape:connector-curvature="0"
       sodipodi:nodetypes="cscccsccccsssssccccc" />
    <path
       style="fill:#a05a2c;stroke:#000000;stroke-width:4;stroke-miterlimit:4;stroke-dasharray:none"
       d="m 3083.1667,-1967.8741 0,-574.4492 c -6.096,-5.7872 -12.495,-11.6942 -19.584,-17.918 -52.5541,-46.1399 -63.8872,-60.9287 -54.9453,-71.7031 14.5366,-17.5155 39.2627,-16.8103 74.5293,1.6133 l 0,-384.9063 -1483.1875,0 -0.7721,542.4274 c 4.3697,2.8549 8.3932,7.4883 8.3932,10.973 0,8.1912 6.7013,14.8926 14.8926,14.8926 8.1911,0 14.8926,4.4668 14.8926,9.9277 0,5.4607 11.4722,9.9297 25.4922,9.9297 20.9724,0 24.3728,3.5199 19.1875,19.8574 -4.565,14.3832 -1.7832,19.8575 10.0879,19.8575 9.0141,0 14.5066,5.5841 12.207,12.4101 -2.2994,6.8259 2.855,17.5931 11.4531,23.9258 14.0641,10.3588 13.743,13.5987 -3.1875,32.3066 -15.9594,17.6349 -17.0265,24.7289 -7.0215,46.6875 8.8905,19.5127 8.9911,29.2752 0.4043,39.6211 -6.2667,7.5509 -8.875,23.3603 -5.7969,35.1309 3.078,11.7705 0.9514,44.186 -4.7265,72.0352 -9.985,48.9769 -13.1831,68.4823 -26.6856,156.9023 l 90.8606,0 c -1.2363,-14.4759 -2.5742,-28.8828 -3.5071,-41.7305 -7.7255,-106.3882 -6.9781,-115.3059 10.9571,-130.6816 17.785,-15.2472 18.4624,-22.4192 8.8925,-94.3223 -13.7588,-103.3773 -20.7852,-122.1134 -68.373,-182.3164 -64.6748,-81.8198 -47.3787,-108.2822 29.043,-44.4336 22.8764,19.1126 45.4343,34.75 50.1289,34.75 4.6947,0 9.8578,-30.1593 11.4726,-67.0195 2.603,-59.4209 5.1868,-67.0176 22.793,-67.0176 13.8355,0 22.7384,9.7852 29.3574,32.2676 12.335,41.8994 21.2632,40.7866 31.8477,-3.9688 7.4899,-31.6702 24.7207,-52.4495 39.1992,-52.1992 5.2369,0.091 10.1134,2.9333 14.039,9.0059 5.2953,8.1911 7.141,34.9987 4.1016,59.5722 l -5.5254,44.6797 22.9199,-29.6074 c 48.4151,-62.5436 64.6327,-77.6474 75.9004,-70.6836 19.8564,12.2719 12.813,46.7123 -22.8086,111.5176 l -34.3652,62.5176 38.2754,-19.9492 c 54.3533,-28.3305 102.7422,-34.6474 118.6445,-15.4864 16.2538,19.5847 8.4232,31.9601 -33.9961,53.7227 -18.6322,9.5589 -58.554,41.3632 -88.7148,70.6777 -51.2797,49.8407 -54.8379,56.3504 -54.8379,100.332 0,31.7215 6.3523,55.1105 19.5117,71.8399 20.9522,26.6365 31.8638,67.3586 42.7891,168.5332 z"
       id="path4302"
       inkscape:connector-curvature="0"
       sodipodi:nodetypes="ccssccccsssssscssscssccsssssssscscscccscccssssscc" />
    <path
       style="fill:#a05a2c;stroke:#000000;stroke-width:4;stroke-miterlimit:4;stroke-dasharray:none"
       d="m 1668.048,-1966.2507 c -2.0019,13.0625 -2.0056,12.587 -4.9212,31.7358 -8.6339,56.706 -21.9763,118.997 -29.8609,134.8022 -12.429,24.9143 -12.4622,35.0437 -0.252,76.1601 11.2762,37.9709 21.5432,51.5271 51.5059,68 20.5824,11.3158 57.9215,22.7256 82.9746,25.3555 l 45.5508,4.7813 -8.3379,-50.7247 c -4.586,-27.8984 -15.4849,-88.7005 -24.2188,-135.1171 -6.8823,-36.5754 -14.9418,-99.3455 -20.3437,-155.2344 z m 348.6931,0.2515 c 2.2114,20.5542 5.4107,42.091 7.7103,68.14 12.6431,143.2175 41.3307,269.1799 68.2168,299.5215 9.9432,11.2212 43.4848,65.8804 74.5371,121.4648 36.9798,66.1948 70.107,111.8719 96.0137,132.3906 45.7346,36.2224 50.3137,26.6464 23.748,-49.6582 -8.5336,-24.5111 -13.1108,-56.5896 -10.1718,-71.2851 3.1925,-15.9618 0.6547,-28.2824 -6.3028,-30.6016 -8.8208,-2.9402 -8.5977,-14.0528 0.918,-45.8144 6.9097,-23.0636 9.989,-50.0417 6.8438,-59.9512 -3.2851,-10.3503 0.9942,-23.588 10.0546,-31.1074 23.8542,-19.7973 47.4306,-69.1426 33.0352,-69.1426 -15.8567,0 18.8259,-37.641 41.2363,-44.7539 9.6118,-3.0506 19.7734,-14.3355 22.5821,-25.0762 2.8101,-10.7458 13.5626,-19.5273 23.9082,-19.5273 10.3406,0 24.1491,-5.3484 30.6855,-11.8848 6.5365,-6.5365 35.3555,-15.1647 64.041,-19.1738 28.6856,-4.0092 64.8144,-10.4237 80.2871,-14.2539 15.9762,-3.9547 44.7965,-1.4643 66.6973,5.7637 31.4295,10.3722 41.4214,10.3575 54.0078,-0.088 13.5066,-11.2095 15.1031,-8.6737 12.7324,20.2285 -2.4294,29.6187 0.6354,34.0334 29.5566,42.5566 17.7476,5.2303 32.2695,13.8154 32.2695,19.0781 0,5.4543 11.7393,6.6699 27.3028,2.8262 22.0145,-5.437 24.8992,-4.2998 14.8926,5.8731 -6.826,6.9393 -12.4102,16.1919 -12.4102,20.5605 0,13.0573 57.5016,8.9739 62.9258,-4.4687 3.5235,-8.7319 5.2395,-8.9423 5.791,-0.709 0.431,6.436 -5.9762,18.4626 -14.2383,26.7246 -13.4102,13.4102 -12.6102,17.6149 7.4473,39.1875 12.3577,13.2912 32.9897,35.8906 45.8496,50.2226 12.8599,14.3318 29.6143,26.0586 37.2324,26.0586 7.618,0 13.8516,4.4689 13.8516,9.9297 0,5.4607 -6.7016,9.9278 -14.8926,9.9278 -21.1452,0 -18.4435,17.4722 4.9629,32.0898 23.5053,14.6794 25.8185,27.4824 4.9648,27.4824 -10.7561,0 -14.8925,11.032 -14.8925,39.7149 0,38.1617 -12.769,53.1808 -23.211,27.3027 -2.7543,-6.8259 -5.7018,-1.2398 -6.5508,12.4121 -1.6818,27.0451 -5.7498,51.4001 -14.2226,85.1582 -4.0771,16.2449 -0.2806,23.1471 14.916,27.1211 27.7368,7.2539 88.6406,-19.4947 88.6406,-38.9297 0,-8.6577 6.3304,-29.8196 14.0684,-47.0273 14.3467,-31.9037 41.3639,-120.6189 63.8652,-203.625 l 0,-365.1504 z"
       id="path4330"
       inkscape:connector-curvature="0"
       sodipodi:nodetypes="cssssscsscccsssssccsssscsssssccssssssscsssssssssssscssccc" />
    <path
       style="fill:#a05a2c;stroke:#000000;stroke-width:4;stroke-miterlimit:4;stroke-dasharray:none"
       d="m 3082.3255,878.49441 -378.5476,0.1896 c -7.6489,-8.755 -33.9482,-30.6136 -44.459,-51.2166 -29.71,-58.238 -142.8741,-130.9 -152.0254,-130.9 -7.7716,0 13.1484,181.9566 13.1484,181.9566 l -19.9062,0.16 -370.0293,-3.9429 c -20.3186,-191.652 -57.0088,-216.7287 -86.6954,-216.7287 -4.9553,0 -8.6836,-12.285 -8.2851,-27.302 1.2693,-47.843 -12.7566,-93.668 -26.9961,-88.204 -20.9124,8.025 -23.2655,-14.205 -8.8106,-83.226 16.3586,-78.112 17.6105,-128.916 3.1778,-128.916 -15.2074,0 -2.6345,-53.327 28.0898,-119.143 14.0207,-30.034 19.6856,-77.9227 18.6124,-82.6397 -0.3111,-1.367 -65.4808,-0.259 -65.4808,-0.259 0,0 -12.7466,135.8647 -26.9538,174.9027 -21.3242,9.715 -22.9786,16.384 -22.9786,92.623 0,45.184 -5.1061,94.731 -11.3476,110.104 -6.2418,15.373 -12.5247,77.098 -13.961,137.166 -1.4237,59.543 -12.8433,160.4897 -21.8613,231.6207 l -282.4243,0 -1.394,302.12129 1483.1894,0 0,-1047.36099 -84.3594,-0.65 c -1.6005,16.882 1.3943,44.876 -1.5742,67.659 l -14.6347,112.305 40.957,97.652 c 29.1158,69.421 45.9227,108.889 57.6406,134.432"
       id="path4341"
       inkscape:connector-curvature="0"
       sodipodi:nodetypes="ccsscccsscssscccscsccccccccsc" />
    <path
       style="fill:#a05a2c;stroke:#000000;stroke-width:4;stroke-miterlimit:4;stroke-dasharray:none"
       d="m 4502.3265,128.95961 c 1.7438,22.338 9.8037,60.974 19.5586,92.096 25.9263,82.714 40.8957,175.841 47.0059,296.602 l 0,-388.698 z m -1417.2443,397.294 c 13.0466,28.44 25.5741,43.232 33.2443,52.062 7.3563,8.468 36.1339,130.128 102.9395,252.445 6.9016,12.637 14.4916,39.565 16.2851,46.094 l -152.4689,0.493 0.1264,299.95999 1483.6824,-0.986 -1.0455,-291.59599 -464.4858,-6.273 c -1.3215,-39.46 -2.414,-67.84 -3.1367,-75.649 -3.5375,-38.225 -11.3382,-87.371 -17.334,-109.215 l -10.9004,-39.715 -13.0605,29.786 c -7.1834,16.382 -13.4572,58.827 -13.9414,94.322 -0.7317,53.639 -10.7745,88.804 -14.6582,100.471 l -472.0528,0 c -1.1073,-13.788 -24.8797,-311.502 -22.3554,-437.057 2.1778,-108.323 13.093,-257.4199 31.0745,-312.9289 l -481.2933,0.4929 z"
       id="path4386"
       inkscape:connector-curvature="0"
       sodipodi:nodetypes="csccccccccccccscccsccsccc" />
    <path
       style="fill:#a05a2c;stroke:#000000;stroke-width:4;stroke-miterlimit:4;stroke-dasharray:none"
       d="m 2042.9167,-227.42659 c -0.8574,0.101 -1.3957,1.32 -1.5039,3.768 -0.3465,7.832 -9.5438,32.655 -20.4394,55.162 -11.2497,23.239 -20.4927,64.278 -21.3887,94.973004 -0.8547,29.281 -16.418,202.678996 -16.418,202.678996 l 1103.8476,0 0,-282.635 c -13.0115,2.909 -34.3029,5.166 -44.6761,6.25 l -59.5059,6.217 -5.2148,70.699004 c -3.6189,49.062 -1.3884,75.2550005 7.2871,85.59 17.7764,21.177 16.1152,113.876996 16.1152,113.876996 l -949.9381,1.9714 c 1.9988,-11.488 1.3357,-30.4107 6.8917,-49.522696 16.6661,-57.33 11.7306,-250.502704 -5.9805,-294.682704 -3.7626,-9.386 -7.1898,-14.57 -9.0762,-14.348 z"
       id="path4337"
       inkscape:connector-curvature="0"
       sodipodi:nodetypes="ccsscccccssccsccc" />
    <path
       style="fill:#a05a2c;stroke:#000000;stroke-width:4;stroke-miterlimit:4;stroke-dasharray:none"
       d="m 3083.5336,-2629.1642 c 9.0668,4.8715 24.8999,11.2693 35.3629,18.4666 27.3236,18.7954 52.3975,31.4542 55.7207,28.1308 11.6668,-11.6667 5.5928,-67.886 -14.1348,-130.8242 -10.9568,-34.956 -17.2173,-72.0766 -13.9121,-82.4902 8.2683,-26.0515 45.2762,-19.2739 60.3379,11.0508 l 11.8535,23.8652 3.2891,-28.8281 c 4.3157,-37.8293 42.7507,-46.5207 53.2148,-12.0332 3.8245,12.6052 16.2223,44.8218 27.5488,71.5918 l 20.5918,48.6718 10.5391,-43.707 c 8.0957,-33.5769 15.1422,-43.709 30.3965,-43.709 16.6606,0 20.1343,7.1915 21.5781,44.6778 2.8731,74.6013 3.3431,75.7457 19.1719,46.5468 8.3239,-15.3549 20.4318,-26.1075 26.9062,-23.8945 19.2973,6.5959 12.0999,63.5361 -27.1015,214.3926 -24.0068,92.3838 -33.6849,146.1236 -27.4395,152.3691 5.3067,5.3066 7.5048,34.9084 4.8848,65.7813 -2.8433,33.5001 0.9701,176.036 6.2851,301.4004 l 663.0996,0 c -5.9541,-11.0806 -4.9182,-23.0712 -1.7148,-43.1758 7.0118,-44.0065 -18.088,-72.3275 -79.668,-89.8907 -53.4892,-15.2555 -62.1472,-22.9807 -91.6797,-81.7929 -31.3072,-62.3465 -29.4095,-60.4604 -46.5507,-46.2344 -19.2065,15.94 -26.1694,2.8808 -32.7246,-61.3769 -4.6595,-45.6763 -2.3061,-55.0779 19.7148,-78.7305 20.8609,-22.4066 24.1143,-33.5178 19.6211,-67.0176 -4.6433,-34.618 -2.8066,-40.1602 13.3144,-40.1602 10.7737,0 33.4244,19.8794 53.4336,46.8965 28.9275,39.0587 41.8081,48.1038 77.0801,54.1172 23.2922,3.971 47.3275,10.2954 53.4102,14.0547 6.0825,3.7594 26.1384,39.4721 44.5683,79.3613 18.43,39.8894 37.7765,75.1633 42.9922,78.3868 5.2157,3.2235 18.2071,0.4119 28.8711,-6.2481 16.4477,-10.2718 24.693,-8.0636 54.3496,14.5566 30.5115,23.272 56.1426,33.8878 56.1426,23.254 0,-1.8755 -9.3975,-29.7985 -20.8828,-62.0528 -26.5036,-74.4309 -29.6736,-189.6002 -6.9531,-252.6308 10.5762,-29.3406 18.6375,-96.8703 23.1132,-193.6094 5.0394,-108.9262 12.0959,-163.1193 26.4493,-203.1602 10.7662,-30.0343 25.3333,-79.4997 32.373,-109.9218 1.8019,-7.7872 3.6588,-15.0241 5.5352,-21.9864 l -1237.336,0 z m 1.6519,661.4588 83.7325,0 c 11.5466,-84.5523 13.3567,-186.0412 2.5332,-256.418 -10.4551,-67.9817 -9.9233,-83.1938 4.0664,-116.3457 15.7251,-37.2641 15.4361,-39.5469 -12.6504,-99.5664 -17.8281,-38.0977 -41.6725,-66.0966 -76.5456,-99.4492 z"
       id="path4446"
       inkscape:connector-curvature="0"
       sodipodi:nodetypes="cscssscsscccsssssccccsssssssssscsscssssssscccccssscc" />
    <path
       style="fill:#a05a2c;stroke:#000000;stroke-width:4;stroke-miterlimit:4;stroke-dasharray:none"
       d="m 3084.361,-1965.9289 0,1047.36331 4.6211,0 0,-682.21101 c 17.9262,-66.1285 33.0521,-128.7212 36.1445,-155.4433 3.783,-32.6901 15.3235,-88.6849 25.6465,-124.4317 6.9974,-24.2312 12.6938,-53.5888 17.0781,-85.2773 z m 303.5156,0 c 4.4688,105.0154 9.9613,197.8303 13.6016,201.4707 6.7159,6.7157 75.609,-68.0327 75.9492,-82.4043 0.3177,-13.4186 23.0903,-23.4024 53.3828,-23.4024 11.9386,0 37.264,-10.4928 56.2793,-23.3164 44.3753,-29.926 87.2247,-37.7305 118.7871,-21.6347 13.75,7.0121 48.5166,17.726 77.2578,23.8086 79.4501,16.8147 246.5381,114.3401 316.8965,184.9648 23.7169,23.8069 52.8145,95.0288 52.8145,129.2734 0,30.63 15.8757,31.5294 40.2754,2.2813 10.25,-12.2868 18.7851,-16.7537 18.9668,-9.9277 0.5709,21.4424 37.7426,13.5066 58.1289,-12.4102 29.4112,-37.3902 33.3496,-30.0971 12.4199,23.002 -15.9866,40.5586 -25.0908,102.8994 -21.4961,147.205 2.0214,24.9137 30.2682,22.0532 42.8789,-4.3418 7.3245,-15.3304 22.6169,-28.2569 35.6172,-30.1074 28.6831,-4.0829 45.9287,-44.5245 30.9336,-72.543 -5.8513,-10.9332 -9.4423,-39.3286 -7.9805,-63.0996 2.4508,-39.8515 -1.9446,-48.7215 -56.3828,-113.8183 -32.4715,-38.829 -63.0364,-83.8623 -67.9219,-100.0742 -4.8855,-16.2118 -14.244,-29.4766 -20.7988,-29.4766 -6.5549,0 -20.4293,-9.5887 -30.832,-21.3086 -10.4027,-11.7198 -43.4893,-37.0266 -73.5235,-56.2363 -35.7809,-22.8854 -53.4084,-35.0132 -61.1953,-47.9043 z m 116.5371,641.8926 c -7.105,0.089 -5.8801,3.9941 3.0684,9.7773 19.0742,12.3266 22.5109,12.3265 14.8926,0 -3.3749,-5.461 -11.4572,-9.8613 -17.961,-9.7773 z m -47.0722,10.9121 c -7.6694,-0.1506 -11.1502,9.8475 -5.3672,24.9179 4.9666,12.9428 9.2708,14.2255 18.1035,5.3926 8.8328,-8.8328 8.7963,-14.3832 -0.1582,-23.3379 -4.7394,-4.7395 -9.092,-6.9046 -12.5781,-6.9726 z m -52.3438,12.1425 c -0.8714,-0.2021 -2.0622,3.1204 -3.7871,9.7911 -2.7523,10.6448 -10.459,15.887 -18.7051,12.7226 -10.0545,-3.858 -14.0254,2.6116 -14.0254,22.8516 0,15.5284 -2.9161,42.8135 -6.4804,60.6347 l -6.4805,32.4024 -17.9238,-33.6426 c -11.2828,-21.1766 -18.0799,-27.2062 -18.3418,-16.2695 -0.2294,9.5564 -5.3612,17.375 -11.4063,17.375 -6.0449,0 -8.4206,-6.7015 -5.2773,-14.8926 3.1432,-8.1913 1.3869,-14.8926 -3.9024,-14.8926 -5.2893,0 -9.6171,13.1393 -9.6171,29.1992 0,16.0601 -4.4671,31.963 -9.9278,35.3379 -5.4615,3.375 -9.9297,-1.1493 -9.9297,-10.0527 0,-13.3817 -2.2223,-13.9137 -12.8242,-3.0684 -13.8636,14.182 -75.5455,195.72811 -88.6327,255.16641 l 92.7714,-0.2464 c 11.4247,-6.9183 20.7942,-13.8973 23.0644,-17.5704 3.1393,-5.0796 18.751,-12.0999 34.6934,-15.6015 15.9422,-3.5016 34.7009,-13.2517 41.6855,-21.668 6.9847,-8.4161 35.7174,-25.4815 63.8516,-37.92381 28.1339,-12.4421 57.4234,-30.9603 65.0859,-41.1504 7.6628,-10.1901 22.8002,-23.2871 33.6387,-29.1035 22.7965,-12.2335 65.4251,-93.8876 56.5293,-108.2813 -3.3027,-5.3441 -6.2377,-20.7922 -6.5215,-34.3281 -0.3484,-16.6274 -11.6062,-32.1042 -34.7031,-47.7129 -31.1497,-21.0505 -35.0112,-21.6257 -43.4902,-6.4746 -6.4245,11.4802 -4.2955,25.1114 6.8808,44.0313 26.233,44.4091 18.8115,45.8233 -23.5254,4.4824 -40.9671,-40.0032 -49.5471,-38.2869 -24.8222,4.9648 18.8048,32.8955 18.5302,45.1641 -0.6543,29.2422 -21.1462,-17.5498 -43.775,-63.0331 -45.1758,-90.8027 -0.481,-9.5345 -1.0597,-14.2906 -2.0469,-14.5196 z"
       id="path4449"
       inkscape:connector-curvature="0"
       sodipodi:nodetypes="ccccssccccssssssssssssssssssssscccccccsssccccsscccscsscsscccscscsccsssssssc" />
    <path
       style="fill:#a05a2c;stroke:#000000;stroke-width:4;stroke-miterlimit:4;stroke-dasharray:none"
       d="m 3087.3163,130.96131 476.9151,0.697 c 1.6648,-4.99 16.5638,-10.1627 18.1884,-13.4177 8.6642,-17.358 8.655,-27.440996 -0.049,-41.372996 -9.585,-15.347 -6.4414,-24.7696 18.8399,-56.4766 41.4893,-52.036 62.0011,-94.5329 87.8593,-182.021504 12.1049,-40.9557 26.6176,-80.123 32.25,-87.0371 6.034,-7.4063 7.7084,-34.1156 4.0762,-65.0195 -4.6453,-39.5244 -2.2806,-57.9944 9.5938,-74.9473 15.0658,-21.5095 13.9228,-24.674 -26.0274,-72.0527 -64.3728,-76.3422 -108.2324,-155.7429 -115.25,-208.6426 l -6.3086,-47.5683 -40.9668,28.123 c -22.5317,15.4679 -82.3071,48.862 -132.834,74.209 -78.8877,39.5743 -97.4084,45.1993 -131.0839,39.8144 -21.5689,-3.449 -55.6916,-3.1802 -75.8282,0.5977 l -36.6113,6.8691 5.543,101.0567 c 3.4475,62.8486 14.6051,131.8005 29.5097,182.3633 l 23.9668,81.3027 -56.7304,25.459 c -21.3126,9.5644 -61.0936,17.8674 -89.134,24.1347 z m 80.1621,-1047.3613 c -0.5677,2.6028 -1.1357,5.2072 -1.4648,7.2402 -5.0413,31.1364 -4.4915,31.6817 23.7637,23.5782 15.9083,-4.5625 42.9002,-15.522 59.9824,-24.3555 3.9561,-2.0458 7.7444,-4.2556 11.4629,-6.4629 z m 1403.0274,647.2065 c -22.1048,-10.4021 -39.7777,-8.483 -43.5899,-8.2554 -0.3217,0.019 -0.5467,0.088 -0.6699,0.211 -4.4358,4.4358 16.2482,52.772 44.2598,106.7675 z m 0.8713,335.659704 c -9.0239,2.6206 -18.5902,4.081 -25.8752,6.6845 -39.276,14.035 -43.0401,60.860796 -43.0401,60.860796 l 69.2638,-0.6088 z"
       id="path4454"
       inkscape:connector-curvature="0"
       sodipodi:nodetypes="cccccscsssccsssscsscsccccsscccccccccccc" />
    <path
       style="fill:#a05a2c;stroke:#000000;stroke-width:4;stroke-miterlimit:4;stroke-dasharray:none"
       d="m 4588.1412,-3008.8435 c -0.3851,15.3598 -5.6907,31.5865 -4.0398,49.2657 4.5904,49.1578 2.2158,67.4545 -11.4648,88.3339 -10.3951,15.8651 -15.5361,38.0508 -12.9297,55.8086 1.8395,12.5337 1.8403,38.9719 -3.8463,62.5028 l -2.9623,466.8859 c 8.8644,14.0877 23.2917,31.4445 37.0742,43.9863 18.6326,16.9554 33.9492,36.3046 34.0352,42.9981 0.089,6.6935 24.654,38.9776 54.5957,71.7422 29.9418,32.7647 54.4412,62.922 54.4512,67.0176 0,4.0956 10.8761,7.4472 24.1562,7.4472 15.4721,0 31.7318,10.6511 45.2617,29.6524 9.6692,13.5784 36.3121,39.0682 63.7071,61.7207 l 126.2929,0 c -28.245,-90.0697 -32.6408,-117.3629 -35.2187,-207.3321 -1.2237,-42.7075 -7.6941,-115.0482 -14.3789,-160.7558 -9.9948,-68.3414 -9.7928,-85.9798 1.1328,-99.2871 13.4527,-16.3853 57.1328,-103.0137 57.1328,-113.3086 0,-3.077 18.5827,-23.811 41.2949,-46.0743 28.4007,-27.8398 49.9556,-40.4785 69.0332,-40.4785 15.2564,0 39.1558,-5.2038 53.1114,-11.5625 19.6647,-8.9597 30.6835,-8.7196 48.9687,1.0664 14.852,7.9487 37.9391,10.2039 62.3125,6.086 31.7021,-5.3561 45.4015,-2.006 75.5957,18.4844 20.2827,13.7643 43.0092,22.674 50.502,19.7988 7.4931,-2.8753 16.293,1.7293 19.5566,10.2344 3.2637,8.505 12.9931,15.4648 21.6191,15.4648 8.6263,0 21.0529,12.7553 27.6153,28.3457 6.5623,15.5904 26.0729,40.2415 43.3574,54.7813 l 31.4258,26.4355 -4.1485,108.7891 c -3.8755,101.6079 -6.1194,111.5911 -33.9902,151.2382 -19.6179,27.9072 -36.9453,73.0604 -50.5801,131.8067 -8.4073,36.2235 -19.2342,77.6531 -27.5898,106.2676 l 247.8301,0 c 33.6833,-14.3798 73.4333,-37.5978 105.4765,-63.7344 25.3313,-20.6621 50.4517,-37.5684 55.8243,-37.5684 12.0687,0 91.7285,-85.3671 91.7285,-98.3008 0,-5.1627 13.4028,-22.7895 29.7851,-39.1718 16.3822,-16.3822 29.874,-37.9494 29.9805,-47.9258 0.1065,-9.9763 7.2536,-67.2869 15.8828,-127.3555 8.6293,-60.0685 15.1716,-115.9164 14.5391,-124.1074 -0.6326,-8.1912 -2.7038,-41.7002 -4.6035,-74.4648 -3.8359,-66.1497 -22.8437,-148.2905 -41.3555,-178.7168 -6.6447,-10.9217 -15.1437,-32.9879 -18.8867,-49.0372 -3.7431,-16.0492 -14.9159,-40.6223 -24.8282,-54.6074 -20.0556,-28.2959 -50.1582,-110.9727 -50.1582,-137.7597 0,-2.7503 -2.8022,-8.0695 -7.0722,-14.6114 z"
       id="path4512"
       inkscape:connector-curvature="0"
       sodipodi:nodetypes="csscccscscscccsssssscsssscssscsssccsssssscscssscc" />
    <path
       style="fill:#a05a2c;stroke:#000000;stroke-width:4;stroke-miterlimit:4;stroke-dasharray:none"
       d="m 6049.3409,1176.8412 -0.7438,-297.07399 -155.5492,-1.394 c -2.3601,-9.077 -33.0653,-129.249 -22.8379,-202.139 8.2641,-58.898 9.9961,-140.236 5.3926,-253.182 -5.5668,-136.582 -4.0565,-174.412 8.4316,-211.084 8.1521,-23.939 17.5677,-60.422 21.3614,-82.49 l -167.2222,0 c 2.7321,89.327 9.2568,165.577 14.062,178.215 7.0568,18.561 6.9431,48.672 -0.3652,97.142 -5.8252,38.633 -17.6114,469.815 -17.6114,469.815 0,0 -433.7226,0.048 -513.2519,3.723 -1.2479,-6.334 -23.5611,-118.939 -24.377,-75.434 -0.4494,23.956 -11.5199,65.348 -14.3125,75.434 l -531.6367,-0.29 c 0,0 -18.7099,-103.184 -30.4277,-358.89 -6.7642,-147.608 -6.5829,-225.713 0.5859,-251.678 5.7173,-20.706 11.6326,-69.6 13.1446,-108.652 0.3795,-9.802 -0.4026,-17.614 0.3286,-27.294 l -68.1607,-2.091 -0.2887,1042.31079 z"
       id="path4520"
       inkscape:connector-curvature="0"
       sodipodi:nodetypes="cccssscccsccsccscscccc" />
    <path
       style="fill:#a05a2c;stroke:#000000;stroke-width:4;stroke-miterlimit:4;stroke-dasharray:none"
       d="m 4564.4195,-269.39039 -0.4929,100.7524 c 5.9072,10.851 14.0575,30.6852 20.2062,41.2142 21.9901,37.652004 42.6927,82.012004 46.0059,98.578004 9.9849,49.925 19.4045,26.3480005 22.0039,-55.08 1.3492,-42.262004 4.7213,-80.510004 7.4942,-84.996004 -5.3658,-53.1549 -58.1432,-79.7966 -95.2173,-100.4686 z m 2.0909,337.395104 0.4929,62.253196 63.9063,0 c 2.1801,-28.043 5.5234,-53.201996 8.6484,-62.452996 4.8971,-14.496 6.0327,-19.776 -4.2168,-19.986 -5.3687,-0.111 -13.8604,1.169 -26.5723,3.246 -11.1476,1.821 -26.8866,12.7888 -42.2585,16.9398 z m 1483.6824,-985.107804 -179.8067,0 c 6.5097,22.856 15.3074,47.873 27.459,79.619 37.0156,96.703 40.1096,112.517 42.7402,218.43 1.5596,62.799 10.2226,158.859 19.25,213.467 29.4341,178.049 29.4899,179.387 8.1641,200.713 -10.6441,10.644 -68.6607,36.231 -128.9238,56.859 l -109.5684,37.504 3.7715,197.146004 c 0.2875,15.031996 0.8229,29.092996 1.2598,43.622996 l 170.8508,-0.3485 c 10.4355,-63.369996 48.8204,-224.390496 76.2058,-298.2725 21.2619,-57.361 45.9391,-68.0457 67.3643,-70.6227 z"
       id="path4518"
       inkscape:connector-curvature="0"
       sodipodi:nodetypes="cccsscccccccccccssssscsccscc" />
    <path
       style="fill:#a05a2c;stroke:#000000;stroke-width:4;stroke-miterlimit:4;stroke-dasharray:none"
       d="m 4866.6191,-1962.0012 c 4.849,4.019 10.0576,4.872 14.8427,8.554 32.486,24.998 65.8483,58.565 74.1386,74.596 15.6352,30.236 50.7856,39.875 59.795,16.397 2.6916,-7.015 -6.377,-48.266 -20.1524,-91.668 -1.2866,-4.054 -1.6197,-3.594 -2.7639,-7.268 z m 561.9954,-1.6703 c -2.754,9.372 -6.3933,16.1803 -8.3754,21.8533 -17.9038,51.247 -17.4576,57.2 4.3535,57.977 9.4505,0.336 25.268,4.268 35.1504,8.736 13.0714,5.91 25.3956,1.008 45.2227,-17.988 14.9899,-14.361 31.9031,-26.111 37.584,-26.111 5.6807,0 18.4721,-8.998 28.4257,-19.997 11.8625,-13.107 24.8162,-17.865 37.5977,-13.808 10.9415,3.473 32.4389,-1.882 57.5762,-12.215 z m 620.3502,281.5333 c -4.3241,5.791 -7.3729,9.819 -12.0644,16.115 -116.5973,156.471 -138.944,188.818 -124.1075,179.649 6.7789,-4.19 49.5005,-7.512 94.9375,-7.385 17.0934,0.05 30.1385,-0.02 41.2344,-0.358 z m -204.1269,554.705 5.9375,93.104 c 2.93,45.94601 17.4765,114.32601 17.4765,114.32601 l 180.7129,0 0,-193.16801 c -10.492,-0.705 -25.5213,-1.006 -42.8222,-0.629 -31.3995,0.685 -80.5385,-2.102 -109.1973,-6.193 z"
       id="path4608"
       inkscape:connector-curvature="0"
       sodipodi:nodetypes="ccccccccccccscscccscccccscccccc" />
    <path
       id="path4220"
       style="fill:#a05a2c;stroke:#000000;stroke-width:4;stroke-miterlimit:4;stroke-dasharray:none"
       d="m 6042.4783,878.03521 c 62.6796,0 294.8261,0.4184 294.8261,0.4184 0,0 16.2481,-35.591 45.4509,-85.806 12.7125,-21.859 10.5886,70.561 10.1055,87.359 l 467.8691,0 c 0.9804,-2.318 0.7327,-1.676 1.9805,-4.879 7.6821,-25.957 146.7383,-498.215 146.7383,-673.756 0,-23.709 -0.6203,-47.393 -1.5508,-70.859 l 126.7104,-2e-4 c -5.8109,25.389 -11.2247,59.763 -14.1446,92.378 -18.7666,209.63 -38.0643,346.374 -57.5371,407.715 -19.7046,62.071 -19.8041,65.106 -2.5781,79.43 25.7526,21.414 -4.2136,169.274 -4.2136,169.274 l 462.017,0 0,296.07129 -1476.2541,0 z"
       inkscape:connector-curvature="0"
       sodipodi:nodetypes="ccscccsccsssccccc" />
    <path
       style="fill:#a05a2c;stroke:#000000"
       d="m 7161.2214,-920.09859 c -11.1787,52.609 -26.4192,168.444 -26.4291,224.163 -0.013,68.118 5.6095,96.167 35.8164,178.716 19.7065,53.854 38.0491,107.718 40.7636,119.698 3.2945,14.539 13.6628,22.792 31.1875,24.822 25.5707,2.961 26.4471,1.243 33.6387,-66.055 6.1122,-57.196 3.9673,-78.221 -12.4512,-122.103 -10.9083,-29.156 -31.2617,-109.761 -45.2324,-179.123 -18.428,-91.493 -30.9768,-149.326 -39.2207,-180.118 z m -32.7241,1046.565 c 3.3652,-14.407 6.8443,-25.936 10.0372,-32.109996 9.9316,-19.206 16.1015,-55.501 16.1015,-94.71999953 l 0,-63.58200047 -80.5762,-93.287004 c -95.2839,-110.315 -77.7554,-94.14 -110.5507,-102.008 -7.5087,-1.802 -12.9545,-3.029 -16.9024,-2.897 -10.0892,0.34 -10.4023,9.567 -10.4023,40.828 0,31.095 5.7435,49.832 19.084,62.26 22.6726,21.123 43.1745,147.183004 48.7812,285.516 z m -1084.9055,-372.607 c 13.7934,-6.217 28.4184,-14.889 42.3235,-32.124 l 30.3945,-37.673 -27.3867,-21.899 c -27.0794,-21.655 -27.2175,-22.363 -12.6347,-63.598 8.1109,-22.934 20.0852,-78.227 26.6132,-122.873 10.0514,-68.741 9.3574,-95.809 -4.541,-176.732 -24.7705,-144.226 -40.2639,-204.975 -51.7383,-202.885 -2.0909,0.381 -1.7589,22.744 -3.0305,17.076 z"
       id="path4266"
       inkscape:connector-curvature="0"
       sodipodi:nodetypes="ccsccscsccccscsccsccccsccsssccc" />
    <path
       style="fill:#a05a2c;stroke:#000000;stroke-width:4;stroke-miterlimit:4;stroke-dasharray:none"
       d="m 6049.9852,-1495.9767 c 40.9585,-1.232 48.3607,-6.888 70.9336,-31.053 52.2223,-55.903 92.1679,-152.778 57.5136,-139.48 -11.7267,4.5 -14.8925,-2.829 -14.8925,-34.475 0,-22.105 -4.542,-42.998 -10.0918,-46.428 -5.5498,-3.43 -7.5504,-10.344 -4.4473,-15.365 3.1031,-5.021 -1.8118,-6.269 -10.9219,-2.773 -14.5562,5.586 -15.0741,3.466 -4.2656,-17.489 5.2253,-10.13 7.6133,-15.768 6.1836,-15.738 -3.4083,0.07 -29.9645,34.364 -90.0117,114.777 z m 830.2539,-471.107 c 16.1444,44.912 26.4024,83.551 25.8672,102.373 -0.4517,15.885 4.36,38.564 10.6933,50.398 6.3332,11.834 10.9255,25.048 10.2051,29.365 -5.7403,34.397 5.9932,40.253 32.5293,16.239 9.9864,-9.038 18.1562,-22.098 18.1562,-29.024 0,-6.926 11.4454,-26.194 25.4336,-42.818 13.9883,-16.624 36.9632,-58.295 51.0547,-92.602 5.1931,-12.642 9.3172,-23.586 12.6153,-33.931 z"
       id="path4303"
       inkscape:connector-curvature="0"
       sodipodi:nodetypes="ccssssscccccssscssccc" />
    <path
       style="fill:#a05a2c;stroke:#000000;stroke-width:4;stroke-miterlimit:4;stroke-dasharray:none"
       d="m 9035.7965,873.63001 -729.4323,-1.1448 c 0,0 -42.0784,-208.258 -108.9472,-185.9 l -51.1817,17.111 -49.5469,178.988 -405.0078,1.988 c 0,0 24.0007,-87.912 -89.8906,-84.521 l -98.4553,2.309 0.1316,8.5 1.394,369.43099 1532.4751,-1.9717 z"
       id="path4429"
       inkscape:connector-curvature="0"
       sodipodi:nodetypes="ccccccsccccc" />
    <path
       style="fill:#a05a2c;stroke:#000000;stroke-width:4;stroke-miterlimit:4;stroke-dasharray:none"
       d="m 9750.7872,129.70581 c 0,0 60.318,163.15 69.8596,188.985 9.8177,26.582 16.0898,68.15 16.0898,68.15 -1.4142,15.818 -16.0428,13.352 28.3125,160.805 45.1206,149.998 84.1033,322.6033 84.1033,322.6033 l -429.625,6.029 c 0,0 -88.1508,-158.4383 -122.6384,-253.7493 -46.0952,-127.39 -82.9786,254.524 -82.9786,254.524 l -308.1445,-3.432 0,302.66899 1483.1891,0 0,-1047.36299 z"
       id="path4453"
       inkscape:connector-curvature="0"
       sodipodi:nodetypes="cscsccscccccc" />
    <path
       style="fill:#a05a2c;stroke:#000000;stroke-width:4;stroke-miterlimit:4;stroke-dasharray:none"
       d="m 9964.9447,-916.48559 c 2.4458,8.501 4.1873,16.58 4.1973,22.53 0.05,37.361 9.1664,33.997 49.682,-18.332 0.956,-1.236 2.41,-2.888 3.453,-4.198 z m 282.0643,0 c -29.912,36.312 -70.831,88.678 -112.941,145.133 -72.92,97.757 -168.38,213.482 -212.137,257.168 -88.3541,88.211 -144.6105,184.232 -156.0273,266.315 -3.6632,26.335 -17.5059,76.698 -30.7637,111.923 -13.2579,35.223 -24.0286,82.928004 -23.9336,106.012004 0.1714,41.776 17.0766,101.755 37.8633,160.810996 l 741.5503,0 0,-1047.362 z"
       id="path4457"
       inkscape:connector-curvature="0"
       sodipodi:nodetypes="cccccccsccccccc" />
    <path
       style="fill:#a05a2c;stroke:#000000;stroke-width:4;stroke-miterlimit:4;stroke-dasharray:none"
       d="m 9011.8897,-3011.071 0,1047.3614 369.9355,0 c 7.8615,-6.2537 16.998,-14.6125 28.5391,-25.9903 25.3986,-25.0389 54.6952,-45.5254 65.1035,-45.5254 10.4081,0 23.4547,-8.4672 28.9922,-18.8144 11.3452,-21.1984 59.4178,-40.7578 100.1699,-40.7578 19.596,0 28.7302,-6.0598 32.8418,-21.7832 5.5445,-21.2019 6.2318,-21.2982 25.7559,-3.6289 21.5511,19.5032 111.5369,28.3276 107.2773,10.5195 -1.306,-5.4608 -14.2553,-8.5815 -28.7754,-6.9336 -33.5565,3.8086 -47.1286,-16.546 -22.8633,-34.2891 10.045,-7.3451 17.7418,-11.5819 25.9825,-11.9863 13.7344,-0.674 28.9787,9.2962 59.1171,33.2539 23.9767,19.0597 47.774,34.697 52.8829,34.75 5.1087,0.049 19.6293,-9.6169 32.2675,-21.4902 12.639,-11.8735 22.9786,-17.0597 22.9786,-11.5235 0,5.5361 10.7535,14.9657 23.8945,20.9532 14.478,6.5967 26.5252,22.8742 30.5742,41.3086 3.675,16.7321 11.3165,30.4218 16.9805,30.4218 5.663,0 7.8836,9.2296 4.9336,20.5098 -2.2441,8.5802 2.0476,29.1727 9.9902,51.0059 l 496.6102,0 0,-1047.3614 z m 729.2793,867.8242 c -3.1124,0.045 -6.5148,0.6824 -9.6504,1.9375 -7.9204,3.1693 -5.5684,5.5236 5.998,6 10.4664,0.4309 16.3304,-1.9156 13.0313,-5.2148 -1.8559,-1.8558 -5.3772,-2.7787 -9.3789,-2.7207 z"
       id="path4346"
       inkscape:connector-curvature="0"
       sodipodi:nodetypes="cccsscscccssssccssssccccccccccc" />
    <path
       style="fill:#a05a2c;stroke:#000000;stroke-width:4;stroke-miterlimit:4;stroke-dasharray:none"
       d="m 6200.1202,-3006.342 c 9.0845,24.8953 17.3057,55.2595 24.6942,70.2423 10.7833,21.8673 26.394,64.3143 34.6894,94.3242 8.2954,30.0102 27.0504,83.1796 41.6777,118.1563 14.6273,34.9768 36.0098,103.2311 47.5176,151.6758 14.7708,62.1803 24.6978,86.633 33.7578,83.1562 18.6942,-7.1736 130.4324,-98.5268 131.2422,-107.2988 0.3783,-4.0956 -7.4106,-7.4453 -17.3105,-7.4453 -26.7536,0 -74.5242,-53.825 -67.4649,-76.0156 4.8206,-15.1523 16.5362,-18.3831 67.9844,-18.75 62.3243,-0.4448 210.7553,-38.6215 202.4668,-52.0743 -2.3912,-3.8808 17.0468,-6.8367 43.1953,-6.5703 35.2755,0.3594 69.1667,11.2478 131.3496,42.1973 58.4985,29.1158 96.4268,41.7109 125.5957,41.7109 40.5561,0 45.9427,4.1739 182.6074,141.4844 165.9345,166.7185 181.7395,179.1439 207.4493,163.0879 10.1177,-6.3186 18.3965,-20.2433 18.3965,-30.9434 0,-15.1315 2.6473,-16.8058 11.914,-7.539 16.5855,16.5856 28.3172,14.8839 21.4141,-3.1055 -14.8146,-38.606 50.4156,-58.4898 85.1484,-29.8203 l 0,-561.5938 z m 1327.8348,567.7619 c -0.4957,-0.4412 -1.0007,-0.8689 -1.5098,-1.2891 m -455.8359,483.7168 c 9.8239,-31.4885 11.7168,-57.6242 10.3769,-108.0059 -1.1871,-44.6422 2.4251,-89.7337 8.0293,-100.205 12.5409,-23.4329 -14.6102,-88.1162 -40.7011,-96.9629 -9.4128,-3.1917 -22.8585,-17.8269 -29.879,-32.5215 -7.7592,-16.2406 -22.4605,-28.0584 -37.4921,-30.1367 -14.4693,-2.0007 -48.5964,-28.3567 -82.2579,-63.5274 -61.5744,-64.335 -80.5736,-92.1939 -72.1582,-105.8105 11.2557,-18.2122 -45.0052,-58.1218 -96.2382,-68.2676 -14.1895,-2.8099 -26.8215,-4.4371 -38.6524,-4.6016 -1.3204,-0.018 -2.6301,-0.018 -3.9316,0 -40.3471,0.5724 -72.127,19.0215 -126.7324,66.8926 -63.2332,55.4351 -123.2237,85.8783 -153.5821,77.9395 -20.8763,-5.4592 -21.7725,-3.9517 -12.3633,20.7968 5.5797,14.6756 10.1446,39.7954 10.1446,55.8223 0,26.0152 3.4612,29.2667 32.2695,30.3164 17.7475,0.6463 36.7344,0.1151 42.1953,-1.1797 5.4607,-1.2952 28.8229,-4.6289 51.916,-7.4082 91.008,-10.9524 218.7377,90.2013 292.3535,231.5254 22.3118,42.8331 43.3758,91.9042 59.0684,135.334 z m 397.5176,-458.7344 c -5.783,0 -10.5157,4.4669 -10.5157,9.9278 0,5.4607 1.9709,9.9296 4.3789,9.9296 2.4081,0 7.1408,-4.4689 10.5157,-9.9296 3.375,-5.4609 1.4043,-9.9278 -4.3789,-9.9278 z"
       id="path4344"
       inkscape:connector-curvature="0"
       sodipodi:nodetypes="cssssccscscssssssssccccccssssssssccssssccssccsssss" />
    <path
       style="fill:#a05a2c;stroke:#000000;stroke-width:4;stroke-miterlimit:4;stroke-dasharray:none"
       d="m 6046.7072,-3326.4026 c 6.7282,16.7342 13.841,35.2027 22.0664,57.9297 26.2701,72.5844 49.2994,118.5562 70.1875,140.1074 17.8589,18.4259 38.9828,56.9565 49.6387,90.543 2.8828,9.0862 6.3723,19.1393 10.0664,29.373 l 1330.5195,2.7891 0,-1047.3633 -1478.1018,3.0852 z"
       id="path4505"
       inkscape:connector-curvature="0"
       sodipodi:nodetypes="csssccccc" />
    <path
       style="fill:#a05a2c;stroke:#000000;stroke-width:4;stroke-miterlimit:4;stroke-dasharray:none"
       d="m 4565.5909,-4057.303 0,528.2539 c 14.8723,-3.2571 30.7804,-5.0677 55.795,-6.9746 7.7073,-0.5875 14.9518,-0.9057 21.748,-0.9297 80.1954,-0.2771 98.0601,40.4874 79.5527,164.1054 -15.5054,103.5672 -26.0802,131.7155 -78.457,208.8438 -36.9583,54.4237 -53.4163,98.2797 -55.3984,154.0625 l 1286.207,0 c -11.1199,-16.0791 -31.1951,-39.4221 -54.3086,-62.3301 -48.5254,-48.0942 -66.511,-73.9151 -75.8809,-108.9297 -6.7543,-25.241 -21.3436,-67.6118 -32.4199,-94.1582 -14.4205,-34.5614 -17.3451,-52.8871 -10.3008,-64.5371 5.4106,-8.9486 6.6199,-27.4399 2.6875,-41.0918 -19.8227,-68.8172 -0.6789,-131.6732 24.5567,-130.7129 9.8748,0.3757 20.6826,10.5234 30.4531,33.9082 12.1269,29.0246 17.3157,32.0972 51.6191,30.5567 20.9752,-0.9422 47.7767,-4.7069 59.5586,-8.3653 14.4998,-4.5024 27.5067,-0.5658 40.2559,12.1836 10.3594,10.3594 31.4253,18.5911 46.8125,18.293 30.9945,-0.6009 49.5369,18.8486 79.9727,93.6934 l 0,0.6506 10.7363,0 0,-726.5217 z"
       id="path4444"
       inkscape:connector-curvature="0"
       sodipodi:nodetypes="ccscssccssscssscsscccccc" />
    <path
       style="fill:#a05a2c;stroke:#000000;stroke-width:4;stroke-miterlimit:4;stroke-dasharray:none"
       d="m 3083.4055,-4060.9085 0,1047.3613 1239.1758,0.4929 c 12.8938,-47.445 25.7432,-75.6491 37.9316,-75.6491 20.0795,0 42.9502,-53.8502 49.7891,-117.2285 10.6998,-99.1611 40.0102,-272.8632 48.9082,-289.8477 4.2912,-8.1911 18.4389,-15.1997 31.4394,-15.5742 13.0006,-0.3745 31.4573,-3.7261 41.0137,-7.4473 13.9655,-5.4379 24.7773,-9.353 34.9316,-12.3262 l 0,-529.7812 z"
       id="path4190-4"
       inkscape:connector-curvature="0"
       sodipodi:nodetypes="cccsssscccc" />
    <rect
       style="opacity:1;fill:#a05a2c;fill-opacity:1;stroke:#000000;stroke-width:5;stroke-linecap:square;stroke-linejoin:miter;stroke-miterlimit:4;stroke-dasharray:none;stroke-dashoffset:0;stroke-opacity:1"
       id="rect4137-3-7-5-1-20"
       width="1047.3622"
       height="1483.189"
       x="3013.5464"
       y="1600.4497"
       transform="matrix(0,-1,1,0,0,0)" />
    <rect
       style="opacity:1;fill:#a05a2c;fill-opacity:1;stroke:none;stroke-width:5;stroke-linecap:square;stroke-linejoin:miter;stroke-miterlimit:4;stroke-dasharray:none;stroke-dashoffset:0;stroke-opacity:1"
       id="rect4137-3-7-5-6-6-6"
       width="1047.3622"
       height="1483.189"
       x="3013.5464"
       y="7531.3433"
       transform="matrix(0,-1,1,0,0,0)" />
    <path
       inkscape:connector-curvature="0"
       style="fill:#a05a2c;stroke:#000000;stroke-width:4;stroke-miterlimit:4;stroke-dasharray:none"
       d="m 2094.4557,-1285.0383 c 7.9088,0 17.1829,11.1703 20.6094,24.8222 5.397,21.504 11.8454,24.8691 48.2383,25.1738 41.4237,0.3469 41.6622,0.549 17.1855,14.5411 -35.5128,20.301 -69.502,18.9528 -69.502,-2.7559 0,-9.7066 -6.9543,-27.5783 -15.455,-39.7148 -13.1465,-18.7691 -13.3072,-22.0664 -1.0762,-22.0664 z"
       id="path4549-6" />
    <rect
       style="opacity:1;fill:#a05a2c;fill-opacity:1;stroke:none;stroke-width:5;stroke-linecap:square;stroke-linejoin:miter;stroke-miterlimit:4;stroke-dasharray:none;stroke-dashoffset:0;stroke-opacity:1"
       id="rect4137-3-7-5-6-6-6-2"
       width="1047.3622"
       height="1483.189"
       x="3013.5464"
       y="9003.416"
       transform="matrix(0,-1,1,0,0,0)" />
    <text
       xml:space="preserve"
       style="font-style:normal;font-weight:normal;font-size:252.56735229px;line-height:125%;font-family:sans-serif;letter-spacing:0px;word-spacing:0px;fill:#000000;fill-opacity:1;stroke:none;stroke-width:1px;stroke-linecap:butt;stroke-linejoin:miter;stroke-opacity:1"
       x="154.35146"
       y="-3805.7581"
       id="text4524"
       sodipodi:linespacing="125%"><tspan
         sodipodi:role="line"
         id="tspan4526"
         x="154.35146"
         y="-3805.7581">1</tspan></text>
    <text
       xml:space="preserve"
       style="font-style:normal;font-weight:normal;font-size:252.56735229px;line-height:125%;font-family:sans-serif;letter-spacing:0px;word-spacing:0px;fill:#000000;fill-opacity:1;stroke:none;stroke-width:1px;stroke-linecap:butt;stroke-linejoin:miter;stroke-opacity:1"
       x="189.8371"
       y="-2753.0176"
       id="text4524-9"
       sodipodi:linespacing="125%"><tspan
         sodipodi:role="line"
         id="tspan4526-3"
         x="189.8371"
         y="-2753.0176">2</tspan></text>
    <text
       xml:space="preserve"
       style="font-style:normal;font-weight:normal;font-size:252.56735229px;line-height:125%;font-family:sans-serif;letter-spacing:0px;word-spacing:0px;fill:#000000;fill-opacity:1;stroke:none;stroke-width:1px;stroke-linecap:butt;stroke-linejoin:miter;stroke-opacity:1"
       x="974.46405"
       y="-2717.5317"
       id="text4524-9-6"
       sodipodi:linespacing="125%"><tspan
         sodipodi:role="line"
         id="tspan4526-3-0"
         x="974.46405"
         y="-2717.5317">3</tspan></text>
    <text
       xml:space="preserve"
       style="font-style:normal;font-weight:normal;font-size:252.56735229px;line-height:125%;font-family:sans-serif;letter-spacing:0px;word-spacing:0px;fill:#000000;fill-opacity:1;stroke:none;stroke-width:1px;stroke-linecap:butt;stroke-linejoin:miter;stroke-opacity:1"
       x="209.55132"
       y="-1487.3628"
       id="text4524-9-6-6"
       sodipodi:linespacing="125%"><tspan
         sodipodi:role="line"
         id="tspan4526-3-0-2"
         x="209.55132"
         y="-1487.3628">4</tspan></text>
    <text
       xml:space="preserve"
       style="font-style:normal;font-weight:normal;font-size:160.61651611px;line-height:125%;font-family:sans-serif;letter-spacing:0px;word-spacing:0px;fill:#000000;fill-opacity:1;stroke:none;stroke-width:1px;stroke-linecap:butt;stroke-linejoin:miter;stroke-opacity:1"
       x="1048.5863"
       y="-1802.7949"
       id="text4524-9-6-6-6"
       sodipodi:linespacing="125%"><tspan
         sodipodi:role="line"
         id="tspan4526-3-0-2-1"
         x="1048.5863"
         y="-1802.7949">5</tspan></text>
    <text
       xml:space="preserve"
       style="font-style:normal;font-weight:normal;font-size:252.56735229px;line-height:125%;font-family:sans-serif;letter-spacing:0px;word-spacing:0px;fill:#000000;fill-opacity:1;stroke:none;stroke-width:1px;stroke-linecap:butt;stroke-linejoin:miter;stroke-opacity:1"
       x="209.55132"
       y="-383.30911"
       id="text4524-9-6-6-8"
       sodipodi:linespacing="125%"><tspan
         sodipodi:role="line"
         id="tspan4526-3-0-2-7"
         x="209.55132"
         y="-383.30911">6</tspan></text>
    <text
       xml:space="preserve"
       style="font-style:normal;font-weight:normal;font-size:252.56735229px;line-height:125%;font-family:sans-serif;letter-spacing:0px;word-spacing:0px;fill:#000000;fill-opacity:1;stroke:none;stroke-width:1px;stroke-linecap:butt;stroke-linejoin:miter;stroke-opacity:1"
       x="241.0941"
       y="489.74997"
       id="text4524-9-6-6-8-9"
       sodipodi:linespacing="125%"><tspan
         sodipodi:role="line"
         id="tspan4526-3-0-2-7-2"
         x="241.0941"
         y="489.74997">7</tspan></text>
    <text
       xml:space="preserve"
       style="font-style:normal;font-weight:normal;font-size:252.56735229px;line-height:125%;font-family:sans-serif;letter-spacing:0px;word-spacing:0px;fill:#000000;fill-opacity:1;stroke:none;stroke-width:1px;stroke-linecap:butt;stroke-linejoin:miter;stroke-opacity:1"
       x="2212.5188"
       y="-3405.7847"
       id="text4524-9-6-6-8-9-0"
       sodipodi:linespacing="125%"><tspan
         sodipodi:role="line"
         id="tspan4526-3-0-2-7-2-2"
         x="2212.5188"
         y="-3405.7847">8</tspan></text>
    <text
       xml:space="preserve"
       style="font-style:normal;font-weight:normal;font-size:252.56735229px;line-height:125%;font-family:sans-serif;letter-spacing:0px;word-spacing:0px;fill:#000000;fill-opacity:1;stroke:none;stroke-width:1px;stroke-linecap:butt;stroke-linejoin:miter;stroke-opacity:1"
       x="2212.5188"
       y="-2703.2051"
       id="text4524-9-6-6-8-9-0-3"
       sodipodi:linespacing="125%"><tspan
         sodipodi:role="line"
         id="tspan4526-3-0-2-7-2-2-7"
         x="2212.5188"
         y="-2703.2051">9</tspan></text>
    <text
       xml:space="preserve"
       style="font-style:normal;font-weight:normal;font-size:69.52656555px;line-height:125%;font-family:sans-serif;letter-spacing:0px;word-spacing:0px;fill:#000000;fill-opacity:1;stroke:none;stroke-width:1px;stroke-linecap:butt;stroke-linejoin:miter;stroke-opacity:1"
       x="1649.9331"
       y="-1735.0015"
       id="text4524-9-6-6-8-9-0-3-5"
       sodipodi:linespacing="125%"><tspan
         sodipodi:role="line"
         id="tspan4526-3-0-2-7-2-2-7-9"
         x="1649.9331"
         y="-1735.0015">10</tspan></text>
    <text
       xml:space="preserve"
       style="font-style:normal;font-weight:normal;font-size:150.53385925px;line-height:125%;font-family:sans-serif;letter-spacing:0px;word-spacing:0px;fill:#000000;fill-opacity:1;stroke:none;stroke-width:1px;stroke-linecap:butt;stroke-linejoin:miter;stroke-opacity:1"
       x="2091.8171"
       y="-1747"
       id="text4524-9-6-6-8-9-0-3-5-2"
       sodipodi:linespacing="125%"><tspan
         sodipodi:role="line"
         id="tspan4526-3-0-2-7-2-2-7-9-2"
         x="2091.8171"
         y="-1747">11</tspan></text>
    <text
       xml:space="preserve"
       style="font-style:normal;font-weight:normal;font-size:125.87382507px;line-height:125%;font-family:sans-serif;letter-spacing:0px;word-spacing:0px;fill:#000000;fill-opacity:1;stroke:none;stroke-width:1px;stroke-linecap:butt;stroke-linejoin:miter;stroke-opacity:1"
       x="2092.5549"
       y="-1091.9785"
       id="text4524-9-6-6-8-9-0-3-5-2-8"
       sodipodi:linespacing="125%"><tspan
         sodipodi:role="line"
         id="tspan4526-3-0-2-7-2-2-7-9-2-9"
         x="2092.5549"
         y="-1091.9785">12</tspan></text>
    <text
       xml:space="preserve"
       style="font-style:normal;font-weight:normal;font-size:121.01309204px;line-height:125%;font-family:sans-serif;letter-spacing:0px;word-spacing:0px;fill:#000000;fill-opacity:1;stroke:none;stroke-width:1px;stroke-linecap:butt;stroke-linejoin:miter;stroke-opacity:1"
       x="2077.3176"
       y="-54.67387"
       id="text4524-9-6-6-8-9-0-3-5-2-8-7"
       sodipodi:linespacing="125%"><tspan
         sodipodi:role="line"
         id="tspan4526-3-0-2-7-2-2-7-9-2-9-3"
         x="2077.3176"
         y="-54.67387">13</tspan></text>
    <text
       xml:space="preserve"
       style="font-style:normal;font-weight:normal;font-size:252.56735229px;line-height:125%;font-family:sans-serif;letter-spacing:0px;word-spacing:0px;fill:#000000;fill-opacity:1;stroke:none;stroke-width:1px;stroke-linecap:butt;stroke-linejoin:miter;stroke-opacity:1"
       x="1947.3596"
       y="1091.9614"
       id="text4524-9-6-6-8-9-2"
       sodipodi:linespacing="125%"><tspan
         sodipodi:role="line"
         id="tspan4526-3-0-2-7-2-9"
         x="1947.3596"
         y="1091.9614">15</tspan></text>
    <text
       xml:space="preserve"
       style="font-style:normal;font-weight:normal;font-size:252.56735229px;line-height:125%;font-family:sans-serif;letter-spacing:0px;word-spacing:0px;fill:#000000;fill-opacity:1;stroke:none;stroke-width:1px;stroke-linecap:butt;stroke-linejoin:miter;stroke-opacity:1"
       x="3299.8447"
       y="-3405.7847"
       id="text4524-9-6-6-8-9-0-31"
       sodipodi:linespacing="125%"><tspan
         sodipodi:role="line"
         id="tspan4526-3-0-2-7-2-2-9"
         x="3299.8447"
         y="-3405.7847">17</tspan></text>
    <text
       xml:space="preserve"
       style="font-style:normal;font-weight:normal;font-size:252.56735229px;line-height:125%;font-family:sans-serif;letter-spacing:0px;word-spacing:0px;fill:#000000;fill-opacity:1;stroke:none;stroke-width:1px;stroke-linecap:butt;stroke-linejoin:miter;stroke-opacity:1"
       x="3556.342"
       y="-2653.0205"
       id="text4524-9-6-6-8-9-0-31-4"
       sodipodi:linespacing="125%"><tspan
         sodipodi:role="line"
         id="tspan4526-3-0-2-7-2-2-9-7"
         x="3556.342"
         y="-2653.0205">18</tspan></text>
    <text
       xml:space="preserve"
       style="font-style:normal;font-weight:normal;font-size:117.35377502px;line-height:125%;font-family:sans-serif;letter-spacing:0px;word-spacing:0px;fill:#000000;fill-opacity:1;stroke:none;stroke-width:1px;stroke-linecap:butt;stroke-linejoin:miter;stroke-opacity:1"
       x="3934.6155"
       y="-1825.082"
       id="text4524-9-6-6-8-9-0-31-4-8"
       sodipodi:linespacing="125%"><tspan
         sodipodi:role="line"
         id="tspan4526-3-0-2-7-2-2-9-7-4"
         x="3934.6155"
         y="-1825.082">19</tspan></text>
    <text
       xml:space="preserve"
       style="font-style:normal;font-weight:normal;font-size:117.35377502px;line-height:125%;font-family:sans-serif;letter-spacing:0px;word-spacing:0px;fill:#000000;fill-opacity:1;stroke:none;stroke-width:1px;stroke-linecap:butt;stroke-linejoin:miter;stroke-opacity:1"
       x="3245.6755"
       y="-1015.9776"
       id="text4524-9-6-6-8-9-0-31-4-8-5"
       sodipodi:linespacing="125%"><tspan
         sodipodi:role="line"
         id="tspan4526-3-0-2-7-2-2-9-7-4-0"
         x="3245.6755"
         y="-1015.9776">23</tspan></text>
    <text
       xml:space="preserve"
       style="font-style:normal;font-weight:normal;font-size:99.42613983px;line-height:125%;font-family:sans-serif;letter-spacing:0px;word-spacing:0px;fill:#000000;fill-opacity:1;stroke:none;stroke-width:1px;stroke-linecap:butt;stroke-linejoin:miter;stroke-opacity:1"
       x="3611.6816"
       y="-1253.3291"
       id="text4524-9-6-6-8-9-0-31-4-8-5-3"
       sodipodi:linespacing="125%"><tspan
         sodipodi:role="line"
         id="tspan4526-3-0-2-7-2-2-9-7-4-0-6"
         x="3611.6816"
         y="-1253.3291">22</tspan></text>
    <text
       xml:space="preserve"
       style="font-style:normal;font-weight:normal;font-size:84.07073975px;line-height:125%;font-family:sans-serif;letter-spacing:0px;word-spacing:0px;fill:#000000;fill-opacity:1;stroke:none;stroke-width:1px;stroke-linecap:butt;stroke-linejoin:miter;stroke-opacity:1"
       x="3355.5044"
       y="-1318.9771"
       id="text4524-9-6-6-8-9-0-31-4-8-5-3-1"
       sodipodi:linespacing="125%"><tspan
         sodipodi:role="line"
         id="tspan4526-3-0-2-7-2-2-9-7-4-0-6-0"
         x="3355.5044"
         y="-1318.9771">20</tspan></text>
    <text
       xml:space="preserve"
       style="font-style:normal;font-weight:normal;font-size:95.52426147px;line-height:125%;font-family:sans-serif;letter-spacing:0px;word-spacing:0px;fill:#000000;fill-opacity:1;stroke:none;stroke-width:1px;stroke-linecap:butt;stroke-linejoin:miter;stroke-opacity:1"
       x="3498.5798"
       y="-1331.3237"
       id="text4524-9-6-6-8-9-0-31-4-8-5-3-1-6"
       sodipodi:linespacing="125%"><tspan
         sodipodi:role="line"
         id="tspan4526-3-0-2-7-2-2-9-7-4-0-6-0-3"
         x="3498.5798"
         y="-1331.3237">21</tspan></text>
    <text
       xml:space="preserve"
       style="font-style:normal;font-weight:normal;font-size:102.73777008px;line-height:125%;font-family:sans-serif;letter-spacing:0px;word-spacing:0px;fill:#000000;fill-opacity:1;stroke:none;stroke-width:1px;stroke-linecap:butt;stroke-linejoin:miter;stroke-opacity:1"
       x="3189.9758"
       y="-798.06647"
       id="text4524-9-6-6-8-9-0-31-4-8-5-3-1-6-2"
       sodipodi:linespacing="125%"><tspan
         sodipodi:role="line"
         id="tspan4526-3-0-2-7-2-2-9-7-4-0-6-0-3-0"
         x="3189.9758"
         y="-798.06647">24</tspan></text>
    <text
       xml:space="preserve"
       style="font-style:normal;font-weight:normal;font-size:149.80503845px;line-height:125%;font-family:sans-serif;letter-spacing:0px;word-spacing:0px;fill:#000000;fill-opacity:1;stroke:none;stroke-width:1px;stroke-linecap:butt;stroke-linejoin:miter;stroke-opacity:1"
       x="2770.8762"
       y="-31.75053"
       id="text4524-9-6-6-8-9-2-6"
       sodipodi:linespacing="125%"><tspan
         sodipodi:role="line"
         id="tspan4526-3-0-2-7-2-9-1"
         x="2770.8762"
         y="-31.75053">14</tspan></text>
    <text
       xml:space="preserve"
       style="font-style:normal;font-weight:normal;font-size:84.66319275px;line-height:125%;font-family:sans-serif;letter-spacing:0px;word-spacing:0px;fill:#000000;fill-opacity:1;stroke:none;stroke-width:1px;stroke-linecap:butt;stroke-linejoin:miter;stroke-opacity:1"
       x="2894.2153"
       y="419.63962"
       id="text4524-9-6-6-8-9-2-5"
       sodipodi:linespacing="125%"><tspan
         sodipodi:role="line"
         id="tspan4526-3-0-2-7-2-9-5"
         x="2894.2153"
         y="419.63962">16</tspan></text>
    <text
       xml:space="preserve"
       style="font-style:normal;font-weight:normal;font-size:117.35377502px;line-height:125%;font-family:sans-serif;letter-spacing:0px;word-spacing:0px;fill:#000000;fill-opacity:1;stroke:none;stroke-width:1px;stroke-linecap:butt;stroke-linejoin:miter;stroke-opacity:1"
       x="3312.7039"
       y="-255.00786"
       id="text4524-9-6-6-8-9-0-31-4-8-5-4"
       sodipodi:linespacing="125%"><tspan
         sodipodi:role="line"
         id="tspan4526-3-0-2-7-2-2-9-7-4-0-7"
         x="3312.7039"
         y="-255.00786">25</tspan></text>
    <text
       xml:space="preserve"
       style="font-style:normal;font-weight:normal;font-size:117.35377502px;line-height:125%;font-family:sans-serif;letter-spacing:0px;word-spacing:0px;fill:#000000;fill-opacity:1;stroke:none;stroke-width:1px;stroke-linecap:butt;stroke-linejoin:miter;stroke-opacity:1"
       x="3277.2183"
       y="462.59079"
       id="text4524-9-6-6-8-9-0-31-4-8-5-4-6"
       sodipodi:linespacing="125%"><tspan
         sodipodi:role="line"
         id="tspan4526-3-0-2-7-2-2-9-7-4-0-7-5"
         x="3277.2183"
         y="462.59079">29</tspan></text>
    <text
       xml:space="preserve"
       style="font-style:normal;font-weight:normal;font-size:122.50553131px;line-height:125%;font-family:sans-serif;letter-spacing:0px;word-spacing:0px;fill:#000000;fill-opacity:1;stroke:none;stroke-width:1px;stroke-linecap:butt;stroke-linejoin:miter;stroke-opacity:1"
       x="4376.2812"
       y="-173.27299"
       id="text4524-9-6-6-8-9-2-5-6"
       sodipodi:linespacing="125%"><tspan
         sodipodi:role="line"
         id="tspan4526-3-0-2-7-2-9-5-9"
         x="4376.2812"
         y="-173.27299">26</tspan></text>
    <text
       xml:space="preserve"
       style="font-style:normal;font-weight:normal;font-size:109.85624695px;line-height:125%;font-family:sans-serif;letter-spacing:0px;word-spacing:0px;fill:#000000;fill-opacity:1;stroke:none;stroke-width:1px;stroke-linecap:butt;stroke-linejoin:miter;stroke-opacity:1"
       x="4390.5708"
       y="71.625443"
       id="text4524-9-6-6-8-9-2-5-6-3"
       sodipodi:linespacing="125%"><tspan
         sodipodi:role="line"
         id="tspan4526-3-0-2-7-2-9-5-9-7"
         x="4390.5708"
         y="71.625443">27</tspan></text>
    <text
       xml:space="preserve"
       style="font-style:normal;font-weight:normal;font-size:107.98153687px;line-height:125%;font-family:sans-serif;letter-spacing:0px;word-spacing:0px;fill:#000000;fill-opacity:1;stroke:none;stroke-width:1px;stroke-linecap:butt;stroke-linejoin:miter;stroke-opacity:1"
       x="4375.374"
       y="252.27095"
       id="text4524-9-6-6-8-9-2-5-6-3-4"
       sodipodi:linespacing="125%"><tspan
         sodipodi:role="line"
         id="tspan4526-3-0-2-7-2-9-5-9-7-5"
         x="4375.374"
         y="252.27095">28</tspan></text>
    <text
       xml:space="preserve"
       style="font-style:normal;font-weight:normal;font-size:252.56735229px;line-height:125%;font-family:sans-serif;letter-spacing:0px;word-spacing:0px;fill:#000000;fill-opacity:1;stroke:none;stroke-width:1px;stroke-linecap:butt;stroke-linejoin:miter;stroke-opacity:1"
       x="5100.9023"
       y="-3500.5771"
       id="text4524-9-6-6-8-9-0-31-4-2"
       sodipodi:linespacing="125%"><tspan
         sodipodi:role="line"
         id="tspan4526-3-0-2-7-2-2-9-7-5"
         x="5100.9023"
         y="-3500.5771">29</tspan></text>
    <text
       xml:space="preserve"
       style="font-style:normal;font-weight:normal;font-size:252.56735229px;line-height:125%;font-family:sans-serif;letter-spacing:0px;word-spacing:0px;fill:#000000;fill-opacity:1;stroke:none;stroke-width:1px;stroke-linecap:butt;stroke-linejoin:miter;stroke-opacity:1"
       x="4766.3403"
       y="-2731.085"
       id="text4524-9-6-6-8-9-0-31-4-2-4"
       sodipodi:linespacing="125%"><tspan
         sodipodi:role="line"
         id="tspan4526-3-0-2-7-2-2-9-7-5-7"
         x="4766.3403"
         y="-2731.085">30</tspan></text>
    <text
       xml:space="preserve"
       style="font-style:normal;font-weight:normal;font-size:117.35377502px;line-height:125%;font-family:sans-serif;letter-spacing:0px;word-spacing:0px;fill:#000000;fill-opacity:1;stroke:none;stroke-width:1px;stroke-linecap:butt;stroke-linejoin:miter;stroke-opacity:1"
       x="4801.3882"
       y="-1768.7417"
       id="text4524-9-6-6-8-9-0-31-4-8-5-44"
       sodipodi:linespacing="125%"><tspan
         sodipodi:role="line"
         id="tspan4526-3-0-2-7-2-2-9-7-4-0-3"
         x="4801.3882"
         y="-1768.7417">31</tspan></text>
    <text
       xml:space="preserve"
       style="font-style:normal;font-weight:normal;font-size:117.35377502px;line-height:125%;font-family:sans-serif;letter-spacing:0px;word-spacing:0px;fill:#000000;fill-opacity:1;stroke:none;stroke-width:1px;stroke-linecap:butt;stroke-linejoin:miter;stroke-opacity:1"
       x="5437.0557"
       y="-1768.7417"
       id="text4524-9-6-6-8-9-0-31-4-8-5-44-0"
       sodipodi:linespacing="125%"><tspan
         sodipodi:role="line"
         id="tspan4526-3-0-2-7-2-2-9-7-4-0-3-7"
         x="5437.0557"
         y="-1768.7417">32</tspan></text>
    <text
       xml:space="preserve"
       style="font-style:normal;font-weight:normal;font-size:117.35377502px;line-height:125%;font-family:sans-serif;letter-spacing:0px;word-spacing:0px;fill:#000000;fill-opacity:1;stroke:none;stroke-width:1px;stroke-linecap:butt;stroke-linejoin:miter;stroke-opacity:1"
       x="5795.855"
       y="-1591.3135"
       id="text4524-9-6-6-8-9-0-31-4-8-5-44-0-8"
       sodipodi:linespacing="125%"><tspan
         sodipodi:role="line"
         id="tspan4526-3-0-2-7-2-2-9-7-4-0-3-7-6"
         x="5795.855"
         y="-1591.3135">33</tspan></text>
    <text
       xml:space="preserve"
       style="font-style:normal;font-weight:normal;font-size:117.35377502px;line-height:125%;font-family:sans-serif;letter-spacing:0px;word-spacing:0px;fill:#000000;fill-opacity:1;stroke:none;stroke-width:1px;stroke-linecap:butt;stroke-linejoin:miter;stroke-opacity:1"
       x="5854.9976"
       y="-992.00055"
       id="text4524-9-6-6-8-9-0-31-4-8-5-44-0-8-8"
       sodipodi:linespacing="125%"><tspan
         sodipodi:role="line"
         id="tspan4526-3-0-2-7-2-2-9-7-4-0-3-7-6-8"
         x="5854.9976"
         y="-992.00055">34</tspan></text>
    <text
       xml:space="preserve"
       style="font-style:normal;font-weight:normal;font-size:87.1960907px;line-height:125%;font-family:sans-serif;letter-spacing:0px;word-spacing:0px;fill:#000000;fill-opacity:1;stroke:none;stroke-width:1px;stroke-linecap:butt;stroke-linejoin:miter;stroke-opacity:1"
       x="5915.8433"
       y="-816.43463"
       id="text4524-9-6-6-8-9-0-31-4-8-5-44-0-8-8-4"
       sodipodi:linespacing="125%"><tspan
         sodipodi:role="line"
         id="tspan4526-3-0-2-7-2-2-9-7-4-0-3-7-6-8-3"
         x="5915.8433"
         y="-816.43463">35</tspan></text>
    <text
       xml:space="preserve"
       style="font-style:normal;font-weight:normal;font-size:117.33700562px;line-height:125%;font-family:sans-serif;letter-spacing:0px;word-spacing:0px;fill:#000000;fill-opacity:1;stroke:none;stroke-width:1px;stroke-linecap:butt;stroke-linejoin:miter;stroke-opacity:1"
       x="4657.5464"
       y="-191.85307"
       id="text4524-9-6-6-8-9-0-31-4-8-5-44-0-8-8-4-1"
       sodipodi:linespacing="125%"><tspan
         sodipodi:role="line"
         id="tspan4526-3-0-2-7-2-2-9-7-4-0-3-7-6-8-3-4"
         x="4657.5464"
         y="-191.85307">36</tspan></text>
    <text
       xml:space="preserve"
       style="font-style:normal;font-weight:normal;font-size:99.68950653px;line-height:125%;font-family:sans-serif;letter-spacing:0px;word-spacing:0px;fill:#000000;fill-opacity:1;stroke:none;stroke-width:1px;stroke-linecap:butt;stroke-linejoin:miter;stroke-opacity:1"
       x="4642.6172"
       y="93.463333"
       id="text4524-9-6-6-8-9-0-31-4-8-5-44-0-8-8-4-1-9"
       sodipodi:linespacing="125%"><tspan
         sodipodi:role="line"
         id="tspan4526-3-0-2-7-2-2-9-7-4-0-3-7-6-8-3-4-2"
         x="4642.6172"
         y="93.463333">37</tspan></text>
    <text
       xml:space="preserve"
       style="font-style:normal;font-weight:normal;font-size:150.77763367px;line-height:125%;font-family:sans-serif;letter-spacing:0px;word-spacing:0px;fill:#000000;fill-opacity:1;stroke:none;stroke-width:1px;stroke-linecap:butt;stroke-linejoin:miter;stroke-opacity:1"
       x="4713.6396"
       y="1113.938"
       id="text4524-9-6-6-8-9-0-31-4-8-5-44-0-8-8-4-1-9-0"
       sodipodi:linespacing="125%"><tspan
         sodipodi:role="line"
         id="tspan4526-3-0-2-7-2-2-9-7-4-0-3-7-6-8-3-4-2-6"
         x="4713.6396"
         y="1113.938">38</tspan></text>
    <text
       xml:space="preserve"
       style="font-style:normal;font-weight:normal;font-size:252.56735229px;line-height:125%;font-family:sans-serif;letter-spacing:0px;word-spacing:0px;fill:#000000;fill-opacity:1;stroke:none;stroke-width:1px;stroke-linecap:butt;stroke-linejoin:miter;stroke-opacity:1"
       x="6603.708"
       y="-3511.769"
       id="text4524-9-6-6-8-9-0-31-4-2-4-8"
       sodipodi:linespacing="125%"><tspan
         sodipodi:role="line"
         id="tspan4526-3-0-2-7-2-2-9-7-5-7-9"
         x="6603.708"
         y="-3511.769">39</tspan></text>
    <text
       xml:space="preserve"
       style="font-style:normal;font-weight:normal;font-size:252.56735229px;line-height:125%;font-family:sans-serif;letter-spacing:0px;word-spacing:0px;fill:#000000;fill-opacity:1;stroke:none;stroke-width:1px;stroke-linecap:butt;stroke-linejoin:miter;stroke-opacity:1"
       x="7057.1357"
       y="-2738.9707"
       id="text4524-9-6-6-8-9-0-31-4-2-4-8-2"
       sodipodi:linespacing="125%"><tspan
         sodipodi:role="line"
         id="tspan4526-3-0-2-7-2-2-9-7-5-7-9-6"
         x="7057.1357"
         y="-2738.9707">40</tspan></text>
    <text
       xml:space="preserve"
       style="font-style:normal;font-weight:normal;font-size:153.80155945px;line-height:125%;font-family:sans-serif;letter-spacing:0px;word-spacing:0px;fill:#000000;fill-opacity:1;stroke:none;stroke-width:1px;stroke-linecap:butt;stroke-linejoin:miter;stroke-opacity:1"
       x="6608.5308"
       y="-2343.0742"
       id="text4524-9-6-6-8-9-0-31-4-2-4-8-2-6"
       sodipodi:linespacing="125%"><tspan
         sodipodi:role="line"
         id="tspan4526-3-0-2-7-2-2-9-7-5-7-9-6-4"
         x="6608.5308"
         y="-2343.0742">41</tspan></text>
    <text
       xml:space="preserve"
       style="font-style:normal;font-weight:normal;font-size:153.80155945px;line-height:125%;font-family:sans-serif;letter-spacing:0px;word-spacing:0px;fill:#000000;fill-opacity:1;stroke:none;stroke-width:1px;stroke-linecap:butt;stroke-linejoin:miter;stroke-opacity:1"
       x="6993.2769"
       y="-1687.8906"
       id="text4524-9-6-6-8-9-0-31-4-2-4-8-2-6-9"
       sodipodi:linespacing="125%"><tspan
         sodipodi:role="line"
         id="tspan4526-3-0-2-7-2-2-9-7-5-7-9-6-4-5"
         x="6993.2769"
         y="-1687.8906">42</tspan></text>
    <text
       xml:space="preserve"
       style="font-style:normal;font-weight:normal;font-size:153.80155945px;line-height:125%;font-family:sans-serif;letter-spacing:0px;word-spacing:0px;fill:#000000;fill-opacity:1;stroke:none;stroke-width:1px;stroke-linecap:butt;stroke-linejoin:miter;stroke-opacity:1"
       x="6201.4805"
       y="-1687.8906"
       id="text4524-9-6-6-8-9-0-31-4-2-4-8-2-6-9-0"
       sodipodi:linespacing="125%"><tspan
         sodipodi:role="line"
         id="tspan4526-3-0-2-7-2-2-9-7-5-7-9-6-4-5-4"
         x="6201.4805"
         y="-1687.8906">43</tspan></text>
    <text
       xml:space="preserve"
       style="font-style:normal;font-weight:normal;font-size:116.66757202px;line-height:125%;font-family:sans-serif;letter-spacing:0px;word-spacing:0px;fill:#000000;fill-opacity:1;stroke:none;stroke-width:1px;stroke-linecap:butt;stroke-linejoin:miter;stroke-opacity:1"
       x="6124.4365"
       y="-583.36383"
       id="text4524-9-6-6-8-9-0-31-4-2-4-8-2-6-9-0-8"
       sodipodi:linespacing="125%"><tspan
         sodipodi:role="line"
         id="tspan4526-3-0-2-7-2-2-9-7-5-7-9-6-4-5-4-7"
         x="6124.4365"
         y="-583.36383">44</tspan></text>
    <text
       xml:space="preserve"
       style="font-style:normal;font-weight:normal;font-size:116.66757202px;line-height:125%;font-family:sans-serif;letter-spacing:0px;word-spacing:0px;fill:#000000;fill-opacity:1;stroke:none;stroke-width:1px;stroke-linecap:butt;stroke-linejoin:miter;stroke-opacity:1"
       x="7259.9771"
       y="-583.36383"
       id="text4524-9-6-6-8-9-0-31-4-2-4-8-2-6-9-0-8-1"
       sodipodi:linespacing="125%"><tspan
         sodipodi:role="line"
         id="tspan4526-3-0-2-7-2-2-9-7-5-7-9-6-4-5-4-7-7"
         x="7259.9771"
         y="-583.36383">45</tspan></text>
    <text
       xml:space="preserve"
       style="font-style:normal;font-weight:normal;font-size:116.66757202px;line-height:125%;font-family:sans-serif;letter-spacing:0px;word-spacing:0px;fill:#000000;fill-opacity:1;stroke:none;stroke-width:1px;stroke-linecap:butt;stroke-linejoin:miter;stroke-opacity:1"
       x="6995.8062"
       y="4.120563"
       id="text4524-9-6-6-8-9-0-31-4-2-4-8-2-6-9-0-8-1-2"
       sodipodi:linespacing="125%"><tspan
         sodipodi:role="line"
         id="tspan4526-3-0-2-7-2-2-9-7-5-7-9-6-4-5-4-7-7-7"
         x="6995.8062"
         y="4.120563">46</tspan></text>
    <text
       xml:space="preserve"
       style="font-style:normal;font-weight:normal;font-size:150.77763367px;line-height:125%;font-family:sans-serif;letter-spacing:0px;word-spacing:0px;fill:#000000;fill-opacity:1;stroke:none;stroke-width:1px;stroke-linecap:butt;stroke-linejoin:miter;stroke-opacity:1"
       x="6393.2935"
       y="1090.2808"
       id="text4524-9-6-6-8-9-0-31-4-8-5-44-0-8-8-4-1-9-0-2"
       sodipodi:linespacing="125%"><tspan
         sodipodi:role="line"
         id="tspan4526-3-0-2-7-2-2-9-7-4-0-3-7-6-8-3-4-2-6-2"
         x="6393.2935"
         y="1090.2808">47</tspan></text>
    <text
       xml:space="preserve"
       style="font-style:normal;font-weight:normal;font-size:252.56735229px;line-height:125%;font-family:sans-serif;letter-spacing:0px;word-spacing:0px;fill:#000000;fill-opacity:1;stroke:none;stroke-width:1px;stroke-linecap:butt;stroke-linejoin:miter;stroke-opacity:1"
       x="8220.7568"
       y="-3511.769"
       id="text4524-9-6-6-8-9-0-31-4-2-4-8-6"
       sodipodi:linespacing="125%"><tspan
         sodipodi:role="line"
         id="tspan4526-3-0-2-7-2-2-9-7-5-7-9-1"
         x="8220.7568"
         y="-3511.769">48</tspan></text>
    <text
       xml:space="preserve"
       style="font-style:normal;font-weight:normal;font-size:252.56735229px;line-height:125%;font-family:sans-serif;letter-spacing:0px;word-spacing:0px;fill:#000000;fill-opacity:1;stroke:none;stroke-width:1px;stroke-linecap:butt;stroke-linejoin:miter;stroke-opacity:1"
       x="8176.1484"
       y="-2541.54"
       id="text4524-9-6-6-8-9-0-31-4-2-4-8-6-0"
       sodipodi:linespacing="125%"><tspan
         sodipodi:role="line"
         id="tspan4526-3-0-2-7-2-2-9-7-5-7-9-1-6"
         x="8176.1484"
         y="-2541.54">49</tspan></text>
    <text
       xml:space="preserve"
       style="font-style:normal;font-weight:normal;font-size:91.13690948px;line-height:125%;font-family:sans-serif;letter-spacing:0px;word-spacing:0px;fill:#000000;fill-opacity:1;stroke:none;stroke-width:1px;stroke-linecap:butt;stroke-linejoin:miter;stroke-opacity:1"
       x="8266.6582"
       y="-1815.2524"
       id="text4524-9-6-6-8-9-0-31-4-2-4-8-2-6-9-1"
       sodipodi:linespacing="125%"><tspan
         sodipodi:role="line"
         id="tspan4526-3-0-2-7-2-2-9-7-5-7-9-6-4-5-5"
         x="8266.6582"
         y="-1815.2524">50</tspan></text>
    <text
       xml:space="preserve"
       style="font-style:normal;font-weight:normal;font-size:91.13690948px;line-height:125%;font-family:sans-serif;letter-spacing:0px;word-spacing:0px;fill:#000000;fill-opacity:1;stroke:none;stroke-width:1px;stroke-linecap:butt;stroke-linejoin:miter;stroke-opacity:1"
       x="8815.8975"
       y="-1709.3076"
       id="text4524-9-6-6-8-9-0-31-4-2-4-8-2-6-9-1-9"
       sodipodi:linespacing="125%"><tspan
         sodipodi:role="line"
         id="tspan4526-3-0-2-7-2-2-9-7-5-7-9-6-4-5-5-4"
         x="8815.8975"
         y="-1709.3076">51</tspan></text>
    <text
       xml:space="preserve"
       style="font-style:normal;font-weight:normal;font-size:116.66757202px;line-height:125%;font-family:sans-serif;letter-spacing:0px;word-spacing:0px;fill:#000000;fill-opacity:1;stroke:none;stroke-width:1px;stroke-linecap:butt;stroke-linejoin:miter;stroke-opacity:1"
       x="8147.1182"
       y="1092.3472"
       id="text4524-9-6-6-8-9-0-31-4-2-4-8-2-6-9-0-8-1-9"
       sodipodi:linespacing="125%"><tspan
         sodipodi:role="line"
         id="tspan4526-3-0-2-7-2-2-9-7-5-7-9-6-4-5-4-7-7-0"
         x="8147.1182"
         y="1092.3472">54</tspan></text>
    <text
       xml:space="preserve"
       style="font-style:normal;font-weight:normal;font-size:92.70311737px;line-height:125%;font-family:sans-serif;letter-spacing:0px;word-spacing:0px;fill:#000000;fill-opacity:1;stroke:none;stroke-width:1px;stroke-linecap:butt;stroke-linejoin:miter;stroke-opacity:1"
       x="8251.9492"
       y="-1636.6846"
       id="text4524-9-6-6-8-9-0-31-4-2-4-8-2-6-9-1-9-9"
       sodipodi:linespacing="125%"><tspan
         sodipodi:role="line"
         id="tspan4526-3-0-2-7-2-2-9-7-5-7-9-6-4-5-5-4-1"
         x="8251.9492"
         y="-1636.6846">52</tspan></text>
    <text
       xml:space="preserve"
       style="font-style:normal;font-weight:normal;font-size:92.73054504px;line-height:125%;font-family:sans-serif;letter-spacing:0px;word-spacing:0px;fill:#000000;fill-opacity:1;stroke:none;stroke-width:1px;stroke-linecap:butt;stroke-linejoin:miter;stroke-opacity:1"
       x="8230.2607"
       y="-1497.6787"
       id="text4524-9-6-6-8-9-0-31-4-2-4-8-2-6-9-1-9-9-7"
       sodipodi:linespacing="125%"><tspan
         sodipodi:role="line"
         id="tspan4526-3-0-2-7-2-2-9-7-5-7-9-6-4-5-5-4-1-7"
         x="8230.2607"
         y="-1497.6787">53</tspan></text>
    <text
       xml:space="preserve"
       style="font-style:normal;font-weight:normal;font-size:252.56735229px;line-height:125%;font-family:sans-serif;letter-spacing:0px;word-spacing:0px;fill:#000000;fill-opacity:1;stroke:none;stroke-width:1px;stroke-linecap:butt;stroke-linejoin:miter;stroke-opacity:1"
       x="9542.2764"
       y="-3567.5295"
       id="text4524-9-6-6-8-9-0-31-4-2-4-8-6-0-1"
       sodipodi:linespacing="125%"><tspan
         sodipodi:role="line"
         id="tspan4526-3-0-2-7-2-2-9-7-5-7-9-1-6-1"
         x="9542.2764"
         y="-3567.5295">55</tspan></text>
    <text
       xml:space="preserve"
       style="font-style:normal;font-weight:normal;font-size:252.56735229px;line-height:125%;font-family:sans-serif;letter-spacing:0px;word-spacing:0px;fill:#000000;fill-opacity:1;stroke:none;stroke-width:1px;stroke-linecap:butt;stroke-linejoin:miter;stroke-opacity:1"
       x="9542.2764"
       y="-2502.5078"
       id="text4524-9-6-6-8-9-0-31-4-2-4-8-6-0-1-5"
       sodipodi:linespacing="125%"><tspan
         sodipodi:role="line"
         id="tspan4526-3-0-2-7-2-2-9-7-5-7-9-1-6-1-9"
         x="9542.2764"
         y="-2502.5078">56</tspan></text>
    <text
       xml:space="preserve"
       style="font-style:normal;font-weight:normal;font-size:91.13690948px;line-height:125%;font-family:sans-serif;letter-spacing:0px;word-spacing:0px;fill:#000000;fill-opacity:1;stroke:none;stroke-width:1px;stroke-linecap:butt;stroke-linejoin:miter;stroke-opacity:1"
       x="9048.5254"
       y="-1847.3076"
       id="text4524-9-6-6-8-9-0-31-4-2-4-8-2-6-9-1-9-7"
       sodipodi:linespacing="125%"><tspan
         sodipodi:role="line"
         id="tspan4526-3-0-2-7-2-2-9-7-5-7-9-6-4-5-5-4-7"
         x="9048.5254"
         y="-1847.3076">58</tspan></text>
    <text
       xml:space="preserve"
       style="font-style:normal;font-weight:normal;font-size:23.60905266px;line-height:125%;font-family:sans-serif;letter-spacing:0px;word-spacing:0px;fill:#000000;fill-opacity:1;stroke:none;stroke-width:1px;stroke-linecap:butt;stroke-linejoin:miter;stroke-opacity:1"
       x="9754.9209"
       y="-2123.7588"
       id="text4524-9-6-6-8-9-0-31-4-2-4-8-2-6-9-1-9-7-6"
       sodipodi:linespacing="125%"><tspan
         sodipodi:role="line"
         id="tspan4526-3-0-2-7-2-2-9-7-5-7-9-6-4-5-5-4-7-7"
         x="9754.9209"
         y="-2123.7588">57</tspan></text>
    <text
       xml:space="preserve"
       style="font-style:normal;font-weight:normal;font-size:91.13690948px;line-height:125%;font-family:sans-serif;letter-spacing:0px;word-spacing:0px;fill:#000000;fill-opacity:1;stroke:none;stroke-width:1px;stroke-linecap:butt;stroke-linejoin:miter;stroke-opacity:1"
       x="10219.492"
       y="-1635.4185"
       id="text4524-9-6-6-8-9-0-31-4-2-4-8-2-6-9-1-9-7-3"
       sodipodi:linespacing="125%"><tspan
         sodipodi:role="line"
         id="tspan4526-3-0-2-7-2-2-9-7-5-7-9-6-4-5-5-4-7-6"
         x="10219.492"
         y="-1635.4185">59</tspan></text>
    <text
       xml:space="preserve"
       style="font-style:normal;font-weight:normal;font-size:23.60905266px;line-height:125%;font-family:sans-serif;letter-spacing:0px;word-spacing:0px;fill:#000000;fill-opacity:1;stroke:none;stroke-width:1px;stroke-linecap:butt;stroke-linejoin:miter;stroke-opacity:1"
       x="9081.1777"
       y="-1460.0425"
       id="text4524-9-6-6-8-9-0-31-4-2-4-8-2-6-9-1-9-7-6-5"
       sodipodi:linespacing="125%"><tspan
         sodipodi:role="line"
         id="tspan4526-3-0-2-7-2-2-9-7-5-7-9-6-4-5-5-4-7-7-6"
         x="9081.1777"
         y="-1460.0425">60</tspan></text>
    <text
       xml:space="preserve"
       style="font-style:normal;font-weight:normal;font-size:84.42090607px;line-height:125%;font-family:sans-serif;letter-spacing:0px;word-spacing:0px;fill:#000000;fill-opacity:1;stroke:none;stroke-width:1px;stroke-linecap:butt;stroke-linejoin:miter;stroke-opacity:1"
       x="9733.9424"
       y="-1124.0508"
       id="text4524-9-6-6-8-9-0-31-4-2-4-8-2-6-9-1-9-7-3-3"
       sodipodi:linespacing="125%"><tspan
         sodipodi:role="line"
         id="tspan4526-3-0-2-7-2-2-9-7-5-7-9-6-4-5-5-4-7-6-9"
         x="9733.9424"
         y="-1124.0508">61</tspan></text>
    <text
       xml:space="preserve"
       style="font-style:normal;font-weight:normal;font-size:86.51615906px;line-height:125%;font-family:sans-serif;letter-spacing:0px;word-spacing:0px;fill:#000000;fill-opacity:1;stroke:none;stroke-width:1px;stroke-linecap:butt;stroke-linejoin:miter;stroke-opacity:1"
       x="9898.4092"
       y="-1111.2661"
       id="text4524-9-6-6-8-9-0-31-4-2-4-8-2-6-9-1-9-7-3-3-4"
       sodipodi:linespacing="125%"><tspan
         sodipodi:role="line"
         id="tspan4526-3-0-2-7-2-2-9-7-5-7-9-6-4-5-5-4-7-6-9-8"
         x="9898.4092"
         y="-1111.2661">62</tspan></text>
    <text
       xml:space="preserve"
       style="font-style:normal;font-weight:normal;font-size:98.0389328px;line-height:125%;font-family:sans-serif;letter-spacing:0px;word-spacing:0px;fill:#000000;fill-opacity:1;stroke:none;stroke-width:1px;stroke-linecap:butt;stroke-linejoin:miter;stroke-opacity:1"
       x="10351.358"
       y="-941.05719"
       id="text4524-9-6-6-8-9-0-31-4-2-4-8-2-6-9-1-9-7-3-3-4-1"
       sodipodi:linespacing="125%"><tspan
         sodipodi:role="line"
         id="tspan4526-3-0-2-7-2-2-9-7-5-7-9-6-4-5-5-4-7-6-9-8-2"
         x="10351.358"
         y="-941.05719">63</tspan></text>
    <text
       xml:space="preserve"
       style="font-style:normal;font-weight:normal;font-size:91.64518738px;line-height:125%;font-family:sans-serif;letter-spacing:0px;word-spacing:0px;fill:#000000;fill-opacity:1;stroke:none;stroke-width:1px;stroke-linecap:butt;stroke-linejoin:miter;stroke-opacity:1"
       x="9848.7666"
       y="-840.26764"
       id="text4524-9-6-6-8-9-0-31-4-2-4-8-2-6-9-1-9-7-3-3-4-9"
       sodipodi:linespacing="125%"><tspan
         sodipodi:role="line"
         id="tspan4526-3-0-2-7-2-2-9-7-5-7-9-6-4-5-5-4-7-6-9-8-3"
         x="9848.7666"
         y="-840.26764">64</tspan></text>
    <text
       xml:space="preserve"
       style="font-style:normal;font-weight:normal;font-size:116.66757202px;line-height:125%;font-family:sans-serif;letter-spacing:0px;word-spacing:0px;fill:#000000;fill-opacity:1;stroke:none;stroke-width:1px;stroke-linecap:butt;stroke-linejoin:miter;stroke-opacity:1"
       x="10140.55"
       y="-337.90482"
       id="text4524-9-6-6-8-9-0-31-4-2-4-8-2-6-9-0-8-1-9-9"
       sodipodi:linespacing="125%"><tspan
         sodipodi:role="line"
         id="tspan4526-3-0-2-7-2-2-9-7-5-7-9-6-4-5-4-7-7-0-0"
         x="10140.55"
         y="-337.90482">65</tspan></text>
    <text
       xml:space="preserve"
       style="font-style:normal;font-weight:normal;font-size:116.66757202px;line-height:125%;font-family:sans-serif;letter-spacing:0px;word-spacing:0px;fill:#000000;fill-opacity:1;stroke:none;stroke-width:1px;stroke-linecap:butt;stroke-linejoin:miter;stroke-opacity:1"
       x="10140.55"
       y="526.37982"
       id="text4524-9-6-6-8-9-0-31-4-2-4-8-2-6-9-0-8-1-9-9-8"
       sodipodi:linespacing="125%"><tspan
         sodipodi:role="line"
         id="tspan4526-3-0-2-7-2-2-9-7-5-7-9-6-4-5-4-7-7-0-0-8"
         x="10140.55"
         y="526.37982">66</tspan></text>
    <text
       xml:space="preserve"
       style="font-style:normal;font-weight:normal;font-size:252.56735229px;line-height:125%;font-family:sans-serif;letter-spacing:0px;word-spacing:0px;fill:#0000ff;fill-opacity:1;stroke:none;stroke-width:1px;stroke-linecap:butt;stroke-linejoin:miter;stroke-opacity:1"
       x="714.4798"
       y="-4353.478"
       id="text4524-9-6-6-8-9-0-31-5"
       sodipodi:linespacing="125%"><tspan
         sodipodi:role="line"
         id="tspan4526-3-0-2-7-2-2-9-0"
         x="714.4798"
         y="-4353.478">1</tspan></text>
    <text
       xml:space="preserve"
       style="font-style:normal;font-weight:normal;font-size:252.56735229px;line-height:125%;font-family:sans-serif;letter-spacing:0px;word-spacing:0px;fill:#0000ff;fill-opacity:1;stroke:none;stroke-width:1px;stroke-linecap:butt;stroke-linejoin:miter;stroke-opacity:1"
       x="2283.7339"
       y="-4353.478"
       id="text4524-9-6-6-8-9-0-31-5-9"
       sodipodi:linespacing="125%"><tspan
         sodipodi:role="line"
         id="tspan4526-3-0-2-7-2-2-9-0-6"
         x="2283.7339"
         y="-4353.478">2</tspan></text>
    <text
       xml:space="preserve"
       style="font-style:normal;font-weight:normal;font-size:252.56735229px;line-height:125%;font-family:sans-serif;letter-spacing:0px;word-spacing:0px;fill:#0000ff;fill-opacity:1;stroke:none;stroke-width:1px;stroke-linecap:butt;stroke-linejoin:miter;stroke-opacity:1"
       x="3829.3308"
       y="-4353.478"
       id="text4524-9-6-6-8-9-0-31-5-9-3"
       sodipodi:linespacing="125%"><tspan
         sodipodi:role="line"
         id="tspan4526-3-0-2-7-2-2-9-0-6-8"
         x="3829.3308"
         y="-4353.478">3</tspan></text>
    <text
       xml:space="preserve"
       style="font-style:normal;font-weight:normal;font-size:252.56735229px;line-height:125%;font-family:sans-serif;letter-spacing:0px;word-spacing:0px;fill:#0000ff;fill-opacity:1;stroke:none;stroke-width:1px;stroke-linecap:butt;stroke-linejoin:miter;stroke-opacity:1"
       x="5272.4136"
       y="-4353.478"
       id="text4524-9-6-6-8-9-0-31-5-9-3-5"
       sodipodi:linespacing="125%"><tspan
         sodipodi:role="line"
         id="tspan4526-3-0-2-7-2-2-9-0-6-8-6"
         x="5272.4136"
         y="-4353.478">4</tspan></text>
    <text
       xml:space="preserve"
       style="font-style:normal;font-weight:normal;font-size:252.56735229px;line-height:125%;font-family:sans-serif;letter-spacing:0px;word-spacing:0px;fill:#0000ff;fill-opacity:1;stroke:none;stroke-width:1px;stroke-linecap:butt;stroke-linejoin:miter;stroke-opacity:1"
       x="6691.8394"
       y="-4353.478"
       id="text4524-9-6-6-8-9-0-31-5-9-3-5-1"
       sodipodi:linespacing="125%"><tspan
         sodipodi:role="line"
         id="tspan4526-3-0-2-7-2-2-9-0-6-8-6-1"
         x="6691.8394"
         y="-4353.478">5</tspan></text>
    <text
       xml:space="preserve"
       style="font-style:normal;font-weight:normal;font-size:252.56735229px;line-height:125%;font-family:sans-serif;letter-spacing:0px;word-spacing:0px;fill:#0000ff;fill-opacity:1;stroke:none;stroke-width:1px;stroke-linecap:butt;stroke-linejoin:miter;stroke-opacity:1"
       x="8261.0938"
       y="-4353.478"
       id="text4524-9-6-6-8-9-0-31-5-9-3-5-1-5"
       sodipodi:linespacing="125%"><tspan
         sodipodi:role="line"
         id="tspan4526-3-0-2-7-2-2-9-0-6-8-6-1-9"
         x="8261.0938"
         y="-4353.478">6</tspan></text>
    <text
       xml:space="preserve"
       style="font-style:normal;font-weight:normal;font-size:252.56735229px;line-height:125%;font-family:sans-serif;letter-spacing:0px;word-spacing:0px;fill:#0000ff;fill-opacity:1;stroke:none;stroke-width:1px;stroke-linecap:butt;stroke-linejoin:miter;stroke-opacity:1"
       x="9719.9482"
       y="-4353.478"
       id="text4524-9-6-6-8-9-0-31-5-9-3-5-1-5-8"
       sodipodi:linespacing="125%"><tspan
         sodipodi:role="line"
         id="tspan4526-3-0-2-7-2-2-9-0-6-8-6-1-9-4"
         x="9719.9482"
         y="-4353.478">7</tspan></text>
    <text
       xml:space="preserve"
       style="font-style:normal;font-weight:normal;font-size:252.56735229px;line-height:125%;font-family:sans-serif;letter-spacing:0px;word-spacing:0px;fill:#0000ff;fill-opacity:1;stroke:none;stroke-width:1px;stroke-linecap:butt;stroke-linejoin:miter;stroke-opacity:1"
       x="-439.75854"
       y="-3511.4971"
       id="text4524-9-6-6-8-9-0-31-5-8"
       sodipodi:linespacing="125%"><tspan
         sodipodi:role="line"
         id="tspan4526-3-0-2-7-2-2-9-0-1"
         x="-439.75854"
         y="-3511.4971">A</tspan></text>
    <text
       xml:space="preserve"
       style="font-style:normal;font-weight:normal;font-size:252.56735229px;line-height:125%;font-family:sans-serif;letter-spacing:0px;word-spacing:0px;fill:#0000ff;fill-opacity:1;stroke:none;stroke-width:1px;stroke-linecap:butt;stroke-linejoin:miter;stroke-opacity:1"
       x="-439.75854"
       y="-2468.7793"
       id="text4524-9-6-6-8-9-0-31-5-8-0"
       sodipodi:linespacing="125%"><tspan
         sodipodi:role="line"
         id="tspan4526-3-0-2-7-2-2-9-0-1-3"
         x="-439.75854"
         y="-2468.7793">B</tspan></text>
    <text
       xml:space="preserve"
       style="font-style:normal;font-weight:normal;font-size:252.56735229px;line-height:125%;font-family:sans-serif;letter-spacing:0px;word-spacing:0px;fill:#0000ff;fill-opacity:1;stroke:none;stroke-width:1px;stroke-linecap:butt;stroke-linejoin:miter;stroke-opacity:1"
       x="-439.75854"
       y="-1414.9097"
       id="text4524-9-6-6-8-9-0-31-5-8-0-0"
       sodipodi:linespacing="125%"><tspan
         sodipodi:role="line"
         id="tspan4526-3-0-2-7-2-2-9-0-1-3-4"
         x="-439.75854"
         y="-1414.9097">C</tspan></text>
    <text
       xml:space="preserve"
       style="font-style:normal;font-weight:normal;font-size:252.56735229px;line-height:125%;font-family:sans-serif;letter-spacing:0px;word-spacing:0px;fill:#0000ff;fill-opacity:1;stroke:none;stroke-width:1px;stroke-linecap:butt;stroke-linejoin:miter;stroke-opacity:1"
       x="-439.75854"
       y="-349.88773"
       id="text4524-9-6-6-8-9-0-31-5-8-0-0-4"
       sodipodi:linespacing="125%"><tspan
         sodipodi:role="line"
         id="tspan4526-3-0-2-7-2-2-9-0-1-3-4-4"
         x="-439.75854"
         y="-349.88773">D</tspan></text>
    <text
       xml:space="preserve"
       style="font-style:normal;font-weight:normal;font-size:252.56735229px;line-height:125%;font-family:sans-serif;letter-spacing:0px;word-spacing:0px;fill:#0000ff;fill-opacity:1;stroke:none;stroke-width:1px;stroke-linecap:butt;stroke-linejoin:miter;stroke-opacity:1"
       x="-439.75854"
       y="676.10199"
       id="text4524-9-6-6-8-9-0-31-5-8-0-0-4-4"
       sodipodi:linespacing="125%"><tspan
         sodipodi:role="line"
         id="tspan4526-3-0-2-7-2-2-9-0-1-3-4-4-7"
         x="-439.75854"
         y="676.10199">E</tspan></text>
    <text
       xml:space="preserve"
       style="font-style:normal;font-weight:normal;font-size:74.12458801px;line-height:125%;font-family:sans-serif;letter-spacing:0px;word-spacing:0px;fill:#000000;fill-opacity:1;stroke:none;stroke-width:1px;stroke-linecap:butt;stroke-linejoin:miter;stroke-opacity:1"
       x="3246.7871"
       y="-1862.9913"
       id="text4524-9-6-6-8-9-0-31-4-8-6"
       sodipodi:linespacing="125%"
       transform="matrix(0.99663939,-0.0819141,0.0819141,0.99663939,0,0)"><tspan
         sodipodi:role="line"
         id="tspan4526-3-0-2-7-2-2-9-7-4-3"
         x="3246.7871"
         y="-1862.9913">18Bis</tspan></text>
    <text
       xml:space="preserve"
       style="font-style:normal;font-weight:normal;font-size:74.12458801px;line-height:125%;font-family:sans-serif;letter-spacing:0px;word-spacing:0px;fill:#000000;fill-opacity:1;stroke:none;stroke-width:1px;stroke-linecap:butt;stroke-linejoin:miter;stroke-opacity:1"
       x="2458.792"
       y="2654.8208"
       id="text4524-9-6-6-8-9-0-31-4-8-6-8"
       sodipodi:linespacing="125%"
       transform="matrix(0.25043154,-0.96813431,0.96813431,0.25043154,0,0)"><tspan
         sodipodi:role="line"
         id="tspan4526-3-0-2-7-2-2-9-7-4-3-9"
         x="2458.792"
         y="2654.8208">19Bis</tspan></text>
    <text
       xml:space="preserve"
       style="font-style:normal;font-weight:normal;font-size:23.60905266px;line-height:125%;font-family:sans-serif;letter-spacing:0px;word-spacing:0px;fill:#000000;fill-opacity:1;stroke:none;stroke-width:1px;stroke-linecap:butt;stroke-linejoin:miter;stroke-opacity:1"
       x="9047.582"
       y="-1324.0122"
       id="text4524-9-6-6-8-9-0-31-4-2-4-8-2-6-9-1-9-7-6-5-6"
       sodipodi:linespacing="125%"><tspan
         sodipodi:role="line"
         id="tspan4526-3-0-2-7-2-2-9-7-5-7-9-6-4-5-5-4-7-7-6-4"
         x="9047.582"
         y="-1324.0122">60Bis</tspan></text>
  </g>
</svg>
