<?xml version="1.0" encoding="UTF-8" standalone="no"?>
<!-- Created with Inkscape (http://www.inkscape.org/) -->

<svg
   xmlns:dc="http://purl.org/dc/elements/1.1/"
   xmlns:cc="http://creativecommons.org/ns#"
   xmlns:rdf="http://www.w3.org/1999/02/22-rdf-syntax-ns#"
   xmlns:svg="http://www.w3.org/2000/svg"
   xmlns="http://www.w3.org/2000/svg"
   xmlns:sodipodi="http://sodipodi.sourceforge.net/DTD/sodipodi-0.dtd"
   xmlns:inkscape="http://www.inkscape.org/namespaces/inkscape"
   width="457.20001mm"
   height="304.79999mm"
   viewBox="0 0 1620 1080"
   id="svg2"
   version="1.1"
   inkscape:version="0.91 r13725"
   sodipodi:docname="Telon-pieza-B3.svg">
  <defs
     id="defs4" />
  <sodipodi:namedview
     id="base"
     pagecolor="#ffffff"
     bordercolor="#666666"
     borderopacity="1.0"
     inkscape:pageopacity="0.0"
     inkscape:pageshadow="2"
     inkscape:zoom="0.43703703"
     inkscape:cx="581.18646"
     inkscape:cy="556.01693"
     inkscape:document-units="px"
     inkscape:current-layer="layer2"
     showgrid="false"
     inkscape:window-width="1215"
     inkscape:window-height="1000"
     inkscape:window-x="65"
     inkscape:window-y="24"
     inkscape:window-maximized="1"
     showguides="true"
     inkscape:guide-bbox="true" />
  <metadata
     id="metadata7">
    <rdf:RDF>
      <cc:Work
         rdf:about="">
        <dc:format>image/svg+xml</dc:format>
        <dc:type
           rdf:resource="http://purl.org/dc/dcmitype/StillImage" />
        <dc:title></dc:title>
      </cc:Work>
    </rdf:RDF>
  </metadata>
  <g
     inkscape:groupmode="layer"
     id="layer2"
     inkscape:label="Layer 2"
     style="display:inline">
    <path
       style="fill:none;stroke:#ff0000;stroke-width:4;stroke-miterlimit:4;stroke-dasharray:none"
       d="m 8.5465197,395.14616 c 9.0668003,4.8715 24.8999003,11.2693 35.3629003,18.4666 27.3236,18.7954 52.3975,31.4542 55.7207,28.1308 11.6668,-11.6667 5.5928,-67.886 -14.1348,-130.8242 -10.9568,-34.956 -17.2173,-72.0766 -13.9121,-82.4902 8.2683,-26.0515 45.2762,-19.2739 60.3379,11.0508 l 11.8535,23.8652 3.2891,-28.8281 c 4.3157,-37.8293 42.7507,-46.5207 53.2148,-12.0332 3.8245,12.6052 16.2223,44.8218 27.5488,71.5918 l 20.5918,48.6718 10.5391,-43.707 c 8.0957,-33.5769 15.1422,-43.709 30.3965,-43.709 16.6606,0 20.1343,7.1915 21.5781,44.6778 2.8731,74.6013 3.3431,75.7457 19.1719,46.5468 8.3239,-15.3549 20.4318,-26.1075 26.9062,-23.8945 19.2973,6.5959 12.0999,63.5361 -27.1015,214.3926 -24.0068,92.3838 -33.6849,146.12359 -27.4395,152.36909 5.3067,5.3066 7.5048,34.9084 4.8848,65.7813 -2.8433,33.5001 0.9701,176.036 6.2851,301.40045 l 663.09956,0 c -5.9541,-11.0806 -4.9182,-23.0712 -1.7148,-43.1758 7.0118,-44.00655 -18.088,-72.32755 -79.668,-89.89075 -53.4892,-15.2555 -62.1472,-22.9807 -91.6797,-81.7929 -31.3072,-62.3465 -29.4095,-60.4604 -46.5507,-46.2344 -19.2065,15.94 -26.1694,2.8808 -32.7246,-61.3769 -4.6595,-45.6763 -2.3061,-55.0779 19.7148,-78.73049 20.8609,-22.4066 24.1143,-33.5178 19.6211,-67.0176 -4.6433,-34.618 -2.8066,-40.1602 13.3144,-40.1602 10.7737,0 33.4244,19.8794 53.4336,46.8965 28.9275,39.0587 41.8081,48.1038 77.0801,54.1172 23.2922,3.971 47.3275,10.29539 53.4102,14.05469 6.0825,3.7594 26.1384,39.4721 44.56832,79.3613 18.43,39.8894 37.7765,75.1633 42.9922,78.3868 5.2157,3.2235 18.2071,0.4119 28.8711,-6.2481 16.4477,-10.2718 24.693,-8.0636 54.3496,14.5566 30.5115,23.272 56.1426,33.8878 56.1426,23.254 0,-1.8755 -9.3975,-29.7985 -20.8828,-62.0528 -26.5036,-74.4309 -29.6736,-189.60019 -6.9531,-252.63079 10.5762,-29.3406 18.6375,-96.8703 23.1132,-193.6094 5.0394,-108.9262 12.0959,-163.1193 26.4493,-203.1602 10.7662,-30.0343 25.3333,-79.499698 32.373,-109.921798 1.8019,-7.7872 3.6588,-15.0241 5.5352,-21.9864001 l -1237.33598,0 z m 1.6519003,661.45884 83.7325,0 c 11.5466,-84.55235 13.3567,-186.04125 2.5332,-256.41805 -10.4551,-67.9817 -9.9233,-83.1938 4.0664,-116.3457 15.7251,-37.26409 15.4361,-39.54689 -12.6504,-99.56639 -17.8281,-38.0977 -41.6725,-66.0966 -76.5456,-99.4492 z"
       id="path4446"
       inkscape:connector-curvature="0"
       sodipodi:nodetypes="cscssscsscccsssssccccsssssssssscsscssssssscccccssscc" />
  </g>
  <g
     inkscape:groupmode="layer"
     id="layer1"
     inkscape:label="frame"
     style="display:inline" />
</svg>
