<?xml version="1.0" encoding="UTF-8" standalone="no"?>
<!-- Created with Inkscape (http://www.inkscape.org/) -->

<svg
   xmlns:dc="http://purl.org/dc/elements/1.1/"
   xmlns:cc="http://creativecommons.org/ns#"
   xmlns:rdf="http://www.w3.org/1999/02/22-rdf-syntax-ns#"
   xmlns:svg="http://www.w3.org/2000/svg"
   xmlns="http://www.w3.org/2000/svg"
   xmlns:sodipodi="http://sodipodi.sourceforge.net/DTD/sodipodi-0.dtd"
   xmlns:inkscape="http://www.inkscape.org/namespaces/inkscape"
   width="457.20001mm"
   height="304.79999mm"
   viewBox="0 0 1620 1080"
   id="svg2"
   version="1.1"
   inkscape:version="0.91 r13725"
   sodipodi:docname="Telon-pieza-01.svg">
  <defs
     id="defs4" />
  <sodipodi:namedview
     id="base"
     pagecolor="#ffffff"
     bordercolor="#666666"
     borderopacity="1.0"
     inkscape:pageopacity="0.0"
     inkscape:pageshadow="2"
     inkscape:zoom="0.28993495"
     inkscape:cx="704.98289"
     inkscape:cy="932.27279"
     inkscape:document-units="px"
     inkscape:current-layer="layer2"
     showgrid="false"
     inkscape:window-width="1215"
     inkscape:window-height="1000"
     inkscape:window-x="65"
     inkscape:window-y="24"
     inkscape:window-maximized="1" />
  <metadata
     id="metadata7">
    <rdf:RDF>
      <cc:Work
         rdf:about="">
        <dc:format>image/svg+xml</dc:format>
        <dc:type
           rdf:resource="http://purl.org/dc/dcmitype/StillImage" />
        <dc:title></dc:title>
      </cc:Work>
    </rdf:RDF>
  </metadata>
  <g
     inkscape:groupmode="layer"
     id="layer2"
     inkscape:label="Layer 2"
     style="display:inline">
    <path
       style="fill:none;stroke:#ff0000;stroke-width:4;stroke-miterlimit:4;stroke-dasharray:none"
       d="m 9.3816267,7.2536509 0,1047.3613491 353.9901933,0 c -0.5297,-23.3305 3.2885,-52.5102 5.3809,-93.79495 4.2134,-83.1328 10.4148,-126.5969 18.8106,-131.8437 6.8886,-4.305 38.3143,-10.7721 69.8359,-14.3731 31.5216,-3.6012 59.7101,-10.4283 62.6406,-15.1699 2.9304,-4.7415 15.6889,-8.6211 28.3516,-8.6211 12.6628,0 38.3234,-6.3928 57.0254,-14.207 13.6183,-5.6901 24.3852,-8.6715 33.0722,-8.4356 19.1112,0.5189 28.1519,16.6113 35.3165,53.7031 17.3292,89.7157 8.4974,155.5216 -22.6691,232.74225 l 841.43458,0 0,-1047.3613491 z"
       id="path4216"
       inkscape:connector-curvature="0"
       sodipodi:nodetypes="cccsssssssscccc" />
  </g>
  <g
     inkscape:groupmode="layer"
     id="layer1"
     inkscape:label="frame"
     style="display:inline" />
</svg>
