<?xml version="1.0" encoding="UTF-8" standalone="no"?>
<!-- Created with Inkscape (http://www.inkscape.org/) -->

<svg
   xmlns:dc="http://purl.org/dc/elements/1.1/"
   xmlns:cc="http://creativecommons.org/ns#"
   xmlns:rdf="http://www.w3.org/1999/02/22-rdf-syntax-ns#"
   xmlns:svg="http://www.w3.org/2000/svg"
   xmlns="http://www.w3.org/2000/svg"
   xmlns:sodipodi="http://sodipodi.sourceforge.net/DTD/sodipodi-0.dtd"
   xmlns:inkscape="http://www.inkscape.org/namespaces/inkscape"
   width="457.20001mm"
   height="304.79999mm"
   viewBox="0 0 1620 1080"
   id="svg2"
   version="1.1"
   inkscape:version="0.91 r13725"
   sodipodi:docname="Telon-pieza-C5.svg">
  <defs
     id="defs4" />
  <sodipodi:namedview
     id="base"
     pagecolor="#ffffff"
     bordercolor="#666666"
     borderopacity="1.0"
     inkscape:pageopacity="0.0"
     inkscape:pageshadow="2"
     inkscape:zoom="0.30903184"
     inkscape:cx="481.67567"
     inkscape:cy="251.09577"
     inkscape:document-units="px"
     inkscape:current-layer="layer2"
     showgrid="false"
     inkscape:window-width="1215"
     inkscape:window-height="1000"
     inkscape:window-x="65"
     inkscape:window-y="24"
     inkscape:window-maximized="1"
     showguides="true"
     inkscape:guide-bbox="true" />
  <metadata
     id="metadata7">
    <rdf:RDF>
      <cc:Work
         rdf:about="">
        <dc:format>image/svg+xml</dc:format>
        <dc:type
           rdf:resource="http://purl.org/dc/dcmitype/StillImage" />
        <dc:title></dc:title>
      </cc:Work>
    </rdf:RDF>
  </metadata>
  <g
     inkscape:groupmode="layer"
     id="layer2"
     inkscape:label="Layer 2"
     style="display:inline">
    <text
       xml:space="preserve"
       style="font-style:normal;font-weight:normal;font-size:252.56735229px;line-height:125%;font-family:sans-serif;letter-spacing:0px;word-spacing:0px;fill:#0000ff;fill-opacity:1;stroke:none;stroke-width:1px;stroke-linecap:butt;stroke-linejoin:miter;stroke-opacity:1"
       x="412.15903"
       y="-946.96918"
       id="text4524-9-6-6-8-9-0-31-5-9-3-5-1"
       sodipodi:linespacing="125%"><tspan
         sodipodi:role="line"
         id="tspan4526-3-0-2-7-2-2-9-0-6-8-6-1"
         x="412.15903"
         y="-946.96918">5</tspan></text>
    <path
       style="fill:none;stroke:#ff0000;stroke-width:4;stroke-miterlimit:4;stroke-dasharray:none"
       d="m 41.040586,338.27736 c 40.9585,-1.232 48.3607,-6.888 70.933604,-31.053 52.2223,-55.903 92.1679,-152.778 57.5136,-139.48 -11.7267,4.5 -14.8925,-2.829 -14.8925,-34.475 0,-22.105 -4.542,-42.998002 -10.0918,-46.428002 -5.5498,-3.43 -7.5504,-10.344 -4.4473,-15.365 3.1031,-5.021 -1.8118,-6.269 -10.9219,-2.773 -14.5562,5.586 -15.0741,3.466 -4.2656,-17.489 5.2253,-10.13 7.6133,-15.768 6.1836,-15.738 -3.4083,0.07 -29.9645,34.364 -90.011704,114.777002 z"
       id="path6064"
       inkscape:connector-curvature="0" />
    <path
       style="fill:none;stroke:#ff0000;stroke-width:4;stroke-miterlimit:4;stroke-dasharray:none"
       d="m 204.69651,80.740581 c 16.1444,44.911999 26.4024,83.550999 25.8672,102.372999 -0.4517,15.885 4.36,38.564 10.6933,50.398 6.3332,11.834 10.9255,25.048 10.2051,29.365 -5.7403,34.397 5.9932,40.253 32.5293,16.239 9.9864,-9.038 18.1562,-22.098 18.1562,-29.024 0,-6.926 11.4454,-26.194 25.4336,-42.818 13.9883,-16.624 36.9632,-58.295 51.0547,-92.602 5.1931,-12.642 9.3172,-23.585999 12.6153,-33.930999 z"
       id="path4303"
       inkscape:connector-curvature="0" />
  </g>
  <g
     inkscape:groupmode="layer"
     id="layer1"
     inkscape:label="frame"
     style="display:inline" />
</svg>
