<?xml version="1.0" encoding="UTF-8" standalone="no"?>
<!-- Created with Inkscape (http://www.inkscape.org/) -->

<svg
   xmlns:dc="http://purl.org/dc/elements/1.1/"
   xmlns:cc="http://creativecommons.org/ns#"
   xmlns:rdf="http://www.w3.org/1999/02/22-rdf-syntax-ns#"
   xmlns:svg="http://www.w3.org/2000/svg"
   xmlns="http://www.w3.org/2000/svg"
   xmlns:sodipodi="http://sodipodi.sourceforge.net/DTD/sodipodi-0.dtd"
   xmlns:inkscape="http://www.inkscape.org/namespaces/inkscape"
   width="3000mm"
   height="1400mm"
   viewBox="0 0 10629.921 4960.6299"
   id="svg2"
   version="1.1"
   inkscape:version="0.91 r13725"
   sodipodi:docname="telon-siluetas-2.svg">
  <defs
     id="defs4" />
  <sodipodi:namedview
     id="base"
     pagecolor="#ffffff"
     bordercolor="#666666"
     borderopacity="1.0"
     inkscape:pageopacity="0.0"
     inkscape:pageshadow="2"
     inkscape:zoom="0.063405926"
     inkscape:cx="4375.3415"
     inkscape:cy="12.782116"
     inkscape:document-units="px"
     inkscape:current-layer="layer1"
     showgrid="false"
     inkscape:window-width="1855"
     inkscape:window-height="1056"
     inkscape:window-x="69"
     inkscape:window-y="1048"
     inkscape:window-maximized="1"
     showguides="true"
     inkscape:guide-bbox="true"
     inkscape:snap-global="false" />
  <metadata
     id="metadata7">
    <rdf:RDF>
      <cc:Work
         rdf:about="">
        <dc:format>image/svg+xml</dc:format>
        <dc:type
           rdf:resource="http://purl.org/dc/dcmitype/StillImage" />
        <dc:title />
      </cc:Work>
    </rdf:RDF>
  </metadata>
  <g
     inkscape:label="Layer 1"
     inkscape:groupmode="layer"
     id="layer1"
     transform="translate(0,3908.2677)">
    <path
       style="fill:#000000"
       d="m 4540.9414,241.41016 c -6.7962,0.0235 -14.0407,0.34214 -21.748,0.92968 -49.8291,3.7985 -63.6686,6.81063 -104.7286,22.79883 -9.5564,3.7212 -28.013,7.07287 -41.0136,7.44727 -13.0005,0.3745 -27.1483,7.38312 -31.4395,15.57422 -8.898,16.9845 -38.2084,190.68655 -48.9082,289.84765 -6.8389,63.3783 -29.7095,117.22852 -49.789,117.22852 -14.0814,0 -31.0273,36.86948 -45.3067,98.58008 -7.0397,30.4221 -21.6068,79.88757 -32.373,109.92187 -14.3534,40.0409 -21.4099,94.2339 -26.4493,203.16012 -4.4757,96.7391 -12.537,164.2688 -23.1132,193.6094 -22.7205,63.0306 -19.5505,178.2 6.9531,252.6309 11.4853,32.2543 20.8828,60.1772 20.8828,62.0527 0,10.6338 -25.6311,0.018 -56.1426,-23.2539 -29.6566,-22.6202 -37.9019,-24.8284 -54.3496,-14.5566 -10.664,6.66 -23.6554,9.4715 -28.8711,6.248 -5.2157,-3.2235 -24.5622,-38.4973 -42.9922,-78.3867 -18.4299,-39.8892 -38.4858,-75.6019 -44.5683,-79.3613 -6.0827,-3.7593 -30.118,-10.0837 -53.4102,-14.0547 -35.272,-6.0134 -48.1526,-15.0585 -77.0801,-54.1172 -20.0092,-27.0171 -42.6599,-46.8965 -53.4336,-46.8965 -16.121,0 -17.9577,5.5422 -13.3144,40.1602 4.4932,33.4998 1.2398,44.6109 -19.6211,67.0175 -22.0209,23.6526 -24.3743,33.0544 -19.7148,78.7305 6.5552,64.2578 13.5181,77.317 32.7246,61.377 17.1412,-14.226 15.2435,-16.1122 46.5507,46.2343 29.5325,58.8122 38.1905,66.5375 91.6797,81.793 61.58,17.5632 86.6798,45.8841 79.668,89.8906 -7.1106,44.627 -3.8828,49.3061 63.9434,92.6875 30.0342,19.2097 63.1207,44.5166 73.5234,56.2364 10.4027,11.7199 24.2771,21.3085 30.832,21.3085 6.5548,0 15.9134,13.2648 20.7989,29.4766 4.8855,16.2119 35.4503,61.2452 67.9218,100.0742 54.4382,65.0968 58.8336,73.9669 56.3828,113.8184 -1.4618,23.771 2.1292,52.1664 7.9805,63.0996 14.9951,28.0185 -2.2505,68.4601 -30.9336,72.543 -13.0003,1.8505 -28.2927,14.777 -35.6172,30.1074 -12.6107,26.395 -40.8575,29.2555 -42.8789,4.3418 -3.5947,-44.3056 5.5095,-106.6465 21.4961,-147.2051 20.9297,-53.0991 16.9913,-60.3921 -12.4199,-23.0019 -20.3863,25.9168 -57.558,33.8525 -58.1289,12.4101 -0.1817,-6.826 -8.7168,-2.3591 -18.9668,9.9277 -24.3997,29.2481 -40.2754,28.3488 -40.2754,-2.2812 0,-34.2446 -29.0975,-105.4665 -52.8144,-129.2734 -70.3584,-70.6247 -237.4464,-168.1502 -316.8965,-184.9649 -28.7412,-6.0826 -63.5078,-16.7965 -77.2578,-23.8086 -31.5624,-16.0958 -74.4119,-8.2912 -118.7872,21.6348 -19.0153,12.8236 -44.3415,23.3164 -56.2793,23.3164 -30.2926,0 -53.0651,9.9837 -53.3828,23.4023 -0.3402,14.3716 -69.2333,89.12 -75.9492,82.4043 -8.0001,-8.0002 -25.2015,-442.7317 -19.9609,-504.4785 2.62,-30.8729 0.4219,-60.4746 -4.8848,-65.7812 -6.2454,-6.2455 3.4327,-59.9854 27.4395,-152.3692 39.2014,-150.8565 46.3988,-207.7967 27.1015,-214.3926 -6.4744,-2.213 -18.5823,8.5397 -26.9062,23.8946 -15.8288,29.1989 -16.2988,28.0546 -19.1719,-46.5469 -1.4438,-37.4862 -4.9175,-44.6777 -21.5781,-44.6777 -15.2543,0 -22.3008,10.1321 -30.3965,43.709 l -10.5391,43.707 -20.5918,-48.6719 c -11.3265,-26.77 -23.7243,-58.98659 -27.5488,-71.59179 -10.4641,-34.4875 -48.8991,-25.79609 -53.2148,12.03321 l -3.2891,28.82808 -11.8535,-23.8652 c -15.0617,-30.32468 -52.0696,-37.10228 -60.3379,-11.05078 -3.3052,10.41358 2.9553,47.53428 13.9121,82.49028 19.7276,62.9382 25.8016,119.1575 14.1348,130.8242 -3.3232,3.3234 -28.3971,-9.3355 -55.7207,-28.1309 -52.5875,-36.1739 -87.3876,-42.9413 -105.9297,-20.5996 -8.9419,10.7744 2.3912,25.5632 54.9453,71.7031 49.0463,43.0603 73.6612,74.0546 94.9551,119.5586 28.0865,60.0195 28.3755,62.3023 12.6504,99.5664 -13.9897,33.1519 -14.5215,48.364 -4.0664,116.3457 14.9603,97.2751 5.8872,254.164 -19.8536,343.3028 -10.323,35.7468 -21.8634,91.7415 -25.6464,124.4316 -6.974,60.2643 -74.2335,301.7479 -100.0098,359.0684 -7.738,17.2077 -14.0684,38.3696 -14.0684,47.0273 0,19.435 -60.9038,46.1831 -88.6406,38.9297 -15.1966,-3.974 -18.9931,-10.8762 -14.916,-27.1211 8.4728,-33.7581 12.5408,-58.1131 14.2226,-85.1582 0.849,-13.6519 3.7965,-19.238 6.5508,-12.4121 10.442,25.8781 23.211,10.859 23.211,-27.3027 0,-28.6829 4.1364,-39.7149 14.8925,-39.7149 20.8537,0 18.5405,-12.803 -4.9648,-27.4824 -23.4064,-14.6176 -26.1081,-32.0898 -4.9629,-32.0898 8.191,0 14.8926,-4.4671 14.8926,-9.9278 0,-5.4608 -6.2336,-9.9297 -13.8516,-9.9297 -7.6181,0 -24.3725,-11.7268 -37.2324,-26.0586 -12.8599,-14.332 -33.4919,-36.9314 -45.8496,-50.2226 -20.0575,-21.5726 -20.8575,-25.7773 -7.4473,-39.1875 8.2621,-8.262 14.6693,-20.2886 14.2383,-26.7246 -0.5515,-8.2333 -2.2675,-8.0229 -5.791,0.709 -5.4242,13.4426 -62.9258,17.526 -62.9258,4.4687 0,-4.3686 5.5842,-13.6212 12.4102,-20.5605 10.0066,-10.1729 7.1219,-11.3101 -14.8926,-5.8731 -15.5635,3.8437 -27.3027,2.6281 -27.3027,-2.8262 0,-5.2627 -14.522,-13.8478 -32.2696,-19.0781 -28.9212,-8.5232 -31.986,-12.9379 -29.5566,-42.5566 2.3707,-28.9022 0.7742,-31.438 -12.7324,-20.2285 -12.5864,10.4454 -22.5777,10.4607 -54.0078,0.088 -21.9008,-7.228 -50.7211,-9.7184 -66.6973,-5.7637 -15.4727,3.8302 -51.6015,10.2447 -80.2871,14.2539 -28.6855,4.0091 -57.5045,12.6373 -64.041,19.1738 -6.5364,6.5364 -20.345,11.8848 -30.6856,11.8848 -10.3456,0 -21.0981,8.7815 -23.9082,19.5273 -2.8087,10.7407 -12.9702,22.0256 -22.582,25.0762 -22.4104,7.1129 -57.0932,44.7539 -41.2364,44.7539 14.3954,0 -9.1809,49.3453 -33.0351,69.1426 -9.0604,7.5194 -13.3398,20.7571 -10.0547,31.1074 3.1452,9.9095 0.066,36.8876 -6.8437,59.9512 -9.5157,31.7616 -9.7388,42.8742 -0.918,45.8144 6.9575,2.3192 9.4952,14.6398 6.3027,30.6016 -2.939,14.6955 1.6383,46.774 10.1719,71.2851 26.5657,76.3046 21.9864,85.8806 -23.7481,49.6582 -25.9068,-20.5187 -59.0338,-66.1958 -96.0136,-132.3906 -31.0523,-55.5844 -64.5939,-110.2436 -74.5371,-121.4648 -26.8861,-30.3416 -55.5737,-156.304 -68.2168,-299.5215 -13.7146,-155.3562 -24.3794,-206.6212 -49.6719,-238.7754 -13.1594,-16.7294 -19.5117,-40.1183 -19.5117,-71.8398 0,-43.9816 3.5582,-50.4914 54.8379,-100.3321 30.1608,-29.3145 70.0826,-61.1188 88.7148,-70.6777 42.4193,-21.7626 50.2499,-34.138 33.9961,-53.7227 -15.9023,-19.161 -64.2912,-12.8441 -118.6445,15.4864 l -38.2754,19.9492 34.3652,-62.5176 c 35.6216,-64.8053 42.665,-99.2457 22.8086,-111.5176 -11.2677,-6.9638 -27.4853,8.14 -75.9004,70.6836 l -22.9199,29.6074 5.5254,-44.6796 c 3.0394,-24.5735 1.1937,-51.3812 -4.1016,-59.5723 -14.779,-22.8614 -43.0392,0.068 -53.2383,43.1934 -10.5845,44.7554 -19.5126,45.8681 -31.8476,3.9687 -6.619,-22.4824 -15.5219,-32.2676 -29.3574,-32.2676 -17.6062,0 -20.19,7.5967 -22.793,67.0176 -1.6148,36.8602 -6.778,67.0195 -11.4727,67.0195 -4.6946,0 -27.2525,-15.6374 -50.1289,-34.75 -76.4217,-63.8486 -93.7178,-37.3862 -29.0429,44.4336 47.5878,60.203 54.6142,78.9391 68.373,182.3164 9.5699,71.9031 8.8924,79.0751 -8.8926,94.3223 -17.9352,15.3757 -18.6825,24.2934 -10.957,130.6816 4.5601,62.799 15.4379,152.1578 24.1719,198.5743 8.7339,46.4166 19.6327,107.2187 24.2187,135.1171 l 8.3379,50.7247 -45.5508,-4.7813 c -25.0531,-2.6298 -62.3922,-14.0397 -82.9746,-25.3555 -29.9627,-16.4729 -40.2296,-30.0291 -51.5058,-68 -12.2102,-41.1164 -12.1771,-51.2458 0.2519,-76.1601 7.8846,-15.8052 21.4013,-75.1339 30.0352,-131.8399 21.337,-140.1357 20.6973,-136.3058 32.3476,-193.4511 5.6779,-27.8492 7.8046,-60.2647 4.7266,-72.0352 -3.0781,-11.7706 -0.4698,-27.58 5.7969,-35.1309 8.5868,-10.3459 8.4862,-20.1083 -0.4043,-39.621 -10.005,-21.9586 -8.9379,-29.0526 7.0215,-46.6875 16.9305,-18.7079 17.2516,-21.9479 3.1875,-32.3067 -8.5981,-6.3327 -13.7526,-17.0999 -11.4532,-23.9258 2.2996,-6.826 -3.1928,-12.4101 -12.207,-12.4101 -11.8711,0 -14.6529,-5.4742 -10.0879,-19.8574 5.1853,-16.3375 1.7849,-19.8575 -19.1875,-19.8575 -14.02,0 -25.4922,-4.469 -25.4922,-9.9297 0,-5.4609 -6.7014,-9.9277 -14.8925,-9.9277 -8.1912,0 -14.8926,-6.7014 -14.8926,-14.8926 0,-8.3814 -9.7678,-15.5486 -22.3399,-16.3925 -28.3636,-1.9031 -64.8918,-4.7966 -148.6601,-11.7754 -38.6033,-3.216 -69.2439,-1.5226 -72.668,4.0175 -3.2562,5.2686 -9.8167,7.1733 -14.5781,4.2305 -10.4234,-6.442 -89.2578,26.3735 -89.2578,37.1543 0,4.1726 -8.1573,7.5859 -18.127,7.5859 -41.2311,0 -85.4553,76.2436 -101.8672,175.6211 -9.5591,57.8825 -8.8113,75.7031 4.8653,115.9864 8.8874,26.1775 20.6245,90.7907 26.082,143.5859 12.3629,119.5961 12.0082,118.359 62.3008,218.0117 35.184,69.7159 39.2674,83.7395 26.6953,91.6875 -24.9417,15.7678 -67.9695,11.1469 -78.4434,-8.4238 -5.3307,-9.9606 -27.5463,-23.4584 -49.3672,-29.9961 -47.9794,-14.375 -152.59133,-117.6369 -184.19723,-181.8203 -11.676,-23.7109 -26.40943,-52.0473 -32.74023,-62.9688 -49.87498,-86.0411 -131.31439,-308.7554 -131.56836,-359.8027 -0.1152,-23.1475 -9.07944,-74.5283 -19.92188,-114.1797 -10.84232,-39.6515 -19.55194,-85.4985 -19.35351,-101.8808 1.21296,-100.1419 -7.9217,-270.63957 -15.125,-282.29497 -16.29583,-26.3672 -5.35231,-89.13 29.27148,-167.8789 37.04237,-84.2496 44.09829,-152.75424 25.59961,-248.52344 -10.42108,-53.9518 -24.80994,-63.47588 -68.38867,-45.26758 -18.70204,7.8142 -44.36258,14.20703 -57.02539,14.20703 -12.66269,0 -25.42118,3.8796 -28.35156,8.6211 -2.93052,4.7416 -31.11903,11.56872 -62.64063,15.16992 -31.5216,3.601 -62.94733,10.06805 -69.83594,14.37305 -8.39576,5.2468 -14.59715,48.71095 -18.81054,131.84375 -5.21074,102.8114 -3.35991,132.82485 10.82617,175.53515 14.17928,42.6898 15.10281,57.61084 5.38476,87.05664 -6.45034,19.5448 -9.50978,47.14673 -6.79687,61.33785 2.71277,14.1916 -1.73281,48.252 -9.88086,75.6895 -17.35923,58.4552 -19.16845,136.6087 -10.48437,453.0273 3.96541,144.4891 11.90068,257.9259 20.84179,297.9414 19.97945,89.4179 86.68523,245.7728 150.49219,352.7422 55.43811,92.9396 86.08219,157.5259 98.33203,207.25 3.91455,15.8895 26.44235,53.8675 50.06055,84.3946 56.90863,73.5557 62.51808,85.9569 70.25195,155.2773 4.75276,42.6006 2.2244,71.5502 -9.06445,103.7637 -8.61149,24.5734 -15.72284,61.2769 -15.80274,81.5625 -0.1714,43.7767 -80.55817,284.3159 -142.86718,427.498 -24.30618,55.8542 -49.39662,130.5949 -55.75586,166.0899 -6.35938,35.495 -20.36996,84.5868 -31.13477,109.0918 -10.76493,24.505 -17.18265,54.075 -14.26172,65.7129 2.92079,11.6377 29.30606,37.6867 58.63281,57.8847 29.32674,20.1982 81.51114,68.2076 115.96485,106.6895 l 62.64258,69.9668 -17.64844,32.7715 c -9.7062,18.0233 -14.68243,37.5662 -11.05859,43.4296 9.81218,15.8766 -22.84474,238.8256 -40.86133,278.961 -9.12915,20.3366 -19.18407,85.2687 -24.24219,156.5449 -5.15055,72.5803 -15.17444,136.7692 -24.80859,158.8574 -10.53961,24.1636 -15.84747,62.6388 -15.24805,110.5352 0.0573,4.579 6.68521,30.1605 18.29492,71.6797 l 608.74806,0 -13.0508,-204.7207 12.5527,44.6777 c 6.8312,24.3128 113.4357,84.721 128.2286,160.043 l 440.6425,0 c 9.018,-71.1303 20.4377,-184.893 21.8614,-244.4356 1.4362,-60.0685 7.7191,-121.7934 13.9609,-137.166 6.2415,-15.3727 11.3477,-64.9189 11.3477,-110.1035 0,-76.2383 1.6543,-82.9073 22.9785,-92.6231 21.4911,-9.7921 23.9621,-20.3403 38.1836,-162.9355 8.3631,-83.8557 15.9154,-176.7885 16.7832,-206.5176 0.896,-30.6957 10.1389,-71.7358 21.3886,-94.9746 10.8956,-22.5071 20.093,-47.3298 20.4395,-55.1621 0.3461,-7.8323 5.1073,-3.0718 10.5801,10.5801 17.7111,44.1803 19.6895,236.3696 3.0234,293.6992 -8.2419,28.3508 -14.1082,55.4065 -13.0351,60.123 1.0732,4.7166 -9.5204,33.1475 -23.5411,63.1817 -30.7243,65.8158 -43.2972,119.1445 -28.0898,119.1445 14.4327,0 13.1809,50.8034 -3.1777,128.916 -14.4549,69.0209 -12.1019,91.2494 8.8105,83.2246 14.2395,-5.4643 28.2654,40.3604 26.9961,88.2032 -0.3985,15.017 3.3299,27.3027 8.2852,27.3027 29.6866,0 66.3767,37.8908 86.6953,229.543 l 370.0293,0 19.9062,-0.1602 c 0,0 -20.92,-190.8242 -13.1484,-190.8242 9.1513,0 122.3154,72.6587 152.0254,130.8965 10.5109,20.6035 36.8101,51.3331 44.459,60.0879 l 527.1933,0 c -1.7935,-6.5284 -9.3835,-33.4571 -16.2851,-46.0938 -66.8056,-122.3171 -95.5832,-243.9767 -102.9395,-252.4453 -14.5591,-16.7606 -23.4377,-35.8357 -84.9707,-182.5508 l -40.957,-97.6523 14.6347,-112.3047 c 14.8697,-114.1205 13.1017,-147.274 -9.2754,-173.9316 -8.6755,-10.3351 -10.9062,-36.5286 -7.2871,-85.5899 l 5.2149,-70.6992 59.5058,-6.2188 c 32.7277,-3.4207 85.0343,-17.6771 116.2364,-31.6796 l 56.7304,-25.459 -23.9668,-81.3028 c -14.9046,-50.5628 -26.0622,-119.5146 -29.5097,-182.3632 l -5.543,-101.0567 36.6113,-6.8691 c 20.1366,-3.7779 54.2593,-4.0467 75.8282,-0.5977 33.6755,5.3849 52.1962,-0.2401 131.0839,-39.8144 50.5269,-25.347 110.3023,-58.7411 132.834,-74.209 l 40.9668,-28.1231 6.3086,47.5684 c 7.0176,52.8997 50.8772,132.3004 115.25,208.6426 39.9502,47.3787 41.0932,50.5432 26.0274,72.0527 -11.8744,16.9529 -14.2391,35.4229 -9.5938,74.9473 3.6322,30.9039 1.9578,57.6128 -4.0762,65.0195 -5.6324,6.9137 -20.1451,46.0814 -32.25,87.0371 -25.8582,87.489 -46.37,129.9856 -87.8593,182.0215 -25.2813,31.7076 -28.4249,41.1287 -18.8399,56.4766 8.7038,13.9317 8.7144,24.0142 0.049,41.373 -19.3053,38.6707 -42.4853,207.4249 -44.8847,326.7656 -2.5243,125.5546 21.248,423.2693 22.3554,437.0567 l 472.0528,0 c 3.8837,-11.6672 13.9265,-46.8313 14.6582,-100.4707 0.4842,-35.495 6.758,-77.9399 13.9414,-94.3223 l 13.0605,-29.7852 10.9004,39.7149 c 5.9958,21.8431 13.7965,70.9894 17.334,109.2148 0.7227,7.8091 1.8152,36.1892 3.1367,75.6485 l 1089.8887,0 c 2.7926,-10.0861 13.8631,-51.4777 14.3125,-75.4336 0.8159,-43.5051 23.1291,69.1002 24.377,75.4336 79.5293,-3.6749 513.2519,-3.7227 513.2519,-3.7227 0,0 11.7861,-431.1808 17.6113,-469.8144 7.3083,-48.4695 7.4221,-78.5819 0.3653,-97.1426 -5.6248,-14.7943 -11.9242,-115.6145 -13.9981,-224.0449 l -3.7715,-197.1465 109.5684,-37.5039 c 60.2631,-20.628 118.2797,-46.2153 128.9238,-56.8594 21.3258,-21.3257 21.2701,-22.6632 -8.164,-200.7129 -9.0274,-54.6078 -17.6904,-150.668 -19.25,-213.4668 -2.6306,-105.9125 -5.7247,-121.7269 -42.7403,-218.4297 -32.4602,-84.8022 -41.0125,-121.6209 -45.8418,-197.3535 l -5.9375,-93.1016 52.1075,7.4395 c 28.6588,4.091 77.7977,6.8784 109.1972,6.1934 31.3993,-0.6846 57.0899,0.713 57.0899,3.1054 0,2.3925 -4.9143,16.9262 -10.92,32.2989 -14.6361,37.4628 -18.6077,181.2596 -4.9375,178.7695 11.4744,-2.0902 26.9678,58.6585 51.7383,202.8847 13.8984,80.9233 14.5924,107.9912 4.541,176.7325 -6.528,44.6452 -18.5043,99.9385 -26.6152,122.873 -14.5828,41.2346 -14.4427,41.9426 12.6367,63.5977 l 27.3848,21.8984 -30.3945,37.6738 c -18.0299,22.3466 -40.716,38.9149 -55.7618,40.7246 -21.4252,2.5771 -29.2752,13.5992 -50.5371,70.961 -27.4229,73.9829 -70.4342,230.1448 -80.7949,293.3476 -3.5807,21.843 -13.3567,59.8211 -21.7246,84.3946 -12.4881,36.6716 -13.9984,74.5018 -8.4316,211.084 4.6035,112.9455 2.8715,194.2835 -5.3926,253.1816 -10.2274,72.8899 20.4778,193.0618 22.8379,202.1387 l 465.0351,0 -16.8867,-1.5528 c 0,0 15.5511,-35.5921 44.7539,-85.8066 12.7125,-21.8592 10.5886,70.5617 10.1055,87.3594 l 467.8691,0 c 0.9804,-2.318 0.7327,-1.6753 1.9805,-4.8789 7.6821,-25.9565 146.7383,-498.2146 146.7383,-673.7559 0,-164.1205 -23.813,-333.1963 -50.418,-357.9824 -13.3405,-12.4287 -19.084,-31.165 -19.084,-62.2598 0,-31.2613 0.3132,-40.4887 10.4024,-40.8281 3.9479,-0.1328 9.3936,1.0951 16.9023,2.8965 32.7953,7.8677 15.2669,-8.3071 110.5508,102.0078 l 80.5762,93.2871 0,63.582 c 0,39.2192 -6.17,75.5133 -16.1016,94.7188 -8.8557,17.125 -19.926,73.8689 -24.6016,126.0976 -18.7666,209.63 -38.0643,346.3736 -57.5371,407.7149 -19.7046,62.0708 -19.8041,65.1057 -2.5781,79.4297 25.7526,21.4141 6.0292,152.9627 4.1504,165.0918 0.6433,2.9874 0.7583,3.0916 1.1504,4.8789 l 372.2637,0 78.6464,-21.041 18.7813,-54.6075 95.1445,-2.832 c 113.8913,-3.3911 89.8907,84.5215 89.8907,84.5215 l 405.0078,-1.9883 49.5468,-178.9883 51.1817,-17.1113 c 66.8688,-22.3574 108.9472,185.9004 108.9472,185.9004 l 985.0469,10.9687 c 0,0 36.8834,-388.8841 82.9785,-261.4941 34.4877,95.3114 128.5528,268.6055 128.5528,268.6055 l 429.625,-6.0293 c 0,0 -44.897,-187.4609 -90.0176,-337.459 -44.3553,-147.4534 -29.7267,-144.9872 -28.3125,-160.8047 0,0 -6.2722,-41.5682 -16.0899,-68.1504 -16.4195,-44.4572 -113.4208,-250.7619 -113.8339,-351.4023 -0.095,-23.0837 10.6757,-70.7891 23.9336,-106.0118 13.2578,-35.2226 27.1004,-85.5883 30.7636,-111.9238 11.4168,-82.0822 67.6733,-178.1037 156.0274,-266.3144 43.757,-43.6861 139.2197,-159.4111 212.1368,-257.168 72.918,-97.7567 143.371,-184.8811 156.564,-193.6094 13.193,-8.7283 60.588,-44.2939 105.323,-79.0351 57.978,-45.0261 78.272,-66.2301 70.668,-73.834 -7.604,-7.6038 -6.064,-15.7528 5.359,-28.375 8.814,-9.7389 17.656,-31.731 19.652,-48.8711 3.522,-30.2537 2.625,-31.0469 -30.767,-27.1485 -22.137,2.5843 -36.157,-0.5694 -39.336,-8.8496 -7.065,-18.4117 -34.941,-15.903 -77.655,6.9903 -46.424,24.8824 -47.05,24.8332 -47.05,-3.7481 0,-26.4461 -23.414,-51.0047 -39.28,-41.1992 -5.7,3.5228 -10.487,13.9594 -10.638,23.1934 -0.152,9.2341 -13.51,34.2781 -29.684,55.6523 -16.173,21.3743 -38.189,62.3366 -48.924,91.0274 -12.821,34.2678 -35.851,67.5737 -67.1227,97.0761 -26.182,24.7013 -63.2407,65.1091 -82.3535,89.7949 -40.5152,52.3292 -49.6317,55.6932 -49.6817,18.3321 -0.021,-15.0171 -9.2232,-42.3736 -20.4512,-60.791 -25.388,-41.6431 -19.2503,-63.7123 15.3067,-55.0391 18.993,4.7671 25.039,2.4296 25.039,-9.6836 0,-8.7831 4.7488,-15.9707 10.5528,-15.9707 5.804,0 9.7571,7.8188 8.7851,17.375 -3.268,32.1345 0.4395,36.1677 15.4375,16.791 12.435,-16.0657 13.9093,-16.3805 8.8653,-1.8965 -3.328,9.5564 -1.6505,17.375 3.7265,17.375 19.243,0 34.2846,-29.8916 28.6836,-57 -3.113,-15.0672 -9.7111,-49.2111 -14.6601,-75.875 -5.016,-27.0196 -16.1997,-52.5083 -25.2657,-57.582 -8.947,-5.0068 -16.2675,-19.1613 -16.2675,-31.4531 0,-34.8197 -22.8096,-74.8839 -44.4356,-78.0469 -12.981,-1.8985 -25.0637,-17.6516 -35.7207,-46.5742 -8.857,-24.0382 -23.4868,-49.1032 -32.5098,-55.7012 -9.023,-6.5981 -16.4062,-21.0149 -16.4062,-32.0371 0,-22.5508 30.7175,-37.3657 96.4805,-46.5312 93.0151,-12.9635 110.3725,-36.6614 108.3125,-147.8946 -0.981,-52.9932 2.5251,-71.1465 16.1211,-83.4511 24.8861,-22.5235 22.5091,-29.2857 -27.3047,-77.6993 -37.372,-36.3213 -44.6954,-49.5722 -44.7754,-81.0254 -0.053,-20.6815 -10.8835,-60.7657 -24.0645,-89.0761 -13.2341,-28.4238 -21.5635,-60.657 -18.6015,-71.9825 2.95,-11.2802 0.7294,-20.5097 -4.9336,-20.5097 -5.664,0 -13.3055,-13.6898 -16.9805,-30.4219 -4.049,-18.4344 -16.0962,-34.7119 -30.5742,-41.3086 -13.141,-5.9875 -23.8945,-15.417 -23.8945,-20.9531 0,-5.5362 -10.3396,-0.3501 -22.9786,11.5234 -12.6382,11.8733 -27.1588,21.5393 -32.2675,21.4903 -5.1089,-0.053 -28.9062,-15.6903 -52.8829,-34.75 -48.2215,-38.3323 -58.313,-40.8545 -85.0996,-21.2676 -24.2653,17.7431 -10.6932,38.0976 22.8633,34.289 14.5201,-1.6479 27.4694,1.4728 28.7754,6.9336 4.2596,17.8081 -85.7262,8.9837 -107.2773,-10.5195 -19.5241,-17.6693 -20.2114,-17.573 -25.7559,3.6289 -4.1116,15.7234 -13.2458,21.7832 -32.8418,21.7832 -40.7521,0 -88.8247,19.5594 -100.1699,40.7578 -5.5375,10.3472 -18.5841,18.8145 -28.9922,18.8145 -10.4083,0 -39.7049,20.4865 -65.1035,45.5254 -37.2379,36.7108 -50.8538,44.3516 -70.3242,39.4648 -22.0985,-5.5464 -23.094,-4.3762 -11.7422,13.8008 10.5365,16.8718 9.4518,22.1135 -7.2071,34.8379 -10.7853,8.238 -37.2893,19.9394 -58.8984,26.0039 -33.274,9.3381 -36.6015,12.5306 -21.7363,20.8496 9.654,5.4027 23.9842,7.3557 31.8437,4.3398 18.7419,-7.1919 18.1418,2.9651 -1.4531,24.6172 -11.2828,12.467 -24.9397,15.903 -48.209,12.127 -27.7326,-4.5005 -35.5694,-0.9084 -53.7578,24.6348 -26.1965,36.7895 -29.008,60.4655 -4.8047,40.4628 15.9436,-13.1765 102.5987,-19.6934 102.6387,-7.7187 0.01,3.2494 -9.1675,14.2205 -20.3945,24.3809 -16.9741,15.3613 -23.7037,16.4199 -39.9414,6.2792 -16.1201,-10.0671 -20.5626,-9.4923 -25.4688,3.293 -3.2688,8.5181 1.6245,23.8506 10.875,34.0723 15.4179,17.0366 15.5268,21.081 1.3125,48.5683 -16.9841,32.8439 -44.5006,46.1313 -75.2949,36.3575 -14.417,-4.5758 -19.8574,-1.7839 -19.8574,10.1894 0,9.0704 8.9358,18.8275 19.8574,21.6836 25.2236,6.596 24.9163,12.2898 -2.8789,53.5352 -25.3837,37.6668 -44.1567,42.5567 -60.5762,15.7793 -8.7429,-14.2583 -7.3093,-20.7075 6.959,-31.3145 23.2205,-17.2621 4.4824,-29.9378 -22.7285,-15.375 -13.8085,7.39 -20.0141,20.6876 -19.9102,42.6563 0.1962,41.1635 8.6931,53.5979 42.4102,62.0605 22.0048,5.5227 25.2011,9.6309 16.0605,20.6445 -6.2761,7.5624 -25.5072,13.75 -42.7363,13.75 -17.229,0 -41.256,6.9544 -53.3926,15.4551 -18.9207,13.2526 -22.0664,24.5768 -22.0664,79.4297 0,36.0299 -4.3358,63.9746 -9.9277,63.9746 -5.4607,0 -9.9297,4.4667 -9.9297,9.9278 0,16.6044 28.4715,11.0817 38.3867,-7.4473 5.1139,-9.5564 12.5326,-38.9488 16.4863,-65.3164 5.5477,-36.9973 12.5791,-50.3961 30.8067,-58.7012 12.9907,-5.9191 26.0958,-8.285 29.123,-5.2578 7.6063,7.6063 -20.6615,72.9014 -44.9023,103.7187 -21.7154,27.6066 -17.6857,51.4698 5.4492,32.2696 24.0097,-19.9262 15.4542,3.8158 -20.7422,57.5644 -19.1128,28.3808 -34.75,58.2165 -34.75,66.3008 0,25.878 -16.5811,25.9941 -28.334,0.1992 -14.6105,-32.0667 -14.3943,-33.9726 3.8614,-33.9726 11.993,0 13.0519,-4.0925 4.9648,-19.2032 -5.6529,-10.5625 -10.2773,-36.566 -10.2773,-57.7832 0,-29.0714 -6.2992,-44.0531 -25.5606,-60.8007 -19.3572,-16.8309 -22.9285,-25.3915 -14.7207,-35.2813 5.9608,-7.1823 8.1609,-21.4448 4.8906,-31.6933 -5.6697,-17.7664 -5.2209,-17.7425 9.6543,0.5 19.4227,23.8192 34.3151,11.7781 17.9141,-14.4844 -16.9067,-27.072 -15.0397,-31.5142 7.3691,-17.5196 29.1708,18.2174 36.5295,1.3716 9.3047,-21.3007 -13.0603,-10.8764 -18.1599,-19.9239 -11.334,-20.1055 17.8104,-0.474 15.3863,-20.1875 -2.4824,-20.1875 -22.2724,0 -18.1179,-34.0097 11.2285,-91.9219 23.7176,-46.8049 25.5761,-58.6155 20.1973,-128.3672 -3.5079,-45.491 -2.0142,-79.2368 3.6641,-82.7461 5.2739,-3.2594 9.5898,-37.0264 9.5898,-75.039 0,-59.4749 -5.3432,-80.5095 -38.3125,-150.8262 -21.072,-44.9421 -44.0252,-96.405 -51.0059,-114.3613 -6.9809,-17.9561 -21.1412,-37.1692 -31.4668,-42.6953 -10.3255,-5.5261 -16.2342,-14.1541 -13.1308,-19.1758 13.4235,-21.7193 -67.8442,-39.5176 -180.4453,-39.5176 -153.0316,0 -166.5541,6.6548 -286.3242,140.9063 -56.247,63.0476 -110.3267,138.5583 -106.8262,149.1621 1.2894,3.9062 -1.8465,18.13 -6.9707,31.6074 -6.4622,16.997 -5.8322,25.6666 2.0586,28.2969 7.7212,2.5737 4.8292,17.0271 -9.0039,44.9863 -13.3805,27.0444 -16.6075,42.5552 -9.3926,45.1543 6.0448,2.1774 8.4463,6.7435 5.3359,10.1465 -9.0454,9.8961 -78.7383,-59.0135 -78.7383,-77.8535 0,-11.1192 5.2075,-15.0995 14.8926,-11.3829 18.5997,7.1374 18.5997,-10.77 0,-43.3066 -16.3938,-28.678 -19.5662,-79.4277 -4.9648,-79.4277 5.4607,0 9.9297,8.4393 9.9297,18.7558 0,10.3165 9.3088,29.3056 20.6875,42.1973 17.6637,20.0126 19.539,20.5361 12.8222,3.582 -4.3267,-10.9216 -6.8737,-43.0108 -5.6582,-71.3105 1.2154,-28.2997 -1.8996,-53.9943 -6.9238,-57.0996 -5.0243,-3.1051 -6.8789,-14.2741 -4.1211,-24.8203 4.0077,-15.3259 0.969,-18.1175 -15.1348,-13.9063 -16.6847,4.3631 -22.2827,-1.8617 -32.5722,-36.2051 -10.0506,-33.5453 -9.9863,-42.9789 0.334,-49.3574 17.5981,-10.8761 -3.6583,-50.125 -27.1465,-50.125 -9.5143,0 -27.655,-7.2535 -40.3125,-16.1191 -17.4632,-12.2318 -21.9873,-23.1135 -18.7578,-45.1172 4.3435,-29.5945 -5.903,-46.4882 -17.1543,-28.2832 -11.8443,19.1647 -20.1547,9.9801 -20.0547,-22.1778 0.09,-30.1502 -2.3511,-32.471 -37.1934,-35.3535 -28.4726,-2.3554 -43.6363,-11.0397 -64.1308,-36.7246 -20.3558,-25.511 -29.96,-31.0514 -39.7461,-22.9297 -9.6031,7.97 -22.9107,3.7755 -52.0215,-16.3984 -21.5143,-14.9093 -44.931,-25.0076 -52.0371,-22.4414 -7.1063,2.5665 -20.3841,-1.8243 -29.5059,-9.7559 -14.7061,-12.7876 -17.8379,-12.0784 -27.6523,6.2598 -13.205,24.6737 -32.425,26.2049 -64.5703,5.1426 -21.5189,-14.0998 -26.4996,-14.0998 -53.7657,0 -39.5174,20.4351 -54.0641,19.6053 -75.7148,-4.3184 -32.6959,-36.1288 -106.4233,-16.0723 -90.7793,24.6953 6.9031,17.9894 -4.8286,19.6911 -21.4141,3.1055 -9.2667,-9.2668 -11.914,-7.5924 -11.914,7.5391 0,10.7001 -8.2788,24.6247 -18.3965,30.9433 -25.7098,16.056 -41.5147,3.6306 -207.4492,-163.0879 -136.6647,-137.3105 -142.0514,-141.4844 -182.6075,-141.4844 -29.1689,0 -67.0972,-12.5951 -125.5957,-41.7109 -62.1829,-30.9495 -96.0741,-41.8379 -131.3496,-42.1973 -26.1485,-0.2664 -45.5865,2.6896 -43.1953,6.5704 8.2885,13.4528 -140.1425,51.6294 -202.4668,52.0742 -51.4482,0.3669 -63.1638,3.5977 -67.9844,18.75 -7.0593,22.1906 40.7113,76.0156 67.4649,76.0156 9.8999,0 17.6888,3.3497 17.3105,7.4453 -0.8098,8.772 -112.548,100.1252 -131.2422,107.2988 -9.06,3.4768 -18.987,-20.9759 -33.7578,-83.1562 -11.5078,-48.4447 -32.8902,-116.699 -47.5175,-151.6758 -14.6273,-34.9767 -33.3824,-88.14604 -41.6778,-118.15624 -8.2954,-30.0099 -23.9061,-72.45692 -34.6894,-94.32422 -10.7833,-21.8672 -27.9538,-66.06731 -38.1563,-98.22461 -10.6559,-33.5865 -31.7798,-72.11707 -49.6387,-90.54297 -20.8881,-21.5512 -43.9174,-67.52302 -70.1875,-140.10742 -46.7973,-129.3014 -65.7484,-157.87656 -104.2109,-157.13086 -15.3872,0.2981 -36.4531,-7.93357 -46.8125,-18.29297 -12.7492,-12.7494 -25.7561,-16.68599 -40.2559,-12.18359 -11.7819,3.6584 -38.5833,7.42303 -59.5585,8.36523 -34.3034,1.5405 -39.4923,-1.53204 -51.6192,-30.55664 -34.7395,-83.1458 -82.5893,1.05889 -55.0098,96.80469 3.9324,13.6519 2.7231,32.1432 -2.6875,41.0918 -7.0443,11.65 -4.1197,29.97571 10.3008,64.53711 11.0763,26.5464 25.6656,68.9172 32.4199,94.1582 9.3699,35.0146 27.3555,60.83549 75.8809,108.92969 34.9808,34.6697 63.6016,70.82631 63.6016,80.34961 0,26.787 30.1026,109.46386 50.1582,137.75976 9.9123,13.9851 21.085,38.55822 24.8281,54.60742 3.743,16.0493 12.242,38.11561 18.8867,49.03711 18.5118,30.4263 37.5196,112.5671 41.3555,178.7168 1.8997,32.7646 3.9709,66.2736 4.6035,74.4648 0.6325,8.191 -5.9098,64.039 -14.5391,124.1075 -8.6292,60.0686 -15.7763,117.3791 -15.8828,127.3554 -0.1065,9.9764 -13.5982,31.5436 -29.9804,47.9258 -16.3823,16.3823 -29.7852,34.0092 -29.7852,39.1719 0,12.9337 -79.6598,98.3008 -91.7285,98.3008 -5.3726,0 -30.4929,16.9062 -55.8242,37.5683 -57.711,47.0731 -141.2049,85.8044 -167.1914,77.5567 -12.7815,-4.0568 -25.7352,0.7009 -37.5977,13.8086 -9.9536,10.9988 -22.7451,19.9961 -28.4258,19.9961 -5.6809,0 -22.5941,11.75 -37.584,26.1113 -19.8271,18.9957 -32.1512,23.8986 -45.2226,17.9883 -9.8824,-4.4683 -25.6999,-8.3998 -35.1504,-8.7364 -21.8111,-0.7768 -22.2573,-6.7294 -4.3535,-57.9765 8.0554,-23.0577 23.9779,-82.1344 35.3847,-131.2813 13.6348,-58.7463 30.9622,-103.8994 50.5801,-131.8066 27.8708,-39.6471 30.1148,-49.6304 33.9903,-151.2383 l 4.1484,-108.7891 -31.4258,-26.4355 c -17.2845,-14.5398 -36.7951,-39.1909 -43.3574,-54.7813 -6.5624,-15.5904 -18.989,-28.3457 -27.6152,-28.3457 -8.6261,0 -18.3555,-6.9598 -21.6192,-15.4648 -3.2636,-8.5051 -12.0635,-13.1097 -19.5566,-10.2344 -7.4928,2.8752 -30.2193,-6.0345 -50.502,-19.7988 -30.1942,-20.4904 -43.8936,-23.8405 -75.5957,-18.4844 -24.3734,4.1179 -47.4605,1.8628 -62.3125,-6.0859 -18.2852,-9.786 -29.304,-10.0261 -48.9687,-1.0664 -13.9556,6.3587 -37.855,11.5625 -53.1114,11.5625 -19.0776,0 -40.6325,12.6386 -69.0332,40.4785 -22.7122,22.2633 -41.2949,42.9972 -41.2949,46.0742 0,10.2949 -43.6801,96.9233 -57.1328,113.3086 -10.9256,13.3073 -11.1276,30.9457 -1.1328,99.2871 6.6848,45.7076 13.1552,118.0484 14.3789,160.7559 2.7019,94.2966 7.0879,118.9269 39.1797,220.041 13.7754,43.4029 22.8439,84.6518 20.1523,91.666 -9.0094,23.4783 -44.1597,13.8412 -59.7949,-16.3945 -8.2903,-16.0314 -41.6527,-49.6004 -74.1387,-74.5977 -32.4861,-24.9975 -68.5664,-58.7944 -80.1797,-75.1035 -13.5299,-19.0013 -29.7896,-29.6523 -45.2617,-29.6523 -13.2801,0 -24.1562,-3.3516 -24.1562,-7.4473 -0.01,-4.0955 -24.5094,-34.2529 -54.4512,-67.0176 -29.9417,-32.7646 -54.5067,-65.0487 -54.5957,-71.7422 -0.086,-6.6935 -15.4026,-26.0426 -34.0352,-42.998 -18.6327,-16.9554 -38.4989,-42.7557 -44.1464,-57.3321 -5.6475,-14.5766 -12.0609,-106.9249 -14.252,-205.2187 -3.3092,-148.4422 -1.147,-187.4081 12.7598,-230.0313 9.2086,-28.2237 14.7953,-64.58122 12.416,-80.79292 -2.6064,-17.7578 2.5346,-39.94349 12.9297,-55.80859 13.6806,-20.8794 16.0552,-39.17559 11.4648,-88.33399 -7.821,-83.7531 5.8202,-136.35194 53.6172,-206.73632 52.3768,-77.1283 62.9516,-105.27655 78.457,-208.84376 18.5074,-123.61808 0.6427,-164.38257 -79.5527,-164.10546 z m 2040.0215,967.74214 c 1.3015,-0.018 2.6112,-0.018 3.9316,0 11.8309,0.1645 24.4629,1.7917 38.6524,4.6016 51.233,10.1458 107.494,50.0554 96.2383,68.2676 -8.4154,13.6166 10.5838,41.4755 72.1582,105.8105 33.6615,35.1707 67.7885,61.5267 82.2578,63.5274 15.0316,2.0783 29.733,13.8961 37.4922,30.1367 7.0205,14.6946 20.4661,29.3298 29.8789,32.5215 26.0909,8.8467 53.242,73.53 40.7011,96.9629 -5.6042,10.4713 -9.2164,55.5628 -8.0293,100.205 1.8004,67.7012 -2.0925,91.5175 -23.4629,143.545 -14.0915,34.3071 -37.0663,75.9774 -51.0546,92.6015 -13.9882,16.6241 -25.4336,35.8925 -25.4336,42.8184 0,6.9257 -8.1699,19.9859 -18.1563,29.0234 -26.5361,24.0148 -38.2696,18.1581 -32.5293,-16.2383 0.7204,-4.3168 -3.8719,-17.5312 -10.2051,-29.3652 -6.3333,-11.8339 -11.145,-34.5128 -10.6933,-50.3984 1.0573,-37.1818 -39.8168,-151.5283 -85.5449,-239.3145 -73.6159,-141.3241 -201.3456,-242.4778 -292.3536,-231.5254 -23.0931,2.7793 -46.4553,6.113 -51.916,7.4082 -5.4609,1.2948 -24.4478,1.826 -42.1953,1.1797 -28.8083,-1.0497 -32.2695,-4.3012 -32.2695,-30.3164 0,-16.0269 -4.5648,-41.1467 -10.1445,-55.8223 -9.4092,-24.7485 -8.5131,-26.256 12.3632,-20.7968 30.3584,7.9388 90.3489,-22.5044 153.5821,-77.9395 54.6054,-47.8711 86.3853,-66.3202 126.7324,-66.8926 z m 780.4219,151.3047 c 5.7832,0 7.7539,4.4669 4.3789,9.9278 -3.3749,5.4607 -8.1076,9.9297 -10.5157,9.9297 -2.408,0 -4.3789,-4.469 -4.3789,-9.9297 0,-5.4609 4.7327,-9.9278 10.5157,-9.9278 z m 524.9179,120.3828 c 8.5762,0.2555 20.5723,9.9825 20.5723,19.2032 0,5.1384 -4.2033,9.3437 -9.3418,9.3437 -11.7144,0 -24.2469,-19.3644 -17.1348,-26.4765 1.3336,-1.3335 3.0994,-1.9773 5.086,-2.0645 0.269,-0.012 0.5417,-0.014 0.8183,-0.01 z m 129.2032,117.9043 c 5.783,0 10.5136,4.4689 10.5136,9.9297 0,5.4608 -1.9708,9.9278 -4.3789,9.9278 -2.4082,0 -7.1386,-4.467 -10.5136,-9.9278 -3.3749,-5.4608 -1.4042,-9.9297 4.3789,-9.9297 z m 1616.8203,40.9219 0,0 c 4.0017,-0.058 7.523,0.8649 9.3789,2.7207 3.2991,3.2992 -2.5649,5.6458 -13.0313,5.2148 -11.5664,-0.4763 -13.9184,-2.8306 -5.998,-6 3.1356,-1.255 6.538,-1.8927 9.6504,-1.9375 z m -3595.7266,349.4395 c 1.4297,-0.03 -0.9583,5.6075 -6.1836,15.7383 -10.8085,20.955 -10.2906,23.074 4.2656,17.4882 9.1101,-3.4957 14.025,-2.2475 10.9219,2.7735 -3.1031,5.0208 -1.1025,11.9351 4.4473,15.3652 5.5498,3.4299 10.0918,24.3227 10.0918,46.4277 0,31.6462 3.1659,38.9746 14.8926,34.4746 34.6543,-13.2981 -5.2914,83.5768 -57.5137,139.4805 -28.688,30.7109 -31.9774,31.6315 -112.168,31.4082 -45.437,-0.1267 -88.1586,3.1973 -94.9375,7.3867 -14.8365,9.1696 7.5101,-23.178 124.1074,-179.6484 69.8407,-93.7244 98.4225,-130.8176 102.0762,-130.8945 z m 2071.9375,97.0742 c 1.1518,-0.083 3.7822,2.0935 8.0723,6.3515 6.779,6.7351 9.8363,14.7459 6.7793,17.8028 -3.0569,3.0569 -8.6075,-2.4524 -12.336,-12.2442 -3.0308,-7.9596 -3.9964,-11.8031 -2.5156,-11.9101 z m 6.6035,80.5351 c 6.8629,-0.3177 10.166,10.0942 10.166,31.8868 0,19.5677 -4.6081,35.5781 -10.2402,35.5781 -23.5804,0 -25.4986,-59.2559 -2.1699,-67.0235 0.7864,-0.2618 1.5342,-0.4085 2.2441,-0.4414 z m -1988.2949,10.8301 c 1.3071,0.1819 1.8898,3.3955 2.125,9.4746 0.3694,9.5564 7.7465,17.375 16.3926,17.375 8.6463,0 13.8833,5.5842 11.6387,12.4102 -5.0384,15.3218 -86.9317,22.8748 -86.9317,8.0176 0,-5.7749 8.2526,-10.5 18.3399,-10.5 10.0869,0 23.1896,-10.0532 29.1152,-22.3399 4.5569,-9.4487 7.35,-14.1638 9.0488,-14.4336 0.094,-0.015 0.1844,-0.016 0.2715,-0 z m 2809.8555,126.6406 c 4.7456,0 12.8912,3.141 22.6133,9.4239 12.8347,8.2944 12.5741,9.6454 -1.8946,9.7773 -9.2341,0.084 -19.5509,-4.3165 -22.9258,-9.7773 -3.883,-6.2829 -2.5386,-9.4239 2.2071,-9.4239 z m -5550.4414,158.5059 c 6.5038,-0.084 14.586,4.3164 17.9609,9.7774 7.6183,12.3265 4.1816,12.3266 -14.8926,0 -8.9485,-5.7832 -10.1733,-9.6884 -3.0683,-9.7774 z m -47.0723,10.9121 c 3.4861,0.068 7.8387,2.2332 12.5781,6.9727 8.9545,8.9547 8.991,14.5051 0.1582,23.3379 -8.8327,8.8329 -13.1369,7.5502 -18.1035,-5.3926 -5.783,-15.0704 -2.3022,-25.0686 5.3672,-24.918 z m -52.3437,12.1426 c 0.9875,0.229 1.5658,4.985 2.0468,14.5195 1.4008,27.7696 24.0296,73.253 45.1758,90.8028 19.1845,15.9219 19.4591,3.6533 0.6543,-29.2422 -24.7249,-43.2517 -16.1448,-44.9681 24.8223,-4.9649 42.3369,41.3409 49.7584,39.9267 23.5254,-4.4824 -11.1763,-18.9199 -13.3054,-32.551 -6.8809,-44.0312 8.479,-15.1511 12.3405,-14.5759 43.4902,6.4746 23.0969,15.6087 34.3548,31.0855 34.7032,47.7129 0.2838,13.5359 3.2187,28.984 6.5214,34.3281 8.8958,14.3937 -33.7328,96.0477 -56.5293,108.2812 -10.8385,5.8164 -25.9758,18.9134 -33.6386,29.1035 -7.6625,10.1901 -36.9521,28.7083 -65.086,41.1504 -28.1342,12.4423 -56.8668,29.5078 -63.8515,37.9239 -6.9846,8.4163 -25.7434,18.1663 -41.6856,21.6679 -15.9424,3.5016 -31.554,10.522 -34.6933,15.6016 -3.1393,5.0794 -19.6855,16.4634 -36.7676,25.2969 -17.0822,8.8335 -44.0741,19.7929 -59.9824,24.3554 -28.2552,8.1035 -28.805,7.5583 -23.7637,-23.5781 7.8297,-48.3569 78.7267,-248.5052 93.3105,-263.4238 10.6019,-10.8453 12.8243,-10.3134 12.8243,3.0683 0,8.9034 4.4688,13.4278 9.9297,10.0528 5.4607,-3.3749 9.9277,-19.2778 9.9277,-35.3379 0,-16.0599 4.3279,-29.1992 9.6172,-29.1992 5.2893,0 7.0455,6.7013 3.9023,14.8926 -3.1433,8.1911 -0.7675,14.8925 5.2774,14.8925 6.0451,0 11.1768,-7.8186 11.4062,-17.375 0.2619,-10.9367 7.059,-4.907 18.3418,16.2696 l 17.9238,33.6425 6.4805,-32.4023 c 3.5643,-17.8212 6.4805,-45.1064 6.4805,-60.6348 0,-20.24 3.9709,-26.7095 14.0254,-22.8515 8.2461,3.1644 15.9527,-2.0779 18.705,-12.7227 1.7249,-6.6707 2.9158,-9.9931 3.7872,-9.791 z m 175.3105,16.5078 c 7.9088,0 17.1829,11.1704 20.6094,24.8223 5.397,21.504 11.8454,24.8691 48.2383,25.1738 41.4237,0.3469 41.6622,0.5489 17.1855,14.541 -35.5128,20.301 -69.502,18.9529 -69.502,-2.7558 0,-9.7066 -6.9543,-27.5784 -15.455,-39.7149 -13.1465,-18.7691 -13.3072,-22.0664 -1.0762,-22.0664 z m 6265.1523,79.1426 c 7.6653,0.4187 25.6433,31.8928 29.8223,58.0273 3.3488,20.9414 18.936,52.0018 35.291,70.3203 16.111,18.046 26.8978,39.0597 23.9668,46.6973 -2.931,7.6375 -6.8975,13.8867 -8.8125,13.8867 -13.532,0 -83.75,-151.9069 -83.75,-181.1797 0,-5.5513 1.3362,-7.8692 3.4824,-7.7519 z m 104.5567,98.4082 c 1.945,-0.155 4.2663,0.9479 6.8867,3.5683 3.142,3.1413 4.0107,18.4055 1.9297,33.9219 l -3.7832,28.211 -8.086,-27.7657 c -6.0531,-20.7879 -3.8938,-37.382 3.0528,-37.9355 z M 7066.998,2842.6641 c 0.068,-0.01 0.1381,-0.01 0.209,0.01 5.771,0.9076 20.2891,61.7365 49.6817,207.666 13.9707,69.3625 34.326,149.9676 45.2343,179.1231 16.4185,43.882 18.5615,64.9076 12.4493,122.1035 -7.1916,67.2974 -8.0661,69.0158 -33.6368,66.0547 -17.5247,-2.0295 -27.893,-10.2826 -31.1875,-24.8223 -2.7145,-11.9797 -21.0591,-65.8431 -40.7656,-119.6972 -30.2069,-82.5497 -35.8294,-110.5979 -35.8164,-178.7168 0.012,-70.8296 22.4697,-240.6297 33.252,-251.4121 0.1816,-0.1818 0.375,-0.2837 0.58,-0.3047 z m 1951.8145,51.7734 0.1738,74.4648 c 0.095,40.9559 2.5788,83.4165 5.5196,94.3575 3.926,14.6067 -2.4544,24.5003 -24.0079,37.2324 -16.1449,9.5368 -34.249,17.3398 -40.2324,17.3398 -13.4345,0 -14.2662,-22.4272 -1.3125,-35.3808 5.2612,-5.2612 12.7075,-36.3129 16.5489,-69.0039 3.8415,-32.6912 15.1588,-72.8423 25.1484,-89.2246 z M 4405.8066,3508.375 c 4.8267,-0.2882 31.4015,10.8649 61.7286,26.0195 55.7112,27.8393 101.7088,78.2152 89.4824,97.9981 -2.7729,4.4864 -6.145,42.7343 -7.4942,84.9961 -2.5994,81.428 -12.019,105.0049 -22.0039,55.0801 -3.3132,-16.5654 -24.0157,-60.9257 -46.0058,-98.5782 -42.1948,-72.2474 -82.4051,-159.2765 -76.377,-165.3047 0.1232,-0.1231 0.3482,-0.1917 0.6699,-0.2109 z m -1519.4453,258.25 c -1.3839,0.1494 -2.3284,3.7692 -2.6113,10.6367 -0.4311,10.4664 1.9155,16.3304 5.2148,13.0313 3.2987,-3.2993 3.6513,-11.8621 0.7832,-19.0293 -1.2875,-3.2177 -2.4398,-4.7409 -3.3867,-4.6387 z m 1645.375,67.7227 c 10.2495,0.2105 9.1139,5.4902 4.2168,19.9863 -4.281,12.6725 -9.0212,54.9931 -10.5332,94.0449 -1.512,39.0517 -7.4272,87.9458 -13.1445,108.6523 -7.1688,25.9647 -7.3501,104.0694 -0.5859,251.6778 11.7178,255.7063 30.4277,358.8906 30.4277,358.8906 l -84.8301,0.1074 c 0,0 -4.1503,-143.7255 -4.6894,-239.289 -1.0337,-183.1482 -16.2091,-309.4597 -50.2071,-417.9258 -10.9668,-34.9884 -19.9974,-80.0012 -20.0664,-100.0274 -0.1193,-33.8909 2.7924,-37.4546 42.0684,-51.4902 23.2083,-8.2936 59.5558,-17.9156 80.7715,-21.3808 12.7119,-2.0764 21.2035,-3.3564 26.5722,-3.2461 z"
       transform="translate(0,-3908.2677)"
       id="path4190"
       inkscape:connector-curvature="0"
       sodipodi:nodetypes="sssssssssssssscsscssssssssssssssssssssssssssssssscscssssscccsscssscssssssssssssssssssssssscssssssscsssssscssssccsssssssssscccscccsscsssssssssscssssssscssscsssssscsccssssssssssssssssssscssssscsssssssscsssssscscsssscccsccscssssscsscsssssscccssccsssccssccscsscssssccssssssccsccssccsccsccssscsssssscccsssssscccssscsscccscccsssssscssssscccccsccccccsccscscsssssssccscssscccsscsssscssssccssssssscscscssssccssscccscsssssssscssscsssssssssssscccssssssssssssssssssscssssssssssscscsscssscssssssscscssscsssscsssscssssssssssssscscsccssssssscsscsscsssssssscssssssccsssssssscssscsssscsssssssscscscscsssscsssssccsssssssssssssssssccsssscssssscsscccssscscccscccscccsssscsccccsccssccccsssssccsscsscccccsssccsssssssccscscscsssssssscscccsscccscssssscscssscccccccccsssssscccccscssssccscssscccscccssscsccsscscs" />
    <rect
       style="opacity:1;fill:none;fill-opacity:1;stroke:#ff0000;stroke-width:5;stroke-linecap:square;stroke-linejoin:miter;stroke-miterlimit:4;stroke-dasharray:none;stroke-dashoffset:0;stroke-opacity:1"
       id="rect4137"
       width="1047.3622"
       height="1483.189"
       x="-1057.4897"
       y="5.12783"
       transform="matrix(0,-1,1,0,0,0)" />
    <rect
       style="opacity:1;fill:none;fill-opacity:1;stroke:#ff0000;stroke-width:5;stroke-linecap:square;stroke-linejoin:miter;stroke-miterlimit:4;stroke-dasharray:none;stroke-dashoffset:0;stroke-opacity:1"
       id="rect4137-3"
       width="1047.3622"
       height="1483.189"
       x="-8.5194807"
       y="5.12783"
       transform="matrix(0,-1,1,0,0,0)" />
    <rect
       style="opacity:1;fill:none;fill-opacity:1;stroke:#ff0000;stroke-width:5;stroke-linecap:square;stroke-linejoin:miter;stroke-miterlimit:4;stroke-dasharray:none;stroke-dashoffset:0;stroke-opacity:1"
       id="rect4137-6"
       width="1047.3622"
       height="1483.189"
       x="1040.1058"
       y="5.12783"
       transform="matrix(0,-1,1,0,0,0)" />
    <rect
       style="opacity:1;fill:none;fill-opacity:1;stroke:#ff0000;stroke-width:5;stroke-linecap:square;stroke-linejoin:miter;stroke-miterlimit:4;stroke-dasharray:none;stroke-dashoffset:0;stroke-opacity:1"
       id="rect4137-3-7"
       width="1047.3622"
       height="1483.189"
       x="2089.0762"
       y="5.12783"
       transform="matrix(0,-1,1,0,0,0)" />
    <rect
       style="opacity:1;fill:none;fill-opacity:1;stroke:#ff0000;stroke-width:5;stroke-linecap:square;stroke-linejoin:miter;stroke-miterlimit:4;stroke-dasharray:none;stroke-dashoffset:0;stroke-opacity:1"
       id="rect4137-3-7-5"
       width="1047.3622"
       height="1483.189"
       x="3137.874"
       y="5.12783"
       transform="matrix(0,-1,1,0,0,0)" />
    <rect
       style="opacity:1;fill:none;fill-opacity:1;stroke:#ff0000;stroke-width:5;stroke-linecap:square;stroke-linejoin:miter;stroke-miterlimit:4;stroke-dasharray:none;stroke-dashoffset:0;stroke-opacity:1"
       id="rect4137-35"
       width="1047.3622"
       height="1483.189"
       x="-1057.4899"
       y="1487.6392"
       transform="matrix(0,-1,1,0,0,0)" />
    <rect
       style="opacity:1;fill:none;fill-opacity:1;stroke:#ff0000;stroke-width:5;stroke-linecap:square;stroke-linejoin:miter;stroke-miterlimit:4;stroke-dasharray:none;stroke-dashoffset:0;stroke-opacity:1"
       id="rect4137-3-6"
       width="1047.3622"
       height="1483.189"
       x="-8.519681"
       y="1487.6392"
       transform="matrix(0,-1,1,0,0,0)" />
    <rect
       style="opacity:1;fill:none;fill-opacity:1;stroke:#ff0000;stroke-width:5;stroke-linecap:square;stroke-linejoin:miter;stroke-miterlimit:4;stroke-dasharray:none;stroke-dashoffset:0;stroke-opacity:1"
       id="rect4137-6-2"
       width="1047.3622"
       height="1483.189"
       x="1040.1058"
       y="1487.6392"
       transform="matrix(0,-1,1,0,0,0)" />
    <rect
       style="opacity:1;fill:none;fill-opacity:1;stroke:#ff0000;stroke-width:5;stroke-linecap:square;stroke-linejoin:miter;stroke-miterlimit:4;stroke-dasharray:none;stroke-dashoffset:0;stroke-opacity:1"
       id="rect4137-3-7-9"
       width="1047.3622"
       height="1483.189"
       x="2089.0759"
       y="1487.6392"
       transform="matrix(0,-1,1,0,0,0)" />
    <rect
       style="opacity:1;fill:none;fill-opacity:1;stroke:#ff0000;stroke-width:5;stroke-linecap:square;stroke-linejoin:miter;stroke-miterlimit:4;stroke-dasharray:none;stroke-dashoffset:0;stroke-opacity:1"
       id="rect4137-3-7-5-1"
       width="1047.3622"
       height="1483.189"
       x="3137.874"
       y="1487.6392"
       transform="matrix(0,-1,1,0,0,0)" />
    <rect
       style="opacity:1;fill:none;fill-opacity:1;stroke:#ff0000;stroke-width:5;stroke-linecap:square;stroke-linejoin:miter;stroke-miterlimit:4;stroke-dasharray:none;stroke-dashoffset:0;stroke-opacity:1"
       id="rect4137-2"
       width="1047.3622"
       height="1483.189"
       x="-1057.4899"
       y="2970.1504"
       transform="matrix(0,-1,1,0,0,0)" />
    <rect
       style="opacity:1;fill:none;fill-opacity:1;stroke:#ff0000;stroke-width:5;stroke-linecap:square;stroke-linejoin:miter;stroke-miterlimit:4;stroke-dasharray:none;stroke-dashoffset:0;stroke-opacity:1"
       id="rect4137-3-70"
       width="1047.3622"
       height="1483.189"
       x="-8.519681"
       y="2970.1504"
       transform="matrix(0,-1,1,0,0,0)" />
    <rect
       style="opacity:1;fill:none;fill-opacity:1;stroke:#ff0000;stroke-width:5;stroke-linecap:square;stroke-linejoin:miter;stroke-miterlimit:4;stroke-dasharray:none;stroke-dashoffset:0;stroke-opacity:1"
       id="rect4137-6-9"
       width="1047.3622"
       height="1483.189"
       x="1040.1058"
       y="2970.1504"
       transform="matrix(0,-1,1,0,0,0)" />
    <rect
       style="opacity:1;fill:none;fill-opacity:1;stroke:#ff0000;stroke-width:5;stroke-linecap:square;stroke-linejoin:miter;stroke-miterlimit:4;stroke-dasharray:none;stroke-dashoffset:0;stroke-opacity:1"
       id="rect4137-3-7-3"
       width="1047.3622"
       height="1483.189"
       x="2089.0759"
       y="2970.1504"
       transform="matrix(0,-1,1,0,0,0)" />
    <rect
       style="opacity:1;fill:none;fill-opacity:1;stroke:#ff0000;stroke-width:5;stroke-linecap:square;stroke-linejoin:miter;stroke-miterlimit:4;stroke-dasharray:none;stroke-dashoffset:0;stroke-opacity:1"
       id="rect4137-3-7-5-6"
       width="1047.3622"
       height="1483.189"
       x="3137.874"
       y="2970.1504"
       transform="matrix(0,-1,1,0,0,0)" />
    <rect
       style="opacity:1;fill:none;fill-opacity:1;stroke:#ff0000;stroke-width:5;stroke-linecap:square;stroke-linejoin:miter;stroke-miterlimit:4;stroke-dasharray:none;stroke-dashoffset:0;stroke-opacity:1"
       id="rect4137-35-0"
       width="1047.3622"
       height="1483.189"
       x="-1057.4899"
       y="4452.6616"
       transform="matrix(0,-1,1,0,0,0)" />
    <rect
       style="opacity:1;fill:none;fill-opacity:1;stroke:#ff0000;stroke-width:5;stroke-linecap:square;stroke-linejoin:miter;stroke-miterlimit:4;stroke-dasharray:none;stroke-dashoffset:0;stroke-opacity:1"
       id="rect4137-3-6-6"
       width="1047.3622"
       height="1483.189"
       x="-8.519681"
       y="4452.6616"
       transform="matrix(0,-1,1,0,0,0)" />
    <rect
       style="opacity:1;fill:none;fill-opacity:1;stroke:#ff0000;stroke-width:5;stroke-linecap:square;stroke-linejoin:miter;stroke-miterlimit:4;stroke-dasharray:none;stroke-dashoffset:0;stroke-opacity:1"
       id="rect4137-6-2-2"
       width="1047.3622"
       height="1483.189"
       x="1040.1058"
       y="4452.6616"
       transform="matrix(0,-1,1,0,0,0)" />
    <rect
       style="opacity:1;fill:none;fill-opacity:1;stroke:#ff0000;stroke-width:5;stroke-linecap:square;stroke-linejoin:miter;stroke-miterlimit:4;stroke-dasharray:none;stroke-dashoffset:0;stroke-opacity:1"
       id="rect4137-3-7-9-6"
       width="1047.3622"
       height="1483.189"
       x="2089.0759"
       y="4452.6616"
       transform="matrix(0,-1,1,0,0,0)" />
    <rect
       style="opacity:1;fill:none;fill-opacity:1;stroke:#ff0000;stroke-width:5;stroke-linecap:square;stroke-linejoin:miter;stroke-miterlimit:4;stroke-dasharray:none;stroke-dashoffset:0;stroke-opacity:1"
       id="rect4137-3-7-5-1-1"
       width="1047.3622"
       height="1483.189"
       x="3137.874"
       y="4452.6616"
       transform="matrix(0,-1,1,0,0,0)" />
    <rect
       style="opacity:1;fill:none;fill-opacity:1;stroke:#ff0000;stroke-width:5;stroke-linecap:square;stroke-linejoin:miter;stroke-miterlimit:4;stroke-dasharray:none;stroke-dashoffset:0;stroke-opacity:1"
       id="rect4137-8"
       width="1047.3622"
       height="1483.189"
       x="-1057.4899"
       y="5938.0244"
       transform="matrix(0,-1,1,0,0,0)" />
    <rect
       style="opacity:1;fill:none;fill-opacity:1;stroke:#ff0000;stroke-width:5;stroke-linecap:square;stroke-linejoin:miter;stroke-miterlimit:4;stroke-dasharray:none;stroke-dashoffset:0;stroke-opacity:1"
       id="rect4137-3-79"
       width="1047.3622"
       height="1483.189"
       x="-8.519681"
       y="5938.0244"
       transform="matrix(0,-1,1,0,0,0)" />
    <rect
       style="opacity:1;fill:none;fill-opacity:1;stroke:#ff0000;stroke-width:5;stroke-linecap:square;stroke-linejoin:miter;stroke-miterlimit:4;stroke-dasharray:none;stroke-dashoffset:0;stroke-opacity:1"
       id="rect4137-6-20"
       width="1047.3622"
       height="1483.189"
       x="1040.1058"
       y="5938.0244"
       transform="matrix(0,-1,1,0,0,0)" />
    <rect
       style="opacity:1;fill:none;fill-opacity:1;stroke:#ff0000;stroke-width:5;stroke-linecap:square;stroke-linejoin:miter;stroke-miterlimit:4;stroke-dasharray:none;stroke-dashoffset:0;stroke-opacity:1"
       id="rect4137-3-7-2"
       width="1047.3622"
       height="1483.189"
       x="2089.0759"
       y="5938.0244"
       transform="matrix(0,-1,1,0,0,0)" />
    <rect
       style="opacity:1;fill:none;fill-opacity:1;stroke:#ff0000;stroke-width:5;stroke-linecap:square;stroke-linejoin:miter;stroke-miterlimit:4;stroke-dasharray:none;stroke-dashoffset:0;stroke-opacity:1"
       id="rect4137-3-7-5-3"
       width="1047.3622"
       height="1483.189"
       x="3137.874"
       y="5938.0244"
       transform="matrix(0,-1,1,0,0,0)" />
    <rect
       style="opacity:1;fill:none;fill-opacity:1;stroke:#ff0000;stroke-width:5;stroke-linecap:square;stroke-linejoin:miter;stroke-miterlimit:4;stroke-dasharray:none;stroke-dashoffset:0;stroke-opacity:1"
       id="rect4137-35-7"
       width="1047.3622"
       height="1483.189"
       x="-1057.4899"
       y="7420.5356"
       transform="matrix(0,-1,1,0,0,0)" />
    <rect
       style="opacity:1;fill:none;fill-opacity:1;stroke:#ff0000;stroke-width:5;stroke-linecap:square;stroke-linejoin:miter;stroke-miterlimit:4;stroke-dasharray:none;stroke-dashoffset:0;stroke-opacity:1"
       id="rect4137-3-6-5"
       width="1047.3622"
       height="1483.189"
       x="-8.519681"
       y="7420.5356"
       transform="matrix(0,-1,1,0,0,0)" />
    <rect
       style="opacity:1;fill:none;fill-opacity:1;stroke:#ff0000;stroke-width:5;stroke-linecap:square;stroke-linejoin:miter;stroke-miterlimit:4;stroke-dasharray:none;stroke-dashoffset:0;stroke-opacity:1"
       id="rect4137-6-2-9"
       width="1047.3622"
       height="1483.189"
       x="1040.1058"
       y="7420.5356"
       transform="matrix(0,-1,1,0,0,0)" />
    <rect
       style="opacity:1;fill:none;fill-opacity:1;stroke:#ff0000;stroke-width:5;stroke-linecap:square;stroke-linejoin:miter;stroke-miterlimit:4;stroke-dasharray:none;stroke-dashoffset:0;stroke-opacity:1"
       id="rect4137-3-7-9-2"
       width="1047.3622"
       height="1483.189"
       x="2089.0759"
       y="7420.5356"
       transform="matrix(0,-1,1,0,0,0)" />
    <rect
       style="opacity:1;fill:none;fill-opacity:1;stroke:#ff0000;stroke-width:5;stroke-linecap:square;stroke-linejoin:miter;stroke-miterlimit:4;stroke-dasharray:none;stroke-dashoffset:0;stroke-opacity:1"
       id="rect4137-3-7-5-1-2"
       width="1047.3622"
       height="1483.189"
       x="3137.874"
       y="7420.5356"
       transform="matrix(0,-1,1,0,0,0)" />
    <rect
       style="opacity:1;fill:none;fill-opacity:1;stroke:#ff0000;stroke-width:5;stroke-linecap:square;stroke-linejoin:miter;stroke-miterlimit:4;stroke-dasharray:none;stroke-dashoffset:0;stroke-opacity:1"
       id="rect4137-2-8"
       width="1047.3622"
       height="1483.189"
       x="-1057.4899"
       y="8903.0469"
       transform="matrix(0,-1,1,0,0,0)" />
    <rect
       style="opacity:1;fill:none;fill-opacity:1;stroke:#ff0000;stroke-width:5;stroke-linecap:square;stroke-linejoin:miter;stroke-miterlimit:4;stroke-dasharray:none;stroke-dashoffset:0;stroke-opacity:1"
       id="rect4137-3-70-9"
       width="1047.3622"
       height="1483.189"
       x="-8.519681"
       y="8903.0469"
       transform="matrix(0,-1,1,0,0,0)" />
    <rect
       style="opacity:1;fill:none;fill-opacity:1;stroke:#ff0000;stroke-width:5;stroke-linecap:square;stroke-linejoin:miter;stroke-miterlimit:4;stroke-dasharray:none;stroke-dashoffset:0;stroke-opacity:1"
       id="rect4137-6-9-7"
       width="1047.3622"
       height="1483.189"
       x="1040.1058"
       y="8903.0469"
       transform="matrix(0,-1,1,0,0,0)" />
    <rect
       style="opacity:1;fill:none;fill-opacity:1;stroke:#ff0000;stroke-width:5;stroke-linecap:square;stroke-linejoin:miter;stroke-miterlimit:4;stroke-dasharray:none;stroke-dashoffset:0;stroke-opacity:1"
       id="rect4137-3-7-3-3"
       width="1047.3622"
       height="1483.189"
       x="2089.0759"
       y="8903.0469"
       transform="matrix(0,-1,1,0,0,0)" />
    <rect
       style="opacity:1;fill:none;fill-opacity:1;stroke:#ff0000;stroke-width:5;stroke-linecap:square;stroke-linejoin:miter;stroke-miterlimit:4;stroke-dasharray:none;stroke-dashoffset:0;stroke-opacity:1"
       id="rect4137-3-7-5-6-6"
       width="1047.3622"
       height="1483.189"
       x="3137.874"
       y="8903.0469"
       transform="matrix(0,-1,1,0,0,0)" />
    <path
       style="fill:#a05a2c;stroke:#000000;stroke-width:4;stroke-miterlimit:4;stroke-dasharray:none"
       d="m 8921.4107,4257.2275 c 19.192,-31.9497 21.86,-43.9223 2.913,-28.1978 -0.657,0.545 -1.938,0.9337 -2.564,1.4102 z m 0,-65.3516 c 23.344,-32.3024 48.556,-91.4239 41.32,-98.6601 -3.027,-3.0272 -16.132,-0.6613 -29.123,5.2578 -4.794,2.1841 -8.776,4.7669 -12.197,7.9922 z m 0,-127.7148 c 7.579,-1.7518 15.203,-3.0098 21.834,-3.0098 17.229,0 36.46,-6.1876 42.736,-13.75 9.141,-11.0136 5.943,-15.1218 -16.061,-20.6445 -33.717,-8.4626 -42.215,-20.8971 -42.412,-62.0606 -0.103,-21.9687 6.103,-35.2662 19.912,-42.6562 27.211,-14.5628 45.95,-1.8871 22.729,15.375 -14.268,10.607 -15.702,17.0561 -6.959,31.3144 16.42,26.7774 35.191,21.8875 60.574,-15.7793 27.796,-41.2454 28.105,-46.9391 2.881,-53.5351 -10.921,-2.8561 -19.857,-12.6132 -19.857,-21.6836 0,-11.9733 5.44,-14.7653 19.857,-10.1895 30.795,9.7738 58.311,-3.5135 75.295,-36.3574 14.214,-27.4873 14.105,-31.5318 -1.313,-48.5684 -9.251,-10.2217 -14.144,-25.5541 -10.875,-34.0722 4.906,-12.7853 9.347,-13.3601 25.467,-3.293 16.238,10.1407 22.97,9.082 39.944,-6.2793 11.227,-10.1604 20.402,-21.1314 20.392,-24.3808 -0.04,-11.9747 -86.694,-5.4578 -102.637,7.7187 -24.204,20.0027 -21.393,-3.6734 4.803,-40.4629 18.189,-25.5432 26.028,-29.1353 53.76,-24.6348 23.269,3.776 36.926,0.3401 48.209,-12.1269 19.595,-21.6521 20.193,-31.8091 1.451,-24.6172 -7.859,3.0159 -22.188,1.063 -31.842,-4.3398 -14.866,-8.3188 -11.537,-11.5115 21.737,-20.8496 21.609,-6.0645 48.111,-17.766 58.896,-26.004 16.659,-12.7244 17.744,-17.966 7.207,-34.8378 -11.351,-18.177 -10.355,-19.3472 11.744,-13.8008 12.912,3.2407 21.419,-1.2354 37.779,-13.8386 l -365.251,-0.7342 z m 986.48,-555.3926 c 2.399,6.4653 5.069,13.0083 8.031,19.3691 13.181,28.3104 24.015,68.3947 24.065,89.0762 0.08,31.4532 7.401,44.7041 44.773,81.0254 49.8143,48.4136 52.1933,55.1757 27.3073,77.6992 -13.5963,12.3046 -17.1023,30.458 -16.1213,83.4512 2.06,111.2332 -15.298,134.931 -108.313,147.8945 -65.763,9.1655 -96.48,23.9801 -96.48,46.5313 0,11.0219 7.381,25.439 16.404,32.0371 9.023,6.598 23.655,31.6629 32.512,55.7011 10.657,28.9226 22.739,44.6759 35.72,46.5743 21.626,3.1631 44.434,43.2271 44.434,78.0468 0,12.2918 7.323,26.4468 16.27,31.4532 9.066,5.074 20.249,30.5624 25.265,57.582 4.949,26.6639 11.547,60.8078 14.66,75.875 5.601,27.1084 -9.44,57 -28.683,57 -5.377,0 -7.055,-7.8186 -3.727,-17.375 5.044,-14.484 3.568,-14.1692 -8.867,1.8965 -14.998,19.3767 -18.704,15.3435 -15.436,-16.791 0.972,-9.5565 -2.981,-17.375 -8.785,-17.375 -5.804,-3e-4 -10.552,7.1876 -10.552,15.9707 0,12.1132 -6.046,14.4507 -25.039,9.6836 -34.557,-8.6732 -40.695,13.3959 -15.307,55.039 6.447,10.574 11.909,23.8998 15.639,36.3223 l 59.511,0 c 19.991,-24.8362 53.092,-60.7855 77.3363,-83.6582 31.271,-29.5024 54.3,-62.8084 67.121,-97.0762 10.735,-28.6908 32.751,-69.653 48.924,-91.0273 16.174,-21.3742 29.534,-46.4183 29.686,-55.6524 0.151,-9.234 4.936,-19.6705 10.636,-23.1933 15.866,-9.8055 39.282,14.7531 39.282,41.1992 0,28.5813 0.624,28.6304 47.048,3.748 42.714,-22.8933 70.592,-25.4019 77.657,-6.9902 3.179,8.2802 17.199,11.4339 39.336,8.8496 22.059,-2.5753 31.41,4.2972 33.201,12.9573 l -1.479,-756.5198 z m 497.5503,759.0633 c -0.243,2.6683 -2.086,7.61 -2.478,10.9718 -1.996,17.1401 -10.836,39.1322 -19.65,48.8711 -11.423,12.6222 -12.963,20.7712 -5.359,28.375 7.604,7.6039 -12.69,28.8079 -70.668,73.834 -44.735,34.7412 -92.132,70.3069 -105.325,79.0352 -5.432,3.594 -20.97,21.0622 -42.013,46.5371 l 243.972,0 z M 8954.3847,3992.1552 c -4.745,0 -6.09,3.1409 -2.207,9.4238 3.375,5.4608 13.694,9.8614 22.928,9.7774 14.469,-0.1319 14.728,-1.483 1.894,-9.7774 -9.722,-6.2829 -17.869,-9.4238 -22.615,-9.4238 z m 790.608,277.2109 c -2.146,-0.1173 -3.485,2.2007 -3.485,7.752 0,29.2728 70.218,181.1797 83.75,181.1797 1.915,0 5.884,-6.2492 8.815,-13.8867 2.931,-7.6376 -7.856,-28.6513 -23.967,-46.6973 -16.355,-18.3185 -31.942,-49.3789 -35.291,-70.3203 -4.179,-26.1345 -22.157,-57.6087 -29.822,-58.0274 z m 104.556,98.4082 c -6.947,0.5535 -9.105,17.1477 -3.053,37.9356 l 8.086,27.7656 3.784,-28.2109 c 2.081,-15.5164 1.212,-30.7806 -1.93,-33.9219 -2.62,-2.6204 -4.942,-3.7234 -6.887,-3.5684 z"
       id="path4551"
       inkscape:connector-curvature="0"
       sodipodi:nodetypes="ccccccccccscsccccccsssccsscccscccsccsccccscssssscsccssssccsscccscccssscsccccccssccccccscscscsccccccccccc" />
    <path
       style="fill:#a05a2c;stroke:#000000;stroke-width:4;stroke-miterlimit:4;stroke-dasharray:none"
       d="m 3491.0921,4188.7311 c 7.9088,0 17.1829,11.1703 20.6094,24.8222 5.397,21.504 11.8454,24.8691 48.2383,25.1738 41.4237,0.3469 41.6622,0.549 17.1855,14.5411 -35.5128,20.301 -69.502,18.9528 -69.502,-2.7559 0,-9.7066 -6.9543,-27.5783 -15.455,-39.7148 -13.1465,-18.7691 -13.3072,-22.0664 -1.0762,-22.0664 z"
       id="path4549"
       inkscape:connector-curvature="0" />
    <path
       style="fill:#a05a2c;stroke:#000000;stroke-width:4;stroke-miterlimit:4;stroke-dasharray:none"
       d="m 8845.0604,3510.4953 4.6459,11.4451 c 0,0 27.9375,70.2909 27.9375,124.7369 0,38.013 -4.316,71.78 -9.5899,75.039 -5.6783,3.509 -7.1719,37.255 -3.664,82.746 5.3788,69.752 3.5203,81.563 -20.1973,128.367 -29.3464,57.913 -33.5009,91.922 -11.2285,91.922 17.8687,0 20.2928,19.714 2.4824,20.188 -6.8259,0.181 -1.7263,9.229 11.334,20.105 27.2248,22.673 19.8661,39.518 -9.3047,21.301 -22.4088,-13.995 -24.2758,-9.552 -7.3691,17.52 16.401,26.262 1.5086,38.303 -17.9141,14.484 -14.8752,-18.243 -15.324,-18.266 -9.6543,-0.5 3.2703,10.248 1.0702,24.511 -4.8906,31.693 -8.2078,9.89 -4.6365,18.451 14.7207,35.282 19.2614,16.747 25.5605,31.729 25.5605,60.8 0,21.218 4.6245,47.221 10.2774,57.784 8.0871,15.11 7.0281,19.203 -4.9649,19.203 -18.2557,0 -18.4718,1.906 -3.8613,33.972 11.7529,25.795 28.334,25.679 28.334,-0.199 0,-8.084 15.6372,-37.92 34.75,-66.301 7.2137,-10.711 13.0375,-19.9 17.9883,-28.088 l 0,-27.423 c -20.6061,14.981 -23.495,-7.88 -2.6954,-34.323 0.8884,-1.129 1.7929,-2.472 2.6954,-3.781 l 0,-85.793 c -9.0014,9.089 -13.7638,23.414 -17.7227,49.815 -3.9537,26.367 -11.3724,55.76 -16.4863,65.316 -9.9152,18.529 -38.3867,24.052 -38.3867,7.447 0,-5.461 4.4689,-9.927 9.9296,-9.927 5.5919,0 9.9278,-27.945 9.9278,-63.975 0,-54.853 3.1457,-66.177 22.0664,-79.43 7.2831,-5.101 18.863,-9.416 30.6719,-12.224 l 0,-557.202 z m -724.2249,1.0879 c -1.1683,28.186 1.6497,60.4801 5.9528,71.3421 6.7168,16.954 4.8414,16.431 -12.8223,-3.582 -11.3787,-12.892 -20.6875,-31.881 -20.6875,-42.197 0,-10.317 -4.469,-18.756 -9.9297,-18.756 -14.6014,0 -11.4289,50.75 4.9649,79.428 18.5997,32.537 18.5997,50.444 0,43.306 -9.6851,-3.716 -14.8926,0.264 -14.8926,11.383 0,18.84 69.6929,87.75 78.7383,77.854 3.1104,-3.403 0.7089,-7.969 -5.3359,-10.147 -7.2149,-2.599 -3.988,-18.11 9.3925,-45.154 13.8331,-27.959 16.7251,-42.413 9.0039,-44.986 -7.8908,-2.631 -8.5208,-11.3 -2.0586,-28.297 5.1242,-13.478 8.2601,-27.702 6.9707,-31.608 -1.81,-5.482 34.5504,-60.447 34.5504,-60.447 z m 5.3161,265.8811 c -1.4808,0.107 -0.5152,3.951 2.5156,11.91 3.7285,9.792 9.279,15.301 12.3359,12.245 3.057,-3.057 -3e-4,-11.068 -6.7793,-17.803 -4.2901,-4.258 -6.9204,-6.435 -8.0722,-6.352 z m 6.6035,80.535 c -0.7099,0.033 -1.4577,0.18 -2.2441,0.442 -23.3287,7.767 -21.4105,67.023 2.1699,67.023 5.6321,0 10.2402,-16.01 10.2402,-35.578 0,-21.793 -3.3031,-32.204 -10.166,-31.887 z"
       id="path4545"
       inkscape:connector-curvature="0"
       sodipodi:nodetypes="ccscssscccsccccscsssccccccscsssccccccsssscsccscsccccccccccssc" />
    <path
       style="fill:#a05a2c;stroke:#000000;stroke-width:4;stroke-miterlimit:4;stroke-dasharray:none"
       d="m 7439.3817,2461.9875 -2.8643,570.387 c 15.8643,16.422 42.2395,25.137 81.7569,4.702 27.2661,-14.099 32.2467,-14.099 53.7656,0 32.1453,21.063 51.3653,19.531 64.5703,-5.142 9.8144,-18.338 12.9463,-19.048 27.6524,-6.26 9.1218,7.932 22.3995,12.322 29.5058,9.756 7.1061,-2.566 30.5229,7.532 52.0372,22.441 29.1108,20.174 42.4183,24.369 52.0214,16.399 9.7861,-8.122 19.3903,-2.582 39.7461,22.929 20.4945,25.685 35.6583,34.37 64.1309,36.725 34.8423,2.883 37.2834,5.203 37.1934,35.354 -0.1,32.157 8.2103,41.342 20.0546,22.177 11.2513,-18.205 21.4978,-1.311 17.1543,28.283 -3.2295,22.004 1.2947,32.886 18.7579,45.118 12.6575,8.865 30.7982,16.119 40.3125,16.119 23.4882,0 44.7445,39.249 27.1464,50.125 -10.3203,6.378 -10.3845,15.812 -0.3339,49.357 10.2895,34.344 15.8875,40.568 32.5722,36.205 16.1038,-4.211 19.1425,-1.419 15.1348,13.907 -2.7578,10.546 -0.9032,21.715 4.1211,24.82 4.8345,2.988 7.8523,26.942 6.9922,53.959 l 84.9531,0 c 19.5813,-26.799 44.8389,-58.36 70.8066,-87.467 119.7698,-134.251 133.2926,-140.906 286.3242,-140.906 112.6011,0 193.8689,17.798 180.4454,39.517 -3.1034,5.022 2.8053,13.65 13.1308,19.176 10.3256,5.526 24.4859,24.739 31.4668,42.695 6.9807,17.957 29.9339,69.42 51.0059,114.362 2.1376,4.559 3.9444,8.555 5.7949,12.623 l 77.832,0 0,-1047.361 z m 464.1465,711.003 c -0.2766,0 -0.5493,0 -0.8183,0.01 -1.9866,0.09 -3.7524,0.731 -5.086,2.065 -7.1121,7.112 5.4204,26.476 17.1348,26.476 5.1385,0 9.3418,-4.205 9.3418,-9.344 0,-9.22 -11.9961,-18.947 -20.5723,-19.203 z m 129.2031,117.913 c -5.7831,0 -7.7538,4.468 -4.3789,9.929 3.375,5.461 8.1055,9.928 10.5137,9.928 2.4081,0 4.3789,-4.467 4.3789,-9.928 0,-5.461 -4.7307,-9.929 -10.5137,-9.929 z"
       id="path4541"
       inkscape:connector-curvature="0"
       sodipodi:nodetypes="ccccssscsscccscsscsscccsscscscccccccssccscsss" />
    <path
       style="fill:#a05a2c;stroke:#000000;stroke-width:4;stroke-miterlimit:4;stroke-dasharray:none"
       d="m 1512.7373,6348.9721 -152.0472,-1.394 c -14.7929,-75.322 -121.3974,-135.73 -128.2286,-160.043 l -12.5527,-44.678 13.0508,204.721 -608.74803,0 c -11.6097,-41.519 -18.2376,-67.101 -18.2949,-71.68 -0.5994,-47.896 4.7084,-86.372 15.248,-110.535 9.6342,-22.088 19.6581,-86.276 24.8086,-158.857 5.0581,-71.276 15.1131,-136.209 24.2422,-156.545 14.373,-32.019 39.7667,-179.525 43.7777,-246.28 l -683.7484,-0.697 0,1047.3622 1483.18953,0 z"
       id="path4537"
       inkscape:connector-curvature="0"
       sodipodi:nodetypes="ccscccscscccccc" />
    <path
       style="fill:#a05a2c;stroke:#000000;stroke-width:4;stroke-miterlimit:4;stroke-dasharray:none"
       d="m 711.09177,5602.8387 c 0,0 0.2409,-22.715 -1.4668,-25.477 -3.6239,-5.864 1.3524,-25.407 11.0586,-43.43 l 17.6484,-32.773 -62.6426,-69.965 c -34.4537,-38.482 -86.6381,-86.492 -115.9648,-106.689 -29.3268,-20.198 -55.712,-46.247 -58.6328,-57.885 -2.9209,-11.638 3.4968,-41.208 14.2617,-65.713 10.7648,-24.505 24.7754,-73.597 31.1348,-109.092 6.3592,-35.495 31.4497,-110.235 55.7558,-166.09 47.9644,-110.219 112.0497,-276.3569 136.6014,-367.7929 l -705.8709,-1.3941 0,1047.363 z"
       id="path4572"
       inkscape:connector-curvature="0"
       sodipodi:nodetypes="ccccscsssscccc" />
    <path
       style="fill:#a05a2c;stroke:#000000;stroke-width:4;stroke-miterlimit:4;stroke-dasharray:none"
       d="m 668.05837,2457.2597 c -34.6238,78.7489 -48.0317,157.2831 -31.7358,183.6503 7.2033,11.6554 16.3379,182.1531 15.125,282.295 -0.1985,16.3823 8.5111,62.2293 19.3535,101.8808 10.8424,39.6514 19.8067,91.0322 19.9219,114.1797 0.254,51.0476 81.6934,273.7616 131.5683,359.8027 0.828,1.4284 2.4301,4.4973 3.7578,6.9805 l 255.51173,0 c -1.0936,-10.155 -2.212,-20.8406 -3.5176,-33.4707 -5.4575,-52.7954 -17.1946,-117.4084 -26.082,-143.5859 -13.6766,-40.2833 -14.4243,-58.1039 -4.8652,-115.9864 16.4119,-99.3775 60.6361,-175.6211 101.8672,-175.6211 9.9697,0 18.1269,-3.4133 18.1269,-7.5859 0,-10.7808 78.8344,-43.5963 89.2578,-37.1543 4.7614,2.9428 11.3219,1.0381 14.5781,-4.2305 2.3541,-3.8088 17.5709,-5.7997 39.3965,-5.6269 9.9207,0.078 21.2079,0.6044 33.2715,1.6094 83.7683,6.9788 120.2965,9.8723 148.6601,11.7754 7.345,0.493 13.6631,3.1799 17.7051,6.9707 l 0.8362,-545.8828 z m -641.2885,1.4257 0,1047.3633 367.8574,0 c -8.3554,-45.1619 -15.6834,-153.1575 -19.4375,-289.9473 -8.6841,-316.4186 -6.8748,-394.5721 10.4844,-453.0273 8.1481,-27.4375 12.5935,-61.4979 9.8808,-75.6895 -2.7129,-14.1911 0.3466,-41.793 6.7969,-61.3378 9.7181,-29.4458 8.7945,-44.3669 -5.3848,-87.0567 -8.3752,-25.2153 -16.3059,-48.3169 -17.3577,-81.2894 z"
       id="path4260"
       inkscape:connector-curvature="0"
       sodipodi:nodetypes="csssscccssssscccscccccsscsscc" />
    <path
       style="fill:#a05a2c;stroke:#000000;stroke-width:4;stroke-miterlimit:4;stroke-dasharray:none"
       d="m 32.51477,1410.9715 0,1047.3613 353.9902,0 c -0.5297,-23.3305 3.2885,-52.5102 5.3809,-93.7949 4.2134,-83.1328 10.4148,-126.5969 18.8106,-131.8437 6.8886,-4.305 38.3143,-10.7721 69.8359,-14.3731 31.5216,-3.6012 59.7101,-10.4283 62.6406,-15.1699 2.9304,-4.7415 15.6889,-8.6211 28.3516,-8.6211 12.6628,0 38.3234,-6.3928 57.0254,-14.207 13.6183,-5.6901 24.3852,-8.6715 33.0722,-8.4356 19.1112,0.5189 28.1519,16.6113 35.3165,53.7031 17.3292,89.7157 8.4974,155.5216 -22.6691,232.7422 l 841.43453,0 0,-1047.3613 z"
       id="path4216"
       inkscape:connector-curvature="0"
       sodipodi:nodetypes="cccsssssssscccc" />
    <path
       style="fill:#a05a2c;stroke:#000000;stroke-width:4;stroke-miterlimit:4;stroke-dasharray:none"
       d="m 832.16077,3507.7452 c 7.3047,13.431 20.5865,34.5164 29.9221,53.4744 31.6059,64.184 136.2179,167.446 184.19713,181.821 21.8209,6.537 44.0365,20.035 49.3672,29.996 10.4739,19.571 53.5017,24.191 78.4434,8.424 12.5721,-7.948 8.4887,-21.972 -26.6953,-91.688 -44.33,-87.838 -51.0056,-98.7483 -60.0304,-181.6663 z m -93.0797,1048.4288 c 6.9594,-26.168 8.2333,-48.1744 8.2713,-57.9574 0.08,-20.286 7.1912,-56.99 15.8027,-81.563 11.2888,-32.213 13.8173,-61.163 9.0645,-103.764 -7.7339,-69.32 -13.3434,-81.721 -70.252,-155.277 -23.6182,-30.527 -46.1459,-68.505 -50.0605,-84.395 -12.2498,-49.724 -42.8939,-114.31 -98.332,-207.25 -63.807,-106.969 -133.3008,-269.597 -153.2802,-359.015 -0.2626,-1.175 -38.1463,0.592 -38.4036,-0.932 l -328.5467,2.957 0,1047.362 z"
       id="path4214"
       inkscape:connector-curvature="0"
       sodipodi:nodetypes="cscccsccccsssssccccc" />
    <path
       style="fill:#a05a2c;stroke:#000000;stroke-width:4;stroke-miterlimit:4;stroke-dasharray:none"
       d="m 2993.9502,3505.3308 0,-574.4492 c -6.096,-5.7872 -12.495,-11.6942 -19.584,-17.918 -52.5541,-46.1399 -63.8872,-60.9287 -54.9453,-71.7031 14.5366,-17.5155 39.2627,-16.8103 74.5293,1.6133 l 0,-384.9063 -1483.1875,0 -0.7721,542.4274 c 4.3697,2.8549 8.3932,7.4883 8.3932,10.973 0,8.1912 6.7013,14.8926 14.8926,14.8926 8.1911,0 14.8926,4.4668 14.8926,9.9277 0,5.4607 11.4722,9.9297 25.4922,9.9297 20.9724,0 24.3728,3.5199 19.1875,19.8574 -4.565,14.3832 -1.7832,19.8575 10.0879,19.8575 9.0141,0 14.5066,5.5841 12.207,12.4101 -2.2994,6.8259 2.855,17.5931 11.4531,23.9258 14.0641,10.3588 13.743,13.5987 -3.1875,32.3066 -15.9594,17.6349 -17.0265,24.7289 -7.0215,46.6875 8.8905,19.5127 8.9911,29.2752 0.4043,39.6211 -6.2667,7.5509 -8.875,23.3603 -5.7969,35.1309 3.078,11.7705 0.9514,44.186 -4.7265,72.0352 -9.985,48.9769 -13.1831,68.4823 -26.6856,156.9023 l 90.8606,0 c -1.2363,-14.4759 -2.5742,-28.8828 -3.5071,-41.7305 -7.7255,-106.3882 -6.9781,-115.3059 10.9571,-130.6816 17.785,-15.2472 18.4624,-22.4192 8.8925,-94.3223 -13.7588,-103.3773 -20.7852,-122.1134 -68.373,-182.3164 -64.6748,-81.8198 -47.3787,-108.2822 29.043,-44.4336 22.8764,19.1126 45.4343,34.75 50.1289,34.75 4.6947,0 9.8578,-30.1593 11.4726,-67.0195 2.603,-59.4209 5.1868,-67.0176 22.793,-67.0176 13.8355,0 22.7384,9.7852 29.3574,32.2676 12.335,41.8994 21.2632,40.7866 31.8477,-3.9688 7.4899,-31.6702 24.7207,-52.4495 39.1992,-52.1992 5.2369,0.091 10.1134,2.9333 14.039,9.0059 5.2953,8.1911 7.141,34.9987 4.1016,59.5722 l -5.5254,44.6797 22.9199,-29.6074 c 48.4151,-62.5436 64.6327,-77.6474 75.9004,-70.6836 19.8564,12.2719 12.813,46.7123 -22.8086,111.5176 l -34.3652,62.5176 38.2754,-19.9492 c 54.3533,-28.3305 102.7422,-34.6474 118.6445,-15.4864 16.2538,19.5847 8.4232,31.9601 -33.9961,53.7227 -18.6322,9.5589 -58.554,41.3632 -88.7148,70.6777 -51.2797,49.8407 -54.8379,56.3504 -54.8379,100.332 0,31.7215 6.3523,55.1105 19.5117,71.8399 20.9522,26.6365 31.8638,67.3586 42.7891,168.5332 z"
       id="path4302"
       inkscape:connector-curvature="0"
       sodipodi:nodetypes="ccssccccsssssscssscssccsssssssscscscccscccssssscc" />
    <path
       style="fill:#a05a2c;stroke:#000000;stroke-width:4;stroke-miterlimit:4;stroke-dasharray:none"
       d="m 1578.8315,3506.9542 c -2.0019,13.0625 -2.0056,12.587 -4.9212,31.7358 -8.6339,56.706 -21.9763,118.997 -29.8609,134.8022 -12.429,24.9143 -12.4622,35.0437 -0.252,76.1601 11.2762,37.9709 21.5432,51.5271 51.5059,68 20.5824,11.3158 57.9215,22.7256 82.9746,25.3555 l 45.5508,4.7813 -8.3379,-50.7247 c -4.586,-27.8984 -15.4849,-88.7005 -24.2188,-135.1171 -6.8823,-36.5754 -14.9418,-99.3455 -20.3437,-155.2344 z m 348.6931,0.2515 c 2.2114,20.5542 5.4107,42.091 7.7103,68.14 12.6431,143.2175 41.3307,269.1799 68.2168,299.5215 9.9432,11.2212 43.4848,65.8804 74.5371,121.4648 36.9798,66.1948 70.107,111.8719 96.0137,132.3906 45.7346,36.2224 50.3137,26.6464 23.748,-49.6582 -8.5336,-24.5111 -13.1108,-56.5896 -10.1718,-71.2851 3.1925,-15.9618 0.6547,-28.2824 -6.3028,-30.6016 -8.8208,-2.9402 -8.5977,-14.0528 0.918,-45.8144 6.9097,-23.0636 9.989,-50.0417 6.8438,-59.9512 -3.2851,-10.3503 0.9942,-23.588 10.0546,-31.1074 23.8542,-19.7973 47.4306,-69.1426 33.0352,-69.1426 -15.8567,0 18.8259,-37.641 41.2363,-44.7539 9.6118,-3.0506 19.7734,-14.3355 22.5821,-25.0762 2.8101,-10.7458 13.5626,-19.5273 23.9082,-19.5273 10.3406,0 24.1491,-5.3484 30.6855,-11.8848 6.5365,-6.5365 35.3555,-15.1647 64.041,-19.1738 28.6856,-4.0092 64.8144,-10.4237 80.2871,-14.2539 15.9762,-3.9547 44.7965,-1.4643 66.6973,5.7637 31.4295,10.3722 41.4214,10.3575 54.0078,-0.088 13.5066,-11.2095 15.1031,-8.6737 12.7324,20.2285 -2.4294,29.6187 0.6354,34.0334 29.5566,42.5566 17.7476,5.2303 32.2695,13.8154 32.2695,19.0781 0,5.4543 11.7393,6.6699 27.3028,2.8262 22.0145,-5.437 24.8992,-4.2998 14.8926,5.8731 -6.826,6.9393 -12.4102,16.1919 -12.4102,20.5605 0,13.0573 57.5016,8.9739 62.9258,-4.4687 3.5235,-8.7319 5.2395,-8.9423 5.791,-0.709 0.431,6.436 -5.9762,18.4626 -14.2383,26.7246 -13.4102,13.4102 -12.6102,17.6149 7.4473,39.1875 12.3577,13.2912 32.9897,35.8906 45.8496,50.2226 12.8599,14.3318 29.6143,26.0586 37.2324,26.0586 7.618,0 13.8516,4.4689 13.8516,9.9297 0,5.4607 -6.7016,9.9278 -14.8926,9.9278 -21.1452,0 -18.4435,17.4722 4.9629,32.0898 23.5053,14.6794 25.8185,27.4824 4.9648,27.4824 -10.7561,0 -14.8925,11.032 -14.8925,39.7149 0,38.1617 -12.769,53.1808 -23.211,27.3027 -2.7543,-6.8259 -5.7018,-1.2398 -6.5508,12.4121 -1.6818,27.0451 -5.7498,51.4001 -14.2226,85.1582 -4.0771,16.2449 -0.2806,23.1471 14.916,27.1211 27.7368,7.2539 88.6406,-19.4947 88.6406,-38.9297 0,-8.6577 6.3304,-29.8196 14.0684,-47.0273 14.3467,-31.9037 41.3639,-120.6189 63.8652,-203.625 l 0,-365.1504 z"
       id="path4330"
       inkscape:connector-curvature="0"
       sodipodi:nodetypes="cssssscsscccsssssccsssscsssssccssssssscsssssssssssscssccc" />
    <path
       style="fill:#a05a2c;stroke:#000000;stroke-width:4;stroke-miterlimit:4;stroke-dasharray:none"
       d="m 2993.109,6351.6993 -378.5476,0.1896 c -7.6489,-8.755 -33.9482,-30.6136 -44.459,-51.2166 -29.71,-58.238 -142.8741,-130.9 -152.0254,-130.9 -7.7716,0 13.1484,181.9566 13.1484,181.9566 l -19.9062,0.16 -370.0293,-3.9429 c -20.3186,-191.652 -57.0088,-216.7287 -86.6954,-216.7287 -4.9553,0 -8.6836,-12.285 -8.2851,-27.302 1.2693,-47.843 -12.7566,-93.668 -26.9961,-88.204 -20.9124,8.025 -23.2655,-14.205 -8.8106,-83.226 16.3586,-78.112 17.6105,-128.916 3.1778,-128.916 -15.2074,0 -2.6345,-53.327 28.0898,-119.143 14.0207,-30.034 19.6856,-77.9227 18.6124,-82.6397 -0.3111,-1.367 -65.4808,-0.259 -65.4808,-0.259 0,0 -12.7466,135.8647 -26.9538,174.9027 -21.3242,9.715 -22.9786,16.384 -22.9786,92.623 0,45.184 -5.1061,94.731 -11.3476,110.104 -6.2418,15.373 -12.5247,77.098 -13.961,137.166 -1.4237,59.543 -12.8433,160.4897 -21.8613,231.6207 l -282.4243,0 -1.394,302.1213 1483.1894,0 0,-1047.361 -84.3594,-0.65 c -1.6005,16.882 1.3943,44.876 -1.5742,67.659 l -14.6347,112.305 40.957,97.652 c 29.1158,69.421 45.9227,108.889 57.6406,134.432"
       id="path4341"
       inkscape:connector-curvature="0"
       sodipodi:nodetypes="ccsscccsscssscccscsccccccccsc" />
    <path
       style="fill:#a05a2c;stroke:#000000;stroke-width:4;stroke-miterlimit:4;stroke-dasharray:none"
       d="m 4413.11,5602.1645 c 1.7438,22.338 9.8037,60.974 19.5586,92.096 25.9263,82.714 40.8957,175.841 47.0059,296.602 l 0,-388.698 z m -1417.2443,397.294 c 13.0466,28.44 25.5741,43.232 33.2443,52.062 7.3563,8.468 36.1339,130.128 102.9395,252.445 6.9016,12.637 14.4916,39.565 16.2851,46.094 l -152.4689,0.493 0.1264,299.96 1483.6824,-0.986 -1.0455,-291.596 -464.4858,-6.273 c -1.3215,-39.46 -2.414,-67.84 -3.1367,-75.649 -3.5375,-38.225 -11.3382,-87.371 -17.334,-109.215 l -10.9004,-39.715 -13.0605,29.786 c -7.1834,16.382 -13.4572,58.827 -13.9414,94.322 -0.7317,53.639 -10.7745,88.804 -14.6582,100.471 l -472.0528,0 c -1.1073,-13.788 -24.8797,-311.502 -22.3554,-437.057 2.1778,-108.323 13.093,-257.4199 31.0745,-312.9289 l -481.2933,0.4929 z"
       id="path4386"
       inkscape:connector-curvature="0"
       sodipodi:nodetypes="csccccccccccccscccsccsccc" />
    <path
       style="fill:#a05a2c;stroke:#000000;stroke-width:4;stroke-miterlimit:4;stroke-dasharray:none"
       d="m 1953.7002,5245.7783 c -0.8574,0.101 -1.3957,1.32 -1.5039,3.768 -0.3465,7.832 -9.5438,32.655 -20.4394,55.162 -11.2497,23.239 -20.4927,64.278 -21.3887,94.973 -0.8547,29.281 -16.418,202.679 -16.418,202.679 l 1103.8476,0 0,-282.635 c -13.0115,2.909 -34.3029,5.166 -44.6761,6.25 l -59.5059,6.217 -5.2148,70.699 c -3.6189,49.062 -1.3884,75.255 7.2871,85.59 17.7764,21.177 16.1152,113.877 16.1152,113.877 l -949.9381,1.9714 c 1.9988,-11.488 1.3357,-30.4107 6.8917,-49.5227 16.6661,-57.33 11.7306,-250.5027 -5.9805,-294.6827 -3.7626,-9.386 -7.1898,-14.57 -9.0762,-14.348 z"
       id="path4337"
       inkscape:connector-curvature="0"
       sodipodi:nodetypes="ccsscccccssccsccc" />
    <path
       style="fill:#a05a2c;stroke:#000000;stroke-width:4;stroke-miterlimit:4;stroke-dasharray:none"
       d="m 2994.3171,2844.0407 c 9.0668,4.8715 24.8999,11.2693 35.3629,18.4666 27.3236,18.7954 52.3975,31.4542 55.7207,28.1308 11.6668,-11.6667 5.5928,-67.886 -14.1348,-130.8242 -10.9568,-34.956 -17.2173,-72.0766 -13.9121,-82.4902 8.2683,-26.0515 45.2762,-19.2739 60.3379,11.0508 l 11.8535,23.8652 3.2891,-28.8281 c 4.3157,-37.8293 42.7507,-46.5207 53.2148,-12.0332 3.8245,12.6052 16.2223,44.8218 27.5488,71.5918 l 20.5918,48.6718 10.5391,-43.707 c 8.0957,-33.5769 15.1422,-43.709 30.3965,-43.709 16.6606,0 20.1343,7.1915 21.5781,44.6778 2.8731,74.6013 3.3431,75.7457 19.1719,46.5468 8.3239,-15.3549 20.4318,-26.1075 26.9062,-23.8945 19.2973,6.5959 12.0999,63.5361 -27.1015,214.3926 -24.0068,92.3838 -33.6849,146.1236 -27.4395,152.3691 5.3067,5.3066 7.5048,34.9084 4.8848,65.7813 -2.8433,33.5001 0.9701,176.036 6.2851,301.4004 l 663.0996,0 c -5.9541,-11.0806 -4.9182,-23.0712 -1.7148,-43.1758 7.0118,-44.0065 -18.088,-72.3275 -79.668,-89.8907 -53.4892,-15.2555 -62.1472,-22.9807 -91.6797,-81.7929 -31.3072,-62.3465 -29.4095,-60.4604 -46.5507,-46.2344 -19.2065,15.94 -26.1694,2.8808 -32.7246,-61.3769 -4.6595,-45.6763 -2.3061,-55.0779 19.7148,-78.7305 20.8609,-22.4066 24.1143,-33.5178 19.6211,-67.0176 -4.6433,-34.618 -2.8066,-40.1602 13.3144,-40.1602 10.7737,0 33.4244,19.8794 53.4336,46.8965 28.9275,39.0587 41.8081,48.1038 77.0801,54.1172 23.2922,3.971 47.3275,10.2954 53.4102,14.0547 6.0825,3.7594 26.1384,39.4721 44.5683,79.3613 18.43,39.8894 37.7765,75.1633 42.9922,78.3868 5.2157,3.2235 18.2071,0.4119 28.8711,-6.2481 16.4477,-10.2718 24.693,-8.0636 54.3496,14.5566 30.5115,23.272 56.1426,33.8878 56.1426,23.254 0,-1.8755 -9.3975,-29.7985 -20.8828,-62.0528 -26.5036,-74.4309 -29.6736,-189.6002 -6.9531,-252.6308 10.5762,-29.3406 18.6375,-96.8703 23.1132,-193.6094 5.0394,-108.9262 12.0959,-163.1193 26.4493,-203.1602 10.7662,-30.0343 25.3333,-79.4997 32.373,-109.9218 1.8019,-7.7872 3.6588,-15.0241 5.5352,-21.9864 l -1237.336,0 z m 1.6519,661.4588 83.7325,0 c 11.5466,-84.5523 13.3567,-186.0412 2.5332,-256.418 -10.4551,-67.9817 -9.9233,-83.1938 4.0664,-116.3457 15.7251,-37.2641 15.4361,-39.5469 -12.6504,-99.5664 -17.8281,-38.0977 -41.6725,-66.0966 -76.5456,-99.4492 z"
       id="path4446"
       inkscape:connector-curvature="0"
       sodipodi:nodetypes="cscssscsscccsssssccccsssssssssscsscssssssscccccssscc" />
    <path
       style="fill:#a05a2c;stroke:#000000;stroke-width:4;stroke-miterlimit:4;stroke-dasharray:none"
       d="m 2995.1445,3507.276 0,1047.3633 4.6211,0 0,-682.211 c 17.9262,-66.1285 33.0521,-128.7212 36.1445,-155.4433 3.783,-32.6901 15.3235,-88.6849 25.6465,-124.4317 6.9974,-24.2312 12.6938,-53.5888 17.0781,-85.2773 z m 303.5156,0 c 4.4688,105.0154 9.9613,197.8303 13.6016,201.4707 6.7159,6.7157 75.609,-68.0327 75.9492,-82.4043 0.3177,-13.4186 23.0903,-23.4024 53.3828,-23.4024 11.9386,0 37.264,-10.4928 56.2793,-23.3164 44.3753,-29.926 87.2247,-37.7305 118.7871,-21.6347 13.75,7.0121 48.5166,17.726 77.2578,23.8086 79.4501,16.8147 246.5381,114.3401 316.8965,184.9648 23.7169,23.8069 52.8145,95.0288 52.8145,129.2734 0,30.63 15.8757,31.5294 40.2754,2.2813 10.25,-12.2868 18.7851,-16.7537 18.9668,-9.9277 0.5709,21.4424 37.7426,13.5066 58.1289,-12.4102 29.4112,-37.3902 33.3496,-30.0971 12.4199,23.002 -15.9866,40.5586 -25.0908,102.8994 -21.4961,147.205 2.0214,24.9137 30.2682,22.0532 42.8789,-4.3418 7.3245,-15.3304 22.6169,-28.2569 35.6172,-30.1074 28.6831,-4.0829 45.9287,-44.5245 30.9336,-72.543 -5.8513,-10.9332 -9.4423,-39.3286 -7.9805,-63.0996 2.4508,-39.8515 -1.9446,-48.7215 -56.3828,-113.8183 -32.4715,-38.829 -63.0364,-83.8623 -67.9219,-100.0742 -4.8855,-16.2118 -14.244,-29.4766 -20.7988,-29.4766 -6.5549,0 -20.4293,-9.5887 -30.832,-21.3086 -10.4027,-11.7198 -43.4893,-37.0266 -73.5235,-56.2363 -35.7809,-22.8854 -53.4084,-35.0132 -61.1953,-47.9043 z m 116.5371,641.8926 c -7.105,0.089 -5.8801,3.9941 3.0684,9.7773 19.0742,12.3266 22.5109,12.3265 14.8926,0 -3.3749,-5.461 -11.4572,-9.8613 -17.961,-9.7773 z m -47.0722,10.9121 c -7.6694,-0.1506 -11.1502,9.8475 -5.3672,24.9179 4.9666,12.9428 9.2708,14.2255 18.1035,5.3926 8.8328,-8.8328 8.7963,-14.3832 -0.1582,-23.3379 -4.7394,-4.7395 -9.092,-6.9046 -12.5781,-6.9726 z m -52.3438,12.1425 c -0.8714,-0.2021 -2.0622,3.1204 -3.7871,9.7911 -2.7523,10.6448 -10.459,15.887 -18.7051,12.7226 -10.0545,-3.858 -14.0254,2.6116 -14.0254,22.8516 0,15.5284 -2.9161,42.8135 -6.4804,60.6347 l -6.4805,32.4024 -17.9238,-33.6426 c -11.2828,-21.1766 -18.0799,-27.2062 -18.3418,-16.2695 -0.2294,9.5564 -5.3612,17.375 -11.4063,17.375 -6.0449,0 -8.4206,-6.7015 -5.2773,-14.8926 3.1432,-8.1913 1.3869,-14.8926 -3.9024,-14.8926 -5.2893,0 -9.6171,13.1393 -9.6171,29.1992 0,16.0601 -4.4671,31.963 -9.9278,35.3379 -5.4615,3.375 -9.9297,-1.1493 -9.9297,-10.0527 0,-13.3817 -2.2223,-13.9137 -12.8242,-3.0684 -13.8636,14.182 -75.5455,195.7281 -88.6327,255.1664 l 92.7714,-0.2464 c 11.4247,-6.9183 20.7942,-13.8973 23.0644,-17.5704 3.1393,-5.0796 18.751,-12.0999 34.6934,-15.6015 15.9422,-3.5016 34.7009,-13.2517 41.6855,-21.668 6.9847,-8.4161 35.7174,-25.4815 63.8516,-37.9238 28.1339,-12.4421 57.4234,-30.9603 65.0859,-41.1504 7.6628,-10.1901 22.8002,-23.2871 33.6387,-29.1035 22.7965,-12.2335 65.4251,-93.8876 56.5293,-108.2813 -3.3027,-5.3441 -6.2377,-20.7922 -6.5215,-34.3281 -0.3484,-16.6274 -11.6062,-32.1042 -34.7031,-47.7129 -31.1497,-21.0505 -35.0112,-21.6257 -43.4902,-6.4746 -6.4245,11.4802 -4.2955,25.1114 6.8808,44.0313 26.233,44.4091 18.8115,45.8233 -23.5254,4.4824 -40.9671,-40.0032 -49.5471,-38.2869 -24.8222,4.9648 18.8048,32.8955 18.5302,45.1641 -0.6543,29.2422 -21.1462,-17.5498 -43.775,-63.0331 -45.1758,-90.8027 -0.481,-9.5345 -1.0597,-14.2906 -2.0469,-14.5196 z"
       id="path4449"
       inkscape:connector-curvature="0"
       sodipodi:nodetypes="ccccssccccssssssssssssssssssssscccccccsssccccsscccscsscsscccscscsccsssssssc" />
    <path
       style="fill:#a05a2c;stroke:#000000;stroke-width:4;stroke-miterlimit:4;stroke-dasharray:none"
       d="m 2998.0998,5604.1662 476.9151,0.697 c 1.6648,-4.99 16.5638,-10.1627 18.1884,-13.4177 8.6642,-17.358 8.655,-27.441 -0.049,-41.373 -9.585,-15.347 -6.4414,-24.7696 18.8399,-56.4766 41.4893,-52.036 62.0011,-94.5329 87.8593,-182.0215 12.1049,-40.9557 26.6176,-80.123 32.25,-87.0371 6.034,-7.4063 7.7084,-34.1156 4.0762,-65.0195 -4.6453,-39.5244 -2.2806,-57.9944 9.5938,-74.9473 15.0658,-21.5095 13.9228,-24.674 -26.0274,-72.0527 -64.3728,-76.3422 -108.2324,-155.7429 -115.25,-208.6426 l -6.3086,-47.5683 -40.9668,28.123 c -22.5317,15.4679 -82.3071,48.862 -132.834,74.209 -78.8877,39.5743 -97.4084,45.1993 -131.0839,39.8144 -21.5689,-3.449 -55.6916,-3.1802 -75.8282,0.5977 l -36.6113,6.8691 5.543,101.0567 c 3.4475,62.8486 14.6051,131.8005 29.5097,182.3633 l 23.9668,81.3027 -56.7304,25.459 c -21.3126,9.5644 -61.0936,17.8674 -89.134,24.1347 z m 80.1621,-1047.3613 c -0.5677,2.6028 -1.1357,5.2072 -1.4648,7.2402 -5.0413,31.1364 -4.4915,31.6817 23.7637,23.5782 15.9083,-4.5625 42.9002,-15.522 59.9824,-24.3555 3.9561,-2.0458 7.7444,-4.2556 11.4629,-6.4629 z m 1403.0274,647.2065 c -22.1048,-10.4021 -39.7777,-8.483 -43.5899,-8.2554 -0.3217,0.019 -0.5467,0.088 -0.6699,0.211 -4.4358,4.4358 16.2482,52.772 44.2598,106.7675 z m 0.8713,335.6597 c -9.0239,2.6206 -18.5902,4.081 -25.8752,6.6845 -39.276,14.035 -43.0401,60.8608 -43.0401,60.8608 l 69.2638,-0.6088 z"
       id="path4454"
       inkscape:connector-curvature="0"
       sodipodi:nodetypes="cccccscsssccsssscsscsccccsscccccccccccc" />
    <path
       style="fill:#a05a2c;stroke:#000000;stroke-width:4;stroke-miterlimit:4;stroke-dasharray:none"
       d="m 4498.9247,2464.3614 c -0.3851,15.3598 -5.6907,31.5865 -4.0398,49.2657 4.5904,49.1578 2.2158,67.4545 -11.4648,88.3339 -10.3951,15.8651 -15.5361,38.0508 -12.9297,55.8086 1.8395,12.5337 1.8403,38.9719 -3.8463,62.5028 l -2.9623,466.8859 c 8.8644,14.0877 23.2917,31.4445 37.0742,43.9863 18.6326,16.9554 33.9492,36.3046 34.0352,42.9981 0.089,6.6935 24.654,38.9776 54.5957,71.7422 29.9418,32.7647 54.4412,62.922 54.4512,67.0176 0,4.0956 10.8761,7.4472 24.1562,7.4472 15.4721,0 31.7318,10.6511 45.2617,29.6524 9.6692,13.5784 36.3121,39.0682 63.7071,61.7207 l 126.2929,0 c -28.245,-90.0697 -32.6408,-117.3629 -35.2187,-207.3321 -1.2237,-42.7075 -7.6941,-115.0482 -14.3789,-160.7558 -9.9948,-68.3414 -9.7928,-85.9798 1.1328,-99.2871 13.4527,-16.3853 57.1328,-103.0137 57.1328,-113.3086 0,-3.077 18.5827,-23.811 41.2949,-46.0743 28.4007,-27.8398 49.9556,-40.4785 69.0332,-40.4785 15.2564,0 39.1558,-5.2038 53.1114,-11.5625 19.6647,-8.9597 30.6835,-8.7196 48.9687,1.0664 14.852,7.9487 37.9391,10.2039 62.3125,6.086 31.7021,-5.3561 45.4015,-2.006 75.5957,18.4844 20.2827,13.7643 43.0092,22.674 50.502,19.7988 7.4931,-2.8753 16.293,1.7293 19.5566,10.2344 3.2637,8.505 12.9931,15.4648 21.6191,15.4648 8.6263,0 21.0529,12.7553 27.6153,28.3457 6.5623,15.5904 26.0729,40.2415 43.3574,54.7813 l 31.4258,26.4355 -4.1485,108.7891 c -3.8755,101.6079 -6.1194,111.5911 -33.9902,151.2382 -19.6179,27.9072 -36.9453,73.0604 -50.5801,131.8067 -8.4073,36.2235 -19.2342,77.6531 -27.5898,106.2676 l 247.8301,0 c 33.6833,-14.3798 73.4333,-37.5978 105.4765,-63.7344 25.3313,-20.6621 50.4517,-37.5684 55.8243,-37.5684 12.0687,0 91.7285,-85.3671 91.7285,-98.3008 0,-5.1627 13.4028,-22.7895 29.7851,-39.1718 16.3822,-16.3822 29.874,-37.9494 29.9805,-47.9258 0.1065,-9.9763 7.2536,-67.2869 15.8828,-127.3555 8.6293,-60.0685 15.1716,-115.9164 14.5391,-124.1074 -0.6326,-8.1912 -2.7038,-41.7002 -4.6035,-74.4648 -3.8359,-66.1497 -22.8437,-148.2905 -41.3555,-178.7168 -6.6447,-10.9217 -15.1437,-32.9879 -18.8867,-49.0372 -3.7431,-16.0492 -14.9159,-40.6223 -24.8282,-54.6074 -20.0556,-28.2959 -50.1582,-110.9727 -50.1582,-137.7597 0,-2.7503 -2.8022,-8.0695 -7.0722,-14.6114 z"
       id="path4512"
       inkscape:connector-curvature="0"
       sodipodi:nodetypes="csscccscscscccsssssscsssscssscsssccsssssscscssscc" />
    <path
       style="fill:#a05a2c;stroke:#000000;stroke-width:4;stroke-miterlimit:4;stroke-dasharray:none"
       d="m 5960.1244,6650.0461 -0.7438,-297.074 -155.5492,-1.394 c -2.3601,-9.077 -33.0653,-129.249 -22.8379,-202.139 8.2641,-58.898 9.9961,-140.236 5.3926,-253.182 -5.5668,-136.582 -4.0565,-174.412 8.4316,-211.084 8.1521,-23.939 17.5677,-60.422 21.3614,-82.49 l -167.2222,0 c 2.7321,89.327 9.2568,165.577 14.062,178.215 7.0568,18.561 6.9431,48.672 -0.3652,97.142 -5.8252,38.633 -17.6114,469.815 -17.6114,469.815 0,0 -433.7226,0.048 -513.2519,3.723 -1.2479,-6.334 -23.5611,-118.939 -24.377,-75.434 -0.4494,23.956 -11.5199,65.348 -14.3125,75.434 l -531.6367,-0.29 c 0,0 -18.7099,-103.184 -30.4277,-358.89 -6.7642,-147.608 -6.5829,-225.713 0.5859,-251.678 5.7173,-20.706 11.6326,-69.6 13.1446,-108.652 0.3795,-9.802 -0.4026,-17.614 0.3286,-27.294 l -68.1607,-2.091 -0.2887,1042.3108 z"
       id="path4520"
       inkscape:connector-curvature="0"
       sodipodi:nodetypes="cccssscccsccsccscscccc" />
    <path
       style="fill:#a05a2c;stroke:#000000;stroke-width:4;stroke-miterlimit:4;stroke-dasharray:none"
       d="m 4475.203,5203.8145 -0.4929,100.7524 c 5.9072,10.851 14.0575,30.6852 20.2062,41.2142 21.9901,37.652 42.6927,82.012 46.0059,98.578 9.9849,49.925 19.4045,26.348 22.0039,-55.08 1.3492,-42.262 4.7213,-80.51 7.4942,-84.996 -5.3658,-53.1549 -58.1432,-79.7966 -95.2173,-100.4686 z m 2.0909,337.3951 0.4929,62.2532 63.9063,0 c 2.1801,-28.043 5.5234,-53.202 8.6484,-62.453 4.8971,-14.496 6.0327,-19.776 -4.2168,-19.986 -5.3687,-0.111 -13.8604,1.169 -26.5723,3.246 -11.1476,1.821 -26.8866,12.7888 -42.2585,16.9398 z m 1483.6824,-985.1078 -179.8067,0 c 6.5097,22.856 15.3074,47.873 27.459,79.619 37.0156,96.703 40.1096,112.517 42.7402,218.43 1.5596,62.799 10.2226,158.859 19.25,213.467 29.4341,178.049 29.4899,179.387 8.1641,200.713 -10.6441,10.644 -68.6607,36.231 -128.9238,56.859 l -109.5684,37.504 3.7715,197.146 c 0.2875,15.032 0.8229,29.093 1.2598,43.623 l 170.8508,-0.3485 c 10.4355,-63.37 48.8204,-224.3905 76.2058,-298.2725 21.2619,-57.361 45.9391,-68.0457 67.3643,-70.6227 z"
       id="path4518"
       inkscape:connector-curvature="0"
       sodipodi:nodetypes="cccsscccccccccccssssscsccscc" />
    <path
       style="fill:#a05a2c;stroke:#000000;stroke-width:4;stroke-miterlimit:4;stroke-dasharray:none"
       d="m 4777.4026,3511.2037 c 4.849,4.019 10.0576,4.872 14.8427,8.554 32.486,24.998 65.8483,58.565 74.1386,74.596 15.6352,30.236 50.7856,39.875 59.795,16.397 2.6916,-7.015 -6.377,-48.266 -20.1524,-91.668 -1.2866,-4.054 -1.6197,-3.594 -2.7639,-7.268 z m 561.9954,-1.6703 c -2.754,9.372 -6.3933,16.1803 -8.3754,21.8533 -17.9038,51.247 -17.4576,57.2 4.3535,57.977 9.4505,0.336 25.268,4.268 35.1504,8.736 13.0714,5.91 25.3956,1.008 45.2227,-17.988 14.9899,-14.361 31.9031,-26.111 37.584,-26.111 5.6807,0 18.4721,-8.998 28.4257,-19.997 11.8625,-13.107 24.8162,-17.865 37.5977,-13.808 10.9415,3.473 32.4389,-1.882 57.5762,-12.215 z m 620.3502,281.5333 c -4.3241,5.791 -7.3729,9.819 -12.0644,16.115 -116.5973,156.471 -138.944,188.818 -124.1075,179.649 6.7789,-4.19 49.5005,-7.512 94.9375,-7.385 17.0934,0.05 30.1385,-0.02 41.2344,-0.358 z m -204.1269,554.705 5.9375,93.104 c 2.93,45.946 17.4765,114.326 17.4765,114.326 l 180.7129,0 0,-193.168 c -10.492,-0.705 -25.5213,-1.006 -42.8222,-0.629 -31.3995,0.685 -80.5385,-2.102 -109.1973,-6.193 z"
       id="path4608"
       inkscape:connector-curvature="0"
       sodipodi:nodetypes="ccccccccccccscscccscccccscccccc" />
    <path
       id="path4220"
       style="fill:#a05a2c;stroke:#000000;stroke-width:4;stroke-miterlimit:4;stroke-dasharray:none"
       d="m 5953.2618,6351.2401 c 62.6796,0 294.8261,0.4184 294.8261,0.4184 0,0 16.2481,-35.591 45.4509,-85.806 12.7125,-21.859 10.5886,70.561 10.1055,87.359 l 467.8691,0 c 0.9804,-2.318 0.7327,-1.676 1.9805,-4.879 7.6821,-25.957 146.7383,-498.215 146.7383,-673.756 0,-23.709 -0.6203,-47.393 -1.5508,-70.859 l 126.7104,-2e-4 c -5.8109,25.389 -11.2247,59.763 -14.1446,92.378 -18.7666,209.63 -38.0643,346.374 -57.5371,407.715 -19.7046,62.071 -19.8041,65.106 -2.5781,79.43 25.7526,21.414 -4.2136,169.274 -4.2136,169.274 l 462.017,0 0,296.0713 -1476.2541,0 z"
       inkscape:connector-curvature="0"
       sodipodi:nodetypes="ccscccsccsssccccc" />
    <path
       style="fill:#a05a2c;stroke:#000000"
       d="m 7072.0049,4553.1063 c -11.1787,52.609 -26.4192,168.444 -26.4291,224.163 -0.013,68.118 5.6095,96.167 35.8164,178.716 19.7065,53.854 38.0491,107.718 40.7636,119.698 3.2945,14.539 13.6628,22.792 31.1875,24.822 25.5707,2.961 26.4471,1.243 33.6387,-66.055 6.1122,-57.196 3.9673,-78.221 -12.4512,-122.103 -10.9083,-29.156 -31.2617,-109.761 -45.2324,-179.123 -18.428,-91.493 -30.9768,-149.326 -39.2207,-180.118 z m -32.7241,1046.565 c 3.3652,-14.407 6.8443,-25.936 10.0372,-32.11 9.9316,-19.206 16.1015,-55.501 16.1015,-94.72 l 0,-63.582 -80.5762,-93.287 c -95.2839,-110.315 -77.7554,-94.14 -110.5507,-102.008 -7.5087,-1.802 -12.9545,-3.029 -16.9024,-2.897 -10.0892,0.34 -10.4023,9.567 -10.4023,40.828 0,31.095 5.7435,49.832 19.084,62.26 22.6726,21.123 43.1745,147.183 48.7812,285.516 z m -1084.9055,-372.607 c 13.7934,-6.217 28.4184,-14.889 42.3235,-32.124 l 30.3945,-37.673 -27.3867,-21.899 c -27.0794,-21.655 -27.2175,-22.363 -12.6347,-63.598 8.1109,-22.934 20.0852,-78.227 26.6132,-122.873 10.0514,-68.741 9.3574,-95.809 -4.541,-176.732 -24.7705,-144.226 -40.2639,-204.975 -51.7383,-202.885 -2.0909,0.381 -1.7589,22.744 -3.0305,17.076 z"
       id="path4266"
       inkscape:connector-curvature="0"
       sodipodi:nodetypes="ccsccscsccccscsccsccccsccsssccc" />
    <path
       style="fill:#a05a2c;stroke:#000000;stroke-width:4;stroke-miterlimit:4;stroke-dasharray:none"
       d="m 5960.7687,3977.2282 c 40.9585,-1.232 48.3607,-6.888 70.9336,-31.053 52.2223,-55.903 92.1679,-152.778 57.5136,-139.48 -11.7267,4.5 -14.8925,-2.829 -14.8925,-34.475 0,-22.105 -4.542,-42.998 -10.0918,-46.428 -5.5498,-3.43 -7.5504,-10.344 -4.4473,-15.365 3.1031,-5.021 -1.8118,-6.269 -10.9219,-2.773 -14.5562,5.586 -15.0741,3.466 -4.2656,-17.489 5.2253,-10.13 7.6133,-15.768 6.1836,-15.738 -3.4083,0.07 -29.9645,34.364 -90.0117,114.777 z m 830.2539,-471.107 c 16.1444,44.912 26.4024,83.551 25.8672,102.373 -0.4517,15.885 4.36,38.564 10.6933,50.398 6.3332,11.834 10.9255,25.048 10.2051,29.365 -5.7403,34.397 5.9932,40.253 32.5293,16.239 9.9864,-9.038 18.1562,-22.098 18.1562,-29.024 0,-6.926 11.4454,-26.194 25.4336,-42.818 13.9883,-16.624 36.9632,-58.295 51.0547,-92.602 5.1931,-12.642 9.3172,-23.586 12.6153,-33.931 z"
       id="path4303"
       inkscape:connector-curvature="0"
       sodipodi:nodetypes="ccssssscccccssscssccc" />
    <path
       style="fill:#a05a2c;stroke:#000000;stroke-width:4;stroke-miterlimit:4;stroke-dasharray:none"
       d="m 8946.58,6346.8349 -729.4323,-1.1448 c 0,0 -42.0784,-208.258 -108.9472,-185.9 l -51.1817,17.111 -49.5469,178.988 -405.0078,1.988 c 0,0 24.0007,-87.912 -89.8906,-84.521 l -98.4553,2.309 0.1316,8.5 1.394,369.431 1532.4751,-1.9717 z"
       id="path4429"
       inkscape:connector-curvature="0"
       sodipodi:nodetypes="ccccccsccccc" />
    <path
       style="fill:#a05a2c;stroke:#000000;stroke-width:4;stroke-miterlimit:4;stroke-dasharray:none"
       d="m 9677.3421,5602.9107 c 0,0 60.318,163.15 69.8596,188.985 9.8177,26.582 16.0898,68.15 16.0898,68.15 -1.4142,15.818 -16.0428,13.352 28.3125,160.805 45.1206,149.998 84.1033,322.6033 84.1033,322.6033 l -429.625,6.029 c 0,0 -88.1508,-158.4383 -122.6384,-253.7493 -46.0952,-127.39 -82.9786,254.524 -82.9786,254.524 l -308.1445,-3.432 0,302.669 1483.1892,0 0,-1047.363 z"
       id="path4453"
       inkscape:connector-curvature="0"
       sodipodi:nodetypes="cscsccscccccc" />
    <path
       style="fill:#a05a2c;stroke:#000000;stroke-width:4;stroke-miterlimit:4;stroke-dasharray:none"
       d="m 9888.5425,4552.7765 c 2.4458,8.501 4.1873,16.58 4.1973,22.53 0.05,37.361 9.1664,33.997 49.6816,-18.332 0.9563,-1.236 2.4105,-2.888 3.4531,-4.198 z m 282.0645,0 c -29.912,36.312 -70.831,88.678 -112.941,145.133 -72.9198,97.757 -168.3802,213.482 -212.1372,257.168 -88.3541,88.211 -144.6105,184.232 -156.0273,266.315 -3.6632,26.335 -17.5059,76.698 -30.7637,111.923 -13.2579,35.223 -24.0286,82.928 -23.9336,106.012 0.1714,41.776 17.0766,101.755 37.8633,160.811 l 741.5505,0 0,-1047.362 z"
       id="path4457"
       inkscape:connector-curvature="0"
       sodipodi:nodetypes="cccccccsccccccc" />
    <path
       style="fill:#a05a2c;stroke:#000000;stroke-width:4;stroke-miterlimit:4;stroke-dasharray:none"
       d="m 8922.6732,2462.1339 0,1047.3614 369.9355,0 c 7.8615,-6.2537 16.998,-14.6125 28.5391,-25.9903 25.3986,-25.0389 54.6952,-45.5254 65.1035,-45.5254 10.4081,0 23.4547,-8.4672 28.9922,-18.8144 11.3452,-21.1984 59.4178,-40.7578 100.1699,-40.7578 19.596,0 28.7302,-6.0598 32.8418,-21.7832 5.5445,-21.2019 6.2318,-21.2982 25.7559,-3.6289 21.5511,19.5032 111.5369,28.3276 107.2773,10.5195 -1.306,-5.4608 -14.2553,-8.5815 -28.7754,-6.9336 -33.5565,3.8086 -47.1286,-16.546 -22.8633,-34.2891 10.045,-7.3451 17.7418,-11.5819 25.9825,-11.9863 13.7344,-0.674 28.9787,9.2962 59.1171,33.2539 23.9767,19.0597 47.774,34.697 52.8829,34.75 5.1087,0.049 19.6293,-9.6169 32.2675,-21.4902 12.639,-11.8735 22.9786,-17.0597 22.9786,-11.5235 0,5.5361 10.7535,14.9657 23.8945,20.9532 14.478,6.5967 26.5252,22.8742 30.5742,41.3086 3.675,16.7321 11.3165,30.4218 16.9805,30.4218 5.663,0 7.8836,9.2296 4.9336,20.5098 -2.2441,8.5802 2.0476,29.1727 9.9902,51.0059 l 496.6107,0 0,-1047.3614 z m 729.2793,867.8242 c -3.1124,0.045 -6.5148,0.6824 -9.6504,1.9375 -7.9204,3.1693 -5.5684,5.5236 5.998,6 10.4664,0.4309 16.3304,-1.9156 13.0313,-5.2148 -1.8559,-1.8558 -5.3772,-2.7787 -9.3789,-2.7207 z"
       id="path4346"
       inkscape:connector-curvature="0"
       sodipodi:nodetypes="cccsscscccssssccssssccccccccccc" />
    <path
       style="fill:#a05a2c;stroke:#000000;stroke-width:4;stroke-miterlimit:4;stroke-dasharray:none"
       d="m 6110.9037,2466.8629 c 9.0845,24.8953 17.3057,55.2595 24.6942,70.2423 10.7833,21.8673 26.394,64.3143 34.6894,94.3242 8.2954,30.0102 27.0504,83.1796 41.6777,118.1563 14.6273,34.9768 36.0098,103.2311 47.5176,151.6758 14.7708,62.1803 24.6978,86.633 33.7578,83.1562 18.6942,-7.1736 130.4324,-98.5268 131.2422,-107.2988 0.3783,-4.0956 -7.4106,-7.4453 -17.3105,-7.4453 -26.7536,0 -74.5242,-53.825 -67.4649,-76.0156 4.8206,-15.1523 16.5362,-18.3831 67.9844,-18.75 62.3243,-0.4448 210.7553,-38.6215 202.4668,-52.0743 -2.3912,-3.8808 17.0468,-6.8367 43.1953,-6.5703 35.2755,0.3594 69.1667,11.2478 131.3496,42.1973 58.4985,29.1158 96.4268,41.7109 125.5957,41.7109 40.5561,0 45.9427,4.1739 182.6074,141.4844 165.9345,166.7185 181.7395,179.1439 207.4493,163.0879 10.1177,-6.3186 18.3965,-20.2433 18.3965,-30.9434 0,-15.1315 2.6473,-16.8058 11.914,-7.539 16.5855,16.5856 28.3172,14.8839 21.4141,-3.1055 -14.8146,-38.606 50.4156,-58.4898 85.1484,-29.8203 l 0,-561.5938 z m 1327.8348,567.7619 c -0.4957,-0.4412 -1.0007,-0.8689 -1.5098,-1.2891 m -455.8359,483.7168 c 9.8239,-31.4885 11.7168,-57.6242 10.3769,-108.0059 -1.1871,-44.6422 2.4251,-89.7337 8.0293,-100.205 12.5409,-23.4329 -14.6102,-88.1162 -40.7011,-96.9629 -9.4128,-3.1917 -22.8585,-17.8269 -29.879,-32.5215 -7.7592,-16.2406 -22.4605,-28.0584 -37.4921,-30.1367 -14.4693,-2.0007 -48.5964,-28.3567 -82.2579,-63.5274 -61.5744,-64.335 -80.5736,-92.1939 -72.1582,-105.8105 11.2557,-18.2122 -45.0052,-58.1218 -96.2382,-68.2676 -14.1895,-2.8099 -26.8215,-4.4371 -38.6524,-4.6016 -1.3204,-0.018 -2.6301,-0.018 -3.9316,0 -40.3471,0.5724 -72.127,19.0215 -126.7324,66.8926 -63.2332,55.4351 -123.2237,85.8783 -153.5821,77.9395 -20.8763,-5.4592 -21.7725,-3.9517 -12.3633,20.7968 5.5797,14.6756 10.1446,39.7954 10.1446,55.8223 0,26.0152 3.4612,29.2667 32.2695,30.3164 17.7475,0.6463 36.7344,0.1151 42.1953,-1.1797 5.4607,-1.2952 28.8229,-4.6289 51.916,-7.4082 91.008,-10.9524 218.7377,90.2013 292.3535,231.5254 22.3118,42.8331 43.3758,91.9042 59.0684,135.334 z m 397.5176,-458.7344 c -5.783,0 -10.5157,4.4669 -10.5157,9.9278 0,5.4607 1.9709,9.9296 4.3789,9.9296 2.4081,0 7.1408,-4.4689 10.5157,-9.9296 3.375,-5.4609 1.4043,-9.9278 -4.3789,-9.9278 z"
       id="path4344"
       inkscape:connector-curvature="0"
       sodipodi:nodetypes="cssssccscscssssssssccccccssssssssccssssccssccsssss" />
    <path
       style="fill:#a05a2c;stroke:#000000;stroke-width:4;stroke-miterlimit:4;stroke-dasharray:none"
       d="m 5957.4907,2146.8023 c 6.7282,16.7342 13.841,35.2027 22.0664,57.9297 26.2701,72.5844 49.2994,118.5562 70.1875,140.1074 17.8589,18.4259 38.9828,56.9565 49.6387,90.543 2.8828,9.0862 6.3723,19.1393 10.0664,29.373 l 1330.5195,2.7891 0,-1047.3633 -1478.1018,3.0852 z"
       id="path4505"
       inkscape:connector-curvature="0"
       sodipodi:nodetypes="csssccccc" />
    <path
       style="fill:#a05a2c;stroke:#000000;stroke-width:4;stroke-miterlimit:4;stroke-dasharray:none"
       d="m 4476.3744,1415.9019 0,528.2539 c 14.8723,-3.2571 30.7804,-5.0677 55.795,-6.9746 7.7073,-0.5875 14.9518,-0.9057 21.748,-0.9297 80.1954,-0.2771 98.0601,40.4874 79.5527,164.1054 -15.5054,103.5672 -26.0802,131.7155 -78.457,208.8438 -36.9583,54.4237 -53.4163,98.2797 -55.3984,154.0625 l 1286.207,0 c -11.1199,-16.0791 -31.1951,-39.4221 -54.3086,-62.3301 -48.5254,-48.0942 -66.511,-73.9151 -75.8809,-108.9297 -6.7543,-25.241 -21.3436,-67.6118 -32.4199,-94.1582 -14.4205,-34.5614 -17.3451,-52.8871 -10.3008,-64.5371 5.4106,-8.9486 6.6199,-27.4399 2.6875,-41.0918 -19.8227,-68.8172 -0.6789,-131.6732 24.5567,-130.7129 9.8748,0.3757 20.6826,10.5234 30.4531,33.9082 12.1269,29.0246 17.3157,32.0972 51.6191,30.5567 20.9752,-0.9422 47.7767,-4.7069 59.5586,-8.3653 14.4998,-4.5024 27.5067,-0.5658 40.2559,12.1836 10.3594,10.3594 31.4253,18.5911 46.8125,18.293 30.9945,-0.6009 49.5369,18.8486 79.9727,93.6934 l 0,0.6506 10.7363,0 0,-726.5217 z"
       id="path4444"
       inkscape:connector-curvature="0"
       sodipodi:nodetypes="ccscssccssscssscsscccccc" />
    <path
       style="fill:#a05a2c;stroke:#000000;stroke-width:4;stroke-miterlimit:4;stroke-dasharray:none"
       d="m 2994.189,1412.2964 0,1047.3613 1239.1758,0.4929 c 12.8938,-47.445 25.7432,-75.6491 37.9316,-75.6491 20.0795,0 42.9502,-53.8502 49.7891,-117.2285 10.6998,-99.1611 40.0102,-272.8632 48.9082,-289.8477 4.2912,-8.1911 18.4389,-15.1997 31.4394,-15.5742 13.0006,-0.3745 31.4573,-3.7261 41.0137,-7.4473 13.9655,-5.4379 24.7773,-9.353 34.9316,-12.3262 l 0,-529.7812 z"
       id="path4190-4"
       inkscape:connector-curvature="0"
       sodipodi:nodetypes="cccsssscccc" />
    <rect
       style="opacity:1;fill:#a05a2c;fill-opacity:1;stroke:#000000;stroke-width:5;stroke-linecap:square;stroke-linejoin:miter;stroke-miterlimit:4;stroke-dasharray:none;stroke-dashoffset:0;stroke-opacity:1"
       id="rect4137-3-7-5-1-20"
       width="1047.3622"
       height="1483.189"
       x="-2459.6587"
       y="1511.2332"
       transform="matrix(0,-1,1,0,0,0)" />
    <rect
       style="opacity:1;fill:#a05a2c;fill-opacity:1;stroke:none;stroke-width:5;stroke-linecap:square;stroke-linejoin:miter;stroke-miterlimit:4;stroke-dasharray:none;stroke-dashoffset:0;stroke-opacity:1"
       id="rect4137-3-7-5-6-6-6"
       width="1047.3622"
       height="1483.189"
       x="-2459.6587"
       y="7442.127"
       transform="matrix(0,-1,1,0,0,0)" />
    <path
       inkscape:connector-curvature="0"
       style="fill:#a05a2c;stroke:#000000;stroke-width:4;stroke-miterlimit:4;stroke-dasharray:none"
       d="m 2005.2392,4188.1666 c 7.9088,0 17.1829,11.1703 20.6094,24.8222 5.397,21.504 11.8454,24.8691 48.2383,25.1738 41.4237,0.3469 41.6622,0.549 17.1855,14.5411 -35.5128,20.301 -69.502,18.9528 -69.502,-2.7559 0,-9.7066 -6.9543,-27.5783 -15.455,-39.7148 -13.1465,-18.7691 -13.3072,-22.0664 -1.0762,-22.0664 z"
       id="path4549-6" />
    <rect
       style="opacity:1;fill:#a05a2c;fill-opacity:1;stroke:none;stroke-width:5;stroke-linecap:square;stroke-linejoin:miter;stroke-miterlimit:4;stroke-dasharray:none;stroke-dashoffset:0;stroke-opacity:1"
       id="rect4137-3-7-5-6-6-6-2"
       width="1047.3622"
       height="1483.189"
       x="-2459.6587"
       y="8914.1992"
       transform="matrix(0,-1,1,0,0,0)" />
  </g>
</svg>
