<?xml version="1.0" encoding="UTF-8" standalone="no"?>
<!-- Created with Inkscape (http://www.inkscape.org/) -->

<svg
   xmlns:dc="http://purl.org/dc/elements/1.1/"
   xmlns:cc="http://creativecommons.org/ns#"
   xmlns:rdf="http://www.w3.org/1999/02/22-rdf-syntax-ns#"
   xmlns:svg="http://www.w3.org/2000/svg"
   xmlns="http://www.w3.org/2000/svg"
   xmlns:sodipodi="http://sodipodi.sourceforge.net/DTD/sodipodi-0.dtd"
   xmlns:inkscape="http://www.inkscape.org/namespaces/inkscape"
   width="457.20001mm"
   height="304.79999mm"
   viewBox="0 0 1620 1080"
   id="svg2"
   version="1.1"
   inkscape:version="0.91 r13725"
   sodipodi:docname="Telon-pieza-B2.svg">
  <defs
     id="defs4" />
  <sodipodi:namedview
     id="base"
     pagecolor="#ffffff"
     bordercolor="#666666"
     borderopacity="1.0"
     inkscape:pageopacity="0.0"
     inkscape:pageshadow="2"
     inkscape:zoom="0.28993495"
     inkscape:cx="790.16394"
     inkscape:cy="382.89366"
     inkscape:document-units="px"
     inkscape:current-layer="layer2"
     showgrid="false"
     inkscape:window-width="1215"
     inkscape:window-height="1000"
     inkscape:window-x="65"
     inkscape:window-y="24"
     inkscape:window-maximized="1" />
  <metadata
     id="metadata7">
    <rdf:RDF>
      <cc:Work
         rdf:about="">
        <dc:format>image/svg+xml</dc:format>
        <dc:type
           rdf:resource="http://purl.org/dc/dcmitype/StillImage" />
        <dc:title></dc:title>
      </cc:Work>
    </rdf:RDF>
  </metadata>
  <g
     inkscape:groupmode="layer"
     id="layer2"
     inkscape:label="Layer 2"
     style="display:inline">
    <path
       style="fill:none;stroke:#ff0000;stroke-width:4;stroke-miterlimit:4;stroke-dasharray:none"
       d="m 1489.2748,1053.7534 0,-574.44921 c -6.096,-5.7872 -12.495,-11.6942 -19.584,-17.918 -52.5541,-46.1399 -63.8872,-60.9287 -54.9453,-71.7031 14.5366,-17.5155 39.2627,-16.8103 74.5293,1.6133 l 0,-384.9062957 -1483.1875001,0 -0.7721,542.4273957 c 4.3697,2.8549 8.3931991,7.4883 8.3931991,10.973 0,8.1912 6.7013,14.8926 14.8926,14.8926 8.1911,0 14.8926,4.4668 14.8926,9.9277 0,5.4607 11.4722,9.9297 25.492199,9.9297 20.972398,0 24.372798,3.5199 19.187498,19.8574 -4.565,14.3832 -1.7832,19.8575 10.0879,19.8575 9.014104,0 14.506604,5.5841 12.207004,12.4101 -2.2994,6.8259 2.855,17.5931 11.4531,23.9258 14.0641,10.3588 13.743,13.5987 -3.1875,32.3066 -15.9594,17.6349 -17.0265,24.7289 -7.0215,46.6875 8.8905,19.5127 8.9911,29.2752 0.4043,39.6211 -6.2667,7.55087 -8.875,23.36027 -5.7969,35.13087 3.078,11.7705 0.9514,44.186 -4.7265,72.0352 -9.985004,48.9769 -13.183104,68.4823 -26.685602,156.90234 l 90.860602,0 c -1.2363,-14.4759 -2.5742,-28.8828 -3.5071,-41.7305 -7.7255,-106.38824 -6.9781,-115.30594 10.9571,-130.68164 17.785,-15.2472 18.4624,-22.4192 8.8925,-94.32227 -13.7588,-103.3773 -20.7852,-122.1134 -68.373,-182.3164 -64.674801,-81.8198 -47.378701,-108.2822 29.043,-44.4336 22.8764,19.1126 45.4343,34.75 50.1289,34.75 4.6947,0 9.8578,-30.1593 11.4726,-67.0195 2.603,-59.4209 5.1868,-67.0176 22.793,-67.0176 13.8355,0 22.7384,9.7852 29.3574,32.2676 12.335,41.8994 21.2632,40.7866 31.8477,-3.9688 7.4899,-31.6702 24.7207,-52.4495 39.1992,-52.1992 5.2369,0.091 10.1134,2.9333 14.039,9.0059 5.2953,8.1911 7.141,34.9987 4.1016,59.5722 l -5.5254,44.6797 22.9199,-29.6074 c 48.4151,-62.5436 64.6327,-77.6474 75.9004,-70.6836 19.8564,12.2719 12.813,46.7123 -22.8086,111.5176 l -34.3652,62.5176 38.2754,-19.9492 c 54.3533,-28.3305 102.7422,-34.6474 118.6445,-15.4864 16.2538,19.5847 8.4232,31.9601 -33.9961,53.7227 -18.6322,9.5589 -58.554,41.3632 -88.7148,70.6777 -51.2797,49.8407 -54.8379,56.3504 -54.8379,100.33197 0,31.7215 6.3523,55.1105 19.5117,71.8399 20.9522,26.6365 31.8638,67.3586 42.7891,168.53324 z"
       id="path4302"
       inkscape:connector-curvature="0"
       sodipodi:nodetypes="ccssccccsssssscssscssccsssssssscscscccscccssssscc" />
  </g>
  <g
     inkscape:groupmode="layer"
     id="layer1"
     inkscape:label="frame"
     style="display:inline" />
</svg>
