<?xml version="1.0" encoding="UTF-8" standalone="no"?>
<!-- Created with Inkscape (http://www.inkscape.org/) -->

<svg
   xmlns:dc="http://purl.org/dc/elements/1.1/"
   xmlns:cc="http://creativecommons.org/ns#"
   xmlns:rdf="http://www.w3.org/1999/02/22-rdf-syntax-ns#"
   xmlns:svg="http://www.w3.org/2000/svg"
   xmlns="http://www.w3.org/2000/svg"
   xmlns:sodipodi="http://sodipodi.sourceforge.net/DTD/sodipodi-0.dtd"
   xmlns:inkscape="http://www.inkscape.org/namespaces/inkscape"
   width="457.20001mm"
   height="304.79999mm"
   viewBox="0 0 1620 1080"
   id="svg2"
   version="1.1"
   inkscape:version="0.91 r13725"
   sodipodi:docname="Telon-pieza-C7.svg">
  <defs
     id="defs4" />
  <sodipodi:namedview
     id="base"
     pagecolor="#ffffff"
     bordercolor="#666666"
     borderopacity="1.0"
     inkscape:pageopacity="0.0"
     inkscape:pageshadow="2"
     inkscape:zoom="0.30903184"
     inkscape:cx="781.18108"
     inkscape:cy="192.75047"
     inkscape:document-units="px"
     inkscape:current-layer="layer2"
     showgrid="false"
     inkscape:window-width="1215"
     inkscape:window-height="1000"
     inkscape:window-x="65"
     inkscape:window-y="24"
     inkscape:window-maximized="1"
     showguides="true"
     inkscape:guide-bbox="true" />
  <metadata
     id="metadata7">
    <rdf:RDF>
      <cc:Work
         rdf:about="">
        <dc:format>image/svg+xml</dc:format>
        <dc:type
           rdf:resource="http://purl.org/dc/dcmitype/StillImage" />
        <dc:title></dc:title>
      </cc:Work>
    </rdf:RDF>
  </metadata>
  <g
     inkscape:groupmode="layer"
     id="layer2"
     inkscape:label="Layer 2"
     style="display:inline">
    <path
       style="fill:none;stroke:#ff0000;stroke-width:4;stroke-miterlimit:4;stroke-dasharray:none"
       d="m 14.39367,763.6535 c 19.192,-31.9497 21.86,-43.9223 2.913,-28.1978 -0.657,0.545 -1.938,0.9337 -2.564,1.4102 z m 0,-65.3516 c 23.344,-32.3024 48.556,-91.4239 41.32,-98.6601 -3.027,-3.0272 -16.132,-0.6613 -29.123,5.2578 -4.794,2.1841 -8.776,4.7669 -12.197,7.9922 z m 0,-127.7148 c 7.579,-1.7518 15.203,-3.0098 21.834,-3.0098 17.229,0 36.46,-6.1876 42.736,-13.75 9.141,-11.0136 5.943,-15.1218 -16.061,-20.6445 -33.717,-8.4626 -42.215,-20.8971 -42.412,-62.0606 -0.103,-21.9687 6.103,-35.2662 19.912,-42.6562 27.211,-14.5628 45.95,-1.8871 22.729,15.375 -14.268,10.607 -15.702,17.0561 -6.959,31.3144 16.42,26.7774 35.191,21.8875 60.574,-15.7793 27.796,-41.2454 28.105,-46.9391 2.881,-53.5351 -10.921,-2.8561 -19.857,-12.6132 -19.857,-21.6836 0,-11.9733 5.44,-14.7653 19.857,-10.1895 30.795,9.7738 58.311,-3.5135 75.295,-36.3574 14.214,-27.4873 14.105,-31.5318 -1.313,-48.5684 -9.251,-10.2217 -14.144,-25.5541 -10.875,-34.0722 4.906,-12.7853 9.347,-13.3601 25.467,-3.293 16.238,10.1407 22.97,9.082 39.944,-6.2793 11.227,-10.1604 20.402,-21.1314 20.392,-24.3808 -0.04,-11.9747 -86.694,-5.4578 -102.637,7.7187 -24.204,20.0027 -21.393,-3.6734 4.803,-40.4629 18.189,-25.5432 26.028,-29.1353 53.76,-24.6348 23.269,3.776 36.926,0.3401 48.209,-12.1269 19.595,-21.6521 20.193,-31.8091 1.451,-24.6172 -7.859,3.0159 -22.188,1.063 -31.842,-4.3398 -14.866,-8.3188 -11.537,-11.5115 21.737,-20.8496 21.609,-6.064496 48.111,-17.765996 58.896,-26.003996 16.659,-12.7244 17.744,-17.966 7.207,-34.8378 -11.351,-18.177 -10.355,-19.3472 11.744,-13.8008 12.912,3.2407 21.419,-1.2354 37.779,-13.8386 l -365.251,-0.7342 z M 1000.8737,15.194504 c 2.399,6.4653 5.069,13.0083 8.031,19.3691 13.181,28.3104 24.015,68.394696 24.065,89.076196 0.08,31.4532 7.401,44.7041 44.773,81.0254 49.8143,48.4136 52.1933,55.1757 27.3073,77.6992 -13.5963,12.3046 -17.1023,30.458 -16.1213,83.4512 2.06,111.2332 -15.298,134.931 -108.31301,147.8945 -65.763,9.1655 -96.48,23.9801 -96.48,46.5313 0,11.0219 7.381,25.439 16.404,32.0371 9.023,6.598 23.655,31.6629 32.512,55.7011 10.657,28.9226 22.739,44.6759 35.72,46.5743 21.626,3.1631 44.43401,43.2271 44.43401,78.0468 0,12.2918 7.323,26.4468 16.27,31.4532 9.066,5.074 20.249,30.5624 25.265,57.582 4.949,26.6639 11.547,60.8078 14.66,75.875 5.601,27.1084 -9.44,57 -28.683,57 -5.377,0 -7.055,-7.8186 -3.727,-17.375 5.044,-14.484 3.568,-14.1692 -8.867,1.8965 -14.998,19.3767 -18.704,15.3435 -15.436,-16.791 0.972,-9.5565 -2.981,-17.375 -8.785,-17.375 -5.80401,-3e-4 -10.55201,7.1876 -10.55201,15.9707 0,12.1132 -6.046,14.4507 -25.039,9.6836 -34.557,-8.6732 -40.695,13.3959 -15.307,55.039 6.447,10.574 11.909,23.8998 15.639,36.3223 l 59.51101,0 c 19.991,-24.8362 53.092,-60.7855 77.3363,-83.6582 31.271,-29.5024 54.3,-62.8084 67.121,-97.0762 10.735,-28.6908 32.751,-69.653 48.924,-91.0273 16.174,-21.3742 29.534,-46.4183 29.686,-55.6524 0.151,-9.234 4.936,-19.6705 10.636,-23.1933 15.866,-9.8055 39.282,14.7531 39.282,41.1992 0,28.5813 0.624,28.6304 47.048,3.748 42.714,-22.8933 70.592,-25.4019 77.657,-6.9902 3.179,8.2802 17.199,11.4339 39.336,8.8496 22.059,-2.5753 31.41,4.2972 33.201,12.9573 L 1496.903,14.518704 Z M 1498.424,774.2578 c -0.243,2.6683 -2.086,7.61 -2.478,10.9718 -1.996,17.1401 -10.836,39.1322 -19.65,48.8711 -11.423,12.6222 -12.963,20.7712 -5.359,28.375 7.604,7.6039 -12.69,28.8079 -70.668,73.834 -44.735,34.7412 -92.132,70.3069 -105.325,79.0352 -5.432,3.594 -20.97,21.0622 -42.013,46.5371 l 243.972,0 z M 47.36767,498.5812 c -4.745,0 -6.09,3.1409 -2.207,9.4238 3.375,5.4608 13.694,9.8614 22.928,9.7774 14.469,-0.1319 14.728,-1.483 1.894,-9.7774 -9.722,-6.2829 -17.869,-9.4238 -22.615,-9.4238 z M 837.9757,775.7921 c -2.146,-0.1173 -3.485,2.2007 -3.485,7.752 0,29.2728 70.21799,181.1797 83.74999,181.1797 1.915,0 5.884,-6.2492 8.815,-13.8867 2.931,-7.6376 -7.856,-28.6513 -23.967,-46.6973 -16.355,-18.3185 -31.942,-49.3789 -35.291,-70.3203 -4.179,-26.1345 -22.15699,-57.6087 -29.82199,-58.0274 z m 104.55599,98.4082 c -6.947,0.5535 -9.105,17.1477 -3.053,37.9356 l 8.086,27.7656 3.784,-28.2109 c 2.081,-15.5164 1.212,-30.7806 -1.93,-33.9219 -2.62,-2.6204 -4.942,-3.7234 -6.887,-3.5684 z"
       id="path4551"
       inkscape:connector-curvature="0"
       sodipodi:nodetypes="ccccccccccscsccccccsssccsscccscccsccsccccscssssscsccssssccsscccscccssscsccccccssccccccscscscsccccccccccc" />
  </g>
  <g
     inkscape:groupmode="layer"
     id="layer1"
     inkscape:label="frame"
     style="display:inline" />
</svg>
