<?xml version="1.0" encoding="UTF-8" standalone="no"?>
<!-- Created with Inkscape (http://www.inkscape.org/) -->

<svg
   xmlns:dc="http://purl.org/dc/elements/1.1/"
   xmlns:cc="http://creativecommons.org/ns#"
   xmlns:rdf="http://www.w3.org/1999/02/22-rdf-syntax-ns#"
   xmlns:svg="http://www.w3.org/2000/svg"
   xmlns="http://www.w3.org/2000/svg"
   xmlns:sodipodi="http://sodipodi.sourceforge.net/DTD/sodipodi-0.dtd"
   xmlns:inkscape="http://www.inkscape.org/namespaces/inkscape"
   width="457.20001mm"
   height="308.39999mm"
   viewBox="0 0 1620 1092.7559"
   id="svg2"
   version="1.1"
   inkscape:version="0.91 r13725"
   sodipodi:docname="pajaros.svg">
  <defs
     id="defs4">
    <clipPath
       id="clipPath4286"
       clipPathUnits="userSpaceOnUse">
      <path
         inkscape:connector-curvature="0"
         id="path4288"
         d="m 160,3890 2230,0 0,4560 -2230,0 0,-4560 z" />
    </clipPath>
  </defs>
  <sodipodi:namedview
     id="base"
     pagecolor="#ffffff"
     bordercolor="#666666"
     borderopacity="1.0"
     inkscape:pageopacity="0.0"
     inkscape:pageshadow="2"
     inkscape:zoom="0.35"
     inkscape:cx="615.47212"
     inkscape:cy="591.65115"
     inkscape:document-units="px"
     inkscape:current-layer="layer2"
     showgrid="false"
     inkscape:window-width="1215"
     inkscape:window-height="1000"
     inkscape:window-x="65"
     inkscape:window-y="24"
     inkscape:window-maximized="1" />
  <metadata
     id="metadata7">
    <rdf:RDF>
      <cc:Work
         rdf:about="">
        <dc:format>image/svg+xml</dc:format>
        <dc:type
           rdf:resource="http://purl.org/dc/dcmitype/StillImage" />
        <dc:title></dc:title>
      </cc:Work>
    </rdf:RDF>
  </metadata>
  <g
     inkscape:label="Capa 1"
     inkscape:groupmode="layer"
     id="layer1"
     transform="translate(0,40.393701)"
     style="display:none">
    <path
       d="m 538.14326,318.42366 1.2253,-111.93814 c 8.65443,4.47606 28.39858,12.78178 46.93772,7.2192 24.64329,-7.38984 36.24729,-35.44057 36.24729,-35.44057 0,0 -26.70437,-16.81786 -51.43757,-9.72887 -15.95648,4.56589 -26.33032,17.89539 -31.74744,26.85202 l 0,-49.84751 c 24.32312,-0.18866 101.72006,-7.58288 97.21655,-104.364267 0,0 -31.12877,3.138182 -62.84382,28.616431 0.33094,-4.000192 0.44244,-8.1665 0.29857,-12.507893 -2.24097,-62.5485424 -48.99522,-88.291646 -48.99522,-88.291646 l 0,7e-5 c 0,0 -46.74706,25.7430976 -48.98803,88.29164 -0.15811,4.341394 -0.0194,8.507723 0.29857,12.507894 C 444.65449,44.31377 413.52573,41.175587 413.52573,41.175587 409.00785,137.94348 490.4723,145.35126 514.82782,145.53985 l 0,41.28595 c -3.23734,-7.75345 -9.57171,-18.77981 -20.94194,-24.27502 -18.58948,-9.00157 -42.43781,1.29298 -42.43781,1.29298 0,0 5.0862,24.073 23.81596,32.83663 15.35214,7.1698 33.32652,1.92601 39.56379,-0.26944 l 0,122.01271 z"
       style="fill:none;stroke:#ff0000;stroke-width:3.63979316;stroke-linecap:butt;stroke-linejoin:miter;stroke-miterlimit:4;stroke-dasharray:none;stroke-opacity:1"
       id="path4294"
       inkscape:connector-curvature="0"
       sodipodi:nodetypes="ccccccccccccccccccccccc" />
    <path
       sodipodi:nodetypes="ccscccscscccccccccccccccc"
       inkscape:connector-curvature="0"
       id="path4962"
       style="fill:none;stroke:#ff0000;stroke-width:4.44448948;stroke-linecap:butt;stroke-linejoin:miter;stroke-miterlimit:4;stroke-dasharray:none;stroke-opacity:1"
       d="m 239.5983,317.34177 c -10.85817,-23.39224 -12.42245,-58.61795 -15.27872,-69.30256 -2.89103,-10.85464 -2.30453,-15.74977 5.91121,-15.74977 3.74134,0 8.04006,0.7182 12.32168,1.73786 13.72981,3.30022 46.92483,71.62629 50.05084,83.42386 l 28.94388,-0.76036 c -5.26503,-6.55659 -63.14167,-81.83598 -47.36592,-83.70541 15.77617,-1.86938 44.60844,-24.78465 44.60844,-24.78465 82.6214,-39.37809 68.35087,-138.757997 68.35087,-156.563976 0,-17.816858 1.50218,-43.1223651 12.76398,-46.8830911 11.2662,-3.744296 29.29651,-15.0045559 29.29651,-15.0045559 -5.4596,-5.827519 -30.97436,0.5755999 -30.97436,0.5755999 -9.77723,-11.0683829 -24.25856,-18.4308979 -24.25856,-18.4308979 -6.3095,-2.894545 -12.72971,-4.226721 -19.22941,-4.281542 -52.88391,-0.465953 -110.08195,84.06289 -131.70383,111.627016 -24.28097,30.973967 -84.97171,76.409827 -84.97171,76.409827 0,0 -143.5493563,70.48912 -126.654877,69.80933 16.89665,-0.65239 87.078252,-34.22491 87.078252,-34.22491 5.284345,3.95261 31.127645,5.91522 31.127645,5.91522 l -8.96817,15.15806 21.11807,-11.85779 c 0,0 24.80364,3.27828 33.76961,1.96258 8.96817,-1.30476 22.16168,11.21093 27.96479,21.08424 5.20923,8.85361 11.80292,73.61396 15.39009,93.59631 z" />
  </g>
  <g
     inkscape:groupmode="layer"
     id="layer2"
     inkscape:label="Capa 2">
    <path
       style="display:inline;fill:none;stroke:#ff0000;stroke-width:1.43957043"
       d="m 30.677233,8.645115 c 30.85487,-2.75864 66.74912,0.33063 113.178007,9.74067 28.4899,5.77427 83.4697,21.725225 90.6427,26.297395 3.3093,2.10953 11.4171,6.10313 18.0173,8.87477 9.3098,3.9095 16.1839,8.39325 30.6613,19.99967 10.2635,8.22832 25.0894,19.48557 32.9464,25.01636 13.8529,9.75134 33.6542,21.20608 37.006,21.40709 0.9056,0.054 11.1978,-5.12599 22.8715,-11.51191 24.9347,-13.64026 46.9271,-23.219 63.4986,-27.65676 13.2908,-3.55916 22.6955,-8.20091 33.6547,-16.61031 9.0913,-6.97619 11.4272,-10.312 19.4512,-27.778725 3.489,-7.59486 7.03,-14.17799 7.8688,-14.62923 0.8387,-0.45132 1.3127,-2.91347 1.0538,-5.47137 -0.5819,-5.74525 2.6727,-7.79666 9.2408,-5.82413 6.026,1.80966 7.4285,6.02622 5.775,17.36138 -0.6405,4.3906 -1.1802,10.72453 -1.1993,14.075505 -0.019,3.35083 -1.0504,9.42309 -2.2918,13.49373 -2.0697,6.78655 -1.9092,8.33807 1.9371,18.68175 8.2617,22.21981 6.1553,38.09292 -7.1435,53.83084 -2.4743,2.92806 -12.2142,10.41644 -22.4541,17.26304 -9.9464,6.65051 -19.7776,13.45855 -21.8471,15.12898 l -3.7626,3.03715 4.8161,3.36639 c 2.6486,1.85145 7.6392,5.42615 11.0898,7.9436 17.2535,12.58808 43.2386,20.84827 80.3331,25.53665 39.8123,5.03169 39.0879,4.74022 54.2371,21.82788 27.6058,31.13832 37.3766,43.91403 47.269,61.80611 6.6587,12.04367 8.075,15.62518 8.3914,21.22119 0.438,7.74579 0.556,7.6843 -16.6223,8.65476 -14.1076,0.79685 -36.2735,-2.47685 -50.895,-7.51688 -20.4917,-7.06356 -36.6044,-16.7562 -59.8565,-36.00506 -1.6173,-1.33892 -5.7651,-1.37801 -12.6441,-0.11513 -5.6305,1.03256 -18.5933,2.08849 -28.8061,2.34642 -32.7153,0.82623 -45.7848,-1.20986 -89.1923,-13.89512 -22.8511,-6.67796 -41.2834,-11.21173 -43.3346,-10.65891 -8.4015,2.2644 -36.5088,15.79728 -38.2921,18.43658 -1.0048,1.48699 -3.5524,7.20204 -5.6612,12.69998 -4.4194,11.5214 -7.3014,13.69212 -24.6231,18.54569 -23.2668,6.51913 -47.0851,4.0196 -60.214,-6.31906 -4.7191,-3.7163 -7.7819,-7.5574 -11.5853,-14.53027 -6.0282,-11.0524 -9.7399,-24.0305 -7.587,-26.53155 0.8271,-0.96088 10.5054,-3.82424 21.5072,-6.36313 15.3581,-3.54428 21.0332,-5.44058 24.4379,-8.16577 6.4512,-5.16368 17.0291,-18.54462 17.2363,-21.80366 0.1407,-2.20998 -8.1573,-8.63592 -39.2341,-30.38317 -39.8776,-27.906 -55.4731,-40.48041 -65.3591,-52.69775 -5.2677,-6.51011 -5.7555,-6.74748 -15.2387,-7.41401 l -9.7967,-0.68847 1.571,-5.23121 1.5709,-5.23106 -11.4367,0.81476 c -11.8903,0.84723 -12.582,0.45649 -13.3488,-7.5415 -0.2082,-2.17193 -1.7554,-2.57356 -7.8314,-2.03316 -10.0625,0.89508 -14.3134,-0.1703 -13.6569,-3.42288 0.2742,-1.35984 1.417,-2.99041 2.5399,-3.62322 1.1228,-0.63312 -1.9305,-1.01316 -6.785,-0.84474 -6.302447,0.21867 -9.216237,-0.41872 -10.190517,-2.22908 -0.89541,-1.66426 -0.45886,-3.20208 1.2702,-4.47538 3.89098,-2.8652 2.3524,-4.02676 -5.72505,-4.3213 -9.81014,-0.35746 -12.7854,-1.6395 -12.06717,-5.1994 0.30548,-1.51288 2.32114,-3.74404 4.47985,-4.95828 3.6456,-2.05 3.2489,-2.18514 -5.5709,-1.8933 -5.22293,0.173 -11.09214,-0.0795 -13.04322,-0.56092 -5.26014,-1.29824 -6.09395,-5.63094 -1.9361,-10.06123 l 3.55478,-3.78753 -6.53295,-0.39187 c -16.06294,-0.96367 -24.0344,-5.20265 -18.85254,-10.02454 2.30345,-2.1435 1.89801,-2.4409 -7.12108,-5.22405 -11.07136,-3.416695 -12.74091,-6.397635 -5.70403,-10.184215 2.46228,-1.32484 4.33363,-2.67491 4.1587,-3.00003 -0.17493,-0.32492 -4.49968,-2.89362 -9.61032,-5.70786 C 3.0057729,14.238415 5.4217229,10.903115 30.677233,8.645105 Z"
       id="path5034"
       inkscape:connector-curvature="0" />
    <path
       inkscape:connector-curvature="0"
       id="path5575"
       d="m 544.29704,55.69946 c 30.3843,-6.03533 66.4033,-6.79388 113.5711,-2.39186 28.9435,2.70122 85.3115,12.69434 92.9313,16.475 3.5156,1.74436 12.0032,4.85 18.8615,6.90152 9.6738,2.89375 16.9871,6.6184 32.6203,16.6137 11.083,7.08614 27.0254,16.6971 35.4278,21.3579 14.8143,8.21748 35.7248,17.49387 39.079,17.33607 0.9062,-0.0429 10.5869,-6.29162 21.5125,-13.88674 23.3368,-16.22311 44.1815,-28.09391 60.1848,-34.27463 12.8352,-4.95707 21.6909,-10.57586 31.6901,-20.10668 8.2951,-7.90647 10.26166,-11.47249 16.37606,-29.695706 2.6585,-7.9238 5.4768,-14.84719 6.2627,-15.38536 0.7858,-0.53823 0.9943,-3.03691 0.4639,-5.55258 -1.1916,-5.65035 1.8256,-8.03734 8.5666,-6.77693 6.1847,1.1563 8.0292,5.19914 7.5946,16.64602 -0.1683,4.43388 -0.029,10.78923 0.3096,14.12311 0.3386,3.333716 -0.039,9.481366 -0.8389,13.661226 -1.3337,6.96866 -1.0086,8.4942 3.9195,18.36838 10.5855,21.21137 10.1849,37.21864 -1.3585,54.28578 -2.1478,3.17536 -11.033,11.66031 -20.4838,19.56049 -9.1799,7.67388 -18.22846,15.49212 -20.10796,17.37384 l -3.4171,3.42132 5.1479,2.83325 c 2.8311,1.55825 8.17456,4.58001 11.87406,6.71488 18.4982,10.67514 45.2163,16.11536 82.5993,16.81872 40.122,0.75469 39.3706,0.54219 56.2567,15.91575 30.7708,28.0148 41.8491,39.67494 53.5942,56.40928 7.9058,11.26438 9.6963,14.67431 10.608,20.2046 1.262,7.65483 1.3728,7.5811 -15.6038,10.37907 -13.9421,2.29769 -36.3308,1.40794 -51.4066,-2.04308 -21.1284,-4.83663 -38.1834,-12.75458 -63.3568,-29.41236 -1.7509,-1.1587 -5.8792,-0.75497 -12.5841,1.23473 -5.4883,1.62749 -18.2643,4.06061 -28.3912,5.40684 -32.4403,4.31248 -45.65246,3.68263 -90.16576,-4.2983 -23.4332,-4.20146 -42.2441,-6.74248 -44.2246,-5.97394 -8.1119,3.14798 -34.6146,19.60284 -36.1061,22.41737 -0.8404,1.58572 -2.7636,7.53999 -4.2737,13.23156 -3.1647,11.92719 -5.7987,14.39305 -22.5036,21.06727 -22.4382,8.96464 -46.3873,9.02097 -60.5444,0.14228 -5.0887,-3.19151 -8.5439,-6.68386 -13.0696,-13.21107 -7.1732,-10.34603 -12.2486,-22.85397 -10.3749,-25.57047 0.7199,-1.04366 10.0374,-4.92341 20.7054,-8.62178 14.8923,-5.16286 20.3326,-7.65391 23.427,-10.72685 5.8634,-5.82259 14.953,-20.25586 14.8114,-23.51841 -0.096,-2.21237 -9.0323,-7.71617 -42.2522,-26.02313 -42.6277,-23.49144 -59.476,-34.3299 -70.6092,-45.42257 -5.9324,-5.91084 -6.4427,-6.0948 -15.9428,-5.7456 l -9.8143,0.36084 1.0039,-5.36898 1.0037,-5.36882 -11.2845,2.03049 c -11.732,2.11117 -12.4614,1.79647 -14.0773,-6.07403 -0.4388,-2.13732 -2.02,-2.37155 -8.0037,-1.18588 -9.9095,1.96371 -14.2498,1.35802 -13.9441,-1.94606 0.1275,-1.38134 1.0898,-3.12454 2.1388,-3.87356 1.0488,-0.74931 -2.0276,-0.80137 -6.8364,-0.1159 -6.2432,0.88993 -9.2083,0.5671 -10.3702,-1.12895 -1.0679,-1.55921 -0.798,-3.13484 0.7853,-4.58537 3.5631,-3.26404 1.9093,-4.25479 -6.1534,-3.68573 -9.7923,0.6914 -12.8874,-0.26583 -12.5531,-3.88205 0.1423,-1.53685 1.9084,-3.97035 3.9252,-5.408 3.406,-2.42731 2.9972,-2.51935 -5.7411,-1.28804 -5.1747,0.72933 -11.0373,1.10457 -13.0286,0.83409 -5.3687,-0.72953 -6.6601,-4.94852 -2.9987,-9.7972 l 3.1303,-4.14522 -6.5375,0.30748 c -16.074,0.75587 -24.4523,-2.6083 -19.8145,-7.9556 2.0615,-2.37704 1.6267,-2.6295 -7.6379,-4.43435 -11.3727,-2.21579 -13.3508,-5.00155 -6.7582,-9.5174 2.3068,-1.58003 4.0234,-3.12206 3.8148,-3.42667 -0.2086,-0.30436 -4.7827,-2.39695 -10.1645,-4.64977 -17.7804,-7.44311 -15.7341,-11.01717 9.1363,-15.95724 z"
       style="display:inline;fill:none;stroke:#ff0000;stroke-width:1.43957043" />
    <path
       inkscape:connector-curvature="0"
       id="path5577"
       d="m 30.677233,287.44722 c 30.85487,-2.75864 66.74912,0.33063 113.178007,9.74067 28.4899,5.77427 83.4697,21.72522 90.6427,26.29739 3.3093,2.10953 11.4171,6.10313 18.0173,8.87477 9.3098,3.9095 16.1839,8.39325 30.6613,19.99967 10.2635,8.22832 25.0894,19.48557 32.9464,25.01636 13.8529,9.75134 33.6542,21.20608 37.006,21.40709 0.9056,0.054 11.1978,-5.12599 22.8715,-11.51191 24.9347,-13.64026 46.9271,-23.219 63.4986,-27.65676 13.2908,-3.55916 22.6955,-8.20091 33.6547,-16.61031 9.0913,-6.97619 11.4272,-10.312 19.4512,-27.77872 3.489,-7.59486 7.03,-14.17799 7.8688,-14.62923 0.8387,-0.45132 1.3127,-2.91347 1.0538,-5.47137 -0.5819,-5.74525 2.6727,-7.79666 9.2408,-5.82413 6.026,1.80966 7.4285,6.02622 5.775,17.36138 -0.6405,4.3906 -1.1802,10.72453 -1.1993,14.0755 -0.019,3.35083 -1.0504,9.42309 -2.2918,13.49373 -2.0697,6.78655 -1.9092,8.33807 1.9371,18.68175 8.2617,22.21981 6.1553,38.09292 -7.1435,53.83084 -2.4743,2.92806 -12.2142,10.41644 -22.4541,17.26304 -9.9464,6.65051 -19.7776,13.45855 -21.8471,15.12898 l -3.7626,3.03715 4.8161,3.36639 c 2.6486,1.85145 7.6392,5.42615 11.0898,7.9436 17.2535,12.58808 43.2386,20.84827 80.3331,25.53665 39.8123,5.03169 39.0879,4.74022 54.2371,21.82788 27.6058,31.13832 37.3766,43.91403 47.269,61.80611 6.6587,12.04367 8.075,15.62518 8.3914,21.22119 0.438,7.74579 0.556,7.6843 -16.6223,8.65476 -14.1076,0.79685 -36.2735,-2.47685 -50.895,-7.51688 -20.4917,-7.06356 -36.6044,-16.7562 -59.8565,-36.00506 -1.6173,-1.33892 -5.7651,-1.37801 -12.6441,-0.11513 -5.6305,1.03256 -18.5933,2.08849 -28.8061,2.34642 -32.7153,0.82623 -45.7848,-1.20986 -89.1923,-13.89512 -22.8511,-6.67796 -41.2834,-11.21173 -43.3346,-10.65891 -8.4015,2.2644 -36.5088,15.79728 -38.2921,18.43658 -1.0048,1.48699 -3.5524,7.20204 -5.6612,12.69998 -4.4194,11.5214 -7.3014,13.69212 -24.6231,18.54569 -23.2668,6.51913 -47.0851,4.0196 -60.214,-6.31906 -4.7191,-3.7163 -7.7819,-7.5574 -11.5853,-14.53027 -6.0282,-11.0524 -9.7399,-24.0305 -7.587,-26.53155 0.8271,-0.96088 10.5054,-3.82424 21.5072,-6.36313 15.3581,-3.54428 21.0332,-5.44058 24.4379,-8.16577 6.4512,-5.16368 17.0291,-18.54462 17.2363,-21.80366 0.1407,-2.20998 -8.1573,-8.63592 -39.2341,-30.38317 -39.8776,-27.906 -55.4731,-40.48041 -65.3591,-52.69775 -5.2677,-6.51011 -5.7555,-6.74748 -15.2387,-7.41401 l -9.7967,-0.68847 1.571,-5.23121 1.5709,-5.23106 -11.4367,0.81476 c -11.8903,0.84723 -12.582,0.45649 -13.3488,-7.5415 -0.2082,-2.17193 -1.7554,-2.57356 -7.8314,-2.03316 -10.0625,0.89508 -14.3134,-0.1703 -13.6569,-3.42288 0.2742,-1.35984 1.417,-2.99041 2.5399,-3.62322 1.1228,-0.63312 -1.9305,-1.01316 -6.785,-0.84474 -6.302447,0.21867 -9.216237,-0.41872 -10.190517,-2.22908 -0.89541,-1.66426 -0.45886,-3.20208 1.2702,-4.47538 3.89098,-2.8652 2.3524,-4.02676 -5.72505,-4.3213 -9.81014,-0.35746 -12.7854,-1.6395 -12.06717,-5.1994 0.30548,-1.51288 2.32114,-3.74404 4.47985,-4.95828 3.6456,-2.05 3.2489,-2.18514 -5.5709,-1.8933 -5.22293,0.173 -11.09214,-0.0795 -13.04322,-0.56092 -5.26014,-1.29824 -6.09395,-5.63094 -1.9361,-10.06123 l 3.55478,-3.78753 -6.53295,-0.39187 c -16.06294,-0.96367 -24.0344,-5.20265 -18.85254,-10.02454 2.30345,-2.1435 1.89801,-2.4409 -7.12108,-5.22405 -11.07136,-3.41669 -12.74091,-6.39763 -5.70403,-10.18421 2.46228,-1.32484 4.33363,-2.67491 4.1587,-3.00003 -0.17493,-0.32492 -4.49968,-2.89362 -9.61032,-5.70786 -16.8846201,-9.29791 -14.4686701,-12.63321 10.78684,-14.89122 z"
       style="display:inline;fill:none;stroke:#ff0000;stroke-width:1.43957043" />
    <path
       style="display:inline;fill:none;stroke:#ff0000;stroke-width:1.43957043"
       d="m 544.29704,334.50157 c 30.3843,-6.03533 66.4033,-6.79388 113.5711,-2.39186 28.9435,2.70122 85.3115,12.69434 92.9313,16.475 3.5156,1.74436 12.0032,4.85 18.8615,6.90152 9.6738,2.89375 16.9871,6.6184 32.6203,16.6137 11.083,7.08613 27.0254,16.69709 35.4278,21.35789 14.8143,8.21748 35.7248,17.49387 39.079,17.33607 0.9062,-0.0429 10.5869,-6.29162 21.5125,-13.88674 23.3368,-16.22311 44.1815,-28.0939 60.1848,-34.27462 12.8352,-4.95707 21.6909,-10.57586 31.6901,-20.10668 8.2951,-7.90647 10.26166,-11.47249 16.37606,-29.69571 2.6585,-7.9238 5.4768,-14.84719 6.2627,-15.38536 0.7858,-0.53823 0.9943,-3.03691 0.4639,-5.55258 -1.1916,-5.65036 1.8256,-8.03735 8.5666,-6.77694 6.1847,1.1563 8.0292,5.19915 7.5946,16.64603 -0.1683,4.43388 -0.029,10.78923 0.3096,14.12311 0.3386,3.33372 -0.039,9.48137 -0.8389,13.66123 -1.3337,6.96866 -1.0086,8.4942 3.9195,18.36838 10.5855,21.21137 10.1849,37.21863 -1.3585,54.28577 -2.1478,3.17536 -11.033,11.66031 -20.4838,19.56049 -9.1799,7.67388 -18.22846,15.49212 -20.10796,17.37384 l -3.4171,3.42132 5.1479,2.83325 c 2.8311,1.55825 8.17456,4.58001 11.87406,6.71488 18.4982,10.67514 45.2163,16.11536 82.5993,16.81872 40.122,0.75469 39.3706,0.54219 56.2567,15.91575 30.7708,28.0148 41.8491,39.67494 53.5942,56.40928 7.9058,11.26438 9.6963,14.67431 10.608,20.2046 1.262,7.65483 1.3728,7.5811 -15.6038,10.37907 -13.9421,2.29769 -36.3308,1.40794 -51.4066,-2.04308 -21.1284,-4.83663 -38.1834,-12.75458 -63.3568,-29.41236 -1.7509,-1.1587 -5.8792,-0.75497 -12.5841,1.23473 -5.4883,1.62749 -18.2643,4.06061 -28.3912,5.40684 -32.4403,4.31248 -45.65246,3.68263 -90.16576,-4.2983 -23.4332,-4.20146 -42.2441,-6.74248 -44.2246,-5.97394 -8.1119,3.14798 -34.6146,19.60284 -36.1061,22.41737 -0.8404,1.58572 -2.7636,7.53999 -4.2737,13.23156 -3.1647,11.92719 -5.7987,14.39305 -22.5036,21.06727 -22.4382,8.96464 -46.3873,9.02097 -60.5444,0.14228 -5.0887,-3.19151 -8.5439,-6.68386 -13.0696,-13.21107 -7.1732,-10.34603 -12.2486,-22.85397 -10.3749,-25.57047 0.7199,-1.04366 10.0374,-4.92341 20.7054,-8.62178 14.8923,-5.16286 20.3326,-7.65391 23.427,-10.72685 5.8634,-5.82259 14.953,-20.25586 14.8114,-23.51841 -0.096,-2.21237 -9.0323,-7.71617 -42.2522,-26.02313 -42.6277,-23.49144 -59.476,-34.3299 -70.6092,-45.42257 -5.9324,-5.91084 -6.4427,-6.0948 -15.9428,-5.7456 l -9.8143,0.36084 1.0039,-5.36898 1.0037,-5.36882 -11.2845,2.03049 c -11.732,2.11117 -12.4614,1.79647 -14.0773,-6.07403 -0.4388,-2.13732 -2.02,-2.37155 -8.0037,-1.18588 -9.9095,1.96371 -14.2498,1.35802 -13.9441,-1.94606 0.1275,-1.38134 1.0898,-3.12454 2.1388,-3.87356 1.0488,-0.74931 -2.0276,-0.80137 -6.8364,-0.1159 -6.2432,0.88993 -9.2083,0.5671 -10.3702,-1.12895 -1.0679,-1.55921 -0.798,-3.13484 0.7853,-4.58537 3.5631,-3.26404 1.9093,-4.25479 -6.1534,-3.68573 -9.7923,0.6914 -12.8874,-0.26583 -12.5531,-3.88205 0.1423,-1.53685 1.9084,-3.97035 3.9252,-5.408 3.406,-2.42731 2.9972,-2.51935 -5.7411,-1.28804 -5.1747,0.72933 -11.0373,1.10457 -13.0286,0.83409 -5.3687,-0.72953 -6.6601,-4.94852 -2.9987,-9.7972 l 3.1303,-4.14522 -6.5375,0.30748 c -16.074,0.75587 -24.4523,-2.60829 -19.8145,-7.95559 2.0615,-2.37704 1.6267,-2.6295 -7.6379,-4.43435 -11.3727,-2.21579 -13.3508,-5.00155 -6.7582,-9.5174 2.3068,-1.58003 4.0234,-3.12206 3.8148,-3.42667 -0.2086,-0.30436 -4.7827,-2.39695 -10.1645,-4.64977 -17.7804,-7.44311 -15.7341,-11.01717 9.1363,-15.95724 z"
       id="path5579"
       inkscape:connector-curvature="0" />
    <path
       style="display:inline;fill:none;stroke:#ff0000;stroke-width:1.43957043"
       d="m 30.677233,558.1681 c 30.85487,-2.75864 66.74912,0.33063 113.178007,9.74067 28.4899,5.77427 83.4697,21.72522 90.6427,26.29739 3.3093,2.10953 11.4171,6.10313 18.0173,8.87477 9.3098,3.9095 16.1839,8.39325 30.6613,19.99967 10.2635,8.22832 25.0894,19.48557 32.9464,25.01636 13.8529,9.75134 33.6542,21.20608 37.006,21.40709 0.9056,0.054 11.1978,-5.12599 22.8715,-11.51191 24.9347,-13.64026 46.9271,-23.219 63.4986,-27.65676 13.2908,-3.55916 22.6955,-8.20091 33.6547,-16.61031 9.0913,-6.97619 11.4272,-10.312 19.4512,-27.77872 3.489,-7.59486 7.03,-14.17799 7.8688,-14.62923 0.8387,-0.45132 1.3127,-2.91347 1.0538,-5.47137 -0.5819,-5.74525 2.6727,-7.79666 9.2408,-5.82413 6.026,1.80966 7.4285,6.02622 5.775,17.36138 -0.6405,4.3906 -1.1802,10.72453 -1.1993,14.0755 -0.019,3.35083 -1.0504,9.42309 -2.2918,13.49373 -2.0697,6.78655 -1.9092,8.33807 1.9371,18.68175 8.2617,22.21981 6.1553,38.09292 -7.1435,53.83084 -2.4743,2.92806 -12.2142,10.41644 -22.4541,17.26304 -9.9464,6.65051 -19.7776,13.45855 -21.8471,15.12898 l -3.7626,3.03715 4.8161,3.36639 c 2.6486,1.85145 7.6392,5.42615 11.0898,7.9436 17.2535,12.58808 43.2386,20.84827 80.3331,25.53665 39.8123,5.03169 39.0879,4.74022 54.2371,21.82788 27.6058,31.13832 37.3766,43.91403 47.269,61.80611 6.6587,12.04367 8.075,15.62518 8.3914,21.22119 0.438,7.74579 0.556,7.6843 -16.6223,8.65476 -14.1076,0.79685 -36.2735,-2.47685 -50.895,-7.51688 -20.4917,-7.06356 -36.6044,-16.7562 -59.8565,-36.00506 -1.6173,-1.33892 -5.7651,-1.37801 -12.6441,-0.11513 -5.6305,1.03256 -18.5933,2.08849 -28.8061,2.34642 -32.7153,0.82623 -45.7848,-1.20986 -89.1923,-13.89512 -22.8511,-6.67796 -41.2834,-11.21173 -43.3346,-10.65891 -8.4015,2.2644 -36.5088,15.79728 -38.2921,18.43658 -1.0048,1.48699 -3.5524,7.20204 -5.6612,12.69998 -4.4194,11.5214 -7.3014,13.69212 -24.6231,18.54569 -23.2668,6.51913 -47.0851,4.0196 -60.214,-6.31906 -4.7191,-3.7163 -7.7819,-7.5574 -11.5853,-14.53027 -6.0282,-11.0524 -9.7399,-24.0305 -7.587,-26.53155 0.8271,-0.96088 10.5054,-3.82424 21.5072,-6.36313 15.3581,-3.54428 21.0332,-5.44058 24.4379,-8.16577 6.4512,-5.16368 17.0291,-18.54462 17.2363,-21.80366 0.1407,-2.20998 -8.1573,-8.63592 -39.2341,-30.38317 -39.8776,-27.906 -55.4731,-40.48041 -65.3591,-52.69775 -5.2677,-6.51011 -5.7555,-6.74748 -15.2387,-7.41401 l -9.7967,-0.68847 1.571,-5.23121 1.5709,-5.23106 -11.4367,0.81476 c -11.8903,0.84723 -12.582,0.45649 -13.3488,-7.5415 -0.2082,-2.17193 -1.7554,-2.57356 -7.8314,-2.03316 -10.0625,0.89508 -14.3134,-0.1703 -13.6569,-3.42288 0.2742,-1.35984 1.417,-2.99041 2.5399,-3.62322 1.1228,-0.63312 -1.9305,-1.01316 -6.785,-0.84474 -6.302447,0.21867 -9.216237,-0.41872 -10.190517,-2.22908 -0.89541,-1.66426 -0.45886,-3.20208 1.2702,-4.47538 3.89098,-2.8652 2.3524,-4.02676 -5.72505,-4.3213 -9.81014,-0.35746 -12.7854,-1.6395 -12.06717,-5.1994 0.30548,-1.51288 2.32114,-3.74404 4.47985,-4.95828 3.6456,-2.05 3.2489,-2.18514 -5.5709,-1.8933 -5.22293,0.173 -11.09214,-0.0795 -13.04322,-0.56092 -5.26014,-1.29824 -6.09395,-5.63094 -1.9361,-10.06123 l 3.55478,-3.78753 -6.53295,-0.39187 c -16.06294,-0.96367 -24.0344,-5.20265 -18.85254,-10.02454 2.30345,-2.1435 1.89801,-2.4409 -7.12108,-5.22405 -11.07136,-3.41669 -12.74091,-6.39763 -5.70403,-10.18421 2.46228,-1.32484 4.33363,-2.67491 4.1587,-3.00003 -0.17493,-0.32492 -4.49968,-2.89362 -9.61032,-5.70786 C 3.0057729,563.7614 5.4217229,560.4261 30.677233,558.16809 Z"
       id="path5581"
       inkscape:connector-curvature="0" />
    <path
       inkscape:connector-curvature="0"
       id="path5583"
       d="m 544.29704,605.22245 c 30.3843,-6.03533 66.4033,-6.79388 113.5711,-2.39186 28.9435,2.70122 85.3115,12.69434 92.9313,16.475 3.5156,1.74436 12.0032,4.85 18.8615,6.90152 9.6738,2.89375 16.9871,6.6184 32.6203,16.6137 11.083,7.08613 27.0254,16.69709 35.4278,21.35789 14.8143,8.21748 35.7248,17.49387 39.079,17.33607 0.9062,-0.0429 10.5869,-6.29162 21.5125,-13.88674 23.3368,-16.22311 44.1815,-28.0939 60.1848,-34.27462 12.8352,-4.95707 21.6909,-10.57586 31.6901,-20.10668 8.2951,-7.90647 10.26166,-11.47249 16.37606,-29.69571 2.6585,-7.9238 5.4768,-14.84719 6.2627,-15.38536 0.7858,-0.53823 0.9943,-3.03691 0.4639,-5.55258 -1.1916,-5.65036 1.8256,-8.03735 8.5666,-6.77694 6.1847,1.1563 8.0292,5.19915 7.5946,16.64603 -0.1683,4.43388 -0.029,10.78923 0.3096,14.12311 0.3386,3.33372 -0.039,9.48137 -0.8389,13.66123 -1.3337,6.96866 -1.0086,8.4942 3.9195,18.36838 10.5855,21.21137 10.1849,37.21863 -1.3585,54.28577 -2.1478,3.17536 -11.033,11.66031 -20.4838,19.56049 -9.1799,7.67388 -18.22846,15.49212 -20.10796,17.37384 l -3.4171,3.42132 5.1479,2.83325 c 2.8311,1.55825 8.17456,4.58001 11.87406,6.71488 18.4982,10.67514 45.2163,16.11536 82.5993,16.81872 40.122,0.75469 39.3706,0.54219 56.2567,15.91575 30.7708,28.0148 41.8491,39.67494 53.5942,56.40928 7.9058,11.26438 9.6963,14.67431 10.608,20.2046 1.262,7.65483 1.3728,7.5811 -15.6038,10.37907 -13.9421,2.29769 -36.3308,1.40794 -51.4066,-2.04308 -21.1284,-4.83663 -38.1834,-12.75458 -63.3568,-29.41236 -1.7509,-1.1587 -5.8792,-0.75497 -12.5841,1.23473 -5.4883,1.62749 -18.2643,4.06061 -28.3912,5.40684 -32.4403,4.31248 -45.65246,3.68263 -90.16576,-4.2983 -23.4332,-4.20146 -42.2441,-6.74248 -44.2246,-5.97394 -8.1119,3.14798 -34.6146,19.60284 -36.1061,22.41737 -0.8404,1.58572 -2.7636,7.53999 -4.2737,13.23156 -3.1647,11.92719 -5.7987,14.39305 -22.5036,21.06727 -22.4382,8.96464 -46.3873,9.02097 -60.5444,0.14228 -5.0887,-3.19151 -8.5439,-6.68386 -13.0696,-13.21107 -7.1732,-10.34603 -12.2486,-22.85397 -10.3749,-25.57047 0.7199,-1.04366 10.0374,-4.92341 20.7054,-8.62178 14.8923,-5.16286 20.3326,-7.65391 23.427,-10.72685 5.8634,-5.82259 14.953,-20.25586 14.8114,-23.51841 -0.096,-2.21237 -9.0323,-7.71617 -42.2522,-26.02313 -42.6277,-23.49144 -59.476,-34.3299 -70.6092,-45.42257 -5.9324,-5.91084 -6.4427,-6.0948 -15.9428,-5.7456 l -9.8143,0.36084 1.0039,-5.36898 1.0037,-5.36882 -11.2845,2.03049 c -11.732,2.11117 -12.4614,1.79647 -14.0773,-6.07403 -0.4388,-2.13732 -2.02,-2.37155 -8.0037,-1.18588 -9.9095,1.96371 -14.2498,1.35802 -13.9441,-1.94606 0.1275,-1.38134 1.0898,-3.12454 2.1388,-3.87356 1.0488,-0.74931 -2.0276,-0.80137 -6.8364,-0.1159 -6.2432,0.88993 -9.2083,0.5671 -10.3702,-1.12895 -1.0679,-1.55921 -0.798,-3.13484 0.7853,-4.58537 3.5631,-3.26404 1.9093,-4.25479 -6.1534,-3.68573 -9.7923,0.6914 -12.8874,-0.26583 -12.5531,-3.88205 0.1423,-1.53685 1.9084,-3.97035 3.9252,-5.408 3.406,-2.42731 2.9972,-2.51935 -5.7411,-1.28804 -5.1747,0.72933 -11.0373,1.10457 -13.0286,0.83409 -5.3687,-0.72953 -6.6601,-4.94852 -2.9987,-9.7972 l 3.1303,-4.14522 -6.5375,0.30748 c -16.074,0.75587 -24.4523,-2.60829 -19.8145,-7.95559 2.0615,-2.37704 1.6267,-2.6295 -7.6379,-4.43435 -11.3727,-2.21579 -13.3508,-5.00155 -6.7582,-9.5174 2.3068,-1.58003 4.0234,-3.12206 3.8148,-3.42667 -0.2086,-0.30436 -4.7827,-2.39695 -10.1645,-4.64977 -17.7804,-7.44311 -15.7341,-11.01717 9.1363,-15.95724 z"
       style="display:inline;fill:none;stroke:#ff0000;stroke-width:1.43957043" />
  </g>
  <g
     inkscape:groupmode="layer"
     id="layer3"
     inkscape:label="Capa 3"
     style="display:none">
    <path
       style="fill:none;stroke:#ff0000;stroke-width:2.0927763"
       d="m -848.61786,-1436.7791 c -0.31443,-0.8042 1.61947,-10.9665 4.2987,-22.5834 8.38892,-36.3726 8.52166,-52.9511 1.19326,-149.0647 -2.2016,-28.8759 -3.7003,-56.5444 -3.33028,-61.4856 0.37001,-4.9412 0.0243,-10.5399 -0.76836,-12.4415 -0.79657,-1.8999 -0.91005,-6.9583 -0.26108,-11.237 1.17713,-7.7597 1.15841,-7.8015 -7.24339,-16.2519 -10.9097,-10.9725 -20.42841,-16.416 -54.46816,-31.1489 -25.25787,-10.9319 -30.15456,-13.9843 -50.60292,-31.5444 -13.11507,-11.2628 -23.79673,-18.9561 -25.39079,-18.2878 -1.51347,0.6346 -13.00293,8.5358 -25.53212,17.5582 -22.7608,16.3904 -22.8677,16.5053 -124.5557,134.0816 -55.9763,64.7223 -104.2007,119.1984 -107.1654,121.0579 l -5.3903,3.3811 4.7605,-10.2304 c 2.7796,-5.9734 20.279,-28.424 42.0538,-53.9524 29.9583,-35.1224 40.4921,-49.1677 53.5559,-71.4095 8.9444,-15.2281 15.8306,-27.8642 15.3031,-28.0801 -2.0067,-0.8211 -47.6982,37.7798 -62.6562,52.9329 -31.95,32.3667 -54.0685,51.4007 -55.5696,47.8202 -1.8097,-4.3163 17.6688,-25.3189 96.111,-103.6315 64.3034,-64.1972 95.7369,-104.9826 115.1885,-149.4588 l 9.7882,-22.381 -4.4067,-10.5105 c -2.4237,-5.7808 -9.1791,-19.4825 -15.0141,-30.4474 -13.0618,-24.5453 -17.1322,-38.9594 -20.4251,-72.3301 -3.2059,-32.4906 -3.3653,-33.2369 -9.1147,-42.7024 -4.0842,-6.7238 -5.7547,-7.8408 -10.6104,-7.0947 -3.1697,0.487 -7.5322,0.3193 -9.6945,-0.3726 -5.886,-1.8835 -43.8639,-2.5828 -54.8863,-1.0105 -5.2994,0.7559 -16.7084,1.8993 -25.353,2.541 -21.7335,1.6131 -56.9318,10.8938 -75.8262,19.9928 -8.5671,4.1258 -15.8435,6.8646 -16.1698,6.0862 -1.8404,-4.3896 46.0648,-44.2302 74.0336,-61.5703 34.3164,-21.2755 113.7083,-53.9775 155.2759,-63.959 19.4519,-4.6709 58.0701,4.5036 62.39695,14.8236 0.86746,2.069 1.3964,13.2999 1.17552,24.9575 -1.02757,54.2404 -0.71538,58.6492 4.94307,69.8104 4.1249,8.1364 8.1928,12.5765 17.84791,19.481 6.8779,4.9185 15.31686,10.2198 18.75316,11.7807 10.07217,4.5754 26.53007,1.6075 62.15293,-11.2079 17.89463,-6.4376 34.018,-11.8226 35.82973,-11.9666 1.81182,-0.144 6.08622,-0.768 9.49886,-1.3866 3.68001,-0.667 12.49709,1.6113 21.66982,5.5993 13.72333,5.9665 17.29057,6.5138 31.66899,4.8578 35.45823,-4.0837 36.3288,-3.7835 13.22444,4.5593 -23.53078,8.4968 -24.75082,9.3574 -62.52446,44.1023 -24.56853,22.5986 -42.58462,43.0825 -45.07137,51.2452 -1.73524,5.6958 9.04823,35.2938 15.60605,42.8347 9.25901,10.6471 21.7224,16.1663 56.34536,24.9516 18.78485,4.7666 36.05091,10.4201 38.36891,12.5634 7.52436,6.9574 20.38341,64.3563 18.93028,84.499 -1.46887,20.3611 -19.67681,106.7787 -31.43555,149.1987 -12.31576,44.4288 -35.69805,92.6762 -58.62303,120.9629 -12.15588,14.9989 -16.70486,19.0856 -17.8865,16.0689 z"
       id="path5047"
       inkscape:connector-curvature="0" />
    <path
       style="display:inline;fill:none;stroke:#ff0000;stroke-width:1.78762627"
       d="m -764.72246,-818.20229 c -3.935,-0.94546 -11.0488,-2.44796 -15.8083,-3.33897 -4.7595,-0.89101 -12.0048,-3.17333 -16.1007,-5.07174 -4.0958,-1.89861 -12.1289,-3.87559 -17.8514,-4.39309 -5.7225,-0.51778 -11.3563,-1.7031 -12.5196,-2.63401 -1.1633,-0.931 -4.8212,-2.26526 -8.1288,-2.96494 -3.3075,-0.6996 -8.9461,-3.88626 -12.5301,-7.08127 -9.1827,-8.18586 -68.7335,-34.95946 -92.5225,-41.59744 -23.1975,-6.47286 -47.785,-10.87208 -60.47704,-10.82091 -6.9839,0.0348 -12.6575,1.73501 -23.9593,7.20715 -8.1447,3.9436 -15.4396,7.17164 -16.2109,7.17344 -0.7714,0.002 -8.5595,8.60349 -17.3069,19.11505 -8.7473,10.51138 -20.0864,23.50061 -25.1978,28.86494 -8.7769,9.2113 -9.6704,9.69524 -16.0682,8.70227 -3.726,-0.57825 -10.5615,-1.36975 -15.19,-1.75911 -4.6284,-0.38929 -11.9899,-2.69479 -16.359,-5.12302 -4.369,-2.42842 -11.5909,-4.95342 -16.0484,-5.61109 -12.7714,-1.88446 -18.8089,-7.17158 -25.6096,-22.42629 -3.2839,-7.36616 -6.0018,-16.3075 -6.0397,-19.86931 -0.038,-3.562 -1.8054,-10.37639 -3.9274,-15.14336 -3.4413,-7.73021 -3.6268,-9.5411 -1.7162,-16.7587 3.3889,-12.80095 13.6778,-21.3546 34.2781,-28.49646 14.5388,-5.04065 23.0884,-9.87341 30.7896,-17.40423 7.0527,-6.8969 13.4774,-18.65318 13.5336,-24.76453 0.017,-1.87084 -4.7423,-17.54599 -10.5764,-34.83389 -5.8342,-17.2879 -11.981,-36.2558 -13.6594,-42.1512 -5.5522,-19.5006 -16.075,-38.3517 -28.8397,-51.665 -13.5249,-14.1059 -21.0437,-24.4108 -26.1025,-35.7745 -2.2586,-5.0735 -8.2588,-12.1357 -16.8008,-19.7747 -7.308,-6.5355 -14.1434,-13.9984 -15.1897,-16.5841 -1.0463,-2.5857 -4.7253,-8.176 -8.1753,-12.4229 -3.4501,-4.2468 -6.2775,-9.6947 -6.2832,-12.1063 -0.01,-2.7849 -2.3311,-6.4127 -6.3715,-9.9433 -6.9598,-6.0819 -9.2774,-9.9661 -17.2764,-28.9556 -6.365,-15.1105 -8.0999,-20.7627 -9.6389,-31.4025 -0.6369,-4.4022 -1.6967,-8.8239 -2.3554,-9.8265 -0.6587,-1.0024 -2.1304,-17.5068 -3.2705,-36.6764 -1.4251,-23.9631 -3.002,-37.2611 -5.0466,-42.5575 -2.6708,-6.9185 -2.7025,-8.2848 -0.311,-13.4065 1.6545,-3.5432 2.6217,-10.7802 2.5539,-19.1099 -0.06,-7.3738 0.1238,-16.223 0.4084,-19.6648 0.2846,-3.4419 -0.094,-9.6958 -0.8424,-13.8975 -1.0673,-5.9951 -0.7883,-7.8603 1.295,-8.6653 4.7013,-1.8168 11.0144,5.211 38.8213,43.2163 63.8452,87.2609 83.2562,110.6099 118.2492,142.2376 14.239,12.8696 23.9039,23.3997 30.8467,33.6081 12.1675,17.8905 26.2589,34.8308 63.6032,76.4623 43.32384,48.2972 49.97134,52.232 81.47284,48.225 19.1798,-2.4395 44.0221,-9.0388 54.5697,-14.4962 8.2416,-4.2643 12.6918,-9.1231 28.8376,-31.4858 23.0679,-31.95 34.6661,-42.0911 48.1758,-42.123 10.6617,-0.025 18.8886,2.6746 26.8338,8.8057 13.5807,10.4798 17.3575,10.9048 47.5289,5.3469 23.0057,-4.238 25.7712,-4.3913 25.7575,-1.4286 -0.021,4.6005 -44.1496,29.7863 -60.9163,34.7673 -19.4382,5.7749 -68.2983,33.9403 -80.5588,46.4386 -7.0755,7.2126 -10.5696,13.4718 -20.9911,37.6021 -9.0056,20.8524 -14.047,40.359 -11.8798,45.9671 0.5852,1.5141 6.1643,5.5928 12.398,9.06425 14.7157,8.19442 75.4142,48.01594 84.9693,55.74437 7.7455,6.26463 24.9956,15.26475 42.1128,21.97173 7.0091,2.7462 13.01,6.98007 19.5272,13.77635 10.9387,11.40716 6.5567,8.58123 54.9455,35.4341 20.9203,11.60949 38.038,21.57481 38.0393,22.14484 0.01,2.56925 -11.0175,7.19943 -17.241,7.24217 -4.9173,0.0336 -8.0354,1.27711 -10.9511,4.36718 -4.9595,5.25546 -13.1351,7.32987 -18.2216,4.62304 -3.225,-1.71615 -4.4923,-1.21864 -8.8581,3.47709 -5.4681,5.88137 -14.6316,7.40791 -21.7452,3.62236 -2.9226,-1.55527 -4.6457,-0.9206 -9.768,3.59835 -5.2729,4.65172 -7.6686,5.49021 -15.7397,5.50931 -5.2361,0.0123 -13.0505,0.38068 -17.3653,0.8185 -4.3148,0.43792 -11.0646,0.0261 -14.9997,-0.92303 z"
       id="path5125"
       inkscape:connector-curvature="0"
       sodipodi:nodetypes="csccscsscssssssssscsssscsssssscsssscsssscscsssscsssssscsssssssssccssssscc" />
    <path
       style="display:inline;fill:none;stroke:#ff0000;stroke-width:1.33412087"
       d="m -1869.8384,-1503.3894 c 1.1131,-5.6042 1.0071,-6.2297 -0.836,-4.9129 -1.7499,1.2504 -2.0809,1.0755 -1.929,-1.0199 0.3804,-5.2525 10.6988,-20.6792 19.3309,-28.9017 5.6619,-5.393 11.0613,-12.2827 14.8796,-18.9863 3.2961,-5.7869 9.1114,-15.4121 12.9227,-21.3895 l 6.9296,-10.8678 -4.2756,-1.2044 c -2.3514,-0.663 -4.4441,-1.8678 -4.6506,-2.6776 -0.2064,-0.8101 -2.6523,-1.6379 -5.4356,-1.8396 -4.2125,-0.305 -6.1228,-1.5194 -11.402,-7.2478 -3.4879,-3.7846 -6.2978,-7.4882 -6.244,-8.2301 0.054,-0.7419 -1.8762,-2.4723 -4.2888,-3.8449 -2.4126,-1.3727 -4.6807,-3.7244 -5.0403,-5.2262 -0.3597,-1.5016 -1.764,-3.1733 -3.1209,-3.7147 -5.3394,-2.1304 -3.8654,-8.989 3.4197,-15.9125 4.3768,-4.1597 9.0225,-6.8288 26.736,-15.3613 12.9229,-6.2249 12.9308,-6.097 -0.7036,-11.4149 -4.6009,-1.7945 -9.7139,-4.4873 -11.3621,-5.984 -1.6485,-1.4967 -4.8633,-3.2726 -7.1439,-3.9466 -2.2809,-0.6733 -4.3912,-2.0316 -4.6896,-3.017 -0.2984,-0.9856 -2.1897,-2.3344 -4.2024,-2.9975 -5.0033,-1.6479 -19.368,-11.2296 -21.2016,-14.1417 -0.8209,-1.3037 -4.35,-4.4704 -7.8426,-7.0372 -3.4926,-2.567 -7.4043,-5.7721 -8.6928,-7.1227 -1.2887,-1.3504 -6.2934,-4.8031 -11.1218,-7.6723 -4.8283,-2.8692 -11.0046,-7.5997 -13.725,-10.5121 -2.7203,-2.9123 -7.5915,-7.8945 -10.8248,-11.0716 -3.2332,-3.1769 -9.0508,-9.3213 -12.9278,-13.6539 -5.0501,-5.6436 -8.7631,-8.4716 -13.0925,-9.9723 -3.3235,-1.1519 -5.998,-2.7162 -5.9429,-3.4761 0.064,-0.8878 -2.292,-1.2389 -6.5934,-0.9824 -5.0644,0.302 -7.4594,-0.1858 -9.8394,-2.0074 -1.7305,-1.3218 -4.2503,-2.4834 -5.6001,-2.5811 -1.3496,-0.098 -3.5412,-1.0957 -4.8677,-2.2263 -1.4404,-1.2224 -4.1232,-1.8967 -6.6525,-1.6722 -2.3312,0.207 -4.5878,-0.2922 -5.0145,-1.1087 -0.4848,-0.9281 -4.4888,0.5521 -10.6744,3.9464 -7.135,3.9154 -11.6226,5.4636 -16.0742,5.5457 l -6.1759,0.1141 5.4753,-4.298 c 3.0113,-2.3639 10.2752,-7.0824 16.1423,-10.4857 5.8667,-3.4032 11.2657,-6.6466 11.9977,-7.2075 0.7319,-0.5611 -6.6713,1.924 -16.4514,5.522 -23.7954,8.7542 -36.6044,12.23 -43.2866,11.746 -5.4651,-0.396 -5.2998,-0.5178 11.7411,-8.6417 9.5064,-4.5319 26.9058,-12.264 38.6654,-17.1823 11.7594,-4.9183 22.6479,-9.814 24.1963,-10.8793 1.5486,-1.0654 -1.6715,-0.1211 -7.1546,2.0831 -5.4835,2.2113 -14.5312,5.1521 -20.1058,6.5353 -15.1254,3.753 -43.069,7.2019 -50.313,6.2098 l -6.3699,-0.8724 14.3785,-4.6052 c 7.9083,-2.5329 26.654,-7.8717 41.6569,-11.8644 27.238,-7.2482 46.4228,-13.5462 38.3658,-12.5944 -2.2262,0.2629 -13.2321,2.7907 -24.4575,5.6172 -25.8238,6.5022 -34.6262,7.903 -45.065,7.1713 -7.4239,-0.5204 -18.7497,-4.4086 -17.0707,-5.8608 0.3497,-0.3023 5.1187,-0.9165 10.5978,-1.3646 8.8994,-0.728 48.0484,-9.862 50.1833,-11.7084 0.466,-0.403 -2.4709,-0.4821 -6.5259,-0.1762 -12.6814,0.9568 -26.779,-0.6543 -33.5541,-3.8348 -3.423,-1.6068 -5.9523,-3.156 -5.6209,-3.4426 1.2636,-1.0927 50.488,-4.851 58.1056,-4.4364 l 7.9943,0.4353 -9.8568,-2.4232 c -18.6674,-4.5894 -34.2282,-11.4524 -31.4379,-13.8657 1.0686,-0.9241 30.82,0.8106 97.864,5.7061 106.7492,7.7944 103.6836,7.3296 110.2735,16.7367 7.4532,10.6396 22.4422,26.7478 30.18,32.434 12.8036,9.4084 31.8402,22.0945 39.4656,26.2999 8.7581,4.8301 23.8069,9.0846 35.0022,9.8957 8.0773,0.585 13.4983,0.3676 36.2007,-1.4529 12.8922,-1.0337 27.1398,-7.5609 38.739,-17.7471 7.7955,-6.846 12.3278,-12.4355 20.5638,-25.3608 17.4371,-27.3652 23.5344,-31.4402 43.8699,-29.3174 l 11.6705,1.2184 21.0807,-8.9117 c 11.5944,-4.9015 23.6711,-9.584 26.8373,-10.4057 l 5.7566,-1.4942 -4.9502,3.7086 c -2.7226,2.0398 -15.0027,9.5282 -27.289,16.6411 -34.1621,19.7771 -52.6191,36.5354 -70.1841,63.7243 -6.2155,9.6209 -15.5792,22.6235 -20.8084,28.8944 -5.2291,6.2712 -9.5421,11.8788 -9.5843,12.4616 -0.1143,1.5782 13.841,4.7182 36.5185,8.2171 18.0195,2.78 22.8465,3.0304 45.309,2.3492 13.8275,-0.4191 27.9551,-0.4616 31.3947,-0.094 7.6053,0.8123 14.7469,4.9482 30.0951,17.4297 13.5037,10.9814 33.8303,26.2438 48.8605,36.6877 5.8352,4.0545 17.1386,12.7966 25.1187,19.4266 7.9802,6.6302 18.8486,14.4773 24.1518,17.4379 15.4463,8.6238 39.171,24.4903 42.2013,28.223 l 2.7884,3.435 -8.7409,-0.6331 c -5.1421,-0.3725 -12.4127,-2.065 -17.6589,-4.1108 -8.957,-3.493 -31.2753,-16.1323 -38.3615,-21.725 -7.5667,-5.9721 8.3963,11.821 25.9914,28.9712 9.6205,9.3771 21.1158,21.032 25.5451,25.8997 l 8.0536,8.8503 -6.5572,-1.2452 c -3.9789,-0.7556 -9.2022,-3.1225 -13.2845,-6.0193 -9.3361,-6.6256 -28.1281,-24.1171 -39.0933,-36.3878 -5.7518,-6.4367 -8.3912,-8.7215 -7.0613,-6.1123 6.7999,13.3389 14.897,24.0511 35.3677,46.7896 12.5818,13.9755 22.529,25.8898 22.1049,26.4764 -1.4368,1.9879 -8.9446,0.4889 -14.7237,-2.9407 -11.5108,-6.8298 -37.2453,-38.26 -46.0538,-56.2467 -4.5574,-9.306 -4.2437,-4.3215 0.4848,7.7059 2.1979,5.5903 5.4999,14.6693 7.3379,20.1751 3.821,11.4479 12.4812,27.2272 23.7282,43.2345 4.2692,6.0761 9.6145,13.837 11.8783,17.2467 l 4.1163,6.1994 -3.8708,-1.2587 c -8.0879,-2.6292 -15.7149,-8.2864 -25.1633,-18.6666 -11.7139,-12.8688 -18.4803,-23.6209 -24.6699,-39.2028 -2.5343,-6.3797 -4.6514,-10.9975 -4.7047,-10.2615 -0.3731,5.15 16.2276,53.155 22.2763,64.4174 1.919,3.5729 3.1729,6.7697 2.7868,7.1036 -0.3863,0.3341 -3.1345,-0.9885 -6.1077,-2.9379 -7.5367,-4.9425 -14.7172,-16.5644 -34.3974,-55.673 -2.1513,-4.2751 -3.6522,-6.7086 -3.3352,-5.4077 0.3169,1.3012 1.748,7.7251 3.1803,14.2756 2.2847,10.4499 4.532,19.7848 10.1638,42.2196 1.3487,5.3727 1.281,5.7776 -0.9397,5.6167 -1.3163,-0.095 -4.1975,-2.5557 -6.4028,-5.4673 -7.4481,-9.8336 -20.1262,-47.7799 -22.3798,-66.9837 l -1.2498,-10.6506 -0.4759,14.6795 c -0.2698,8.3233 0.4803,21.6565 1.7325,30.7934 1.2146,8.8625 1.9073,16.3743 1.539,16.6929 -1.4501,1.2542 -10.8721,-7.4704 -14.2041,-13.1526 -4.5535,-7.7658 -6.6783,-13.991 -10.187,-29.8443 -1.5721,-7.103 -2.9919,-11.5303 -3.155,-9.8384 -0.856,8.8759 -7.8094,10.4902 -12.8861,2.9914 -1.7022,-2.5144 -3.156,-3.8235 -3.2303,-2.9092 -0.369,4.5405 -15.1033,-1.2552 -16.342,-6.4284 -0.4762,-1.989 -1.1081,-2.165 -3.9665,-1.1048 -2.7012,1.0021 -4.3173,0.7394 -7.8624,-1.2776 -2.4542,-1.3965 -4.4183,-3.1474 -4.3644,-3.891 0.054,-0.7437 -1.6984,-1.4823 -3.8939,-1.6414 -2.2206,-0.1608 -5.0896,-1.558 -6.4655,-3.149 -2.0947,-2.4222 -3.2908,-2.7375 -7.8106,-2.0606 -2.9353,0.4397 -5.6166,0.4762 -5.9586,0.081 -0.6542,-0.7562 -6.1564,-1.5989 -27.9074,-4.2731 -7.2919,-0.8964 -17.4258,-2.2633 -22.5195,-3.0373 -5.0938,-0.7741 -13.4367,-1.9337 -18.5401,-2.5768 -5.1032,-0.6433 -9.5687,-1.3197 -9.9232,-1.5029 -0.3547,-0.1831 -9.0132,-1.1398 -19.2415,-2.1259 -10.2284,-0.986 -22.3819,-2.2601 -27.0079,-2.8315 -4.6261,-0.5712 -8.722,-0.6088 -9.1019,-0.083 -1.372,1.8982 -12.0581,0.073 -16.974,-2.899 -2.7649,-1.6717 -6.3241,-3.1334 -7.9095,-3.2481 -1.5852,-0.1149 -3.5576,-1.1541 -4.383,-2.3095 -0.8256,-1.155 -2.0787,-1.7985 -2.7847,-1.4299 -0.7062,0.3689 -3.6549,-0.7929 -6.5529,-2.5803 -6.5233,-4.0246 -6.3495,-4.2299 -12.1683,14.3788 -7.756,24.8032 -9.7223,26.8489 -25.4146,26.4398 -6.027,-0.1573 -11.0353,-0.1256 -11.1291,0.07 -0.3718,0.7733 -9.2433,15.0483 -16.1287,25.9524 -3.9981,6.3316 -9.4784,16.1007 -12.1783,21.7094 -4.81,9.9917 -21.3604,33.0181 -26.2052,36.4593 -2.2802,1.6192 -2.3119,1.5172 -0.4553,-1.4582 1.5164,-2.4297 0.3796,-1.9202 -4.7179,2.1203 -7.59,6.0135 -10.4462,5.7046 -3.9555,-0.4277 2.3396,-2.2105 5.532,-5.4313 7.0941,-7.1574 2.3613,-2.6089 2.0387,-2.5193 -1.9105,0.5303 -4.7402,3.6603 -4.7483,3.6614 -3.5527,0.4115 0.6588,-1.7916 3.0591,-6.1322 5.3333,-9.6459 2.2744,-3.5136 4.6497,-7.9829 5.2787,-9.9317 0.6406,-1.9839 5.8952,-7.4903 11.9396,-12.5113 9.6101,-7.9831 11.8687,-10.7916 20.5669,-25.5731 5.3741,-9.1326 9.8226,-17.3177 9.8857,-18.1889 0.063,-0.8712 -1.3591,-1.9781 -3.1608,-2.4596 -2.982,-0.7971 -4.2449,0.5075 -14.0967,14.5636 -5.9518,8.4917 -16.6748,25.7723 -23.8292,38.4017 -10.4051,18.3681 -13.1171,22.315 -13.5533,19.7276 -0.4652,-2.7587 -1.0642,-2.1142 -4.0675,4.3762 -1.9369,4.1861 -4.5564,8.8118 -5.8206,10.2794 -2.1718,2.5208 -2.2283,2.3137 -1.0225,-3.7539 z"
       id="path5099"
       inkscape:connector-curvature="0"
       sodipodi:nodetypes="ccsssscccssscccsssccsscccccsscsccscsssscssscssscccccsscscscscccccscsscsssssscssccsssssscssscscssssscsssssscsscssccssssccssssssscsscssssssccsssccsssccccsscsssscssccsssscccssscsssscc" />
    <path
       style="display:inline;fill:none;stroke:#ff0000;stroke-width:0.58719182"
       d="m -1456.4068,-1188.4224 c -1.8239,1.695 -3.9919,3.5108 -4.8179,4.035 -0.8262,0.524 -1.5947,1.1788 -1.7081,1.455 -0.278,0.6773 -5.3698,3.4884 -10.0765,5.563 -2.1121,0.9309 -3.8633,2.0353 -3.8917,2.4542 -0.029,0.4189 0.6582,1.3721 1.5257,2.118 2.2801,1.9606 2.7675,4.5875 1.4251,7.6798 -1.3473,3.1036 -3.966,5.0441 -10.2927,7.6264 -2.8882,1.1789 -4.452,2.1481 -4.4663,2.7687 -0.012,0.5249 0.2889,1.082 0.6682,1.2378 0.3796,0.1558 0.8535,0.805 1.0529,1.4426 0.4624,1.4784 -2.3292,8.1229 -3.9919,9.4999 -1.6457,1.3633 -5.8411,3.2262 -6.5815,2.9223 -0.4045,-0.1655 -1.339,1.5879 -2.8449,5.3383 -2.7409,6.8265 -4.1118,8.4414 -9.1358,10.762 -3.9785,1.8375 -4.3469,2.219 -7.1966,7.4477 -1.757,3.2235 -4.0258,5.8393 -5.8723,6.77 -0.5865,0.2957 -2.3195,2.0227 -3.8515,3.8377 -1.5315,1.815 -3.5618,3.9808 -4.5113,4.813 -0.9496,0.8321 -2.7369,2.4484 -3.9715,3.592 -1.2349,1.1435 -2.5336,2.1269 -2.8861,2.1853 -0.3525,0.058 -0.7877,0.4635 -0.967,0.9005 -0.3346,0.8151 -0.9328,1.2689 -9.627,7.3031 -5.2947,3.6747 -13.0445,7.8556 -17.5952,9.4922 -1.4691,0.5283 -3.8821,1.9795 -5.3623,3.2249 -3.8909,3.2737 -7.8548,6.1413 -10.6911,7.7348 l -2.4755,1.3905 -6.3381,17.2075 c -3.4857,9.4642 -9.5084,24.9035 -13.3837,34.3096 -7.5674,18.36956 -8.7102,21.88546 -9.5486,29.40404 -0.2979,2.67059 -0.7829,7.04147 -1.0779,9.71315 -0.2951,2.67171 -0.8605,6.43851 -1.2567,8.37038 -0.3964,1.93192 -0.8224,4.76221 -0.9467,6.28953 -0.1241,1.52734 -0.534,4.50097 -0.9107,6.60818 -1.0971,6.13456 -3.8369,24.55504 -5.1179,34.40843 -0.3896,2.99603 -0.8649,5.82888 -1.0562,6.29497 -0.4338,1.05668 -1.606,11.83753 -2.0056,18.44645 -0.2526,4.17679 -0.6721,5.86177 -2.6705,10.73059 -2.2453,5.47095 -2.5527,5.93928 -5.8243,8.87132 -1.8996,1.70258 -3.9534,3.05431 -4.5638,3.00408 -0.6107,-0.0503 -1.5372,0.48744 -2.0589,1.1955 -1.2652,1.71552 -8.2599,7.97651 -10.6655,9.54665 -1.0547,0.6882 -2.2329,1.13291 -2.6185,0.98808 -0.3859,-0.14393 -1.1362,0.2008 -1.6681,0.768 -0.5317,0.56724 -3.9259,2.19748 -7.5427,3.62295 -7.5646,2.98145 -11.3879,3.36525 -18.3225,1.83896 -4.2355,-0.93233 -5.0652,-0.9028 -8.4335,0.29957 -4.5149,1.61134 -5.3607,1.5161 -11.2734,-1.26505 -4.4414,-2.08957 -7.4049,-4.55155 -7.7539,-6.44194 -0.1394,-0.75608 -0.885,-0.77713 -5.5252,-0.15661 -2.9206,0.39071 -5.1117,-0.49237 -9.183,-3.70057 -1.7554,-1.38351 -4.4708,-3.40043 -6.0341,-4.48238 -1.5634,-1.08171 -2.7582,-2.17215 -2.6552,-2.42327 0.1026,-0.25121 -0.6048,-0.7879 -1.573,-1.19301 -2.4866,-1.04017 -5.5171,-4.43924 -7.0631,-7.92167 -0.7665,-1.72696 -2.3234,-3.82137 -3.7166,-4.99962 -5.298,-4.48119 -4.9734,-8.01065 1.7499,-19.02994 2.2106,-3.62342 5.6447,-9.7768 7.6314,-13.67429 3.6618,-7.18457 16.7995,-29.98382 19.5586,-33.9423 0.8281,-1.18812 3.3411,-5.5486 5.5844,-9.68972 2.2432,-4.14129 5.7473,-10.55785 7.7867,-14.25911 6.4365,-11.68132 17.0895,-39.33185 19.4259,-50.42165 0.9111,-4.3234 1.2059,-14.3185 0.4404,-14.9255 -0.1828,-0.1453 -0.8607,0.1716 -1.5058,0.7042 -1.3204,1.0895 -9.5539,1.9286 -11.4176,1.1637 -0.6689,-0.2748 -1.9945,-0.057 -2.9519,0.4847 -1.6772,0.9489 -2.8625,1.2329 -6.366,1.5261 -0.9782,0.082 -3.6685,-0.6903 -6.646,-1.9072 -4.7181,-1.928 -5.0658,-1.9855 -6.1064,-1.0083 -3.0916,2.9034 -5.4588,3.6588 -11.8142,3.7705 -2.5938,0.046 -6.1213,-1.1822 -6.288,-2.1886 -0.128,-0.7714 -1.5647,-0.895 -4.0578,-0.3488 -2.8253,0.6189 -10.2516,1.2067 -12.0183,0.9512 -1.5375,-0.2222 -4.9018,-2.4194 -6.3877,-4.1717 -0.5398,-0.6366 -1.4603,-0.532 -3.7534,0.4266 -3.1571,1.3196 -8.5552,1.7744 -12.1744,1.0255 -2.302,-0.4762 -9.2846,-5.9158 -11.7435,-9.1483 -1.2958,-1.7035 -1.3623,-1.732 -2.1228,-0.9093 -1.4532,1.572 -4.2872,3.0197 -6.2563,3.1962 -1.114,0.1 -4.0544,-0.5496 -6.8343,-1.5097 -5.6045,-1.9354 -8.7118,-4.3457 -9.2589,-7.1819 -0.3911,-2.0276 -1.0846,-2.3909 -3.1311,-1.6401 -0.8485,0.3112 -3.6767,0.7569 -6.2851,0.9905 -3.9681,0.3556 -5.303,0.1998 -8.177,-0.9543 -3.8546,-1.5481 -6.7952,-3.8159 -7.2558,-5.5959 -0.8221,-3.1763 -1.346,-3.441 -5.2641,-2.661 -6.491,1.2923 -14.6334,-1.2447 -15.8624,-4.9424 -0.3223,-0.9708 -0.999,-2.4079 -1.503,-3.1936 -0.8813,-1.3739 -1.0473,-1.4003 -4.3334,-0.6893 -4.6691,1.0102 -7.6263,0.2027 -12.2433,-3.3431 -4.8459,-3.7214 -5.9276,-5.3077 -4.7285,-6.9341 l 0.9136,-1.239 -3.5449,0.4406 c -7.5155,0.9341 -18.9515,-0.9097 -22.6762,-3.6562 -1.2263,-0.9042 -1.5796,-4.2698 -0.5012,-4.7762 0.2891,-0.1355 -0.3222,-0.097 -1.3605,0.095 -1.0374,0.1879 -1.9641,0.5263 -2.0574,0.7599 -0.095,0.2295 -2.4142,1.3943 -5.1555,2.5879 -7.1802,3.1267 -11.8558,3.0537 -14.6235,-0.2284 -0.6727,-0.7974 -1.7097,-1.6559 -2.3047,-1.9077 -1.5306,-0.6476 -2.0416,-1.5515 -1.99,-3.5214 0.053,-2.0262 -0.6434,-2.4746 -2.0469,-1.3166 -2.3745,1.9594 -8.74,2.5234 -16.3715,1.4506 -8.225,-1.1563 -11.6976,-2.27 -11.6637,-3.7404 0.012,-0.5188 -0.3309,-1.0879 -0.762,-1.2647 -1.1378,-0.4671 -3.5087,-3.3659 -3.666,-4.4822 -0.089,-0.6319 -0.4221,-0.87 -0.9813,-0.7018 -0.8835,0.2658 -3.1949,0.585 -10.6535,1.4714 -2.4455,0.2905 -6.4304,0.3401 -8.8554,0.11 -3.892,-0.3692 -4.7046,-0.6274 -6.927,-2.2013 -3.5052,-2.4821 -4.2119,-3.6906 -3.9577,-6.7664 0.2754,-3.3286 0.2863,-3.2932 -0.9,-2.922 -2.285,0.7147 -11.1175,1.1675 -15.3669,0.7873 -9.3675,-0.8381 -15.1627,-4.5306 -14.6863,-9.3577 0.2305,-2.3349 0.8648,-3.2218 3.5237,-4.8794 0.5737,-0.3587 0.9579,-0.8564 0.8535,-1.1059 -0.1923,-0.4589 -10.1628,0 -11.9138,0.5453 -0.5217,0.1636 -2.6867,0.1411 -4.8107,-0.049 -9.8763,-0.885 -17.0185,-3.0568 -20.0639,-6.1015 -2.9812,-2.9802 -2.4588,-3.96 2.8287,-5.3054 1.9813,-0.5039 4.747,-1.2222 6.1463,-1.5951 1.3988,-0.3748 3.6549,-0.804 5.0126,-0.9572 2.8133,-0.3175 5.899,-1.5806 7.8901,-3.2363 l 1.3631,-1.1316 -2.25,-0.2884 c -3.6275,-0.4651 -17.719,0.4226 -20.0659,1.264 -0.845,0.303 -1.7823,0.4496 -2.0826,0.3267 -0.3004,-0.1232 -1.8969,0.2212 -3.5477,0.7655 -1.6511,0.5438 -3.2562,0.8849 -3.5672,0.7572 -0.311,-0.1279 -0.9346,0.061 -1.3851,0.4188 -0.4509,0.3579 -1.617,0.8076 -2.5915,0.9993 -0.9745,0.1917 -3.7786,0.8095 -6.2313,1.373 -2.4526,0.563 -4.9553,1.1072 -5.5616,1.2082 -0.6061,0.1014 -2.0015,0.369 -3.1006,0.5953 -4.7513,0.9782 -13.1468,2.4614 -14.975,2.6458 -9.1579,0.9232 -16.9845,1.0949 -18.655,0.4093 -1.1208,-0.4601 -0.6405,-1.0256 1.6912,-1.9912 17.843,-7.3888 26.966,-11.2598 28.6284,-12.147 1.1177,-0.5966 7.6232,-3.4965 14.4567,-6.4446 6.8337,-2.948 14.6489,-6.679 17.3672,-8.2912 9.3876,-5.5678 10.2686,-6.3559 8.5498,-7.6496 -3.036,-2.2853 -12.2297,-2.585 -31.6931,-1.0332 -13.9724,1.114 -14.8761,1.2129 -18.6303,2.0398 -1.9188,0.423 -4.4312,0.976 -5.5826,1.2298 -1.1515,0.2537 -2.2796,0.5674 -2.5072,0.6957 -0.2275,0.1293 -1.3604,0.3779 -2.5172,0.5535 -1.157,0.1757 -4.0713,0.7394 -6.4765,1.2527 -5.6083,1.1972 -20.625,2.4568 -22.0841,1.8524 -0.2696,-0.1117 -2.1952,-0.2242 -4.2792,-0.2502 -8.8138,-0.1101 -18.0868,-1.5535 -17.5999,-2.7398 0.4328,-1.0547 2.5499,-1.9343 6.927,-2.878 2.7441,-0.5916 5.9832,-1.3113 7.1981,-1.5994 1.2149,-0.2883 3.4302,-0.77 4.9227,-1.0711 1.4924,-0.3015 3.0674,-0.6584 3.4996,-0.794 0.9185,-0.2886 4.5472,-1.1159 8.4034,-1.9168 1.4965,-0.3109 3.079,-0.6867 3.5165,-0.8355 0.4374,-0.1493 1.6081,-0.4195 2.6014,-0.6008 1.8105,-0.3314 10.9433,-2.4507 14.5123,-3.3676 3.8093,-0.9782 11.7242,-2.8199 12.8301,-2.9847 1.5883,-0.237 10.173,-2.4539 13.0516,-3.3706 1.3173,-0.4192 2.5251,-0.7097 2.6845,-0.6437 0.1592,0.065 1.0564,-0.1248 1.9938,-0.4225 12.0216,-3.8187 12.2745,-3.8893 18.1265,-5.061 4.0203,-0.8051 10.0747,-3.5925 10.6041,-4.8822 0.7861,-1.9153 -2.0019,-2.3487 -17.3032,-2.6896 -4.2625,-0.095 -21.5178,0.3776 -24.3938,0.668 -4.4856,0.453 -16.9684,0.9154 -18.4666,0.684 -0.935,-0.1445 -2.731,-0.1868 -3.9908,-0.094 -2.1612,0.159 -21.2947,-1.0405 -30.6309,-1.9201 -8.0795,-0.7612 -26.1528,-6.319 -26.4536,-8.1348 -0.1835,-1.1097 3.1979,-1.9088 9.0938,-2.1491 9.7569,-0.3977 10.7837,-0.4297 16.395,-0.5103 2.9849,-0.043 6.5847,-0.1148 7.9994,-0.1596 12.2157,-0.3868 17.8127,-0.6534 29.1324,-1.3876 14.3278,-0.9291 26.6883,-1.6265 32.1637,-1.8147 15.5843,-0.5352 25.4766,-1.6735 30.9303,-3.5589 4.3239,-1.4947 4.8927,-2.8899 1.7098,-4.1963 -3.8149,-1.5658 -14.2461,-3.9034 -18.5483,-4.1557 -2.3861,-0.1403 -5.3843,-0.4903 -6.6627,-0.778 -1.2785,-0.2872 -4.1054,-0.7066 -6.2826,-0.9309 -2.1769,-0.2244 -5.2656,-0.7019 -6.8637,-1.0611 -3.5683,-0.8022 -19.2363,-3.1851 -33.1576,-5.0429 -13.507,-1.8026 -22.0384,-3.9728 -32.7591,-8.3334 -10.5287,-4.2827 -12.9237,-5.6276 -12.38,-6.952 0.4227,-1.03 3.8426,-1.0555 10.1864,-0.075 17.4132,2.6907 27.1828,4.0541 36.0203,5.027 2.839,0.3125 5.3928,0.6666 5.675,0.7869 0.2822,0.1202 2.9159,0.3143 5.8529,0.4312 9.3566,0.3729 13.2665,0.6088 19.8513,1.1985 3.5356,0.3166 10.9559,0.9081 16.4898,1.3146 5.5339,0.4064 10.3629,0.8626 10.7311,1.0137 0.3684,0.1506 1.8823,0.2013 3.3645,0.1114 1.4823,-0.09 4.1548,0.034 5.9391,0.276 1.7845,0.2417 4.5186,0.3983 6.076,0.348 1.5576,-0.05 3.5131,-0.012 4.3458,0.086 7.4515,0.8747 24.4858,0.5001 31.2066,-0.6861 6.5297,-1.1526 6.9354,-3.0456 1.1593,-5.4099 -4.4683,-1.8284 -19.5934,-6.0092 -28.8167,-7.9641 -5.8762,-1.2454 -9.1143,-2.3413 -20.0632,-6.7902 -12.6489,-5.1397 -13.1814,-5.4092 -17.0844,-8.6353 -2.2155,-1.8315 -4.9363,-3.9014 -6.0461,-4.5995 -3.4195,-2.151 -5.7255,-6.6328 -3.2661,-6.3474 0.4165,0.048 7.2787,2.2928 15.2491,4.9879 16.6106,5.6167 34.3453,10.6986 49.41,14.1585 22.2773,5.1166 28.1,6.4034 34.9166,7.7163 3.8822,0.748 8.0982,1.6103 9.3688,1.9167 3.5107,0.846 18.4168,3.5039 22.1794,3.9543 1.8302,0.219 5.3393,0.7161 7.7981,1.1048 2.4587,0.3883 6.6278,1.0174 9.2645,1.3978 2.6367,0.3801 7.993,1.2482 11.9028,1.9288 3.9099,0.6807 9.3972,1.5774 12.1941,1.9928 2.7969,0.4152 6.8065,1.0846 8.9105,1.4871 2.1038,0.4026 5.8626,0.9876 8.3526,1.2999 2.4901,0.3124 6.6449,0.9764 9.2326,1.4757 2.5878,0.4994 5.0049,0.7882 5.3711,0.6419 0.3714,-0.1481 -0.2749,-0.9682 -1.4607,-1.8539 -1.1695,-0.8734 -3.212,-2.4225 -4.5389,-3.4424 -1.3269,-1.0198 -3.7647,-2.7356 -5.4173,-3.8126 -4.2513,-2.771 -7.6338,-6.1006 -10.6396,-10.4738 -3.3887,-4.93 -4.0443,-6.726 -2.7837,-7.6256 0.8365,-0.5969 2.9707,0.055 17.1771,5.2516 8.9221,3.2631 22.135,8.0154 29.3619,10.5605 11.178,3.9363 14.7356,5.4291 23.8248,9.9973 5.8766,2.9534 13.682,6.7658 17.3456,8.4719 3.6635,1.7062 11.1415,5.4076 16.6178,8.2255 11.5506,5.9434 22.1114,10.3756 77.6994,32.6087 30.8523,12.3398 42.9263,16.9466 50.214,19.1589 9.8118,2.9785 23.6752,5.8849 31.8516,6.6778 l 4.5784,0.4441 3.3231,-6.16 c 10.4412,-19.3538 17.113,-29.6389 22.7118,-35.0121 1.2128,-1.1643 2.3278,-2.3872 2.4776,-2.7177 1.0929,-2.4128 12.0419,-12.0181 14.8545,-13.0323 0.8129,-0.2934 1.5745,-0.7684 1.6925,-1.056 0.3339,-0.8134 4.7343,-2.8427 9.6829,-4.4656 5.0573,-1.6585 10.3673,-1.5079 13.2756,0.3764 1.2605,0.8167 3.5256,1.1896 9.0169,1.4839 15.0072,0.8045 20.7488,2.1579 23.2902,5.49 1.9484,2.5542 2.3471,4.7415 1.7127,9.3918 -0.448,3.2829 -0.7353,4.1183 -1.5311,4.4494 -0.7944,0.3307 -1.0651,0.083 -1.4325,-1.3122 -0.6457,-2.4523 -3.2131,-3.3739 -6.185,-2.2212 -2.954,1.1455 -7.1968,4.0117 -11.7196,7.9166 -3.4963,3.0185 -3.5687,3.1299 -4.3972,6.764 -1.1585,5.0813 -2.3638,14.5226 -1.8614,14.5786 1.1726,0.1309 7.7813,-4.6467 13.6121,-9.8407 12.3996,-11.045 19.3515,-17.8302 25.1795,-24.5754 7.6234,-8.8231 10.3891,-10.7874 22.0284,-15.6458 5.3158,-2.219 10.7194,-4.7443 12.0078,-5.6119 3.2876,-2.214 7.629,-7.1861 14.1938,-16.256 5.2882,-7.3062 7.7652,-9.9584 8.8746,-9.5032 0.2571,0.1053 0.3411,0.8132 0.1866,1.5724 -0.4826,2.3741 -6.1245,13.2785 -8.3009,16.0432 -1.1421,1.4512 -2.6296,3.5542 -3.3055,4.6731 l -1.2285,2.0347 1.5904,-0.5562 c 0.8748,-0.3059 1.7043,-0.8332 1.8432,-1.1717 0.1385,-0.3386 1.3234,-1.1648 2.6322,-1.8363 1.3087,-0.6715 2.5071,-1.5037 2.663,-1.8493 0.156,-0.3455 1.1381,-1.0849 2.1821,-1.6432 6.5589,-3.5063 18.718,-17.536 25.3966,-29.3032 1.8901,-3.3303 3.6851,-6.2353 3.9887,-6.4556 1.1607,-0.8423 1.448,0.085 0.9605,3.0994 -0.278,1.7187 -0.6074,4.7739 -0.7323,6.7893 -0.2884,4.6509 -2.5161,9.27 -9.3493,19.3811 -5.4608,8.0809 -14.5162,18.7361 -19.4802,22.9223 -3.8164,3.2182 -3.2526,3.7826 1.8255,1.8272 2.593,-0.9984 5.959,-2.0099 7.4798,-2.2478 2.604,-0.4073 6.6112,-2.899 9.2136,-5.7292 0.5718,-0.622 2.187,-1.943 3.5889,-2.9358 1.4019,-0.9927 2.6624,-2.0595 2.801,-2.3706 0.3255,-0.7323 3.9613,-2.5343 4.5903,-2.2761 1.2418,0.5096 0.4413,3.8865 -2.7852,11.7476 -4.7526,11.5796 -6.3607,13.4503 -20.0416,23.3143 -3.1168,2.2469 -5.4615,5.0598 -5.0448,6.0518 0.124,0.2967 2.3672,1.418 4.9837,2.4919 3.2332,1.3271 4.9478,2.3098 5.3513,3.0675 0.9549,1.7926 -0.845,5.1992 -4.5829,8.673 z"
       id="path5112"
       inkscape:connector-curvature="0" />
    <path
       inkscape:connector-curvature="0"
       id="path5478"
       d="m -565.13005,-793.12219 c -4.8475,2.45194 -10.8688,5.60931 -13.3808,7.01611 -2.5117,1.40689 -5.4761,1.75786 -6.5872,0.7801 -1.1112,-0.97776 -6.0568,0.58939 -10.9904,3.48247 -5.8357,3.42218 -10.3031,4.08719 -12.7848,1.90328 -2.239,-1.97027 -7.2007,-1.6947 -12.0102,0.66719 -6.75,3.3141 -8.8888,3.01756 -12.1277,-1.68417 -2.9409,-4.26891 -4.7001,-4.83614 -6.9765,-2.24935 -1.6743,1.90263 -6.0283,2.3417 -9.6756,0.97574 -5.9961,-2.24549 -8.2508,-0.90728 -23.5283,13.96585 -39.0588,38.0246 -71.0634,52.33907 -127.4353,56.99685 -79.8577,6.59816 -133.131,18.13909 -189.4854,41.04955 -36.71625,14.92661 -41.73805,15.97013 -57.50675,11.94818 -14.432,-3.6809 -23.0815,-11.37288 -52.5883,-46.76628 -32.4748,-38.95393 -39.9369,-60.73096 -26.1704,-76.37513 6.9499,-7.89762 1.0499,-11.30164 -7.0254,-4.05333 -13.2081,11.85555 -10.316,32.8707 9.4216,68.4592 18.8942,34.06814 29.2974,65.7253 34.9227,106.27087 4.8964,35.29202 17.7248,56.89947 40.4288,68.09636 19.1714,9.4547 36.1751,8.90326 63.90065,-2.07229 13.9137,-5.50787 25.752,-9.56971 26.3073,-9.02641 0.5555,0.54322 0.4574,8.26521 -0.2178,17.15986 -0.675,8.89456 1.242,26.40031 4.2602,38.90149 5.8773,24.3437 15.4712,41.90072 59.1502,108.24675 39.7043,60.3088 67.3035,118.79437 89.4596,189.57499 5.9547,19.02317 12.0785,33.85849 13.6087,32.96746 12.0809,-7.03609 17.7389,-91.49248 11.1093,-165.82664 -2.8706,-32.18623 -9.1232,-74.63024 -14.3147,-97.17386 -1.8789,-8.15872 -2.6852,-14.88079 -1.7914,-14.9378 0.8937,-0.0571 18.1324,16.24309 38.3085,36.22264 20.1759,19.97951 43.3215,42.1677 51.4344,49.30685 l 14.7509,12.98063 -2.7388,-15.07476 c -12.1249,-66.73759 -50.6962,-132.04283 -116.4778,-197.20864 -19.819,-19.63355 -23.6495,-24.66018 -25.1282,-32.97386 -1.2329,-6.93191 -0.087,-11.56773 3.9072,-15.80549 3.1086,-3.29804 24.7538,-15.4007 48.1004,-26.89494 60.9659,-30.01479 86.8523,-45.61264 126.7506,-76.37238 19.4064,-14.96144 50.6085,-37.83679 69.3377,-50.83418 18.7292,-12.9974 34.7571,-25.52935 35.6178,-27.84892 2.5704,-6.92912 -2.4527,-8.53968 -11.8347,-3.79403 z"
       style="fill:none;stroke:#ff0000;stroke-width:2.82136869" />
    <path
       inkscape:connector-curvature="0"
       id="path5476"
       d="m -828.21777,-1452.6217 c 3.79147,2.32 10.5159,11.1003 17.24899,22.5221 12.20664,20.7071 28.3667,37.2542 43.12576,44.1582 15.57759,7.2869 33.47191,12.5568 42.55335,12.532 8.64987,-0.029 8.71595,-0.081 15.57889,-13.4135 13.49973,-26.2263 36.52391,-43.0909 65.26936,-47.808 21.9375,-3.5998 53.69829,1.5111 125.57553,20.2074 14.15052,3.6808 28.44721,6.0683 36.3039,6.0627 12.28214,-0.01 13.41505,-0.4297 21.63928,-8.0389 5.66897,-5.2451 12.62323,-9.1843 20.05372,-11.3596 11.05889,-3.2371 11.53469,-3.6785 17.10343,-15.8576 5.68749,-12.4395 5.73892,-12.4849 7.30801,-6.444 0.86915,3.346 6.58261,15.7066 12.6964,27.4682 6.78824,13.0584 11.52843,24.9805 12.17476,30.6202 2.37004,20.6803 -11.29412,45.1141 -30.23181,54.0591 -8.28459,3.9131 -36.11793,11.1658 -53.1829,13.8581 l -8.03747,1.2681 5.00408,3.95 c 8.5527,6.7513 26.5193,15.0922 47.00007,21.8192 10.81157,3.5513 23.27811,9.0694 27.7033,12.2624 4.42542,3.1931 15.66409,15.2143 24.97486,26.7138 23.07232,28.4958 34.74709,40.6947 52.38261,54.7337 22.97122,18.2867 48.89394,30.1295 72.23776,33.0019 30.2912,3.7271 23.23342,20.928 -9.38696,22.8776 -20.29187,1.2126 -35.44782,-1.9442 -51.84643,-10.799 l -12.66792,-6.8404 -3.03516,5.8963 c -1.66935,3.2429 -4.71795,6.4338 -6.77467,7.0908 -4.58835,1.4657 -17.51614,-2.9147 -29.86019,-10.118 -8.72739,-5.0926 -9.45099,-5.2013 -13.02498,-1.9546 -5.97125,5.4242 -16.16747,1.2895 -34.6103,-14.0347 l -16.2044,-13.4643 -4.86212,5.6738 -4.86213,5.6741 -7.77916,-3.9799 c -4.27886,-2.1884 -13.89917,-10.0901 -21.37889,-17.5584 -13.20936,-13.1892 -13.68036,-13.4566 -16.41704,-9.3181 -2.49201,3.7682 -3.38258,3.9595 -7.70843,1.6548 -6.60538,-3.5192 -9.47434,-7.1038 -28.90332,-36.1102 -9.20399,-13.7409 -17.01338,-24.1421 -17.35386,-23.1136 -0.34089,1.0286 5.68395,14.7167 13.38827,30.418 23.66143,48.2212 24.07463,59.4197 4.06552,110.2118 -26.90959,68.3088 -31.72207,100.0361 -24.4451,161.164 3.69637,31.0506 2.36496,43.70049 -5.01736,47.66927 -5.1995,2.79522 -15.02291,-7.20826 -21.5925,-21.98869 -2.74511,-6.17645 -5.41258,-11.64929 -5.92711,-12.16208 -0.51475,-0.5128 -2.85466,0.81069 -5.19988,2.94101 -4.21931,3.83288 -4.31116,3.81416 -8.79704,-1.79019 -2.49329,-3.11492 -6.64382,-12.91684 -9.22344,-21.78219 -2.57966,-8.86521 -5.06448,-16.11785 -5.5222,-16.11711 -0.4575,9.6e-4 -3.19781,1.55791 -6.08913,3.46036 -5.11812,3.36722 -5.38318,3.31313 -10.00725,-2.04258 -5.58598,-6.46943 -8.28288,-15.5385 -10.21096,-34.3375 -0.77233,-7.5307 -1.96293,-13.6621 -2.64581,-13.6254 -0.68261,0.037 -3.01093,1.4105 -5.17389,3.053 -8.86763,6.7331 -12.19797,2.4778 -15.56778,-19.8919 -1.64644,-10.9291 -1.68076,-21.6969 -0.1247,-39.0803 1.18142,-13.1969 1.83616,-24.3052 1.45483,-24.685 -0.38116,-0.3798 -3.29288,0.3035 -6.47054,1.5184 -14.13987,5.4062 -20.40492,-3.7014 -18.57182,-26.9988 0.63257,-8.0389 3.88816,-22.6596 7.23483,-32.4905 l 6.08464,-17.8745 -8.83586,1.3418 c -7.43691,1.1294 -9.53917,0.6413 -13.27791,-3.0836 -7.54529,-7.5172 -2.33596,-18.5503 20.94048,-44.3487 l 11.89338,-13.1822 -5.32939,-2.7797 c -6.96155,-3.6305 -6.73449,-8.2281 0.92989,-18.8504 7.59087,-10.5203 7.47914,-10.6232 -17.47819,-16.1132 -32.0402,-7.0481 -44.18293,-8.6335 -64.43193,-8.4124 -24.52105,0.2678 -34.6826,2.9113 -75.5382,19.6509 -35.10377,14.3829 -48.15808,16.5639 -62.77675,10.4877 -12.57496,-5.2264 -13.57575,-17.3684 -1.94697,-23.6197 5.50686,-2.9606 6.3626,-5.9787 1.6932,-5.9699 -4.62841,0.01 -15.34266,-5.7743 -21.73147,-11.7292 -6.62539,-6.1757 -7.16353,-12.5504 -1.49424,-17.7004 4.098,-3.7227 4.08536,-3.7602 -4.03592,-12.0043 -13.71233,-13.9199 -12.62317,-29.5016 2.06386,-29.529 7.50667,-0.014 8.48587,-2.2151 4.84353,-10.8871 -3.92771,-9.3509 -3.89485,-19.4904 0.0809,-25.1901 2.47073,-3.5413 5.14163,-4.5187 12.38469,-4.5322 8.69862,-0.016 9.16422,-0.2959 8.02058,-4.8172 -1.89826,-7.5032 4.04371,-24.6911 9.85795,-28.5164 4.57361,-3.009 5.63336,-3.0327 11.04601,-0.2464 8.77649,4.5175 11.06777,3.8897 16.48653,-4.5183 5.84207,-9.0648 8.9494,-9.9527 17.18849,-4.9113 z"
       style="display:inline;fill:none;stroke:#ff0000;stroke-width:2.02885413" />
  </g>
</svg>
