<?xml version="1.0" encoding="UTF-8" standalone="no"?>
<!-- Created with Inkscape (http://www.inkscape.org/) -->

<svg
   xmlns:dc="http://purl.org/dc/elements/1.1/"
   xmlns:cc="http://creativecommons.org/ns#"
   xmlns:rdf="http://www.w3.org/1999/02/22-rdf-syntax-ns#"
   xmlns:svg="http://www.w3.org/2000/svg"
   xmlns="http://www.w3.org/2000/svg"
   xmlns:sodipodi="http://sodipodi.sourceforge.net/DTD/sodipodi-0.dtd"
   xmlns:inkscape="http://www.inkscape.org/namespaces/inkscape"
   width="457.20001mm"
   height="308.39999mm"
   viewBox="0 0 1620 1092.7559"
   id="svg2"
   version="1.1"
   inkscape:version="0.91 r13725"
   sodipodi:docname="pensamientos.svg">
  <defs
     id="defs4" />
  <sodipodi:namedview
     id="base"
     pagecolor="#ffffff"
     bordercolor="#666666"
     borderopacity="1.0"
     inkscape:pageopacity="0.0"
     inkscape:pageshadow="2"
     inkscape:zoom="0.35"
     inkscape:cx="791.82737"
     inkscape:cy="403.83281"
     inkscape:document-units="px"
     inkscape:current-layer="layer1"
     showgrid="false"
     inkscape:window-width="1215"
     inkscape:window-height="1000"
     inkscape:window-x="65"
     inkscape:window-y="24"
     inkscape:window-maximized="1" />
  <metadata
     id="metadata7">
    <rdf:RDF>
      <cc:Work
         rdf:about="">
        <dc:format>image/svg+xml</dc:format>
        <dc:type
           rdf:resource="http://purl.org/dc/dcmitype/StillImage" />
        <dc:title></dc:title>
      </cc:Work>
    </rdf:RDF>
  </metadata>
  <g
     inkscape:label="Capa 1"
     inkscape:groupmode="layer"
     id="layer1"
     transform="translate(0,40.393701)">
    <path
       style="opacity:0;fill:none;fill-rule:evenodd;stroke:#ff0000;stroke-width:2.9000001;stroke-linecap:butt;stroke-linejoin:miter;stroke-miterlimit:4;stroke-dasharray:none;stroke-opacity:1"
       d="m 157.44444,114.90962 c 23.303,-31.422219 26.37608,-83.640399 61.42858,-101.010149 99.54903,-49.33008 174.28571,-7.5612795 174.28571,-7.5612795 11.82451,-13.82232 71.90312,-59.7053705 144.28571,-47.1428605 142.61364,24.75161 131.97776,92.6314 141.42857,88.57143 25.14807,-10.80337 118.98197,9.41176 148.57144,52.857149 43.67765,64.13066 4.94924,114.44416 4.94924,114.44416 40.84781,34.14515 45.10619,91.61234 24.87744,127.48948 -32.71115,58.01559 -125.15396,38.51543 -184.11241,69.49493 -32.39286,17.02071 -54.31901,54.74116 -90,62.85714 -54.58004,12.41474 -109.7514,-26.01908 -165.71428,-27.14286 -54.68251,-1.09807 -111.98022,40.07293 -162.85714,20 C 204.90453,448.16496 190.13855,382.02299 151.73015,344.90962 116.10969,310.49018 39.105983,302.80747 34.587293,253.48105 28.955883,192.00792 120.67293,164.49302 157.44444,114.90962 Z"
       id="path4147"
       inkscape:connector-curvature="0"
       sodipodi:nodetypes="sssssssssssssss" />
    <ellipse
       ry="40.651928"
       rx="62.720116"
       cy="377.89435"
       cx="497.40445"
       id="ellipse4169"
       style="opacity:0;fill:none;fill-opacity:1;fill-rule:evenodd;stroke:#ff0000;stroke-width:3.33444953;stroke-linecap:square;stroke-linejoin:round;stroke-miterlimit:4;stroke-dasharray:none;stroke-dashoffset:0;stroke-opacity:1" />
    <path
       sodipodi:nodetypes="sssssssssssssss"
       inkscape:connector-curvature="0"
       id="path4171"
       d="M 125.43835,75.647093 C 142.99856,51.968554 145.31432,12.619002 171.72849,-0.47015289 246.74469,-37.643346 303.0633,-6.1680335 303.0633,-6.1680335 c 8.91048,-10.4159525 54.18334,-44.9916015 108.72799,-35.5249915 107.46799,18.651832 99.45321,69.803352 106.57496,66.74392 18.95059,-8.140992 89.6601,7.092329 111.95755,39.831053 32.91375,48.326322 3.72956,86.240582 3.72956,86.240582 30.78129,25.73043 33.99023,69.03543 18.74665,96.07102 -24.64983,43.71825 -94.31107,29.0237 -138.73982,52.36863 -24.40997,12.82613 -40.93265,41.25077 -67.82043,47.36665 -41.12936,9.35525 -82.70431,-19.60695 -124.87572,-20.45379 -41.20657,-0.82746 -84.38385,30.19737 -122.72268,15.07121 C 161.20239,326.77511 150.07533,276.93314 121.13228,248.96598 94.290118,223.02885 36.263175,217.23947 32.85807,180.06903 28.614462,133.74532 97.728794,113.01118 125.43835,75.647093 Z"
       style="opacity:0;fill:none;fill-rule:evenodd;stroke:#ff0000;stroke-width:2.18532515;stroke-linecap:butt;stroke-linejoin:miter;stroke-miterlimit:4;stroke-dasharray:none;stroke-opacity:1" />
    <path
       inkscape:connector-curvature="0"
       id="path4173"
       d="m 391.95512,-26.092426 c -63.94172,0 -93.6284,35.7764614 -93.6284,35.7764614 -13.00129,-6.4589091 -87.44478,-16.9329156 -124.07694,2.2827526 -28.49785,14.948747 -55.31555,42.018105 -56.33013,78.405605 0,0 -92.604757,0.836241 -89.915052,99.125567 1.011407,36.95957 87.630822,75.95211 87.630822,75.95211 2.42909,41.68403 35.89479,71.81752 70.03256,86.01774 40.25882,16.74638 115.83159,2.70761 130.16724,-12.94151 0,0 28.66384,33 110.74541,25.05294 -0.0257,0.50957 -0.0386,1.02117 -0.0265,1.53802 0.45148,19.19176 28.03132,32.62985 48.05272,32.6224 -0.33004,1.32628 -0.49368,2.69283 -0.46067,4.09601 0.34841,14.81103 22.72261,24.96025 37.49699,23.86226 0.24536,-0.0182 0.49524,-0.0485 0.74326,-0.0736 -0.002,0.13217 -0.012,0.26291 -0.009,0.39592 0.26834,11.40716 17.49922,19.22251 28.87814,18.37686 10.98081,-0.81608 25.5741,-10.66609 24.94108,-21.65896 -0.55726,-9.67726 -13.8066,-16.59209 -23.7813,-17.03901 1.16802,-2.6008 1.77084,-5.33354 1.61015,-8.12432 -0.66258,-11.50611 -15.14401,-20.0049 -27.52557,-21.80174 3.5625,-5.0641 5.62899,-10.67123 5.29553,-16.46206 -0.7664,-13.30911 -15.10167,-23.66754 -29.73767,-27.99506 6.71886,-6.39783 12.15701,-12.91521 15.60106,-18.66975 0,0 28.60797,10.12593 78.4056,-2.28423 30.1989,-15.03071 61.65835,-25.88055 72.31531,-70.792 10.65695,-44.91144 -28.92671,-72.3153 -28.92671,-72.3153 7.81078,-9.27991 23.9284,-45.02654 1.09207,-80.042237 -22.83633,-35.015704 -93.87113,-50.26803 -116.79598,-50.125011 0,0 -29.32484,-63.179858 -121.79419,-63.179858 z"
       style="fill:none;fill-rule:evenodd;stroke:#ff0000;stroke-width:0.75356036px;stroke-linecap:butt;stroke-linejoin:miter;stroke-opacity:1" />
    <ellipse
       ry="34.844509"
       rx="46.459347"
       cy="367.44095"
       cx="477.65927"
       id="ellipse4175"
       style="opacity:0;fill:none;fill-opacity:1;fill-rule:evenodd;stroke:#ff0000;stroke-width:3.33444953;stroke-linecap:square;stroke-linejoin:round;stroke-miterlimit:4;stroke-dasharray:none;stroke-dashoffset:0;stroke-opacity:1" />
    <path
       sodipodi:nodetypes="sssssssssssssss"
       inkscape:connector-curvature="0"
       id="path4179"
       d="m 157.44444,114.90962 c 23.303,-31.422219 26.37608,-83.640399 61.42858,-101.010149 99.54903,-49.33008 174.28571,-7.5612795 174.28571,-7.5612795 11.82451,-13.82232 71.90312,-59.7053705 144.28571,-47.1428605 142.61364,24.75161 131.97776,92.6314 141.42857,88.57143 25.14807,-10.80337 118.98197,9.41176 148.57144,52.857149 43.67765,64.13066 4.94924,114.44416 4.94924,114.44416 40.84781,34.14515 45.10619,91.61234 24.87744,127.48948 -32.71115,58.01559 -125.15396,38.51543 -184.11241,69.49493 -32.39286,17.02071 -54.31901,54.74116 -90,62.85714 -54.58004,12.41474 -109.7514,-26.01908 -165.71428,-27.14286 -54.68251,-1.09807 -111.98022,40.07293 -162.85714,20 C 204.90453,448.16496 190.13855,382.02299 151.73015,344.90962 116.10969,310.49018 39.105983,302.80747 34.587293,253.48105 28.955883,192.00792 120.67293,164.49302 157.44444,114.90962 Z"
       style="opacity:0;fill:none;fill-rule:evenodd;stroke:#ff0000;stroke-width:2.9000001;stroke-linecap:butt;stroke-linejoin:miter;stroke-miterlimit:4;stroke-dasharray:none;stroke-opacity:1" />
    <ellipse
       style="opacity:0;fill:none;fill-opacity:1;fill-rule:evenodd;stroke:#ff0000;stroke-width:3.33444953;stroke-linecap:square;stroke-linejoin:round;stroke-miterlimit:4;stroke-dasharray:none;stroke-dashoffset:0;stroke-opacity:1"
       id="ellipse4183"
       cx="497.40445"
       cy="377.89435"
       rx="62.720116"
       ry="40.651928" />
    <path
       style="opacity:0;fill:none;fill-rule:evenodd;stroke:#ff0000;stroke-width:2.18532515;stroke-linecap:butt;stroke-linejoin:miter;stroke-miterlimit:4;stroke-dasharray:none;stroke-opacity:1"
       d="M 125.43835,75.647093 C 142.99856,51.968554 145.31432,12.619002 171.72849,-0.47015289 246.74469,-37.643346 303.0633,-6.1680335 303.0633,-6.1680335 c 8.91048,-10.4159525 54.18334,-44.9916015 108.72799,-35.5249915 107.46799,18.651832 99.45321,69.803352 106.57496,66.74392 18.95059,-8.140992 89.6601,7.092329 111.95755,39.831053 32.91375,48.326322 3.72956,86.240582 3.72956,86.240582 30.78129,25.73043 33.99023,69.03543 18.74665,96.07102 -24.64983,43.71825 -94.31107,29.0237 -138.73982,52.36863 -24.40997,12.82613 -40.93265,41.25077 -67.82043,47.36665 -41.12936,9.35525 -82.70431,-19.60695 -124.87572,-20.45379 -41.20657,-0.82746 -84.38385,30.19737 -122.72268,15.07121 C 161.20239,326.77511 150.07533,276.93314 121.13228,248.96598 94.290118,223.02885 36.263175,217.23947 32.85807,180.06903 28.614462,133.74532 97.728794,113.01118 125.43835,75.647093 Z"
       id="path4185"
       inkscape:connector-curvature="0"
       sodipodi:nodetypes="sssssssssssssss" />
    <ellipse
       style="opacity:0;fill:none;fill-opacity:1;fill-rule:evenodd;stroke:#ff0000;stroke-width:3.33444953;stroke-linecap:square;stroke-linejoin:round;stroke-miterlimit:4;stroke-dasharray:none;stroke-dashoffset:0;stroke-opacity:1"
       id="ellipse4189"
       cx="477.65927"
       cy="367.44095"
       rx="46.459347"
       ry="34.844509" />
    <path
       inkscape:connector-curvature="0"
       id="path4191"
       d="m 1175.0033,270.59714 c 9.7838,63.18885 49.6814,87.05168 49.6814,87.05168 -4.3935,13.83648 -3.3535,89.00601 21.241,122.26663 19.1332,25.8749 49.9873,48.23489 86.1015,43.66985 0,0 14.996,91.38631 111.7163,73.6889 36.3696,-6.65472 61.6493,-98.22046 61.6493,-98.22046 40.8215,-8.77862 65.4795,-46.461 74.289,-82.36951 10.3892,-42.34711 -15.0478,-114.88191 -32.7061,-126.65431 0,0 28.2255,-33.37564 7.8126,-113.27469 0.5075,-0.0523 1.0151,-0.11771 1.5239,-0.20964 18.8967,-3.38274 27.9565,-32.69395 24.8856,-52.47844 1.3612,0.12317 2.7367,0.0757 4.1183,-0.17156 14.5833,-2.61056 21.1895,-26.274233 17.8438,-40.706651 -0.055,-0.239627 -0.1237,-0.481948 -0.1865,-0.723187 0.1307,-0.02022 0.2617,-0.02837 0.3928,-0.0507 11.2318,-2.010663 16.3186,-20.234398 13.7418,-31.35001 -2.4866,-10.726625 -14.4536,-23.640919 -25.2202,-21.333241 -9.478,2.031368 -14.2841,16.182796 -13.1995,26.108422 -2.7489,-0.756393 -5.5417,-0.933955 -8.2751,-0.348126 -11.2692,2.415362 -17.4521,18.026646 -17.3332,30.537382 -5.5496,-2.745685 -11.4069,-3.929897 -17.0785,-2.714262 -13.0351,2.793819 -21.0781,18.545173 -23.1152,33.670983 -7.3506,-5.66074 -14.6233,-10.03767 -20.8371,-12.56061 0,0 5.6294,-29.820505 -14.2542,-77.132816 -19.4745,-27.54342375 -35.0103,-56.972322 -81.0235,-60.631772 -46.0132,-3.65956 -67.0376,39.6511243 -67.0376,39.6511243 -10.3658,-6.29889305 -48.1577,-16.7570643 -79.2668,11.1681227 -31.1092,27.925186 -35.3128,100.457291 -31.6637,123.090351 0,0 -57.9488,38.64672 -43.8,130.02723 z"
       style="fill:none;fill-rule:evenodd;stroke:#ff0000;stroke-width:0.75356036px;stroke-linecap:butt;stroke-linejoin:miter;stroke-opacity:1" />
    <path
       style="fill:none;fill-rule:evenodd;stroke:#ff0000;stroke-width:0.75356036px;stroke-linecap:butt;stroke-linejoin:miter;stroke-opacity:1"
       d="m 271.94873,812.15555 c 63.94172,0 93.62842,-35.77647 93.62842,-35.77647 13.0013,6.45891 87.4447,16.93292 124.0769,-2.28275 28.4979,-14.94875 55.3156,-42.0181 56.3301,-78.4056 0,0 92.6048,-0.83624 89.9151,-99.12557 -1.0114,-36.95957 -87.6308,-75.95211 -87.6308,-75.95211 -2.4291,-41.68403 -35.8948,-71.81752 -70.0326,-86.01774 -40.2588,-16.74638 -115.8316,-2.70761 -130.1672,12.94151 0,0 -28.6638,-33 -110.74542,-25.05294 0.026,-0.50957 0.039,-1.02117 0.026,-1.53802 -0.4515,-19.19176 -28.0313,-32.62985 -48.0527,-32.6224 0.33,-1.32628 0.4936,-2.69283 0.4606,-4.09601 -0.3484,-14.81103 -22.7226,-24.96025 -37.497,-23.86226 -0.2453,0.0182 -0.4952,0.0485 -0.7432,0.0736 0,-0.13217 0.012,-0.26291 0.01,-0.39592 -0.2684,-11.40716 -17.4992,-19.22251 -28.8782,-18.37686 -10.9808,0.81608 -25.5741,10.66609 -24.941,21.65896 0.5572,9.67726 13.8066,16.59209 23.7813,17.03901 -1.1681,2.6008 -1.7709,5.33354 -1.6102,8.12432 0.6626,11.50611 15.144,20.0049 27.5256,21.80174 -3.5625,5.0641 -5.629,10.67123 -5.2955,16.46206 0.7664,13.30911 15.1016,23.66754 29.7376,27.99506 -6.7188,6.39783 -12.157,12.91521 -15.601,18.66975 0,0 -28.608,-10.12593 -78.4056,2.28423 -30.1989,15.03071 -61.6584,25.88055 -72.3153005,70.792 -10.657,44.91144 28.9267005,72.3153 28.9267005,72.3153 -7.8108,9.27991 -23.9284,45.02654 -1.0921,80.04224 22.8363,35.0157 93.8711,50.26803 116.796,50.12501 0,0 29.3248,63.17986 121.7942,63.17986 z"
       id="path4193"
       inkscape:connector-curvature="0" />
    <path
       inkscape:connector-curvature="0"
       id="path4195"
       d="m 845.91843,638.12215 c 63.94172,0 93.6284,-35.77647 93.6284,-35.77647 13.0013,6.45891 87.44467,16.93292 124.07687,-2.28275 28.4979,-14.94875 55.3156,-42.0181 56.3301,-78.4056 0,0 92.6048,-0.83624 89.9151,-99.12557 -1.0114,-36.95957 -87.6308,-75.95211 -87.6308,-75.95211 -2.4291,-41.68403 -35.8948,-71.81752 -70.0326,-86.01774 -40.2588,-16.74638 -115.83157,-2.70761 -130.16717,12.94151 0,0 -28.66378,-33 -110.7454,-25.05294 0.026,-0.50957 0.039,-1.02117 0.026,-1.53802 -0.4515,-19.19176 -28.0313,-32.62985 -48.0527,-32.6224 0.33,-1.32628 0.4936,-2.69283 0.4606,-4.09601 -0.3484,-14.81103 -22.7226,-24.96025 -37.497,-23.86226 -0.2453,0.0182 -0.4952,0.0485 -0.7432,0.0736 0,-0.13217 0.012,-0.26291 0.01,-0.39592 -0.2684,-11.40716 -17.4992,-19.22251 -28.8782,-18.37686 -10.9808,0.81608 -25.5741,10.66609 -24.941,21.65896 0.5572,9.67726 13.8066,16.59209 23.7813,17.03901 -1.1681,2.6008 -1.7709,5.33354 -1.6102,8.12432 0.6626,11.50611 15.144,20.0049 27.5256,21.80174 -3.5625,5.0641 -5.629,10.67123 -5.2955,16.46206 0.7664,13.30911 15.1016,23.66754 29.7376,27.99506 -6.7188,6.39783 -12.157,12.91521 -15.601,18.66975 0,0 -28.608,-10.12593 -78.4056,2.28423 -30.1989,15.03071 -61.6584,25.88055 -72.3153,70.792 -10.657,44.91144 28.9267,72.3153 28.9267,72.3153 -7.8108,9.27991 -23.9284,45.02654 -1.0921,80.04224 22.8363,35.0157 93.8711,50.26803 116.796,50.12501 0,0 29.3248,63.17986 121.7942,63.17986 z"
       style="fill:none;fill-rule:evenodd;stroke:#ff0000;stroke-width:0.75356036px;stroke-linecap:butt;stroke-linejoin:miter;stroke-opacity:1" />
    <path
       style="fill:none;fill-rule:evenodd;stroke:#ff0000;stroke-width:0.75356036px;stroke-linecap:butt;stroke-linejoin:miter;stroke-opacity:1"
       d="m 1284.5382,578.99817 c -63.9417,0 -93.6284,35.77649 -93.6284,35.77649 -13.0013,-6.45891 -87.4446,-16.93292 -124.0768,2.28275 -28.4979,14.94875 -55.3156,42.0181 -56.3301,78.4056 0,0 -92.60482,0.83624 -89.91512,99.12557 1.0114,36.95957 87.63082,75.95211 87.63082,75.95211 2.4291,41.68403 35.8948,71.81752 70.0326,86.01774 40.2588,16.74638 115.8315,2.70761 130.1671,-12.94151 0,0 28.6638,33 110.7454,25.05294 -0.026,0.50957 -0.039,1.02117 -0.026,1.53802 0.4515,19.19176 28.0313,32.62982 48.0527,32.62242 -0.33,1.3263 -0.4936,2.6928 -0.4606,4.096 0.3484,14.811 22.7226,24.9602 37.497,23.8623 0.2453,-0.018 0.4952,-0.049 0.7432,-0.074 0,0.1321 -0.012,0.2629 -0.01,0.3959 0.2684,11.4071 17.4992,19.2224 28.8782,18.3768 10.9808,-0.8161 25.5741,-10.6661 24.941,-21.6589 -0.5572,-9.6773 -13.8066,-16.5921 -23.7813,-17.039 1.1681,-2.6008 1.7709,-5.3336 1.6102,-8.1244 -0.6626,-11.50607 -15.144,-20.00486 -27.5256,-21.8017 3.5625,-5.0641 5.629,-10.67123 5.2955,-16.46206 -0.7664,-13.30911 -15.1016,-23.66754 -29.7376,-27.99506 6.7188,-6.39783 12.157,-12.91521 15.601,-18.66975 0,0 28.608,10.12593 78.4056,-2.28423 30.1989,-15.03071 61.6584,-25.88055 72.3153,-70.792 10.657,-44.91144 -28.9267,-72.3153 -28.9267,-72.3153 7.8108,-9.27991 23.9284,-45.02654 1.0921,-80.04224 -22.8363,-35.0157 -93.8711,-50.26803 -116.796,-50.12501 0,0 -29.3248,-63.17988 -121.7942,-63.17988 z"
       id="path4197"
       inkscape:connector-curvature="0" />
    <ellipse
       style="opacity:1;fill:none;fill-opacity:1;fill-rule:evenodd;stroke:#ff0000;stroke-width:1.52256811;stroke-linecap:square;stroke-linejoin:round;stroke-miterlimit:4;stroke-dasharray:none;stroke-dashoffset:0;stroke-opacity:1"
       id="path4260"
       cx="60.667706"
       cy="165.86407"
       rx="15.957047"
       ry="14.437327" />
    <ellipse
       ry="14.437327"
       rx="15.957047"
       cy="97.173698"
       cx="608.17041"
       id="ellipse4271"
       style="opacity:1;fill:none;fill-opacity:1;fill-rule:evenodd;stroke:#ff0000;stroke-width:1.52256811;stroke-linecap:square;stroke-linejoin:round;stroke-miterlimit:4;stroke-dasharray:none;stroke-dashoffset:0;stroke-opacity:1" />
    <ellipse
       ry="14.437327"
       rx="15.957047"
       cy="-605.74512"
       cx="-599.599"
       id="ellipse4886"
       style="opacity:1;fill:none;fill-opacity:1;fill-rule:evenodd;stroke:#ff0000;stroke-width:1.52256811;stroke-linecap:square;stroke-linejoin:round;stroke-miterlimit:4;stroke-dasharray:none;stroke-dashoffset:0;stroke-opacity:1"
       transform="scale(-1,-1)" />
    <ellipse
       style="opacity:1;fill:none;fill-opacity:1;fill-rule:evenodd;stroke:#ff0000;stroke-width:1.52256811;stroke-linecap:square;stroke-linejoin:round;stroke-miterlimit:4;stroke-dasharray:none;stroke-dashoffset:0;stroke-opacity:1"
       id="ellipse4888"
       cx="-52.096275"
       cy="-674.43549"
       rx="15.957047"
       ry="14.437327"
       transform="scale(-1,-1)" />
    <ellipse
       transform="scale(-1,-1)"
       style="opacity:1;fill:none;fill-opacity:1;fill-rule:evenodd;stroke:#ff0000;stroke-width:1.52256811;stroke-linecap:square;stroke-linejoin:round;stroke-miterlimit:4;stroke-dasharray:none;stroke-dashoffset:0;stroke-opacity:1"
       id="ellipse4890"
       cx="-1179.599"
       cy="-428.60226"
       rx="15.957047"
       ry="14.437327" />
    <ellipse
       transform="scale(-1,-1)"
       ry="14.437327"
       rx="15.957047"
       cy="-497.29263"
       cx="-632.09625"
       id="ellipse4892"
       style="opacity:1;fill:none;fill-opacity:1;fill-rule:evenodd;stroke:#ff0000;stroke-width:1.52256811;stroke-linecap:square;stroke-linejoin:round;stroke-miterlimit:4;stroke-dasharray:none;stroke-dashoffset:0;stroke-opacity:1" />
    <ellipse
       ry="14.437327"
       rx="15.957047"
       cy="1344.0565"
       cx="-746.93091"
       id="ellipse4894"
       style="opacity:1;fill:none;fill-opacity:1;fill-rule:evenodd;stroke:#ff0000;stroke-width:1.52256811;stroke-linecap:square;stroke-linejoin:round;stroke-miterlimit:4;stroke-dasharray:none;stroke-dashoffset:0;stroke-opacity:1"
       transform="matrix(-0.12078711,-0.99267843,0.99267843,-0.12078711,0,0)" />
    <ellipse
       style="opacity:1;fill:none;fill-opacity:1;fill-rule:evenodd;stroke:#ff0000;stroke-width:1.52256811;stroke-linecap:square;stroke-linejoin:round;stroke-miterlimit:4;stroke-dasharray:none;stroke-dashoffset:0;stroke-opacity:1"
       id="ellipse4896"
       cx="-199.42816"
       cy="1275.3662"
       rx="15.957047"
       ry="14.437327"
       transform="matrix(-0.12078711,-0.99267843,0.99267843,-0.12078711,0,0)" />
    <ellipse
       transform="matrix(0.9998779,0.01562617,-0.01562617,0.9998779,0,0)"
       style="opacity:1;fill:none;fill-opacity:1;fill-rule:evenodd;stroke:#ff0000;stroke-width:1.52256811;stroke-linecap:square;stroke-linejoin:round;stroke-miterlimit:4;stroke-dasharray:none;stroke-dashoffset:0;stroke-opacity:1"
       id="ellipse4898"
       cx="966.54675"
       cy="766.57227"
       rx="15.957047"
       ry="14.437327" />
    <ellipse
       transform="matrix(0.9998779,0.01562617,-0.01562617,0.9998779,0,0)"
       ry="14.437327"
       rx="15.957047"
       cy="697.88196"
       cx="1514.0496"
       id="ellipse4900"
       style="opacity:1;fill:none;fill-opacity:1;fill-rule:evenodd;stroke:#ff0000;stroke-width:1.52256811;stroke-linecap:square;stroke-linejoin:round;stroke-miterlimit:4;stroke-dasharray:none;stroke-dashoffset:0;stroke-opacity:1" />
  </g>
</svg>
