<?xml version="1.0" encoding="UTF-8" standalone="no"?>
<!-- Created with Inkscape (http://www.inkscape.org/) -->

<svg
   xmlns:dc="http://purl.org/dc/elements/1.1/"
   xmlns:cc="http://creativecommons.org/ns#"
   xmlns:rdf="http://www.w3.org/1999/02/22-rdf-syntax-ns#"
   xmlns:svg="http://www.w3.org/2000/svg"
   xmlns="http://www.w3.org/2000/svg"
   xmlns:sodipodi="http://sodipodi.sourceforge.net/DTD/sodipodi-0.dtd"
   xmlns:inkscape="http://www.inkscape.org/namespaces/inkscape"
   width="457.20001mm"
   height="304.79999mm"
   viewBox="0 0 1620 1080"
   id="svg2"
   version="1.1"
   inkscape:version="0.91 r13725"
   sodipodi:docname="Cartel-logo-rueca-1.svg">
  <defs
     id="defs4" />
  <sodipodi:namedview
     id="base"
     pagecolor="#ffffff"
     bordercolor="#666666"
     borderopacity="1.0"
     inkscape:pageopacity="0.0"
     inkscape:pageshadow="2"
     inkscape:zoom="0.82005988"
     inkscape:cx="639.5103"
     inkscape:cy="508.76737"
     inkscape:document-units="px"
     inkscape:current-layer="layer2"
     showgrid="false"
     inkscape:window-width="1855"
     inkscape:window-height="1056"
     inkscape:window-x="69"
     inkscape:window-y="1048"
     inkscape:window-maximized="1"
     showguides="true"
     inkscape:guide-bbox="true"
     inkscape:snap-global="false" />
  <metadata
     id="metadata7">
    <rdf:RDF>
      <cc:Work
         rdf:about="">
        <dc:format>image/svg+xml</dc:format>
        <dc:type
           rdf:resource="http://purl.org/dc/dcmitype/StillImage" />
        <dc:title></dc:title>
      </cc:Work>
    </rdf:RDF>
  </metadata>
  <g
     inkscape:groupmode="layer"
     id="layer2"
     inkscape:label="Layer 2"
     style="display:inline">
    <path
       style="fill:none;stroke:#ff0000;stroke-width:0.99999994"
       d="m 118.69004,556.04019 c -10.85357,-4.917 -13.55651,-17.98698 -5.40661,-26.1432 4.19363,-4.19689 5.49461,-4.57747 15.64763,-4.57747 11.72671,0 13.84254,-1.70327 8.61482,-6.93505 -2.93665,-2.9389 -7.23126,-3.12066 -14.19451,-0.60077 -4.43602,1.60531 -5.57619,1.46488 -8.32612,-1.02568 -4.12336,-3.7345 -4.02663,-6.18701 0.35743,-9.06176 9.22322,-6.04797 25.72379,-5.00475 32.79655,2.07345 4.32339,4.32671 4.34369,4.44682 4.34369,25.68562 l 0,21.33855 -7.43265,-0.13523 c -4.08793,-0.0743 -10.60129,0.25385 -14.47407,0.72958 -4.46252,0.54819 -8.83046,0.0546 -11.92616,-1.34793 z m 55.72946,0.7017 c -7.72724,-2.35233 -14.07197,-6.49092 -14.02361,-9.1474 0.0269,-1.48515 1.763,-3.94793 3.85767,-5.47286 3.66447,-2.66775 4.03151,-2.65295 9.70742,0.39149 6.93902,3.72198 12.77035,4.03792 16.99076,0.92055 4.48632,-3.31373 1.31649,-5.51429 -10.31277,-7.15933 -12.65671,-1.79041 -17.58947,-6.15786 -17.58947,-15.57367 0,-11.52018 11.59311,-18.84407 26.03042,-16.44453 13.73652,2.2831 18.63916,7.95882 12.03857,13.93688 -2.89989,2.62638 -3.37601,2.62697 -10.21703,0.0118 -5.79288,-2.21405 -7.94392,-2.39201 -11.16416,-0.92364 -6.44085,2.93692 -3.49872,5.50729 8.34441,7.29002 6.08612,0.91614 12.18148,2.59247 13.54526,3.7252 3.15366,2.61933 5.64958,11.53187 4.52774,16.16785 -2.54926,10.53492 -17.92218,16.48205 -31.73521,12.27706 z m 50.60538,-1.68059 c -9.23804,-4.70096 -11.94171,-11.12424 -11.23529,-26.69223 0.50179,-11.05846 1.00644,-12.72539 5.16856,-17.07309 11.39924,-11.90745 31.75608,-8.87997 37.81123,5.62329 3.04447,7.29207 2.7426,22.11924 -0.58322,28.64664 -5.8751,11.5307 -19.18911,15.58772 -31.16128,9.49539 z m 53.10274,0.0685 c -9.31826,-4.23327 -12.92907,-10.8071 -12.93338,-23.54631 -0.008,-18.05802 8.19478,-27.29273 24.23706,-27.29273 8.3517,0 19.5681,5.25564 19.5681,9.16901 0,5.02907 -10.83529,9.58777 -13.30052,5.59591 -1.11695,-1.80872 -10.12734,-2.07 -12.67504,-0.36752 -2.76732,1.84921 -5.31973,7.66073 -5.31973,12.11234 0,4.4516 2.55241,10.26313 5.31973,12.11234 2.5774,1.7223 8.67649,1.43256 14.54445,-0.69099 4.66059,-1.68659 5.57776,-1.53247 8.54351,1.4356 4.42682,4.43023 2.90293,7.7194 -5.30356,11.4472 -8.41926,3.82436 -14.30337,3.8309 -22.68062,0.0251 z m 69.99171,1.3997 c -7.85976,-3.30477 -10.95415,-7.73525 -10.95415,-15.68392 0,-6.36056 0.68611,-7.99549 4.81437,-11.47186 4.07571,-3.43215 6.34217,-4.05414 14.7729,-4.05414 10.28337,0 12.40577,-1.05609 10.75811,-5.35312 -1.3887,-3.62175 -8.0704,-4.80518 -14.33348,-2.53868 -9.94305,3.59823 -17.70901,-4.63677 -9.36164,-9.92712 9.26713,-5.87331 25.82749,-4.72832 32.81947,2.26911 4.32339,4.32671 4.34369,4.44681 4.34369,25.68562 l 0,21.33855 -7.43262,-0.13524 c -4.08796,-0.0743 -10.60129,0.23605 -14.47408,0.69001 -3.8728,0.45398 -8.80146,0.0854 -10.95257,-0.81908 z m 54.74216,-1.84785 c -9.36549,-4.75076 -13.26073,-11.76567 -13.26073,-23.88115 0,-12.37887 3.8583,-19.14362 13.72045,-24.05619 9.65221,-4.808 19.34525,-3.70369 26.65561,3.03682 l 4.98619,4.59753 -3.69406,3.12148 c -3.97603,3.35975 -8.82615,4.08596 -10.38883,1.55554 -1.39085,-2.25217 -10.6412,-1.92926 -13.94265,0.48673 -4.06474,2.97446 -5.20269,15.53145 -1.86898,20.62325 2.03324,3.10559 3.88854,3.94565 8.71392,3.94565 3.37184,0 6.56582,-0.70468 7.09771,-1.56597 2.64639,-4.2853 14.26822,1.91798 12.45463,6.6478 -1.31699,3.43465 -12.99904,9.01196 -18.87617,9.01196 -2.55809,0 -7.77679,-1.58555 -11.59709,-3.52345 z m 94.08952,-2.83679 c 4.74883,-2.54347 7.97015,-10.67844 8.06125,-20.35763 0.15565,-16.53702 -5.92692,-23.98578 -19.59174,-23.99223 -13.77108,-0.008 -21.04791,10.10344 -19.39799,26.95021 0.97568,9.96219 4.19357,15.39084 10.91606,18.41557 5.1618,2.32251 14.68162,1.83925 20.01242,-1.01592 z m 31.35465,-189.34002 -47.76893,-27.88275 0,-9.13251 0,-9.13247 13.20271,-9.48958 c 34.378,-24.70952 34.36171,-24.69932 31.93262,-20.01367 -7.18064,13.85157 -7.22332,47.73195 -0.0815,64.64223 2.36445,5.59836 6.10369,12.42798 6.10369,12.42798 z m 6.71571,-90.78635 c 20.10228,-22.04725 32.24981,-30.34613 51.66142,-35.29369 51.32139,-13.08055 103.01443,28.5535 103.01443,82.96876 0,46.39103 -38.0008,85.20219 -83.54111,85.32262 m 7.08827,9.41897 c 22.62553,0 27.84599,1.08642 30.67926,6.38452 2.97979,5.57211 -2.48396,11.49566 -11.17426,12.11458 -3.78678,0.26969 -7.39317,0.98966 -8.01424,1.59988 -0.8788,0.86349 17.125,94.33869 21.62976,112.30098 l -5e-5,0 c 0.79751,3.17997 0.38752,3.84006 -2.38524,3.84006 -1.84153,0 -3.68999,-0.89125 -4.10768,-1.98051 -0.41768,-1.08931 -5.51069,-27.339 -11.31781,-58.33266 l -10.55843,-56.35213 -28.61161,-0.42711 -28.61158,-0.42714 0.46818,-8.96873 0.46824,-8.96873 10.95335,-0.45293 M 476.98352,313.66139 c -0.44858,-0.44896 12.22411,-10.14617 28.01583,-21.40352 m 118.62505,99.00047 c 4.67446,-1.3855 10.40153,-3.50011 12.72682,-4.69916 l 4.22778,-2.18005 -12.66956,-21.16784 -12.66952,-21.16787 -5.64114,1.00134 c -3.10265,0.55071 -6.0706,1.44436 -6.5955,1.98585 -1.11983,1.15526 -10.78137,42.61095 -10.78137,46.26069 0,3.42632 19.80155,3.40557 31.40249,-0.0329 z M 563.43385,342.0038 c 17.50102,-10.53877 20.96422,-13.23977 20.96422,-16.35034 0,-2.04935 -0.61835,-4.10858 -1.37416,-4.57607 -0.75578,-0.46743 -10.43774,-2.28919 -21.51551,-4.04833 -11.07774,-1.75914 -22.18832,-3.61262 -24.69012,-4.11886 l -4.54881,-0.9204 0.96066,12.46723 c 0.85125,11.04744 6.18149,30.17101 8.40944,30.17101 0.45654,0 10.26399,-5.68091 21.79428,-12.62424 z m 113.56874,-21.04429 c 0.0212,-14.20664 -5.29546,-34.48245 -8.6976,-33.17592 -1.07266,0.41196 -10.18045,6.61902 -20.23952,13.79354 -16.68455,11.90007 -18.28919,13.47549 -18.28919,17.95625 0,4.90939 0.0117,4.91534 22.2979,12.72974 26.1008,9.1514 24.89855,9.69655 24.92841,-11.30361 z m -59.96895,12.47656 c 6.66121,-5.60933 8.84474,-13.01857 5.90896,-20.05034 -2.92859,-7.01448 -9.25253,-11.14677 -17.05874,-11.14677 -5.12606,0 -7.05607,0.99629 -11.65114,6.01426 -5.03401,5.4973 -5.4376,6.63396 -4.69531,13.2244 1.61707,14.35769 16.80375,20.96256 27.49623,11.95845 z M 606.5945,295.31022 c 1.84819,-1.67618 11.21949,-45.5688 9.99003,-46.79049 -2.54642,-2.53034 -23.68098,-0.9088 -34.22151,2.62563 -5.8527,1.96249 -10.42963,4.05596 -10.17096,4.65216 0.25865,0.59619 6.10343,10.3543 12.98838,21.68474 11.55266,19.01187 12.81986,20.5313 16.43006,19.70051 2.15155,-0.49515 4.39435,-1.3378 4.984,-1.87255 z m -17.06107,70.72254 c 5.66041,-23.88119 5.7484,-24.69821 2.96048,-27.4883 -2.78791,-2.79006 -3.50905,-2.49444 -24.26176,9.94591 -11.76365,7.05176 -21.38845,13.57322 -21.38845,14.49213 0,3.24596 18.10889,19.10643 26.60103,23.29824 4.73339,2.33647 8.97717,4.27436 9.43056,4.30644 0.45339,0.0319 3.44957,-11.0174 6.65814,-24.55442 z m 72.00271,-0.0757 c 5.53527,-7.61441 11.11349,-17.58925 10.213,-18.26266 -0.27863,-0.2084 -10.52442,-3.82322 -22.76845,-8.033 -21.83877,-7.50873 -22.30523,-7.59548 -24.54468,-4.5651 -1.86699,2.52638 -1.92443,3.65966 -0.31534,6.22107 1.08214,1.72257 6.7218,11.07088 12.53256,20.77401 l 10.56507,17.64205 4.46415,-3.18119 c 2.45528,-1.74968 6.88944,-6.51749 9.85369,-10.59518 z m -74.30893,-58.93336 3.13825,-5.32308 -9.76921,-16.20912 c -5.37309,-8.91499 -11.18066,-18.50138 -12.9057,-21.30304 l -3.13644,-5.09399 -7.88197,7.56303 c -4.33513,4.15967 -9.83579,10.6604 -12.22373,14.44608 -4.533,7.18631 -10.39407,22.09789 -9.16795,23.32495 0.67902,0.67952 40.8658,7.42361 46.2247,7.75736 1.42108,0.0884 3.99601,-2.23448 5.72205,-5.16219 z m 59.80426,-14.62514 c 9.40106,-6.68487 17.11011,-12.82441 17.13123,-13.64346 0.0753,-2.92487 -18.52936,-19.49256 -26.33383,-23.45044 -7.32785,-3.7162 -12.74688,-5.11016 -12.74688,-3.27896 0,0.41362 -2.19536,10.68719 -4.87853,22.83019 l -4.87855,22.07817 5.26973,4.51549 c 2.89836,2.48353 6.18644,4.19777 7.30685,3.8094 1.12044,-0.38836 9.72895,-6.17554 19.12998,-12.86039 z M 492.69735,493.65473 c 6.27851,-5.93079 7.24822,-8.58846 3.52106,-8.60292 -4.67606,-0.0188 -9.0685,3.40164 -12.56897,8.52072 -5.79384,8.47284 0.11645,8.51917 9.04791,0.0822 z m -38.84999,-25.44831 c 6.9959,-2.08879 19.45244,-10.46362 19.45235,-13.0783 -5e-5,-0.58325 -2.47641,-3.03786 -5.50306,-5.45474 l -5.50303,-4.39425 -4.86782,3.46885 c -6.55879,4.67387 -18.01877,5.67943 -25.30292,2.2202 -8.08349,-3.83886 -12.02514,-12.7542 -12.02514,-27.19881 0,-12.68252 2.31065,-19.55055 8.50017,-25.26527 5.96052,-5.50332 21.18793,-5.64926 28.7167,-0.27522 l 5.13914,3.66832 5.50581,-4.20272 c 3.0282,-2.31151 5.2372,-5.01929 4.90896,-6.0173 -1.25957,-3.8294 -13.76768,-11.70889 -21.55485,-13.57845 -15.74247,-3.77949 -33.82162,4.02761 -41.64359,17.98291 -4.69701,8.38003 -7.38615,23.92514 -6.03689,34.89782 2.33015,18.95004 12.30287,32.47742 27.37,37.12573 9.28584,2.86472 13.52567,2.88351 22.84417,0.1014 z m 77.41444,-1.8841 c 4.62111,-2.71776 4.9602,-2.72359 6.8732,-0.1183 1.41485,1.92686 4.16776,2.74043 9.27241,2.74043 l 7.26013,0 0,-34.90266 c 0,-33.08107 -0.18381,-35.2673 -3.52071,-41.88987 -6.00457,-11.91664 -24.9028,-18.24727 -42.40344,-14.2045 -7.60417,1.75664 -18.23122,8.24566 -18.23122,11.13227 0,0.77363 2.41702,3.25156 5.37113,5.50652 5.03945,3.84674 5.60138,3.94898 9.09906,1.65546 5.48469,-3.5965 16.59005,-4.62092 23.82309,-2.19756 7.21918,2.41874 10.43068,7.44293 9.83956,15.39329 l -0.4075,5.48092 -17.21242,0.98626 c -19.33464,1.10788 -23.22751,2.25862 -29.23979,8.64349 -14.1259,15.00122 -7.41864,38.04948 12.86694,44.21481 7.39602,2.24788 20.71484,1.02632 26.60956,-2.44046 z m -215.6509,64.86971 0.42995,-25.44714 6.25906,0 6.25907,0 0.42993,25.44714 0.42996,25.4471 -7.11896,0 -7.11895,0 z m 124.82879,-0.3915 0,-26.01873 6.65023,0.48156 6.65027,0.48153 0,25.05564 0,25.05562 -6.65027,0.48156 -6.65023,0.48152 z m 78.23825,0 0,-25.83862 6.25905,0 c 3.58474,0 6.25908,0.75101 6.25908,1.75772 0,1.19448 0.77176,1.11668 2.40858,-0.24278 3.97534,-3.30178 15.53143,-2.74803 20.55606,0.98498 7.22729,5.36951 8.28259,9.191 8.3076,30.08413 l 0.0234,19.27327 -6.65027,-0.48152 -6.65025,-0.48156 -0.44715,-17.13278 c -0.24594,-9.42302 -1.21234,-18.05547 -2.14756,-19.1832 -0.93521,-1.12774 -3.68668,-2.05046 -6.11436,-2.05046 -7.40397,0 -9.28572,4.67217 -9.28572,23.05514 l 0,16.09428 -6.25905,0 -6.25908,0 0,-25.8386 z M 315.90452,494.99219 c -0.49146,-1.28171 -0.66182,-3.96715 -0.3786,-5.9677 0.44079,-3.11371 1.41601,-3.63735 6.77399,-3.63735 6.11003,0 6.25907,0.13054 6.25907,5.48093 0,5.20527 -0.29578,5.5054 -5.88047,5.96768 -4.09934,0.33935 -6.15108,-0.21896 -6.77399,-1.84356 z m 124.53517,-4.12412 0,-6.44401 6.65023,0.48155 c 6.46549,0.46818 6.65027,0.63383 6.65027,5.96246 0,5.32862 -0.18476,5.4943 -6.65027,5.96247 l -6.65023,0.48152 z M 108.1879,472.59832 c -0.57375,-0.57418 -1.04319,-31.22816 -1.04319,-68.11997 l 0,-67.07603 30.72258,0 c 18.79027,0 33.07669,0.70587 36.78383,1.81742 8.11633,2.43358 17.54532,10.76477 21.54766,19.03889 4.30219,8.89407 4.4778,27.22646 0.34776,36.30185 -2.68767,5.9059 -13.07665,16.81994 -17.37593,18.25415 -1.31479,0.43859 2.70576,9.98458 12.19764,28.96077 10.57506,21.14183 13.70861,28.75712 12.38004,30.08672 -2.47011,2.47206 -24.00831,2.32668 -26.26584,-0.17733 -0.97064,-1.07662 -7.20416,-13.58485 -13.85226,-27.79611 l -12.08739,-25.8386 -9.68091,-0.46626 -9.68092,-0.46617 0,27.31175 c 0,23.46019 -0.34905,27.44583 -2.47514,28.26232 -3.34619,1.28505 -20.21369,1.21178 -21.51793,-0.0936 z m 128.04993,-1.92488 c -3.44249,-1.59506 -8.15811,-4.92685 -10.47916,-7.40399 -8.37833,-8.94179 -9.08041,-12.97895 -9.08041,-52.21591 l 0,-36.06775 11.73573,0 11.73575,0 0,29.80385 c 0,34.34935 1.159,39.34661 9.98106,43.03556 6.5142,2.72393 14.04974,0.73762 17.04417,-4.49266 1.26846,-2.21558 2.18919,-14.28482 2.70531,-35.46126 l 0.78238,-32.10251 11.73574,0 11.73571,0 0.41484,46.7904 c 0.29445,33.21803 -0.10172,47.41297 -1.36521,48.93678 -2.50395,3.0194 -19.21236,2.88498 -22.27416,-0.17923 -2.0552,-2.05675 -2.9666,-2.05675 -7.88535,0 -7.53767,3.15187 -19.20002,2.87181 -26.7864,-0.6433 z m 98.5802,-0.667 c -9.6259,-4.67265 -15.16759,-10.4291 -19.86686,-20.63678 -3.10622,-6.74725 -3.60462,-10.34171 -3.60462,-25.99648 0,-17.67151 0.14931,-18.45942 5.47669,-28.91 7.13398,-13.99446 15.75518,-19.81966 30.74651,-20.775 18.44517,-1.17539 33.57413,8.06399 39.60099,24.18473 4.13686,11.06528 4.60427,34.1783 0.72134,35.66946 -1.36133,0.52278 -13.68386,0.95051 -27.38342,0.95051 -21.56231,0 -24.90824,0.32938 -24.90824,2.45191 0,11.81192 19.11748,17.18802 31.00273,8.71843 2.57817,-1.83725 5.66454,-3.34043 6.85859,-3.34043 1.19404,0 5.26857,3.15867 9.05454,7.01924 l 6.88355,7.01927 -3.81943,4.0916 c -7.92148,8.48597 -16.64127,12.16704 -30.27629,12.78112 -10.91849,0.49174 -13.73969,0.0472 -20.48608,-3.22758 z m -227.31161,-183.8455 0.42068,-35.67034 4.69432,0 4.69428,0 0.42498,30.14506 0.42497,30.14506 16.49539,0 16.49539,0 -0.49032,5.08943 -0.49034,5.0894 -21.54502,0.43588 -21.54501,0.43587 z m 56.75221,33.65343 c -5.21833,-2.93374 -6.93955,-6.34332 -6.99168,-13.85012 -0.0726,-10.43061 4.61848,-14.40872 17.9956,-15.26119 8.18785,-0.52177 10.1204,-1.14834 10.1204,-3.28125 0,-5.8362 -8.77154,-8.51151 -15.71446,-4.7929 -2.13121,1.14148 -3.90031,1.03324 -6.1562,-0.37669 -7.77056,-4.85657 0.20799,-12.18692 13.26447,-12.18692 8.06897,0 15.52858,3.21815 17.94841,7.74316 0.88613,1.65704 1.61114,12.12056 1.61114,23.25228 l 0,20.23953 -14.47408,0.13664 c -8.07979,0.0762 -15.85662,-0.64049 -17.6036,-1.62267 z m 311.39345,-6.16235 c -0.42862,-1.14858 -1.3791,-9.28727 -2.11217,-18.08603 -0.73307,-8.7987 -2.22945,-17.07883 -3.32526,-18.40021 -1.09583,-1.3214 -3.93238,-2.40253 -6.3035,-2.40253 -7.33266,0 -8.39956,3.00586 -7.32639,20.63486 0.92757,15.23718 0.81799,16.01005 -2.89623,20.42755 -5.61808,6.68189 -5.21121,14.2031 1.11018,20.52264 4.74851,4.74714 5.14893,1.07581 6.41697,17.3709 l 1.33766,22.48035 14.42753,10.11252 c 2.45986,-0.20392 2.74564,-3.90033 1.48258,-22.38105 -0.90886,-13.29886 -1.54368,-24.31586 -1.41067,-24.48224 l 31.41447,18.72903"
       id="path4692"
       inkscape:connector-curvature="0"
       sodipodi:nodetypes="csssssssscssccccssssssscssssccssssssccssssssssscccsssssssscssccsssscssssssssssssssscsscccscccssccssssscsscsssccccssssscsscsssssssssscsssccssssssssccssscssccccssssssssssssscsssssssscccccssscsssssscssssssssssssscsssssssssssssssccsccssscccssssscccssssssssscssscssscsssscsscsssssccsssssssssscccccccccccccccccccsccccccscccsssccssssscscsssscccccsscsscsssssssscsssssssssscccc" />
  </g>
  <g
     inkscape:groupmode="layer"
     id="layer1"
     inkscape:label="frame"
     style="display:inline">
    <path
       style="display:inline;opacity:1;fill:none;fill-opacity:1;stroke:#ff0000;stroke-width:0.99999994;stroke-linecap:square;stroke-linejoin:miter;stroke-miterlimit:4;stroke-dasharray:none;stroke-dashoffset:0;stroke-opacity:1"
       d="M 135.56445,22.894531 C 70.710656,22.894531 18.5,75.105188 18.5,139.95898 l 0,792.42969 c 0,64.8538 52.210656,117.06443 117.06445,117.06443 l 116.8717,0 0,-86.26636 19.51004,0 0,86.26636 233.1316,0 0,-87.01966 20.41016,0 0,87.01966 119.0433,0 c 64.8538,0 117.06445,-52.21063 117.06445,-117.06443 l 0,-792.42969 c 0,-64.853792 -52.21065,-117.064449 -117.06445,-117.064449 z"
       id="rect3336"
       inkscape:connector-curvature="0"
       sodipodi:nodetypes="ssssccccccccsssss" />
  </g>
</svg>
