<?xml version="1.0" encoding="UTF-8" standalone="no"?>
<!-- Created with Inkscape (http://www.inkscape.org/) -->

<svg
   xmlns:dc="http://purl.org/dc/elements/1.1/"
   xmlns:cc="http://creativecommons.org/ns#"
   xmlns:rdf="http://www.w3.org/1999/02/22-rdf-syntax-ns#"
   xmlns:svg="http://www.w3.org/2000/svg"
   xmlns="http://www.w3.org/2000/svg"
   xmlns:sodipodi="http://sodipodi.sourceforge.net/DTD/sodipodi-0.dtd"
   xmlns:inkscape="http://www.inkscape.org/namespaces/inkscape"
   width="457.20001mm"
   height="308.39999mm"
   viewBox="0 0 1620 1092.7559"
   id="svg2"
   version="1.1"
   inkscape:version="0.91 r13725"
   sodipodi:docname="cerebro.svg">
  <defs
     id="defs4" />
  <sodipodi:namedview
     id="base"
     pagecolor="#ffffff"
     bordercolor="#666666"
     borderopacity="1.0"
     inkscape:pageopacity="0.0"
     inkscape:pageshadow="2"
     inkscape:zoom="0.7"
     inkscape:cx="725.1452"
     inkscape:cy="662.55982"
     inkscape:document-units="px"
     inkscape:current-layer="layer2"
     showgrid="false"
     inkscape:window-width="1855"
     inkscape:window-height="1056"
     inkscape:window-x="69"
     inkscape:window-y="1048"
     inkscape:window-maximized="1"
     showguides="true"
     inkscape:guide-bbox="true" />
  <metadata
     id="metadata7">
    <rdf:RDF>
      <cc:Work
         rdf:about="">
        <dc:format>image/svg+xml</dc:format>
        <dc:type
           rdf:resource="http://purl.org/dc/dcmitype/StillImage" />
        <dc:title />
      </cc:Work>
    </rdf:RDF>
  </metadata>
  <g
     inkscape:groupmode="layer"
     id="layer2"
     inkscape:label="Capa 2"
     style="display:inline">
    <path
       style="display:inline;fill:none;stroke:#ff0000;stroke-width:1"
       d="m 217.26266,264.27186 c 3.26564,9.33675 12.37216,16.16564 23.76114,18.83919 2.13073,0.50018 6.34014,0.73523 11.11544,0.62071 6.71918,-0.16115 8.31803,-0.42218 12.71166,-2.07525 l 0,0 c 9.13742,-3.43789 14.36808,-8.43387 18.1179,-17.30491 2.55942,-6.05504 3.81786,-6.67486 11.26005,-5.54583 6.72917,1.02086 15.12476,0.55674 20.71963,-1.1454 8.54645,-2.60012 15.90594,-8.85689 18.80805,-15.98991 1.6281,-4.00166 7.09147,-16.09611 6.24083,-21.82526 -0.85065,-5.72916 -10.06783,-2.98644 -15.37132,-3.00388 -5.30349,-0.0175 -11.60863,-0.16465 -25.96083,-3.26913 -17.24604,-8.07261 -15.37794,3.86194 -23.55988,6.65426 -9.31986,2.80361 -16.63417,7.41233 -19.2506,13.18179 -2.61644,5.76946 3.51851,16.6129 -1.16581,12.44204 -4.68439,-4.17087 -3.43386,-10.23423 -3.34779,-13.32311 0.0861,-3.08888 10.40511,-13.5927 23.07668,-17.15656 5.33139,-1.66123 5.63944,-6.65801 3.73222,-11.72676 -0.89196,-2.37055 -5.21852,-7.52406 -7.53543,-13.09751 -3.58945,-8.63467 -3.0146,-24.66474 4.09459,-28.77218 7.10919,-4.10743 -1.21155,9.9117 -1.43592,13.94111 -0.33079,5.86649 -0.14553,8.2791 0.87707,11.42058 2.98904,9.18293 11.49761,17.88834 20.88349,21.3667 8.13878,3.01619 14.79917,3.96557 27.91648,3.97923 10.76104,0.0112 11.68954,-0.0832 15.82772,-1.60876 5.04479,-1.85984 11.80553,-6.97649 14.19594,-10.74376 5.04026,-7.94352 5.03572,-18.05049 -0.0117,-26.00531 -2.20705,-3.47825 -9.29398,-8.97178 -14.38862,-11.15354 -2.30538,-0.98728 -4.60941,-2.22694 -5.12001,-2.75483 -1.70369,-1.76124 -1.08716,-4.10845 1.806,-6.87611 4.73889,-4.53336 5.98697,-7.40936 5.94142,-13.69162 -0.0441,-6.0676 -1.31496,-9.03308 -5.70834,-13.31843 -2.58695,-2.52332 -10.11116,-5.69849 -14.89928,-6.28739 -4.96632,-0.69713 -7.96725,-2.06374 -11.94966,0.50741 -6.30862,4.07299 -11.14137,11.18946 -18.60293,13.45403 -7.46156,2.26458 -16.78994,0.80517 -24.53283,-2.18673 -7.74294,-2.9919 -15.25465,-11.60283 -13.92314,-16.44407 1.33152,-4.84124 5.93443,7.18056 13.20405,10.92368 7.26969,3.74312 19.13524,5.61285 25.39071,3.32456 4.14431,-1.51603 9.59891,-5.91251 13.56109,-10.93051 5.38772,-6.82328 6.25376,-8.9254 6.25376,-15.17916 0,-4.807093 -0.27704,-5.983895 -2.11853,-8.998795 -2.4408,-3.996265 -6.83431,-7.43793 -11.88725,-9.311985 -5.10199,-1.892259 -15.78524,-1.854317 -20.81894,0.07393 -1.96803,0.753882 -4.03518,1.370693 -4.59366,1.370693 -2.09676,0 -4.41913,-1.996279 -6.61618,-5.687181 -5.78565,-9.719311 -17.19627,-14.39748 -28.75634,-11.789592 -8.07938,1.822676 -15.80369,7.823063 -17.81972,13.842753 m 0,0 -0.2145,75.121007 c 0,0 0.10121,4.89808 -5.85161,4.81445 -5.95282,-0.0836 -6.12386,-4.81445 -6.12386,-4.81445 l 0,-75.863726 c 0,-5.003556 -9.15464,-9.992321 -14.70482,-12.084342 -6.09008,-2.295552 -14.01614,-2.24397 -19.74195,0.128475 -5.34028,2.212671 -9.43039,5.707218 -12.50501,10.684053 -1.51683,2.455295 -3.33295,4.444576 -4.56074,4.995566 -1.87828,0.842909 -2.39243,0.795733 -6.47795,-0.594385 -6.58614,-2.240986 -15.74275,-2.161788 -21.69306,0.187636 -5.5335,2.184865 -9.91432,6.038916 -12.05688,10.607114 -1.38723,2.958276 -1.64403,4.532739 -1.39183,8.542189 0.18005,2.86181 -0.88805,10.93908 -0.1833,12.00147 0.66576,1.00363 -0.24803,0.49343 3.89363,7.59935 4.14167,7.10591 25.41241,18.41455 40.97555,14.52007 6.42486,-1.60774 14.782,-4.71039 20.99445,-10.05431 4.24472,-3.65125 5.86006,-6.88887 9.22428,-6.88887 3.36422,0 3.21979,-0.14891 0.83943,3.55202 -2.26989,3.52917 -11.95707,10.68398 -18.02331,13.21972 l -7.03262,2.07313 5.11928,1.69787 c 1.08814,0.36089 5.24954,3.13564 8.81471,6.02769 8.03488,6.51791 11.79144,11.87939 12.58734,17.96495 0.62616,4.7878 -0.80663,2.7055 -4.51476,-1.39037 0,0 -2.80697,-3.45619 -6.42094,-8.66129 -7.44856,-10.72805 -19.94958,-8.93853 -35.95073,-13.05331 -9.35327,-2.40524 -15.48865,-4.48333 -19.621,-6.6457 -5.38908,-2.82 -12.51556,-8.97422 -15.35918,-13.26376 l -2.51075,-3.78747 -3.16521,0.38989 c -4.830614,0.59505 -12.349048,3.76114 -14.945432,6.29368 -4.393388,4.28535 -5.664401,7.25083 -5.708374,13.31843 -0.04549,6.28226 1.202519,9.15826 5.94145,13.69162 4.383487,4.19335 3.521167,6.80432 -3.166937,9.58903 -5.159203,2.14812 -12.270214,7.62505 -14.535687,11.19545 -3.808532,6.00223 -4.848247,13.51017 -2.762504,19.94846 2.595219,8.01101 8.090256,13.32113 17.624657,17.03159 8.309154,3.23364 8.596919,3.95098 4.764796,11.87763 -2.449035,5.06577 -2.485854,14.25874 -0.07821,19.52227 6.022867,13.16696 23.423371,19.73352 41.741001,15.75208 3.37059,-0.7326 8.56288,-2.41293 11.53855,-3.73405 18.99013,-8.43122 23.85935,-20.49251 15.31737,-38.81074 -5.07605,-10.88559 -12.60284,-18.20076 -32.10357,-16.19917 -4.04732,0.41544 -4.00134,0.0926 -5.64734,-1.44597 -2.31207,-2.16115 -3.18503,-5.07105 -0.32387,-3.66824 3.97039,1.94664 1.36989,3.08914 8.23117,2.36519 18.24676,-1.92522 29.1244,6.7101 33.19716,18.64596 4.07277,11.93586 4.05321,18.88079 1.89116,24.81676 -2.16212,5.93599 -7.91049,12.40458 -21.99823,18.09294 -4.61935,1.86521 -1.30988,8.54455 2.56451,13.48277 4.23454,5.39727 12.22987,10.10624 19.49759,11.48339 4.38916,0.83175 13.85829,0.744 18.10325,-0.16765 l 0,0 c 11.90019,-2.55583 21.04582,-9.46961 23.89539,-19.18634 l 0,-53.4121 c 0,0 0.8162,-5.4522 6.9682,-5.4522 6.15199,0 5.84198,5.14271 5.84198,5.14271 l -0.31436,54.06262"
       id="path4136-3"
       inkscape:connector-curvature="0"
       sodipodi:nodetypes="csssssssszzcczzzccszcssssssssssscczzzzsssccccssccszsssscsssssszsszssssssssssssssssscssssssssssszzssccccczcc" />
  </g>
</svg>
