<?xml version="1.0" encoding="UTF-8" standalone="no"?>
<!-- Created with Inkscape (http://www.inkscape.org/) -->

<svg
   xmlns:dc="http://purl.org/dc/elements/1.1/"
   xmlns:cc="http://creativecommons.org/ns#"
   xmlns:rdf="http://www.w3.org/1999/02/22-rdf-syntax-ns#"
   xmlns:svg="http://www.w3.org/2000/svg"
   xmlns="http://www.w3.org/2000/svg"
   xmlns:sodipodi="http://sodipodi.sourceforge.net/DTD/sodipodi-0.dtd"
   xmlns:inkscape="http://www.inkscape.org/namespaces/inkscape"
   width="457.20001mm"
   height="308.39999mm"
   viewBox="0 0 1620 1092.7559"
   id="svg2"
   version="1.1"
   inkscape:version="0.91 r13725"
   sodipodi:docname="cerebro2.svg">
  <defs
     id="defs4" />
  <sodipodi:namedview
     id="base"
     pagecolor="#ffffff"
     bordercolor="#666666"
     borderopacity="1.0"
     inkscape:pageopacity="0.0"
     inkscape:pageshadow="2"
     inkscape:zoom="1.979899"
     inkscape:cx="299.26165"
     inkscape:cy="904.76565"
     inkscape:document-units="px"
     inkscape:current-layer="layer2"
     showgrid="false"
     inkscape:window-width="1855"
     inkscape:window-height="1056"
     inkscape:window-x="69"
     inkscape:window-y="1048"
     inkscape:window-maximized="1"
     showguides="true"
     inkscape:guide-bbox="true" />
  <metadata
     id="metadata7">
    <rdf:RDF>
      <cc:Work
         rdf:about="">
        <dc:format>image/svg+xml</dc:format>
        <dc:type
           rdf:resource="http://purl.org/dc/dcmitype/StillImage" />
        <dc:title></dc:title>
      </cc:Work>
    </rdf:RDF>
  </metadata>
  <g
     inkscape:groupmode="layer"
     id="layer2"
     inkscape:label="Capa 2"
     style="display:inline">
    <path
       style="display:inline;fill:none;stroke:#ff0000"
       d="m 270.3423,404.75499 c -13.4764,-18.7457 -16.3765,-18.9656 -21.0375,-32.81934 -3.3624,-9.97841 -6.9199,-19.17112 -7.9057,-20.42823 -0.9858,-1.25711 -5.7378,-6.81933 -10.56,-12.36049 -4.8223,-5.54117 -9.1244,-11.70054 -9.5603,-13.6875 -1.4673,-6.68924 -1.6655,-6.87159 -7.4668,-6.87159 -15.9852,0 -28.5818,-8.62724 -32.9706,-22.58102 -2.0573,-6.54115 -3.0257,-7.85665 -7.0078,-9.52004 -9.4456,-3.94563 -15.7009,-12.69267 -15.7009,-21.95529 0,-4.30683 -0.2738,-4.61029 -4.2366,-4.696 -2.3302,-0.0503 -5.381,-0.53935 -6.7797,-1.08658 -1.7587,-0.68808 -3.9702,-0.0201 -7.1697,2.16565 -4.0649,2.77695 -5.576,3.06574 -12.448,2.37903 -4.3017,-0.42988 -12.8075,-0.74543 -18.9017,-0.70124 -21.149298,0.15336 -35.954898,-7.20861 -39.672398,-19.72678 -1.0603,-3.57055 -3.0601,-8.085 -4.4438,-10.03213 -1.3838,-1.94714 -4.3425,-8.71981 -6.5749,-15.05037 -3.191,-9.04871 -4.0586,-13.64833 -4.0572,-21.50893 0,-11.78662 2.8262,-29.07341 5.9165,-36.21671 1.2058,-2.78729 2.4263,-7.34233 2.7121,-10.1223 0.7365,-7.16411 4.888,-15.85646 8.7962,-18.41717 2.0081,-1.31577 4.4193,-5.11293 6.0711,-9.56085 9.1953,-24.760226 27.520998,-45.321016 39.436698,-44.246436 2.2086,0.19918 5.1328,4.55759 6.7617,3.69893 1.6289,-0.85866 -3.8458,-4.53527 -0.7573,-7.52671 8.0857,-7.83157 24.9363,-15.83476 34.4348,-16.92745 4.2241,-0.48592 8.1138,-1.88896 10.3226,-3.72334 4.3242,-3.59119 12.1079,-6.23992 28.3932,-9.66192 13.8525,-2.91081 19.5183,-3.21891 25.8421,-1.40524 2.7966,0.80205 5.5335,0.77499 7.774,-0.0769 4.7616,-1.81035 15.0222,-1.73296 18.5213,0.13969 2.2361,1.19676 4.7752,1.19363 11.1741,-0.0137 6.968,-1.31476 9.3735,-1.23922 15.1764,0.47658 3.7928,1.12145 10.069,2.66377 13.947,3.42738 3.8781,0.76361 9.6721,2.54779 12.8756,3.96483 3.2035,1.41705 6.5712,2.57645 7.4838,2.57645 3.4653,0 26.1466,10.67785 31.3486,14.6487 2.0725,1.58199 -0.1462,7.18605 -0.1462,7.18605 0,0 2.809,-3.22421 6.0659,-3.91033 3.257,-0.68611 38.80709,19.398132 54.40999,36.962736 18.03815,15.40782 16.20166,36.81825 28.11091,61.25121 0.9869,1.89151 -5.4902,5.43371 -5.1423,6.673 0.3478,1.23928 5.4775,-3.70632 8.3482,-0.59516 2.6004,2.39411 6.3478,42.98781 4.3612,46.69983 -0.7501,1.40148 -1.0572,6.27342 -0.6923,10.9843 0.8079,10.43234 -2.4514,32.97042 -6.3789,44.10987 -1.7688,5.01694 -5.3449,11.16916 -9.0928,15.64286 -3.3976,4.05555 -7.5863,9.09622 -9.3084,11.20148 -2.5208,3.08175 -12.128,-2.76714 -12.3081,-0.46428 -0.1801,2.30286 9.8082,1.86054 6.8767,8.11868 -6.5176,13.91368 -33.4146,34.16699 -46.6618,42.74076 -11.1185,7.1961 -21.6463,10.43624 -36.5864,11.26013 -14.4601,0.79743 -24.1386,-0.83515 -33.771,-5.69656 l -6.1919,-3.12504 -0.1263,7.51749 c -0.3252,19.35221 2.3312,32.79839 8.0352,40.67243 z m 97.6974,-115.39185 c -5.7158,-2.23125 -13.2636,-4.89845 -17.7305,-6.8175 -3.8508,-2.69681 -4.0558,-2.71154 -5.5022,-0.39547 -1.5887,2.54391 -20.5636,14.22343 -28.485,17.53319 -5.4489,2.27669 -12.5756,2.54069 -16.2015,0.60017 -2.0076,-1.07446 -3.4182,-0.7039 -6.758,1.77533 -5.4692,4.05986 -10.9473,7.07669 -21.2953,6.90902 0,0 -9.8931,3.04563 -11.2371,-0.18207 -1.344,-3.2277 1.9813,-7.89167 4.0909,-8.60688 2.0996,-0.71182 4.1424,-2.20292 4.5533,-3.27369 0.9532,-2.48409 -1.933,-8.05034 -6.2803,-12.1116 -3.0173,-2.81885 -4.5545,-6.61652 -2.6782,-6.61652 1.8349,0 8.8562,6.26341 11.1108,9.91143 3.7453,6.05995 3.246,10.18066 -1.7127,14.13675 l -4.2366,3.37999 5.8661,-0.80851 c 9.973,-1.37456 15.0744,-3.02333 19.6826,-6.36133 2.4384,-1.76631 7.2172,-4.70912 10.6195,-6.53956 7.8368,-4.2162 12.9018,-11.67121 13.7208,-20.19543 1.039,-10.81286 -0.562,-15.71137 -7.1433,-21.85581 -4.6435,-4.33528 -5.4685,-5.69032 -3.844,-6.31368 3.058,-1.17348 9.6492,4.11497 12.7819,10.25555 3.408,6.68025 3.6651,18.89756 0.5543,26.34596 -2.3743,5.68516 -10.6896,14.99107 -13.3953,14.99107 -0.9299,0 -1.6908,0.58661 -1.6908,1.30357 0,5.10291 29.1418,-7.55473 37.3718,-16.23231 3.5314,-3.72348 4.0415,-5.08399 3.5163,-9.37845 -0.7712,-6.30637 3.1431,-13.0764 8.6757,-15.00506 2.1355,-0.74443 3.8827,-2.07547 3.8827,-2.95786 0,-3.0759 7.8776,-13.46784 12.7899,-16.87204 9.151,-6.34168 11.527,-2.79779 2.5121,3.74693 -3.2444,2.3554 -6.887,6.77333 -9.1359,11.08036 -2.057,3.93969 -5.0071,7.63391 -6.5558,8.20938 -5.1318,1.90699 -7.4318,5.02041 -7.4318,10.06029 0,5.72497 5.3967,10.41164 8.1393,11.7059 2.7427,1.29426 3.7824,1.51404 5.1726,2.12751 1.5107,0.66662 5.4922,2.82553 10.1524,4.37316 4.6603,1.54762 18.3395,7.34941 17.6144,9.32164 -0.9438,2.5671 -14.9274,-5.3509 -21.4931,-7.24343 z m -120.3934,5.3574 c -3.1683,-2.45097 -4.9243,-2.77756 -12.384,-2.30331 -22.5829,1.43573 -28.1541,0.97007 -33.5763,-2.8065 -6.8323,-4.75861 -12.9688,-12.55737 -11.2407,-14.28549 0.8911,-0.89109 3.3746,0.79857 7.6421,5.19925 8.3399,8.60009 14.2739,10.45194 26.6769,8.32506 4.9631,-0.85109 11.2128,-1.53778 13.8881,-1.52599 5.4835,0.0242 15.2928,4.98426 15.2928,7.73283 0,2.87144 -2.3123,2.74816 -6.2989,-0.33585 z m -8.7909,-23.83276 c -4.9278,-5.2683 -7.6559,-6.32723 -18.1346,-7.03888 l -9.7601,-0.66285 -0.7613,-4.5625 c -2.5193,-15.09751 -16.4756,-22.85248 -28.2292,-15.68592 -5.0966,3.10752 -7.5647,0.88598 -3.0644,-2.75818 11.7463,-9.51158 29.877,-2.60394 34.467,13.13164 1.6216,5.55937 2.0093,5.93636 5.7108,5.55357 5.7971,-0.59954 13.5246,1.82966 19.4312,6.10835 4.7718,3.45671 5.4469,3.60847 8.6309,1.94018 7.1509,-3.74671 14.5989,-3.71095 22.4037,0.10755 3.9646,1.93967 7.2083,4.03553 7.2083,4.65745 0,2.52574 -2.6619,2.46795 -7.1063,-0.15426 -6.2961,-3.71479 -15.9837,-3.72144 -21.9807,-0.0151 -2.454,1.51666 -4.7303,2.75755 -5.0584,2.75755 -0.3281,0 -2.0187,-1.52038 -3.7569,-3.37862 z m 160.438,-9.69896 c 0,-8.23411 -2.5102,-14.35842 -7.3346,-17.89473 -2.9209,-2.14103 -3.4017,-3.09461 -2.1832,-4.33043 2.3416,-2.37503 8.0524,1.88113 10.6335,7.92502 1.9422,4.54778 2.456,4.89658 6.2949,4.27362 5.669,-0.91996 10.8394,0.54381 10.8394,3.06865 0,1.66452 -0.9,1.90677 -4.5442,1.22311 -6.8057,-1.27677 -9.7951,0.89803 -9.7951,7.12606 0,3.72511 -0.546,5.16843 -1.9553,5.16843 -1.4791,0 -1.9554,-1.59791 -1.9554,-6.55973 z M 144.4297,232.22623 c -2.2987,-4.86105 -3.9764,-6.20811 -13.6861,-10.98889 -6.0865,-2.99679 -11.9378,-5.48987 -13.0029,-5.54018 -1.0652,-0.0503 -5.026,1.47159 -8.8019,3.382 -3.7758,1.9104 -7.3039,3.0264 -7.8401,2.47998 -1.379298,-1.40552 7.1973,-8.28733 11.5083,-9.23419 l 3.5959,-0.78978 -6.4677,-10.67457 c -8.2394,-13.59875 -17.060198,-22.30708 -24.707198,-24.39231 -3.1687,-0.86409 -6.5318,-1.79323 -7.4735,-2.06477 -3.0188,-0.87054 -0.2265,-3.11926 3.8733,-3.11926 9.3502,0 21.956698,10.87463 32.199498,27.7759 7.7691,12.81966 8.5684,13.58011 20.0227,19.04856 7.5574,3.60799 10.2272,4.37309 10.7258,3.07369 1.2185,-3.17535 16.8443,1.76815 21.6043,6.83487 3.5515,3.78041 2.4299,5.90296 -1.7147,3.24493 -6.4439,-4.13262 -12.089,-6.53152 -15.3698,-6.53152 l -3.4715,0 2.5534,5.161 c 2.3233,4.69581 2.3129,7.87471 -0.026,7.87471 -0.4962,0 -2.0811,-2.49308 -3.522,-5.54017 z m 198.8102,2.9512 c -3.2264,-0.5275 -6.5597,-0.69983 -7.4075,-0.38297 -2.0029,0.74864 -5.6232,-6.28964 -5.646,-10.97671 -0.033,-6.81106 -1.4226,-9.35859 -5.912,-10.84022 -3.4408,-1.13556 -5.6237,-1.00403 -10.4325,0.6286 -7.2976,2.47759 -15.2777,1.54281 -14.6501,-1.7161 0.3095,-1.60715 1.6753,-2.00565 5.8427,-1.70475 6.567,0.47415 9.4743,-0.93505 18.0983,-8.77236 3.6388,-3.30692 10.0109,-8.55371 14.1602,-11.65952 5.0847,-3.80603 8.182,-7.27099 9.5009,-10.62869 1.7289,-4.40136 2.5901,-5.07671 7.3912,-5.7967 7.2906,-1.09329 13.7779,-5.23595 15.5496,-9.92969 1.3788,-3.65287 3.3787,-4.82386 5.1734,-3.02915 1.3319,1.33188 -2.5856,7.73619 -7.0089,11.45814 -2.2621,1.90343 -6.7408,4.16362 -9.9527,5.02266 -4.7385,1.26739 -6.3087,2.48114 -8.3267,6.43673 -1.409,2.76191 -5.7319,7.22941 -9.9736,10.30723 -8.5605,6.21157 -15.9599,12.9091 -15.9599,14.44605 0,0.57632 1.1306,1.04785 2.5125,1.04785 3.5052,0 7.9126,6.07195 7.9339,10.93027 0.038,8.77848 0.6445,9.353 11.7739,11.16038 9.7109,1.57701 10.5593,1.51886 14.86,-1.0186 5.8126,-3.42953 7.8491,-1.07276 2.8148,3.25754 -3.7624,3.23632 -8.6993,3.66347 -20.3415,1.76001 z M 193.5354,206.57389 c -5.2581,-3.80344 -8.7471,-5.25984 -14.247,-5.94699 -8.8235,-1.10243 -12.2754,-3.21774 -17.3959,-10.66019 -6.7326,-9.78547 -8.4847,-10.86102 -17.6931,-10.86102 -6.2002,0 -8.2274,-0.45166 -8.2274,-1.83303 0,-1.20379 2.1727,-2.13186 6.3291,-2.70351 8.9229,-1.22722 14.3986,1.4046 20.7168,9.95719 7.0109,9.49024 8.5189,10.53169 16.8966,11.66856 5.1969,0.70523 9.2798,2.36868 14.2997,5.82602 l 7.0259,4.83895 6.799,-3.31428 c 9.4112,-4.58764 18.9533,-7.22963 31.9399,-8.84341 16.2442,-2.01857 22.2735,-6.04744 20.3743,-13.61439 -1.0284,-4.09746 -0.2998,-4.10089 5.6958,-0.0267 6.1513,4.17994 12.0038,4.19456 16.9385,0.0422 3.3925,-2.85464 4.2708,-3.04753 7.8041,-1.71386 7.9428,2.99807 18.7367,-2.66339 21.7615,-11.41406 1.3871,-4.01298 2.3751,-5.07617 4.4315,-4.76878 4.7557,0.71091 13.0224,-2.34104 15.7567,-5.81709 1.5976,-2.0311 2.677,-5.33547 2.677,-8.19536 0,-4.66817 -0.171,-4.83589 -6.616,-6.48769 -7.6079,-1.94983 -16.1316,-9.1756 -17.5661,-14.89114 -1.6077,-6.40551 1.4029,-6.83347 4.7988,-0.68216 1.6988,3.07714 5.1418,6.98876 7.6512,8.69248 3.8729,2.62953 5.7874,3.02224 12.6677,2.5985 6.1025,-0.37584 8.8611,-1.20929 11.1644,-3.37313 3.5027,-3.29061 6.15,-3.72675 6.15,-1.01319 0,2.51039 -6.2539,7.27666 -10.7198,8.16984 -3.3025,0.66049 -3.6195,1.22902 -3.6195,6.49174 0,10.79935 -5.2221,16.76301 -15.9216,18.18234 -3.9244,0.52059 -6.2391,1.47394 -6.2391,2.5697 0,3.27517 -7.9359,10.78588 -13.7376,13.00159 -3.616,1.38094 -7.7067,1.95659 -10.8797,1.531 -3.7119,-0.49787 -6.0906,-0.003 -8.8097,1.83315 -2.8048,1.89395 -5.5245,2.42394 -11.0113,2.14577 -6.5913,-0.33416 -7.7384,0.0274 -12.0224,3.78875 -4.6765,4.10597 -11.7562,6.88611 -17.5719,6.90025 -7.0441,0.0171 -23.7857,4.44387 -32.4325,8.57566 -5.142,2.45704 -9.5416,4.4484 -9.7768,4.42528 -0.2353,-0.0231 -3.5613,-2.30869 -7.3911,-5.07903 z m 0.9983,-36.2095 c -3.0178,-5.91002 -6.3396,-10.16944 -10.2556,-13.15057 -5.4242,-4.12917 -6.3308,-4.38126 -14.2722,-3.96851 l -8.4801,0.44073 -0.914,-4.40242 c -1.0604,-5.10705 -4.4079,-9.96596 -9.4695,-13.74504 -2.6398,-1.97084 -6.0779,-2.79231 -13.1898,-3.15145 l -9.6194,-0.48576 -0.821,-4.85975 c -1.7764,-10.51445 -9.2653,-17.95969 -16.6591,-16.56214 -7.889,1.49114 -9.145,1.49256 -9.6705,0.0104 -0.289,-0.81472 1.3486,-2.13458 3.639,-2.93304 10.6817,-3.72365 19.0868,-0.007 24.0392,10.63039 1.7463,3.75081 3.1843,7.40626 3.1957,8.12322 0.012,0.71697 3.0967,1.34627 6.8564,1.39843 3.7598,0.0521 8.5958,0.94985 10.7467,1.99482 3.6102,1.75397 4.2425,1.67676 8.2297,-1.00503 2.3755,-1.59773 6.9441,-3.29863 10.1525,-3.77975 6.3116,-0.9465 16.4805,1.24055 18.8081,4.0451 2.4108,2.90481 -0.8934,3.46824 -7.3947,1.26098 -6.4624,-2.19403 -11.1073,-1.79413 -18.3829,1.58268 l -4.2301,1.96331 3.142,3.73404 c 1.7281,2.05372 3.5451,5.56922 4.0377,7.81222 0.818,3.72432 1.2388,4.00958 4.8495,3.28746 10.1429,-2.0286 22.9097,6.67557 29.7937,20.31279 4.2217,8.36299 4.5907,10.1876 2.0606,10.1876 -0.9506,0 -3.737,-3.93358 -6.1919,-8.7413 z m 62.0186,-4.12587 c -4.9774,-3.09139 -9.3862,-7.9625 -9.9725,-11.01849 -0.2958,-1.54139 -2.8625,-3.18944 -7.3028,-4.68911 -13.9063,-4.6966 -19.153,-14.72019 -14.0711,-26.88268 2.8917,-6.92103 14.5102,-18.40059 22.4016,-22.13381 6.0468,-2.860576 6.9895,-3.808656 6.9895,-7.029376 0,-7.20039 4.3474,-17.47026 9.7384,-23.00513 5.7804,-5.93455 21.0417,-15.37628 22.9487,-14.19767 2.3765,1.4687 1.1099,3.14272 -4.9862,6.59057 -16.7923,9.49733 -21.8776,16.2561 -23.4112,31.11569 -0.537,5.203056 -1.3946,7.635226 -2.8546,8.095906 -11.9689,3.77662 -20.8527,10.89937 -25.5379,20.47564 -5.7563,11.76538 -1.7257,19.15969 13.1322,24.09146 4.43,1.47045 6.5391,2.92586 6.8559,4.73095 0.5794,3.30222 6.4649,9.68593 10.3066,11.17929 3.09,1.2011 4.0893,5.11881 1.3036,5.11048 -0.8962,-0.003 -3.3893,-1.09785 -5.5402,-2.43372 z m 70.073,-61.01108 c -5.0918,-3.02715 -9.9183,-3.8365 -16.6265,-2.78813 -4.3687,0.68275 -2.9921,-3.295276 1.5956,-4.611036 5.2681,-1.51085 14.0937,0.78096 19.3796,5.032416 5.8206,4.68147 2.5441,6.46464 -4.3487,2.36675 z m -91.0468,-6.125476 c -2.3009,-5.99589 -24.1961,-12.11062 -39.0854,-10.91545 l -8.2171,0.65959 -4.586,-6.90712 c -2.5224,-3.79892 -5.785,-7.28763 -7.2503,-7.7527 -2.7834,-0.88342 -3.5793,-3.86115 -1.3931,-5.21228 1.5809,-0.97705 12.6832,9.09708 13.7582,12.48405 0.6948,2.18919 2.1122,2.48692 11.8398,2.48692 14.16,0 26.6525,3.12833 33.5739,8.40745 5.6851,4.33616 7.722,8.538976 4.1385,8.538976 -1.1505,0 -2.4009,-0.80525 -2.7785,-1.789436 z"
       id="path4233-7"
       inkscape:connector-curvature="0"
       sodipodi:nodetypes="ccssssssscssssssssssssssssssscsssssscczcczcccssczsssscsccccssssszsssssscssssscscssssssssccszssscssssssssscscssssssssssssccsscssssssscssssscsssssssssscssccsccssssssssssscsssscsssscsssssssscsssssssscsssscssssssssscssssccccsscssscsscssccsssssscsssssccssssssssssssssscsssssssscssssssss" />
  </g>
</svg>
