<?xml version="1.0" encoding="UTF-8" standalone="no"?>
<!-- Created with Inkscape (http://www.inkscape.org/) -->

<svg
   xmlns:dc="http://purl.org/dc/elements/1.1/"
   xmlns:cc="http://creativecommons.org/ns#"
   xmlns:rdf="http://www.w3.org/1999/02/22-rdf-syntax-ns#"
   xmlns:svg="http://www.w3.org/2000/svg"
   xmlns="http://www.w3.org/2000/svg"
   xmlns:sodipodi="http://sodipodi.sourceforge.net/DTD/sodipodi-0.dtd"
   xmlns:inkscape="http://www.inkscape.org/namespaces/inkscape"
   width="457.20001mm"
   height="308.39999mm"
   viewBox="0 0 1620 1092.7559"
   id="svg2"
   version="1.1"
   inkscape:version="0.91 r13725"
   sodipodi:docname="corazon.svg">
  <defs
     id="defs4" />
  <sodipodi:namedview
     id="base"
     pagecolor="#ffffff"
     bordercolor="#666666"
     borderopacity="1.0"
     inkscape:pageopacity="0.0"
     inkscape:pageshadow="2"
     inkscape:zoom="0.49497475"
     inkscape:cx="563.82111"
     inkscape:cy="620.78745"
     inkscape:document-units="px"
     inkscape:current-layer="layer2"
     showgrid="false"
     inkscape:window-width="1855"
     inkscape:window-height="1056"
     inkscape:window-x="65"
     inkscape:window-y="24"
     inkscape:window-maximized="1" />
  <metadata
     id="metadata7">
    <rdf:RDF>
      <cc:Work
         rdf:about="">
        <dc:format>image/svg+xml</dc:format>
        <dc:type
           rdf:resource="http://purl.org/dc/dcmitype/StillImage" />
        <dc:title></dc:title>
      </cc:Work>
    </rdf:RDF>
  </metadata>
  <g
     inkscape:groupmode="layer"
     id="layer2"
     inkscape:label="Capa 2"
     style="display:inline">
    <path
       style="fill:none;stroke:#ff0000;stroke-width:1"
       d="m 203.77619,288.68789 c -0.82422,-0.42457 -2.29358,-1.97715 -3.76607,-3.97942 -4.19292,-5.70139 -7.66196,-10.11789 -10.92237,-13.90545 -3.92375,-4.55813 -13.46023,-14.26222 -19.10003,-19.4357 -2.33623,-2.14306 -4.33457,-4.01708 -4.44077,-4.16446 -0.42774,-0.59367 -15.45959,-12.92304 -19.64933,-16.1167 -8.72929,-6.65395 -13.17161,-9.94267 -16.26645,-12.0423 -3.01725,-2.04699 -6.64051,-4.59795 -12.7137,-8.95113 -3.20712,-2.29881 -10.35886,-9.32312 -14.28605,-14.03149 -6.209269,-7.44436 -11.655028,-17.1886 -14.463327,-25.87957 -1.254328,-3.88182 -2.371892,-9.32597 -2.910845,-14.17993 -1.204118,-10.84456 0.822371,-23.22874 4.868089,-29.74975 0.491645,-0.79245 0.8939,-1.54069 0.8939,-1.66277 0,-0.40793 2.870115,-4.97572 5.210783,-8.29295 2.634739,-3.73401 8.54169,-9.85227 11.97307,-12.4014 13.05849,-9.700973 30.80616,-13.106844 46.1454,-8.855537 10.29311,2.85277 17.86526,7.378967 25.30958,15.128647 4.53751,4.72362 15.46399,18.00203 18.71197,22.73971 3.91891,5.71633 5.31162,7.33854 6.85352,7.98298 2.08819,0.87273 3.66897,-0.2502 5.78673,-4.1107 8.56298,-15.60963 18.2913,-26.4324 30.99605,-34.48316 6.46532,-4.096943 12.9561,-6.778168 19.88604,-8.214571 4.12892,-0.855822 14.48125,-1.189065 18.92154,-0.609104 4.06697,0.531208 10.08171,2.061039 12.53782,3.188955 0.94902,0.435819 2.10875,0.938142 2.57715,1.116278 2.00406,0.762161 7.88068,4.734392 10.34714,6.994032 9.30063,8.52078 16.05904,19.62746 18.35687,30.16744 0.77025,3.53313 1.93845,12.47168 1.93936,14.83911 10e-4,2.76897 -2.20625,13.3332 -3.89981,18.66454 -1.22387,3.85282 -5.1618,12.22616 -7.44788,15.83675 -9.23428,14.58439 -25.31672,30.36748 -45.45945,44.61331 -2.10269,1.48711 -6.27071,4.44203 -9.26227,6.56646 -2.99156,2.12445 -5.84926,4.13329 -6.35045,4.4641 -2.87093,1.89496 -13.05808,10.66616 -17.42095,14.99953 -9.38784,9.32435 -15.3767,16.50354 -24.60191,29.49165 -1.24626,1.75458 -2.69343,3.51269 -3.21596,3.90691 -1.38208,1.0427 -3.52669,1.19536 -5.13739,0.36569 z"
       id="path4169"
       inkscape:connector-curvature="0" />
  </g>
</svg>
