<?xml version="1.0" encoding="UTF-8" standalone="no"?>
<!-- Created with Inkscape (http://www.inkscape.org/) -->

<svg
   xmlns:dc="http://purl.org/dc/elements/1.1/"
   xmlns:cc="http://creativecommons.org/ns#"
   xmlns:rdf="http://www.w3.org/1999/02/22-rdf-syntax-ns#"
   xmlns:svg="http://www.w3.org/2000/svg"
   xmlns="http://www.w3.org/2000/svg"
   xmlns:sodipodi="http://sodipodi.sourceforge.net/DTD/sodipodi-0.dtd"
   xmlns:inkscape="http://www.inkscape.org/namespaces/inkscape"
   width="457.20001mm"
   height="308.39999mm"
   viewBox="0 0 1620 1092.7559"
   id="svg2"
   version="1.1"
   inkscape:version="0.91 r13725"
   sodipodi:docname="genderbread-person-medio.svg">
  <defs
     id="defs4" />
  <sodipodi:namedview
     id="base"
     pagecolor="#ffffff"
     bordercolor="#666666"
     borderopacity="1.0"
     inkscape:pageopacity="0.0"
     inkscape:pageshadow="2"
     inkscape:zoom="0.35"
     inkscape:cx="344.46924"
     inkscape:cy="663.94751"
     inkscape:document-units="px"
     inkscape:current-layer="layer1"
     showgrid="false"
     inkscape:window-width="1855"
     inkscape:window-height="1056"
     inkscape:window-x="65"
     inkscape:window-y="24"
     inkscape:window-maximized="1" />
  <metadata
     id="metadata7">
    <rdf:RDF>
      <cc:Work
         rdf:about="">
        <dc:format>image/svg+xml</dc:format>
        <dc:type
           rdf:resource="http://purl.org/dc/dcmitype/StillImage" />
        <dc:title />
      </cc:Work>
    </rdf:RDF>
  </metadata>
  <g
     inkscape:label="Capa 1"
     inkscape:groupmode="layer"
     id="layer1"
     transform="translate(0,40.393701)"
     style="display:inline" />
  <g
     inkscape:groupmode="layer"
     id="layer2"
     inkscape:label="Capa 2"
     style="display:inline">
    <path
       style="opacity:1;fill:none;fill-opacity:1;stroke:#ff0000;stroke-width:2;stroke-linecap:round;stroke-linejoin:round;stroke-miterlimit:4;stroke-dasharray:none;stroke-dashoffset:0;stroke-opacity:1"
       d="m 131.86586,100.18582 c 0,-42.868387 39.11578,-81.449957 89.68008,-80.973637 50.56429,0.47631 102.38959,41.29008 97.39427,91.669697 -4.99529,50.37959 -48.20367,65.24843 -43.25933,79.04853 4.94435,13.8001 31.25195,28.85795 53.19494,28.85795 21.943,0 93.49625,-21.9105 103.99072,23.81576 10.4945,45.72629 -77.27751,48.58419 -102.55964,45.24998 -25.28217,-3.33421 -41.5009,-13.33683 -45.79409,-6.1921 -4.29319,7.14472 -3.81617,59.06312 9.54044,86.2131 13.3566,27.14997 30.05236,36.19997 47.70216,69.54205 17.64979,33.34208 35.33739,61.48896 2.86213,90.02359 -32.47525,28.5347 -68.69113,-14.28945 -94.45029,-55.25257 -25.75918,-40.96312 -32.9145,-77.1631 -32.9145,-77.1631 0,0 -11.44853,57.63416 -27.66725,89.071 0,0 -36.35949,68.84447 -84.43286,53.82367 -48.073369,-15.0209 -26.713214,-68.58947 -0.95404,-116.221 25.75919,-47.63154 59.15071,-91.45256 47.70217,-128.12885 -11.44851,-36.67628 -69.645174,-40.48683 -104.467748,-55.2526 -34.8226,-14.76577 -43.8407143,-39.55144 -31.960466,-60.96837 16.811507,-30.30673 58.67368,-9.52632 97.789474,2.38156 39.11575,11.9079 51.04131,17.62369 58.19663,8.09738 7.15532,-9.52631 -4.10432,-13.14825 -7.82291,-15.20867 -5.70215,-3.15949 -31.76989,-29.565 -31.76989,-72.43337 z"
       id="path4168"
       inkscape:connector-curvature="0"
       sodipodi:nodetypes="sszzsssssszscczssssssss" />
    <path
       style="opacity:1;fill:none;fill-opacity:1;stroke:#ff0000;stroke-width:1;stroke-linecap:round;stroke-linejoin:round;stroke-miterlimit:4;stroke-dasharray:none;stroke-dashoffset:0;stroke-opacity:1"
       d="m 180.88311,100.09918 c 0,0 -2.36113,-7.241337 -9.44453,-7.072937 -7.08342,0.16831 -10.79378,5.05209 -10.62514,10.946197 0.16857,5.89411 2.86711,10.10417 8.93859,10.60937 6.07149,0.50523 9.78185,-5.89408 9.78185,-5.89408 0,0 -4.69749,13.07709 -13.68131,10.76933 -8.98384,-2.30778 -11.2827,-8.14792 -11.76231,-15.4353 -0.47958,-7.287377 4.11095,-15.300727 14.10942,-15.574807 9.99846,-0.27407 12.68343,11.652227 12.68343,11.652227 z"
       id="path4170"
       inkscape:connector-curvature="0"
       sodipodi:nodetypes="cccsczzzc" />
    <path
       style="display:inline;opacity:1;fill:none;fill-opacity:1;stroke:#ff0000;stroke-width:1;stroke-linecap:round;stroke-linejoin:round;stroke-miterlimit:4;stroke-dasharray:none;stroke-dashoffset:0;stroke-opacity:1"
       d="m 260.90281,103.18813 c 0,0 2.36113,-7.241337 9.44454,-7.072947 7.08341,0.16831 10.79377,5.052097 10.62513,10.946197 -0.16856,5.89411 -2.8671,10.10418 -8.93859,10.60937 -6.07149,0.50523 -9.78185,-5.89407 -9.78185,-5.89407 0,0 4.69749,13.07708 13.68131,10.76932 8.98384,-2.30777 11.2827,-8.14792 11.76231,-15.4353 0.47958,-7.287377 -4.11095,-15.300727 -14.10941,-15.574797 -9.99846,-0.27408 -12.68344,11.652227 -12.68344,11.652227 z"
       id="path4170-3"
       inkscape:connector-curvature="0"
       sodipodi:nodetypes="cccsczzzc" />
    <path
       style="opacity:1;fill:none;fill-opacity:1;stroke:#ff0000;stroke-width:1;stroke-linecap:round;stroke-linejoin:round;stroke-miterlimit:4;stroke-dasharray:none;stroke-dashoffset:0;stroke-opacity:1"
       d="m 183.24426,132.60093 c 0,0 13.15487,19.87154 34.23646,20.54516 21.08159,0.67362 34.57379,-13.97743 34.57379,-13.97743 0,0 -12.77062,8.118 -34.40512,7.40971 -21.6345,-0.70827 -34.40513,-13.97744 -34.40513,-13.97744 z"
       id="path4187"
       inkscape:connector-curvature="0"
       sodipodi:nodetypes="czczc" />
  </g>
</svg>
