<?xml version="1.0" encoding="UTF-8" standalone="no"?>
<!-- Created with Inkscape (http://www.inkscape.org/) -->

<svg
   xmlns:dc="http://purl.org/dc/elements/1.1/"
   xmlns:cc="http://creativecommons.org/ns#"
   xmlns:rdf="http://www.w3.org/1999/02/22-rdf-syntax-ns#"
   xmlns:svg="http://www.w3.org/2000/svg"
   xmlns="http://www.w3.org/2000/svg"
   xmlns:sodipodi="http://sodipodi.sourceforge.net/DTD/sodipodi-0.dtd"
   xmlns:inkscape="http://www.inkscape.org/namespaces/inkscape"
   width="457.20001mm"
   height="308.39999mm"
   viewBox="0 0 1620 1092.7559"
   id="svg2"
   version="1.1"
   inkscape:version="0.91 r13725"
   sodipodi:docname="simbolo-sexo.svg">
  <defs
     id="defs4" />
  <sodipodi:namedview
     id="base"
     pagecolor="#ffffff"
     bordercolor="#666666"
     borderopacity="1.0"
     inkscape:pageopacity="0.0"
     inkscape:pageshadow="2"
     inkscape:zoom="0.49497475"
     inkscape:cx="412.99767"
     inkscape:cy="785.08802"
     inkscape:document-units="px"
     inkscape:current-layer="layer2"
     showgrid="false"
     inkscape:window-width="1855"
     inkscape:window-height="1056"
     inkscape:window-x="65"
     inkscape:window-y="24"
     inkscape:window-maximized="1" />
  <metadata
     id="metadata7">
    <rdf:RDF>
      <cc:Work
         rdf:about="">
        <dc:format>image/svg+xml</dc:format>
        <dc:type
           rdf:resource="http://purl.org/dc/dcmitype/StillImage" />
        <dc:title></dc:title>
      </cc:Work>
    </rdf:RDF>
  </metadata>
  <g
     inkscape:groupmode="layer"
     id="layer2"
     inkscape:label="Capa 2"
     style="display:inline">
    <path
       style="fill:none;stroke:#ff0000;stroke-width:0.99999994"
       d="m 184.69546,290.32143 0,-11.50187 -12.941,0 c -12.46171,0 -12.941,-0.31949 -12.941,-8.6264 0,-8.3069 0.47929,-8.62638 12.941,-8.62638 l 12.941,0 0,-14.37735 c 0,-11.02819 -1.03153,-14.37733 -4.42823,-14.37733 -2.43553,0 -9.22956,-2.47453 -15.09783,-5.49896 -33.3335,-17.17961 -47.01094,-56.22171 -30.86641,-88.10781 8.48174,-16.75174 5.5348,-23.32499 -5.71814,-12.75453 l -7.29857,6.8559 -6.24855,-6.24787 -6.24854,-6.24786 6.89465,-7.33822 6.89463,-7.3382 -7.76449,-7.763681 -7.76451,-7.763658 0,7.842191 c 0,6.796548 -1.15031,7.842168 -8.627332,7.842168 l -8.627332,0 0,-23.00373 0,-23.003731 23.006214,0 23.00622,0 0,8.626399 c 0,7.476217 -1.04574,8.62641 -7.84303,8.62641 l -7.84302,0 7.7645,7.763659 7.7645,7.763658 7.33901,-6.893903 7.33901,-6.893881 6.24853,6.247873 6.24855,6.247849 -6.85666,7.297785 c -10.20076,10.857062 -4.25457,14.601422 11.69671,7.365512 16.40811,-7.443154 37.79646,-7.4368 54.22671,0.0161 l 12.75247,5.78465 15.28637,-15.094833 c 8.40748,-8.302139 15.28634,-16.109491 15.28634,-17.349654 0,-1.24015 -6.4705,-2.254818 -14.37888,-2.254818 -14.05936,0 -14.37889,-0.191708 -14.37889,-8.626399 l 0,-8.626399 30.19566,0 30.19566,0 0,31.63013 0,31.630133 -7.18944,0 c -6.71014,0 -7.18944,-0.9585 -7.18944,-14.37733 0,-7.90755 -1.01479,-14.377348 -2.25508,-14.377348 -1.24028,0 -8.98319,6.812028 -17.20645,15.137808 l -14.95136,15.1378 7.14122,14.1042 c 16.16326,31.92306 2.50302,70.95487 -30.84827,88.14363 -5.86828,3.02443 -12.6623,5.49897 -15.09781,5.49897 -3.3967,0 -4.42824,3.34914 -4.42824,14.37732 l 0,14.37734 12.94099,0 c 12.4617,0 12.94099,0.3195 12.94099,8.62639 0,8.30692 -0.47929,8.6264 -12.94099,8.6264 l -12.94099,0 0,11.50188 c 0,11.22801 -0.23965,11.50187 -10.06523,11.50187 -9.82557,0 -10.06522,-0.27386 -10.06522,-11.50187 z m 34.04702,-79.82802 c 21.05367,-9.7767 31.18903,-39.22522 21.2402,-61.7138 -14.61049,-33.02587 -56.3241,-41.25499 -80.27193,-15.8358 -15.54024,16.49505 -18.8978,35.54486 -9.79657,55.58302 11.82932,26.04462 40.4062,35.16494 68.8283,21.96658 z"
       id="path4220"
       inkscape:connector-curvature="0" />
  </g>
</svg>
