<?xml version="1.0" encoding="UTF-8" standalone="no"?>
<!-- Created with Inkscape (http://www.inkscape.org/) -->

<svg
   xmlns:dc="http://purl.org/dc/elements/1.1/"
   xmlns:cc="http://creativecommons.org/ns#"
   xmlns:rdf="http://www.w3.org/1999/02/22-rdf-syntax-ns#"
   xmlns:svg="http://www.w3.org/2000/svg"
   xmlns="http://www.w3.org/2000/svg"
   xmlns:sodipodi="http://sodipodi.sourceforge.net/DTD/sodipodi-0.dtd"
   xmlns:inkscape="http://www.inkscape.org/namespaces/inkscape"
   width="457.20001mm"
   height="304.79999mm"
   viewBox="0 0 1620 1080"
   id="svg2"
   version="1.1"
   inkscape:version="0.91 r13725"
   sodipodi:docname="caca.svg">
  <defs
     id="defs4" />
  <sodipodi:namedview
     id="base"
     pagecolor="#ffffff"
     bordercolor="#666666"
     borderopacity="1.0"
     inkscape:pageopacity="0.0"
     inkscape:pageshadow="2"
     inkscape:zoom="0.43703703"
     inkscape:cx="810.00002"
     inkscape:cy="539.99998"
     inkscape:document-units="px"
     inkscape:current-layer="g4199"
     showgrid="false"
     showguides="false"
     inkscape:window-width="1215"
     inkscape:window-height="1000"
     inkscape:window-x="65"
     inkscape:window-y="24"
     inkscape:window-maximized="1" />
  <metadata
     id="metadata7">
    <rdf:RDF>
      <cc:Work
         rdf:about="">
        <dc:format>image/svg+xml</dc:format>
        <dc:type
           rdf:resource="http://purl.org/dc/dcmitype/StillImage" />
        <dc:title></dc:title>
      </cc:Work>
    </rdf:RDF>
  </metadata>
  <g
     inkscape:label="Layer 1"
     inkscape:groupmode="layer"
     id="layer1"
     transform="translate(0,27.637795)">
    <g
       id="g4199"
       transform="translate(-86.608783,267.15393)">
      <path
         style="fill:none;stroke:#ff0000"
         d="m 202.22425,-288.10341 c -22.93328,0.0808 -45.84655,5.38822 -63.2832,15.62695 -41.967784,24.64331 -56.047824,60.35792 -35.35352,90.53711 20.69429,30.17918 58.63477,37.93945 58.63477,37.93945 l 63.73632,48.126959 c 0.0358,1.44689 0.17185,2.77416 0.43164,3.90039 1.59622,6.91975 1.41674,7.36385 -3.89257,9.57031 -5.60349,2.3287 -13.20902,8.91186 -16.73633,14.48828 -5.79816,9.16648 -6.84239,25.40935 -2.26172,35.1543 3.95155,8.40655 11.98388,14.43638 22.06055,16.55859 6.71801,1.41485 22.39024,0.46318 32.30078,-1.96094 12.42587,-3.03936 23.40333,-3.79854 33.06836,-2.2871 50.06786,7.82973 99.4136,6.67002 120.36133,-2.82813 13.79323,-6.25415 19.13867,-13.3958 19.13867,-25.57422 0,-14.96761 -6.14071,-24.93739 -19.82032,-32.17969 -4.59096,-2.43055 -6.15966,-3.76552 -5.73242,-4.8789 6.69163,-17.438089 -0.99473,-37.716619 -17.18945,-45.351559 l -5.14063,-2.42383 0.54883,-5 c 1.45078,-13.22761 -7.25063,-25.10341 -21.66601,-29.57031 l -5.5,-1.70313 -0.0899,-6.42187 c -0.25269,-18.19309 -21.29912,-41.7918 -48.1582,-53.9961 -5.26509,-2.39237 -10.9303,-3.7073 -15.21875,-3.76367 0.43419,-4.94615 -0.58289,-9.98442 -3.48828,-15.05469 -15.15075,-26.43993 -50.97409,-39.03424 -86.75,-38.9082 z m 85.24414,67.95117 c 1.37442,3.64496 0.45286,6.29333 -3.66992,12.73828 -5.00093,7.8177 -5.68219,9.78739 -6.31055,18.22852 l -0.55859,7.5 -6.49414,3.43359 c -11.565,6.11441 -18.89699,15.69439 -21.08985,27.55664 -0.91653,4.95798 -0.59784,7.94107 1.62305,15.22461 0.59027,1.93582 4.4e-4,2.5178 -4.68164,4.61133 -6.51194,2.91173 -13.11326,9.43168 -16.36914,16.16797 -0.23751,0.49139 -0.46201,1.01034 -0.68164,1.54101 l -27.34961,-51.54296 c 0,0 66.44818,-24.40926 85.58203,-55.45899 z"
         id="path4340"
         inkscape:connector-curvature="0" />
      <path
         style="fill:none;stroke:#ff0000"
         d="m 329.63114,-46.253321 c 7.40451,-2.98857 15.90843,-8.75215 20.89443,-14.16132 4.09732,-4.44507 5.00362,-6.81139 3.06712,-8.00821 -0.78765,-0.4868 -75.64909,-1.01057 -81.71992,-0.57176 -0.6875,0.0497 -1.25,1.16109 -1.25,2.46977 0,4.539 12.23178,14.73914 23.82399,19.86692 9.59394,4.24386 25.22677,4.42363 35.18438,0.4046 z"
         id="path4338"
         inkscape:connector-curvature="0" />
      <path
         style="fill:none;stroke:#ff0000"
         d="m 276.9469,-148.89638 c -8.16401,0.0124 -16.0604,5.40233 -21.20898,15.50391 -3.51741,6.90121 -3.91186,20.41143 -0.83398,28.62109 2.46669,6.579429 9.56244,15.010969 14.4375,17.154299 3.76588,1.65568 10.16959,1.75273 14.60156,0.22265 3.58388,-1.23729 6.5065,-3.29038 9.11328,-6.49218 -1.4548,-0.13808 -2.91594,-0.65288 -4.30664,-1.62696 -7.60215,-5.324759 -8.19074,-23.137379 -1.00195,-30.326169 4.15431,-4.15431 8.05537,-4.07353 12.38476,0.25586 0.43059,0.43059 0.82382,0.88478 1.20313,1.34766 -1.11776,-7.29042 -4.48218,-13.92507 -9.94141,-18.73047 -4.55406,-4.00865 -9.54886,-5.93711 -14.44727,-5.92969 z"
         id="path4334"
         inkscape:connector-curvature="0" />
      <path
         inkscape:connector-curvature="0"
         style="fill:none;stroke:#ff0000"
         d="m 344.6249,-148.89638 c -8.16401,0.0124 -16.06041,5.40233 -21.20899,15.50391 -3.51741,6.90121 -3.91186,20.41143 -0.83398,28.62109 2.46669,6.579429 9.56244,15.010969 14.43751,17.154299 3.76588,1.65568 10.16959,1.75273 14.60156,0.22265 3.58388,-1.23729 6.5065,-3.29038 9.11328,-6.49218 -1.4548,-0.13808 -2.91594,-0.65288 -4.30664,-1.62696 -7.60215,-5.324759 -8.19074,-23.137379 -1.00195,-30.326169 4.15431,-4.15431 8.05536,-4.07353 12.38475,0.25586 0.4306,0.43059 0.82382,0.88478 1.20313,1.34766 -1.11776,-7.29042 -4.48218,-13.92507 -9.9414,-18.73047 -4.55406,-4.00865 -9.54886,-5.93711 -14.44727,-5.92969 z"
         id="path4334-7" />
      <path
         inkscape:connector-curvature="0"
         id="path4429"
         style="font-style:normal;font-variant:normal;font-weight:bold;font-stretch:normal;font-size:medium;line-height:125%;font-family:sans-serif;-inkscape-font-specification:'sans-serif Bold';letter-spacing:0px;word-spacing:0px;fill:none;fill-opacity:1;stroke:#ff0000;stroke-width:1px;stroke-linecap:butt;stroke-linejoin:miter;stroke-opacity:1"
         d="m 127.61316,-250.74327 3.67432,0 4.63989,8.75 0,-8.75 3.1189,0 0,12.75756 -3.67432,0 -4.63989,-8.75 0,8.75 -3.1189,0 0,-12.75756 z" />
      <path
         inkscape:connector-curvature="0"
         id="path4431"
         style="font-style:normal;font-variant:normal;font-weight:bold;font-stretch:normal;font-size:medium;line-height:125%;font-family:sans-serif;-inkscape-font-specification:'sans-serif Bold';letter-spacing:0px;word-spacing:0px;fill:none;fill-opacity:1;stroke:#ff0000;stroke-width:1px;stroke-linecap:butt;stroke-linejoin:miter;stroke-opacity:1"
         d="m 148.10389,-250.97399 c 2.05078,0 3.65722,0.58675 4.81933,1.76026 1.16211,1.1735 1.74317,2.79419 1.74317,4.86206 0,2.06217 -0.58106,3.68001 -1.74317,4.85351 -1.16211,1.17351 -2.76855,1.76026 -4.81933,1.76026 -2.04509,0 -3.65153,-0.58675 -4.81934,-1.76026 -1.16211,-1.1735 -1.74316,-2.79134 -1.74316,-4.85351 0,-2.06787 0.58105,-3.68856 1.74316,-4.86206 1.16781,-1.17351 2.77425,-1.76026 4.81934,-1.76026 z"
         sodipodi:nodetypes="ssssscscs" />
      <path
         inkscape:connector-curvature="0"
         id="path4433"
         style="font-style:normal;font-variant:normal;font-weight:bold;font-stretch:normal;font-size:medium;line-height:125%;font-family:sans-serif;-inkscape-font-specification:'sans-serif Bold';letter-spacing:0px;word-spacing:0px;fill:none;fill-opacity:1;stroke:#ff0000;stroke-width:1px;stroke-linecap:butt;stroke-linejoin:miter;stroke-opacity:1"
         d="m 163.2284,-250.74327 4.18701,0 2.90527,6.82739 2.92237,-6.82739 4.17846,0 0,12.75756 -3.11035,0 0,-9.33105 -2.93945,6.87866 -2.08496,0 -2.93945,-6.87866 0,9.33105 -3.1189,0 0,-12.75756 z" />
      <path
         inkscape:connector-curvature="0"
         id="path4435"
         style="font-style:normal;font-variant:normal;font-weight:bold;font-stretch:normal;font-size:medium;line-height:125%;font-family:sans-serif;-inkscape-font-specification:'sans-serif Bold';letter-spacing:0px;word-spacing:0px;fill:none;fill-opacity:1;stroke:#ff0000;stroke-width:1px;stroke-linecap:butt;stroke-linejoin:miter;stroke-opacity:1"
         d="m 180.66004,-250.74327 8.87817,0 0,2.48657 -5.58838,0 0,2.37549 5.25513,0 0,2.48657 -5.25513,0 0,2.92236 5.77637,0 0,2.48657 -9.06616,0 0,-12.75756 z" />
      <path
         inkscape:connector-curvature="0"
         id="path4437"
         style="font-style:normal;font-variant:normal;font-weight:bold;font-stretch:normal;font-size:medium;line-height:125%;font-family:sans-serif;-inkscape-font-specification:'sans-serif Bold';letter-spacing:0px;word-spacing:0px;fill:none;fill-opacity:1;stroke:#ff0000;stroke-width:1px;stroke-linecap:butt;stroke-linejoin:miter;stroke-opacity:1"
         d="m 201.99671,-248.2567 0,7.78442 1.1792,0 q 2.0166,0 3.07617,-0.99975 1.06812,-0.99976 1.06812,-2.90528 0,-1.89697 -1.05957,-2.88818 -1.05957,-0.99121 -3.08472,-0.99121 l -1.1792,0 z m -3.2898,-2.48657 3.46924,0 q 2.90528,0 4.32373,0.4187 1.42701,0.41015 2.44385,1.40136 0.89722,0.86304 1.33301,1.99097 0.43579,1.12793 0.43579,2.55493 0,1.44409 -0.43579,2.58057 -0.43579,1.12793 -1.33301,1.99097 -1.02539,0.99121 -2.46094,1.40991 -1.43554,0.41015 -4.30664,0.41015 l -3.46924,0 0,-12.75756 z" />
      <path
         inkscape:connector-curvature="0"
         id="path4439"
         style="font-style:normal;font-variant:normal;font-weight:bold;font-stretch:normal;font-size:medium;line-height:125%;font-family:sans-serif;-inkscape-font-specification:'sans-serif Bold';letter-spacing:0px;word-spacing:0px;fill:none;fill-opacity:1;stroke:#ff0000;stroke-width:1px;stroke-linecap:butt;stroke-linejoin:miter;stroke-opacity:1"
         d="m 213.23328,-250.74327 8.87818,0 0,2.48657 -5.58838,0 0,2.37549 5.25512,0 0,2.48657 -5.25512,0 0,2.92236 5.77636,0 0,2.48657 -9.06616,0 0,-12.75756 z" />
      <path
         inkscape:connector-curvature="0"
         id="path4441"
         style="font-style:normal;font-variant:normal;font-weight:bold;font-stretch:normal;font-size:medium;line-height:125%;font-family:sans-serif;-inkscape-font-specification:'sans-serif Bold';letter-spacing:0px;word-spacing:0px;fill:none;fill-opacity:1;stroke:#ff0000;stroke-width:1px;stroke-linecap:butt;stroke-linejoin:miter;stroke-opacity:1"
         d="m 225.19617,-250.74327 3.2898,0 0,11.51855 q 0,2.38403 -1.29883,3.56323 -1.29028,1.1792 -3.91357,1.1792 l -0.66651,0 0,-2.48657 0.5127,0 q 1.02539,0 1.54663,-0.57251 0.52978,-0.57251 0.52978,-1.68335 l 0,-11.51855 z" />
      <path
         inkscape:connector-curvature="0"
         id="path4443"
         style="font-style:normal;font-variant:normal;font-weight:bold;font-stretch:normal;font-size:medium;line-height:125%;font-family:sans-serif;-inkscape-font-specification:'sans-serif Bold';letter-spacing:0px;word-spacing:0px;fill:none;fill-opacity:1;stroke:#ff0000;stroke-width:1px;stroke-linecap:butt;stroke-linejoin:miter;stroke-opacity:1"
         d="m 231.72449,-250.74327 8.87818,0 0,2.48657 -5.58838,0 0,2.37549 5.25512,0 0,2.48657 -5.25512,0 0,2.92236 5.77636,0 0,2.48657 -9.06616,0 0,-12.75756 z" />
      <path
         inkscape:connector-curvature="0"
         id="path4445"
         style="font-style:normal;font-variant:normal;font-weight:bold;font-stretch:normal;font-size:medium;line-height:125%;font-family:sans-serif;-inkscape-font-specification:'sans-serif Bold';letter-spacing:0px;word-spacing:0px;fill:none;fill-opacity:1;stroke:#ff0000;stroke-width:1px;stroke-linecap:butt;stroke-linejoin:miter;stroke-opacity:1"
         d="m 252.56556,-250.34166 0,2.70019 q -1.05103,-0.46997 -2.05078,-0.70923 -0.99976,-0.23925 -1.88843,-0.23925 -1.1792,0 -1.74317,0.3247 -0.56396,0.32471 -0.56396,1.0083 0,0.5127 0.37598,0.80323 0.38452,0.28198 1.38427,0.48706 l 1.40137,0.28198 q 2.12769,0.42725 3.0249,1.29883 0.89722,0.87158 0.89722,2.47803 0,2.11059 -1.2561,3.14453 -1.24756,1.02539 -3.81958,1.02539 -1.21338,0 -2.43531,-0.23072 -1.22192,-0.23071 -2.44384,-0.68359 l 0,-2.7771 q 1.22192,0.64941 2.35839,0.98267 1.14502,0.3247 2.20459,0.3247 1.07666,0 1.64917,-0.35888 0.57251,-0.35889 0.57251,-1.02539 0,-0.59815 -0.39306,-0.92285 -0.38452,-0.32471 -1.54663,-0.58106 l -1.2732,-0.28198 q -1.91406,-0.41016 -2.80273,-1.30738 -0.88013,-0.89721 -0.88013,-2.41821 0,-1.90552 1.23047,-2.93091 1.23047,-1.02539 3.5376,-1.02539 1.05102,0 2.16186,0.16236 1.11084,0.15381 2.29859,0.46997 z" />
      <path
         inkscape:connector-curvature="0"
         id="path4447"
         style="font-style:normal;font-variant:normal;font-weight:bold;font-stretch:normal;font-size:medium;line-height:125%;font-family:sans-serif;-inkscape-font-specification:'sans-serif Bold';letter-spacing:0px;word-spacing:0px;fill:none;fill-opacity:1;stroke:#ff0000;stroke-width:1px;stroke-linecap:butt;stroke-linejoin:miter;stroke-opacity:1"
         d="m 127.61316,-228.86827 8.87818,0 0,2.48657 -5.58838,0 0,2.37549 5.25513,0 0,2.48657 -5.25513,0 0,2.92236 5.77637,0 0,2.48657 -9.06617,0 0,-12.75756 z" />
      <path
         inkscape:connector-curvature="0"
         id="path4449"
         style="font-style:normal;font-variant:normal;font-weight:bold;font-stretch:normal;font-size:medium;line-height:125%;font-family:sans-serif;-inkscape-font-specification:'sans-serif Bold';letter-spacing:0px;word-spacing:0px;fill:none;fill-opacity:1;stroke:#ff0000;stroke-width:1px;stroke-linecap:butt;stroke-linejoin:miter;stroke-opacity:1"
         d="m 139.57606,-228.86827 3.67431,0 4.63989,8.75 0,-8.75 3.1189,0 0,12.75756 -3.67432,0 -4.63989,-8.75 0,8.75 -3.11889,0 0,-12.75756 z" />
      <path
         inkscape:connector-curvature="0"
         id="path4451"
         style="font-style:normal;font-variant:normal;font-weight:bold;font-stretch:normal;font-size:medium;line-height:125%;font-family:sans-serif;-inkscape-font-specification:'sans-serif Bold';letter-spacing:0px;word-spacing:0px;fill:none;fill-opacity:1;stroke:#ff0000;stroke-width:1px;stroke-linecap:butt;stroke-linejoin:miter;stroke-opacity:1"
         d="m 160.32313,-228.86827 8.87817,0 0,2.48657 -5.58838,0 0,2.37549 5.25513,0 0,2.48657 -5.25513,0 0,2.92236 5.77637,0 0,2.48657 -9.06616,0 0,-12.75756 z" />
      <path
         inkscape:connector-curvature="0"
         id="path4453"
         style="font-style:normal;font-variant:normal;font-weight:bold;font-stretch:normal;font-size:medium;line-height:125%;font-family:sans-serif;-inkscape-font-specification:'sans-serif Bold';letter-spacing:0px;word-spacing:0px;fill:none;fill-opacity:1;stroke:#ff0000;stroke-width:1px;stroke-linecap:butt;stroke-linejoin:miter;stroke-opacity:1"
         d="m 172.28602,-228.86827 3.28979,0 0,10.27099 5.77637,0 0,2.48657 -9.06616,0 0,-12.75756 z" />
      <path
         inkscape:connector-curvature="0"
         id="path4455"
         style="font-style:normal;font-variant:normal;font-weight:bold;font-stretch:normal;font-size:medium;line-height:125%;font-family:sans-serif;-inkscape-font-specification:'sans-serif Bold';letter-spacing:0px;word-spacing:0px;fill:none;fill-opacity:1;stroke:#ff0000;stroke-width:1px;stroke-linecap:butt;stroke-linejoin:miter;stroke-opacity:1"
         d="m 198.39075,-228.46666 0,2.70019 q -1.05102,-0.46997 -2.05078,-0.70923 -0.99975,-0.23925 -1.88843,-0.23925 -1.1792,0 -1.74316,0.3247 -0.56397,0.32471 -0.56397,1.0083 0,0.5127 0.37598,0.80323 0.38452,0.28198 1.38428,0.48706 l 1.40137,0.28198 q 2.12768,0.42725 3.0249,1.29883 0.89721,0.87158 0.89721,2.47803 0,2.11059 -1.2561,3.14453 -1.24756,1.02539 -3.81958,1.02539 -1.21338,0 -2.4353,-0.23072 -1.22193,-0.23071 -2.44385,-0.68359 l 0,-2.7771 q 1.22192,0.64941 2.3584,0.98267 1.14502,0.3247 2.20459,0.3247 1.07666,0 1.64917,-0.35888 0.57251,-0.35889 0.57251,-1.02539 0,-0.59815 -0.39307,-0.92285 -0.38452,-0.32471 -1.54663,-0.58106 l -1.27319,-0.28198 q -1.91406,-0.41016 -2.80274,-1.30738 -0.88012,-0.89721 -0.88012,-2.41821 0,-1.90552 1.23047,-2.93091 1.23046,-1.02539 3.53759,-1.02539 1.05103,0 2.16187,0.16236 1.11084,0.15381 2.29858,0.46997 z" />
      <path
         inkscape:connector-curvature="0"
         id="path4457"
         style="font-style:normal;font-variant:normal;font-weight:bold;font-stretch:normal;font-size:medium;line-height:125%;font-family:sans-serif;-inkscape-font-specification:'sans-serif Bold';letter-spacing:0px;word-spacing:0px;fill:none;fill-opacity:1;stroke:#ff0000;stroke-width:1px;stroke-linecap:butt;stroke-linejoin:miter;stroke-opacity:1"
         d="m 202.12488,-228.86827 3.2898,0 0,7.6477 q 0,1.58081 0.51269,2.26441 0.52124,0.67504 1.6919,0.67504 1.1792,0 1.69189,-0.67504 0.52124,-0.6836 0.52124,-2.26441 l 0,-7.6477 3.2898,0 0,7.6477 q 0,2.70874 -1.35864,4.0332 -1.35865,1.32447 -4.14429,1.32447 -2.7771,0 -4.13574,-1.32447 -1.35865,-1.32446 -1.35865,-4.0332 l 0,-7.6477 z" />
      <path
         inkscape:connector-curvature="0"
         id="path4459"
         style="font-style:normal;font-variant:normal;font-weight:bold;font-stretch:normal;font-size:medium;line-height:125%;font-family:sans-serif;-inkscape-font-specification:'sans-serif Bold';letter-spacing:0px;word-spacing:0px;fill:none;fill-opacity:1;stroke:#ff0000;stroke-width:1px;stroke-linecap:butt;stroke-linejoin:miter;stroke-opacity:1"
         d="m 216.34363,-228.86827 8.87818,0 0,2.48657 -5.58838,0 0,2.37549 5.25513,0 0,2.48657 -5.25513,0 0,2.92236 5.77637,0 0,2.48657 -9.06617,0 0,-12.75756 z" />
      <path
         inkscape:connector-curvature="0"
         id="path4461"
         style="font-style:normal;font-variant:normal;font-weight:bold;font-stretch:normal;font-size:medium;line-height:125%;font-family:sans-serif;-inkscape-font-specification:'sans-serif Bold';letter-spacing:0px;word-spacing:0px;fill:none;fill-opacity:1;stroke:#ff0000;stroke-width:1px;stroke-linecap:butt;stroke-linejoin:miter;stroke-opacity:1"
         d="m 228.30652,-228.86827 3.2898,0 0,10.27099 5.77637,0 0,2.48657 -9.06617,0 0,-12.75756 z" />
      <path
         inkscape:connector-curvature="0"
         id="path4410"
         style="font-style:normal;font-variant:normal;font-weight:bold;font-stretch:normal;font-size:medium;line-height:125%;font-family:sans-serif;-inkscape-font-specification:'sans-serif Bold';letter-spacing:0px;word-spacing:0px;fill:none;fill-opacity:1;stroke:#ff0000;stroke-width:1px;stroke-linecap:butt;stroke-linejoin:miter;stroke-opacity:1"
         d="m 133.98986,-190.60332 0,-4.89624 0.43579,-3.57178 2.20459,0 0.43579,3.57178 0,4.89624 -3.07617,0 z m 0,-9.71558 0,-3.04199 3.07617,0 0,3.04199 -3.07617,0 z" />
      <path
         inkscape:connector-curvature="0"
         id="path4412"
         style="font-style:normal;font-variant:normal;font-weight:bold;font-stretch:normal;font-size:medium;line-height:125%;font-family:sans-serif;-inkscape-font-specification:'sans-serif Bold';letter-spacing:0px;word-spacing:0px;fill:none;fill-opacity:1;stroke:#ff0000;stroke-width:1px;stroke-linecap:butt;stroke-linejoin:miter;stroke-opacity:1"
         d="m 152.60924,-194.73906 q -1.23047,0.59814 -2.55493,0.89721 -1.32446,0.29908 -2.73437,0.29908 -3.18726,0 -5.05005,-1.77735 -1.8628,-1.78589 -1.8628,-4.83642 0,-3.08472 1.89698,-4.85352 1.89697,-1.7688 5.19531,-1.7688 1.27319,0 2.4353,0.23926 1.17066,0.23926 2.20459,0.70923 l 0,2.64038 q -1.06811,-0.60669 -2.12768,-0.90576 -1.05103,-0.29907 -2.1106,-0.29907 -1.96533,0 -3.03345,1.10229 -1.05957,1.09375 -1.05957,3.13599 0,2.02514 1.02539,3.12744 1.02539,1.10229 2.91382,1.10229 0.5127,0 0.94849,-0.0598 0.44433,-0.0684 0.79468,-0.20508 l 0,-2.47803 -2.00806,0 0,-2.20459 5.12695,0 0,6.13526 z" />
      <path
         inkscape:connector-curvature="0"
         id="path4414"
         style="font-style:normal;font-variant:normal;font-weight:bold;font-stretch:normal;font-size:medium;line-height:125%;font-family:sans-serif;-inkscape-font-specification:'sans-serif Bold';letter-spacing:0px;word-spacing:0px;fill:none;fill-opacity:1;stroke:#ff0000;stroke-width:1px;stroke-linecap:butt;stroke-linejoin:miter;stroke-opacity:1"
         d="m 158.78722,-198.61846 0,4.82788 -3.28979,0 0,-12.75756 5.02441,0 c 1.6805,0 2.91097,0.28198 3.69141,0.84594 0.78613,0.56397 1.1792,1.45549 1.1792,2.67456 0,0.8431 -0.20508,1.53524 -0.61524,2.07642 -0.40446,0.54118 -1.01685,0.93994 -1.83716,1.19629 0.45003,0.10254 0.85165,0.3361 1.20484,0.70068 0.35889,0.35889 0.72062,0.90576 1.0852,1.64063 l 1.78589,3.62304 -3.50342,0 -1.55517,-3.17016 c -0.31331,-0.63802 -0.63232,-1.07381 -0.95703,-1.30738 -0.31901,-0.23356 -0.74626,-0.35034 -1.28174,-0.35034 z"
         sodipodi:nodetypes="ccccscsccccccccsc" />
      <path
         inkscape:connector-curvature="0"
         id="path4416"
         style="font-style:normal;font-variant:normal;font-weight:bold;font-stretch:normal;font-size:medium;line-height:125%;font-family:sans-serif;-inkscape-font-specification:'sans-serif Bold';letter-spacing:0px;word-spacing:0px;fill:none;fill-opacity:1;stroke:#ff0000;stroke-width:1px;stroke-linecap:butt;stroke-linejoin:miter;stroke-opacity:1"
         d="m 176.70592,-196.11479 -5.14404,0 -0.81177,2.32421 -3.30688,0 4.72534,-12.75756 3.92212,0 4.72534,12.75756 -3.30688,0 z"
         sodipodi:nodetypes="ccccccccc" />
      <path
         inkscape:connector-curvature="0"
         id="path4418"
         style="font-style:normal;font-variant:normal;font-weight:bold;font-stretch:normal;font-size:medium;line-height:125%;font-family:sans-serif;-inkscape-font-specification:'sans-serif Bold';letter-spacing:0px;word-spacing:0px;fill:none;fill-opacity:1;stroke:#ff0000;stroke-width:1px;stroke-linecap:butt;stroke-linejoin:miter;stroke-opacity:1"
         d="m 192.61657,-194.49126 q -0.90576,0.46997 -1.88843,0.70923 -0.98267,0.23926 -2.05078,0.23926 -3.18726,0 -5.05005,-1.77735 -1.86279,-1.78589 -1.86279,-4.83642 0,-3.05909 1.86279,-4.83643 1.86279,-1.78589 5.05005,-1.78589 1.06811,0 2.05078,0.23926 0.98267,0.23926 1.88843,0.70923 l 0,2.64038 q -0.91431,-0.62378 -1.80298,-0.91431 -0.88867,-0.29052 -1.87134,-0.29052 -1.76025,0 -2.76855,1.12793 -1.0083,1.12793 -1.0083,3.11035 0,1.97387 1.0083,3.1018 1.0083,1.12793 2.76855,1.12793 0.98267,0 1.87134,-0.29052 0.88867,-0.29053 1.80298,-0.91431 l 0,2.64038 z" />
      <path
         inkscape:connector-curvature="0"
         id="path4420"
         style="font-style:normal;font-variant:normal;font-weight:bold;font-stretch:normal;font-size:medium;line-height:125%;font-family:sans-serif;-inkscape-font-specification:'sans-serif Bold';letter-spacing:0px;word-spacing:0px;fill:none;fill-opacity:1;stroke:#ff0000;stroke-width:1px;stroke-linecap:butt;stroke-linejoin:miter;stroke-opacity:1"
         d="m 195.35094,-206.54814 3.2898,0 0,12.75756 -3.2898,0 0,-12.75756 z" />
      <path
         inkscape:connector-curvature="0"
         id="path4424"
         style="font-style:normal;font-variant:normal;font-weight:bold;font-stretch:normal;font-size:medium;line-height:125%;font-family:sans-serif;-inkscape-font-specification:'sans-serif Bold';letter-spacing:0px;word-spacing:0px;fill:none;fill-opacity:1;stroke:#ff0000;stroke-width:1px;stroke-linecap:butt;stroke-linejoin:miter;stroke-opacity:1"
         d="m 224.29259,-206.14653 0,2.70019 q -1.05102,-0.46997 -2.05078,-0.70923 -0.99975,-0.23925 -1.88843,-0.23925 -1.1792,0 -1.74316,0.3247 -0.56397,0.32471 -0.56397,1.0083 0,0.5127 0.37598,0.80323 0.38452,0.28198 1.38428,0.48706 l 1.40137,0.28198 q 2.12768,0.42725 3.0249,1.29883 0.89722,0.87158 0.89722,2.47802 0,2.1106 -1.25611,3.14454 -1.24756,1.02539 -3.81958,1.02539 -1.21338,0 -2.4353,-0.23072 -1.22193,-0.23071 -2.44385,-0.68359 l 0,-2.7771 q 1.22192,0.64941 2.3584,0.98267 1.14502,0.3247 2.20459,0.3247 1.07666,0 1.64917,-0.35888 0.57251,-0.35889 0.57251,-1.02539 0,-0.59815 -0.39307,-0.92286 -0.38452,-0.3247 -1.54663,-0.58105 l -1.27319,-0.28198 q -1.91406,-0.41016 -2.80274,-1.30738 -0.88012,-0.89721 -0.88012,-2.41821 0,-1.90552 1.23047,-2.93091 1.23046,-1.02539 3.53759,-1.02539 1.05103,0 2.16187,0.16236 1.11084,0.1538 2.29858,0.46997 z" />
      <path
         inkscape:connector-curvature="0"
         id="path4426"
         style="font-style:normal;font-variant:normal;font-weight:bold;font-stretch:normal;font-size:medium;line-height:125%;font-family:sans-serif;-inkscape-font-specification:'sans-serif Bold';letter-spacing:0px;word-spacing:0px;fill:none;fill-opacity:1;stroke:#ff0000;stroke-width:1px;stroke-linecap:butt;stroke-linejoin:miter;stroke-opacity:1"
         d="m 228.87267,-206.54814 3.07617,0 0,4.89624 -0.43579,3.57177 -2.20459,0 -0.43579,-3.57177 0,-4.89624 z m 0,9.71557 3.07617,0 0,3.04199 -3.07617,0 0,-3.04199 z" />
      <path
         inkscape:connector-curvature="0"
         id="path4431-6"
         style="font-style:normal;font-variant:normal;font-weight:bold;font-stretch:normal;font-size:medium;line-height:125%;font-family:sans-serif;-inkscape-font-specification:'sans-serif Bold';letter-spacing:0px;word-spacing:0px;fill:none;fill-opacity:1;stroke:#ff0000;stroke-width:1px;stroke-linecap:butt;stroke-linejoin:miter;stroke-opacity:1"
         d="m 245.10841,-229.41743 c 2.05078,0 3.65722,0.58675 4.81933,1.76026 1.16211,1.1735 1.74317,2.79419 1.74317,4.86206 0,2.06217 -0.58106,3.68001 -1.74317,4.85351 -1.16211,1.17351 -2.76855,1.76026 -4.81933,1.76026 -2.04509,0 -3.65153,-0.58675 -4.81934,-1.76026 -1.16211,-1.1735 -1.74316,-2.79134 -1.74316,-4.85351 0,-2.06787 0.58105,-3.68856 1.74316,-4.86206 1.16781,-1.17351 2.77425,-1.76026 4.81934,-1.76026 z"
         sodipodi:nodetypes="ssssscscs" />
      <path
         inkscape:connector-curvature="0"
         id="path4416-2"
         style="font-style:normal;font-variant:normal;font-weight:bold;font-stretch:normal;font-size:medium;line-height:125%;font-family:sans-serif;-inkscape-font-specification:'sans-serif Bold';letter-spacing:0px;word-spacing:0px;fill:none;fill-opacity:1;stroke:#ff0000;stroke-width:1px;stroke-linecap:butt;stroke-linejoin:miter;stroke-opacity:1"
         d="m 209.47189,-196.11479 -5.14404,0 -0.81177,2.32421 -3.30688,0 4.72534,-12.75756 3.92212,0 4.72534,12.75756 -3.30688,0 z"
         sodipodi:nodetypes="ccccccccc" />
    </g>
  </g>
</svg>
