<?xml version="1.0" encoding="UTF-8" standalone="no"?>
<!-- Created with Inkscape (http://www.inkscape.org/) -->

<svg
   xmlns:dc="http://purl.org/dc/elements/1.1/"
   xmlns:cc="http://creativecommons.org/ns#"
   xmlns:rdf="http://www.w3.org/1999/02/22-rdf-syntax-ns#"
   xmlns:svg="http://www.w3.org/2000/svg"
   xmlns="http://www.w3.org/2000/svg"
   xmlns:sodipodi="http://sodipodi.sourceforge.net/DTD/sodipodi-0.dtd"
   xmlns:inkscape="http://www.inkscape.org/namespaces/inkscape"
   width="457.20001mm"
   height="308.39999mm"
   viewBox="0 0 1620 1092.7559"
   id="svg2"
   version="1.1"
   inkscape:version="0.91 r13725"
   sodipodi:docname="caca-grande.svg">
  <defs
     id="defs4">
    <clipPath
       id="clipPath3352"
       clipPathUnits="userSpaceOnUse">
      <path
         inkscape:connector-curvature="0"
         id="path3354"
         d="m 2880,520 8300,0 0,7960 -8300,0 0,-7960 z" />
    </clipPath>
  </defs>
  <sodipodi:namedview
     id="base"
     pagecolor="#ffffff"
     bordercolor="#666666"
     borderopacity="1.0"
     inkscape:pageopacity="0.0"
     inkscape:pageshadow="2"
     inkscape:zoom="0.24748737"
     inkscape:cx="859.11477"
     inkscape:cy="97.108019"
     inkscape:document-units="px"
     inkscape:current-layer="layer1"
     showgrid="false"
     inkscape:window-width="1215"
     inkscape:window-height="1000"
     inkscape:window-x="65"
     inkscape:window-y="24"
     inkscape:window-maximized="1" />
  <metadata
     id="metadata7">
    <rdf:RDF>
      <cc:Work
         rdf:about="">
        <dc:format>image/svg+xml</dc:format>
        <dc:type
           rdf:resource="http://purl.org/dc/dcmitype/StillImage" />
        <dc:title></dc:title>
      </cc:Work>
    </rdf:RDF>
  </metadata>
  <g
     inkscape:label="Layer 1"
     inkscape:groupmode="layer"
     id="layer1"
     transform="translate(0,40.393701)">
    <g
       transform="matrix(1.25,0,0,-1.25,-73.712308,1038.6932)"
       inkscape:label="ink_ext_XXXXXX"
       id="g3344">
      <g
         transform="scale(0.1,0.1)"
         id="g3346">
        <g
           id="g3348">
          <g
             clip-path="url(#clipPath3352)"
             id="g3350">
            <path
               inkscape:connector-curvature="0"
               id="path3356"
               style="fill:none;stroke:#ff0000;stroke-width:35.9231987;stroke-linecap:butt;stroke-linejoin:miter;stroke-miterlimit:4;stroke-dasharray:none;stroke-opacity:1"
               d="m 3830.62,3304.22 c 57.35,-248.56 50.9,-264.53 -139.84,-343.79 -201.29,-83.63 -474.49,-320.12 -601.21,-520.47 -208.28,-329.3 -245.78,-912.77 -81.25,-1262.85 141.95,-301.989 430.51,-518.59 792.5,-594.84 241.33,-50.821 804.34,-16.649 1160.35,70.46 446.37,109.18 840.71,136.45 1187.89,82.149 C 7947.7,453.59 9720.35,495.27 10472.9,836.48 c 495.5,224.65 687.5,481.22 687.5,918.72 0,537.65 -220.6,895.82 -712,1155.97 -165,87.31 -221.3,135.28 -206,175.28 240.4,626.44 -35.7,1354.92 -617.48,1629.17 l -184.65,87.08 19.73,179.6 c 52.11,475.2 -260.47,901.8 -778.32,1062.27 l -197.58,61.17 -3.24,230.71 c -9.06,653.55 -765.12,1501.28 -1730,1939.72 -189.14,85.94 -360.9,114.1 -546.72,135.2 -202.19,40.66 -388.12,95.19 -457.3,-41.33 -81.18,-160.08 222.57,-314.53 278.75,-462.58 50.23,-132.34 15.43,-224.69 -132.66,-456.21 -179.65,-280.82 -204.14,-351.56 -226.72,-654.8 l -20.04,-269.46 -233.32,-123.32 c -415.43,-219.65 -678.83,-563.79 -757.62,-989.92 -32.93,-178.13 -21.44,-285.27 58.32,-546.91 21.22,-69.57 0,-90.47 -168.16,-165.67 C 4276.6,4535.7 4043.16,4322.81 3932.85,4065 c 0,0 -90.43,-203.67 -110.23,-312.07 -18.48,-101.33 -6.53,-308.75 -6.53,-308.75 1.29,-51.8 5.2,-99.49 14.53,-139.96 z" />
            <path
               inkscape:connector-curvature="0"
               id="path3358"
               style="fill:none;stroke:#ff0000;stroke-width:35.9231987;stroke-linecap:butt;stroke-linejoin:miter;stroke-miterlimit:4;stroke-dasharray:none;stroke-opacity:1"
               d="m 7539.38,1661.84 c 265.97,107.38 571.48,314.41 750.58,508.75 147.19,159.64 179.77,244.68 110.2,287.65 -28.28,17.5 -2717.58,36.33 -2935.67,20.55 -24.69,-1.8 -44.88,-41.72 -44.88,-88.71 0,-163.05 439.41,-529.49 855.82,-713.71 344.65,-152.42 906.25,-158.91 1263.95,-14.53 z" />
            <path
               inkscape:connector-curvature="0"
               id="path3360"
               style="fill:none;stroke:#ff0000;stroke-width:35.9231987;stroke-linecap:butt;stroke-linejoin:miter;stroke-miterlimit:4;stroke-dasharray:none;stroke-opacity:1"
               d="m 5646.8,5349.14 c -293.28,-0.47 -576.96,-194.1 -761.92,-556.95 -126.36,-247.93 -140.5,-733.24 -29.96,-1028.17 88.63,-236.36 343.52,-539.25 518.63,-616.25 135.32,-59.49 365.36,-62.97 524.57,-8 128.72,44.45 233.72,118.2 327.35,233.24 -52.23,4.96 -104.73,23.44 -154.69,58.44 -273.08,191.28 -294.26,831.17 -35.98,1089.41 149.22,149.22 289.38,146.33 444.89,-9.18 15.47,-15.47 29.61,-31.8 43.2,-48.44 -40.16,261.92 -161.01,500.24 -357.11,672.85 -163.59,144.03 -343.05,213.29 -518.98,213.05 z" />
            <path
               inkscape:connector-curvature="0"
               id="path3362"
               style="fill:none;stroke:#ff0000;stroke-width:35.9231987;stroke-linecap:butt;stroke-linejoin:miter;stroke-miterlimit:4;stroke-dasharray:none;stroke-opacity:1"
               d="m 8078.01,5349.14 c -293.28,-0.47 -576.96,-194.1 -761.92,-556.95 -126.32,-247.93 -140.5,-733.24 -29.96,-1028.17 88.64,-236.36 343.52,-539.25 518.67,-616.25 135.28,-59.49 365.32,-62.97 524.54,-8 128.75,44.45 233.71,118.2 327.38,233.24 -52.27,4.96 -104.77,23.44 -154.73,58.44 -273.08,191.28 -294.22,831.17 -35.97,1089.41 149.21,149.22 289.37,146.33 444.88,-9.18 15.47,-15.47 29.61,-31.8 43.2,-48.44 -40.12,261.92 -161.01,500.24 -357.11,672.85 -163.59,144.03 -343.01,213.29 -518.98,213.05 z" />
          </g>
        </g>
      </g>
    </g>
  </g>
</svg>
